<?xml version="1.0" encoding="utf-8"?>
<COLLADA xmlns="http://www.collada.org/2005/11/COLLADASchema" version="1.4.1" xmlns:xsi="http://www.w3.org/2001/XMLSchema-instance">
  <asset>
    <contributor>
      <author>Blender User</author>
      <authoring_tool>Blender 2.83.20 commit date:2022-04-19, commit time:16:00, hash:a56e2faeb7a9</authoring_tool>
    </contributor>
    <created>2026-06-23T17:51:01</created>
    <modified>2026-06-23T17:51:01</modified>
    <unit name="meter" meter="1"/>
    <up_axis>Z_UP</up_axis>
  </asset>
  <library_effects>
    <effect id="Plastic_Blue-effect">
      <profile_COMMON>
        <technique sid="common">
          <lambert>
            <emission>
              <color sid="emission">0 0 0 1</color>
            </emission>
            <diffuse>
              <color sid="diffuse">0.07227185 0.1328683 1 1</color>
            </diffuse>
            <index_of_refraction>
              <float sid="ior">1.45</float>
            </index_of_refraction>
          </lambert>
        </technique>
      </profile_COMMON>
    </effect>
  </library_effects>
  <library_images/>
  <library_materials>
    <material id="Plastic_Blue-material" name="Plastic_Blue">
      <instance_effect url="#Plastic_Blue-effect"/>
    </material>
  </library_materials>
  <library_geometries>
    <geometry id="Object_7_003-mesh" name="Object_7.003">
      <mesh>
        <source id="Object_7_003-mesh-positions">
          <float_array id="Object_7_003-mesh-positions-array" count="738">-0.4541763 0.05845671 0.5968411 -0.5771493 0.05845671 0.595983 -0.5771493 0.04880273 0.595983 -0.4541763 0.04880273 0.5968411 0.5968456 -0.05972927 0.4541741 -0.09813737 0.04880273 0.4493232 -0.09813737 0.05845671 0.4493232 0.09185767 0.05845671 0.450649 0.09185767 0.04880273 0.450649 -0.6031253 -0.05972927 0.4457982 -0.6039844 -0.05972927 0.5687711 -0.09918427 0.04880273 0.5993192 0.09081077 0.04880273 0.600646 0.09081077 0.05845671 0.600646 -0.09918427 0.05845671 0.5993192 0.4458017 0.05845671 0.6031242 0.4458017 0.04880273 0.6031242 0.5687757 0.04880273 0.6039822 0.5687757 0.05845671 0.6039822 0.5968456 0.04880273 0.4541741 0.5968456 0.05845671 0.4541741 0.5959866 0.05845671 0.5771482 0.5959866 0.04880273 0.5771482 -0.6031253 0.05845671 0.4457982 -0.6031253 0.04880273 0.4457982 -0.6039844 0.04880273 0.5687711 -0.6039844 0.05845671 0.5687711 -0.09813737 0.05845671 0.4493232 -0.09918427 0.05845671 0.5993192 0.09081077 0.05845671 0.600646 0.09185767 0.05845671 0.450649 0.5959866 -0.05972927 0.5771482 -0.4541763 -0.05972927 0.5968411 -0.5771493 -0.05972927 0.595983 0.09081077 -0.05972927 0.600646 0.4458017 -0.05972927 0.6031242 -0.4539663 0.02834874 0.5668421 -0.09897541 0.02834874 0.5693202 0.4460118 0.0112307 0.5731242 0.4460118 -0.05972927 0.5731242 0.4458017 -0.05972927 0.6031242 0.4458017 0.0112307 0.6031242 -0.6031253 0.0231387 0.4457982 -0.6039844 0.0231387 0.5687711 0.4468486 0.05845671 0.4531272 0.5968456 0.05845671 0.4541741 0.5968456 0.04880273 0.4541741 0.4468486 0.04880273 0.4531272 0.4460118 0.02834874 0.5731242 0.09101963 0.02834874 0.5706461 -0.09918427 0.02058172 0.5993192 0.09081077 0.02058172 0.600646 0.09101963 0.008673727 0.5706461 0.09081077 0.008673727 0.600646 0.09081077 -0.05972927 0.600646 0.09101963 -0.05972927 0.5706461 -0.09813737 0.02058172 0.4493232 -0.09834742 0.02058172 0.4793222 -0.09834742 0.02834874 0.4793222 -0.09813737 0.04880273 0.4493232 -0.6031253 0.0112307 0.4457982 -0.6039844 0.0112307 0.5687711 -0.4531293 0.05845671 0.4468451 -0.4531293 0.04880273 0.4468451 -0.6031253 0.04880273 0.4457982 -0.6031253 0.05845671 0.4457982 0.4458017 0.05845671 0.6031242 0.4468486 0.05845671 0.4531272 -0.4541763 0.05845671 0.5968411 -0.4531293 0.05845671 0.4468451 0.5687757 -0.05972927 0.6039822 0.4466398 0.02834874 0.4831271 0.4466398 0.0231387 0.4831271 0.4460118 0.0231387 0.5731242 0.4460118 0.02834874 0.5731242 0.5968456 0.0112307 0.4541741 0.5959866 0.0112307 0.5771482 0.5968456 0.0231387 0.4541741 0.5959866 0.0231387 0.5771482 -0.09918427 -0.05972927 0.5993192 0.09101963 0.02834874 0.5706461 0.09081077 0.04880273 0.600646 0.09081077 0.02058172 0.600646 0.09101963 0.02058172 0.5706461 -0.4539663 0.0231387 0.5668421 -0.4539663 0.02834874 0.5668421 -0.4541763 0.04880273 0.5968411 -0.4541763 0.0231387 0.5968411 -0.4531293 -0.05972927 0.4468451 -0.4531293 0.0112307 0.4468451 -0.4533383 0.0112307 0.4768441 -0.4533383 -0.05972927 0.4768441 0.09164857 0.02834874 0.4806481 0.09164857 0.02058172 0.4806481 0.5879388 0.04880273 0.5962012 0.5879388 0.0231387 0.5962012 0.4466398 0.02834874 0.4831271 0.09164857 0.02834874 0.4806481 -0.5962024 -0.05972927 0.5879352 -0.5962024 0.0112307 0.5879352 -0.09834742 -0.05972927 0.4793222 -0.09897541 -0.05972927 0.5693202 -0.09897541 0.008673727 0.5693202 -0.09834742 0.008673727 0.4793222 -0.4533383 0.02834874 0.4768441 -0.09834742 0.02834874 0.4793222 0.4468486 0.04880273 0.4531272 0.4468486 0.0231387 0.4531272 0.09185767 0.04880273 0.450649 0.09185767 0.02058172 0.450649 0.09185767 0.008673727 0.450649 0.09164857 0.008673727 0.4806481 0.09164857 -0.05972927 0.4806481 0.09185767 -0.05972927 0.450649 -0.4531293 0.0112307 0.4468451 -0.4531293 -0.05972927 0.4468451 -0.6031253 -0.05972927 0.4457982 -0.6031253 0.0112307 0.4457982 -0.4531293 0.0231387 0.4468451 -0.6031253 0.0231387 0.4457982 0.5879388 0.05845671 0.5962012 0.5879388 0.0112307 0.5962012 0.5879388 -0.05972927 0.5962012 -0.5962024 0.04880273 0.5879352 -0.5962024 0.05845671 0.5879352 -0.5962024 0.0231387 0.5879352 -0.09813737 -0.05972927 0.4493232 -0.09813737 0.008673727 0.4493232 0.09185767 0.008673727 0.450649 0.09185767 -0.05972927 0.450649 -0.5771493 0.0112307 0.595983 -0.5771493 0.0231387 0.595983 -0.4541763 0.0231387 0.5968411 -0.4533383 0.0231387 0.4768441 -0.4533383 0.02834874 0.4768441 -0.4531293 0.0231387 0.4468451 -0.4531293 0.04880273 0.4468451 -0.4539663 -0.05972927 0.5668421 -0.4539663 0.0112307 0.5668421 -0.4541763 0.0112307 0.5968411 -0.4541763 -0.05972927 0.5968411 -0.4541763 0.0112307 0.5968411 -0.09813737 0.02058172 0.4493232 0.09185767 0.02058172 0.450649 -0.09918427 -0.05972927 0.5993192 -0.09918427 0.008673727 0.5993192 0.5968456 0.0231387 0.4541741 0.4468486 0.0231387 0.4531272 -0.09897541 0.02058172 0.5693202 -0.09897541 0.02834874 0.5693202 -0.09813737 -0.05972927 0.4493232 -0.09813737 0.008673727 0.4493232 -0.09918427 0.02058172 0.5993192 -0.09918427 0.04880273 0.5993192 0.09081077 0.008673727 0.600646 -0.09918427 0.008673727 0.5993192 0.5687757 0.0231387 0.6039822 0.5687757 0.0112307 0.6039822 0.4468486 0.0112307 0.4531272 0.5968456 0.0112307 0.4541741 0.5968456 -0.05972927 0.4541741 0.4468486 -0.05972927 0.4531272 0.4466398 0.0112307 0.4831271 0.4466398 -0.05972927 0.4831271 0.4468486 0.0112307 0.4531272 0.4468486 -0.05972927 0.4531272 0.4458017 0.0231387 0.6031242 0.4458017 0.0112307 0.6031242 0.4458017 0.0231387 0.6031242 0.4458017 0.04880273 0.6031242 -0.5799643 0.01718473 0.5991972 -0.6000333 0.01718473 0.5907192 -0.6000333 0.01718473 0.5907192 -0.5799643 0.01718473 0.5991972 -0.6082304 0.01718473 0.5705342 -0.6082304 0.01718473 0.5705342 -0.4495484 0.01718473 0.4737032 -0.4493283 0.01718473 0.4421032 -0.4493283 0.01718473 0.4421032 -0.4495484 0.01718473 0.4737032 -0.4502103 0.01718473 0.5685022 -0.4502103 0.01718473 0.5685022 -0.6073253 0.01718473 0.4410002 -0.4493283 0.01718473 0.4421032 -0.4493283 0.01718473 0.4421032 -0.6073253 0.01718473 0.4410002 -0.4504314 0.01718473 0.6001012 -0.4504314 0.01718473 0.6001012 -0.4504314 0.01718473 0.6001012 -0.4504314 0.01718473 0.6001012 -0.6073253 0.01718473 0.4410002 -0.6073253 0.01718473 0.4410002 -0.1031773 0.01462775 0.4452872 -0.1033983 0.01462775 0.476886 -0.1033983 0.01462775 0.476886 -0.1031773 0.01462775 0.4452872 0.09695267 0.01462775 0.4466841 0.09673261 0.01462775 0.4782841 0.09673261 0.01462775 0.4782841 0.09695267 0.01462775 0.4466841 -0.1040592 0.01462775 0.5716851 -0.1040592 0.01462775 0.5716851 0.09607076 0.01462775 0.5730822 0.09607076 0.01462775 0.5730822 0.0958507 0.01462775 0.6046822 0.0958507 0.01462775 0.6046822 0.09695267 0.01462775 0.4466841 -0.1031773 0.01462775 0.4452872 -0.1031773 0.01462775 0.4452872 0.09695267 0.01462775 0.4466841 -0.1042802 0.01462775 0.6032851 0.0958507 0.01462775 0.6046822 0.0958507 0.01462775 0.6046822 -0.1042802 0.01462775 0.6032851 -0.1042802 0.01462775 0.6032851 -0.1042802 0.01462775 0.6032851 0.5715447 0.01718473 0.6072352 0.5917306 0.01718473 0.5990381 0.5917306 0.01718473 0.5990381 0.5715447 0.01718473 0.6072352 0.6002076 0.01718473 0.5789702 0.6002076 0.01718473 0.5789702 0.4428938 0.01718473 0.479933 0.4431148 0.01718473 0.448333 0.4431148 0.01718473 0.448333 0.4428938 0.01718473 0.479933 0.4422317 0.01718473 0.5747311 0.4422317 0.01718473 0.5747311 0.4431148 0.01718473 0.448333 0.6011126 0.01718473 0.4494362 0.6011126 0.01718473 0.4494362 0.4431148 0.01718473 0.448333 0.6011126 0.01718473 0.4494362 0.6011126 0.01718473 0.4494362 0.4420116 0.01718473 0.6063311 0.4420116 0.01718473 0.6063311 0.4420116 0.01718473 0.6063311 0.4420116 0.01718473 0.6063311 0.5687757 0.05845671 0.6039822 0.5968456 0.05845671 0.4541741 0.5879388 0.05845671 0.5962012 0.5959866 0.05845671 0.5771482 -0.5962024 0.05845671 0.5879352 -0.6031253 0.05845671 0.4457982 -0.6039844 0.05845671 0.5687711 -0.5771493 0.05845671 0.595983</float_array>
          <technique_common>
            <accessor source="#Object_7_003-mesh-positions-array" count="246" stride="3">
              <param name="X" type="float"/>
              <param name="Y" type="float"/>
              <param name="Z" type="float"/>
            </accessor>
          </technique_common>
        </source>
        <source id="Object_7_003-mesh-normals">
          <float_array id="Object_7_003-mesh-normals-array" count="714">-0.006979167 0 0.9999758 -0.2019196 0 0.9794022 -0.2019194 0 0.9794023 -0.006798565 -0.2258762 0.9741324 0.006798863 -0.2258762 -0.9741324 0.006979346 0 -0.9999758 0.006979465 0 -0.9999758 0.006798863 -0.2258772 -0.9741321 -0.006801664 -0.2258765 0.9741323 -0.006801664 -0.2258828 0.9741308 -0.006982028 0 0.9999757 -0.00698173 0 0.9999757 -0.006978809 0 0.9999758 -0.006798386 -0.2258831 0.9741307 0.188233 0 0.9821244 0.1882333 0 0.9821243 0.9999756 0 0.006985187 0.9999756 0 0.006985187 0.9794012 0 0.2019242 0.9794011 0 0.2019242 -0.9999756 0 -0.006985247 -0.9999757 0 -0.006985247 -0.9821226 0 0.1882424 -0.9821227 0 0.1882424 0 1 0 0 1 0 -0.002057552 -0.9555707 0.2947549 -0.002057611 -0.9555706 0.2947553 -0.9631608 -0.2688425 -0.006724894 -0.9999756 0 -0.006989538 -0.9999755 0 -0.00700134 -0.9999755 0 -0.00700134 -0.9363548 0.3509942 -0.006540834 -0.9285816 0.329774 0.1702509 0.006979227 0 -0.9999758 0.006979823 0 -0.9999758 0.006979048 0 -0.9999757 0.006799817 -0.2258827 -0.9741308 -0.002057552 -0.9555737 0.2947451 -0.002057552 -0.9555736 0.2947458 -0.006570279 0.3388767 0.9408078 -0.006568908 0.3388496 0.9408177 0.9384586 -0.3453298 0.006545305 0.9207661 -0.3900626 0.006411015 0.9999758 0 0.006961643 0.9999758 0 0.006974935 -0.9207631 0.390069 -0.006446957 -0.9384599 0.3453263 -0.006557703 -0.9999756 0 -0.006991565 -0.9999756 0 -0.007001578 -0.9363533 -0.3509984 -0.00654149 -0.9999756 0 -0.006985247 -0.9821228 0 0.1882415 -0.9285837 -0.3297662 0.1702551 0.006979942 0 -0.9999758 0.006799399 -0.2258769 -0.9741321 0.006979107 0 -0.9999757 0.006979286 0 -0.9999758 0 1 0 0 1 0 -0.9999758 0 -0.006968438 -0.9604424 0.2783983 -0.006699383 -0.9604324 0.2784326 -0.006713926 -0.9999756 0 -0.006991446 0.9999756 0 0.006985187 0.9363484 -0.3510113 0.006540715 0.9261196 -0.3297632 0.1831907 0.9794012 0 0.2019243 0.9363471 0.3510147 0.00654143 0.9261194 0.3297621 0.183194 0.9999758 0 0.006972789 0.9999758 0 0.006961584 0.9207653 0.3900643 0.006410181 0.9384574 0.345333 0.006547152 0.9604547 0.2783557 0.006711423 0.9999756 0 0.006991565 0.9999755 0 0.007001578 0.9501531 0.3117129 0.006652712 0.9999758 0 0.006965816 0.9465956 -0.3223563 0.006593942 0.9604479 -0.2783797 0.006696581 0.9999758 0 0.006971776 0.9999757 0 0.006977558 0.9384664 0.3453085 0.006548881 0.7021559 0 0.7120233 0.6473773 0.353483 0.6752426 0.002058327 -0.955574 -0.2947443 0.002057611 -0.9555711 -0.2947536 -0.712014 0 0.7021654 -0.6567332 -0.3534865 0.6661447 -0.9999756 0 -0.006989657 -0.9999758 0 -0.006969749 -0.9384705 -0.3452974 -0.00654602 -0.9384616 -0.3453215 -0.006557285 0.002057552 -0.9555706 -0.2947549 0.002057611 -0.9555708 -0.2947549 -0.9999758 0 -0.006961643 -0.9466113 0.3223099 -0.006590127 0.9999758 0 0.006969809 0.92078 0.3900296 0.006415426 0.9207822 -0.3900247 0.00641781 0.9384678 -0.3453046 0.006549656 0.9999758 0 0.006979048 0.9999758 0 0.006969809 0.006475687 -0.3730912 -0.9277721 0.006978809 0 -0.9999757 0.006979286 0 -0.9999758 0.006464958 -0.3768182 -0.9262647 0.00647509 0.3730937 -0.9277711 0.006465256 0.3768206 -0.9262638 0.7021568 0 0.7120224 0.647372 -0.3534756 0.6752515 0.7021551 0 0.7120241 -0.7120141 0 0.7021652 -0.7120143 0 0.702165 -0.6567235 0.3534835 0.6661559 0.006978154 0 -0.9999758 0.006565451 -0.3388322 -0.9408239 0.006566226 -0.3388085 -0.9408325 -0.2019194 0 0.9794023 -0.1758558 -0.2795436 0.943891 -0.1758606 0.2795432 0.9438902 -0.006698906 0.2802951 0.9598906 0.9604479 0.2783792 0.006698191 0.9999758 0 0.006970822 0.946595 0.3223578 0.006593048 0.9999758 0 0.006965816 0.9999756 0 0.006989657 0.9604556 -0.2783523 0.006713807 0.9501551 -0.3117068 0.006649553 0.9999755 0 0.007001578 -0.006697535 -0.280294 0.9598909 -0.0069772 0 0.9999757 0.006565988 0.3388341 -0.9408233 0.00656557 0.3388104 -0.9408318 -0.9999758 0 -0.006961822 -0.920759 -0.3900793 -0.00641036 0.006464898 0.3767731 -0.926283 0.0064767 0.3730685 -0.9277813 -0.9384702 0.3452984 -0.006540238 -0.9999758 0 -0.006968498 -0.9999755 0 -0.007001578 -0.9207656 -0.3900634 -0.006444036 -0.9207633 0.3900691 -0.006423115 -0.9999758 0 -0.006961882 -0.006983041 0 0.9999756 -0.006983041 0 0.9999756 -0.006570041 -0.3388455 0.9408191 -0.006568789 -0.3388732 0.9408091 0.1626726 0.2795332 0.9462552 0.1626778 -0.2795285 0.9462557 0.1882331 0 0.9821244 0.006475269 -0.3730668 -0.9277819 0.006466209 -0.3767712 -0.9262838 0.006979227 0 -0.9999758 0.00697875 0 -0.9999757 -0.9604417 -0.2784008 -0.00669676 -0.9999758 0 -0.00696969 -0.946606 -0.3223251 -0.006604552 -0.9999758 0 -0.006961643 -0.006697833 0.2802556 0.9599021 -0.006698429 -0.280254 0.9599026 -0.0069772 0 0.9999757 -0.9501512 0.311719 -0.006636202 -0.9999756 0 -0.007001399 -0.1976554 -0.5363667 0.820514 -0.5692757 -0.6191907 0.5408586 -0.5692623 0.6191951 0.5408679 -0.1976662 0.5363869 0.8204982 -0.7804313 -0.6041896 0.1608793 -0.7804302 0.6041927 0.1608724 0.8449879 0.534753 0.005891263 0.8449929 0.5347452 0.005884408 0.8449924 -0.5347459 0.005885839 0.8449901 -0.5347495 0.005888819 0.8450163 0.5347082 0.005904436 0.8450189 -0.5347038 0.005909264 0.005447685 -0.6251166 -0.7805125 0.00544846 -0.6251031 -0.7805232 0.005447387 0.6251072 -0.7805199 0.0054484 0.6251208 -0.7805091 -0.006131291 -0.477289 0.8787251 -0.006133258 0.4772927 0.8787231 0.8450033 0.5347285 0.005915343 0.845005 -0.5347259 0.005910217 -0.8149678 -0.5794784 -0.005694031 -0.8149711 0.5794737 -0.005692958 -0.7614698 0.6481786 -0.005330443 -0.761484 0.6481618 -0.005320847 -0.7614858 -0.6481598 -0.005321919 -0.7614713 -0.6481768 -0.005325973 0.7615185 -0.6481215 0.005306839 0.7615092 -0.6481325 0.005310475 0.7615083 0.6481336 0.005310893 0.7615166 0.6481238 0.005303144 -0.7615163 0.6481241 -0.00530678 -0.7615263 -0.6481122 -0.005321025 0.761475 -0.6481727 0.005307495 0.7614719 0.6481762 0.005310237 0.7614797 -0.648167 0.005302906 0.7614765 0.6481708 0.005301535 0.005792438 0.5576941 -0.8300263 0.005793094 0.5577234 -0.8300068 0.00579226 -0.5577191 -0.8300096 0.005793511 -0.55769 -0.8300291 -0.005795955 0.5577861 0.8299645 -0.005794286 0.5577457 0.8299917 -0.005796134 -0.5577424 0.8299939 -0.005794048 -0.5577828 0.8299669 -0.7614654 0.6481838 -0.005325794 -0.7614744 -0.6481734 -0.005306422 0.1861788 0.5363416 0.8232102 0.5616835 0.6191856 0.5487449 0.5616771 -0.6191826 0.5487548 0.1861888 -0.536347 0.8232046 0.7781177 0.6041817 0.1717481 0.778122 -0.6041775 0.1717436 -0.8449736 -0.5347757 -0.00589168 -0.8450298 -0.5346867 -0.005910158 -0.8450227 0.534698 -0.005888521 -0.8449624 0.5347933 -0.005904912 -0.8449299 -0.5348449 -0.005889177 -0.8449344 0.5348375 -0.005907118 0.005447924 -0.6250711 -0.7805489 0.00544995 -0.6250392 -0.7805743 0.005448162 0.6250439 -0.7805706 0.005449831 0.6250756 -0.7805452 0.8149427 0.5795137 0.005693852 0.8149473 -0.5795072 0.00569278 -0.8449273 -0.534849 -0.005883991 -0.845 0.534734 -0.005884468 -0.0061329 -0.4772237 0.8787605 -0.006131589 0.4772281 0.8787582 0 1 0 0 1 0 0 1 0 0 1 0 0 1 1.81916e-7</float_array>
          <technique_common>
            <accessor source="#Object_7_003-mesh-normals-array" count="238" stride="3">
              <param name="X" type="float"/>
              <param name="Y" type="float"/>
              <param name="Z" type="float"/>
            </accessor>
          </technique_common>
        </source>
        <source id="Object_7_003-mesh-map-0">
          <float_array id="Object_7_003-mesh-map-0-array" count="1494">0 1 0 1 0 1 0 1 0 1 0 1 0 1 0 1 0 1 0 1 0 1 0 1 0 1 0 1 0 1 0 1 0 1 0 1 0 1 0 1 0 1 0 1 0 1 0 1 0 1 0 1 0 1 0 1 0 1 0 1 0 1 0 1 0 1 0 1 0 1 0 1 0 1 0 1 0 1 0 1 0 1 0 1 0 1 0 1 0 1 0 1 0 1 0 1 0 1 0 1 0 1 0 1 0 1 0 1 0 1 0 1 0 1 0 1 0 1 0 1 0 1 0 1 0 1 0 1 0 1 0 1 0 1 0 1 0 1 0 1 0 1 0 1 0 1 0 1 0 1 0 1 0 1 0 1 0 1 0 1 0 1 0 1 0 1 0 1 0 1 0 1 0 1 0 1 0 1 0 1 0 1 0 1 0 1 0 1 0 1 0 1 0 1 0 1 0 1 0 1 0 1 0 1 0 1 0 1 0 1 0 1 0 1 0 1 0 1 0 1 0 1 0 1 0 1 0 1 0 1 0 1 0 1 0 1 0 1 0 1 0 1 0 1 0 1 0 1 0 1 0 1 0 1 0 1 0 1 0 1 0 1 0 1 0 1 0 1 0 1 0 1 0 1 0 1 0 1 0 1 0 1 0 1 0 1 0 1 0 1 0 1 0 1 0 1 0 1 0 1 0 1 0 1 0 1 0 1 0 1 0 1 0 1 0 1 0 1 0 1 0 1 0 1 0 1 0 1 0 1 0 1 0 1 0 1 0 1 0 1 0 1 0 1 0 1 0 1 0 1 0 1 0 1 0 1 0 1 0 1 0 1 0 1 0 1 0 1 0 1 0 1 0 1 0 1 0 1 0 1 0 1 0 1 0 1 0 1 0 1 0 1 0 1 0 1 0 1 0 1 0 1 0 1 0 1 0 1 0 1 0 1 0 1 0 1 0 1 0 1 0 1 0 1 0 1 0 1 0 1 0 1 0 1 0 1 0 1 0 1 0 1 0 1 0 1 0 1 0 1 0 1 0 1 0 1 0 1 0 1 0 1 0 1 0 1 0 1 0 1 0 1 0 1 0 1 0 1 0 1 0 1 0 1 0 1 0 1 0 1 0 1 0 1 0 1 0 1 0 1 0 1 0 1 0 1 0 1 0 1 0 1 0 1 0 1 0 1 0 1 0 1 0 1 0 1 0 1 0 1 0 1 0 1 0 1 0 1 0 1 0 1 0 1 0 1 0 1 0 1 0 1 0 1 0 1 0 1 0 1 0 1 0 1 0 1 0 1 0 1 0 1 0 1 0 1 0 1 0 1 0 1 0 1 0 1 0 1 0 1 0 1 0 1 0 1 0 1 0 1 0 1 0 1 0 1 0 1 0 1 0 1 0 1 0 1 0 1 0 1 0 1 0 1 0 1 0 1 0 1 0 1 0 1 0 1 0 1 0 1 0 1 0 1 0 1 0 1 0 1 0 1 0 1 0 1 0 1 0 1 0 1 0 1 0 1 0 1 0 1 0 1 0 1 0 1 0 1 0 1 0 1 0 1 0 1 0 1 0 1 0 1 0 1 0 1 0 1 0 1 0 1 0 1 0 1 0 1 0 1 0 1 0 1 0 1 0 1 0 1 0 1 0 1 0 1 0 1 0 1 0 1 0 1 0 1 0 1 0 1 0 1 0 1 0 1 0 1 0 1 0 1 0 1 0 1 0 1 0 1 0 1 0 1 0 1 0 1 0 1 0 1 0 1 0 1 0 1 0 1 0 1 0 1 0 1 0 1 0 1 0 1 0 1 0 1 0 1 0 1 0 1 0 1 0 1 0 1 0 1 0 1 0 1 0 1 0 1 0 1 0 1 0 1 0 1 0 1 0 1 0 1 0 1 0 1 0 1 0 1 0 1 0 1 0 1 0 1 0 1 0 1 0 1 0 1 0 1 0 1 0 1 0 1 0 1 0 1 0 1 0 1 0 1 0 1 0 1 0 1 0 1 0 1 0 1 0 1 0 1 0 1 0 1 0 1 0 1 0 1 0 1 0 1 0 1 0 1 0 1 0 1 0 1 0 1 0 1 0 1 0 1 0 1 0 1 0 1 0 1 0 1 0 1 0 1 0 1 0 1 0 1 0 1 0 1 0 1 0 1 0 1 0 1 0 1 0 1 0 1 0 1 0 1 0 1 0 1 0 1 0 1 0 1 0 1 0 1 0 1 0 1 0 1 0 1 0 1 0 1 0 1 0 1 0 1 0 1 0 1 0 1 0 1 0 1 0 1 0 1 0 1 0 1 0 1 0 1 0 1 0 1 0 1 0 1 0 1 0 1 0 1 0 1 0 1 0 1 0 1 0 1 0 1 0 1 0 1 0 1 0 1 0 1 0 1 0 1 0 1 0 1 0 1 0 1 0 1 0 1 0 1 0 1 0 1 0 1 0 1 0 1 0 1 0 1 0 1 0 1 0 1 0 1 0 1 0 1 0 1 0 1 0 1 0 1 0 1 0 1 0 1 0 1 0 1 0 1 0 1 0 1 0 1 0 1 0 1 0 1 0 1 0 1 0 1 0 1 0 1 0 1 0 1 0 1 0 1 0 1 0 1 0 1 0 1 0 1 0 1 0 1 0 1 0 1 0 1 0 1 0 1 0 1 0 1 0 1 0 1 0 1 0 1 0 1 0 1 0 1 0 1 0 1 0 1 0 1 0 1 0 1 0 1 0 1 0 1 0 1 0 1 0 1 0 1 0 1 0 1 0 1 0 1 0 1 0 1 0 1 0 1 0 1 0 1 0 1 0 1 0 1 0 1 0 1 0 1 0 1 0 1 0 1 0 1 0 1 0 1 0 1 0 1 0 1 0 1 0 1 0 1 0 1 0 1 0 1 0 1 0 1 0 1 0 1 0 1 0 1 0 1 0 1 0 1 0 1 0 1 0 1 0 1 0 1 0 1 0 1 0 1 0 1 0 1 0 1 0 1 0 1 0 1 0 1 0 1 0 1 0 1 0 1 0 1 0 1 0 1 0 1 0 1 0 1 0 1 0 1 0 1 0 1 0 1 0 1 0 1 0 1 0 1 0 1 0 1 0 1 0 1 0 1 0 1 0 1 0 1 0 1 0 1 0 1 0 1 0 1 0 1 0 1 0 1 0 1 0 1 0 1 0 1 0 1 0 1 0 1 0 1 0 1 0 1 0 1 0 1 0 1 0 1 0 1 0 1 0 1 0 1 0 1 0 1 0 1 0 1 0 1 0 1 0 1 0 1 0 1 0 1 0 1 0 1 0 1 0 1 0 1 0 1 0 1 0 1 0 1 0 1 0 1 0 1 0 1 0 1 0 1 0 1 0 1 0 1 0 1 0 1 0 1</float_array>
          <technique_common>
            <accessor source="#Object_7_003-mesh-map-0-array" count="747" stride="2">
              <param name="S" type="float"/>
              <param name="T" type="float"/>
            </accessor>
          </technique_common>
        </source>
        <vertices id="Object_7_003-mesh-vertices">
          <input semantic="POSITION" source="#Object_7_003-mesh-positions"/>
        </vertices>
        <triangles material="Plastic_Blue-material" count="249">
          <input semantic="VERTEX" source="#Object_7_003-mesh-vertices" offset="0"/>
          <input semantic="NORMAL" source="#Object_7_003-mesh-normals" offset="1"/>
          <input semantic="TEXCOORD" source="#Object_7_003-mesh-map-0" offset="2" set="0"/>
          <p>0 0 0 1 1 1 2 2 2 0 0 3 2 2 4 3 3 5 5 4 6 6 5 7 7 6 8 5 4 9 7 6 10 8 7 11 11 8 12 12 9 13 13 10 14 11 8 15 13 10 16 14 11 17 15 12 18 16 13 19 17 14 20 15 12 21 17 14 22 18 15 23 19 16 24 20 17 25 21 18 26 19 16 27 21 18 28 22 19 29 23 20 30 24 21 31 25 22 32 23 20 33 25 22 34 26 23 35 27 24 36 28 24 37 29 24 38 27 25 39 29 25 40 30 25 41 3 3 42 11 8 43 14 11 44 3 3 45 14 11 46 0 0 47 36 26 48 37 27 49 11 8 50 36 26 51 11 8 52 3 3 53 38 28 54 39 29 55 40 30 56 38 28 57 40 30 58 41 31 59 24 21 60 42 32 61 43 33 62 24 21 63 43 33 64 25 22 65 16 13 66 15 12 67 13 10 68 16 13 69 13 10 70 12 9 71 44 34 72 45 34 73 46 34 74 44 35 75 46 36 76 47 37 77 48 38 78 16 13 79 12 9 80 48 38 81 12 9 82 49 39 83 50 40 84 51 41 85 12 9 86 50 40 87 12 9 88 11 8 89 52 42 90 53 43 91 54 44 92 52 42 93 54 44 94 55 45 95 56 46 96 57 47 97 58 48 98 56 46 99 58 48 100 59 49 101 60 50 102 9 51 103 10 52 104 60 50 105 10 52 106 61 53 107 62 54 108 63 55 109 64 56 110 62 57 111 64 57 112 65 57 113 66 24 114 67 24 115 30 24 116 66 58 117 30 58 118 29 58 119 44 35 120 47 37 121 8 7 122 44 35 123 8 7 124 7 6 125 68 59 126 28 59 127 27 59 128 68 24 129 27 24 130 69 24 131 62 54 132 6 5 133 5 4 134 62 54 135 5 4 136 63 55 137 71 60 138 72 61 139 73 62 140 71 60 141 73 62 142 74 63 143 4 64 144 75 65 145 76 66 146 4 64 147 76 66 148 31 67 149 77 68 150 19 16 151 22 19 152 77 68 153 22 19 154 78 69 155 80 70 156 81 71 157 82 72 158 80 70 159 82 72 160 83 73 161 84 74 162 85 75 163 86 76 164 84 74 165 86 76 166 87 77 167 88 78 168 89 79 169 90 80 170 88 78 171 90 80 172 91 81 173 92 82 174 80 70 175 83 73 176 92 82 177 83 73 178 93 83 179 78 69 180 22 19 181 94 84 182 78 69 183 94 84 184 95 85 185 96 86 186 48 38 187 49 39 188 96 86 189 49 39 190 97 87 191 61 53 192 10 52 193 98 88 194 61 53 195 98 88 196 99 89 197 100 90 198 101 91 199 102 92 200 100 90 201 102 92 202 103 93 203 104 94 204 105 95 205 37 27 206 104 94 207 37 27 208 36 26 209 47 37 210 96 86 211 97 87 212 47 37 213 97 87 214 8 7 215 106 96 216 107 97 217 72 61 218 106 96 219 72 61 220 71 60 221 108 98 222 92 82 223 93 83 224 108 98 225 93 83 226 109 99 227 63 55 228 5 4 229 105 95 230 63 55 231 105 95 232 104 94 233 110 100 234 111 101 235 112 102 236 110 100 237 112 102 238 113 103 239 114 104 240 115 105 241 116 106 242 114 104 243 116 106 244 117 107 245 63 55 246 118 108 247 119 109 248 63 55 249 119 109 250 64 56 251 22 19 252 21 18 253 120 110 254 22 19 255 120 110 256 94 84 257 94 84 258 120 110 259 18 15 260 94 84 261 18 15 262 17 14 263 31 67 264 76 66 265 121 111 266 31 67 267 121 111 268 122 112 269 26 23 270 25 22 271 123 113 272 26 23 273 123 113 274 124 114 275 124 114 276 123 113 277 2 2 278 124 114 279 2 2 280 1 1 281 25 22 282 43 33 283 125 115 284 25 22 285 125 115 286 123 113 287 126 116 288 127 117 289 128 118 290 126 116 291 128 118 292 129 116 293 99 89 294 98 88 295 33 119 296 99 89 297 33 119 298 130 120 299 123 113 300 125 115 301 131 121 302 123 113 303 131 121 304 2 2 305 3 3 306 2 2 307 131 121 308 3 3 309 131 121 310 132 122 311 133 123 312 134 124 313 85 75 314 133 123 315 85 75 316 84 74 317 135 125 318 136 126 319 134 124 320 135 125 321 134 124 322 133 123 323 137 127 324 138 128 325 139 129 326 137 127 327 139 129 328 140 130 329 141 131 330 130 120 331 33 119 332 141 131 333 33 119 334 32 132 335 91 81 336 90 80 337 138 128 338 91 81 339 138 128 340 137 127 341 142 133 342 5 4 343 8 7 344 142 133 345 8 7 346 143 134 347 101 91 348 144 135 349 145 136 350 101 91 351 145 136 352 102 92 353 47 37 354 46 36 355 146 137 356 47 37 357 146 137 358 147 138 359 57 47 360 148 139 361 149 140 362 57 47 363 149 140 364 58 48 365 111 101 366 52 42 367 55 45 368 111 101 369 55 45 370 112 102 371 150 141 372 100 90 373 103 93 374 150 141 375 103 93 376 151 142 377 148 139 378 152 143 379 153 144 380 148 139 381 153 144 382 149 140 383 79 145 384 34 146 385 154 147 386 79 145 387 154 147 388 155 148 389 95 85 390 94 84 391 17 14 392 95 85 393 17 14 394 156 149 395 122 112 396 121 111 397 157 150 398 122 112 399 157 150 400 70 151 401 158 152 402 159 153 403 160 154 404 158 152 405 160 154 406 161 155 407 162 156 408 163 157 409 39 29 410 162 156 411 39 29 412 38 28 413 164 158 414 165 159 415 163 157 416 164 158 417 163 157 418 162 156 419 16 13 420 166 160 421 156 149 422 16 13 423 156 149 424 17 14 425 167 161 426 35 162 427 70 151 428 167 161 429 70 151 430 157 150 431 74 63 432 73 62 433 168 163 434 74 63 435 168 163 436 169 164 437 99 89 438 130 120 439 170 165 440 99 89 441 170 165 442 171 166 443 172 167 444 173 168 445 131 121 446 172 167 447 131 121 448 125 115 449 61 53 450 99 89 451 171 166 452 61 53 453 171 166 454 174 169 455 175 170 456 172 167 457 125 115 458 175 170 459 125 115 460 43 33 461 135 125 462 133 123 463 176 171 464 135 125 465 176 171 466 177 172 467 178 173 468 179 174 469 90 80 470 178 173 471 90 80 472 89 79 473 133 123 474 84 74 475 180 175 476 133 123 477 180 175 478 176 171 479 179 174 480 181 176 481 138 128 482 179 174 483 138 128 484 90 80 485 114 104 486 117 107 487 182 177 488 114 104 489 182 177 490 183 178 491 184 179 492 185 180 493 119 109 494 184 179 495 119 109 496 118 108 497 130 120 498 141 131 499 186 181 500 130 120 501 186 181 502 170 165 503 173 168 504 187 182 505 132 122 506 173 168 507 132 122 508 131 121 509 84 74 510 87 77 511 188 183 512 84 74 513 188 183 514 180 175 515 181 176 516 189 184 517 139 129 518 181 176 519 139 129 520 138 128 521 60 50 522 61 53 523 174 169 524 60 50 525 174 169 526 190 185 527 191 186 528 175 170 529 43 33 530 191 186 531 43 33 532 42 32 533 57 47 534 56 46 535 192 187 536 57 47 537 192 187 538 193 188 539 194 189 540 195 190 541 151 142 542 194 189 543 151 142 544 103 93 545 111 101 546 110 100 547 196 191 548 111 101 549 196 191 550 197 192 551 198 193 552 199 194 553 109 99 554 198 193 555 109 99 556 93 83 557 148 139 558 57 47 559 193 188 560 148 139 561 193 188 562 200 195 563 201 196 564 194 189 565 103 93 566 201 196 567 103 93 568 102 92 569 52 42 570 111 101 571 197 192 572 52 42 573 197 192 574 202 197 575 203 198 576 198 193 577 93 83 578 203 198 579 93 83 580 83 73 581 53 43 582 52 42 583 202 197 584 53 43 585 202 197 586 204 199 587 205 200 588 203 198 589 83 73 590 205 200 591 83 73 592 82 72 593 142 133 594 143 134 595 206 201 596 142 133 597 206 201 598 207 202 599 208 203 600 209 204 601 128 118 602 208 203 603 128 118 604 127 117 605 51 41 606 50 40 607 210 205 608 51 41 609 210 205 610 211 206 611 212 207 612 213 208 613 155 148 614 212 207 615 155 148 616 154 147 617 152 143 618 148 139 619 200 195 620 152 143 621 200 195 622 214 209 623 215 210 624 201 196 625 102 92 626 215 210 627 102 92 628 145 136 629 95 85 630 156 149 631 216 211 632 95 85 633 216 211 634 217 212 635 218 213 636 219 214 637 157 150 638 218 213 639 157 150 640 121 111 641 78 69 642 95 85 643 217 212 644 78 69 645 217 212 646 220 215 647 221 216 648 218 213 649 121 111 650 221 216 651 121 111 652 76 66 653 164 158 654 162 156 655 222 217 656 164 158 657 222 217 658 223 218 659 224 219 660 225 220 661 72 61 662 224 219 663 72 61 664 107 97 665 162 156 666 38 28 667 226 221 668 162 156 669 226 221 670 222 217 671 225 220 672 227 222 673 73 62 674 225 220 675 73 62 676 72 61 677 159 153 678 158 152 679 228 223 680 159 153 681 228 223 682 229 224 683 230 225 684 231 226 685 147 138 686 230 225 687 147 138 688 146 137 689 77 68 690 78 69 691 220 215 692 77 68 693 220 215 694 232 227 695 233 228 696 221 216 697 76 66 698 233 228 699 76 66 700 75 65 701 38 28 702 234 229 703 226 221 704 227 222 705 235 230 706 168 163 707 227 222 708 168 163 709 73 62 710 167 161 711 157 150 712 219 214 713 167 161 714 219 214 715 236 231 716 237 232 717 216 211 718 156 149 719 237 232 720 156 149 721 166 160 722 238 233 723 67 233 724 66 233 725 67 234 726 238 234 727 239 234 728 239 24 729 238 24 730 240 24 731 239 235 732 240 235 733 241 235 734 242 236 735 243 236 736 244 236 737 243 24 738 242 24 739 69 24 740 69 237 741 242 237 742 245 237 743 69 24 744 245 24 745 68 24 746</p>
        </triangles>
      </mesh>
    </geometry>
  </library_geometries>
  <library_visual_scenes>
    <visual_scene id="Scene" name="Scene">
      <node id="Object_9_003" name="Object_9.003" type="NODE">
        <matrix sid="transform">0.9042609 0 0 0 0 1 3.95912e-8 0 0 -4.37114e-8 0.9057404 0 0 0 0 1</matrix>
        <instance_geometry url="#Object_7_003-mesh" name="Object_9.003">
          <bind_material>
            <technique_common>
              <instance_material symbol="Plastic_Blue-material" target="#Plastic_Blue-material">
                <bind_vertex_input semantic="UVMap" input_semantic="TEXCOORD" input_set="0"/>
              </instance_material>
            </technique_common>
          </bind_material>
        </instance_geometry>
      </node>
    </visual_scene>
  </library_visual_scenes>
  <scene>
    <instance_visual_scene url="#Scene"/>
  </scene>
</COLLADA>