<?xml version="1.0" encoding="utf-8"?>
<COLLADA xmlns="http://www.collada.org/2005/11/COLLADASchema" version="1.4.1" xmlns:xsi="http://www.w3.org/2001/XMLSchema-instance">
  <asset>
    <contributor>
      <author>Blender User</author>
      <authoring_tool>Blender 2.83.20 commit date:2022-04-19, commit time:16:00, hash:a56e2faeb7a9</authoring_tool>
    </contributor>
    <created>2026-06-23T17:50:55</created>
    <modified>2026-06-23T17:50:55</modified>
    <unit name="meter" meter="1"/>
    <up_axis>Z_UP</up_axis>
  </asset>
  <library_effects>
    <effect id="Plastic_Blue-effect">
      <profile_COMMON>
        <technique sid="common">
          <lambert>
            <emission>
              <color sid="emission">0 0 0 1</color>
            </emission>
            <diffuse>
              <color sid="diffuse">0.07227185 0.1328683 1 1</color>
            </diffuse>
            <index_of_refraction>
              <float sid="ior">1.45</float>
            </index_of_refraction>
          </lambert>
        </technique>
      </profile_COMMON>
    </effect>
  </library_effects>
  <library_images/>
  <library_materials>
    <material id="Plastic_Blue-material" name="Plastic_Blue">
      <instance_effect url="#Plastic_Blue-effect"/>
    </material>
  </library_materials>
  <library_geometries>
    <geometry id="Object_7_004-mesh" name="Object_7.004">
      <mesh>
        <source id="Object_7_004-mesh-positions">
          <float_array id="Object_7_004-mesh-positions-array" count="660">0.6006496 -0.05972927 -0.09081196 -0.09433341 0.04880273 -0.09566378 -0.09433341 0.05845671 -0.09566378 0.09566164 0.05845671 -0.09433794 0.09566164 0.04880273 -0.09433794 -0.09565925 0.04880273 0.09433221 0.09433579 0.04880273 0.09565806 0.09433579 0.05845671 0.09565806 -0.09565925 0.05845671 0.09433221 0.5993238 -0.05972927 0.09918308 -0.5993214 -0.05972927 -0.0991888 -0.6006473 -0.05972927 0.09080624 0.6006496 0.05845671 -0.09081196 0.4506538 0.05845671 -0.09185886 0.4493277 0.05845671 0.09813618 0.5993238 0.05845671 0.09918308 -0.4493244 0.05845671 -0.0981419 -0.5993214 0.05845671 -0.0991888 -0.6006473 0.05845671 0.09080624 -0.4506513 0.05845671 0.09185314 -0.09433341 0.05845671 -0.09566378 -0.09565925 0.05845671 0.09433221 0.09433579 0.05845671 0.09565806 0.09566164 0.05845671 -0.09433794 -0.4506513 0.04880273 0.09185314 -0.4506513 0.05845671 0.09185314 -0.4504414 0.02834874 0.06185412 -0.0954504 0.02834874 0.06433224 0.6006496 0.04880273 -0.09081196 0.6006496 0.05845671 -0.09081196 0.5993238 0.05845671 0.09918308 0.5993238 0.04880273 0.09918308 0.6006496 0.0103777 -0.09081196 0.5993238 0.0103777 0.09918308 0.4493277 0.04880273 0.09813618 0.4493277 0.05845671 0.09813618 0.5993238 0.04880273 0.09918308 0.5993238 0.05845671 0.09918308 0.4506538 0.05845671 -0.09185886 0.6006496 0.05845671 -0.09081196 0.6006496 0.04880273 -0.09081196 0.4506538 0.04880273 -0.09185886 0.4495368 0.02834874 0.06813716 0.09454464 0.02834874 0.06565904 -0.09565925 0.02058172 0.09433221 0.09433579 0.02058172 0.09565806 0.09454464 0.008673727 0.06565904 0.09433579 0.008673727 0.09565806 0.09433579 -0.05972927 0.09565806 0.09454464 -0.05972927 0.06565904 -0.09433341 0.02058172 -0.09566378 -0.09454226 0.02058172 -0.06566381 -0.09454226 0.02834874 -0.06566381 -0.09433341 0.04880273 -0.09566378 -0.5993214 0.0103777 -0.0991888 -0.6006473 0.0103777 0.09080624 -0.5993214 0.05845671 -0.0991888 -0.5993214 0.04880273 -0.0991888 -0.6006473 0.04880273 0.09080624 -0.6006473 0.05845671 0.09080624 -0.6006473 0.05845671 0.09080624 -0.6006473 0.04880273 0.09080624 -0.4493244 0.05845671 -0.0981419 -0.4493244 0.04880273 -0.0981419 -0.5993214 0.04880273 -0.0991888 -0.5993214 0.05845671 -0.0991888 0.4504438 0.02834874 -0.06185984 0.4504438 0.02228569 -0.06185984 0.4495368 0.02228569 0.06813716 0.4495368 0.02834874 0.06813716 0.4493277 0.02228569 0.09813618 0.5993238 0.02228569 0.09918308 0.6006496 0.02228569 -0.09081196 0.5993238 0.02228569 0.09918308 0.09454464 0.02834874 0.06565904 0.09433579 0.04880273 0.09565806 0.09433579 0.02058172 0.09565806 0.09454464 0.02058172 0.06565904 -0.5993214 0.02228569 -0.0991888 -0.6006473 0.02228569 0.09080624 -0.4504414 0.02228569 0.06185412 -0.4504414 0.02834874 0.06185412 -0.4506513 0.04880273 0.09185314 -0.4506513 0.02228569 0.09185314 -0.4493244 -0.05972927 -0.0981419 -0.4493244 0.0103777 -0.0981419 -0.4495343 0.0103777 -0.06814289 -0.4495343 -0.05972927 -0.06814289 -0.4493244 0.0103777 -0.0981419 -0.4493244 -0.05972927 -0.0981419 -0.5993214 -0.05972927 -0.0991888 -0.5993214 0.0103777 -0.0991888 0.09566164 0.008673727 -0.09433794 0.09545278 0.008673727 -0.06433796 0.09545278 -0.05972927 -0.06433796 0.09566164 -0.05972927 -0.09433794 -0.09454226 0.02834874 -0.06566381 -0.4495343 0.02834874 -0.06814289 0.09566164 0.04880273 -0.09433794 0.09545278 0.02834874 -0.06433796 0.09545278 0.02058172 -0.06433796 0.09566164 0.02058172 -0.09433794 0.4506538 0.04880273 -0.09185886 0.4506538 0.02228569 -0.09185886 0.4504438 0.02834874 -0.06185984 0.09545278 0.02834874 -0.06433796 -0.09454226 -0.05972927 -0.06566381 -0.0954504 -0.05972927 0.06433224 -0.0954504 0.008673727 0.06433224 -0.09454226 0.008673727 -0.06566381 -0.4493244 0.02228569 -0.0981419 -0.5993214 0.02228569 -0.0991888 -0.09433341 -0.05972927 -0.09566378 -0.09433341 0.008673727 -0.09566378 0.09566164 0.008673727 -0.09433794 0.09566164 -0.05972927 -0.09433794 0.6006496 0.02228569 -0.09081196 0.4506538 0.02228569 -0.09185886 -0.09565925 -0.05972927 0.09433221 -0.09565925 0.008673727 0.09433221 -0.09433341 0.02058172 -0.09566378 0.09566164 0.02058172 -0.09433794 -0.0954504 0.02058172 0.06433224 -0.0954504 0.02834874 0.06433224 -0.09433341 -0.05972927 -0.09566378 -0.09433341 0.008673727 -0.09566378 -0.09565925 0.02058172 0.09433221 -0.09565925 0.04880273 0.09433221 -0.09565925 -0.05972927 0.09433221 0.09433579 -0.05972927 0.09565806 0.09433579 0.008673727 0.09565806 -0.09565925 0.008673727 0.09433221 0.4504438 0.0103777 -0.06185984 0.4504438 -0.05972927 -0.06185984 0.4495368 -0.05972927 0.06813716 0.4495368 0.0103777 0.06813716 0.4506538 0.0103777 -0.09185886 0.6006496 0.0103777 -0.09081196 0.6006496 -0.05972927 -0.09081196 0.4506538 -0.05972927 -0.09185886 0.4506538 0.0103777 -0.09185886 0.4506538 -0.05972927 -0.09185886 0.4493277 -0.05972927 0.09813618 0.4493277 0.0103777 0.09813618 0.4493277 0.0103777 0.09813618 0.4493277 -0.05972927 0.09813618 0.5993238 -0.05972927 0.09918308 0.5993238 0.0103777 0.09918308 0.4493277 0.02228569 0.09813618 0.4493277 0.04880273 0.09813618 -0.4495343 0.02228569 -0.06814289 -0.4495343 0.02834874 -0.06814289 -0.6006473 0.02228569 0.09080624 -0.4506513 0.02228569 0.09185314 -0.4493244 0.02228569 -0.0981419 -0.4493244 0.04880273 -0.0981419 -0.4504414 -0.05972927 0.06185412 -0.4504414 0.0103777 0.06185412 -0.4506513 0.0103777 0.09185314 -0.4506513 -0.05972927 0.09185314 -0.4506513 0.0103777 0.09185314 -0.6006473 0.0103777 0.09080624 -0.6006473 -0.05972927 0.09080624 -0.4506513 -0.05972927 0.09185314 0.1005446 0.01462775 -0.06776976 0.09958863 0.01462775 0.06916117 0.09958863 0.01462775 0.06916117 0.1005446 0.01462775 -0.06776976 -0.09958624 0.01462775 -0.06916689 -0.1005423 0.01462775 0.06776404 -0.1005423 0.01462775 0.06776404 -0.09958624 0.01462775 -0.06916689 0.1007647 0.01462775 -0.09936976 0.1007647 0.01462775 -0.09936976 -0.09936523 0.01462775 -0.1007668 -0.09936523 0.01462775 -0.1007668 0.09936761 0.01462775 0.1007611 0.09936761 0.01462775 0.1007611 0.1007647 0.01462775 -0.09936976 -0.09936523 0.01462775 -0.1007668 -0.09936523 0.01462775 -0.1007668 0.1007647 0.01462775 -0.09936976 -0.1007623 0.01462775 0.09936404 0.09936761 0.01462775 0.1007611 0.09936761 0.01462775 0.1007611 -0.1007623 0.01462775 0.09936404 -0.1007623 0.01462775 0.09936404 -0.1007623 0.01462775 0.09936404 0.4468446 0.01633173 0.07158517 0.4478006 0.01633173 -0.06534576 0.4480217 0.01633173 -0.09694576 0.4480217 0.01633173 -0.09694576 0.6060197 0.01633173 -0.09584283 0.6060197 0.01633173 -0.09584283 0.4480217 0.01633173 -0.09694576 0.6046226 0.01633173 0.1042881 0.4466248 0.01633173 0.1031851 0.4466248 0.01633173 0.1031851 0.6046226 0.01633173 0.1042881 0.4466248 0.01633173 0.1031851 0.6046226 0.01633173 0.1042881 0.6060197 0.01633173 -0.09584283 0.6060197 0.01633173 -0.09584283 0.6046226 0.01633173 0.1042881 -0.4477984 0.01633173 0.06534004 -0.4468423 0.01633173 -0.0715909 -0.4466224 0.01633173 -0.1031908 -0.6046203 0.01633173 -0.1042938 -0.4466224 0.01633173 -0.1031908 -0.4466224 0.01633173 -0.1031908 -0.6046203 0.01633173 -0.1042938 -0.4480193 0.01633173 0.09694004 -0.6060174 0.01633173 0.09583711 -0.6060174 0.01633173 0.09583711 -0.4480193 0.01633173 0.09694004 -0.6060174 0.01633173 0.09583711 -0.6046203 0.01633173 -0.1042938 -0.6046203 0.01633173 -0.1042938 -0.6060174 0.01633173 0.09583711 -0.4480193 0.01633173 0.09694004</float_array>
          <technique_common>
            <accessor source="#Object_7_004-mesh-positions-array" count="220" stride="3">
              <param name="X" type="float"/>
              <param name="Y" type="float"/>
              <param name="Z" type="float"/>
            </accessor>
          </technique_common>
        </source>
        <source id="Object_7_004-mesh-normals">
          <float_array id="Object_7_004-mesh-normals-array" count="621">0.006798803 -0.225883 -0.9741308 0.006979346 0 -0.9999758 0.006980717 0 -0.9999757 0.006799995 -0.225879 -0.9741317 -0.006799578 -0.2258789 0.9741317 -0.006798803 -0.2258799 0.9741315 -0.006979346 0 0.9999758 -0.006980717 0 0.9999757 0 1 0 0 1 0 0 1 0 0 1 0 -0.006800591 -0.2258769 0.9741321 -0.006981313 0 0.9999757 -0.002058327 -0.9555709 0.294754 -0.002057552 -0.955573 0.2947475 0.9999758 0 0.006978094 0.9999757 0 0.006978094 0.9999757 0 0.006978094 0.9116181 -0.4109892 0.006361544 0.9116286 -0.4109658 0.006362855 0.9999757 0 0.006978094 -0.006799459 -0.2258771 0.9741321 -0.006979942 0 0.9999758 -0.006979346 0 0.9999758 -0.006979286 0 0.9999758 0.006979286 0 -0.9999757 0.006981313 0 -0.9999756 0.006979346 0 -0.9999757 0.006800234 -0.2258766 -0.9741322 -0.002057611 -0.9555708 0.2947548 -0.002057552 -0.9555714 0.2947526 -0.0064013 0.3980883 0.9173249 -0.006402552 0.3981108 0.917315 0.9384537 -0.3453432 0.006545007 0.9173211 -0.398097 0.006399393 0.9999758 0 0.006961882 0.9999758 0 0.006973743 -0.9173266 0.3980844 -0.00638628 -0.938453 0.3453447 -0.006549775 -0.9999758 0 -0.006971716 -0.9999759 0 -0.006961643 -0.9116282 -0.4109668 -0.006362855 -0.9999758 0 -0.00697875 -0.9999757 0 -0.00697875 -0.9116184 -0.4109883 -0.00636208 -0.9999757 0 -0.00697875 -0.9999758 0 -0.00697875 0.006979942 0 -0.9999757 0.006799817 -0.2258802 -0.9741315 0.006979227 0 -0.9999758 0.006979227 0 -0.9999758 0 1 0 0 1 0 -0.9999756 0 -0.006991028 -0.9778833 0.2090398 -0.006831765 -0.9778728 0.2090894 -0.006821095 -0.9999757 0 -0.00697261 -0.006461977 0.3778094 0.925861 -0.006397426 0.3999131 0.9165307 0.9116152 0.4109954 0.006362736 0.9999758 0 0.006978094 0.91163 0.4109627 0.006361603 0.9999758 0 0.006971836 0.9999758 0 0.006961882 0.917326 0.3980857 0.006386458 0.9384531 0.3453445 0.006549835 -0.9999757 0 -0.00697875 -0.911626 0.4109716 -0.00636214 -0.9116188 0.4109877 -0.006362795 -0.9999757 0 -0.00697875 0.9778844 0.2090346 0.006830692 0.9999756 0 0.006989121 0.9999755 0 0.006997585 0.9694477 0.2452042 0.006783962 0.9999756 0 0.006997585 0.9694694 -0.2451187 0.006784141 0.977877 -0.2090696 0.006826579 0.9999756 0 0.006987512 0.006462514 -0.3777971 -0.9258658 0.006979227 0 -0.9999758 0.006979227 0 -0.9999757 0.00639683 -0.3999114 -0.9165316 0.9173141 -0.3981133 0.00638616 0.9384604 -0.3453249 0.006546199 0.9999757 0 0.006973624 0.9999758 0 0.006961643 0.002057552 -0.9555737 -0.2947455 0.002058386 -0.9555713 -0.2947529 0.9999759 0 0.006961643 0.9999758 0 0.006971716 0.9384592 0.345328 0.006544947 0.9173134 0.3981148 0.006386995 -0.9999755 0 -0.007001578 -0.969446 0.2452115 -0.006787836 0.002057611 -0.9555707 -0.2947548 0.002058267 -0.9555729 -0.2947478 -0.9999758 0 -0.006973683 -0.9384602 -0.3453252 -0.006546199 -0.9384536 -0.3453434 -0.006544947 0.006461918 0.3777993 -0.9258649 0.006397426 0.3999139 -0.9165304 0.006978094 0 -0.9999758 0.0064013 -0.3981095 -0.9173157 0.006402671 -0.3980868 -0.9173254 0.006978154 0 -0.9999758 0.006396889 0.3999331 -0.916522 0.006462395 0.3778406 -0.9258481 -0.9999758 0 -0.006961643 -0.9173144 -0.3981127 -0.00638616 0.006402611 0.3981108 -0.9173151 0.00640136 0.3980883 -0.9173249 -0.9384591 0.3453283 -0.006545007 -0.9999758 0 -0.006971716 -0.9173213 -0.3980965 -0.006399273 -0.9173132 0.3981152 -0.006386995 -0.9999759 0 -0.006961643 -0.006978094 0 0.9999758 -0.006978154 0 0.9999758 -0.0064013 -0.3981094 0.9173156 -0.006402611 -0.3980869 0.9173254 -0.9778833 -0.2090399 -0.006834387 -0.9999756 0 -0.006989002 -0.9999757 0 -0.006973147 -0.9778727 -0.2090902 -0.006817638 0.006461918 -0.3778383 -0.9258491 0.006397366 -0.3999305 -0.9165232 0.006979286 0 -0.9999757 0.006979286 0 -0.9999757 -0.9694482 -0.2452025 -0.006784081 -0.9999755 0 -0.007001578 -0.9999758 0 -0.006969809 -0.9694487 -0.2452015 -0.00675702 -0.006462454 -0.3778071 0.9258618 -0.006979286 0 0.9999757 -0.006979286 0 0.9999758 -0.006396889 -0.3999106 0.9165319 -0.9694439 0.2452205 -0.006750345 -0.9999758 0 -0.006969809 0.9778763 0.2090722 0.006832957 0.9999756 0 0.006989121 -0.006396889 0.3999322 0.9165225 -0.006462395 0.3778393 0.9258487 0.9694621 0.2451479 0.006765723 0.9999755 0 0.006997585 0.9999757 0 0.006987512 0.9778842 -0.2090358 0.006833016 0.969451 -0.2451915 0.006780326 0.9999755 0 0.006997585 -0.006461918 -0.3778369 0.9258496 -0.006397306 -0.3999299 0.9165235 0.7614828 -0.6481635 0.005308926 0.7614619 -0.6481881 0.005309104 0.7614498 0.6482023 0.00532329 0.7614791 0.6481679 0.005307078 -0.761449 0.6482029 -0.00532329 -0.7614787 0.6481683 -0.005307078 -0.761482 -0.6481644 -0.005308926 -0.7614616 -0.6481883 -0.005309045 0.7614777 -0.6481695 0.005301594 0.7614744 0.6481734 0.005302846 -0.7615041 0.6481385 -0.005306899 -0.7615122 -0.6481287 -0.005326092 0.7615115 -0.6481296 0.005326092 0.7615029 0.6481398 0.005306959 0.005314111 0.648128 -0.7615129 0.005316019 0.6481671 -0.7614796 0.005313932 -0.6481629 -0.7614833 0.005316197 -0.6481237 -0.7615165 -0.005314111 0.648128 0.7615129 -0.005315959 0.6481671 0.7614796 -0.005313932 -0.6481628 0.7614833 -0.005316197 -0.6481238 0.7615165 -0.7614739 0.6481739 -0.005302846 -0.7614779 -0.6481692 -0.005301594 -0.9999758 -5.8958e-6 -0.00696808 -0.9999756 -1.56962e-6 -0.006991088 -0.9999756 4.12545e-7 -0.006996989 0.005314528 -0.6482033 -0.7614488 0.005315423 -0.6481911 -0.7614592 0.005314648 0.6481953 -0.7614556 0.005315303 0.6482073 -0.7614455 -0.005314767 -0.6481664 0.7614803 -0.005315601 -0.6481541 0.7614907 -0.005314826 0.6481579 0.7614874 -0.005315542 0.6481704 0.7614769 -0.9999758 5.07576e-6 -0.006961584 0.7447834 0.6672862 0.005197405 0.7447439 0.6673302 0.005199074 0.7447535 -0.6673195 0.005197167 0.7447813 -0.6672884 0.005199372 0.9999757 -3.85387e-6 0.006988704 0.9999757 -1.0312e-5 0.006977677 0.9999757 -2.00873e-6 0.006974995 0.005314707 -0.6481663 -0.7614804 0.005315661 -0.6481535 -0.7614912 0.005314707 0.6481575 -0.7614878 0.005315661 0.6481705 -0.7614768 -0.005314528 -0.6482031 0.761449 -0.005315363 -0.6481912 0.7614591 -0.005314648 0.6481951 0.7614558 -0.005315303 0.6482073 0.7614455 -0.7447549 -0.6673179 -0.005197644 -0.7447797 -0.6672903 -0.005198895 -0.7447726 0.6672982 -0.005197763 -0.7447546 0.6673182 -0.005198717 0.9999756 3.28242e-6 0.006993114</float_array>
          <technique_common>
            <accessor source="#Object_7_004-mesh-normals-array" count="207" stride="3">
              <param name="X" type="float"/>
              <param name="Y" type="float"/>
              <param name="Z" type="float"/>
            </accessor>
          </technique_common>
        </source>
        <source id="Object_7_004-mesh-map-0">
          <float_array id="Object_7_004-mesh-map-0-array" count="1236">0 1 0 1 0 1 0 1 0 1 0 1 0 1 0 1 0 1 0 1 0 1 0 1 0 1 0 1 0 1 0 1 0 1 0 1 0 1 0 1 0 1 0 1 0 1 0 1 0 1 0 1 0 1 0 1 0 1 0 1 0 1 0 1 0 1 0 1 0 1 0 1 0 1 0 1 0 1 0 1 0 1 0 1 0 1 0 1 0 1 0 1 0 1 0 1 0 1 0 1 0 1 0 1 0 1 0 1 0 1 0 1 0 1 0 1 0 1 0 1 0 1 0 1 0 1 0 1 0 1 0 1 0 1 0 1 0 1 0 1 0 1 0 1 0 1 0 1 0 1 0 1 0 1 0 1 0 1 0 1 0 1 0 1 0 1 0 1 0 1 0 1 0 1 0 1 0 1 0 1 0 1 0 1 0 1 0 1 0 1 0 1 0 1 0 1 0 1 0 1 0 1 0 1 0 1 0 1 0 1 0 1 0 1 0 1 0 1 0 1 0 1 0 1 0 1 0 1 0 1 0 1 0 1 0 1 0 1 0 1 0 1 0 1 0 1 0 1 0 1 0 1 0 1 0 1 0 1 0 1 0 1 0 1 0 1 0 1 0 1 0 1 0 1 0 1 0 1 0 1 0 1 0 1 0 1 0 1 0 1 0 1 0 1 0 1 0 1 0 1 0 1 0 1 0 1 0 1 0 1 0 1 0 1 0 1 0 1 0 1 0 1 0 1 0 1 0 1 0 1 0 1 0 1 0 1 0 1 0 1 0 1 0 1 0 1 0 1 0 1 0 1 0 1 0 1 0 1 0 1 0 1 0 1 0 1 0 1 0 1 0 1 0 1 0 1 0 1 0 1 0 1 0 1 0 1 0 1 0 1 0 1 0 1 0 1 0 1 0 1 0 1 0 1 0 1 0 1 0 1 0 1 0 1 0 1 0 1 0 1 0 1 0 1 0 1 0 1 0 1 0 1 0 1 0 1 0 1 0 1 0 1 0 1 0 1 0 1 0 1 0 1 0 1 0 1 0 1 0 1 0 1 0 1 0 1 0 1 0 1 0 1 0 1 0 1 0 1 0 1 0 1 0 1 0 1 0 1 0 1 0 1 0 1 0 1 0 1 0 1 0 1 0 1 0 1 0 1 0 1 0 1 0 1 0 1 0 1 0 1 0 1 0 1 0 1 0 1 0 1 0 1 0 1 0 1 0 1 0 1 0 1 0 1 0 1 0 1 0 1 0 1 0 1 0 1 0 1 0 1 0 1 0 1 0 1 0 1 0 1 0 1 0 1 0 1 0 1 0 1 0 1 0 1 0 1 0 1 0 1 0 1 0 1 0 1 0 1 0 1 0 1 0 1 0 1 0 1 0 1 0 1 0 1 0 1 0 1 0 1 0 1 0 1 0 1 0 1 0 1 0 1 0 1 0 1 0 1 0 1 0 1 0 1 0 1 0 1 0 1 0 1 0 1 0 1 0 1 0 1 0 1 0 1 0 1 0 1 0 1 0 1 0 1 0 1 0 1 0 1 0 1 0 1 0 1 0 1 0 1 0 1 0 1 0 1 0 1 0 1 0 1 0 1 0 1 0 1 0 1 0 1 0 1 0 1 0 1 0 1 0 1 0 1 0 1 0 1 0 1 0 1 0 1 0 1 0 1 0 1 0 1 0 1 0 1 0 1 0 1 0 1 0 1 0 1 0 1 0 1 0 1 0 1 0 1 0 1 0 1 0 1 0 1 0 1 0 1 0 1 0 1 0 1 0 1 0 1 0 1 0 1 0 1 0 1 0 1 0 1 0 1 0 1 0 1 0 1 0 1 0 1 0 1 0 1 0 1 0 1 0 1 0 1 0 1 0 1 0 1 0 1 0 1 0 1 0 1 0 1 0 1 0 1 0 1 0 1 0 1 0 1 0 1 0 1 0 1 0 1 0 1 0 1 0 1 0 1 0 1 0 1 0 1 0 1 0 1 0 1 0 1 0 1 0 1 0 1 0 1 0 1 0 1 0 1 0 1 0 1 0 1 0 1 0 1 0 1 0 1 0 1 0 1 0 1 0 1 0 1 0 1 0 1 0 1 0 1 0 1 0 1 0 1 0 1 0 1 0 1 0 1 0 1 0 1 0 1 0 1 0 1 0 1 0 1 0 1 0 1 0 1 0 1 0 1 0 1 0 1 0 1 0 1 0 1 0 1 0 1 0 1 0 1 0 1 0 1 0 1 0 1 0 1 0 1 0 1 0 1 0 1 0 1 0 1 0 1 0 1 0 1 0 1 0 1 0 1 0 1 0 1 0 1 0 1 0 1 0 1 0 1 0 1 0 1 0 1 0 1 0 1 0 1 0 1 0 1 0 1 0 1 0 1 0 1 0 1 0 1 0 1 0 1 0 1 0 1 0 1 0 1 0 1 0 1 0 1 0 1 0 1 0 1 0 1 0 1 0 1 0 1 0 1 0 1 0 1 0 1 0 1 0 1 0 1 0 1 0 1 0 1 0 1 0 1 0 1 0 1 0 1 0 1 0 1 0 1 0 1 0 1 0 1 0 1 0 1 0 1 0 1 0 1 0 1 0 1 0 1 0 1 0 1 0 1 0 1 0 1 0 1 0 1 0 1 0 1 0 1 0 1 0 1 0 1 0 1 0 1 0 1 0 1 0 1 0 1 0 1 0 1 0 1 0 1 0 1 0 1 0 1 0 1 0 1 0 1 0 1 0 1 0 1 0 1 0 1 0 1 0 1 0 1 0 1 0 1 0 1 0 1 0 1 0 1</float_array>
          <technique_common>
            <accessor source="#Object_7_004-mesh-map-0-array" count="618" stride="2">
              <param name="S" type="float"/>
              <param name="T" type="float"/>
            </accessor>
          </technique_common>
        </source>
        <vertices id="Object_7_004-mesh-vertices">
          <input semantic="POSITION" source="#Object_7_004-mesh-positions"/>
        </vertices>
        <triangles material="Plastic_Blue-material" count="206">
          <input semantic="VERTEX" source="#Object_7_004-mesh-vertices" offset="0"/>
          <input semantic="NORMAL" source="#Object_7_004-mesh-normals" offset="1"/>
          <input semantic="TEXCOORD" source="#Object_7_004-mesh-map-0" offset="2" set="0"/>
          <p>1 0 0 2 1 1 3 2 2 1 0 3 3 2 4 4 3 5 5 4 6 6 5 7 7 6 8 5 4 9 7 6 10 8 7 11 12 8 12 13 8 13 14 8 14 12 9 15 14 9 16 15 9 17 16 10 18 17 10 19 18 10 20 16 9 21 18 9 22 19 9 23 20 9 24 21 9 25 22 9 26 20 11 27 22 11 28 23 11 29 24 12 30 5 4 31 8 7 32 24 12 33 8 7 34 25 13 35 26 14 36 27 15 37 5 4 38 26 14 39 5 4 40 24 12 41 28 16 42 29 16 43 30 16 44 28 17 45 30 17 46 31 17 47 0 18 48 32 19 49 33 20 50 0 18 51 33 20 52 9 21 53 34 22 54 35 23 55 7 6 56 34 22 57 7 6 58 6 5 59 35 23 60 34 22 61 36 24 62 35 25 63 36 25 64 37 25 65 38 26 66 39 26 67 40 26 68 38 27 69 40 28 70 41 29 71 42 30 72 34 22 73 6 5 74 42 30 75 6 5 76 43 31 77 44 32 78 45 33 79 6 5 80 44 32 81 6 5 82 5 4 83 46 34 84 47 35 85 48 36 86 46 34 87 48 36 88 49 37 89 50 38 90 51 39 91 52 40 92 50 38 93 52 40 94 53 41 95 54 42 96 10 43 97 11 44 98 54 42 99 11 44 100 55 45 101 56 46 102 57 46 103 58 46 104 56 47 105 58 47 106 59 47 107 25 25 108 60 25 109 61 25 110 25 13 111 61 24 112 24 12 113 62 48 114 63 49 115 64 50 116 62 51 117 64 51 118 65 51 119 14 9 120 13 9 121 23 9 122 14 52 123 23 52 124 22 52 125 38 27 126 41 29 127 4 3 128 38 27 129 4 3 130 3 2 131 19 53 132 21 53 133 20 53 134 19 9 135 20 9 136 16 9 137 62 48 138 2 1 139 1 0 140 62 48 141 1 0 142 63 49 143 66 54 144 67 55 145 68 56 146 66 54 147 68 56 148 69 57 149 34 22 150 70 58 151 71 59 152 34 22 153 71 59 154 36 24 155 72 60 156 28 18 157 31 61 158 72 60 159 31 61 160 73 62 161 74 63 162 75 64 163 76 65 164 74 63 165 76 65 166 77 66 167 57 67 168 78 68 169 79 69 170 57 67 171 79 69 172 58 70 173 80 71 174 81 72 175 82 73 176 80 71 177 82 73 178 83 74 179 84 75 180 85 76 181 86 77 182 84 75 183 86 77 184 87 78 185 88 79 186 89 80 187 90 81 188 88 79 189 90 81 190 91 82 191 92 83 192 93 84 193 94 85 194 92 83 195 94 85 196 95 86 197 63 49 198 1 0 199 96 87 200 63 49 201 96 87 202 97 88 203 98 89 204 99 90 205 100 91 206 98 89 207 100 91 208 101 92 209 102 93 210 103 94 211 67 55 212 102 93 213 67 55 214 66 54 215 41 29 216 104 95 217 105 96 218 41 29 219 105 96 220 4 3 221 106 97 222 107 97 223 108 98 224 106 97 225 108 98 226 109 99 227 97 88 228 96 87 229 27 15 230 97 88 231 27 15 232 26 14 233 99 90 234 74 63 235 77 66 236 99 90 237 77 66 238 100 91 239 63 49 240 110 100 241 111 101 242 63 49 243 111 101 244 64 50 245 104 95 246 42 30 247 43 31 248 104 95 249 43 31 250 105 96 251 112 102 252 113 103 253 114 104 254 112 102 255 114 104 256 115 105 257 41 29 258 40 28 259 116 106 260 41 29 261 116 106 262 117 107 263 93 84 264 46 34 265 49 37 266 93 84 267 49 37 268 94 85 269 107 97 270 118 108 271 119 109 272 107 97 273 119 109 274 108 98 275 120 110 276 1 0 277 4 3 278 120 110 279 4 3 280 121 111 281 51 39 282 122 112 283 123 113 284 51 39 285 123 113 286 52 40 287 124 108 288 106 97 289 109 99 290 124 108 291 109 99 292 125 114 293 122 112 294 126 115 295 127 116 296 122 112 297 127 116 298 123 113 299 128 117 300 129 118 301 130 119 302 128 117 303 130 119 304 131 120 305 132 121 306 133 122 307 134 123 308 132 121 309 134 123 310 135 124 311 136 125 312 137 126 313 138 127 314 136 125 315 138 127 316 139 128 317 140 129 318 141 130 319 133 122 320 140 129 321 133 122 322 132 121 323 135 124 324 134 123 325 142 131 326 135 124 327 142 131 328 143 132 329 144 133 330 145 134 331 146 135 332 144 133 333 146 135 334 147 136 335 69 57 336 68 56 337 148 137 338 69 57 339 148 137 340 149 138 341 150 139 342 151 140 343 81 72 344 150 139 345 81 72 346 80 71 347 24 12 348 61 24 349 152 141 350 24 12 351 152 141 352 153 142 353 154 143 354 155 144 355 151 140 356 154 143 357 151 140 358 150 139 359 156 145 360 157 146 361 158 147 362 156 145 363 158 147 364 159 148 365 87 78 366 86 77 367 157 146 368 87 78 369 157 146 370 156 145 371 160 149 372 161 150 373 162 135 374 160 149 375 162 135 376 163 134 377 46 34 378 93 84 379 164 151 380 46 34 381 164 151 382 165 152 383 166 153 384 167 154 385 100 91 386 166 153 387 100 91 388 77 66 389 122 112 390 51 39 391 168 155 392 122 112 393 168 155 394 169 156 395 170 157 396 171 158 397 109 99 398 170 157 399 109 99 400 108 98 401 93 84 402 92 83 403 172 159 404 93 84 405 172 159 406 164 151 407 167 154 408 173 160 409 101 92 410 167 154 411 101 92 412 100 91 413 51 39 414 50 38 415 174 161 416 51 39 417 174 161 418 168 155 419 171 158 420 175 162 421 125 114 422 171 158 423 125 114 424 109 99 425 47 35 426 46 34 427 165 152 428 47 35 429 165 152 430 176 163 431 177 164 432 166 153 433 77 66 434 177 164 435 77 66 436 76 65 437 120 110 438 121 111 439 178 165 440 120 110 441 178 165 442 179 166 443 180 167 444 181 168 445 114 104 446 180 167 447 114 104 448 113 103 449 45 33 450 44 32 451 182 169 452 45 33 453 182 169 454 183 170 455 184 171 456 185 172 457 131 120 458 184 171 459 131 120 460 130 119 461 126 115 462 122 112 463 169 156 464 126 115 465 169 156 466 186 173 467 187 174 468 170 157 469 108 98 470 187 174 471 108 98 472 119 109 473 132 121 474 135 124 475 188 175 476 132 121 477 188 175 478 189 176 479 189 176 480 188 175 481 68 56 482 189 176 483 68 56 484 67 55 485 140 129 486 132 121 487 189 176 488 140 129 489 189 176 490 190 177 491 190 177 492 189 176 493 67 55 494 190 177 495 67 55 496 103 94 497 137 126 498 136 125 499 191 178 500 137 126 501 191 178 502 192 179 503 193 180 504 194 181 505 117 107 506 193 180 507 117 107 508 116 106 509 144 133 510 147 136 511 195 182 512 144 133 513 195 182 514 196 183 515 197 184 516 198 185 517 71 59 518 197 184 519 71 59 520 70 58 521 135 124 522 143 132 523 199 186 524 135 124 525 199 186 526 188 175 527 188 175 528 199 186 529 148 137 530 188 175 531 148 137 532 68 56 533 72 60 534 73 62 535 200 187 536 72 60 537 200 187 538 201 188 539 202 189 540 203 190 541 33 20 542 202 189 543 33 20 544 32 19 545 150 139 546 80 71 547 204 191 548 150 139 549 204 191 550 205 192 551 205 192 552 204 191 553 157 146 554 205 192 555 157 146 556 86 77 557 154 143 558 150 139 559 205 192 560 154 143 561 205 192 562 206 193 563 206 193 564 205 192 565 86 77 566 206 193 567 86 77 568 85 76 569 88 79 570 91 82 571 207 194 572 88 79 573 207 194 574 208 195 575 209 196 576 210 197 577 111 101 578 209 196 579 111 101 580 110 100 581 161 150 582 160 149 583 211 198 584 161 150 585 211 198 586 212 199 587 213 200 588 214 201 589 153 142 590 213 200 591 153 142 592 152 141 593 54 42 594 55 45 595 215 202 596 54 42 597 215 202 598 216 203 599 217 204 600 218 205 601 79 69 602 217 204 603 79 69 604 78 68 605 80 71 606 83 74 607 219 206 608 80 71 609 219 206 610 204 191 611 204 191 612 219 206 613 158 147 614 204 191 615 158 147 616 157 146 617</p>
        </triangles>
      </mesh>
    </geometry>
  </library_geometries>
  <library_visual_scenes>
    <visual_scene id="Scene" name="Scene">
      <node id="Object_9_004" name="Object_9.004" type="NODE">
        <matrix sid="transform">0.9042609 0 0 0 0 1 3.95912e-8 0 0 -4.37114e-8 0.9057404 0 0 0 0 1</matrix>
        <instance_geometry url="#Object_7_004-mesh" name="Object_9.004">
          <bind_material>
            <technique_common>
              <instance_material symbol="Plastic_Blue-material" target="#Plastic_Blue-material">
                <bind_vertex_input semantic="UVMap" input_semantic="TEXCOORD" input_set="0"/>
              </instance_material>
            </technique_common>
          </bind_material>
        </instance_geometry>
      </node>
    </visual_scene>
  </library_visual_scenes>
  <scene>
    <instance_visual_scene url="#Scene"/>
  </scene>
</COLLADA>