<?xml version="1.0" encoding="utf-8"?>
<COLLADA xmlns="http://www.collada.org/2005/11/COLLADASchema" version="1.4.1" xmlns:xsi="http://www.w3.org/2001/XMLSchema-instance">
  <asset>
    <contributor>
      <author>Blender User</author>
      <authoring_tool>Blender 2.83.20 commit date:2022-04-19, commit time:16:00, hash:a56e2faeb7a9</authoring_tool>
    </contributor>
    <created>2026-06-23T17:50:41</created>
    <modified>2026-06-23T17:50:41</modified>
    <unit name="meter" meter="1"/>
    <up_axis>Z_UP</up_axis>
  </asset>
  <library_effects>
    <effect id="Plastic_Blue-effect">
      <profile_COMMON>
        <technique sid="common">
          <lambert>
            <emission>
              <color sid="emission">0 0 0 1</color>
            </emission>
            <diffuse>
              <color sid="diffuse">0.07227185 0.1328683 1 1</color>
            </diffuse>
            <index_of_refraction>
              <float sid="ior">1.45</float>
            </index_of_refraction>
          </lambert>
        </technique>
      </profile_COMMON>
    </effect>
  </library_effects>
  <library_images/>
  <library_materials>
    <material id="Plastic_Blue-material" name="Plastic_Blue">
      <instance_effect url="#Plastic_Blue-effect"/>
    </material>
  </library_materials>
  <library_geometries>
    <geometry id="Object_7_002-mesh" name="Object_7.002">
      <mesh>
        <source id="Object_7_002-mesh-positions">
          <float_array id="Object_7_002-mesh-positions-array" count="468">-0.5959843 -0.05972927 -0.5771539 -0.5959843 -0.1065432 -0.5771539 -0.5968434 -0.1065432 -0.4541798 -0.5968434 -0.05972927 -0.4541798 -0.09433341 -0.1065432 -0.09566378 -0.4493244 -0.1065432 -0.0981419 -0.4468464 -0.1065432 -0.4531329 -0.09185528 -0.1065432 -0.450655 0.6031277 -0.05972927 -0.4458039 0.6006496 -0.05972927 -0.09081196 0.6006496 -0.1065432 -0.09081196 0.6031277 -0.1065432 -0.4458039 0.09918665 -0.1065432 -0.599325 0.09813976 -0.1065432 -0.4493289 -0.09080839 -0.1065432 -0.6006508 0.6039867 -0.1065432 -0.5687769 0.6039867 -0.05972927 -0.5687769 -0.4457994 -0.05972927 -0.6031299 -0.4457994 -0.1065432 -0.6031299 -0.5687733 -0.1065432 -0.6039879 -0.5687733 -0.05972927 -0.6039879 0.09566164 -0.1065432 -0.09433794 0.4531317 -0.1065432 -0.4468508 0.4506538 -0.1065432 -0.09185886 0.09433579 -0.1065432 0.09565806 0.4493277 -0.1065432 0.09813618 -0.5968434 -0.05972927 -0.4541798 -0.5993214 -0.05972927 -0.0991888 -0.4493244 -0.05972927 -0.0981419 -0.4468464 -0.05972927 -0.4531329 0.4531317 -0.05972927 -0.4468508 0.4506538 -0.05972927 -0.09185886 0.6006496 -0.05972927 -0.09081196 0.6031277 -0.05972927 -0.4458039 -0.09565925 -0.1065432 0.09433221 -0.4506513 -0.1065432 0.09185314 0.5993238 -0.05972927 0.09918308 0.5968456 -0.05972927 0.4541741 0.5968456 -0.1065432 0.4541741 0.5993238 -0.1065432 0.09918308 -0.5993214 -0.05972927 -0.0991888 -0.5993214 -0.1065432 -0.0991888 -0.6006473 -0.1065432 0.09080624 -0.6006473 -0.05972927 0.09080624 0.6006496 -0.1065432 -0.09081196 0.5993238 -0.1065432 0.09918308 -0.5993214 -0.1065432 -0.0991888 -0.6006473 -0.1065432 0.09080624 0.09185767 -0.1065432 0.450649 0.4468486 -0.1065432 0.4531272 0.09081077 -0.1065432 0.600646 0.4458017 -0.1065432 0.6031242 -0.6006473 -0.05972927 0.09080624 -0.6031253 -0.05972927 0.4457982 -0.4531293 -0.05972927 0.4468451 -0.4506513 -0.05972927 0.09185314 0.4493277 -0.05972927 0.09813618 0.4468486 -0.05972927 0.4531272 0.5968456 -0.05972927 0.4541741 0.5993238 -0.05972927 0.09918308 -0.6031253 -0.05972927 0.4457982 -0.6031253 -0.1065432 0.4457982 -0.6039844 -0.1065432 0.5687711 -0.6039844 -0.05972927 0.5687711 0.5959866 -0.05972927 0.5771482 0.5959866 -0.1065432 0.5771482 -0.4541763 -0.05972927 0.5968411 -0.5771493 -0.05972927 0.595983 -0.5771493 -0.1065432 0.595983 -0.4541763 -0.1065432 0.5968411 0.09081077 -0.05972927 0.600646 0.09081077 -0.1065432 0.600646 0.4458017 -0.1065432 0.6031242 0.4458017 -0.05972927 0.6031242 0.09101963 -0.05972927 0.5706461 0.09081077 -0.05972927 0.600646 0.4458017 -0.05972927 0.6031242 0.4460118 -0.05972927 0.5731242 -0.09918427 -0.1065432 0.5993192 -0.09813737 -0.1065432 0.4493232 0.4541786 -0.05972927 -0.5968468 0.5771518 -0.05972927 -0.5959888 0.5771518 -0.1065432 -0.5959888 0.4541786 -0.1065432 -0.5968468 0.5687757 -0.1065432 0.6039822 0.5687757 -0.05972927 0.6039822 0.09433579 -0.05972927 0.09565806 -0.09565925 -0.05972927 0.09433221 -0.09813737 -0.05972927 0.4493232 0.09185767 -0.05972927 0.450649 -0.09918427 -0.1065432 0.5993192 -0.09918427 -0.05972927 0.5993192 -0.4531293 -0.1065432 0.4468451 0.09813976 -0.05972927 -0.4493289 -0.09185528 -0.05972927 -0.450655 -0.09433341 -0.05972927 -0.09566378 0.09566164 -0.05972927 -0.09433794 -0.4541763 -0.1065432 0.5968411 -0.09080839 -0.1065432 -0.6006508 -0.09080839 -0.05972927 -0.6006508 0.09918665 -0.05972927 -0.599325 0.09918665 -0.1065432 -0.599325 0.09454464 -0.05972927 0.06565904 0.4495368 -0.05972927 0.06813716 -0.09897541 -0.05972927 0.5693202 -0.4539663 -0.05972927 0.5668421 -0.4541763 -0.05972927 0.5968411 -0.09918427 -0.05972927 0.5993192 -0.0954504 -0.05972927 0.06433224 -0.4504414 -0.05972927 0.06185412 0.6031277 -0.1065432 -0.4458039 0.5968456 -0.1065432 0.4541741 0.09834957 -0.05972927 -0.4793279 0.4533408 -0.05972927 -0.4768498 -0.09164643 -0.05972927 -0.4806538 -0.4466373 -0.05972927 -0.4831319 -0.5968434 -0.1065432 -0.4541798 -0.6031253 -0.1065432 0.4457982 -0.4457994 -0.1065432 -0.6031299 0.4541786 -0.1065432 -0.5968468 0.09918665 -0.05972927 -0.599325 0.09897756 -0.05972927 -0.5693259 0.4539688 -0.05972927 -0.5668478 0.4541786 -0.05972927 -0.5968468 -0.09080839 -0.05972927 -0.6006508 -0.4457994 -0.05972927 -0.6031299 -0.4460093 -0.05972927 -0.5731299 -0.09101724 -0.05972927 -0.5706518 0.09164857 -0.05972927 0.4806481 0.4466398 -0.05972927 0.4831271 -0.09834742 -0.05972927 0.4793222 -0.4533383 -0.05972927 0.4768441 -0.5962024 -0.05972927 0.5879352 -0.5879363 -0.05972927 -0.5962069 -0.4495343 -0.05972927 -0.06814289 -0.09454226 -0.05972927 -0.06566381 0.09545278 -0.05972927 -0.06433796 0.4504438 -0.05972927 -0.06185984 -0.5879363 -0.1065432 -0.5962069 -0.5962024 -0.1065432 0.5879352 0.5962048 -0.05972927 -0.58794 0.5879388 -0.05972927 0.5962012 0.5962048 -0.1065432 -0.58794 0.5879388 -0.1065432 0.5962012 0.5771518 -0.1065432 -0.5959888 0.5962048 -0.1065432 -0.58794 0.6039867 -0.1065432 -0.5687769 0.5687757 -0.1065432 0.6039822 0.5879388 -0.1065432 0.5962012 0.5959866 -0.1065432 0.5771482 -0.5959843 -0.1065432 -0.5771539 -0.5879363 -0.1065432 -0.5962069 -0.5687733 -0.1065432 -0.6039879 -0.5962024 -0.1065432 0.5879352 -0.6039844 -0.1065432 0.5687711 -0.5771493 -0.1065432 0.595983</float_array>
          <technique_common>
            <accessor source="#Object_7_002-mesh-positions-array" count="156" stride="3">
              <param name="X" type="float"/>
              <param name="Y" type="float"/>
              <param name="Z" type="float"/>
            </accessor>
          </technique_common>
        </source>
        <source id="Object_7_002-mesh-normals">
          <float_array id="Object_7_002-mesh-normals-array" count="384">-0.9794001 0 -0.2019293 -0.9794 0 -0.2019298 -0.9999757 0 -0.006985187 -0.9999757 0 -0.006985187 0 -1 0 0 -1 0 0.9999757 0 0.006980597 0.9999757 0 0.006980597 0 -1 0 0.9821211 0 -0.1882506 0.9821211 0 -0.1882506 0.9999756 0 0.006985247 0.9999757 0 0.006985247 0.006977498 0 -0.9999758 -0.1882353 0 -0.982124 -0.1882353 0 -0.982124 0 -1 0 0 -1 0 0 1 0 0 1 0 0 1 0 0 -1 0 0.9999757 0 0.006980597 0.9999757 0 0.006980597 0 -1 0 -0.9999758 0 -0.00697875 -0.9999757 0 -0.00697875 0 -1 0 0 -1 0 0 -1 0 0 -1 0 0 1 0 0 1 0 -0.9999756 0 -0.006985247 -0.9999757 0 -0.006985247 -0.9821227 0 0.188242 -0.9821227 0 0.1882421 0.9999757 0 0.006985187 0.9999757 0 0.006985187 0.9794012 0 0.201924 0.9794012 0 0.2019241 -0.006977558 0 0.9999757 -0.2019191 0 0.9794023 -0.2019191 0 0.9794023 -0.006980538 0 0.9999757 -0.006980717 0 0.9999757 0 1 1.92825e-7 0 -1 0 0.006977498 0 -0.9999758 0.2019411 0 -0.9793978 0.2019423 0 -0.9793975 0.006977498 0 -0.9999757 0.9999757 0 0.006978094 0.9999758 0 0.006978094 -0.006977498 0 0.9999758 0.1882343 0 0.9821242 0.188233 0 0.9821244 0 1 0 0 1 0 -0.006983041 0 0.9999756 -0.006983041 0 0.9999756 0 -1 0 0 1 0 0 1 0 0 1 0 0 -1 0 0.006977975 0 -0.9999757 0.006978392 0 -0.9999758 0 1 0 -0.006980478 0 0.9999757 -0.006980717 0 0.9999757 0 1 1.56964e-7 0 1 -3.49795e-7 0 1 0 0 1 0 0 1 -3.49784e-7 0 -1 0 0 1 0 0 -1 0 0 1 3.39206e-7 0 1 0 0 -1 0 0 1 0 0 -1 0 0 -1 0 -0.9999757 0 -0.00698024 -0.9999758 0 -0.006980299 0 -1 0 -0.9999757 0 -0.00698024 -0.9999757 0 -0.00698024 0 -1 0 0.006983458 0 -0.9999757 0.00698322 0 -0.9999757 0 -1 0 0.006980478 0 -0.9999757 0 1 -3.49796e-7 0 1 3.16831e-7 0 1 0 0 1 -3.49795e-7 0 1 0 0 1 0 0 1 0 0 1 2.98385e-7 0 1 0 0 1 0 0 1 0 0 1 -3.49784e-7 0 1 1.92831e-7 0 1 0 0 1 0 -0.7021528 0 -0.7120264 -0.7021532 0 -0.712026 -0.7120137 0 0.7021657 0.7120236 0 -0.7021556 0.7120245 0 -0.7021546 0.7021551 0 0.7120241 0.7021561 0 0.7120231 0 -1 -1.65569e-7 0 -1 0 0 -1 1.19592e-7 0 -1 0 0 -1 -1.65567e-7 0 -1 0 0 -1 0 0 -1 1.21277e-7 0 -1 2.4256e-7 0 -1 -1.19592e-7 0 -1 0</float_array>
          <technique_common>
            <accessor source="#Object_7_002-mesh-normals-array" count="128" stride="3">
              <param name="X" type="float"/>
              <param name="Y" type="float"/>
              <param name="Z" type="float"/>
            </accessor>
          </technique_common>
        </source>
        <source id="Object_7_002-mesh-map-0">
          <float_array id="Object_7_002-mesh-map-0-array" count="1020">0 1 0 1 0 1 0 1 0 1 0 1 0 1 0 1 0 1 0 1 0 1 0 1 0 1 0 1 0 1 0 1 0 1 0 1 0 1 0 1 0 1 0 1 0 1 0 1 0 1 0 1 0 1 0 1 0 1 0 1 0 1 0 1 0 1 0 1 0 1 0 1 0 1 0 1 0 1 0 1 0 1 0 1 0 1 0 1 0 1 0 1 0 1 0 1 0 1 0 1 0 1 0 1 0 1 0 1 0 1 0 1 0 1 0 1 0 1 0 1 0 1 0 1 0 1 0 1 0 1 0 1 0 1 0 1 0 1 0 1 0 1 0 1 0 1 0 1 0 1 0 1 0 1 0 1 0 1 0 1 0 1 0 1 0 1 0 1 0 1 0 1 0 1 0 1 0 1 0 1 0 1 0 1 0 1 0 1 0 1 0 1 0 1 0 1 0 1 0 1 0 1 0 1 0 1 0 1 0 1 0 1 0 1 0 1 0 1 0 1 0 1 0 1 0 1 0 1 0 1 0 1 0 1 0 1 0 1 0 1 0 1 0 1 0 1 0 1 0 1 0 1 0 1 0 1 0 1 0 1 0 1 0 1 0 1 0 1 0 1 0 1 0 1 0 1 0 1 0 1 0 1 0 1 0 1 0 1 0 1 0 1 0 1 0 1 0 1 0 1 0 1 0 1 0 1 0 1 0 1 0 1 0 1 0 1 0 1 0 1 0 1 0 1 0 1 0 1 0 1 0 1 0 1 0 1 0 1 0 1 0 1 0 1 0 1 0 1 0 1 0 1 0 1 0 1 0 1 0 1 0 1 0 1 0 1 0 1 0 1 0 1 0 1 0 1 0 1 0 1 0 1 0 1 0 1 0 1 0 1 0 1 0 1 0 1 0 1 0 1 0 1 0 1 0 1 0 1 0 1 0 1 0 1 0 1 0 1 0 1 0 1 0 1 0 1 0 1 0 1 0 1 0 1 0 1 0 1 0 1 0 1 0 1 0 1 0 1 0 1 0 1 0 1 0 1 0 1 0 1 0 1 0 1 0 1 0 1 0 1 0 1 0 1 0 1 0 1 0 1 0 1 0 1 0 1 0 1 0 1 0 1 0 1 0 1 0 1 0 1 0 1 0 1 0 1 0 1 0 1 0 1 0 1 0 1 0 1 0 1 0 1 0 1 0 1 0 1 0 1 0 1 0 1 0 1 0 1 0 1 0 1 0 1 0 1 0 1 0 1 0 1 0 1 0 1 0 1 0 1 0 1 0 1 0 1 0 1 0 1 0 1 0 1 0 1 0 1 0 1 0 1 0 1 0 1 0 1 0 1 0 1 0 1 0 1 0 1 0 1 0 1 0 1 0 1 0 1 0 1 0 1 0 1 0 1 0 1 0 1 0 1 0 1 0 1 0 1 0 1 0 1 0 1 0 1 0 1 0 1 0 1 0 1 0 1 0 1 0 1 0 1 0 1 0 1 0 1 0 1 0 1 0 1 0 1 0 1 0 1 0 1 0 1 0 1 0 1 0 1 0 1 0 1 0 1 0 1 0 1 0 1 0 1 0 1 0 1 0 1 0 1 0 1 0 1 0 1 0 1 0 1 0 1 0 1 0 1 0 1 0 1 0 1 0 1 0 1 0 1 0 1 0 1 0 1 0 1 0 1 0 1 0 1 0 1 0 1 0 1 0 1 0 1 0 1 0 1 0 1 0 1 0 1 0 1 0 1 0 1 0 1 0 1 0 1 0 1 0 1 0 1 0 1 0 1 0 1 0 1 0 1 0 1 0 1 0 1 0 1 0 1 0 1 0 1 0 1 0 1 0 1 0 1 0 1 0 1 0 1 0 1 0 1 0 1 0 1 0 1 0 1 0 1 0 1 0 1 0 1 0 1 0 1 0 1 0 1 0 1 0 1 0 1 0 1 0 1 0 1 0 1 0 1 0 1 0 1 0 1 0 1 0 1 0 1 0 1 0 1 0 1 0 1 0 1 0 1 0 1 0 1 0 1 0 1 0 1 0 1 0 1 0 1 0 1 0 1 0 1 0 1 0 1 0 1 0 1 0 1 0 1 0 1 0 1 0 1 0 1 0 1 0 1 0 1 0 1 0 1 0 1 0 1 0 1 0 1 0 1 0 1 0 1 0 1 0 1 0 1 0 1 0 1 0 1 0 1 0 1 0 1 0 1 0 1 0 1 0 1 0 1 0 1 0 1 0 1 0 1 0 1 0 1 0 1 0 1 0 1 0 1 0 1 0 1 0 1 0 1 0 1 0 1 0 1 0 1 0 1</float_array>
          <technique_common>
            <accessor source="#Object_7_002-mesh-map-0-array" count="510" stride="2">
              <param name="S" type="float"/>
              <param name="T" type="float"/>
            </accessor>
          </technique_common>
        </source>
        <vertices id="Object_7_002-mesh-vertices">
          <input semantic="POSITION" source="#Object_7_002-mesh-positions"/>
        </vertices>
        <triangles material="Plastic_Blue-material" count="170">
          <input semantic="VERTEX" source="#Object_7_002-mesh-vertices" offset="0"/>
          <input semantic="NORMAL" source="#Object_7_002-mesh-normals" offset="1"/>
          <input semantic="TEXCOORD" source="#Object_7_002-mesh-map-0" offset="2" set="0"/>
          <p>0 0 0 1 1 1 2 2 2 0 0 3 2 2 4 3 3 5 4 4 6 5 4 7 6 4 8 4 5 9 6 5 10 7 5 11 8 6 12 9 6 13 10 6 14 8 7 15 10 7 16 11 7 17 12 5 18 13 5 19 7 5 20 12 8 21 7 8 22 14 8 23 15 9 24 16 10 25 8 11 26 15 9 27 8 11 28 11 12 29 17 13 30 18 13 31 19 14 32 17 13 33 19 14 34 20 15 35 21 5 36 13 5 37 22 5 38 21 16 39 22 16 40 23 16 41 24 5 42 21 5 43 23 5 44 24 17 45 23 17 46 25 17 47 26 18 48 27 18 49 28 18 50 26 19 51 28 19 52 29 19 53 30 18 54 31 18 55 32 18 56 30 20 57 32 20 58 33 20 59 34 21 60 35 21 61 5 21 62 34 5 63 5 5 64 4 5 65 36 22 66 37 22 67 38 22 68 36 23 69 38 23 70 39 23 71 21 5 72 24 5 73 34 5 74 21 24 75 34 24 76 4 24 77 40 25 78 41 25 79 42 25 80 40 26 81 42 26 82 43 26 83 23 27 84 44 27 85 45 27 86 23 5 87 45 5 88 25 5 89 46 28 90 5 28 91 35 28 92 46 5 93 35 5 94 47 5 95 48 5 96 24 5 97 25 5 98 48 29 99 25 29 100 49 29 101 50 5 102 48 5 103 49 5 104 50 30 105 49 30 106 51 30 107 52 18 108 53 18 109 54 18 110 52 31 111 54 31 112 55 31 113 56 18 114 57 18 115 58 18 116 56 32 117 58 32 118 59 32 119 60 33 120 61 34 121 62 35 122 60 33 123 62 35 124 63 36 125 38 37 126 37 38 127 64 39 128 38 37 129 64 39 130 65 40 131 66 41 132 67 42 133 68 43 134 66 41 135 68 43 136 69 41 137 70 44 138 71 44 139 72 44 140 70 45 141 72 45 142 73 45 143 74 18 144 75 18 145 76 18 146 74 46 147 76 46 148 77 46 149 48 5 150 50 5 151 78 5 152 48 47 153 78 47 154 79 47 155 80 48 156 81 49 157 82 50 158 80 48 159 82 50 160 83 51 161 10 52 162 9 52 163 36 52 164 10 53 165 36 53 166 39 53 167 73 54 168 72 54 169 84 55 170 73 54 171 84 55 172 85 56 173 86 57 174 87 57 175 88 57 176 86 58 177 88 58 178 89 58 179 90 59 180 71 59 181 70 59 182 90 60 183 70 60 184 91 60 185 79 61 186 92 61 187 35 61 188 79 5 189 35 5 190 34 5 191 93 62 192 94 62 193 95 62 194 93 63 195 95 63 196 96 63 197 86 18 198 89 18 199 57 18 200 86 64 201 57 64 202 56 64 203 78 65 204 97 65 205 92 65 206 78 5 207 92 5 208 79 5 209 98 66 210 99 66 211 100 66 212 98 67 213 100 67 214 101 67 215 102 18 216 86 18 217 56 18 218 102 68 219 56 68 220 103 68 221 91 69 222 66 69 223 69 69 224 91 70 225 69 70 226 90 70 227 104 71 228 105 71 229 106 71 230 104 72 231 106 72 232 107 72 233 87 73 234 55 73 235 54 73 236 87 18 237 54 18 238 88 18 239 108 74 240 109 74 241 55 74 242 108 75 243 55 75 244 87 75 245 110 5 246 44 5 247 23 5 248 110 76 249 23 76 250 22 76 251 93 18 252 96 18 253 31 18 254 93 77 255 31 77 256 30 77 257 45 5 258 111 5 259 49 5 260 45 78 261 49 78 262 25 78 263 112 72 264 93 72 265 30 72 266 112 79 267 30 79 268 113 79 269 94 80 270 29 80 271 28 80 272 94 18 273 28 18 274 95 18 275 34 81 276 24 81 277 48 81 278 34 5 279 48 5 280 79 5 281 114 82 282 115 82 283 29 82 284 114 18 285 29 18 286 94 18 287 7 83 288 13 83 289 21 83 290 7 5 291 21 5 292 4 5 293 6 5 294 5 5 295 46 5 296 6 84 297 46 84 298 116 84 299 2 85 300 41 85 301 40 85 302 2 86 303 40 86 304 3 86 305 35 5 306 92 5 307 117 5 308 35 87 309 117 87 310 47 87 311 42 88 312 61 88 313 60 88 314 42 89 315 60 89 316 43 89 317 7 90 318 6 90 319 118 90 320 7 5 321 118 5 322 14 5 323 98 91 324 18 91 325 17 91 326 98 92 327 17 92 328 99 92 329 13 5 330 12 5 331 119 5 332 13 93 333 119 93 334 22 93 335 101 94 336 100 94 337 80 94 338 101 94 339 80 94 340 83 94 341 120 95 342 121 95 343 122 95 344 120 96 345 122 96 346 123 96 347 124 97 348 125 97 349 126 97 350 124 98 351 126 98 352 127 98 353 128 18 354 74 18 355 77 18 356 128 99 357 77 99 358 129 99 359 130 100 360 131 100 361 105 100 362 130 18 363 105 18 364 104 18 365 89 95 366 128 95 367 129 95 368 89 101 369 129 101 370 57 101 371 88 102 372 54 102 373 131 102 374 88 18 375 131 18 376 130 18 377 121 103 378 112 103 379 113 103 380 121 104 381 113 104 382 122 104 383 127 105 384 126 105 385 115 105 386 127 18 387 115 18 388 114 18 389 95 74 390 28 74 391 134 74 392 95 106 393 134 106 394 135 106 395 96 18 396 136 18 397 137 18 398 96 107 399 137 107 400 31 107 401 135 108 402 134 108 403 109 108 404 135 18 405 109 18 406 108 18 407 136 18 408 102 18 409 103 18 410 136 109 411 103 109 412 137 109 413 20 15 414 19 14 415 138 110 416 20 15 417 138 110 418 133 111 419 133 111 420 138 110 421 1 1 422 133 111 423 1 1 424 0 0 425 63 36 426 62 35 427 139 112 428 63 36 429 139 112 430 132 112 431 132 112 432 139 112 433 68 43 434 132 112 435 68 43 436 67 42 437 82 50 438 81 49 439 140 113 440 82 50 441 140 113 442 142 114 443 142 114 444 140 113 445 16 10 446 142 114 447 16 10 448 15 9 449 65 40 450 64 39 451 141 115 452 65 40 453 141 115 454 143 116 455 143 116 456 141 115 457 85 56 458 143 116 459 85 56 460 84 55 461 119 117 462 110 117 463 22 117 464 110 118 465 119 118 466 144 118 467 110 5 468 144 5 469 145 5 470 110 119 471 145 119 472 146 119 473 49 120 474 147 120 475 51 120 476 147 121 477 49 121 478 111 121 479 147 122 480 111 122 481 148 122 482 148 123 483 111 123 484 149 123 485 150 5 486 6 5 487 116 5 488 6 124 489 150 124 490 151 124 491 6 125 492 151 125 493 152 125 494 6 5 495 152 5 496 118 5 497 117 126 498 153 126 499 154 126 500 153 5 501 117 5 502 92 5 503 153 5 504 92 5 505 155 5 506 155 127 507 92 127 508 97 127 509</p>
        </triangles>
      </mesh>
    </geometry>
  </library_geometries>
  <library_visual_scenes>
    <visual_scene id="Scene" name="Scene">
      <node id="Object_9_002" name="Object_9.002" type="NODE">
        <matrix sid="transform">0.9042609 0 0 0 0 1 3.95912e-8 0 0 -4.37114e-8 0.9057404 0 0 0 0 1</matrix>
        <instance_geometry url="#Object_7_002-mesh" name="Object_9.002">
          <bind_material>
            <technique_common>
              <instance_material symbol="Plastic_Blue-material" target="#Plastic_Blue-material">
                <bind_vertex_input semantic="UVMap" input_semantic="TEXCOORD" input_set="0"/>
              </instance_material>
            </technique_common>
          </bind_material>
        </instance_geometry>
      </node>
    </visual_scene>
  </library_visual_scenes>
  <scene>
    <instance_visual_scene url="#Scene"/>
  </scene>
</COLLADA>