<?xml version="1.0" encoding="utf-8"?>
<COLLADA xmlns="http://www.collada.org/2005/11/COLLADASchema" version="1.4.1" xmlns:xsi="http://www.w3.org/2001/XMLSchema-instance">
  <asset>
    <contributor>
      <author>Blender User</author>
      <authoring_tool>Blender 2.83.20 commit date:2022-04-19, commit time:16:00, hash:a56e2faeb7a9</authoring_tool>
    </contributor>
    <created>2026-06-23T17:50:48</created>
    <modified>2026-06-23T17:50:48</modified>
    <unit name="meter" meter="1"/>
    <up_axis>Z_UP</up_axis>
  </asset>
  <library_effects>
    <effect id="Plastic_Blue-effect">
      <profile_COMMON>
        <technique sid="common">
          <lambert>
            <emission>
              <color sid="emission">0 0 0 1</color>
            </emission>
            <diffuse>
              <color sid="diffuse">0.07227185 0.1328683 1 1</color>
            </diffuse>
            <index_of_refraction>
              <float sid="ior">1.45</float>
            </index_of_refraction>
          </lambert>
        </technique>
      </profile_COMMON>
    </effect>
  </library_effects>
  <library_images/>
  <library_materials>
    <material id="Plastic_Blue-material" name="Plastic_Blue">
      <instance_effect url="#Plastic_Blue-effect"/>
    </material>
  </library_materials>
  <library_geometries>
    <geometry id="Object_7_001-mesh" name="Object_7.001">
      <mesh>
        <source id="Object_7_001-mesh-positions">
          <float_array id="Object_7_001-mesh-positions-array" count="738">-0.5959843 -0.05972927 -0.5771539 -0.5968434 -0.05972927 -0.4541798 -0.09080839 0.04880273 -0.6006508 -0.09080839 0.05845671 -0.6006508 0.09918665 0.05845671 -0.599325 0.09918665 0.04880273 -0.599325 -0.09185528 0.04880273 -0.450655 0.09813976 0.04880273 -0.4493289 0.09813976 0.05845671 -0.4493289 -0.09185528 0.05845671 -0.450655 0.6031277 -0.05972927 -0.4458039 -0.4468464 0.04880273 -0.4531329 -0.4468464 0.05845671 -0.4531329 0.4541786 0.05845671 -0.5968468 0.5771518 0.05845671 -0.5959888 0.5771518 0.04880273 -0.5959888 0.4541786 0.04880273 -0.5968468 0.6039867 0.04880273 -0.5687769 0.6039867 0.05845671 -0.5687769 0.6031277 0.05845671 -0.4458039 0.6031277 0.04880273 -0.4458039 -0.5959843 0.05845671 -0.5771539 -0.5959843 0.04880273 -0.5771539 -0.5968434 0.04880273 -0.4541798 -0.5968434 0.05845671 -0.4541798 -0.09080839 0.05845671 -0.6006508 -0.09185528 0.05845671 -0.450655 0.09813976 0.05845671 -0.4493289 0.09918665 0.05845671 -0.599325 -0.4466373 0.02834874 -0.4831319 -0.09164643 0.02834874 -0.4806538 0.6039867 -0.05972927 -0.5687769 -0.4457994 -0.05972927 -0.6031299 -0.5687733 -0.05972927 -0.6039879 -0.5959843 0.0231387 -0.5771539 -0.5968434 0.0231387 -0.4541798 -0.5959843 0.0112307 -0.5771539 -0.5968434 0.0112307 -0.4541798 -0.5968434 0.05845671 -0.4541798 -0.5968434 0.04880273 -0.4541798 0.4531317 0.04880273 -0.4468508 0.4531317 0.05845671 -0.4468508 -0.09185528 0.02058172 -0.450655 0.09813976 0.02058172 -0.4493289 0.09834957 0.008673727 -0.4793279 0.09813976 0.008673727 -0.4493289 0.09813976 -0.05972927 -0.4493289 0.09834957 -0.05972927 -0.4793279 -0.09080839 0.02058172 -0.6006508 -0.09101724 0.02058172 -0.5706518 -0.09101724 0.02834874 -0.5706518 -0.09080839 0.04880273 -0.6006508 0.4533408 0.02834874 -0.4768498 0.09834957 0.02834874 -0.4793279 0.6031277 0.04880273 -0.4458039 0.6031277 0.05845671 -0.4458039 0.4531317 0.05845671 -0.4468508 0.4541786 0.05845671 -0.5968468 -0.4468464 0.05845671 -0.4531329 -0.4457994 0.05845671 -0.6031299 -0.4457994 0.05845671 -0.6031299 -0.4457994 0.04880273 -0.6031299 0.4541786 -0.05972927 -0.5968468 0.5771518 -0.05972927 -0.5959888 0.6039867 0.0231387 -0.5687769 0.6031277 0.0231387 -0.4458039 0.4531317 0.0231387 -0.4468508 0.6031277 0.0231387 -0.4458039 0.6039867 0.0112307 -0.5687769 0.6031277 0.0112307 -0.4458039 -0.09080839 -0.05972927 -0.6006508 0.09918665 -0.05972927 -0.599325 0.09834957 0.02834874 -0.4793279 0.09813976 0.04880273 -0.4493289 0.09813976 0.02058172 -0.4493289 0.09834957 0.02058172 -0.4793279 -0.4457994 -0.05972927 -0.6031299 -0.4457994 0.0112307 -0.6031299 -0.4460093 0.0112307 -0.5731299 -0.4460093 -0.05972927 -0.5731299 -0.4466373 0.0231387 -0.4831319 -0.4466373 0.02834874 -0.4831319 -0.4468464 0.04880273 -0.4531329 -0.4468464 0.0231387 -0.4531329 0.4533408 0.02834874 -0.4768498 0.4533408 0.0231387 -0.4768498 0.4531317 0.0231387 -0.4468508 0.4531317 0.04880273 -0.4468508 0.09918665 0.04880273 -0.599325 0.09897756 0.02834874 -0.5693259 0.09897756 0.02058172 -0.5693259 0.09918665 0.02058172 -0.599325 0.4541786 0.04880273 -0.5968468 0.4541786 0.0231387 -0.5968468 0.4539688 0.0231387 -0.5668478 0.4539688 0.02834874 -0.5668478 0.4539688 0.02834874 -0.5668478 0.09897756 0.02834874 -0.5693259 0.09918665 0.008673727 -0.599325 0.09897756 0.008673727 -0.5693259 0.09897756 -0.05972927 -0.5693259 0.09918665 -0.05972927 -0.599325 -0.4457994 0.0112307 -0.6031299 -0.5687733 0.0112307 -0.6039879 -0.09101724 0.02834874 -0.5706518 -0.4460093 0.02834874 -0.5731299 0.5771518 0.0231387 -0.5959888 0.5962048 0.04880273 -0.58794 0.5962048 0.0231387 -0.58794 -0.09101724 -0.05972927 -0.5706518 -0.09164643 -0.05972927 -0.4806538 -0.09164643 0.008673727 -0.4806538 -0.09101724 0.008673727 -0.5706518 -0.5879363 -0.05972927 -0.5962069 -0.5879363 0.0112307 -0.5962069 0.5962048 0.05845671 -0.58794 -0.5687733 0.05845671 -0.6039879 -0.5687733 0.04880273 -0.6039879 -0.5879363 0.04880273 -0.5962069 -0.5879363 0.05845671 -0.5962069 0.5771518 0.0112307 -0.5959888 0.5962048 0.0112307 -0.58794 0.5962048 -0.05972927 -0.58794 -0.09080839 0.008673727 -0.6006508 0.09918665 0.008673727 -0.599325 -0.5687733 0.0231387 -0.6039879 -0.5879363 0.0231387 -0.5962069 0.4539688 0.0112307 -0.5668478 0.4539688 -0.05972927 -0.5668478 0.4533408 -0.05972927 -0.4768498 0.4533408 0.0112307 -0.4768498 0.4541786 0.0112307 -0.5968468 0.4541786 0.0112307 -0.5968468 0.4541786 -0.05972927 -0.5968468 0.4531317 -0.05972927 -0.4468508 0.4531317 0.0112307 -0.4468508 0.4531317 0.0112307 -0.4468508 0.4531317 -0.05972927 -0.4468508 0.6031277 -0.05972927 -0.4458039 0.6031277 0.0112307 -0.4458039 -0.4457994 0.0231387 -0.6031299 -0.09164643 0.02058172 -0.4806538 -0.09164643 0.02834874 -0.4806538 -0.09080839 0.02058172 -0.6006508 0.09918665 0.02058172 -0.599325 -0.09185528 -0.05972927 -0.450655 -0.09185528 0.008673727 -0.450655 -0.09080839 -0.05972927 -0.6006508 -0.09080839 0.008673727 -0.6006508 -0.09185528 0.02058172 -0.450655 -0.09185528 0.04880273 -0.450655 -0.09185528 -0.05972927 -0.450655 0.09813976 -0.05972927 -0.4493289 0.09813976 0.008673727 -0.4493289 -0.09185528 0.008673727 -0.450655 -0.4460093 0.0231387 -0.5731299 -0.4460093 0.02834874 -0.5731299 -0.5968434 0.0231387 -0.4541798 -0.4468464 0.0231387 -0.4531329 -0.4466373 -0.05972927 -0.4831319 -0.4466373 0.0112307 -0.4831319 -0.4468464 0.0112307 -0.4531329 -0.4468464 -0.05972927 -0.4531329 -0.4457994 0.0231387 -0.6031299 -0.4457994 0.04880273 -0.6031299 -0.4468464 0.0112307 -0.4531329 -0.5968434 0.0112307 -0.4541798 -0.5968434 -0.05972927 -0.4541798 -0.4468464 -0.05972927 -0.4531329 0.6082327 0.01718473 -0.57054 0.6000357 0.01718473 -0.590725 0.6000357 0.01718473 -0.590725 0.6082327 0.01718473 -0.57054 0.5799668 0.01718473 -0.5992029 0.5799668 0.01718473 -0.5992029 0.4495506 0.01718473 -0.4737089 0.4502127 0.01718473 -0.568507 0.4502127 0.01718473 -0.568507 0.4495506 0.01718473 -0.4737089 0.4504337 0.01718473 -0.600107 0.4504337 0.01718473 -0.600107 0.4504337 0.01718473 -0.600107 0.4504337 0.01718473 -0.600107 0.4541786 0.0231387 -0.5968468 0.6073277 0.01718473 -0.441006 0.6073277 0.01718473 -0.441006 0.6073277 0.01718473 -0.441006 0.4493306 0.01718473 -0.4421089 0.4493306 0.01718473 -0.4421089 0.6073277 0.01718473 -0.441006 0.4493306 0.01718473 -0.4421089 0.4493306 0.01718473 -0.4421089 -0.09606838 0.01462775 -0.5730879 -0.09673023 0.01462775 -0.4782889 -0.09673023 0.01462775 -0.4782889 -0.09606838 0.01462775 -0.5730879 0.1040616 0.01462775 -0.5716908 0.1034007 0.01462775 -0.4768918 0.1034007 0.01462775 -0.4768918 0.1040616 0.01462775 -0.5716908 -0.09584832 0.01462775 -0.6046879 -0.09584832 0.01462775 -0.6046879 0.1042826 0.01462775 -0.6032908 0.1042826 0.01462775 -0.6032908 0.1031796 0.01462775 -0.445293 0.1031796 0.01462775 -0.445293 0.1042826 0.01462775 -0.6032908 -0.09584832 0.01462775 -0.6046879 -0.09584832 0.01462775 -0.6046879 0.1042826 0.01462775 -0.6032908 -0.09695029 0.01462775 -0.4466899 0.1031796 0.01462775 -0.445293 0.1031796 0.01462775 -0.445293 -0.09695029 0.01462775 -0.4466899 -0.09695029 0.01462775 -0.4466899 -0.09695029 0.01462775 -0.4466899 -0.6002053 0.01718473 -0.578975 -0.5917283 0.01718473 -0.5990439 -0.5917283 0.01718473 -0.5990439 -0.6002053 0.01718473 -0.578975 -0.5715423 0.01718473 -0.6072409 -0.5715423 0.01718473 -0.6072409 -0.4428914 0.01718473 -0.479939 -0.4422293 0.01718473 -0.5747368 -0.4422293 0.01718473 -0.5747368 -0.4428914 0.01718473 -0.479939 -0.4420093 0.01718473 -0.6063368 -0.4420093 0.01718473 -0.6063368 -0.4431124 0.01718473 -0.4483388 -0.6011103 0.01718473 -0.4494419 -0.6011103 0.01718473 -0.4494419 -0.4431124 0.01718473 -0.4483388 -0.4420093 0.01718473 -0.6063368 -0.4420093 0.01718473 -0.6063368 -0.4431124 0.01718473 -0.4483388 -0.4431124 0.01718473 -0.4483388 -0.6011103 0.01718473 -0.4494419 -0.6011103 0.01718473 -0.4494419 -0.5959843 0.05845671 -0.5771539 -0.5968434 0.05845671 -0.4541798 -0.5879363 0.05845671 -0.5962069 -0.5687733 0.05845671 -0.6039879 0.6031277 0.05845671 -0.4458039 0.5771518 0.05845671 -0.5959888 0.5962048 0.05845671 -0.58794 0.6039867 0.05845671 -0.5687769</float_array>
          <technique_common>
            <accessor source="#Object_7_001-mesh-positions-array" count="246" stride="3">
              <param name="X" type="float"/>
              <param name="Y" type="float"/>
              <param name="Z" type="float"/>
            </accessor>
          </technique_common>
        </source>
        <source id="Object_7_001-mesh-normals">
          <float_array id="Object_7_001-mesh-normals-array" count="720">0.006799995 -0.2258804 -0.9741314 0.006980717 0 -0.9999756 0.006979465 0 -0.9999758 0.006798923 -0.2258771 -0.9741321 -0.00679934 -0.2258758 0.9741324 -0.006799578 -0.2258769 0.9741321 -0.006980001 0 0.9999758 -0.006979703 0 0.9999757 -0.006799101 -0.2258793 0.9741316 -0.006979525 0 0.9999756 0.006979048 0 -0.9999758 0.20194 0 -0.9793979 0.2019408 0 -0.9793978 0.006798505 -0.2258769 -0.9741322 0.9821211 0 -0.1882504 0.9821211 0 -0.1882504 0.9999756 0 0.006985247 0.9999757 0 0.006985247 -0.9794001 0 -0.2019293 -0.9794002 0 -0.2019292 -0.9999756 0 -0.006985187 -0.9999756 0 -0.006985187 0 1 0 0 1 0 -0.002057373 -0.9555715 0.2947525 -0.002057611 -0.9555704 0.2947558 -0.926119 0.3297592 -0.1832013 -0.9363484 0.3510112 -0.00654149 -0.9261193 -0.3297571 -0.1832033 -0.9794001 0 -0.2019295 -0.9999756 0 -0.006985187 -0.9363505 -0.3510057 -0.006540775 -0.006979227 0 0.9999758 -0.006979525 0 0.9999757 -0.006799459 -0.2258772 0.9741321 -0.006979942 0 0.9999758 -0.006566405 0.3388255 0.9408264 -0.006566822 0.3388344 0.9408231 0.9384577 -0.345332 0.006553828 0.9207648 -0.3900653 0.006439864 0.9999756 0 0.006993651 0.9999757 0 0.006985664 -0.9207617 0.390073 -0.00641036 -0.9384574 0.3453331 -0.006548583 -0.9999757 0 -0.006974041 -0.9999758 0 -0.006961822 -0.002057611 -0.9555708 0.2947546 -0.002057611 -0.9555709 0.2947542 -0.006979584 0 0.9999757 -0.006979286 0 0.9999758 0 1 0 0 1 0 0 1 0 0.006980538 0 -0.9999757 0.006799221 -0.2258823 -0.9741309 0.9285811 0.3297718 -0.1702584 0.9363556 0.3509922 0.006540834 -0.006475329 0.3730944 0.9277708 -0.006465435 0.3768206 0.9262637 0.9821212 0 -0.18825 0.9285826 -0.3297669 -0.1702596 0.936354 -0.3509965 0.00654149 0.9999756 0 0.006985247 0.9999757 0 0.006986916 0.9999756 0 0.006993651 0.9207637 0.3900679 0.006439626 0.9384563 0.3453357 0.006555378 0.9999756 0 0.006997406 0.9501594 -0.3116936 0.006648778 0.9604362 -0.2784196 0.006704688 0.9999756 0 0.006987512 0.9604448 0.2783899 0.006701707 0.9999757 0 0.006973028 0.9999758 0 0.006969809 0.9466071 0.3223224 0.006597816 -0.9999757 0 -0.006973087 -0.9604442 0.2783923 -0.006700217 -0.9465904 0.3223711 -0.006594955 -0.9999758 0 -0.006969809 0.9999758 0 0.006969809 0.9999757 0 0.006973087 0.9384664 0.3453086 0.006543636 0.9207624 0.390071 0.006427228 -0.9999756 0 -0.006993651 -0.9501547 0.311708 -0.006645202 -0.9604535 0.2783598 -0.006709098 -0.9999757 0 -0.006986975 0.002057552 -0.9555709 -0.2947542 0.002057611 -0.9555708 -0.2947546 0.9207593 -0.3900786 0.006417691 0.938467 -0.3453069 0.006548345 0.9999757 0 0.006973743 0.9999758 0 0.006969809 0.006698727 -0.2802531 -0.9599028 0.0069772 0 -0.9999757 -0.1882342 0 -0.9821243 -0.1626784 -0.2795286 -0.9462556 0.002058386 -0.9555714 -0.2947527 0.002057492 -0.9555737 -0.2947453 0.1758732 0.279549 -0.9438862 0.7120236 0 -0.7021556 0.6567355 0.3535214 -0.6661239 -0.9999758 0 -0.006976366 -0.9999758 0 -0.006976425 -0.9384714 -0.3452948 -0.006548702 -0.9384589 -0.3453291 -0.006546139 -0.7021521 0 -0.712027 -0.6473696 -0.3534808 -0.6752511 0.7120236 0 -0.7021557 -0.1882353 0 -0.982124 -0.1882349 0 -0.982124 -0.7021526 0 -0.7120265 -0.7021522 0 -0.712027 0.201941 0 -0.9793977 0.1758748 -0.2795473 -0.9438863 0.6567382 -0.3535163 -0.6661241 0.7120234 0 -0.7021557 0.006978332 0 -0.9999758 0.006565392 -0.338906 -0.9407975 0.006566584 -0.3388743 -0.9408088 0.006977856 0 -0.9999758 -0.1626729 0.2795337 -0.946255 -0.6473714 0.3534869 -0.6752461 -0.9604539 -0.2783583 -0.006710588 -0.9999757 0 -0.006985664 -0.9999758 0 -0.006973743 -0.9604445 -0.2783913 -0.006697714 0.006697833 -0.2802931 -0.9598912 0.0069772 0 -0.9999757 -0.9501565 -0.3117029 -0.006645321 -0.9999756 0 -0.006993651 -0.9999758 0 -0.006969809 -0.9465909 -0.3223696 -0.006597697 -0.006475687 -0.3730921 0.9277717 -0.006978809 0 0.9999757 -0.006979286 0 0.9999758 -0.006464719 -0.3768182 0.9262647 0.006697893 0.2802546 -0.9599024 -0.9384702 0.3452985 -0.006546258 -0.9999757 0 -0.006974101 0.006566584 0.3389072 -0.940797 0.006565153 0.3388754 -0.9408084 -0.9999758 0 -0.006961882 -0.9207809 -0.3900276 -0.006410539 -0.9999758 0 -0.006961822 -0.9207625 -0.3900711 -0.006411135 -0.92078 0.3900297 -0.006411373 -0.006979286 0 0.9999758 -0.006979286 0 0.9999756 -0.006566584 -0.3388319 0.9408241 -0.006566703 -0.3388229 0.9408273 0.9604346 0.278425 0.006712138 0.9999756 0 0.006989121 -0.006465077 0.3767731 0.926283 -0.006476461 0.3730695 0.9277809 0.9999758 0 0.006973743 0.9604446 -0.2783907 0.006700217 0.9466031 -0.3223338 0.006608605 0.9999758 0 0.006969809 0.9501537 0.3117114 0.006632566 0.9999756 0 0.006997406 -0.006475269 -0.3730674 0.9277817 -0.006466209 -0.3767715 0.9262838 -0.006979227 0 0.9999758 -0.00697875 0 0.9999757 0.7804293 0.6041926 -0.1608771 0.5692329 0.6192404 -0.5408469 0.5692366 -0.6192359 -0.5408481 0.7804327 -0.604188 -0.1608787 0.1976683 0.5363836 -0.8204998 0.1976692 -0.5363801 -0.8205019 -0.8449754 -0.5347728 -0.00588876 -0.8450132 -0.5347132 -0.005906403 -0.8450104 0.5347173 -0.005904316 -0.8449722 0.5347778 -0.005893409 -0.8450109 -0.5347165 -0.005910098 -0.8450067 0.5347232 -0.00590986 0.006131827 -0.4772889 -0.8787252 0.006132721 0.4772932 -0.8787229 0.006698608 0.2802947 -0.9598907 0.8149735 0.5794704 0.005693018 0.8149697 -0.5794757 0.005694031 -0.005447268 -0.6251166 0.7805125 -0.00544846 -0.6251029 0.7805234 -0.005447745 0.6251068 0.7805202 -0.0054484 0.6251208 0.7805091 -0.8449786 -0.5347676 -0.005888402 -0.8449806 0.5347646 -0.005884349 -0.7614721 0.6481761 -0.005311012 -0.7615214 0.648118 -0.005307912 -0.761524 -0.648115 -0.005311489 -0.7614752 -0.6481725 -0.005307555 0.7615113 -0.6481299 0.005320906 0.7614725 -0.6481756 0.00531876 0.7614693 0.6481792 0.005320787 0.7615031 0.6481397 0.00530976 -0.7614756 0.6481719 -0.005301713 -0.7614789 -0.6481682 -0.005302906 0.7614722 -0.648176 0.005311191 0.7614654 0.6481838 0.005325734 0.7614716 -0.6481766 0.005325973 0.7614683 0.6481803 0.005325615 0.005791723 0.5577872 -0.8299638 0.005793869 0.5578373 -0.8299302 0.005791783 -0.5578328 -0.8299332 0.005794048 -0.5577828 -0.8299669 -0.005792975 0.5577167 0.8300111 -0.005793452 0.5577234 0.8300068 -0.005793213 -0.5577195 0.8300094 -0.005793452 -0.5577129 0.8300138 -0.761299 0.6483795 -0.005297422 -0.7615204 -0.6481193 -0.005302071 -0.778131 -0.604168 -0.1717363 -0.5616765 -0.6191956 -0.5487407 -0.5616834 0.6191897 -0.5487403 -0.7781305 0.6041697 -0.1717324 -0.1861885 -0.5363453 -0.8232057 -0.1861783 0.5363431 -0.8232094 0.8449722 0.5347778 0.005904853 0.8449421 0.5348252 0.00590527 0.8449388 -0.5348308 0.005887389 0.8449821 -0.5347622 0.005895555 0.845008 0.5347213 0.005881369 0.8450018 -0.5347312 0.005907177 -0.005447924 -0.6250707 0.7805491 -0.00544995 -0.6250396 0.7805742 -0.005448162 0.6250439 0.7805706 -0.005449831 0.6250756 0.7805453 0.006133437 -0.4772236 -0.8787605 0.006132066 0.4772278 -0.8787583 0.8450145 0.534711 0.005893886 0.8448398 -0.534987 0.005884885 -0.8149527 -0.5794994 -0.005692839 -0.8149464 0.5795083 -0.005693912 0 1 0 0 1 4.85109e-7 0 1 -2.4256e-7 0 1 0 0 1 0 0 1 0</float_array>
          <technique_common>
            <accessor source="#Object_7_001-mesh-normals-array" count="240" stride="3">
              <param name="X" type="float"/>
              <param name="Y" type="float"/>
              <param name="Z" type="float"/>
            </accessor>
          </technique_common>
        </source>
        <source id="Object_7_001-mesh-map-0">
          <float_array id="Object_7_001-mesh-map-0-array" count="1500">0 1 0 1 0 1 0 1 0 1 0 1 0 1 0 1 0 1 0 1 0 1 0 1 0 1 0 1 0 1 0 1 0 1 0 1 0 1 0 1 0 1 0 1 0 1 0 1 0 1 0 1 0 1 0 1 0 1 0 1 0 1 0 1 0 1 0 1 0 1 0 1 0 1 0 1 0 1 0 1 0 1 0 1 0 1 0 1 0 1 0 1 0 1 0 1 0 1 0 1 0 1 0 1 0 1 0 1 0 1 0 1 0 1 0 1 0 1 0 1 0 1 0 1 0 1 0 1 0 1 0 1 0 1 0 1 0 1 0 1 0 1 0 1 0 1 0 1 0 1 0 1 0 1 0 1 0 1 0 1 0 1 0 1 0 1 0 1 0 1 0 1 0 1 0 1 0 1 0 1 0 1 0 1 0 1 0 1 0 1 0 1 0 1 0 1 0 1 0 1 0 1 0 1 0 1 0 1 0 1 0 1 0 1 0 1 0 1 0 1 0 1 0 1 0 1 0 1 0 1 0 1 0 1 0 1 0 1 0 1 0 1 0 1 0 1 0 1 0 1 0 1 0 1 0 1 0 1 0 1 0 1 0 1 0 1 0 1 0 1 0 1 0 1 0 1 0 1 0 1 0 1 0 1 0 1 0 1 0 1 0 1 0 1 0 1 0 1 0 1 0 1 0 1 0 1 0 1 0 1 0 1 0 1 0 1 0 1 0 1 0 1 0 1 0 1 0 1 0 1 0 1 0 1 0 1 0 1 0 1 0 1 0 1 0 1 0 1 0 1 0 1 0 1 0 1 0 1 0 1 0 1 0 1 0 1 0 1 0 1 0 1 0 1 0 1 0 1 0 1 0 1 0 1 0 1 0 1 0 1 0 1 0 1 0 1 0 1 0 1 0 1 0 1 0 1 0 1 0 1 0 1 0 1 0 1 0 1 0 1 0 1 0 1 0 1 0 1 0 1 0 1 0 1 0 1 0 1 0 1 0 1 0 1 0 1 0 1 0 1 0 1 0 1 0 1 0 1 0 1 0 1 0 1 0 1 0 1 0 1 0 1 0 1 0 1 0 1 0 1 0 1 0 1 0 1 0 1 0 1 0 1 0 1 0 1 0 1 0 1 0 1 0 1 0 1 0 1 0 1 0 1 0 1 0 1 0 1 0 1 0 1 0 1 0 1 0 1 0 1 0 1 0 1 0 1 0 1 0 1 0 1 0 1 0 1 0 1 0 1 0 1 0 1 0 1 0 1 0 1 0 1 0 1 0 1 0 1 0 1 0 1 0 1 0 1 0 1 0 1 0 1 0 1 0 1 0 1 0 1 0 1 0 1 0 1 0 1 0 1 0 1 0 1 0 1 0 1 0 1 0 1 0 1 0 1 0 1 0 1 0 1 0 1 0 1 0 1 0 1 0 1 0 1 0 1 0 1 0 1 0 1 0 1 0 1 0 1 0 1 0 1 0 1 0 1 0 1 0 1 0 1 0 1 0 1 0 1 0 1 0 1 0 1 0 1 0 1 0 1 0 1 0 1 0 1 0 1 0 1 0 1 0 1 0 1 0 1 0 1 0 1 0 1 0 1 0 1 0 1 0 1 0 1 0 1 0 1 0 1 0 1 0 1 0 1 0 1 0 1 0 1 0 1 0 1 0 1 0 1 0 1 0 1 0 1 0 1 0 1 0 1 0 1 0 1 0 1 0 1 0 1 0 1 0 1 0 1 0 1 0 1 0 1 0 1 0 1 0 1 0 1 0 1 0 1 0 1 0 1 0 1 0 1 0 1 0 1 0 1 0 1 0 1 0 1 0 1 0 1 0 1 0 1 0 1 0 1 0 1 0 1 0 1 0 1 0 1 0 1 0 1 0 1 0 1 0 1 0 1 0 1 0 1 0 1 0 1 0 1 0 1 0 1 0 1 0 1 0 1 0 1 0 1 0 1 0 1 0 1 0 1 0 1 0 1 0 1 0 1 0 1 0 1 0 1 0 1 0 1 0 1 0 1 0 1 0 1 0 1 0 1 0 1 0 1 0 1 0 1 0 1 0 1 0 1 0 1 0 1 0 1 0 1 0 1 0 1 0 1 0 1 0 1 0 1 0 1 0 1 0 1 0 1 0 1 0 1 0 1 0 1 0 1 0 1 0 1 0 1 0 1 0 1 0 1 0 1 0 1 0 1 0 1 0 1 0 1 0 1 0 1 0 1 0 1 0 1 0 1 0 1 0 1 0 1 0 1 0 1 0 1 0 1 0 1 0 1 0 1 0 1 0 1 0 1 0 1 0 1 0 1 0 1 0 1 0 1 0 1 0 1 0 1 0 1 0 1 0 1 0 1 0 1 0 1 0 1 0 1 0 1 0 1 0 1 0 1 0 1 0 1 0 1 0 1 0 1 0 1 0 1 0 1 0 1 0 1 0 1 0 1 0 1 0 1 0 1 0 1 0 1 0 1 0 1 0 1 0 1 0 1 0 1 0 1 0 1 0 1 0 1 0 1 0 1 0 1 0 1 0 1 0 1 0 1 0 1 0 1 0 1 0 1 0 1 0 1 0 1 0 1 0 1 0 1 0 1 0 1 0 1 0 1 0 1 0 1 0 1 0 1 0 1 0 1 0 1 0 1 0 1 0 1 0 1 0 1 0 1 0 1 0 1 0 1 0 1 0 1 0 1 0 1 0 1 0 1 0 1 0 1 0 1 0 1 0 1 0 1 0 1 0 1 0 1 0 1 0 1 0 1 0 1 0 1 0 1 0 1 0 1 0 1 0 1 0 1 0 1 0 1 0 1 0 1 0 1 0 1 0 1 0 1 0 1 0 1 0 1 0 1 0 1 0 1 0 1 0 1 0 1 0 1 0 1 0 1 0 1 0 1 0 1 0 1 0 1 0 1 0 1 0 1 0 1 0 1 0 1 0 1 0 1 0 1 0 1 0 1 0 1 0 1 0 1 0 1 0 1 0 1 0 1 0 1 0 1 0 1 0 1 0 1 0 1 0 1 0 1 0 1 0 1 0 1 0 1 0 1 0 1 0 1 0 1 0 1 0 1 0 1 0 1 0 1 0 1 0 1 0 1 0 1 0 1 0 1 0 1 0 1 0 1 0 1 0 1 0 1 0 1 0 1 0 1 0 1 0 1 0 1 0 1 0 1 0 1 0 1 0 1 0 1 0 1 0 1 0 1 0 1 0 1 0 1 0 1 0 1 0 1 0 1 0 1 0 1 0 1 0 1 0 1 0 1 0 1 0 1 0 1 0 1 0 1 0 1 0 1 0 1 0 1 0 1 0 1 0 1 0 1 0 1 0 1 0 1 0 1 0 1 0 1 0 1 0 1 0 1 0 1 0 1 0 1 0 1 0 1</float_array>
          <technique_common>
            <accessor source="#Object_7_001-mesh-map-0-array" count="750" stride="2">
              <param name="S" type="float"/>
              <param name="T" type="float"/>
            </accessor>
          </technique_common>
        </source>
        <vertices id="Object_7_001-mesh-vertices">
          <input semantic="POSITION" source="#Object_7_001-mesh-positions"/>
        </vertices>
        <triangles material="Plastic_Blue-material" count="250">
          <input semantic="VERTEX" source="#Object_7_001-mesh-vertices" offset="0"/>
          <input semantic="NORMAL" source="#Object_7_001-mesh-normals" offset="1"/>
          <input semantic="TEXCOORD" source="#Object_7_001-mesh-map-0" offset="2" set="0"/>
          <p>2 0 0 3 1 1 4 2 2 2 0 3 4 2 4 5 3 5 6 4 6 7 5 7 8 6 8 6 4 9 8 6 10 9 7 11 11 8 12 6 4 13 9 7 14 11 8 15 9 7 16 12 9 17 13 10 18 14 11 19 15 12 20 13 10 21 15 12 22 16 13 23 17 14 24 18 15 25 19 16 26 17 14 27 19 16 28 20 17 29 21 18 30 22 19 31 23 20 32 21 18 33 23 20 34 24 21 35 25 22 36 26 22 37 27 22 38 25 23 39 27 23 40 28 23 41 29 24 42 30 25 43 6 4 44 29 24 45 6 4 46 11 8 47 22 19 48 34 26 49 35 27 50 22 19 51 35 27 52 23 20 53 36 28 54 0 29 55 1 30 56 36 28 57 1 30 58 37 31 59 12 32 60 38 32 61 39 32 62 12 9 63 39 33 64 11 8 65 40 34 66 41 35 67 8 6 68 40 34 69 8 6 70 7 5 71 42 36 72 43 37 73 7 5 74 42 36 75 7 5 76 6 4 77 44 38 78 45 39 79 46 40 80 44 38 81 46 40 82 47 41 83 48 42 84 49 43 85 50 44 86 48 42 87 50 44 88 51 45 89 52 46 90 40 34 91 7 5 92 52 46 93 7 5 94 53 47 95 41 35 96 40 34 97 54 48 98 41 49 99 54 49 100 55 49 101 56 50 102 57 50 103 28 50 104 56 51 105 28 51 106 27 51 107 13 10 108 16 13 109 5 3 110 13 10 111 5 3 112 4 2 113 58 52 114 26 52 115 25 52 116 58 22 117 25 22 118 59 22 119 60 53 120 3 1 121 2 0 122 60 53 123 2 0 124 61 54 125 64 55 126 17 14 127 20 17 128 64 55 129 20 17 130 65 56 131 40 34 132 66 57 133 67 58 134 40 34 135 67 58 136 54 48 137 31 59 138 68 60 139 69 61 140 31 59 141 69 61 142 10 62 143 72 63 144 73 64 145 74 65 146 72 63 147 74 65 148 75 66 149 76 67 150 77 68 151 78 69 152 76 67 153 78 69 154 79 70 155 80 71 156 81 72 157 82 73 158 80 71 159 82 73 160 83 74 161 84 75 162 85 76 163 86 77 164 84 75 165 86 77 166 87 78 167 88 79 168 89 80 169 90 81 170 88 79 171 90 81 172 91 82 173 92 83 174 93 84 175 94 85 176 92 83 177 94 85 178 95 86 179 16 13 180 96 87 181 97 88 182 16 13 183 97 88 184 5 3 185 98 89 186 99 90 187 100 91 188 98 89 189 100 91 190 101 92 191 102 93 192 32 94 193 33 95 194 102 93 195 33 95 196 103 96 197 61 54 198 2 0 199 104 97 200 61 54 201 104 97 202 105 98 203 89 80 204 72 63 205 75 66 206 89 80 207 75 66 208 90 81 209 106 99 210 15 12 211 107 100 212 106 99 213 107 100 214 108 101 215 96 87 216 52 46 217 53 47 218 96 87 219 53 47 220 97 88 221 109 102 222 110 103 223 111 104 224 109 102 225 111 104 226 112 105 227 103 96 228 33 95 229 113 106 230 103 96 231 113 106 232 114 107 233 105 98 234 104 97 235 30 25 236 105 98 237 30 25 238 29 24 239 15 12 240 14 11 241 115 108 242 15 12 243 115 108 244 107 100 245 107 100 246 115 108 247 18 15 248 107 100 249 18 15 250 17 14 251 116 109 252 117 110 253 118 111 254 116 109 255 118 111 256 119 112 257 119 112 258 118 111 259 22 19 260 119 112 261 22 19 262 21 18 263 63 113 264 120 114 265 121 115 266 63 113 267 121 115 268 122 116 269 70 117 270 123 118 271 124 119 272 70 117 273 124 119 274 71 120 275 117 110 276 125 121 277 126 122 278 117 110 279 126 122 280 118 111 281 60 53 282 61 54 283 117 110 284 60 53 285 117 110 286 116 109 287 108 101 288 107 100 289 17 14 290 108 101 291 17 14 292 64 55 293 122 116 294 121 115 295 68 60 296 122 116 297 68 60 298 31 59 299 127 123 300 128 124 301 129 125 302 127 123 303 129 125 304 130 126 305 131 127 306 120 114 307 63 113 308 131 127 309 63 113 310 62 128 311 132 129 312 133 130 313 128 124 314 132 129 315 128 124 316 127 123 317 95 86 318 94 85 319 85 76 320 95 86 321 85 76 322 84 75 323 130 126 324 129 125 325 134 131 326 130 126 327 134 131 328 135 132 329 136 133 330 137 134 331 138 135 332 136 133 333 138 135 334 139 136 335 61 54 336 140 137 337 125 121 338 61 54 339 125 121 340 117 110 341 49 43 342 141 138 343 142 139 344 49 43 345 142 139 346 50 44 347 143 140 348 2 0 349 5 3 350 143 140 351 5 3 352 144 141 353 110 103 354 145 142 355 146 143 356 110 103 357 146 143 358 111 104 359 99 90 360 44 38 361 47 41 362 99 90 363 47 41 364 100 91 365 147 144 366 109 102 367 112 105 368 147 144 369 112 105 370 148 145 371 141 138 372 149 146 373 150 142 374 141 138 375 150 142 376 142 139 377 151 147 378 152 148 379 153 149 380 151 147 381 153 149 382 154 150 383 114 107 384 113 106 385 0 29 386 114 107 387 0 29 388 36 28 389 118 111 390 126 122 391 34 26 392 118 111 393 34 26 394 22 19 395 155 151 396 156 152 397 81 72 398 155 151 399 81 72 400 80 71 401 11 8 402 39 33 403 157 153 404 11 8 405 157 153 406 158 154 407 159 155 408 160 156 409 161 157 410 159 155 411 161 157 412 162 158 413 163 159 414 164 160 415 156 152 416 163 159 417 156 152 418 155 151 419 165 161 420 166 162 421 167 163 422 165 161 423 167 163 424 168 164 425 79 70 426 78 69 427 160 156 428 79 70 429 160 156 430 159 155 431 108 101 432 64 55 433 169 165 434 108 101 435 169 165 436 170 166 437 171 167 438 172 168 439 68 60 440 171 167 441 68 60 442 121 115 443 106 99 444 108 101 445 170 166 446 106 99 447 170 166 448 173 169 449 174 170 450 171 167 451 121 115 452 174 170 453 121 115 454 120 114 455 127 123 456 130 126 457 175 171 458 127 123 459 175 171 460 176 172 461 177 173 462 178 174 463 85 76 464 177 173 465 85 76 466 94 85 467 132 129 468 127 123 469 176 172 470 132 129 471 176 172 472 179 175 473 180 176 474 177 173 475 94 85 476 180 176 477 94 85 478 93 84 479 120 114 480 131 127 481 181 177 482 120 114 483 181 177 484 174 170 485 173 169 486 182 178 487 183 179 488 173 169 489 183 179 490 106 99 491 64 55 492 65 56 493 184 180 494 64 55 495 184 180 496 169 165 497 172 168 498 185 181 499 69 61 500 172 168 501 69 61 502 68 60 503 136 133 504 139 136 505 186 182 506 136 133 507 186 182 508 187 183 509 188 184 510 189 185 511 67 58 512 188 184 513 67 58 514 66 57 515 130 126 516 135 132 517 190 186 518 130 126 519 190 186 520 175 171 521 178 174 522 191 187 523 86 77 524 178 174 525 86 77 526 85 76 527 141 138 528 49 43 529 192 188 530 141 138 531 192 188 532 193 189 533 194 190 534 195 191 535 112 105 536 194 190 537 112 105 538 111 104 539 44 38 540 99 90 541 196 192 542 44 38 543 196 192 544 197 193 545 198 194 546 199 195 547 90 81 548 198 194 549 90 81 550 75 66 551 49 43 552 48 42 553 200 196 554 49 43 555 200 196 556 192 188 557 195 191 558 201 197 559 148 145 560 195 191 561 148 145 562 112 105 563 99 90 564 98 89 565 202 198 566 99 90 567 202 198 568 196 192 569 199 195 570 203 199 571 91 82 572 199 195 573 91 82 574 90 81 575 45 39 576 44 38 577 197 193 578 45 39 579 197 193 580 204 200 581 205 201 582 198 194 583 75 66 584 205 201 585 75 66 586 74 65 587 143 140 588 144 141 589 206 202 590 143 140 591 206 202 592 207 203 593 208 204 594 209 205 595 124 119 596 208 204 597 124 119 598 123 118 599 43 37 600 42 36 601 210 206 602 43 37 603 210 206 604 211 207 605 212 208 606 213 209 607 154 150 608 212 208 609 154 150 610 153 149 611 149 146 612 141 138 613 193 189 614 149 146 615 193 189 616 214 210 617 215 211 618 194 190 619 111 104 620 215 211 621 111 104 622 146 143 623 114 107 624 36 28 625 216 212 626 114 107 627 216 212 628 217 213 629 218 214 630 219 215 631 34 26 632 218 214 633 34 26 634 126 122 635 103 96 636 114 107 637 217 213 638 103 96 639 217 213 640 220 216 641 221 217 642 218 214 643 126 122 644 221 217 645 126 122 646 125 121 647 155 151 648 80 71 649 222 218 650 155 151 651 222 218 652 223 219 653 224 220 654 225 221 655 160 156 656 224 220 657 160 156 658 78 69 659 163 159 660 155 151 661 223 219 662 163 159 663 223 219 664 226 222 665 227 223 666 224 220 667 78 69 668 227 223 669 78 69 670 77 68 671 166 162 672 165 161 673 228 224 674 166 162 675 228 224 676 229 225 677 230 226 678 231 227 679 158 154 680 230 226 681 158 154 682 157 153 683 102 93 684 103 96 685 220 216 686 102 93 687 220 216 688 232 228 689 233 229 690 221 217 691 125 121 692 233 229 693 125 121 694 140 137 695 80 71 696 83 74 697 234 230 698 80 71 699 234 230 700 222 218 701 225 221 702 235 231 703 161 157 704 225 221 705 161 157 706 160 156 707 36 28 708 37 31 709 236 232 710 36 28 711 236 232 712 216 212 713 219 215 714 237 233 715 35 27 716 219 215 717 35 27 718 34 26 719 16 13 720 15 12 721 106 99 722 16 13 723 106 99 724 183 179 725 58 234 726 238 234 727 239 234 728 238 235 729 58 235 730 240 235 731 240 236 732 58 236 733 241 236 734 241 237 735 58 237 736 59 237 737 242 238 738 57 238 739 56 238 740 57 22 741 242 22 742 243 22 743 243 22 744 242 22 745 244 22 746 244 239 747 242 239 748 245 239 749</p>
        </triangles>
      </mesh>
    </geometry>
  </library_geometries>
  <library_visual_scenes>
    <visual_scene id="Scene" name="Scene">
      <node id="Object_9_001" name="Object_9.001" type="NODE">
        <matrix sid="transform">0.9042609 0 0 0 0 1 3.95912e-8 0 0 -4.37114e-8 0.9057404 0 0 0 0 1</matrix>
        <instance_geometry url="#Object_7_001-mesh" name="Object_9.001">
          <bind_material>
            <technique_common>
              <instance_material symbol="Plastic_Blue-material" target="#Plastic_Blue-material">
                <bind_vertex_input semantic="UVMap" input_semantic="TEXCOORD" input_set="0"/>
              </instance_material>
            </technique_common>
          </bind_material>
        </instance_geometry>
      </node>
    </visual_scene>
  </library_visual_scenes>
  <scene>
    <instance_visual_scene url="#Scene"/>
  </scene>
</COLLADA>