<?xml version="1.0" encoding="utf-8"?>
<COLLADA xmlns="http://www.collada.org/2005/11/COLLADASchema" version="1.4.1" xmlns:xsi="http://www.w3.org/2001/XMLSchema-instance">
  <asset>
    <contributor>
      <author>Blender User</author>
      <authoring_tool>Blender 2.83.20 commit date:2022-04-19, commit time:16:00, hash:a56e2faeb7a9</authoring_tool>
    </contributor>
    <created>2026-06-24T16:08:51</created>
    <modified>2026-06-24T16:08:51</modified>
    <unit name="meter" meter="1"/>
    <up_axis>Z_UP</up_axis>
  </asset>
  <library_effects>
    <effect id="Material_003-effect">
      <profile_COMMON>
        <newparam sid="Belt_diffuse_1_png-surface">
          <surface type="2D">
            <init_from>Belt_diffuse_1_png</init_from>
          </surface>
        </newparam>
        <newparam sid="Belt_diffuse_1_png-sampler">
          <sampler2D>
            <source>Belt_diffuse_1_png-surface</source>
          </sampler2D>
        </newparam>
        <technique sid="common">
          <lambert>
            <emission>
              <color sid="emission">0 0 0 1</color>
            </emission>
            <diffuse>
              <texture texture="Belt_diffuse_1_png-sampler" texcoord="UVMap"/>
            </diffuse>
            <index_of_refraction>
              <float sid="ior">1.45</float>
            </index_of_refraction>
          </lambert>
        </technique>
      </profile_COMMON>
    </effect>
  </library_effects>
  <library_images>
    <image id="Belt_diffuse_1_png" name="Belt_diffuse_1_png">
      <init_from>Belt_diffuse_1.png</init_from>
    </image>
  </library_images>
  <library_materials>
    <material id="Material_003-material" name="Material.003">
      <instance_effect url="#Material_003-effect"/>
    </material>
  </library_materials>
  <library_geometries>
    <geometry id="Conveyor01Belt_Belt_0_004-mesh" name="Conveyor01Belt_Belt_0.004">
      <mesh>
        <source id="Conveyor01Belt_Belt_0_004-mesh-positions">
          <float_array id="Conveyor01Belt_Belt_0_004-mesh-positions-array" count="180">-0.325 0.06813335 -1.724547 -0.325 0.07003337 -1.708547 0.325 0.06813335 -1.724547 0.325 0.06283336 -1.739247 -0.325 0.06283336 -1.739247 0.325 0.05463337 -1.752247 -0.325 0.05463337 -1.752247 0.325 0.04373335 -1.763147 -0.325 0.04373335 -1.763147 0.325 0.03073334 -1.771347 -0.325 0.03073334 -1.771347 0.325 0.01603335 -1.776647 -0.325 0.01603335 -1.776647 0.325 3.33786e-5 -1.778547 -0.325 3.33786e-5 -1.778547 0.325 -0.01606667 -1.776647 -0.325 -0.01606667 -1.776647 0.325 -0.03076666 -1.771347 -0.325 -0.03076666 -1.771347 0.325 -0.04376661 -1.763147 -0.325 -0.04376661 -1.763147 -0.325 -0.05456662 -1.752247 0.325 -0.05456662 -1.752247 -0.325 -0.06286662 -1.739247 0.325 -0.06286662 -1.739247 0.325 -0.06816667 -1.724547 -0.325 -0.06816667 -1.724547 0.325 -0.06996667 -1.708547 -0.325 -0.06996667 -1.708547 0.325 -0.06996667 1.708467 -0.325 -0.06996667 1.708467 -0.325 -0.06816667 1.724567 0.325 -0.06816667 1.724567 0.325 -0.06286662 1.739267 -0.325 -0.06286662 1.739267 -0.325 -0.05456662 1.752267 0.325 -0.05456662 1.752267 0.325 -0.04376661 1.763167 -0.325 -0.04376661 1.763167 0.325 -0.03076666 1.771367 -0.325 -0.03076666 1.771367 0.325 -0.01606667 1.776667 -0.325 -0.01606667 1.776667 0.325 3.33786e-5 1.778467 -0.325 3.33786e-5 1.778467 0.325 0.01603335 1.776667 -0.325 0.01603335 1.776667 0.325 0.03073334 1.771367 -0.325 0.03073334 1.771367 0.325 0.04373335 1.763167 -0.325 0.04373335 1.763167 0.325 0.05463337 1.752267 -0.325 0.05463337 1.752267 0.325 0.06283336 1.739267 -0.325 0.06283336 1.739267 -0.325 0.06813335 1.724567 0.325 0.06813335 1.724567 0.325 0.07003337 1.708467 -0.325 0.07003337 1.708467 0.325 0.07003337 -1.708547</float_array>
          <technique_common>
            <accessor source="#Conveyor01Belt_Belt_0_004-mesh-positions-array" count="60" stride="3">
              <param name="X" type="float"/>
              <param name="Y" type="float"/>
              <param name="Z" type="float"/>
            </accessor>
          </technique_common>
        </source>
        <source id="Conveyor01Belt_Belt_0_004-mesh-normals">
          <float_array id="Conveyor01Belt_Belt_0_004-mesh-normals-array" count="180">0 0.9738523 -0.227182 -0.06055349 0.9964222 -0.05895894 0.06040865 0.996431 -0.05895912 -2.55558e-6 0.9738523 -0.2271818 0 0.8983773 -0.4392246 1.70247e-7 0.898315 -0.4393523 0 0.7800794 -0.6256806 0 0.7800481 -0.6257195 0 0.6256744 -0.7800844 0 0.6257131 -0.7800533 -3.61545e-7 0.4393509 -0.8983156 0 0.4392172 -0.8983809 0 0.2272103 -0.9738457 1.00673e-6 0.2272078 -0.9738463 0 1.56758e-5 -1 1.71858e-7 -1.33595e-4 -1 -9.71584e-7 -0.2272235 -0.9738427 0 -0.2272233 -0.9738427 0 -0.4395369 -0.8982246 0 -0.4394376 -0.8982732 -4.775e-7 -0.6255771 -0.7801624 0 -0.6255702 -0.780168 0 -0.7800555 -0.6257105 0 -0.7800554 -0.6257105 1.627e-6 -0.8981927 -0.439602 0 -0.8982301 -0.4395256 0 -0.9738865 -0.2270355 0 -0.9738866 -0.2270355 -7.69587e-7 -0.9983571 -0.05730068 0 -0.9983536 -0.05736088 0 -0.9983541 0.05735188 6.95911e-7 -0.9983482 0.05745375 0 -0.9738295 0.2272797 0 -0.973827 0.2272904 -1.627e-6 -0.8981916 0.4396043 0 -0.898229 0.4395279 0 -0.7800554 0.6257105 0 -0.7800555 0.6257105 0 -0.6255805 0.7801597 2.36609e-7 -0.6255874 0.7801541 1.90155e-7 -0.4393636 0.8983093 0 -0.4389179 0.8985272 0 -0.2271876 0.973851 0 -0.2271874 0.9738511 0 -1.5137e-4 1 0 3.4525e-4 1 0 0.2270394 0.9738857 4.34126e-7 0.2275293 0.9737713 0 0.4393627 0.8983098 1.19944e-7 0.4392291 0.8983752 0 0.6256846 0.7800762 0 0.6257233 0.7800452 0 0.7800974 0.6256582 0 0.7800565 0.6257091 0 0.8983138 0.4393545 0 0.8983762 0.4392269 0 0.9738514 0.2271863 0 0.9738506 0.2271895 0.05932551 0.9970763 0.04816091 -0.05897247 0.9958738 0.06897759</float_array>
          <technique_common>
            <accessor source="#Conveyor01Belt_Belt_0_004-mesh-normals-array" count="60" stride="3">
              <param name="X" type="float"/>
              <param name="Y" type="float"/>
              <param name="Z" type="float"/>
            </accessor>
          </technique_common>
        </source>
        <source id="Conveyor01Belt_Belt_0_004-mesh-map-0">
          <float_array id="Conveyor01Belt_Belt_0_004-mesh-map-0-array" count="360">0.2937 0.008599996 0.2937 0.00150001 0.007199943 0.00150001 0.007199943 0.00150001 0.007199943 0.008599996 0.2937 0.008599996 0.007199943 0.008599996 0.007199943 0.0151 0.2937 0.0151 0.2937 0.0151 0.2937 0.008599996 0.007199943 0.008599996 0.007199943 0.02079999 0.2937 0.02079999 0.2937 0.0151 0.2937 0.0151 0.007199943 0.0151 0.007199943 0.02079999 0.007199943 0.02560001 0.2937 0.02560001 0.2937 0.02079999 0.2937 0.02079999 0.007199943 0.02079999 0.007199943 0.02560001 0.007199943 0.0313 0.2937 0.0313 0.2937 0.02560001 0.2937 0.02560001 0.007199943 0.02560001 0.007199943 0.0313 0.007199943 0.03780001 0.2937 0.03780001 0.2937 0.0313 0.2937 0.0313 0.007199943 0.0313 0.007199943 0.03780001 0.007199943 0.03780001 0.007199943 0.0449 0.2937 0.0449 0.2937 0.0449 0.2937 0.03780001 0.007199943 0.03780001 0.007199943 0.0449 0.007199943 0.05199998 0.2937 0.05199998 0.2937 0.05199998 0.2937 0.0449 0.007199943 0.0449 0.007199943 0.05199998 0.007199943 0.05849999 0.2937 0.05849999 0.2937 0.05849999 0.2937 0.05199998 0.007199943 0.05199998 0.007199943 0.06419998 0.2937 0.06419998 0.2937 0.05849999 0.2937 0.05849999 0.007199943 0.05849999 0.007199943 0.06419998 0.2937 0.069 0.2937 0.06419998 0.007199943 0.06419998 0.007199943 0.06419998 0.007199943 0.069 0.2937 0.069 0.2937 0.07469999 0.2937 0.069 0.007199943 0.069 0.007199943 0.069 0.007199943 0.07469999 0.2937 0.07469999 0.007199943 0.0812 0.2937 0.0812 0.2937 0.07469999 0.2937 0.07469999 0.007199943 0.07469999 0.007199943 0.0812 0.2937 0.0812 0.007199943 0.0812 0.007199943 0.08829998 0.007199943 0.08829998 0.2937 0.08829998 0.2937 0.0812 0.007199943 0.9081 0.2937 0.9081 0.2937 0.08829998 0.2937 0.08829998 0.007199943 0.08829998 0.007199943 0.9081 0.2937 0.9151 0.2937 0.9081 0.007199943 0.9081 0.007199943 0.9081 0.007199943 0.9151 0.2937 0.9151 0.007199943 0.9216 0.2937 0.9216 0.2937 0.9151 0.2937 0.9151 0.007199943 0.9151 0.007199943 0.9216 0.2937 0.9273 0.2937 0.9216 0.007199943 0.9216 0.007199943 0.9216 0.007199943 0.9273 0.2937 0.9273 0.007199943 0.9273 0.007199943 0.9321 0.2937 0.9321 0.2937 0.9321 0.2937 0.9273 0.007199943 0.9273 0.007199943 0.9379 0.2937 0.9379 0.2937 0.9321 0.2937 0.9321 0.007199943 0.9321 0.007199943 0.9379 0.007199943 0.9443 0.2937 0.9443 0.2937 0.9379 0.2937 0.9379 0.007199943 0.9379 0.007199943 0.9443 0.007199943 0.9514 0.2937 0.9514 0.2937 0.9443 0.2937 0.9443 0.007199943 0.9443 0.007199943 0.9514 0.007199943 0.9585 0.2937 0.9585 0.2937 0.9514 0.2937 0.9514 0.007199943 0.9514 0.007199943 0.9585 0.007199943 0.9585 0.007199943 0.965 0.2937 0.965 0.2937 0.965 0.2937 0.9585 0.007199943 0.9585 0.007199943 0.965 0.007199943 0.9707 0.2937 0.9707 0.2937 0.9707 0.2937 0.965 0.007199943 0.965 0.007199943 0.9707 0.007199943 0.9755 0.2937 0.9755 0.2937 0.9755 0.2937 0.9707 0.007199943 0.9707 0.007199943 0.9812 0.2937 0.9812 0.2937 0.9755 0.2937 0.9755 0.007199943 0.9755 0.007199943 0.9812 0.2937 0.9877 0.2937 0.9812 0.007199943 0.9812 0.007199943 0.9812 0.007199943 0.9877 0.2937 0.9877 0.007199943 0.9948 0.2937 0.9948 0.2937 0.9877 0.2937 0.9877 0.007199943 0.9877 0.007199943 0.9948 0.2938 0.8999 0.5774 0.8999 0.5774 0.08829998 0.5774 0.08829998 0.2938 0.08829998 0.2938 0.8999</float_array>
          <technique_common>
            <accessor source="#Conveyor01Belt_Belt_0_004-mesh-map-0-array" count="180" stride="2">
              <param name="S" type="float"/>
              <param name="T" type="float"/>
            </accessor>
          </technique_common>
        </source>
        <vertices id="Conveyor01Belt_Belt_0_004-mesh-vertices">
          <input semantic="POSITION" source="#Conveyor01Belt_Belt_0_004-mesh-positions"/>
        </vertices>
        <triangles material="Material_003-material" count="60">
          <input semantic="VERTEX" source="#Conveyor01Belt_Belt_0_004-mesh-vertices" offset="0"/>
          <input semantic="NORMAL" source="#Conveyor01Belt_Belt_0_004-mesh-normals" offset="1"/>
          <input semantic="TEXCOORD" source="#Conveyor01Belt_Belt_0_004-mesh-map-0" offset="2" set="0"/>
          <p>0 0 0 1 1 1 59 2 2 59 2 3 2 3 4 0 0 5 2 3 6 3 4 7 4 5 8 4 5 9 0 0 10 2 3 11 5 6 12 6 7 13 4 5 14 4 5 15 3 4 16 5 6 17 7 8 18 8 9 19 6 7 20 6 7 21 5 6 22 7 8 23 9 10 24 10 11 25 8 9 26 8 9 27 7 8 28 9 10 29 11 12 30 12 13 31 10 11 32 10 11 33 9 10 34 11 12 35 11 12 36 13 14 37 14 15 38 14 15 39 12 13 40 11 12 41 13 14 42 15 16 43 16 17 44 16 17 45 14 15 46 13 14 47 15 16 48 17 18 49 18 19 50 18 19 51 16 17 52 15 16 53 19 20 54 20 21 55 18 19 56 18 19 57 17 18 58 19 20 59 21 22 60 20 21 61 19 20 62 19 20 63 22 23 64 21 22 65 23 24 66 21 22 67 22 23 68 22 23 69 24 25 70 23 24 71 25 26 72 26 27 73 23 24 74 23 24 75 24 25 76 25 26 77 26 27 78 25 26 79 27 28 80 27 28 81 28 29 82 26 27 83 29 30 84 30 31 85 28 29 86 28 29 87 27 28 88 29 30 89 31 32 90 30 31 91 29 30 92 29 30 93 32 33 94 31 32 95 33 34 96 34 35 97 31 32 98 31 32 99 32 33 100 33 34 101 35 36 102 34 35 103 33 34 104 33 34 105 36 37 106 35 36 107 36 37 108 37 38 109 38 39 110 38 39 111 35 36 112 36 37 113 39 40 114 40 41 115 38 39 116 38 39 117 37 38 118 39 40 119 41 42 120 42 43 121 40 41 122 40 41 123 39 40 124 41 42 125 43 44 126 44 45 127 42 43 128 42 43 129 41 42 130 43 44 131 45 46 132 46 47 133 44 45 134 44 45 135 43 44 136 45 46 137 45 46 138 47 48 139 48 49 140 48 49 141 46 47 142 45 46 143 47 48 144 49 50 145 50 51 146 50 51 147 48 49 148 47 48 149 49 50 150 51 52 151 52 53 152 52 53 153 50 51 154 49 50 155 53 54 156 54 55 157 52 53 158 52 53 159 51 52 160 53 54 161 55 56 162 54 55 163 53 54 164 53 54 165 56 57 166 55 56 167 57 58 168 58 59 169 55 56 170 55 56 171 56 57 172 57 58 173 59 2 174 1 1 175 58 59 176 58 59 177 57 58 178 59 2 179</p>
        </triangles>
      </mesh>
    </geometry>
  </library_geometries>
  <library_visual_scenes>
    <visual_scene id="Scene" name="Scene">
      <node id="Conveyor01Belt_Belt_0_003" name="Conveyor01Belt_Belt_0.003" type="NODE">
        <matrix sid="transform">1 0 0 0 0 1 1.34359e-7 -0.66505 0 -1.34359e-7 1 5.40259e-7 0 0 0 1</matrix>
        <instance_geometry url="#Conveyor01Belt_Belt_0_004-mesh" name="Conveyor01Belt_Belt_0.003">
          <bind_material>
            <technique_common>
              <instance_material symbol="Material_003-material" target="#Material_003-material">
                <bind_vertex_input semantic="UVMap" input_semantic="TEXCOORD" input_set="0"/>
              </instance_material>
            </technique_common>
          </bind_material>
        </instance_geometry>
      </node>
    </visual_scene>
  </library_visual_scenes>
  <scene>
    <instance_visual_scene url="#Scene"/>
  </scene>
</COLLADA>