<?xml version="1.0" encoding="utf-8"?>
<COLLADA xmlns="http://www.collada.org/2005/11/COLLADASchema" version="1.4.1" xmlns:xsi="http://www.w3.org/2001/XMLSchema-instance">
  <asset>
    <contributor>
      <author>Blender User</author>
      <authoring_tool>Blender 4.5.10 LTS commit date:2026-05-18, commit time:13:28, hash:6dc0b208d1b5</authoring_tool>
    </contributor>
    <created>2026-06-18T08:56:45</created>
    <modified>2026-06-18T08:56:45</modified>
    <unit name="meter" meter="1"/>
    <up_axis>Z_UP</up_axis>
  </asset>
  <library_effects>
    <effect id="Material_010-effect">
      <profile_COMMON>
        <technique sid="common">
          <lambert>
            <emission>
              <color sid="emission">0 0 0 1</color>
            </emission>
            <diffuse>
              <color sid="diffuse">0.2 0 0 1</color>
            </diffuse>
            <index_of_refraction>
              <float sid="ior">1.5</float>
            </index_of_refraction>
          </lambert>
        </technique>
      </profile_COMMON>
    </effect>
  </library_effects>
  <library_images/>
  <library_materials>
    <material id="Material_010-material" name="Material.010">
      <instance_effect url="#Material_010-effect"/>
    </material>
  </library_materials>
  <library_geometries>
    <geometry id="Cube_112-mesh" name="Cube.112">
      <mesh>
        <source id="Cube_112-mesh-positions">
          <float_array id="Cube_112-mesh-positions-array" count="288">0.5 -1 0.01697337 1 -0.5 0.01697337 0.6545085 -0.9755282 0.01697337 0.7938926 -0.9045085 0.01697337 0.9045085 -0.7938926 0.01697337 0.9755282 -0.6545085 0.01697337 1 0.5 0.01697337 0.5 1 0.01697337 0.9755282 0.6545085 0.01697337 0.9045085 0.7938926 0.01697337 0.7938926 0.9045085 0.01697337 0.6545085 0.9755282 0.01697337 -1 -0.5 0.01697337 -0.5 -1 0.01697337 -0.9755282 -0.6545085 0.01697337 -0.9045085 -0.7938926 0.01697337 -0.7938926 -0.9045085 0.01697337 -0.6545085 -0.9755282 0.01697337 -0.5 1 0.01697337 -1 0.5 0.01697337 -0.6545085 0.9755282 0.01697337 -0.7938926 0.9045085 0.01697337 -0.9045085 0.7938926 0.01697337 -0.9755282 0.6545085 0.01697337 0.4971603 -0.9639149 -0.01751863 0.9639149 -0.4971603 -0.01751863 0.6430885 -0.9403801 -0.01670229 0.7721695 -0.8746095 -0.01670229 0.8746095 -0.7721695 -0.01670229 0.9403801 -0.6430885 -0.01670229 0.9639149 0.4971603 -0.01751863 0.4971603 0.9639149 -0.01751863 0.9403801 0.6430885 -0.01670229 0.8746095 0.7721695 -0.01670229 0.7721695 0.8746095 -0.01670229 0.6430885 0.9403801 -0.01670229 -0.9639149 -0.4971603 -0.01751863 -0.4971603 -0.9639149 -0.01751863 -0.9403801 -0.6430885 -0.01670229 -0.8746095 -0.7721695 -0.01670229 -0.7721695 -0.8746095 -0.01670229 -0.6430885 -0.9403801 -0.01670229 -0.4971603 0.9639149 -0.01751863 -0.9639149 0.4971603 -0.01751863 -0.6430885 0.9403801 -0.01670229 -0.7721695 0.8746095 -0.01670229 -0.8746095 0.7721695 -0.01670229 -0.9403801 0.6430885 -0.01670229 0.5 -1 -0.03302663 1 -0.5 -0.03302663 0.6545085 -0.9755282 -0.03302663 0.7938926 -0.9045085 -0.03302663 0.9045085 -0.7938926 -0.03302663 0.9755282 -0.6545085 -0.03302663 1 0.5 -0.03302663 0.5 1 -0.03302663 0.9755282 0.6545085 -0.03302663 0.9045085 0.7938926 -0.03302663 0.7938926 0.9045085 -0.03302663 0.6545085 0.9755282 -0.03302663 -1 -0.5 -0.03302663 -0.5 -1 -0.03302663 -0.9755282 -0.6545085 -0.03302663 -0.9045085 -0.7938926 -0.03302663 -0.7938926 -0.9045085 -0.03302663 -0.6545085 -0.9755282 -0.03302663 -0.5 1 -0.03302663 -1 0.5 -0.03302663 -0.6545085 0.9755282 -0.03302663 -0.7938926 0.9045085 -0.03302663 -0.9045085 0.7938926 -0.03302663 -0.9755282 0.6545085 -0.03302663 0.4971603 -0.9639149 0.03248131 0.9639149 -0.4971603 0.03248131 0.6430885 -0.9403801 0.03329765 0.7721695 -0.8746095 0.03329765 0.8746095 -0.7721695 0.03329765 0.9403801 -0.6430885 0.03329765 0.9639149 0.4971603 0.03248131 0.4971603 0.9639149 0.03248131 0.9403801 0.6430885 0.03329765 0.8746095 0.7721695 0.03329765 0.7721695 0.8746095 0.03329765 0.6430885 0.9403801 0.03329765 -0.9639149 -0.4971603 0.03248131 -0.4971603 -0.9639149 0.03248131 -0.9403801 -0.6430885 0.03329765 -0.8746095 -0.7721695 0.03329765 -0.7721695 -0.8746095 0.03329765 -0.6430885 -0.9403801 0.03329765 -0.4971603 0.9639149 0.03248131 -0.9639149 0.4971603 0.03248131 -0.6430885 0.9403801 0.03329765 -0.7721695 0.8746095 0.03329765 -0.8746095 0.7721695 0.03329765 -0.9403801 0.6430885 0.03329765</float_array>
          <technique_common>
            <accessor source="#Cube_112-mesh-positions-array" count="96" stride="3">
              <param name="X" type="float"/>
              <param name="Y" type="float"/>
              <param name="Z" type="float"/>
            </accessor>
          </technique_common>
        </source>
        <source id="Cube_112-mesh-normals">
          <float_array id="Cube_112-mesh-normals-array" count="552">0 0 1 0 0 -1 0 0 -1 0 0 1 0.9876884 0.1564345 0 0.8910065 0.4539905 0 0.7071068 0.7071068 0 0.4539905 0.8910065 0 0.1564345 0.9876884 0 0.1564345 -0.9876884 0 0.4539905 -0.8910065 0 0.7071068 -0.7071068 0 0.8910065 -0.4539905 0 0.9876884 -0.1564345 0 1 0 0 -0.1564345 -0.9876884 0 -0.4539905 -0.8910065 0 -0.7071068 -0.7071068 0 -0.8910065 -0.4539905 0 -0.9876884 -0.1564345 0 -0.1564345 0.9876884 0 -0.4539905 0.8910065 0 -0.7071068 0.7071068 0 -0.8910065 0.4539905 0 -0.9876884 0.1564345 0 -1 0 0 0 -1 0 0 1 0 0.9872432 0.1592194 0 0.891005 0.4539934 0 0.7071068 0.7071068 0 0.4539934 0.891005 0 0.1592194 0.9872432 0 0.1592194 -0.9872432 0 0.4539934 -0.891005 0 0.7071068 -0.7071068 0 0.891005 -0.4539934 0 0.9872432 -0.1592194 0 1 0 0 -0.1592194 -0.9872432 0 -0.4539934 -0.891005 0 -0.7071068 -0.7071068 0 -0.891005 -0.4539934 0 -0.9872432 -0.1592194 0 -0.1592194 0.9872432 0 -0.4539934 0.891005 0 -0.7071068 0.7071068 0 -0.891005 0.4539934 0 -0.9872432 0.1592194 0 -1 0 0 0 -1 0 0 1 0 0 0 1 0 0 1 0 0 1 0 0 1 0 0 1 0 0 1 0 0 1 0 0 1 0 0 1 0 0 1 0 0 1 0 0 1 0 0 1 0 0 1 0 0 1 0 0 1 0 0 1 0 0 1 0 0 1 0 0 1 0 0 1 0.006669521 0.006669521 -0.9999555 0 0 -1 0.006669521 -0.006669521 -0.9999555 0 0 -1 0 0 -1 0.006669521 -0.006669521 -0.9999555 0 0 -1 -0.006669521 -0.006669521 -0.9999555 0 0 -1 0 0 -1 -0.006669521 -0.006669521 -0.9999555 0 0 -1 -0.006669521 0.006669521 -0.9999555 0 0 -1 0 0 -1 -0.006669521 0.006669521 -0.9999555 0 0 -1 0.006669521 0.006669521 -0.9999555 0 0 -1 0 0 -1 0 0 -1 0 0 -1 0 0 -1 0 0 -1 0 0 -1 0 0 -1 0 0 -1 0 0 -1 0 0 -1 0 0 -1 0 0 -1 0 0 -1 0 0 -1 0 0 -1 0 0 -1 0 0 -1 0 0 -1 0 0 -1 0 0 -1 0 0 -1 0 0 -1 0 0 -1 0 0 1 -0.006669521 -0.006669521 0.9999555 0 0 1 0 0 1 -0.006669521 -0.006669521 0.9999555 0 0 1 0.006669521 -0.006669521 0.9999555 0 0 1 0 0 1 0.006669521 -0.006669521 0.9999555 0 0 1 0.006669521 0.006669521 0.9999555 0 0 1 0 0 1 0.006669521 0.006669521 0.9999555 0 0 1 -0.006669521 0.006669521 0.9999555 0 0 1 0 0 1 -0.006669521 0.006669521 0.9999555 0 0 1 0.9876884 0.1564345 0 0.8910065 0.4539905 0 0.7071068 0.7071068 0 0.4539905 0.8910065 0 0.1564345 0.9876884 0 0.1564345 -0.9876884 0 0.4539905 -0.8910065 0 0.7071068 -0.7071068 0 0.8910065 -0.4539905 0 0.9876884 -0.1564345 0 1 0 0 -0.1564345 -0.9876884 0 -0.4539905 -0.8910065 0 -0.7071068 -0.7071068 0 -0.8910065 -0.4539905 0 -0.9876884 -0.1564345 0 -0.1564345 0.9876884 0 -0.4539905 0.8910065 0 -0.7071068 0.7071068 0 -0.8910065 0.4539905 0 -0.9876884 0.1564345 0 -1 0 0 0 -1 0 0 1 0 0.9872432 0.1592194 0 0.891005 0.4539934 0 0.7071068 0.7071068 0 0.4539934 0.891005 0 0.1592194 0.9872432 0 0.1592194 -0.9872432 0 0.4539934 -0.891005 0 0.7071068 -0.7071068 0 0.891005 -0.4539934 0 0.9872432 -0.1592194 0 1 0 0 -0.1592194 -0.9872432 0 -0.4539934 -0.891005 0 -0.7071068 -0.7071068 0 -0.891005 -0.4539934 0 -0.9872432 -0.1592194 0 -0.1592194 0.9872432 0 -0.4539934 0.891005 0 -0.7071068 0.7071068 0 -0.891005 0.4539934 0 -0.9872432 0.1592194 0 -1 0 0 0 -1 0 0 1 0</float_array>
          <technique_common>
            <accessor source="#Cube_112-mesh-normals-array" count="184" stride="3">
              <param name="X" type="float"/>
              <param name="Y" type="float"/>
              <param name="Z" type="float"/>
            </accessor>
          </technique_common>
        </source>
        <source id="Cube_112-mesh-map-0">
          <float_array id="Cube_112-mesh-map-0-array" count="1104">0.625 0.6875 0.875 0.5625 0.8125 0.75 0.625 0.6875 0.8125 0.75 0.6875 0.5 0.625 0.6875 0.8125 0.75 0.6875 0.5 0.625 0.6875 0.875 0.5625 0.8125 0.75 0.625 0.5625 0.6260197 0.5431864 0.6260197 0.5431864 0.6260197 0.5431864 0.6289789 0.5257634 0.6289789 0.5257634 0.6289789 0.5257634 0.6335878 0.4868032 0.6335878 0.4868032 0.6335878 0.4868032 0.6393955 0.4722287 0.6393955 0.4722287 0.6393955 0.4722287 0.6875 0.5 0.6875 0.5 0.6875 0.75 0.6393955 0.7777714 0.6393955 0.7777714 0.6393955 0.7777714 0.6335878 0.7631968 0.6335878 0.7631968 0.6335878 0.7631968 0.6289789 0.7242366 0.6289789 0.7242366 0.6289789 0.7242366 0.6260197 0.7068136 0.6260197 0.7068136 0.6260197 0.7068136 0.625 0.6875 0.625 0.6875 0.625 0.6875 0.625 0.5625 0.625 0.5625 0.8317733 0.7469446 0.8125 0.75 0.8125 0.75 0.8491196 0.7380712 0.8317733 0.7469446 0.8317733 0.7469446 0.8629487 0.7242432 0.8491196 0.7380712 0.8491196 0.7380712 0.8719033 0.7068159 0.8629487 0.7242432 0.8629487 0.7242432 0.875 0.6875 0.8719033 0.7068159 0.8719033 0.7068159 0.8125 0.5 0.6939244 0.3631428 0.6939244 0.3631428 0.6939244 0.3631428 0.6997066 0.3544852 0.6997066 0.3544852 0.6997066 0.3544852 0.7043163 0.3247433 0.7043163 0.3247433 0.7043163 0.3247433 0.7073011 0.3189371 0.7073011 0.3189371 0.7073011 0.3189371 0.875 0.5625 0.875 0.5625 0.875 0.5625 0.875 0.6875 0.875 0.6875 0.8125 0.75 0.6875 0.75 0.6875 0.75 0.6875 0.5 0.8125 0.5 0.8125 0.5 0.6260197 0.5431864 0.625 0.5625 0.625 0.5625 0.6289789 0.5257634 0.6260197 0.5431864 0.6260197 0.5431864 0.6335878 0.4868032 0.6289789 0.5257634 0.6289789 0.5257634 0.6393955 0.4722287 0.6335878 0.4868032 0.6335878 0.4868032 0.6393955 0.4722287 0.6875 0.5 0.6393955 0.4722287 0.6393955 0.7777714 0.6875 0.75 0.6875 0.75 0.6335878 0.7631968 0.6393955 0.7777714 0.6393955 0.7777714 0.6289789 0.7242366 0.6335878 0.7631968 0.6335878 0.7631968 0.6260197 0.7068136 0.6289789 0.7242366 0.6289789 0.7242366 0.6260197 0.7068136 0.625 0.6875 0.6260197 0.7068136 0.625 0.5625 0.625 0.6875 0.625 0.6875 0.8317733 0.7469446 0.8125 0.75 0.8317733 0.7469446 0.8317733 0.7469446 0.8491196 0.7380712 0.8491196 0.7380712 0.8491196 0.7380712 0.8629487 0.7242432 0.8629487 0.7242432 0.8629487 0.7242432 0.8719033 0.7068159 0.8719033 0.7068159 0.8719033 0.7068159 0.875 0.6875 0.875 0.6875 0.6939244 0.3631428 0.8125 0.5 0.8125 0.5 0.6997066 0.3544852 0.6939244 0.3631428 0.6939244 0.3631428 0.7043163 0.3247433 0.6997066 0.3544852 0.6997066 0.3544852 0.7073011 0.3189371 0.7043163 0.3247433 0.7043163 0.3247433 0.7073011 0.3189371 0.875 0.5625 0.7073011 0.3189371 0.875 0.6875 0.875 0.5625 0.875 0.5625 0.6875 0.75 0.8125 0.75 0.8125 0.75 0.8125 0.5 0.6875 0.5 0.6875 0.5 0.625 0.6875 0.625 0.5625 0.6875 0.5 0.625 0.5625 0.6260197 0.5431864 0.6875 0.5 0.6260197 0.5431864 0.6289789 0.5257634 0.6335878 0.4868032 0.6335878 0.4868032 0.6393955 0.4722287 0.6875 0.5 0.6875 0.5 0.8125 0.5 0.875 0.5625 0.8125 0.5 0.6939244 0.3631428 0.875 0.5625 0.6939244 0.3631428 0.6997066 0.3544852 0.7043163 0.3247433 0.7043163 0.3247433 0.7073011 0.3189371 0.875 0.5625 0.875 0.5625 0.875 0.6875 0.8125 0.75 0.875 0.6875 0.8719033 0.7068159 0.8125 0.75 0.8719033 0.7068159 0.8629487 0.7242432 0.8491196 0.7380712 0.8491196 0.7380712 0.8317733 0.7469446 0.8125 0.75 0.8125 0.75 0.6875 0.75 0.625 0.6875 0.6875 0.75 0.6393955 0.7777714 0.625 0.6875 0.6393955 0.7777714 0.6335878 0.7631968 0.6289789 0.7242366 0.6289789 0.7242366 0.6260197 0.7068136 0.625 0.6875 0.6260197 0.5431864 0.6335878 0.4868032 0.6875 0.5 0.625 0.6875 0.6875 0.5 0.875 0.5625 0.6939244 0.3631428 0.7043163 0.3247433 0.875 0.5625 0.8719033 0.7068159 0.8491196 0.7380712 0.8125 0.75 0.6393955 0.7777714 0.6289789 0.7242366 0.625 0.6875 0.6260197 0.5431864 0.625 0.5625 0.6875 0.5 0.625 0.5625 0.625 0.6875 0.6875 0.5 0.625 0.6875 0.6260197 0.7068136 0.6393955 0.7777714 0.6260197 0.7068136 0.6289789 0.7242366 0.6393955 0.7777714 0.6289789 0.7242366 0.6335878 0.7631968 0.6393955 0.7777714 0.6393955 0.7777714 0.6875 0.75 0.625 0.6875 0.6875 0.75 0.8125 0.75 0.625 0.6875 0.8125 0.75 0.8317733 0.7469446 0.8719033 0.7068159 0.8317733 0.7469446 0.8491196 0.7380712 0.8719033 0.7068159 0.8491196 0.7380712 0.8629487 0.7242432 0.8719033 0.7068159 0.8719033 0.7068159 0.875 0.6875 0.8125 0.75 0.875 0.6875 0.875 0.5625 0.8125 0.75 0.875 0.5625 0.7073011 0.3189371 0.6939244 0.3631428 0.7073011 0.3189371 0.7043163 0.3247433 0.6939244 0.3631428 0.7043163 0.3247433 0.6997066 0.3544852 0.6939244 0.3631428 0.6939244 0.3631428 0.8125 0.5 0.875 0.5625 0.8125 0.5 0.6875 0.5 0.875 0.5625 0.6875 0.5 0.6393955 0.4722287 0.6260197 0.5431864 0.6393955 0.4722287 0.6335878 0.4868032 0.6260197 0.5431864 0.6335878 0.4868032 0.6289789 0.5257634 0.6260197 0.5431864 0.8125 0.75 0.875 0.5625 0.6875 0.5 0.6260197 0.5431864 0.625 0.5625 0.6875 0.5 0.625 0.5625 0.625 0.6875 0.6875 0.5 0.625 0.6875 0.6260197 0.7068136 0.6289789 0.7242366 0.6289789 0.7242366 0.6335878 0.7631968 0.6393955 0.7777714 0.6393955 0.7777714 0.6875 0.75 0.625 0.6875 0.6875 0.75 0.8125 0.75 0.625 0.6875 0.8125 0.75 0.8317733 0.7469446 0.8491196 0.7380712 0.8491196 0.7380712 0.8629487 0.7242432 0.8719033 0.7068159 0.8719033 0.7068159 0.875 0.6875 0.8125 0.75 0.875 0.6875 0.875 0.5625 0.8125 0.75 0.875 0.5625 0.7073011 0.3189371 0.7043163 0.3247433 0.7043163 0.3247433 0.6997066 0.3544852 0.6939244 0.3631428 0.6939244 0.3631428 0.8125 0.5 0.875 0.5625 0.8125 0.5 0.6875 0.5 0.875 0.5625 0.6875 0.5 0.6393955 0.4722287 0.6335878 0.4868032 0.6335878 0.4868032 0.6289789 0.5257634 0.6260197 0.5431864 0.625 0.6875 0.6289789 0.7242366 0.6393955 0.7777714 0.8125 0.75 0.8491196 0.7380712 0.8719033 0.7068159 0.875 0.5625 0.7043163 0.3247433 0.6939244 0.3631428 0.8125 0.75 0.875 0.5625 0.6875 0.5 0.6875 0.5 0.6335878 0.4868032 0.6260197 0.5431864 0.625 0.6875 0.625 0.5625 0.6875 0.5 0.625 0.5625 0.6260197 0.5431864 0.6875 0.5 0.6260197 0.5431864 0.6289789 0.5257634 0.6335878 0.4868032 0.6335878 0.4868032 0.6393955 0.4722287 0.6260197 0.5431864 0.6393955 0.4722287 0.6875 0.5 0.6260197 0.5431864 0.6875 0.5 0.8125 0.5 0.875 0.5625 0.8125 0.5 0.6939244 0.3631428 0.875 0.5625 0.6939244 0.3631428 0.6997066 0.3544852 0.7043163 0.3247433 0.7043163 0.3247433 0.7073011 0.3189371 0.6939244 0.3631428 0.7073011 0.3189371 0.875 0.5625 0.6939244 0.3631428 0.875 0.5625 0.875 0.6875 0.8125 0.75 0.875 0.6875 0.8719033 0.7068159 0.8125 0.75 0.8719033 0.7068159 0.8629487 0.7242432 0.8491196 0.7380712 0.8491196 0.7380712 0.8317733 0.7469446 0.8719033 0.7068159 0.8317733 0.7469446 0.8125 0.75 0.8719033 0.7068159 0.8125 0.75 0.6875 0.75 0.625 0.6875 0.6875 0.75 0.6393955 0.7777714 0.625 0.6875 0.6393955 0.7777714 0.6335878 0.7631968 0.6289789 0.7242366 0.6289789 0.7242366 0.6260197 0.7068136 0.6393955 0.7777714 0.6260197 0.7068136 0.625 0.6875 0.6393955 0.7777714 0.625 0.6875 0.6875 0.5 0.875 0.5625 0.625 0.5625 0.625 0.5625 0.6260197 0.5431864 0.6260197 0.5431864 0.6260197 0.5431864 0.6289789 0.5257634 0.6289789 0.5257634 0.6289789 0.5257634 0.6335878 0.4868032 0.6335878 0.4868032 0.6335878 0.4868032 0.6393955 0.4722287 0.6393955 0.4722287 0.6393955 0.4722287 0.6875 0.5 0.6875 0.75 0.6875 0.75 0.6393955 0.7777714 0.6393955 0.7777714 0.6393955 0.7777714 0.6335878 0.7631968 0.6335878 0.7631968 0.6335878 0.7631968 0.6289789 0.7242366 0.6289789 0.7242366 0.6289789 0.7242366 0.6260197 0.7068136 0.6260197 0.7068136 0.6260197 0.7068136 0.625 0.6875 0.625 0.6875 0.625 0.6875 0.625 0.5625 0.8317733 0.7469446 0.8317733 0.7469446 0.8125 0.75 0.8491196 0.7380712 0.8491196 0.7380712 0.8317733 0.7469446 0.8629487 0.7242432 0.8629487 0.7242432 0.8491196 0.7380712 0.8719033 0.7068159 0.8719033 0.7068159 0.8629487 0.7242432 0.875 0.6875 0.875 0.6875 0.8719033 0.7068159 0.8125 0.5 0.8125 0.5 0.6939244 0.3631428 0.6939244 0.3631428 0.6939244 0.3631428 0.6997066 0.3544852 0.6997066 0.3544852 0.6997066 0.3544852 0.7043163 0.3247433 0.7043163 0.3247433 0.7043163 0.3247433 0.7073011 0.3189371 0.7073011 0.3189371 0.7073011 0.3189371 0.875 0.5625 0.875 0.5625 0.875 0.5625 0.875 0.6875 0.8125 0.75 0.8125 0.75 0.6875 0.75 0.6875 0.5 0.6875 0.5 0.8125 0.5 0.6260197 0.5431864 0.6260197 0.5431864 0.625 0.5625 0.6289789 0.5257634 0.6289789 0.5257634 0.6260197 0.5431864 0.6335878 0.4868032 0.6335878 0.4868032 0.6289789 0.5257634 0.6393955 0.4722287 0.6393955 0.4722287 0.6335878 0.4868032 0.6393955 0.4722287 0.6875 0.5 0.6875 0.5 0.6393955 0.7777714 0.6393955 0.7777714 0.6875 0.75 0.6335878 0.7631968 0.6335878 0.7631968 0.6393955 0.7777714 0.6289789 0.7242366 0.6289789 0.7242366 0.6335878 0.7631968 0.6260197 0.7068136 0.6260197 0.7068136 0.6289789 0.7242366 0.6260197 0.7068136 0.625 0.6875 0.625 0.6875 0.625 0.5625 0.625 0.5625 0.625 0.6875 0.8317733 0.7469446 0.8125 0.75 0.8125 0.75 0.8317733 0.7469446 0.8317733 0.7469446 0.8491196 0.7380712 0.8491196 0.7380712 0.8491196 0.7380712 0.8629487 0.7242432 0.8629487 0.7242432 0.8629487 0.7242432 0.8719033 0.7068159 0.8719033 0.7068159 0.8719033 0.7068159 0.875 0.6875 0.6939244 0.3631428 0.6939244 0.3631428 0.8125 0.5 0.6997066 0.3544852 0.6997066 0.3544852 0.6939244 0.3631428 0.7043163 0.3247433 0.7043163 0.3247433 0.6997066 0.3544852 0.7073011 0.3189371 0.7073011 0.3189371 0.7043163 0.3247433 0.7073011 0.3189371 0.875 0.5625 0.875 0.5625 0.875 0.6875 0.875 0.6875 0.875 0.5625 0.6875 0.75 0.6875 0.75 0.8125 0.75 0.8125 0.5 0.8125 0.5 0.6875 0.5</float_array>
          <technique_common>
            <accessor source="#Cube_112-mesh-map-0-array" count="552" stride="2">
              <param name="S" type="float"/>
              <param name="T" type="float"/>
            </accessor>
          </technique_common>
        </source>
        <vertices id="Cube_112-mesh-vertices">
          <input semantic="POSITION" source="#Cube_112-mesh-positions"/>
        </vertices>
        <triangles material="Material_010-material" count="184">
          <input semantic="VERTEX" source="#Cube_112-mesh-vertices" offset="0"/>
          <input semantic="NORMAL" source="#Cube_112-mesh-normals" offset="1"/>
          <input semantic="TEXCOORD" source="#Cube_112-mesh-map-0" offset="2" set="0"/>
          <p>1 0 0 19 0 1 13 0 2 25 1 3 37 1 4 31 1 5 49 2 6 61 2 7 55 2 8 73 3 9 91 3 10 85 3 11 6 4 12 56 4 13 8 4 14 8 5 15 57 5 16 9 5 17 9 6 18 58 6 19 10 6 20 10 7 21 59 7 22 11 7 23 11 8 24 55 8 25 7 8 26 0 9 27 50 9 28 2 9 29 2 10 30 51 10 31 3 10 32 3 11 33 52 11 34 4 11 35 4 12 36 53 12 37 5 12 38 5 13 39 49 13 40 1 13 41 1 14 42 54 14 43 6 14 44 17 15 45 61 15 46 13 15 47 16 16 48 65 16 49 17 16 50 15 17 51 64 17 52 16 17 53 14 18 54 63 18 55 15 18 56 12 19 57 62 19 58 14 19 59 18 20 60 68 20 61 20 20 62 20 21 63 69 21 64 21 21 65 21 22 66 70 22 67 22 22 68 22 23 69 71 23 70 23 23 71 23 24 72 67 24 73 19 24 74 19 25 75 60 25 76 12 25 77 13 26 78 48 26 79 0 26 80 7 27 81 66 27 82 18 27 83 32 28 84 78 28 85 30 28 86 33 29 87 80 29 88 32 29 89 34 30 90 81 30 91 33 30 92 35 31 93 82 31 94 34 31 95 35 32 96 79 32 97 83 32 98 26 33 99 72 33 100 24 33 101 27 34 102 74 34 103 26 34 104 28 35 105 75 35 106 27 35 107 29 36 108 76 36 109 28 36 110 29 37 111 73 37 112 77 37 113 30 38 114 73 38 115 25 38 116 41 39 117 85 39 118 89 39 119 41 40 120 88 40 121 40 40 122 40 41 123 87 41 124 39 41 125 39 42 126 86 42 127 38 42 128 38 43 129 84 43 130 36 43 131 44 44 132 90 44 133 42 44 134 45 45 135 92 45 136 44 45 137 46 46 138 93 46 139 45 46 140 47 47 141 94 47 142 46 47 143 47 48 144 91 48 145 95 48 146 36 49 147 91 49 148 43 49 149 24 50 150 85 50 151 37 50 152 42 51 153 79 51 154 31 51 155 1 52 156 6 52 157 7 52 158 6 53 159 8 53 160 7 53 161 8 54 162 9 54 163 10 54 164 10 55 165 11 55 166 7 55 167 7 56 168 18 56 169 19 56 170 18 57 171 20 57 172 19 57 173 20 58 174 21 58 175 22 58 176 22 59 177 23 59 178 19 59 179 19 60 180 12 60 181 13 60 182 12 61 183 14 61 184 13 61 185 14 62 186 15 62 187 16 62 188 16 63 189 17 63 190 13 63 191 13 64 192 0 64 193 1 64 194 0 65 195 2 65 196 1 65 197 2 66 198 3 66 199 4 66 200 4 67 201 5 67 202 1 67 203 8 68 204 10 68 205 7 68 206 1 69 207 7 69 208 19 69 209 20 70 210 22 70 211 19 70 212 14 71 213 16 71 214 13 71 215 2 72 216 4 72 217 1 72 218 32 73 219 30 73 220 31 73 221 30 74 222 25 74 223 31 74 224 25 75 225 29 75 226 26 75 227 29 76 228 28 76 229 26 76 230 28 77 231 27 77 232 26 77 233 26 78 234 24 78 235 25 78 236 24 79 237 37 79 238 25 79 239 37 80 240 41 80 241 38 80 242 41 81 243 40 81 244 38 81 245 40 82 246 39 82 247 38 82 248 38 83 249 36 83 250 37 83 251 36 84 252 43 84 253 37 84 254 43 85 255 47 85 256 44 85 257 47 86 258 46 86 259 44 86 260 46 87 261 45 87 262 44 87 263 44 88 264 42 88 265 43 88 266 42 89 267 31 89 268 43 89 269 31 90 270 35 90 271 32 90 272 35 91 273 34 91 274 32 91 275 34 92 276 33 92 277 32 92 278 37 93 279 43 93 280 31 93 281 56 94 282 54 94 283 55 94 284 54 95 285 49 95 286 55 95 287 49 96 288 53 96 289 52 96 290 52 97 291 51 97 292 50 97 293 50 98 294 48 98 295 49 98 296 48 99 297 61 99 298 49 99 299 61 100 300 65 100 301 64 100 302 64 101 303 63 101 304 62 101 305 62 102 306 60 102 307 61 102 308 60 103 309 67 103 310 61 103 311 67 104 312 71 104 313 70 104 314 70 105 315 69 105 316 68 105 317 68 106 318 66 106 319 67 106 320 66 107 321 55 107 322 67 107 323 55 108 324 59 108 325 58 108 326 58 109 327 57 109 328 56 109 329 49 110 330 52 110 331 50 110 332 61 111 333 64 111 334 62 111 335 67 112 336 70 112 337 68 112 338 61 113 339 67 113 340 55 113 341 55 114 342 58 114 343 56 114 344 73 115 345 78 115 346 79 115 347 78 116 348 80 116 349 79 116 350 80 117 351 81 117 352 82 117 353 82 118 354 83 118 355 80 118 356 83 119 357 79 119 358 80 119 359 79 120 360 90 120 361 91 120 362 90 121 363 92 121 364 91 121 365 92 122 366 93 122 367 94 122 368 94 123 369 95 123 370 92 123 371 95 124 372 91 124 373 92 124 374 91 125 375 84 125 376 85 125 377 84 126 378 86 126 379 85 126 380 86 127 381 87 127 382 88 127 383 88 128 384 89 128 385 86 128 386 89 129 387 85 129 388 86 129 389 85 130 390 72 130 391 73 130 392 72 131 393 74 131 394 73 131 395 74 132 396 75 132 397 76 132 398 76 133 399 77 133 400 74 133 401 77 134 402 73 134 403 74 134 404 73 135 405 79 135 406 91 135 407 6 136 408 54 136 409 56 136 410 8 137 411 56 137 412 57 137 413 9 138 414 57 138 415 58 138 416 10 139 417 58 139 418 59 139 419 11 140 420 59 140 421 55 140 422 0 141 423 48 141 424 50 141 425 2 142 426 50 142 427 51 142 428 3 143 429 51 143 430 52 143 431 4 144 432 52 144 433 53 144 434 5 145 435 53 145 436 49 145 437 1 146 438 49 146 439 54 146 440 17 147 441 65 147 442 61 147 443 16 148 444 64 148 445 65 148 446 15 149 447 63 149 448 64 149 449 14 150 450 62 150 451 63 150 452 12 151 453 60 151 454 62 151 455 18 152 456 66 152 457 68 152 458 20 153 459 68 153 460 69 153 461 21 154 462 69 154 463 70 154 464 22 155 465 70 155 466 71 155 467 23 156 468 71 156 469 67 156 470 19 157 471 67 157 472 60 157 473 13 158 474 61 158 475 48 158 476 7 159 477 55 159 478 66 159 479 32 160 480 80 160 481 78 160 482 33 161 483 81 161 484 80 161 485 34 162 486 82 162 487 81 162 488 35 163 489 83 163 490 82 163 491 35 164 492 31 164 493 79 164 494 26 165 495 74 165 496 72 165 497 27 166 498 75 166 499 74 166 500 28 167 501 76 167 502 75 167 503 29 168 504 77 168 505 76 168 506 29 169 507 25 169 508 73 169 509 30 170 510 78 170 511 73 170 512 41 171 513 37 171 514 85 171 515 41 172 516 89 172 517 88 172 518 40 173 519 88 173 520 87 173 521 39 174 522 87 174 523 86 174 524 38 175 525 86 175 526 84 175 527 44 176 528 92 176 529 90 176 530 45 177 531 93 177 532 92 177 533 46 178 534 94 178 535 93 178 536 47 179 537 95 179 538 94 179 539 47 180 540 43 180 541 91 180 542 36 181 543 84 181 544 91 181 545 24 182 546 72 182 547 85 182 548 42 183 549 90 183 550 79 183 551</p>
        </triangles>
      </mesh>
    </geometry>
  </library_geometries>
  <library_visual_scenes>
    <visual_scene id="Scene" name="Scene">
      <node id="Cube_111" name="Cube.111" type="NODE">
        <matrix sid="transform">0.8 0 0 0 0 0 -0.3015486 0 0 0.5 0 0 0 0 0 1</matrix>
        <instance_geometry url="#Cube_112-mesh" name="Cube.111">
          <bind_material>
            <technique_common>
              <instance_material symbol="Material_010-material" target="#Material_010-material">
                <bind_vertex_input semantic="UVMap" input_semantic="TEXCOORD" input_set="0"/>
              </instance_material>
            </technique_common>
          </bind_material>
        </instance_geometry>
      </node>
    </visual_scene>
  </library_visual_scenes>
  <scene>
    <instance_visual_scene url="#Scene"/>
  </scene>
</COLLADA>