<?xml version="1.0" encoding="utf-8"?>
<COLLADA xmlns="http://www.collada.org/2005/11/COLLADASchema" version="1.4.1" xmlns:xsi="http://www.w3.org/2001/XMLSchema-instance">
  <asset>
    <contributor>
      <author>Blender User</author>
      <authoring_tool>Blender 4.5.10 LTS commit date:2026-05-18, commit time:13:28, hash:6dc0b208d1b5</authoring_tool>
    </contributor>
    <created>2026-06-18T08:59:30</created>
    <modified>2026-06-18T08:59:30</modified>
    <unit name="meter" meter="1"/>
    <up_axis>Z_UP</up_axis>
  </asset>
  <library_effects>
    <effect id="Material_008-effect">
      <profile_COMMON>
        <technique sid="common">
          <lambert>
            <emission>
              <color sid="emission">0 0 0 1</color>
            </emission>
            <diffuse>
              <color sid="diffuse">0.1 0.1 0.1 1</color>
            </diffuse>
            <index_of_refraction>
              <float sid="ior">1.5</float>
            </index_of_refraction>
          </lambert>
        </technique>
      </profile_COMMON>
    </effect>
  </library_effects>
  <library_images/>
  <library_materials>
    <material id="Material_008-material" name="Material.008">
      <instance_effect url="#Material_008-effect"/>
    </material>
  </library_materials>
  <library_geometries>
    <geometry id="Cube_040-mesh" name="Cube.040">
      <mesh>
        <source id="Cube_040-mesh-positions">
          <float_array id="Cube_040-mesh-positions-array" count="648">-0.9 -0.9 -1 -0.9 -1 -0.9 -1 -0.9 -0.9 -0.9 -0.9309075 -0.9951038 -0.9 -0.9587687 -0.9809088 -0.9309074 -0.9 -0.9951038 -0.9317268 -0.9319055 -0.9893054 -0.9306927 -0.9574145 -0.9759048 -0.9587687 -0.9 -0.9809088 -0.9574655 -0.930772 -0.975834 -0.9529119 -0.9529119 -0.9663376 -0.9309075 -0.9951038 -0.9 -0.9587687 -0.9809088 -0.9 -0.9 -0.9951038 -0.9309074 -0.9319055 -0.9893054 -0.9317268 -0.9574145 -0.9759048 -0.9306927 -0.9 -0.9809088 -0.9587687 -0.930772 -0.975834 -0.9574655 -0.9529119 -0.9663376 -0.9529119 -0.9951038 -0.9 -0.9309075 -0.9809088 -0.9 -0.9587687 -0.9951038 -0.9309074 -0.9 -0.9893054 -0.9317268 -0.9319055 -0.9759048 -0.9306927 -0.9574145 -0.9809088 -0.9587687 -0.9 -0.975834 -0.9574655 -0.930772 -0.9663376 -0.9529119 -0.9529119 -0.9 -1 0.9 -0.9 -0.9 1 -1 -0.9 0.9 -0.9 -0.9951038 0.9309075 -0.9 -0.9809088 0.9587687 -0.9309074 -0.9951038 0.9 -0.9317268 -0.9893054 0.9319055 -0.9306927 -0.9759048 0.9574145 -0.9587687 -0.9809088 0.9 -0.9574655 -0.975834 0.930772 -0.9529119 -0.9663376 0.9529119 -0.9309075 -0.9 0.9951038 -0.9587687 -0.9 0.9809088 -0.9 -0.9309074 0.9951038 -0.9319055 -0.9317268 0.9893054 -0.9574145 -0.9306927 0.9759048 -0.9 -0.9587687 0.9809088 -0.930772 -0.9574655 0.975834 -0.9529119 -0.9529119 0.9663376 -0.9951038 -0.9309075 0.9 -0.9809088 -0.9587687 0.9 -0.9951038 -0.9 0.9309074 -0.9893054 -0.9319055 0.9317268 -0.9759048 -0.9574145 0.9306927 -0.9809088 -0.9 0.9587687 -0.975834 -0.930772 0.9574655 -0.9663376 -0.9529119 0.9529119 -0.9 0.9 -1 -1 0.9 -0.9 -0.9 1 -0.9 -0.9309075 0.9 -0.9951038 -0.9587687 0.9 -0.9809088 -0.9 0.9309074 -0.9951038 -0.9319055 0.9317268 -0.9893054 -0.9574145 0.9306927 -0.9759048 -0.9 0.9587687 -0.9809088 -0.930772 0.9574655 -0.975834 -0.9529119 0.9529119 -0.9663376 -0.9951038 0.9309075 -0.9 -0.9809088 0.9587687 -0.9 -0.9951038 0.9 -0.9309074 -0.9893054 0.9319055 -0.9317268 -0.9759048 0.9574145 -0.9306927 -0.9809088 0.9 -0.9587687 -0.975834 0.930772 -0.9574655 -0.9663376 0.9529119 -0.9529119 -0.9 0.9951038 -0.9309075 -0.9 0.9809088 -0.9587687 -0.9309074 0.9951038 -0.9 -0.9317268 0.9893054 -0.9319055 -0.9306927 0.9759048 -0.9574145 -0.9587687 0.9809088 -0.9 -0.9574655 0.975834 -0.930772 -0.9529119 0.9663376 -0.9529119 -0.9 0.9 1 -0.9 1 0.9 -1 0.9 0.9 -0.9 0.9309075 0.9951038 -0.9 0.9587687 0.9809088 -0.9309074 0.9 0.9951038 -0.9317268 0.9319055 0.9893054 -0.9306927 0.9574145 0.9759048 -0.9587687 0.9 0.9809088 -0.9574655 0.930772 0.975834 -0.9529119 0.9529119 0.9663376 -0.9309075 0.9951038 0.9 -0.9587687 0.9809088 0.9 -0.9 0.9951038 0.9309074 -0.9319055 0.9893054 0.9317268 -0.9574145 0.9759048 0.9306927 -0.9 0.9809088 0.9587687 -0.930772 0.975834 0.9574655 -0.9529119 0.9663376 0.9529119 -0.9951038 0.9 0.9309075 -0.9809088 0.9 0.9587687 -0.9951038 0.9309074 0.9 -0.9893054 0.9317268 0.9319055 -0.9759048 0.9306927 0.9574145 -0.9809088 0.9587687 0.9 -0.975834 0.9574655 0.930772 -0.9663376 0.9529119 0.9529119 0.9 -0.9 -1 1 -0.9 -0.9 0.9 -1 -0.9 0.9309075 -0.9 -0.9951038 0.9587687 -0.9 -0.9809088 0.9 -0.9309074 -0.9951038 0.9319055 -0.9317268 -0.9893054 0.9574145 -0.9306927 -0.9759048 0.9 -0.9587687 -0.9809088 0.930772 -0.9574655 -0.975834 0.9529119 -0.9529119 -0.9663376 0.9951038 -0.9309075 -0.9 0.9809088 -0.9587687 -0.9 0.9951038 -0.9 -0.9309074 0.9893054 -0.9319055 -0.9317268 0.9759048 -0.9574145 -0.9306927 0.9809088 -0.9 -0.9587687 0.975834 -0.930772 -0.9574655 0.9663376 -0.9529119 -0.9529119 0.9 -0.9951038 -0.9309075 0.9 -0.9809088 -0.9587687 0.9309074 -0.9951038 -0.9 0.9317268 -0.9893054 -0.9319055 0.9306927 -0.9759048 -0.9574145 0.9587687 -0.9809088 -0.9 0.9574655 -0.975834 -0.930772 0.9529119 -0.9663376 -0.9529119 0.9 -0.9 1 0.9 -1 0.9 1 -0.9 0.9 0.9 -0.9309075 0.9951038 0.9 -0.9587687 0.9809088 0.9309074 -0.9 0.9951038 0.9317268 -0.9319055 0.9893054 0.9306927 -0.9574145 0.9759048 0.9587687 -0.9 0.9809088 0.9574655 -0.930772 0.975834 0.9529119 -0.9529119 0.9663376 0.9309075 -0.9951038 0.9 0.9587687 -0.9809088 0.9 0.9 -0.9951038 0.9309074 0.9319055 -0.9893054 0.9317268 0.9574145 -0.9759048 0.9306927 0.9 -0.9809088 0.9587687 0.930772 -0.975834 0.9574655 0.9529119 -0.9663376 0.9529119 0.9951038 -0.9 0.9309075 0.9809088 -0.9 0.9587687 0.9951038 -0.9309074 0.9 0.9893054 -0.9317268 0.9319055 0.9759048 -0.9306927 0.9574145 0.9809088 -0.9587687 0.9 0.975834 -0.9574655 0.930772 0.9663376 -0.9529119 0.9529119 0.9 0.9 -1 0.9 1 -0.9 1 0.9 -0.9 0.9 0.9309075 -0.9951038 0.9 0.9587687 -0.9809088 0.9309074 0.9 -0.9951038 0.9317268 0.9319055 -0.9893054 0.9306927 0.9574145 -0.9759048 0.9587687 0.9 -0.9809088 0.9574655 0.930772 -0.975834 0.9529119 0.9529119 -0.9663376 0.9309075 0.9951038 -0.9 0.9587687 0.9809088 -0.9 0.9 0.9951038 -0.9309074 0.9319055 0.9893054 -0.9317268 0.9574145 0.9759048 -0.9306927 0.9 0.9809088 -0.9587687 0.930772 0.975834 -0.9574655 0.9529119 0.9663376 -0.9529119 0.9951038 0.9 -0.9309075 0.9809088 0.9 -0.9587687 0.9951038 0.9309074 -0.9 0.9893054 0.9317268 -0.9319055 0.9759048 0.9306927 -0.9574145 0.9809088 0.9587687 -0.9 0.975834 0.9574655 -0.930772 0.9663376 0.9529119 -0.9529119 0.9 0.9 1 1 0.9 0.9 0.9 1 0.9 0.9309075 0.9 0.9951038 0.9587687 0.9 0.9809088 0.9 0.9309074 0.9951038 0.9319055 0.9317268 0.9893054 0.9574145 0.9306927 0.9759048 0.9 0.9587687 0.9809088 0.930772 0.9574655 0.975834 0.9529119 0.9529119 0.9663376 0.9951038 0.9309075 0.9 0.9809088 0.9587687 0.9 0.9951038 0.9 0.9309074 0.9893054 0.9319055 0.9317268 0.9759048 0.9574145 0.9306927 0.9809088 0.9 0.9587687 0.975834 0.930772 0.9574655 0.9663376 0.9529119 0.9529119 0.9 0.9951038 0.9309075 0.9 0.9809088 0.9587687 0.9309074 0.9951038 0.9 0.9317268 0.9893054 0.9319055 0.9306927 0.9759048 0.9574145 0.9587687 0.9809088 0.9 0.9574655 0.975834 0.930772 0.9529119 0.9663376 0.9529119</float_array>
          <technique_common>
            <accessor source="#Cube_040-mesh-positions-array" count="216" stride="3">
              <param name="X" type="float"/>
              <param name="Y" type="float"/>
              <param name="Z" type="float"/>
            </accessor>
          </technique_common>
        </source>
        <source id="Cube_040-mesh-normals">
          <float_array id="Cube_040-mesh-normals-array" count="1284">0 -1 0 1 0 0 0 0 1 -1 0 0 0 1 0 -0.1545838 -0.1545835 -0.9758114 -0.1469499 -0.4490357 -0.8813471 -0.1449376 -0.6996412 -0.6996393 -0.4489235 -0.1486038 -0.8811268 -0.4336218 -0.4290647 -0.7923861 -0.4087657 -0.6447985 -0.6458681 -0.1545835 -0.9758114 -0.1545838 -0.4490357 -0.8813471 -0.1469499 -0.6996412 -0.6996393 -0.1449376 -0.1486038 -0.8811269 -0.4489235 -0.4290647 -0.7923861 -0.4336218 -0.6447985 -0.6458681 -0.4087657 -0.9758114 -0.1545838 -0.1545835 -0.881347 -0.1469499 -0.4490357 -0.6996393 -0.1449376 -0.6996412 -0.8811268 -0.4489235 -0.1486038 -0.7923861 -0.4336218 -0.4290647 -0.645868 -0.4087657 -0.6447985 -0.5773503 -0.5773503 -0.5773503 -0.1545838 -0.9758114 0.1545835 -0.1469499 -0.881347 0.4490357 -0.1449376 -0.6996393 0.6996412 -0.4489235 -0.8811268 0.1486038 -0.4336218 -0.7923861 0.4290647 -0.4087657 -0.645868 0.6447985 -0.1545835 -0.1545838 0.9758114 -0.4490357 -0.1469499 0.8813471 -0.6996412 -0.1449376 0.6996393 -0.1486038 -0.4489235 0.8811268 -0.4290647 -0.4336218 0.7923861 -0.6447985 -0.4087657 0.6458681 -0.9758114 -0.1545835 0.1545838 -0.8813471 -0.4490357 0.1469499 -0.6996393 -0.6996412 0.1449376 -0.8811269 -0.1486038 0.4489235 -0.7923861 -0.4290647 0.4336218 -0.6458681 -0.6447985 0.4087657 -0.5773503 -0.5773503 0.5773503 -0.1545835 0.1545838 -0.9758114 -0.4490357 0.1469499 -0.8813471 -0.6996412 0.1449376 -0.6996393 -0.1486038 0.4489235 -0.8811268 -0.4290647 0.4336218 -0.7923861 -0.6447985 0.4087657 -0.6458681 -0.9758114 0.1545835 -0.1545838 -0.8813471 0.4490357 -0.1469499 -0.6996393 0.6996412 -0.1449376 -0.8811269 0.1486038 -0.4489235 -0.7923861 0.4290647 -0.4336218 -0.6458681 0.6447985 -0.4087657 -0.1545838 0.9758114 -0.1545835 -0.1469499 0.881347 -0.4490357 -0.1449376 0.6996393 -0.6996412 -0.4489235 0.8811268 -0.1486038 -0.4336218 0.7923861 -0.4290647 -0.4087657 0.645868 -0.6447985 -0.5773503 0.5773503 -0.5773503 -0.1545838 0.1545835 0.9758114 -0.1469499 0.4490357 0.8813471 -0.1449376 0.6996412 0.6996393 -0.4489235 0.1486038 0.8811268 -0.4336218 0.4290647 0.7923861 -0.4087657 0.6447985 0.6458681 -0.1545835 0.9758114 0.1545838 -0.4490357 0.8813471 0.1469499 -0.6996412 0.6996393 0.1449376 -0.1486038 0.8811269 0.4489235 -0.4290647 0.7923861 0.4336218 -0.6447985 0.6458681 0.4087657 -0.9758114 0.1545838 0.1545835 -0.881347 0.1469499 0.4490357 -0.6996393 0.1449376 0.6996412 -0.8811268 0.4489235 0.1486038 -0.7923861 0.4336218 0.4290647 -0.645868 0.4087657 0.6447985 -0.5773503 0.5773503 0.5773503 0.1545835 -0.1545838 -0.9758114 0.4490357 -0.1469499 -0.8813471 0.6996412 -0.1449376 -0.6996393 0.1486038 -0.4489235 -0.8811268 0.4290647 -0.4336218 -0.7923861 0.6447985 -0.4087657 -0.6458681 0.9758114 -0.1545835 -0.1545838 0.8813471 -0.4490357 -0.1469499 0.6996393 -0.6996412 -0.1449376 0.8811269 -0.1486038 -0.4489235 0.7923861 -0.4290647 -0.4336218 0.6458681 -0.6447985 -0.4087657 0.1545838 -0.9758114 -0.1545835 0.1469499 -0.881347 -0.4490357 0.1449376 -0.6996393 -0.6996412 0.4489235 -0.8811268 -0.1486038 0.4336218 -0.7923861 -0.4290647 0.4087657 -0.645868 -0.6447985 0.5773503 -0.5773503 -0.5773503 0.1545838 -0.1545835 0.9758114 0.1469499 -0.4490357 0.8813471 0.1449376 -0.6996412 0.6996393 0.4489235 -0.1486038 0.8811268 0.4336218 -0.4290647 0.7923861 0.4087657 -0.6447985 0.6458681 0.1545835 -0.9758114 0.1545838 0.4490357 -0.8813471 0.1469499 0.6996412 -0.6996393 0.1449376 0.1486038 -0.8811269 0.4489235 0.4290647 -0.7923861 0.4336218 0.6447985 -0.6458681 0.4087657 0.9758114 -0.1545838 0.1545835 0.881347 -0.1469499 0.4490357 0.6996393 -0.1449376 0.6996412 0.8811268 -0.4489235 0.1486038 0.7923861 -0.4336218 0.4290647 0.645868 -0.4087657 0.6447985 0.5773503 -0.5773503 0.5773503 0.1545838 0.1545835 -0.9758114 0.1469499 0.4490357 -0.8813471 0.1449376 0.6996412 -0.6996393 0.4489235 0.1486038 -0.8811268 0.4336218 0.4290647 -0.7923861 0.4087657 0.6447985 -0.6458681 0.1545835 0.9758114 -0.1545838 0.4490357 0.8813471 -0.1469499 0.6996412 0.6996393 -0.1449376 0.1486038 0.8811269 -0.4489235 0.4290647 0.7923861 -0.4336218 0.6447985 0.6458681 -0.4087657 0.9758114 0.1545838 -0.1545835 0.881347 0.1469499 -0.4490357 0.6996393 0.1449376 -0.6996412 0.8811268 0.4489235 -0.1486038 0.7923861 0.4336218 -0.4290647 0.645868 0.4087657 -0.6447985 0.5773503 0.5773503 -0.5773503 0.1545835 0.1545838 0.9758114 0.4490357 0.1469499 0.8813471 0.6996412 0.1449376 0.6996393 0.1486038 0.4489235 0.8811268 0.4290647 0.4336218 0.7923861 0.6447985 0.4087657 0.6458681 0.9758114 0.1545835 0.1545838 0.8813471 0.4490357 0.1469499 0.6996393 0.6996412 0.1449376 0.8811269 0.1486038 0.4489235 0.7923861 0.4290647 0.4336218 0.6458681 0.6447985 0.4087657 0.1545838 0.9758114 0.1545835 0.1469499 0.881347 0.4490357 0.1449376 0.6996393 0.6996412 0.4489235 0.8811268 0.1486038 0.4336218 0.7923861 0.4290647 0.4087657 0.645868 0.6447985 0.5773503 0.5773503 0.5773503 -0.1564642 0 -0.9876836 -0.453964 0 -0.89102 -0.7071077 0 -0.7071058 -0.89102 0 -0.453964 -0.9876836 0 -0.1564645 -0.1564642 -0.9876836 0 -0.453964 -0.89102 0 -0.7071077 -0.7071058 0 -0.89102 -0.453964 0 -0.9876836 -0.1564645 0 -0.1564642 0 0.9876836 -0.453964 0 0.89102 -0.7071077 0 0.7071058 -0.89102 0 0.453964 -0.9876836 0 0.1564645 -0.1564642 0.9876836 0 -0.453964 0.89102 0 -0.7071077 0.7071058 0 -0.89102 0.453964 0 -0.9876836 0.1564645 0 0 0.1564642 -0.9876836 0 0.453964 -0.89102 0 0.7071077 -0.7071058 0 0.89102 -0.453964 0 0.9876836 -0.1564645 0 0.1564642 0.9876836 0 0.453964 0.89102 0 0.7071077 0.7071058 0 0.89102 0.453964 0 0.9876836 0.1564645 0.9876836 0.1564642 0 0.89102 0.453964 0 0.7071058 0.7071077 0 0.453964 0.89102 0 0.1564645 0.9876836 0 0.1564642 0 -0.9876836 0.453964 0 -0.89102 0.7071077 0 -0.7071058 0.89102 0 -0.453964 0.9876836 0 -0.1564645 0.1564642 0 0.9876836 0.453964 0 0.89102 0.7071077 0 0.7071058 0.89102 0 0.453964 0.9876836 0 0.1564645 0.1564642 -0.9876836 0 0.453964 -0.89102 0 0.7071077 -0.7071058 0 0.89102 -0.453964 0 0.9876836 -0.1564645 0 0 -0.1564642 -0.9876836 0 -0.453964 -0.89102 0 -0.7071077 -0.7071058 0 -0.89102 -0.453964 0 -0.9876836 -0.1564645 0 -0.1564642 0.9876836 0 -0.453964 0.89102 0 -0.7071077 0.7071058 0 -0.89102 0.453964 0 -0.9876836 0.1564645 0 0 -1 0 -1 0 1 0 0 0 0 1 -1 0 0 0 1 0 -0.1718726 -0.1718723 -0.9700102 -0.1624463 -0.4640387 -0.8707923 -0.1450161 -0.6996936 -0.6995707 -0.4631267 -0.1632745 -0.8711229 -0.4290602 -0.4336505 -0.7923727 -0.4094052 -0.6451308 -0.6451308 -0.1718723 -0.9700102 -0.1718726 -0.4640387 -0.8707923 -0.1624463 -0.6996936 -0.6995707 -0.1450161 -0.1632745 -0.8711229 -0.4631267 -0.4336505 -0.7923727 -0.4290602 -0.6451308 -0.6451308 -0.4094052 -0.9700102 -0.1718726 -0.1718723 -0.8707923 -0.1624463 -0.4640387 -0.6995707 -0.1450161 -0.6996936 -0.8711229 -0.4631267 -0.1632745 -0.7923727 -0.4290602 -0.4336505 -0.6451308 -0.4094052 -0.6451308 -0.1718726 -0.9700102 0.1718723 -0.1624463 -0.8707923 0.4640387 -0.1450161 -0.6995707 0.6996936 -0.4631267 -0.8711229 0.1632745 -0.4290602 -0.7923727 0.4336505 -0.4094052 -0.6451308 0.6451308 -0.1718723 -0.1718726 0.9700102 -0.4640387 -0.1624463 0.8707923 -0.6996936 -0.1450161 0.6995707 -0.1632745 -0.4631267 0.8711229 -0.4336505 -0.4290602 0.7923727 -0.6451308 -0.4094052 0.6451308 -0.9700102 -0.1718723 0.1718726 -0.8707923 -0.4640387 0.1624463 -0.6995707 -0.6996936 0.1450161 -0.8711229 -0.1632745 0.4631267 -0.7923727 -0.4336505 0.4290602 -0.6451308 -0.6451308 0.4094052 -0.1718723 0.1718726 -0.9700102 -0.4640387 0.1624463 -0.8707923 -0.6996936 0.1450161 -0.6995707 -0.1632745 0.4631267 -0.8711229 -0.4336505 0.4290602 -0.7923727 -0.6451308 0.4094052 -0.6451308 -0.9700102 0.1718723 -0.1718726 -0.8707923 0.4640387 -0.1624463 -0.6995707 0.6996936 -0.1450161 -0.8711229 0.1632745 -0.4631267 -0.7923727 0.4336505 -0.4290602 -0.6451308 0.6451308 -0.4094052 -0.1718726 0.9700102 -0.1718723 -0.1624463 0.8707923 -0.4640387 -0.1450161 0.6995707 -0.6996936 -0.4631267 0.8711229 -0.1632745 -0.4290602 0.7923727 -0.4336505 -0.4094052 0.6451308 -0.6451308 -0.1718726 0.1718723 0.9700102 -0.1624463 0.4640387 0.8707923 -0.1450161 0.6996936 0.6995707 -0.4631267 0.1632745 0.8711229 -0.4290602 0.4336505 0.7923727 -0.4094052 0.6451308 0.6451308 -0.1718723 0.9700102 0.1718726 -0.4640387 0.8707923 0.1624463 -0.6996936 0.6995707 0.1450161 -0.1632745 0.8711229 0.4631267 -0.4336505 0.7923727 0.4290602 -0.6451308 0.6451308 0.4094052 -0.9700102 0.1718726 0.1718723 -0.8707923 0.1624463 0.4640387 -0.6995707 0.1450161 0.6996936 -0.8711229 0.4631267 0.1632745 -0.7923727 0.4290602 0.4336505 -0.6451308 0.4094052 0.6451308 0.1718723 -0.1718726 -0.9700102 0.4640387 -0.1624463 -0.8707923 0.6996936 -0.1450161 -0.6995707 0.1632745 -0.4631267 -0.8711229 0.4336505 -0.4290602 -0.7923727 0.6451308 -0.4094052 -0.6451308 0.9700102 -0.1718723 -0.1718726 0.8707923 -0.4640387 -0.1624463 0.6995707 -0.6996936 -0.1450161 0.8711229 -0.1632745 -0.4631267 0.7923727 -0.4336505 -0.4290602 0.6451308 -0.6451308 -0.4094052 0.1718726 -0.9700102 -0.1718723 0.1624463 -0.8707923 -0.4640387 0.1450161 -0.6995707 -0.6996936 0.4631267 -0.8711229 -0.1632745 0.4290602 -0.7923727 -0.4336505 0.4094052 -0.6451308 -0.6451308 0.1718726 -0.1718723 0.9700102 0.1624463 -0.4640387 0.8707923 0.1450161 -0.6996936 0.6995707 0.4631267 -0.1632745 0.8711229 0.4290602 -0.4336505 0.7923727 0.4094052 -0.6451308 0.6451308 0.1718723 -0.9700102 0.1718726 0.4640387 -0.8707923 0.1624463 0.6996936 -0.6995707 0.1450161 0.1632745 -0.8711229 0.4631267 0.4336505 -0.7923727 0.4290602 0.6451308 -0.6451308 0.4094052 0.9700102 -0.1718726 0.1718723 0.8707923 -0.1624463 0.4640387 0.6995707 -0.1450161 0.6996936 0.8711229 -0.4631267 0.1632745 0.7923727 -0.4290602 0.4336505 0.6451308 -0.4094052 0.6451308 0.1718726 0.1718723 -0.9700102 0.1624463 0.4640387 -0.8707923 0.1450161 0.6996936 -0.6995707 0.4631267 0.1632745 -0.8711229 0.4290602 0.4336505 -0.7923727 0.4094052 0.6451308 -0.6451308 0.1718723 0.9700102 -0.1718726 0.4640387 0.8707923 -0.1624463 0.6996936 0.6995707 -0.1450161 0.1632745 0.8711229 -0.4631267 0.4336505 0.7923727 -0.4290602 0.6451308 0.6451308 -0.4094052 0.9700102 0.1718726 -0.1718723 0.8707923 0.1624463 -0.4640387 0.6995707 0.1450161 -0.6996936 0.8711229 0.4631267 -0.1632745 0.7923727 0.4290602 -0.4336505 0.6451308 0.4094052 -0.6451308 0.1718723 0.1718726 0.9700102 0.4640387 0.1624463 0.8707923 0.6996936 0.1450161 0.6995707 0.1632745 0.4631267 0.8711229 0.4336505 0.4290602 0.7923727 0.6451308 0.4094052 0.6451308 0.9700102 0.1718723 0.1718726 0.8707923 0.4640387 0.1624463 0.6995707 0.6996936 0.1450161 0.8711229 0.1632745 0.4631267 0.7923727 0.4336505 0.4290602 0.6451308 0.6451308 0.4094052 0.1718726 0.9700102 0.1718723 0.1624463 0.8707923 0.4640387 0.1450161 0.6995707 0.6996936 0.4631267 0.8711229 0.1632745 0.4290602 0.7923727 0.4336505 0.4094052 0.6451308 0.6451308 -0.1564645 0 -0.9876836 -0.453964 0 -0.89102 -0.7071058 0 -0.7071077 -0.89102 0 -0.453964 -0.9876836 0 -0.1564642 -0.1564645 -0.9876836 0 -0.453964 -0.89102 0 -0.7071058 -0.7071077 0 -0.89102 -0.453964 0 -0.9876836 -0.1564642 0 -0.1564645 0 0.9876836 -0.453964 0 0.89102 -0.7071058 0 0.7071077 -0.89102 0 0.453964 -0.9876836 0 0.1564642 -0.1564645 0.9876836 0 -0.453964 0.89102 0 -0.7071058 0.7071077 0 -0.89102 0.453964 0 -0.9876836 0.1564642 0 0 0.1564645 -0.9876836 0 0.453964 -0.89102 0 0.7071058 -0.7071077 0 0.89102 -0.453964 0 0.9876836 -0.1564642 0 0.1564645 0.9876836 0 0.453964 0.89102 0 0.7071058 0.7071077 0 0.89102 0.453964 0 0.9876836 0.1564642 0.9876836 0.1564645 0 0.89102 0.453964 0 0.7071077 0.7071058 0 0.453964 0.89102 0 0.1564642 0.9876836 0 0.1564645 0 -0.9876836 0.453964 0 -0.89102 0.7071058 0 -0.7071077 0.89102 0 -0.453964 0.9876836 0 -0.1564642 0.1564645 0 0.9876836 0.453964 0 0.89102 0.7071058 0 0.7071077 0.89102 0 0.453964 0.9876836 0 0.1564642 0.1564645 -0.9876836 0 0.453964 -0.89102 0 0.7071058 -0.7071077 0 0.89102 -0.453964 0 0.9876836 -0.1564642 0 0 -0.1564645 -0.9876836 0 -0.453964 -0.89102 0 -0.7071058 -0.7071077 0 -0.89102 -0.453964 0 -0.9876836 -0.1564642 0 -0.1564645 0.9876836 0 -0.453964 0.89102 0 -0.7071058 0.7071077 0 -0.89102 0.453964 0 -0.9876836 0.1564642 0 0 -1</float_array>
          <technique_common>
            <accessor source="#Cube_040-mesh-normals-array" count="428" stride="3">
              <param name="X" type="float"/>
              <param name="Y" type="float"/>
              <param name="Z" type="float"/>
            </accessor>
          </technique_common>
        </source>
        <source id="Cube_040-mesh-map-0">
          <float_array id="Cube_040-mesh-map-0-array" count="2568">0.6125 0.7625 0.3875 0.9875 0.3875 0.7625 0.6125 0.5125 0.3875 0.7375 0.3875 0.5125 0.8625 0.5125 0.6375 0.7375 0.6375 0.5125 0.6125 0.01249998 0.3875 0.2375 0.3875 0.01249998 0.6125 0.2625 0.3875 0.4875 0.3875 0.2625 0.1374999 0.7413634 0.1336365 0.7375 0.1375 0.7375 0.1375 0.7448461 0.1335341 0.7414882 0.1374999 0.7413634 0.1375 0.75 0.1336634 0.7446769 0.1375 0.7448461 0.1335341 0.7414882 0.1301539 0.7375 0.1336365 0.7375 0.1335341 0.7414882 0.130886 0.7441139 0.1303168 0.7413465 0.1336535 0.75 0.130886 0.7441139 0.1336634 0.7446769 0.3875 0.9913634 0.3836365 0.9875 0.3875 0.9875 0.3875 0.9948461 0.3835341 0.9914882 0.3875 0.9913634 0.3875 1 0.3836634 0.9946769 0.3875 0.9948461 0.3835341 0.9914882 0.3801539 0.9875 0.3836365 0.9875 0.3835341 0.9914882 0.380886 0.9941139 0.3803168 0.9913465 0.3836535 1 0.380886 0.9941139 0.3836634 0.9946769 0.3836365 0.01249998 0.3875 0.008636534 0.3875 0.01249998 0.3801539 0.01249998 0.3835119 0.008534133 0.3836365 0.01249998 0.375 0.01249998 0.3803232 0.008663356 0.3801539 0.01249998 0.3835119 0.008534133 0.3875 0.005153894 0.3875 0.008636534 0.3835119 0.008534133 0.380886 0.005886018 0.3836535 0.005316793 0.375 0.008653461 0.380886 0.005886018 0.3803232 0.008663356 0.130886 0.7441139 0.130886 0.75 0.125 0.744114 0.6163634 0.9875 0.6125 0.9913635 0.6125 0.9875 0.6198461 0.9875 0.6164882 0.9914659 0.6163634 0.9875 0.625 0.9875 0.6196768 0.9913366 0.6198461 0.9875 0.6164882 0.9914659 0.6125 0.9948461 0.6125 0.9913635 0.6164882 0.9914659 0.619114 0.994114 0.6163465 0.9946832 0.625 0.9913465 0.619114 0.994114 0.6196768 0.9913366 0.8663634 0.7375 0.8625 0.7413635 0.8625 0.7375 0.8698461 0.7375 0.8664882 0.7414659 0.8663634 0.7375 0.875 0.7375 0.8696768 0.7413367 0.8698461 0.7375 0.8664882 0.7414659 0.8625 0.7448461 0.8625 0.7413635 0.8664882 0.7414659 0.8691139 0.7441139 0.8663464 0.7446832 0.875 0.7413465 0.8691139 0.7441139 0.8696768 0.7413367 0.6125 0.008636534 0.6163635 0.01249998 0.6125 0.01249998 0.6125 0.005153894 0.6164658 0.008511781 0.6125 0.008636534 0.6125 0 0.6163366 0.005323171 0.6125 0.005153894 0.6164658 0.008511781 0.6198461 0.01249998 0.6163635 0.01249998 0.6164658 0.008511781 0.6191139 0.005886018 0.6196832 0.008653461 0.6163465 0 0.6191139 0.005886018 0.6163366 0.005323171 0.619114 0.994114 0.625 0.994114 0.6191139 1 0.1336365 0.5125001 0.1375 0.5086365 0.1375 0.5125 0.1301539 0.5125 0.1335118 0.5085341 0.1336365 0.5125001 0.125 0.5125 0.1303232 0.5086634 0.1301539 0.5125 0.1335118 0.5085341 0.1375 0.505154 0.1375 0.5086365 0.1335118 0.5085341 0.130886 0.505886 0.1336535 0.5053168 0.125 0.5086535 0.130886 0.505886 0.1303232 0.5086634 0.3875 0.2413634 0.3836365 0.2375 0.3875 0.2375 0.3875 0.2448461 0.3835341 0.2414882 0.3875 0.2413634 0.3875 0.2551539 0.3836634 0.2446768 0.3875 0.2448461 0.3835341 0.2414882 0.3801539 0.2375 0.3836365 0.2375 0.3835341 0.2414882 0.380886 0.2441139 0.3803168 0.2413465 0.3836535 0.2553168 0.380886 0.2441139 0.3836634 0.2446768 0.3836365 0.2625 0.3875 0.2586365 0.3875 0.2625 0.3801539 0.2625 0.3835119 0.2585341 0.3836365 0.2625 0.375 0.2625 0.3803232 0.2586634 0.3801539 0.2625 0.3835119 0.2585341 0.3875 0.2551539 0.3875 0.2586365 0.3835119 0.2585341 0.380886 0.255886 0.3836535 0.2553168 0.375 0.2586535 0.380886 0.255886 0.3803232 0.2586634 0.130886 0.505886 0.125 0.505886 0.130886 0.5 0.8625 0.5086365 0.8663634 0.5125 0.8625 0.5125 0.8625 0.5051539 0.8664659 0.5085119 0.8625 0.5086365 0.8625 0.5 0.8663366 0.5053232 0.8625 0.5051539 0.8664659 0.5085119 0.8698461 0.5125 0.8663634 0.5125 0.8664659 0.5085119 0.8691139 0.505886 0.8696832 0.5086535 0.8663465 0.5 0.8691139 0.505886 0.8663366 0.5053232 0.6125 0.2586365 0.6163635 0.2625 0.6125 0.2625 0.6125 0.2551539 0.6164658 0.2585118 0.6125 0.2586365 0.6125 0.2448461 0.6163366 0.2553232 0.6125 0.2551539 0.6164658 0.2585118 0.6198461 0.2625 0.6163635 0.2625 0.6164658 0.2585118 0.6191139 0.255886 0.6196832 0.2586535 0.6163465 0.2446832 0.6191139 0.255886 0.6163366 0.2553232 0.6163634 0.2375 0.6125 0.2413634 0.6125 0.2375 0.6198461 0.2375 0.6164882 0.2414658 0.6163634 0.2375 0.625 0.2375 0.6196768 0.2413365 0.6198461 0.2375 0.6164882 0.2414658 0.6125 0.2448461 0.6125 0.2413634 0.6164882 0.2414658 0.619114 0.2441139 0.6163465 0.2446832 0.625 0.2413465 0.619114 0.2441139 0.6196768 0.2413365 0.8691139 0.505886 0.8691141 0.5 0.875 0.505886 0.3663634 0.7375 0.3625 0.7413635 0.3625 0.7375 0.3698461 0.7375 0.3664882 0.7414659 0.3663634 0.7375 0.3801539 0.7375 0.3696768 0.7413367 0.3698461 0.7375 0.3664882 0.7414659 0.3625 0.7448461 0.3625 0.7413635 0.3664882 0.7414659 0.3691139 0.7441139 0.3663465 0.7446832 0.3803168 0.7413465 0.3691139 0.7441139 0.3696768 0.7413367 0.3875 0.7413634 0.3836365 0.7375 0.3875 0.7375 0.3875 0.7448461 0.3835341 0.7414882 0.3875 0.7413634 0.3875 0.7551539 0.3836634 0.7446769 0.3875 0.7448461 0.3835341 0.7414882 0.3801539 0.7375 0.3836365 0.7375 0.3835341 0.7414882 0.380886 0.7441139 0.3803168 0.7413465 0.3836535 0.7553168 0.380886 0.7441139 0.3836634 0.7446769 0.3836365 0.7625001 0.3875 0.7586366 0.3875 0.7625 0.3801539 0.7625 0.3835119 0.7585342 0.3836365 0.7625001 0.375 0.7625 0.3803232 0.7586634 0.3801539 0.7625 0.3835119 0.7585342 0.3875 0.7551539 0.3875 0.7586366 0.3835119 0.7585342 0.380886 0.755886 0.3836535 0.7553168 0.375 0.7586535 0.380886 0.755886 0.3803232 0.7586634 0.3691139 0.7441139 0.375 0.744114 0.369114 0.75 0.6375 0.7413634 0.6336366 0.7375 0.6375 0.7375 0.6375 0.7448461 0.6335341 0.7414882 0.6375 0.7413634 0.6375 0.75 0.6336635 0.7446769 0.6375 0.7448461 0.6335341 0.7414882 0.6301539 0.7375 0.6336366 0.7375 0.6335341 0.7414882 0.630886 0.7441139 0.6303168 0.7413465 0.6336535 0.75 0.630886 0.7441139 0.6336635 0.7446769 0.6125 0.7586365 0.6163635 0.7625 0.6125 0.7625 0.6125 0.7551539 0.6164658 0.7585119 0.6125 0.7586365 0.6125 0.7448461 0.6163366 0.7553232 0.6125 0.7551539 0.6164658 0.7585119 0.6198461 0.7625 0.6163635 0.7625 0.6164658 0.7585119 0.6191139 0.755886 0.6196832 0.7586535 0.6163465 0.7446832 0.6191139 0.755886 0.6163366 0.7553232 0.6163634 0.7375 0.6125 0.7413635 0.6125 0.7375 0.6198461 0.7375 0.6164882 0.7414659 0.6163634 0.7375 0.6301539 0.7375 0.6196768 0.7413367 0.6198461 0.7375 0.6164882 0.7414659 0.6125 0.7448461 0.6125 0.7413635 0.6164882 0.7414659 0.619114 0.7441139 0.6163465 0.7446832 0.6303168 0.7413465 0.619114 0.7441139 0.6196768 0.7413367 0.630886 0.7441139 0.630886 0.75 0.625 0.744114 0.3625 0.5086365 0.3663634 0.5125 0.3625 0.5125 0.3625 0.5051539 0.3664659 0.5085119 0.3625 0.5086365 0.3625 0.5 0.3663366 0.5053232 0.3625 0.5051539 0.3664659 0.5085119 0.3698461 0.5125 0.3663634 0.5125 0.3664659 0.5085119 0.3691139 0.505886 0.3696832 0.5086535 0.3663465 0.5 0.3691139 0.505886 0.3663366 0.5053232 0.3875 0.4913634 0.3836365 0.4875 0.3875 0.4875 0.3875 0.4948461 0.3835341 0.4914882 0.3875 0.4913634 0.3875 0.505154 0.3836634 0.4946768 0.3875 0.4948461 0.3835341 0.4914882 0.3801539 0.4875 0.3836365 0.4875 0.3835341 0.4914882 0.380886 0.494114 0.3803168 0.4913465 0.3836535 0.5053168 0.380886 0.494114 0.3836634 0.4946768 0.3836365 0.5125001 0.3875 0.5086365 0.3875 0.5125 0.3801539 0.5125 0.3835119 0.5085341 0.3836365 0.5125001 0.3698461 0.5125 0.3803232 0.5086634 0.3801539 0.5125 0.3835119 0.5085341 0.3875 0.505154 0.3875 0.5086365 0.3835119 0.5085341 0.380886 0.505886 0.3836535 0.5053168 0.3696832 0.5086535 0.380886 0.505886 0.3803232 0.5086634 0.3691139 0.505886 0.369114 0.5 0.375 0.505886 0.6336366 0.5125001 0.6375 0.5086365 0.6375 0.5125 0.6301538 0.5125 0.6335118 0.5085341 0.6336366 0.5125001 0.6198461 0.5125 0.6303232 0.5086634 0.6301538 0.5125 0.6335118 0.5085341 0.6375 0.505154 0.6375 0.5086365 0.6335118 0.5085341 0.630886 0.505886 0.6336535 0.5053168 0.6196832 0.5086535 0.630886 0.505886 0.6303232 0.5086634 0.6125 0.5086365 0.6163635 0.5125 0.6125 0.5125 0.6125 0.5051539 0.6164658 0.5085119 0.6125 0.5086365 0.6125 0.4948461 0.6163366 0.5053232 0.6125 0.5051539 0.6164658 0.5085119 0.6198461 0.5125 0.6163635 0.5125 0.6164658 0.5085119 0.6191139 0.505886 0.6196832 0.5086535 0.6163465 0.4946832 0.6191139 0.505886 0.6163366 0.5053232 0.6163634 0.4875 0.6125 0.4913634 0.6125 0.4875 0.6198461 0.4875 0.6164882 0.4914658 0.6163634 0.4875 0.625 0.4875 0.6196768 0.4913366 0.6198461 0.4875 0.6164882 0.4914658 0.6125 0.4948461 0.6125 0.4913634 0.6164882 0.4914658 0.619114 0.494114 0.6163465 0.4946832 0.625 0.4913465 0.619114 0.494114 0.6196768 0.4913366 0.630886 0.505886 0.625 0.505886 0.630886 0.5 0.1375 0.7375 0.1336365 0.5125001 0.1375 0.5125 0.1336365 0.7375 0.1301539 0.5125 0.1336365 0.5125001 0.1301539 0.7375 0.125 0.5125 0.1301539 0.5125 0.3801539 0.01249998 0.3836365 0.2375 0.3801539 0.2375 0.3836365 0.01249998 0.3875 0.2375 0.3836365 0.2375 0.6125 0.9875 0.3875 0.9913634 0.3875 0.9875 0.6125 0.9913635 0.3875 0.9948461 0.3875 0.9913634 0.6125 0.9948461 0.3875 1 0.3875 0.9948461 0.6125 0.005153894 0.3875 0.008636534 0.3875 0.005153894 0.6125 0.008636534 0.3875 0.01249998 0.3875 0.008636534 0.8625 0.5125 0.8663634 0.7375 0.8625 0.7375 0.8663634 0.5125 0.8698461 0.7375 0.8663634 0.7375 0.8698461 0.5125 0.875 0.7375 0.8698461 0.7375 0.6198461 0.2375 0.6163635 0.01249998 0.6198461 0.01249998 0.6163634 0.2375 0.6125 0.01249998 0.6163635 0.01249998 0.3875 0.2625 0.6125 0.2586365 0.6125 0.2625 0.3875 0.2586365 0.6125 0.2551539 0.6125 0.2586365 0.3875 0.2551539 0.6125 0.2448461 0.6125 0.2551539 0.3875 0.2448461 0.6125 0.2413634 0.6125 0.2448461 0.3875 0.2413634 0.6125 0.2375 0.6125 0.2413634 0.1375 0.5125 0.3625 0.5086365 0.3625 0.5125 0.1375 0.5086365 0.3625 0.5051539 0.3625 0.5086365 0.1375 0.505154 0.3625 0.5 0.3625 0.5051539 0.3801539 0.2625 0.3836365 0.4875 0.3801539 0.4875 0.3836365 0.2625 0.3875 0.4875 0.3836365 0.4875 0.6375 0.5125 0.8625 0.5086365 0.8625 0.5125 0.6375 0.5086365 0.8625 0.5051539 0.8625 0.5086365 0.6375 0.505154 0.8625 0.5 0.8625 0.5051539 0.6198461 0.4875 0.6163635 0.2625 0.6198461 0.2625 0.6163634 0.4875 0.6125 0.2625 0.6163635 0.2625 0.3875 0.5125 0.6125 0.5086365 0.6125 0.5125 0.3875 0.5086365 0.6125 0.5051539 0.6125 0.5086365 0.3875 0.505154 0.6125 0.4948461 0.6125 0.5051539 0.3875 0.4948461 0.6125 0.4913634 0.6125 0.4948461 0.3875 0.4913634 0.6125 0.4875 0.6125 0.4913634 0.3625 0.5125 0.3663634 0.7375 0.3625 0.7375 0.3663634 0.5125 0.3698461 0.7375 0.3663634 0.7375 0.3698461 0.5125 0.3801539 0.7375 0.3698461 0.7375 0.3801539 0.5125 0.3836365 0.7375 0.3801539 0.7375 0.3836365 0.5125001 0.3875 0.7375 0.3836365 0.7375 0.6375 0.7375 0.6336366 0.5125001 0.6375 0.5125 0.6336366 0.7375 0.6301538 0.5125 0.6336366 0.5125001 0.6301539 0.7375 0.6198461 0.5125 0.6301538 0.5125 0.6198461 0.7375 0.6163635 0.5125 0.6198461 0.5125 0.6163634 0.7375 0.6125 0.5125 0.6163635 0.5125 0.3875 0.7625 0.6125 0.7586365 0.6125 0.7625 0.3875 0.7586366 0.6125 0.7551539 0.6125 0.7586365 0.3875 0.7551539 0.6125 0.7448461 0.6125 0.7551539 0.3875 0.7448461 0.6125 0.7413635 0.6125 0.7448461 0.3875 0.7413634 0.6125 0.7375 0.6125 0.7413635 0.3625 0.7375 0.1374999 0.7413634 0.1375 0.7375 0.3625 0.7413635 0.1375 0.7448461 0.1374999 0.7413634 0.3625 0.7448461 0.1375 0.75 0.1375 0.7448461 0.3801539 0.7625 0.3836365 0.9875 0.3801539 0.9875 0.3836365 0.7625001 0.3875 0.9875 0.3836365 0.9875 0.8625 0.7375 0.6375 0.7413634 0.6375 0.7375 0.8625 0.7413635 0.6375 0.7448461 0.6375 0.7413634 0.8625 0.7448461 0.6375 0.75 0.6375 0.7448461 0.6198461 0.9875 0.6163635 0.7625 0.6198461 0.7625 0.6163634 0.9875 0.6125 0.7625 0.6163635 0.7625 0.3625 0.5125 0.1375 0.7375 0.1375 0.5125 0.6125 0.7625 0.6125 0.9875 0.3875 0.9875 0.6125 0.5125 0.6125 0.7375 0.3875 0.7375 0.8625 0.5125 0.8625 0.7375 0.6375 0.7375 0.6125 0.01249998 0.6125 0.2375 0.3875 0.2375 0.6125 0.2625 0.6125 0.4875 0.3875 0.4875 0.1374999 0.7413634 0.1335341 0.7414882 0.1336365 0.7375 0.1375 0.7448461 0.1336634 0.7446769 0.1335341 0.7414882 0.1375 0.75 0.1336535 0.75 0.1336634 0.7446769 0.1335341 0.7414882 0.1303168 0.7413465 0.1301539 0.7375 0.1335341 0.7414882 0.1336634 0.7446769 0.130886 0.7441139 0.1336535 0.75 0.130886 0.75 0.130886 0.7441139 0.3875 0.9913634 0.3835341 0.9914882 0.3836365 0.9875 0.3875 0.9948461 0.3836634 0.9946769 0.3835341 0.9914882 0.3875 1 0.3836535 1 0.3836634 0.9946769 0.3835341 0.9914882 0.3803168 0.9913465 0.3801539 0.9875 0.3835341 0.9914882 0.3836634 0.9946769 0.380886 0.9941139 0.3836535 1 0.380886 1 0.380886 0.9941139 0.3836365 0.01249998 0.3835119 0.008534133 0.3875 0.008636534 0.3801539 0.01249998 0.3803232 0.008663356 0.3835119 0.008534133 0.375 0.01249998 0.375 0.008653461 0.3803232 0.008663356 0.3835119 0.008534133 0.3836535 0.005316793 0.3875 0.005153894 0.3835119 0.008534133 0.3803232 0.008663356 0.380886 0.005886018 0.375 0.008653461 0.375 0.005886018 0.380886 0.005886018 0.6163634 0.9875 0.6164882 0.9914659 0.6125 0.9913635 0.6198461 0.9875 0.6196768 0.9913366 0.6164882 0.9914659 0.625 0.9875 0.625 0.9913465 0.6196768 0.9913366 0.6164882 0.9914659 0.6163465 0.9946832 0.6125 0.9948461 0.6164882 0.9914659 0.6196768 0.9913366 0.619114 0.994114 0.625 0.9913465 0.625 0.994114 0.619114 0.994114 0.8663634 0.7375 0.8664882 0.7414659 0.8625 0.7413635 0.8698461 0.7375 0.8696768 0.7413367 0.8664882 0.7414659 0.875 0.7375 0.875 0.7413465 0.8696768 0.7413367 0.8664882 0.7414659 0.8663464 0.7446832 0.8625 0.7448461 0.8664882 0.7414659 0.8696768 0.7413367 0.8691139 0.7441139 0.875 0.7413465 0.875 0.744114 0.8691139 0.7441139 0.6125 0.008636534 0.6164658 0.008511781 0.6163635 0.01249998 0.6125 0.005153894 0.6163366 0.005323171 0.6164658 0.008511781 0.6125 0 0.6163465 0 0.6163366 0.005323171 0.6164658 0.008511781 0.6196832 0.008653461 0.6198461 0.01249998 0.6164658 0.008511781 0.6163366 0.005323171 0.6191139 0.005886018 0.6163465 0 0.6191139 0 0.6191139 0.005886018 0.1336365 0.5125001 0.1335118 0.5085341 0.1375 0.5086365 0.1301539 0.5125 0.1303232 0.5086634 0.1335118 0.5085341 0.125 0.5125 0.125 0.5086535 0.1303232 0.5086634 0.1335118 0.5085341 0.1336535 0.5053168 0.1375 0.505154 0.1335118 0.5085341 0.1303232 0.5086634 0.130886 0.505886 0.125 0.5086535 0.125 0.505886 0.130886 0.505886 0.3875 0.2413634 0.3835341 0.2414882 0.3836365 0.2375 0.3875 0.2448461 0.3836634 0.2446768 0.3835341 0.2414882 0.3875 0.2551539 0.3836535 0.2553168 0.3836634 0.2446768 0.3835341 0.2414882 0.3803168 0.2413465 0.3801539 0.2375 0.3835341 0.2414882 0.3836634 0.2446768 0.380886 0.2441139 0.3836535 0.2553168 0.380886 0.255886 0.380886 0.2441139 0.3836365 0.2625 0.3835119 0.2585341 0.3875 0.2586365 0.3801539 0.2625 0.3803232 0.2586634 0.3835119 0.2585341 0.375 0.2625 0.375 0.2586535 0.3803232 0.2586634 0.3835119 0.2585341 0.3836535 0.2553168 0.3875 0.2551539 0.3835119 0.2585341 0.3803232 0.2586634 0.380886 0.255886 0.375 0.2586535 0.375 0.255886 0.380886 0.255886 0.8625 0.5086365 0.8664659 0.5085119 0.8663634 0.5125 0.8625 0.5051539 0.8663366 0.5053232 0.8664659 0.5085119 0.8625 0.5 0.8663465 0.5 0.8663366 0.5053232 0.8664659 0.5085119 0.8696832 0.5086535 0.8698461 0.5125 0.8664659 0.5085119 0.8663366 0.5053232 0.8691139 0.505886 0.8663465 0.5 0.8691141 0.5 0.8691139 0.505886 0.6125 0.2586365 0.6164658 0.2585118 0.6163635 0.2625 0.6125 0.2551539 0.6163366 0.2553232 0.6164658 0.2585118 0.6125 0.2448461 0.6163465 0.2446832 0.6163366 0.2553232 0.6164658 0.2585118 0.6196832 0.2586535 0.6198461 0.2625 0.6164658 0.2585118 0.6163366 0.2553232 0.6191139 0.255886 0.6163465 0.2446832 0.619114 0.2441139 0.6191139 0.255886 0.6163634 0.2375 0.6164882 0.2414658 0.6125 0.2413634 0.6198461 0.2375 0.6196768 0.2413365 0.6164882 0.2414658 0.625 0.2375 0.625 0.2413465 0.6196768 0.2413365 0.6164882 0.2414658 0.6163465 0.2446832 0.6125 0.2448461 0.6164882 0.2414658 0.6196768 0.2413365 0.619114 0.2441139 0.625 0.2413465 0.625 0.2441139 0.619114 0.2441139 0.3663634 0.7375 0.3664882 0.7414659 0.3625 0.7413635 0.3698461 0.7375 0.3696768 0.7413367 0.3664882 0.7414659 0.3801539 0.7375 0.3803168 0.7413465 0.3696768 0.7413367 0.3664882 0.7414659 0.3663465 0.7446832 0.3625 0.7448461 0.3664882 0.7414659 0.3696768 0.7413367 0.3691139 0.7441139 0.3803168 0.7413465 0.380886 0.7441139 0.3691139 0.7441139 0.3875 0.7413634 0.3835341 0.7414882 0.3836365 0.7375 0.3875 0.7448461 0.3836634 0.7446769 0.3835341 0.7414882 0.3875 0.7551539 0.3836535 0.7553168 0.3836634 0.7446769 0.3835341 0.7414882 0.3803168 0.7413465 0.3801539 0.7375 0.3835341 0.7414882 0.3836634 0.7446769 0.380886 0.7441139 0.3836535 0.7553168 0.380886 0.755886 0.380886 0.7441139 0.3836365 0.7625001 0.3835119 0.7585342 0.3875 0.7586366 0.3801539 0.7625 0.3803232 0.7586634 0.3835119 0.7585342 0.375 0.7625 0.375 0.7586535 0.3803232 0.7586634 0.3835119 0.7585342 0.3836535 0.7553168 0.3875 0.7551539 0.3835119 0.7585342 0.3803232 0.7586634 0.380886 0.755886 0.375 0.7586535 0.375 0.755886 0.380886 0.755886 0.6375 0.7413634 0.6335341 0.7414882 0.6336366 0.7375 0.6375 0.7448461 0.6336635 0.7446769 0.6335341 0.7414882 0.6375 0.75 0.6336535 0.75 0.6336635 0.7446769 0.6335341 0.7414882 0.6303168 0.7413465 0.6301539 0.7375 0.6335341 0.7414882 0.6336635 0.7446769 0.630886 0.7441139 0.6336535 0.75 0.630886 0.75 0.630886 0.7441139 0.6125 0.7586365 0.6164658 0.7585119 0.6163635 0.7625 0.6125 0.7551539 0.6163366 0.7553232 0.6164658 0.7585119 0.6125 0.7448461 0.6163465 0.7446832 0.6163366 0.7553232 0.6164658 0.7585119 0.6196832 0.7586535 0.6198461 0.7625 0.6164658 0.7585119 0.6163366 0.7553232 0.6191139 0.755886 0.6163465 0.7446832 0.619114 0.7441139 0.6191139 0.755886 0.6163634 0.7375 0.6164882 0.7414659 0.6125 0.7413635 0.6198461 0.7375 0.6196768 0.7413367 0.6164882 0.7414659 0.6301539 0.7375 0.6303168 0.7413465 0.6196768 0.7413367 0.6164882 0.7414659 0.6163465 0.7446832 0.6125 0.7448461 0.6164882 0.7414659 0.6196768 0.7413367 0.619114 0.7441139 0.6303168 0.7413465 0.630886 0.7441139 0.619114 0.7441139 0.3625 0.5086365 0.3664659 0.5085119 0.3663634 0.5125 0.3625 0.5051539 0.3663366 0.5053232 0.3664659 0.5085119 0.3625 0.5 0.3663465 0.5 0.3663366 0.5053232 0.3664659 0.5085119 0.3696832 0.5086535 0.3698461 0.5125 0.3664659 0.5085119 0.3663366 0.5053232 0.3691139 0.505886 0.3663465 0.5 0.369114 0.5 0.3691139 0.505886 0.3875 0.4913634 0.3835341 0.4914882 0.3836365 0.4875 0.3875 0.4948461 0.3836634 0.4946768 0.3835341 0.4914882 0.3875 0.505154 0.3836535 0.5053168 0.3836634 0.4946768 0.3835341 0.4914882 0.3803168 0.4913465 0.3801539 0.4875 0.3835341 0.4914882 0.3836634 0.4946768 0.380886 0.494114 0.3836535 0.5053168 0.380886 0.505886 0.380886 0.494114 0.3836365 0.5125001 0.3835119 0.5085341 0.3875 0.5086365 0.3801539 0.5125 0.3803232 0.5086634 0.3835119 0.5085341 0.3698461 0.5125 0.3696832 0.5086535 0.3803232 0.5086634 0.3835119 0.5085341 0.3836535 0.5053168 0.3875 0.505154 0.3835119 0.5085341 0.3803232 0.5086634 0.380886 0.505886 0.3696832 0.5086535 0.3691139 0.505886 0.380886 0.505886 0.6336366 0.5125001 0.6335118 0.5085341 0.6375 0.5086365 0.6301538 0.5125 0.6303232 0.5086634 0.6335118 0.5085341 0.6198461 0.5125 0.6196832 0.5086535 0.6303232 0.5086634 0.6335118 0.5085341 0.6336535 0.5053168 0.6375 0.505154 0.6335118 0.5085341 0.6303232 0.5086634 0.630886 0.505886 0.6196832 0.5086535 0.6191139 0.505886 0.630886 0.505886 0.6125 0.5086365 0.6164658 0.5085119 0.6163635 0.5125 0.6125 0.5051539 0.6163366 0.5053232 0.6164658 0.5085119 0.6125 0.4948461 0.6163465 0.4946832 0.6163366 0.5053232 0.6164658 0.5085119 0.6196832 0.5086535 0.6198461 0.5125 0.6164658 0.5085119 0.6163366 0.5053232 0.6191139 0.505886 0.6163465 0.4946832 0.619114 0.494114 0.6191139 0.505886 0.6163634 0.4875 0.6164882 0.4914658 0.6125 0.4913634 0.6198461 0.4875 0.6196768 0.4913366 0.6164882 0.4914658 0.625 0.4875 0.625 0.4913465 0.6196768 0.4913366 0.6164882 0.4914658 0.6163465 0.4946832 0.6125 0.4948461 0.6164882 0.4914658 0.6196768 0.4913366 0.619114 0.494114 0.625 0.4913465 0.625 0.494114 0.619114 0.494114 0.1375 0.7375 0.1336365 0.7375 0.1336365 0.5125001 0.1336365 0.7375 0.1301539 0.7375 0.1301539 0.5125 0.1301539 0.7375 0.125 0.7375 0.125 0.5125 0.3801539 0.01249998 0.3836365 0.01249998 0.3836365 0.2375 0.3836365 0.01249998 0.3875 0.01249998 0.3875 0.2375 0.6125 0.9875 0.6125 0.9913635 0.3875 0.9913634 0.6125 0.9913635 0.6125 0.9948461 0.3875 0.9948461 0.6125 0.9948461 0.6125 1 0.3875 1 0.6125 0.005153894 0.6125 0.008636534 0.3875 0.008636534 0.6125 0.008636534 0.6125 0.01249998 0.3875 0.01249998 0.8625 0.5125 0.8663634 0.5125 0.8663634 0.7375 0.8663634 0.5125 0.8698461 0.5125 0.8698461 0.7375 0.8698461 0.5125 0.875 0.5125 0.875 0.7375 0.6198461 0.2375 0.6163634 0.2375 0.6163635 0.01249998 0.6163634 0.2375 0.6125 0.2375 0.6125 0.01249998 0.3875 0.2625 0.3875 0.2586365 0.6125 0.2586365 0.3875 0.2586365 0.3875 0.2551539 0.6125 0.2551539 0.3875 0.2551539 0.3875 0.2448461 0.6125 0.2448461 0.3875 0.2448461 0.3875 0.2413634 0.6125 0.2413634 0.3875 0.2413634 0.3875 0.2375 0.6125 0.2375 0.1375 0.5125 0.1375 0.5086365 0.3625 0.5086365 0.1375 0.5086365 0.1375 0.505154 0.3625 0.5051539 0.1375 0.505154 0.1375 0.5 0.3625 0.5 0.3801539 0.2625 0.3836365 0.2625 0.3836365 0.4875 0.3836365 0.2625 0.3875 0.2625 0.3875 0.4875 0.6375 0.5125 0.6375 0.5086365 0.8625 0.5086365 0.6375 0.5086365 0.6375 0.505154 0.8625 0.5051539 0.6375 0.505154 0.6375 0.5 0.8625 0.5 0.6198461 0.4875 0.6163634 0.4875 0.6163635 0.2625 0.6163634 0.4875 0.6125 0.4875 0.6125 0.2625 0.3875 0.5125 0.3875 0.5086365 0.6125 0.5086365 0.3875 0.5086365 0.3875 0.505154 0.6125 0.5051539 0.3875 0.505154 0.3875 0.4948461 0.6125 0.4948461 0.3875 0.4948461 0.3875 0.4913634 0.6125 0.4913634 0.3875 0.4913634 0.3875 0.4875 0.6125 0.4875 0.3625 0.5125 0.3663634 0.5125 0.3663634 0.7375 0.3663634 0.5125 0.3698461 0.5125 0.3698461 0.7375 0.3698461 0.5125 0.3801539 0.5125 0.3801539 0.7375 0.3801539 0.5125 0.3836365 0.5125001 0.3836365 0.7375 0.3836365 0.5125001 0.3875 0.5125 0.3875 0.7375 0.6375 0.7375 0.6336366 0.7375 0.6336366 0.5125001 0.6336366 0.7375 0.6301539 0.7375 0.6301538 0.5125 0.6301539 0.7375 0.6198461 0.7375 0.6198461 0.5125 0.6198461 0.7375 0.6163634 0.7375 0.6163635 0.5125 0.6163634 0.7375 0.6125 0.7375 0.6125 0.5125 0.3875 0.7625 0.3875 0.7586366 0.6125 0.7586365 0.3875 0.7586366 0.3875 0.7551539 0.6125 0.7551539 0.3875 0.7551539 0.3875 0.7448461 0.6125 0.7448461 0.3875 0.7448461 0.3875 0.7413634 0.6125 0.7413635 0.3875 0.7413634 0.3875 0.7375 0.6125 0.7375 0.3625 0.7375 0.3625 0.7413635 0.1374999 0.7413634 0.3625 0.7413635 0.3625 0.7448461 0.1375 0.7448461 0.3625 0.7448461 0.3625 0.75 0.1375 0.75 0.3801539 0.7625 0.3836365 0.7625001 0.3836365 0.9875 0.3836365 0.7625001 0.3875 0.7625 0.3875 0.9875 0.8625 0.7375 0.8625 0.7413635 0.6375 0.7413634 0.8625 0.7413635 0.8625 0.7448461 0.6375 0.7448461 0.8625 0.7448461 0.8625 0.75 0.6375 0.75 0.6198461 0.9875 0.6163634 0.9875 0.6163635 0.7625 0.6163634 0.9875 0.6125 0.9875 0.6125 0.7625 0.3625 0.5125 0.3625 0.7375 0.1375 0.7375</float_array>
          <technique_common>
            <accessor source="#Cube_040-mesh-map-0-array" count="1284" stride="2">
              <param name="S" type="float"/>
              <param name="T" type="float"/>
            </accessor>
          </technique_common>
        </source>
        <vertices id="Cube_040-mesh-vertices">
          <input semantic="POSITION" source="#Cube_040-mesh-positions"/>
        </vertices>
        <triangles material="Material_008-material" count="428">
          <input semantic="VERTEX" source="#Cube_040-mesh-vertices" offset="0"/>
          <input semantic="NORMAL" source="#Cube_040-mesh-normals" offset="1"/>
          <input semantic="TEXCOORD" source="#Cube_040-mesh-map-0" offset="2" set="0"/>
          <p>136 0 0 1 0 1 110 0 2 190 1 3 109 1 4 164 1 5 81 2 6 135 2 7 189 2 8 29 3 9 55 3 10 2 3 11 82 4 12 163 4 13 56 4 14 3 5 15 5 5 16 0 5 17 4 6 18 6 6 19 3 6 20 16 7 21 7 7 22 4 7 23 6 8 24 8 8 25 5 8 26 6 9 27 10 9 28 9 9 29 17 10 30 10 10 31 7 10 32 11 11 33 13 11 34 1 11 35 12 12 36 14 12 37 11 12 38 24 13 39 15 13 40 12 13 41 14 14 42 16 14 43 13 14 44 14 15 45 18 15 46 17 15 47 25 16 48 18 16 49 15 16 50 19 17 51 21 17 52 2 17 53 20 18 54 22 18 55 19 18 56 8 19 57 23 19 58 20 19 59 22 20 60 24 20 61 21 20 62 22 21 63 26 21 64 25 21 65 9 22 66 26 22 67 23 22 68 10 23 69 18 23 70 26 23 71 30 24 72 32 24 73 27 24 74 31 25 75 33 25 76 30 25 77 43 26 78 34 26 79 31 26 80 33 27 81 35 27 82 32 27 83 33 28 84 37 28 85 36 28 86 44 29 87 37 29 88 34 29 89 38 30 90 40 30 91 28 30 92 39 31 93 41 31 94 38 31 95 51 32 96 42 32 97 39 32 98 41 33 99 43 33 100 40 33 101 41 34 102 45 34 103 44 34 104 52 35 105 45 35 106 42 35 107 46 36 108 48 36 109 29 36 110 47 37 111 49 37 112 46 37 113 35 38 114 50 38 115 47 38 116 49 39 117 51 39 118 48 39 119 49 40 120 53 40 121 52 40 122 36 41 123 53 41 124 50 41 125 37 42 126 45 42 127 53 42 128 57 43 129 59 43 130 54 43 131 58 44 132 60 44 133 57 44 134 70 45 135 61 45 136 58 45 137 60 46 138 62 46 139 59 46 140 60 47 141 64 47 142 63 47 143 71 48 144 64 48 145 61 48 146 65 49 147 67 49 148 55 49 149 66 50 150 68 50 151 65 50 152 78 51 153 69 51 154 66 51 155 68 52 156 70 52 157 67 52 158 68 53 159 72 53 160 71 53 161 79 54 162 72 54 163 69 54 164 73 55 165 75 55 166 56 55 167 74 56 168 76 56 169 73 56 170 62 57 171 77 57 172 74 57 173 76 58 174 78 58 175 75 58 176 76 59 177 80 59 178 79 59 179 63 60 180 80 60 181 77 60 182 64 61 183 72 61 184 80 61 185 84 62 186 86 62 187 81 62 188 85 63 189 87 63 190 84 63 191 97 64 192 88 64 193 85 64 194 87 65 195 89 65 196 86 65 197 87 66 198 91 66 199 90 66 200 98 67 201 91 67 202 88 67 203 92 68 204 94 68 205 82 68 206 93 69 207 95 69 208 92 69 209 105 70 210 96 70 211 93 70 212 95 71 213 97 71 214 94 71 215 95 72 216 99 72 217 98 72 218 106 73 219 99 73 220 96 73 221 100 74 222 102 74 223 83 74 224 101 75 225 103 75 226 100 75 227 89 76 228 104 76 229 101 76 230 103 77 231 105 77 232 102 77 233 103 78 234 107 78 235 106 78 236 90 79 237 107 79 238 104 79 239 91 80 240 99 80 241 107 80 242 111 81 243 113 81 244 108 81 245 112 82 246 114 82 247 111 82 248 124 83 249 115 83 250 112 83 251 114 84 252 116 84 253 113 84 254 114 85 255 118 85 256 117 85 257 125 86 258 118 86 259 115 86 260 119 87 261 121 87 262 109 87 263 120 88 264 122 88 265 119 88 266 132 89 267 123 89 268 120 89 269 122 90 270 124 90 271 121 90 272 122 91 273 126 91 274 125 91 275 133 92 276 126 92 277 123 92 278 127 93 279 129 93 280 110 93 281 128 94 282 130 94 283 127 94 284 116 95 285 131 95 286 128 95 287 130 96 288 132 96 289 129 96 290 130 97 291 134 97 292 133 97 293 117 98 294 134 98 295 131 98 296 118 99 297 126 99 298 134 99 299 138 100 300 140 100 301 135 100 302 139 101 303 141 101 304 138 101 305 151 102 306 142 102 307 139 102 308 141 103 309 143 103 310 140 103 311 141 104 312 145 104 313 144 104 314 152 105 315 145 105 316 142 105 317 146 106 318 148 106 319 136 106 320 147 107 321 149 107 322 146 107 323 159 108 324 150 108 325 147 108 326 149 109 327 151 109 328 148 109 329 149 110 330 153 110 331 152 110 332 160 111 333 153 111 334 150 111 335 154 112 336 156 112 337 137 112 338 155 113 339 157 113 340 154 113 341 143 114 342 158 114 343 155 114 344 157 115 345 159 115 346 156 115 347 157 116 348 161 116 349 160 116 350 144 117 351 161 117 352 158 117 353 145 118 354 153 118 355 161 118 356 165 119 357 167 119 358 162 119 359 166 120 360 168 120 361 165 120 362 178 121 363 169 121 364 166 121 365 168 122 366 170 122 367 167 122 368 168 123 369 172 123 370 171 123 371 179 124 372 172 124 373 169 124 374 173 125 375 175 125 376 163 125 377 174 126 378 176 126 379 173 126 380 186 127 381 177 127 382 174 127 383 176 128 384 178 128 385 175 128 386 176 129 387 180 129 388 179 129 389 187 130 390 180 130 391 177 130 392 181 131 393 183 131 394 164 131 395 182 132 396 184 132 397 181 132 398 170 133 399 185 133 400 182 133 401 184 134 402 186 134 403 183 134 404 184 135 405 188 135 406 187 135 407 171 136 408 188 136 409 185 136 410 172 137 411 180 137 412 188 137 413 192 138 414 194 138 415 189 138 416 193 139 417 195 139 418 192 139 419 205 140 420 196 140 421 193 140 422 195 141 423 197 141 424 194 141 425 195 142 426 199 142 427 198 142 428 206 143 429 199 143 430 196 143 431 200 144 432 202 144 433 190 144 434 201 145 435 203 145 436 200 145 437 213 146 438 204 146 439 201 146 440 203 147 441 205 147 442 202 147 443 203 148 444 207 148 445 206 148 446 214 149 447 207 149 448 204 149 449 208 150 450 210 150 451 191 150 452 209 151 453 211 151 454 208 151 455 197 152 456 212 152 457 209 152 458 211 153 459 213 153 460 210 153 461 211 154 462 215 154 463 214 154 464 198 155 465 215 155 466 212 155 467 199 156 468 207 156 469 215 156 470 0 157 471 57 157 472 54 157 473 5 158 474 58 158 475 57 158 476 8 159 477 70 159 478 58 159 479 20 160 480 67 160 481 70 160 482 19 161 483 55 161 484 67 161 485 27 162 486 11 162 487 1 162 488 32 163 489 12 163 490 11 163 491 35 164 492 24 164 493 12 164 494 47 165 495 21 165 496 24 165 497 46 166 498 2 166 499 21 166 500 81 167 501 38 167 502 28 167 503 86 168 504 39 168 505 38 168 506 89 169 507 51 169 508 39 169 509 101 170 510 48 170 511 51 170 512 100 171 513 29 171 514 48 171 515 56 172 516 92 172 517 82 172 518 75 173 519 93 173 520 92 173 521 78 174 522 105 174 523 93 174 524 66 175 525 102 175 526 105 175 527 65 176 528 83 176 529 102 176 530 54 177 531 165 177 532 162 177 533 59 178 534 166 178 535 165 178 536 62 179 537 178 179 538 166 179 539 74 180 540 175 180 541 178 180 542 73 181 543 163 181 544 175 181 545 189 182 546 84 182 547 81 182 548 194 183 549 85 183 550 84 183 551 197 184 552 97 184 553 85 184 554 209 185 555 94 185 556 97 185 557 208 186 558 82 186 559 94 186 560 164 187 561 200 187 562 190 187 563 183 188 564 201 188 565 200 188 566 186 189 567 213 189 568 201 189 569 174 190 570 210 190 571 213 190 572 173 191 573 191 191 574 210 191 575 162 192 576 111 192 577 108 192 578 167 193 579 112 193 580 111 193 581 170 194 582 124 194 583 112 194 584 182 195 585 121 195 586 124 195 587 181 196 588 109 196 589 121 196 590 135 197 591 192 197 592 189 197 593 140 198 594 193 198 595 192 198 596 143 199 597 205 199 598 193 199 599 155 200 600 202 200 601 205 200 602 154 201 603 190 201 604 202 201 605 110 202 606 146 202 607 136 202 608 129 203 609 147 203 610 146 203 611 132 204 612 159 204 613 147 204 614 120 205 615 156 205 616 159 205 617 119 206 618 137 206 619 156 206 620 108 207 621 3 207 622 0 207 623 113 208 624 4 208 625 3 208 626 116 209 627 16 209 628 4 209 629 128 210 630 13 210 631 16 210 632 127 211 633 1 211 634 13 211 635 28 212 636 138 212 637 135 212 638 40 213 639 139 213 640 138 213 641 43 214 642 151 214 643 139 214 644 31 215 645 148 215 646 151 215 647 30 216 648 136 216 649 148 216 650 162 217 651 0 217 652 54 217 653 136 218 654 27 218 655 1 218 656 190 219 657 137 219 658 109 219 659 81 220 660 28 220 661 135 220 662 29 221 663 83 221 664 55 221 665 82 222 666 191 222 667 163 222 668 3 223 669 6 223 670 5 223 671 4 224 672 7 224 673 6 224 674 16 225 675 17 225 676 7 225 677 6 226 678 9 226 679 8 226 680 6 227 681 7 227 682 10 227 683 17 228 684 18 228 685 10 228 686 11 229 687 14 229 688 13 229 689 12 230 690 15 230 691 14 230 692 24 231 693 25 231 694 15 231 695 14 232 696 17 232 697 16 232 698 14 233 699 15 233 700 18 233 701 25 234 702 26 234 703 18 234 704 19 235 705 22 235 706 21 235 707 20 236 708 23 236 709 22 236 710 8 237 711 9 237 712 23 237 713 22 238 714 25 238 715 24 238 716 22 239 717 23 239 718 26 239 719 9 240 720 10 240 721 26 240 722 30 241 723 33 241 724 32 241 725 31 242 726 34 242 727 33 242 728 43 243 729 44 243 730 34 243 731 33 244 732 36 244 733 35 244 734 33 245 735 34 245 736 37 245 737 44 246 738 45 246 739 37 246 740 38 247 741 41 247 742 40 247 743 39 248 744 42 248 745 41 248 746 51 249 747 52 249 748 42 249 749 41 250 750 44 250 751 43 250 752 41 251 753 42 251 754 45 251 755 52 252 756 53 252 757 45 252 758 46 253 759 49 253 760 48 253 761 47 254 762 50 254 763 49 254 764 35 255 765 36 255 766 50 255 767 49 256 768 52 256 769 51 256 770 49 257 771 50 257 772 53 257 773 36 258 774 37 258 775 53 258 776 57 259 777 60 259 778 59 259 779 58 260 780 61 260 781 60 260 782 70 261 783 71 261 784 61 261 785 60 262 786 63 262 787 62 262 788 60 263 789 61 263 790 64 263 791 71 264 792 72 264 793 64 264 794 65 265 795 68 265 796 67 265 797 66 266 798 69 266 799 68 266 800 78 267 801 79 267 802 69 267 803 68 268 804 71 268 805 70 268 806 68 269 807 69 269 808 72 269 809 79 270 810 80 270 811 72 270 812 73 271 813 76 271 814 75 271 815 74 272 816 77 272 817 76 272 818 62 273 819 63 273 820 77 273 821 76 274 822 79 274 823 78 274 824 76 275 825 77 275 826 80 275 827 63 276 828 64 276 829 80 276 830 84 277 831 87 277 832 86 277 833 85 278 834 88 278 835 87 278 836 97 279 837 98 279 838 88 279 839 87 280 840 90 280 841 89 280 842 87 281 843 88 281 844 91 281 845 98 282 846 99 282 847 91 282 848 92 283 849 95 283 850 94 283 851 93 284 852 96 284 853 95 284 854 105 285 855 106 285 856 96 285 857 95 286 858 98 286 859 97 286 860 95 287 861 96 287 862 99 287 863 106 288 864 107 288 865 99 288 866 100 289 867 103 289 868 102 289 869 101 290 870 104 290 871 103 290 872 89 291 873 90 291 874 104 291 875 103 292 876 106 292 877 105 292 878 103 293 879 104 293 880 107 293 881 90 294 882 91 294 883 107 294 884 111 295 885 114 295 886 113 295 887 112 296 888 115 296 889 114 296 890 124 297 891 125 297 892 115 297 893 114 298 894 117 298 895 116 298 896 114 299 897 115 299 898 118 299 899 125 300 900 126 300 901 118 300 902 119 301 903 122 301 904 121 301 905 120 302 906 123 302 907 122 302 908 132 303 909 133 303 910 123 303 911 122 304 912 125 304 913 124 304 914 122 305 915 123 305 916 126 305 917 133 306 918 134 306 919 126 306 920 127 307 921 130 307 922 129 307 923 128 308 924 131 308 925 130 308 926 116 309 927 117 309 928 131 309 929 130 310 930 133 310 931 132 310 932 130 311 933 131 311 934 134 311 935 117 312 936 118 312 937 134 312 938 138 313 939 141 313 940 140 313 941 139 314 942 142 314 943 141 314 944 151 315 945 152 315 946 142 315 947 141 316 948 144 316 949 143 316 950 141 317 951 142 317 952 145 317 953 152 318 954 153 318 955 145 318 956 146 319 957 149 319 958 148 319 959 147 320 960 150 320 961 149 320 962 159 321 963 160 321 964 150 321 965 149 322 966 152 322 967 151 322 968 149 323 969 150 323 970 153 323 971 160 324 972 161 324 973 153 324 974 154 325 975 157 325 976 156 325 977 155 326 978 158 326 979 157 326 980 143 327 981 144 327 982 158 327 983 157 328 984 160 328 985 159 328 986 157 329 987 158 329 988 161 329 989 144 330 990 145 330 991 161 330 992 165 331 993 168 331 994 167 331 995 166 332 996 169 332 997 168 332 998 178 333 999 179 333 1000 169 333 1001 168 334 1002 171 334 1003 170 334 1004 168 335 1005 169 335 1006 172 335 1007 179 336 1008 180 336 1009 172 336 1010 173 337 1011 176 337 1012 175 337 1013 174 338 1014 177 338 1015 176 338 1016 186 339 1017 187 339 1018 177 339 1019 176 340 1020 179 340 1021 178 340 1022 176 341 1023 177 341 1024 180 341 1025 187 342 1026 188 342 1027 180 342 1028 181 343 1029 184 343 1030 183 343 1031 182 344 1032 185 344 1033 184 344 1034 170 345 1035 171 345 1036 185 345 1037 184 346 1038 187 346 1039 186 346 1040 184 347 1041 185 347 1042 188 347 1043 171 348 1044 172 348 1045 188 348 1046 192 349 1047 195 349 1048 194 349 1049 193 350 1050 196 350 1051 195 350 1052 205 351 1053 206 351 1054 196 351 1055 195 352 1056 198 352 1057 197 352 1058 195 353 1059 196 353 1060 199 353 1061 206 354 1062 207 354 1063 199 354 1064 200 355 1065 203 355 1066 202 355 1067 201 356 1068 204 356 1069 203 356 1070 213 357 1071 214 357 1072 204 357 1073 203 358 1074 206 358 1075 205 358 1076 203 359 1077 204 359 1078 207 359 1079 214 360 1080 215 360 1081 207 360 1082 208 361 1083 211 361 1084 210 361 1085 209 362 1086 212 362 1087 211 362 1088 197 363 1089 198 363 1090 212 363 1091 211 364 1092 214 364 1093 213 364 1094 211 365 1095 212 365 1096 215 365 1097 198 366 1098 199 366 1099 215 366 1100 0 367 1101 5 367 1102 57 367 1103 5 368 1104 8 368 1105 58 368 1106 8 369 1107 20 369 1108 70 369 1109 20 370 1110 19 370 1111 67 370 1112 19 371 1113 2 371 1114 55 371 1115 27 372 1116 32 372 1117 11 372 1118 32 373 1119 35 373 1120 12 373 1121 35 374 1122 47 374 1123 24 374 1124 47 375 1125 46 375 1126 21 375 1127 46 376 1128 29 376 1129 2 376 1130 81 377 1131 86 377 1132 38 377 1133 86 378 1134 89 378 1135 39 378 1136 89 379 1137 101 379 1138 51 379 1139 101 380 1140 100 380 1141 48 380 1142 100 381 1143 83 381 1144 29 381 1145 56 382 1146 75 382 1147 92 382 1148 75 383 1149 78 383 1150 93 383 1151 78 384 1152 66 384 1153 105 384 1154 66 385 1155 65 385 1156 102 385 1157 65 386 1158 55 386 1159 83 386 1160 54 387 1161 59 387 1162 165 387 1163 59 388 1164 62 388 1165 166 388 1166 62 389 1167 74 389 1168 178 389 1169 74 390 1170 73 390 1171 175 390 1172 73 391 1173 56 391 1174 163 391 1175 189 392 1176 194 392 1177 84 392 1178 194 393 1179 197 393 1180 85 393 1181 197 394 1182 209 394 1183 97 394 1184 209 395 1185 208 395 1186 94 395 1187 208 396 1188 191 396 1189 82 396 1190 164 397 1191 183 397 1192 200 397 1193 183 398 1194 186 398 1195 201 398 1196 186 399 1197 174 399 1198 213 399 1199 174 400 1200 173 400 1201 210 400 1202 173 401 1203 163 401 1204 191 401 1205 162 402 1206 167 402 1207 111 402 1208 167 403 1209 170 403 1210 112 403 1211 170 404 1212 182 404 1213 124 404 1214 182 405 1215 181 405 1216 121 405 1217 181 406 1218 164 406 1219 109 406 1220 135 407 1221 140 407 1222 192 407 1223 140 408 1224 143 408 1225 193 408 1226 143 409 1227 155 409 1228 205 409 1229 155 410 1230 154 410 1231 202 410 1232 154 411 1233 137 411 1234 190 411 1235 110 412 1236 129 412 1237 146 412 1238 129 413 1239 132 413 1240 147 413 1241 132 414 1242 120 414 1243 159 414 1244 120 415 1245 119 415 1246 156 415 1247 119 416 1248 109 416 1249 137 416 1250 108 417 1251 113 417 1252 3 417 1253 113 418 1254 116 418 1255 4 418 1256 116 419 1257 128 419 1258 16 419 1259 128 420 1260 127 420 1261 13 420 1262 127 421 1263 110 421 1264 1 421 1265 28 422 1266 40 422 1267 138 422 1268 40 423 1269 43 423 1270 139 423 1271 43 424 1272 31 424 1273 151 424 1274 31 425 1275 30 425 1276 148 425 1277 30 426 1278 27 426 1279 136 426 1280 162 427 1281 108 427 1282 0 427 1283</p>
        </triangles>
      </mesh>
    </geometry>
  </library_geometries>
  <library_visual_scenes>
    <visual_scene id="Scene" name="Scene">
      <node id="Cube_072" name="Cube.072" type="NODE">
        <matrix sid="transform">0.105 0 0 -0.25 0 0 -0.05 -3.06 0 0.4 0 0 0 0 0 1</matrix>
        <instance_geometry url="#Cube_040-mesh" name="Cube.072">
          <bind_material>
            <technique_common>
              <instance_material symbol="Material_008-material" target="#Material_008-material">
                <bind_vertex_input semantic="UVMap" input_semantic="TEXCOORD" input_set="0"/>
              </instance_material>
            </technique_common>
          </bind_material>
        </instance_geometry>
      </node>
    </visual_scene>
  </library_visual_scenes>
  <scene>
    <instance_visual_scene url="#Scene"/>
  </scene>
</COLLADA>