<?xml version="1.0" encoding="utf-8"?>
<COLLADA xmlns="http://www.collada.org/2005/11/COLLADASchema" version="1.4.1" xmlns:xsi="http://www.w3.org/2001/XMLSchema-instance">
  <asset>
    <contributor>
      <author>Blender User</author>
      <authoring_tool>Blender 4.5.10 LTS commit date:2026-05-18, commit time:13:28, hash:6dc0b208d1b5</authoring_tool>
    </contributor>
    <created>2026-06-18T08:57:25</created>
    <modified>2026-06-18T08:57:25</modified>
    <unit name="meter" meter="1"/>
    <up_axis>Z_UP</up_axis>
  </asset>
  <library_effects>
    <effect id="Material_010-effect">
      <profile_COMMON>
        <technique sid="common">
          <lambert>
            <emission>
              <color sid="emission">0 0 0 1</color>
            </emission>
            <diffuse>
              <color sid="diffuse">0.2 0 0 1</color>
            </diffuse>
            <index_of_refraction>
              <float sid="ior">1.5</float>
            </index_of_refraction>
          </lambert>
        </technique>
      </profile_COMMON>
    </effect>
  </library_effects>
  <library_images/>
  <library_materials>
    <material id="Material_010-material" name="Material.010">
      <instance_effect url="#Material_010-effect"/>
    </material>
  </library_materials>
  <library_geometries>
    <geometry id="Cube_115-mesh" name="Cube.115">
      <mesh>
        <source id="Cube_115-mesh-positions">
          <float_array id="Cube_115-mesh-positions-array" count="144">0.2087485 -0.5 -0.9915131 -0.2912514 -1 -0.9915131 0.1842768 -0.6545085 -0.9915131 0.113257 -0.7938926 -0.9915131 0.002641201 -0.9045085 -0.9915131 -0.1367429 -0.9755282 -0.9915131 -0.2912514 -1 1.008487 0.2087485 -0.5 1.008487 -0.1367429 -0.9755282 1.008487 0.002641201 -0.9045085 1.008487 0.113257 -0.7938926 1.008487 0.1842768 -0.6545085 1.008487 -0.2912514 1 -0.9915131 0.2087485 0.5 -0.9915131 -0.1367429 0.9755282 -0.9915131 0.002641201 0.9045085 -0.9915131 0.113257 0.7938926 -0.9915131 0.1842768 0.6545085 -0.9915131 0.2087485 0.5 1.008487 -0.2912514 1 1.008487 0.1842768 0.6545085 1.008487 0.113257 0.7938926 1.008487 0.002641201 0.9045085 1.008487 -0.1367429 0.9755282 1.008487 0.1589041 -0.4960784 -0.9915131 -0.2951731 -0.9501556 -0.9915131 0.1367244 -0.6390585 -0.9915131 0.07280629 -0.7645049 -0.9915131 -0.02674657 -0.8640577 -0.9915131 -0.1521929 -0.9279758 -0.9915131 -0.2940912 -0.9639149 0.9739949 0.1726635 -0.4971603 0.9739949 -0.1481629 -0.9403801 0.9748113 -0.01908189 -0.8746095 0.9748113 0.08335804 -0.7721695 0.9748113 0.1491286 -0.6430885 0.9748113 -0.2951731 0.9501556 -0.9915131 0.1589041 0.4960784 -0.9915131 -0.1521929 0.9279758 -0.9915131 -0.02674657 0.8640577 -0.9915131 0.07280629 0.7645049 -0.9915131 0.1367244 0.6390585 -0.9915131 0.1726635 0.4971603 0.9739949 -0.2940912 0.9639149 0.9739949 0.1491286 0.6430885 0.9748113 0.08335804 0.7721695 0.9748113 -0.01908189 0.8746095 0.9748113 -0.1481629 0.9403801 0.9748113</float_array>
          <technique_common>
            <accessor source="#Cube_115-mesh-positions-array" count="48" stride="3">
              <param name="X" type="float"/>
              <param name="Y" type="float"/>
              <param name="Z" type="float"/>
            </accessor>
          </technique_common>
        </source>
        <source id="Cube_115-mesh-normals">
          <float_array id="Cube_115-mesh-normals-array" count="276">1 0 0 0.9876884 0.1564346 0 0.8910065 0.4539905 0 0.7071068 0.7071068 0 0.4539905 0.8910065 0 0.1564346 0.9876884 0 0.1564346 -0.9876884 0 0.4539905 -0.8910065 0 0.7071068 -0.7071068 0 0.8910065 -0.4539905 0 0.9876884 -0.1564346 0 -0.9999755 0 0.007000207 -0.9881568 -0.1532878 0.007001817 -0.8909859 -0.4539837 0.006551086 -0.7070916 -0.7070916 0.00655061 -0.4539807 -0.8909875 0.006550848 -0.1592517 -0.9872162 0.006554067 -0.1532878 0.9881568 0.007001817 -0.4539837 0.8909859 0.006551086 -0.7070916 0.7070916 0.00655061 -0.8909875 0.4539807 0.006550848 -0.9872162 0.1592517 0.006554067 0 0 -1 0 0 -1 0 0 -1 0 0 -1 0 0 -1 0 0 -1 0 0 -1 0 0 -1 0 0 -1 0 0 -1 0 0 -1 -0.9969178 0.07845324 0 -0.9969192 -0.078435 -3.3658e-7 -0.1139952 0.681764 0.7226361 -0.3078426 0.6041753 0.7349865 -0.4794725 0.4794725 0.7349914 -0.6041698 0.3078424 0.7349911 -0.6697325 0.1060753 0.7349873 -0.6909707 0 0.7228828 -0.681764 -0.1139952 0.7226361 -0.6041753 -0.3078426 0.7349865 -0.4794725 -0.4794725 0.7349914 -0.3078424 -0.6041698 0.7349911 -0.1060753 -0.6697325 0.7349873 1 0 0 0.9876884 0.1564346 0 0.8910065 0.4539905 0 0.7071068 0.7071068 0 0.4539905 0.8910065 0 0.1564346 0.9876884 0 0.1564346 -0.9876884 0 0.4539905 -0.8910065 0 0.7071068 -0.7071068 0 0.8910065 -0.4539905 0 0.9876884 -0.1564346 0 -0.9999755 0 0.007000207 -0.9872162 -0.1592517 0.006554067 -0.8909875 -0.4539807 0.006550848 -0.7070916 -0.7070916 0.00655061 -0.4539837 -0.8909859 0.006551086 -0.1532878 -0.9881568 0.007001817 -0.1592517 0.9872162 0.006554067 -0.4539807 0.8909875 0.006550848 -0.7070916 0.7070916 0.00655061 -0.8909859 0.4539837 0.006551086 -0.9881568 0.1532878 0.007001817 0 0 -1 0 0 -1 0 0 -1 0 0 -1 0 0 -1 0 0 -1 0 0 -1 0 0 -1 0 0 -1 0 0 -1 0 0 -1 -0.9969192 0.078435 -3.36617e-7 -0.9969178 -0.07845324 0 -0.1060753 0.6697325 0.7349873 -0.3078424 0.6041698 0.7349911 -0.4794725 0.4794725 0.7349914 -0.6041753 0.3078427 0.7349865 -0.681764 0.1139952 0.7226361 -0.6909707 0 0.7228828 -0.6697325 -0.1060753 0.7349873 -0.6041698 -0.3078424 0.7349911 -0.4794725 -0.4794725 0.7349914 -0.3078427 -0.6041753 0.7349865 -0.1139952 -0.681764 0.7226361</float_array>
          <technique_common>
            <accessor source="#Cube_115-mesh-normals-array" count="92" stride="3">
              <param name="X" type="float"/>
              <param name="Y" type="float"/>
              <param name="Z" type="float"/>
            </accessor>
          </technique_common>
        </source>
        <source id="Cube_115-mesh-map-0">
          <float_array id="Cube_115-mesh-map-0-array" count="552">0.625 0.5625 0.375 0.6875 0.375 0.5625 0.375 0.5625 0.6260197 0.5431864 0.625 0.5625 0.3739804 0.5431864 0.6289789 0.5257634 0.6260197 0.5431864 0.3710212 0.5257634 0.6335878 0.4868032 0.6289789 0.5257634 0.3664122 0.4868032 0.6393955 0.4722287 0.6335878 0.4868032 0.3606045 0.4722287 0.625 0.4375 0.6393955 0.4722287 0.375 0.8125 0.6393955 0.7777714 0.625 0.8125 0.3606045 0.7777714 0.6335878 0.7631968 0.6393955 0.7777714 0.3664122 0.7631968 0.6289789 0.7242366 0.6335878 0.7631968 0.3710212 0.7242366 0.6260197 0.7068136 0.6289789 0.7242366 0.3739804 0.7068136 0.625 0.6875 0.6260197 0.7068136 0.375 0.6875 0.625 0.5625 0.375 0.5625 0.625 0.5625 0.3739804 0.5431864 0.375 0.5625 0.6289789 0.5257634 0.3739804 0.5431864 0.6260197 0.5431864 0.6335878 0.4868032 0.3710212 0.5257634 0.6289789 0.5257634 0.6335878 0.4868032 0.3606045 0.4722287 0.3664122 0.4868032 0.625 0.4375 0.3606045 0.4722287 0.6393955 0.4722287 0.625 0.8125 0.3606045 0.7777714 0.375 0.8125 0.6335878 0.7631968 0.3606045 0.7777714 0.6393955 0.7777714 0.6289789 0.7242366 0.3664122 0.7631968 0.6335878 0.7631968 0.6289789 0.7242366 0.3739804 0.7068136 0.3710212 0.7242366 0.625 0.6875 0.3739804 0.7068136 0.6260197 0.7068136 0.375 0.5625 0.3739804 0.5431864 0.3739804 0.5431864 0.3710212 0.5257634 0.3739804 0.5431864 0.3710212 0.5257634 0.3710212 0.5257634 0.3664122 0.4868032 0.3664122 0.4868032 0.3664122 0.4868032 0.3606045 0.4722287 0.3606045 0.4722287 0.375 0.4375 0.3606045 0.4722287 0.375 0.4375 0.375 0.8125 0.3606045 0.7777714 0.3606045 0.7777714 0.3664122 0.7631968 0.3606045 0.7777714 0.3664122 0.7631968 0.3664122 0.7631968 0.3710212 0.7242366 0.3710212 0.7242366 0.3710212 0.7242366 0.3739804 0.7068136 0.3739804 0.7068136 0.375 0.6875 0.3739804 0.7068136 0.375 0.6875 0.375 0.6875 0.375 0.5625 0.375 0.5625 0.375 0.4375 0.625 0.4375 0.625 0.4375 0.375 0.8125 0.625 0.8125 0.375 0.8125 0.625 0.8125 0.6393955 0.7777714 0.625 0.8125 0.6335878 0.7631968 0.6393955 0.7777714 0.6393955 0.7777714 0.6289789 0.7242366 0.6335878 0.7631968 0.6335878 0.7631968 0.6289789 0.7242366 0.6260197 0.7068136 0.6289789 0.7242366 0.625 0.6875 0.6260197 0.7068136 0.6260197 0.7068136 0.625 0.5625 0.625 0.6875 0.625 0.6875 0.625 0.5625 0.6260197 0.5431864 0.625 0.5625 0.6289789 0.5257634 0.6260197 0.5431864 0.6260197 0.5431864 0.6335878 0.4868032 0.6289789 0.5257634 0.6289789 0.5257634 0.6335878 0.4868032 0.6393955 0.4722287 0.6335878 0.4868032 0.625 0.4375 0.6393955 0.4722287 0.6393955 0.4722287 0.625 0.5625 0.625 0.6875 0.375 0.6875 0.375 0.5625 0.3739804 0.5431864 0.6260197 0.5431864 0.3739804 0.5431864 0.3710212 0.5257634 0.6289789 0.5257634 0.3710212 0.5257634 0.3664122 0.4868032 0.6335878 0.4868032 0.3664122 0.4868032 0.3606045 0.4722287 0.6393955 0.4722287 0.3606045 0.4722287 0.375 0.4375 0.625 0.4375 0.375 0.8125 0.3606045 0.7777714 0.6393955 0.7777714 0.3606045 0.7777714 0.3664122 0.7631968 0.6335878 0.7631968 0.3664122 0.7631968 0.3710212 0.7242366 0.6289789 0.7242366 0.3710212 0.7242366 0.3739804 0.7068136 0.6260197 0.7068136 0.3739804 0.7068136 0.375 0.6875 0.625 0.6875 0.375 0.6875 0.625 0.6875 0.625 0.5625 0.625 0.5625 0.6260197 0.5431864 0.3739804 0.5431864 0.6289789 0.5257634 0.3710212 0.5257634 0.3739804 0.5431864 0.6335878 0.4868032 0.3664122 0.4868032 0.3710212 0.5257634 0.6335878 0.4868032 0.6393955 0.4722287 0.3606045 0.4722287 0.625 0.4375 0.375 0.4375 0.3606045 0.4722287 0.625 0.8125 0.6393955 0.7777714 0.3606045 0.7777714 0.6335878 0.7631968 0.3664122 0.7631968 0.3606045 0.7777714 0.6289789 0.7242366 0.3710212 0.7242366 0.3664122 0.7631968 0.6289789 0.7242366 0.6260197 0.7068136 0.3739804 0.7068136 0.625 0.6875 0.375 0.6875 0.3739804 0.7068136 0.375 0.5625 0.375 0.5625 0.3739804 0.5431864 0.3710212 0.5257634 0.3739804 0.5431864 0.3739804 0.5431864 0.3710212 0.5257634 0.3710212 0.5257634 0.3664122 0.4868032 0.3664122 0.4868032 0.3664122 0.4868032 0.3606045 0.4722287 0.375 0.4375 0.3606045 0.4722287 0.3606045 0.4722287 0.375 0.8125 0.375 0.8125 0.3606045 0.7777714 0.3664122 0.7631968 0.3606045 0.7777714 0.3606045 0.7777714 0.3664122 0.7631968 0.3664122 0.7631968 0.3710212 0.7242366 0.3710212 0.7242366 0.3710212 0.7242366 0.3739804 0.7068136 0.375 0.6875 0.3739804 0.7068136 0.3739804 0.7068136 0.375 0.6875 0.375 0.6875 0.375 0.5625 0.375 0.4375 0.375 0.4375 0.625 0.4375 0.375 0.8125 0.625 0.8125 0.625 0.8125 0.625 0.8125 0.6393955 0.7777714 0.6393955 0.7777714 0.6335878 0.7631968 0.6335878 0.7631968 0.6393955 0.7777714 0.6289789 0.7242366 0.6289789 0.7242366 0.6335878 0.7631968 0.6289789 0.7242366 0.6260197 0.7068136 0.6260197 0.7068136 0.625 0.6875 0.625 0.6875 0.6260197 0.7068136 0.625 0.5625 0.625 0.5625 0.625 0.6875 0.625 0.5625 0.6260197 0.5431864 0.6260197 0.5431864 0.6289789 0.5257634 0.6289789 0.5257634 0.6260197 0.5431864 0.6335878 0.4868032 0.6335878 0.4868032 0.6289789 0.5257634 0.6335878 0.4868032 0.6393955 0.4722287 0.6393955 0.4722287 0.625 0.4375 0.625 0.4375 0.6393955 0.4722287</float_array>
          <technique_common>
            <accessor source="#Cube_115-mesh-map-0-array" count="276" stride="2">
              <param name="S" type="float"/>
              <param name="T" type="float"/>
            </accessor>
          </technique_common>
        </source>
        <vertices id="Cube_115-mesh-vertices">
          <input semantic="POSITION" source="#Cube_115-mesh-positions"/>
        </vertices>
        <triangles material="Material_010-material" count="92">
          <input semantic="VERTEX" source="#Cube_115-mesh-vertices" offset="0"/>
          <input semantic="NORMAL" source="#Cube_115-mesh-normals" offset="1"/>
          <input semantic="TEXCOORD" source="#Cube_115-mesh-map-0" offset="2" set="0"/>
          <p>18 0 0 0 0 1 13 0 2 13 1 3 20 1 4 18 1 5 17 2 6 21 2 7 20 2 8 16 3 9 22 3 10 21 3 11 15 4 12 23 4 13 22 4 14 14 5 15 19 5 16 23 5 17 1 6 18 8 6 19 6 6 20 5 7 21 9 7 22 8 7 23 4 8 24 10 8 25 9 8 26 3 9 27 11 9 28 10 9 29 2 10 30 7 10 31 11 10 32 24 11 33 42 11 34 37 11 35 42 12 36 41 12 37 37 12 38 45 13 39 41 13 40 44 13 41 46 14 42 40 14 43 45 14 44 46 15 45 38 15 46 39 15 47 43 16 48 38 16 49 47 16 50 30 17 51 29 17 52 25 17 53 33 18 54 29 18 55 32 18 56 34 19 57 28 19 58 33 19 59 34 20 60 26 20 61 27 20 62 31 21 63 26 21 64 35 21 65 13 22 66 41 22 67 17 22 68 16 23 69 41 23 70 40 23 71 16 24 72 39 24 73 15 24 74 15 25 75 38 25 76 14 25 77 12 26 78 38 26 79 36 26 80 1 27 81 29 27 82 5 27 83 4 28 84 29 28 85 28 28 86 4 29 87 27 29 88 3 29 89 3 30 90 26 30 91 2 30 92 0 31 93 26 31 94 24 31 95 0 32 96 37 32 97 13 32 98 12 33 99 43 33 100 19 33 101 1 34 102 30 34 103 25 34 104 6 35 105 32 35 106 30 35 107 9 36 108 32 36 109 8 36 110 10 37 111 33 37 112 9 37 113 10 38 114 35 38 115 34 38 116 7 39 117 35 39 118 11 39 119 18 40 120 31 40 121 7 40 122 18 41 123 44 41 124 42 41 125 21 42 126 44 42 127 20 42 128 22 43 129 45 43 130 21 43 131 22 44 132 47 44 133 46 44 134 19 45 135 47 45 136 23 45 137 18 46 138 7 46 139 0 46 140 13 47 141 17 47 142 20 47 143 17 48 144 16 48 145 21 48 146 16 49 147 15 49 148 22 49 149 15 50 150 14 50 151 23 50 152 14 51 153 12 51 154 19 51 155 1 52 156 5 52 157 8 52 158 5 53 159 4 53 160 9 53 161 4 54 162 3 54 163 10 54 164 3 55 165 2 55 166 11 55 167 2 56 168 0 56 169 7 56 170 24 57 171 31 57 172 42 57 173 42 58 174 44 58 175 41 58 176 45 59 177 40 59 178 41 59 179 46 60 180 39 60 181 40 60 182 46 61 183 47 61 184 38 61 185 43 62 186 36 62 187 38 62 188 30 63 189 32 63 190 29 63 191 33 64 192 28 64 193 29 64 194 34 65 195 27 65 196 28 65 197 34 66 198 35 66 199 26 66 200 31 67 201 24 67 202 26 67 203 13 68 204 37 68 205 41 68 206 16 69 207 17 69 208 41 69 209 16 70 210 40 70 211 39 70 212 15 71 213 39 71 214 38 71 215 12 72 216 14 72 217 38 72 218 1 73 219 25 73 220 29 73 221 4 74 222 5 74 223 29 74 224 4 75 225 28 75 226 27 75 227 3 76 228 27 76 229 26 76 230 0 77 231 2 77 232 26 77 233 0 78 234 24 78 235 37 78 236 12 79 237 36 79 238 43 79 239 1 80 240 6 80 241 30 80 242 6 81 243 8 81 244 32 81 245 9 82 246 33 82 247 32 82 248 10 83 249 34 83 250 33 83 251 10 84 252 11 84 253 35 84 254 7 85 255 31 85 256 35 85 257 18 86 258 42 86 259 31 86 260 18 87 261 20 87 262 44 87 263 21 88 264 45 88 265 44 88 266 22 89 267 46 89 268 45 89 269 22 90 270 23 90 271 47 90 272 19 91 273 43 91 274 47 91 275</p>
        </triangles>
      </mesh>
    </geometry>
  </library_geometries>
  <library_visual_scenes>
    <visual_scene id="Scene" name="Scene">
      <node id="Cube_114" name="Cube.114" type="NODE">
        <matrix sid="transform">0.8 0 0 0.6330011 0 0 -0.125 0.1374912 0 0.5 0 -4.03573e-9 0 0 0 1</matrix>
        <instance_geometry url="#Cube_115-mesh" name="Cube.114">
          <bind_material>
            <technique_common>
              <instance_material symbol="Material_010-material" target="#Material_010-material">
                <bind_vertex_input semantic="UVMap" input_semantic="TEXCOORD" input_set="0"/>
              </instance_material>
            </technique_common>
          </bind_material>
        </instance_geometry>
      </node>
    </visual_scene>
  </library_visual_scenes>
  <scene>
    <instance_visual_scene url="#Scene"/>
  </scene>
</COLLADA>