<?xml version="1.0" encoding="utf-8"?>
<COLLADA xmlns="http://www.collada.org/2005/11/COLLADASchema" version="1.4.1" xmlns:xsi="http://www.w3.org/2001/XMLSchema-instance">
  <asset>
    <contributor>
      <author>Blender User</author>
      <authoring_tool>Blender 4.5.10 LTS commit date:2026-05-18, commit time:13:28, hash:6dc0b208d1b5</authoring_tool>
    </contributor>
    <created>2026-06-19T00:16:27</created>
    <modified>2026-06-19T00:16:27</modified>
    <unit name="meter" meter="1"/>
    <up_axis>Z_UP</up_axis>
  </asset>
  <library_effects>
    <effect id="Material_001-effect">
      <profile_COMMON>
        <technique sid="common">
          <lambert>
            <emission>
              <color sid="emission">0 0 0 1</color>
            </emission>
            <diffuse>
              <color sid="diffuse">0 0 0 1</color>
            </diffuse>
            <index_of_refraction>
              <float sid="ior">1.45</float>
            </index_of_refraction>
          </lambert>
        </technique>
      </profile_COMMON>
    </effect>
    <effect id="Material_004-effect">
      <profile_COMMON>
        <technique sid="common">
          <lambert>
            <emission>
              <color sid="emission">0 0 0 1</color>
            </emission>
            <diffuse>
              <color sid="diffuse">0.999626 1 1 1</color>
            </diffuse>
            <index_of_refraction>
              <float sid="ior">1.5</float>
            </index_of_refraction>
          </lambert>
        </technique>
      </profile_COMMON>
    </effect>
    <effect id="Material_007-effect">
      <profile_COMMON>
        <technique sid="common">
          <lambert>
            <emission>
              <color sid="emission">0 0 0 1</color>
            </emission>
            <diffuse>
              <color sid="diffuse">0.3 0.3 0.3 1</color>
            </diffuse>
            <index_of_refraction>
              <float sid="ior">1.5</float>
            </index_of_refraction>
          </lambert>
        </technique>
      </profile_COMMON>
    </effect>
  </library_effects>
  <library_images/>
  <library_materials>
    <material id="Material_001-material" name="Material.001">
      <instance_effect url="#Material_001-effect"/>
    </material>
    <material id="Material_004-material" name="Material.004">
      <instance_effect url="#Material_004-effect"/>
    </material>
    <material id="Material_007-material" name="Material.007">
      <instance_effect url="#Material_007-effect"/>
    </material>
  </library_materials>
  <library_geometries>
    <geometry id="Cube_127-mesh" name="Cube.127">
      <mesh>
        <source id="Cube_127-mesh-positions">
          <float_array id="Cube_127-mesh-positions-array" count="156">-1 -1 -1 -1 -1 1 -1 1 -1 -1 1 1 1 -1 -1 1 -1 1 1 1 -1 1 1 1 -7.400002 -0.859375 1.000013 -7.400002 -0.859375 1.800013 -7.400002 0.859375 1.000013 -7.400002 0.859375 1.800013 1.266666 -0.859375 1.000013 1.266666 -0.859375 1.800013 1.266666 0.859375 1.000013 1.266666 0.859375 1.800013 -7.400001 0.796875 1.800003 -7.400001 0.796875 2.600003 -7.400001 0.859375 1.800003 -7.400001 0.859375 2.600003 1.266666 0.796875 1.800003 1.266666 0.796875 2.600003 1.266666 0.859375 1.800003 1.266666 0.859375 2.600003 -7.400001 -0.859375 1.800012 -7.400001 -0.859375 2.600012 -7.400001 -0.796875 1.800012 -7.400001 -0.796875 2.600012 1.266666 -0.859375 1.800012 1.266666 -0.859375 2.600012 1.266666 -0.796875 1.800012 1.266666 -0.796875 2.600012 -6.333334 0.3125 1 -6.333334 0.625 1 -1 0.3125 -1 -1 0.3125 1 -1 0.625 -1 -1 0.625 1 -6.333334 -0.625 1 -6.333334 -0.3125 1 -1 -0.625 -1 -1 -0.625 1 -1 -0.3125 -1 -1 -0.3125 1 -7.466671 -0.796875 1.800012 -7.466671 -0.796875 2.600012 -7.466671 0.796875 1.800012 -7.466671 0.796875 2.600012 -7.200005 -0.796875 1.800012 -7.200005 -0.796875 2.600012 -7.200005 0.796875 1.800012 -7.200005 0.796875 2.600012</float_array>
          <technique_common>
            <accessor source="#Cube_127-mesh-positions-array" count="52" stride="3">
              <param name="X" type="float"/>
              <param name="Y" type="float"/>
              <param name="Z" type="float"/>
            </accessor>
          </technique_common>
        </source>
        <source id="Cube_127-mesh-normals">
          <float_array id="Cube_127-mesh-normals-array" count="228">-1 0 0 0 1 0 1 0 0 0 -1 0 0 0 -1 0 0 1 -1 0 0 0 1 0 1 0 0 0 -1 0 0 0 -1 0 0 1 -1 0 0 0 1 0 1 0 0 0 -1 0 0 0 -1 0 0 1 -1 0 0 0 1 0 1 0 0 0 -1 0 0 0 -1 0 0 1 1 0 0 0 0 1 0 1 0 0 -1 0 -0.3511235 0 -0.9363292 1 0 0 0 0 1 0 1 0 0 -1 0 -0.3511235 0 -0.9363292 -1 0 0 0 1 0 1 0 0 0 -1 0 0 0 -1 0 0 1 -1 0 0 0 1 0 1 0 0 0 -1 0 0 0 -1 0 0 1 -1 0 0 0 1 0 1 0 0 0 -1 0 0 0 -1 0 0 1 -1 0 0 0 1 0 1 0 0 0 -1 0 0 0 -1 0 0 1 -1 0 0 0 1 0 1 0 0 0 -1 0 0 0 -1 0 0 1 1 0 0 0 0 1 -0.3511235 0 -0.9363292 1 0 0 0 0 1 -0.3511235 0 -0.9363292 -1 0 0 0 1 0 1 0 0 0 -1 0 0 0 -1 0 0 1</float_array>
          <technique_common>
            <accessor source="#Cube_127-mesh-normals-array" count="76" stride="3">
              <param name="X" type="float"/>
              <param name="Y" type="float"/>
              <param name="Z" type="float"/>
            </accessor>
          </technique_common>
        </source>
        <source id="Cube_127-mesh-map-0">
          <float_array id="Cube_127-mesh-map-0-array" count="456">0.625 0 0.375 0.25 0.375 0 0.625 0.25 0.375 0.5 0.375 0.25 0.625 0.5 0.375 0.75 0.375 0.5 0.625 0.75 0.375 1 0.375 0.75 0.375 0.5 0.125 0.75 0.125 0.5 0.875 0.5 0.625 0.75 0.625 0.5 0.625 0 0.375 0.25 0.375 0 0.625 0.25 0.375 0.5 0.375 0.25 0.625 0.5 0.375 0.75 0.375 0.5 0.625 0.75 0.375 1 0.375 0.75 0.375 0.5 0.125 0.75 0.125 0.5 0.875 0.5 0.625 0.75 0.625 0.5 0.625 0 0.375 0.25 0.375 0 0.625 0.25 0.375 0.5 0.375 0.25 0.625 0.5 0.375 0.75 0.375 0.5 0.625 0.75 0.375 1 0.375 0.75 0.375 0.5 0.125 0.75 0.125 0.5 0.875 0.5 0.625 0.75 0.625 0.5 0.625 0 0.375 0.25 0.375 0 0.625 0.25 0.375 0.5 0.375 0.25 0.625 0.5 0.375 0.75 0.375 0.5 0.625 0.75 0.375 1 0.375 0.75 0.375 0.5 0.125 0.75 0.125 0.5 0.875 0.5 0.625 0.75 0.625 0.5 0.625 0.5 0.375 0.75 0.375 0.5 0.875 0.5 0.625 0.75 0.625 0.5 0.625 0.25 0.625 0.5 0.375 0.5 0.375 0.75 0.625 0.75 0.875 0.75 0.375 0.5 0.875 0.75 0.625 0.25 0.625 0.5 0.375 0.75 0.375 0.5 0.875 0.5 0.625 0.75 0.625 0.5 0.625 0.25 0.625 0.5 0.375 0.5 0.375 0.75 0.625 0.75 0.875 0.75 0.375 0.5 0.875 0.75 0.625 0.25 0.625 0 0.375 0.25 0.375 0 0.625 0.25 0.375 0.5 0.375 0.25 0.625 0.5 0.375 0.75 0.375 0.5 0.625 0.75 0.375 1 0.375 0.75 0.375 0.5 0.125 0.75 0.125 0.5 0.875 0.5 0.625 0.75 0.625 0.5 0.625 0 0.625 0.25 0.375 0.25 0.625 0.25 0.625 0.5 0.375 0.5 0.625 0.5 0.625 0.75 0.375 0.75 0.625 0.75 0.625 1 0.375 1 0.375 0.5 0.375 0.75 0.125 0.75 0.875 0.5 0.875 0.75 0.625 0.75 0.625 0 0.625 0.25 0.375 0.25 0.625 0.25 0.625 0.5 0.375 0.5 0.625 0.5 0.625 0.75 0.375 0.75 0.625 0.75 0.625 1 0.375 1 0.375 0.5 0.375 0.75 0.125 0.75 0.875 0.5 0.875 0.75 0.625 0.75 0.625 0 0.625 0.25 0.375 0.25 0.625 0.25 0.625 0.5 0.375 0.5 0.625 0.5 0.625 0.75 0.375 0.75 0.625 0.75 0.625 1 0.375 1 0.375 0.5 0.375 0.75 0.125 0.75 0.875 0.5 0.875 0.75 0.625 0.75 0.625 0 0.625 0.25 0.375 0.25 0.625 0.25 0.625 0.5 0.375 0.5 0.625 0.5 0.625 0.75 0.375 0.75 0.625 0.75 0.625 1 0.375 1 0.375 0.5 0.375 0.75 0.125 0.75 0.875 0.5 0.875 0.75 0.625 0.75 0.625 0.5 0.625 0.75 0.375 0.75 0.875 0.5 0.875 0.75 0.625 0.75 0.375 0.5 0.375 0.75 0.875 0.75 0.625 0.5 0.625 0.75 0.375 0.75 0.875 0.5 0.875 0.75 0.625 0.75 0.375 0.5 0.375 0.75 0.875 0.75 0.625 0 0.625 0.25 0.375 0.25 0.625 0.25 0.625 0.5 0.375 0.5 0.625 0.5 0.625 0.75 0.375 0.75 0.625 0.75 0.625 1 0.375 1 0.375 0.5 0.375 0.75 0.125 0.75 0.875 0.5 0.875 0.75 0.625 0.75</float_array>
          <technique_common>
            <accessor source="#Cube_127-mesh-map-0-array" count="228" stride="2">
              <param name="S" type="float"/>
              <param name="T" type="float"/>
            </accessor>
          </technique_common>
        </source>
        <vertices id="Cube_127-mesh-vertices">
          <input semantic="POSITION" source="#Cube_127-mesh-positions"/>
        </vertices>
        <triangles material="Material_001-material" count="48">
          <input semantic="VERTEX" source="#Cube_127-mesh-vertices" offset="0"/>
          <input semantic="NORMAL" source="#Cube_127-mesh-normals" offset="1"/>
          <input semantic="TEXCOORD" source="#Cube_127-mesh-map-0" offset="2" set="0"/>
          <p>1 0 0 2 0 1 0 0 2 3 1 3 6 1 4 2 1 5 7 2 6 4 2 7 6 2 8 5 3 9 0 3 10 4 3 11 6 4 12 0 4 13 2 4 14 3 5 15 5 5 16 7 5 17 17 12 36 18 12 37 16 12 38 19 13 39 22 13 40 18 13 41 23 14 42 20 14 43 22 14 44 21 15 45 16 15 46 20 15 47 22 16 48 16 16 49 18 16 50 19 17 51 21 17 52 23 17 53 25 18 54 26 18 55 24 18 56 27 19 57 30 19 58 26 19 59 31 20 60 28 20 61 30 20 62 29 21 63 24 21 64 28 21 65 30 22 66 24 22 67 26 22 68 27 23 69 29 23 70 31 23 71 45 34 102 46 34 103 44 34 104 47 35 105 50 35 106 46 35 107 51 36 108 48 36 109 50 36 110 49 37 111 44 37 112 48 37 113 50 38 114 44 38 115 46 38 116 47 39 117 49 39 118 51 39 119 1 40 120 3 40 121 2 40 122 3 41 123 7 41 124 6 41 125 7 42 126 5 42 127 4 42 128 5 43 129 1 43 130 0 43 131 6 44 132 4 44 133 0 44 134 3 45 135 1 45 136 5 45 137 17 52 156 19 52 157 18 52 158 19 53 159 23 53 160 22 53 161 23 54 162 21 54 163 20 54 164 21 55 165 17 55 166 16 55 167 22 56 168 20 56 169 16 56 170 19 57 171 17 57 172 21 57 173 25 58 174 27 58 175 26 58 176 27 59 177 31 59 178 30 59 179 31 60 180 29 60 181 28 60 182 29 61 183 25 61 184 24 61 185 30 62 186 28 62 187 24 62 188 27 63 189 25 63 190 29 63 191 45 70 210 47 70 211 46 70 212 47 71 213 51 71 214 50 71 215 51 72 216 49 72 217 48 72 218 49 73 219 45 73 220 44 73 221 50 74 222 48 74 223 44 74 224 47 75 225 45 75 226 49 75 227</p>
        </triangles>
        <triangles material="Material_004-material" count="12">
          <input semantic="VERTEX" source="#Cube_127-mesh-vertices" offset="0"/>
          <input semantic="NORMAL" source="#Cube_127-mesh-normals" offset="1"/>
          <input semantic="TEXCOORD" source="#Cube_127-mesh-map-0" offset="2" set="0"/>
          <p>9 6 18 10 6 19 8 6 20 11 7 21 14 7 22 10 7 23 15 8 24 12 8 25 14 8 26 13 9 27 8 9 28 12 9 29 14 10 30 8 10 31 10 10 32 11 11 33 13 11 34 15 11 35 9 46 138 11 46 139 10 46 140 11 47 141 15 47 142 14 47 143 15 48 144 13 48 145 12 48 146 13 49 147 9 49 148 8 49 149 14 50 150 12 50 151 8 50 152 11 51 153 9 51 154 13 51 155</p>
        </triangles>
        <triangles material="Material_007-material" count="16">
          <input semantic="VERTEX" source="#Cube_127-mesh-vertices" offset="0"/>
          <input semantic="NORMAL" source="#Cube_127-mesh-normals" offset="1"/>
          <input semantic="TEXCOORD" source="#Cube_127-mesh-map-0" offset="2" set="0"/>
          <p>37 24 72 34 24 73 36 24 74 33 25 75 35 25 76 37 25 77 33 26 78 37 26 79 36 26 80 34 27 81 35 27 82 32 27 83 36 28 84 32 28 85 33 28 86 43 29 87 40 29 88 42 29 89 39 30 90 41 30 91 43 30 92 39 31 93 43 31 94 42 31 95 40 32 96 41 32 97 38 32 98 42 33 99 38 33 100 39 33 101 37 64 192 35 64 193 34 64 194 33 65 195 32 65 196 35 65 197 36 66 198 34 66 199 32 66 200 43 67 201 41 67 202 40 67 203 39 68 204 38 68 205 41 68 206 42 69 207 40 69 208 38 69 209</p>
        </triangles>
      </mesh>
    </geometry>
  </library_geometries>
  <library_visual_scenes>
    <visual_scene id="Scene" name="Scene">
      <node id="Cube_119" name="Cube.119" type="NODE">
        <matrix sid="transform">0.075 0 0 -0.2499997 0 0 -0.025 -0.3249997 0 0.32 0 0 0 0 0 1</matrix>
        <instance_geometry url="#Cube_127-mesh" name="Cube.119">
          <bind_material>
            <technique_common>
              <instance_material symbol="Material_001-material" target="#Material_001-material">
                <bind_vertex_input semantic="UVMap" input_semantic="TEXCOORD" input_set="0"/>
              </instance_material>
              <instance_material symbol="Material_004-material" target="#Material_004-material">
                <bind_vertex_input semantic="UVMap" input_semantic="TEXCOORD" input_set="0"/>
              </instance_material>
              <instance_material symbol="Material_007-material" target="#Material_007-material">
                <bind_vertex_input semantic="UVMap" input_semantic="TEXCOORD" input_set="0"/>
              </instance_material>
            </technique_common>
          </bind_material>
        </instance_geometry>
      </node>
    </visual_scene>
  </library_visual_scenes>
  <scene>
    <instance_visual_scene url="#Scene"/>
  </scene>
</COLLADA>