<?xml version="1.0" encoding="utf-8"?>
<COLLADA xmlns="http://www.collada.org/2005/11/COLLADASchema" version="1.4.1" xmlns:xsi="http://www.w3.org/2001/XMLSchema-instance">
  <asset>
    <contributor>
      <author>Blender User</author>
      <authoring_tool>Blender 4.5.10 LTS commit date:2026-05-18, commit time:13:28, hash:6dc0b208d1b5</authoring_tool>
    </contributor>
    <created>2026-06-18T08:57:38</created>
    <modified>2026-06-18T08:57:38</modified>
    <unit name="meter" meter="1"/>
    <up_axis>Z_UP</up_axis>
  </asset>
  <library_effects>
    <effect id="Material_010-effect">
      <profile_COMMON>
        <technique sid="common">
          <lambert>
            <emission>
              <color sid="emission">0 0 0 1</color>
            </emission>
            <diffuse>
              <color sid="diffuse">0.2 0 0 1</color>
            </diffuse>
            <index_of_refraction>
              <float sid="ior">1.5</float>
            </index_of_refraction>
          </lambert>
        </technique>
      </profile_COMMON>
    </effect>
  </library_effects>
  <library_images/>
  <library_materials>
    <material id="Material_010-material" name="Material.010">
      <instance_effect url="#Material_010-effect"/>
    </material>
  </library_materials>
  <library_geometries>
    <geometry id="Cube_116-mesh" name="Cube.116">
      <mesh>
        <source id="Cube_116-mesh-positions">
          <float_array id="Cube_116-mesh-positions-array" count="144">0.2912514 -1 -0.9915131 -0.2087486 -0.5 -0.9915131 0.1367428 -0.9755282 -0.9915131 -0.00264126 -0.9045085 -0.9915131 -0.1132571 -0.7938926 -0.9915131 -0.1842768 -0.6545085 -0.9915131 -0.2087486 -0.5 1.008487 0.2912514 -1 1.008487 -0.1842768 -0.6545085 1.008487 -0.1132571 -0.7938926 1.008487 -0.00264126 -0.9045085 1.008487 0.1367428 -0.9755282 1.008487 -0.2087486 0.5 -0.9915131 0.2912514 1 -0.9915131 -0.1842768 0.6545085 -0.9915131 -0.1132571 0.7938926 -0.9915131 -0.00264126 0.9045085 -0.9915131 0.1367428 0.9755282 -0.9915131 0.2912514 1 1.008487 -0.2087486 0.5 1.008487 0.1367428 0.9755282 1.008487 -0.00264126 0.9045085 1.008487 -0.1132571 0.7938926 1.008487 -0.1842768 0.6545085 1.008487 0.295173 -0.9501556 -0.9915131 -0.1589042 -0.4960784 -0.9915131 0.1521928 -0.9279758 -0.9915131 0.02674651 -0.8640577 -0.9915131 -0.07280635 -0.7645049 -0.9915131 -0.1367244 -0.6390585 -0.9915131 -0.1726635 -0.4971603 0.9739949 0.2940911 -0.9639149 0.9739949 -0.1491287 -0.6430885 0.9748113 -0.0833581 -0.7721695 0.9748113 0.01908183 -0.8746095 0.9748113 0.1481629 -0.9403801 0.9748113 -0.1589042 0.4960783 -0.9915131 0.295173 0.9501556 -0.9915131 -0.1367244 0.6390585 -0.9915131 -0.07280635 0.7645049 -0.9915131 0.02674651 0.8640577 -0.9915131 0.1521928 0.9279758 -0.9915131 0.2940911 0.9639149 0.9739949 -0.1726635 0.4971602 0.9739949 0.1481629 0.9403801 0.9748113 0.01908183 0.8746095 0.9748113 -0.0833581 0.7721695 0.9748113 -0.1491287 0.6430885 0.9748113</float_array>
          <technique_common>
            <accessor source="#Cube_116-mesh-positions-array" count="48" stride="3">
              <param name="X" type="float"/>
              <param name="Y" type="float"/>
              <param name="Z" type="float"/>
            </accessor>
          </technique_common>
        </source>
        <source id="Cube_116-mesh-normals">
          <float_array id="Cube_116-mesh-normals-array" count="276">-1 0 0 -0.1564346 -0.9876884 0 -0.4539905 -0.8910065 0 -0.7071068 -0.7071068 0 -0.8910065 -0.4539905 0 -0.9876884 -0.1564346 0 -0.1564346 0.9876884 0 -0.4539905 0.8910065 0 -0.7071068 0.7071068 0 -0.8910065 0.4539905 0 -0.9876884 0.1564345 0 0.9999755 0 0.007000207 0.1532878 0.9881568 0.007001817 0.4539837 0.8909859 0.006551086 0.7070916 0.7070916 0.00655061 0.8909875 0.4539807 0.006550848 0.9872162 0.1592518 0.006554067 0.1532878 -0.9881568 0.007001817 0.4539837 -0.8909859 0.006551086 0.7070916 -0.7070916 0.00655061 0.8909875 -0.4539807 0.006550848 0.9872162 -0.1592517 0.006554067 0 0 -1 0 0 -1 0 0 -1 0 0 -1 0 0 -1 0 0 -1 0 0 -1 0 0 -1 0 0 -1 0 0 -1 0 0 -1 0.9969192 0.078435 -3.3658e-7 0.9969178 -0.07845324 0 0.1060753 0.6697325 0.7349873 0.3078424 0.6041698 0.7349911 0.4794725 0.4794725 0.7349914 0.6041753 0.3078426 0.7349865 0.6817641 0.1139953 0.7226361 0.6909708 0 0.7228828 0.6697325 -0.1060752 0.7349873 0.6041698 -0.3078424 0.7349911 0.4794725 -0.4794725 0.7349914 0.3078426 -0.6041753 0.7349865 0.1139952 -0.681764 0.7226361 -1 0 0 -0.1564346 -0.9876884 0 -0.4539905 -0.8910065 0 -0.7071068 -0.7071068 0 -0.8910065 -0.4539905 0 -0.9876884 -0.1564346 0 -0.1564346 0.9876884 0 -0.4539905 0.8910065 0 -0.7071068 0.7071068 0 -0.8910065 0.4539905 0 -0.9876884 0.1564345 0 0.9999755 0 0.007000207 0.1592517 0.9872162 0.006554067 0.4539807 0.8909875 0.006550848 0.7070916 0.7070916 0.00655061 0.8909859 0.4539837 0.006551086 0.9881568 0.1532878 0.007001817 0.1592517 -0.9872162 0.006554067 0.4539807 -0.8909875 0.006550848 0.7070916 -0.7070916 0.00655061 0.8909859 -0.4539837 0.006551086 0.9881568 -0.1532877 0.007001817 0 0 -1 0 0 -1 0 0 -1 0 0 -1 0 0 -1 0 0 -1 0 0 -1 0 0 -1 0 0 -1 0 0 -1 0 0 -1 0.9969178 0.07845324 0 0.9969192 -0.078435 -3.36617e-7 0.1139952 0.681764 0.7226361 0.3078427 0.6041753 0.7349865 0.4794725 0.4794725 0.7349914 0.6041698 0.3078424 0.7349911 0.6697325 0.1060753 0.7349873 0.6909707 0 0.7228828 0.681764 -0.1139952 0.7226361 0.6041753 -0.3078427 0.7349865 0.4794725 -0.4794725 0.7349914 0.3078424 -0.6041698 0.7349911 0.1060753 -0.6697325 0.7349873</float_array>
          <technique_common>
            <accessor source="#Cube_116-mesh-normals-array" count="92" stride="3">
              <param name="X" type="float"/>
              <param name="Y" type="float"/>
              <param name="Z" type="float"/>
            </accessor>
          </technique_common>
        </source>
        <source id="Cube_116-mesh-map-0">
          <float_array id="Cube_116-mesh-map-0-array" count="552">0.625 0.0625 0.375 0.1875 0.375 0.0625 0.625 0.9375 0.375 0.9568136 0.375 0.9375 0.625 0.9568136 0.375 0.9742366 0.375 0.9568136 0.625 0.9742366 0.375 1 0.375 0.9742366 0.625 0.02576339 0.375 0.04318642 0.375 0.02576339 0.625 0.04318642 0.375 0.0625 0.375 0.04318642 0.375 0.3125 0.6939244 0.3631428 0.625 0.3125 0.3060756 0.3631428 0.6997066 0.3544852 0.6939244 0.3631428 0.3002935 0.3544852 0.7043163 0.3247433 0.6997066 0.3544852 0.2956838 0.3247433 0.7073011 0.3189371 0.7043163 0.3247433 0.2926989 0.3189371 0.625 0.1875 0.7073011 0.3189371 0.375 0.1875 0.625 0.0625 0.375 0.0625 0.375 0.9568136 0.625 0.9375 0.375 0.9375 0.375 0.9568136 0.625 0.9742366 0.625 0.9568136 0.375 1 0.625 0.9742366 0.375 0.9742366 0.375 0.04318642 0.625 0.02576339 0.375 0.02576339 0.375 0.04318642 0.625 0.0625 0.625 0.04318642 0.625 0.3125 0.3060756 0.3631428 0.375 0.3125 0.6997066 0.3544852 0.3060756 0.3631428 0.6939244 0.3631428 0.7043163 0.3247433 0.3002935 0.3544852 0.6997066 0.3544852 0.7043163 0.3247433 0.2926989 0.3189371 0.2956838 0.3247433 0.625 0.1875 0.2926989 0.3189371 0.7073011 0.3189371 0.375 0.9375 0.375 0.9568136 0.375 0.9375 0.375 0.9742366 0.375 0.9568136 0.375 0.9568136 0.375 1 0.375 0.9742366 0.375 0.9742366 0.375 0.02576339 0.375 0.04318642 0.375 0.02576339 0.375 0.0625 0.375 0.04318642 0.375 0.04318642 0.375 0.3125 0.3060756 0.3631428 0.3060756 0.3631428 0.3002935 0.3544852 0.3060756 0.3631428 0.3002935 0.3544852 0.3002935 0.3544852 0.2956838 0.3247433 0.2956838 0.3247433 0.2956838 0.3247433 0.2926989 0.3189371 0.2926989 0.3189371 0.375 0.1875 0.2926989 0.3189371 0.375 0.1875 0.375 0.1875 0.375 0.0625 0.375 0.0625 0.375 0.3125 0.625 0.3125 0.375 0.3125 0.375 0.9375 0.625 0.9375 0.625 0.9375 0.625 0.9375 0.625 0.9568136 0.625 0.9568136 0.625 0.9742366 0.625 0.9568136 0.625 0.9742366 0.625 0.9742366 0.625 1 0.625 1 0.625 1 0.625 0.04318642 0.625 0.04318642 0.625 0.0625 0.625 0.04318642 0.625 0.0625 0.625 0.0625 0.625 0.1875 0.625 0.1875 0.625 0.1875 0.7073011 0.3189371 0.7073011 0.3189371 0.7043163 0.3247433 0.7073011 0.3189371 0.7043163 0.3247433 0.7043163 0.3247433 0.6997066 0.3544852 0.6997066 0.3544852 0.6997066 0.3544852 0.6939244 0.3631428 0.6939244 0.3631428 0.625 0.3125 0.6939244 0.3631428 0.625 0.3125 0.625 0.0625 0.625 0.1875 0.375 0.1875 0.625 0.9375 0.625 0.9568136 0.375 0.9568136 0.625 0.9568136 0.625 0.9742366 0.375 0.9742366 0.625 0.9742366 0.625 1 0.375 1 0.625 0.02576339 0.625 0.04318642 0.375 0.04318642 0.625 0.04318642 0.625 0.0625 0.375 0.0625 0.375 0.3125 0.3060756 0.3631428 0.6939244 0.3631428 0.3060756 0.3631428 0.3002935 0.3544852 0.6997066 0.3544852 0.3002935 0.3544852 0.2956838 0.3247433 0.7043163 0.3247433 0.2956838 0.3247433 0.2926989 0.3189371 0.7073011 0.3189371 0.2926989 0.3189371 0.375 0.1875 0.625 0.1875 0.375 0.1875 0.625 0.1875 0.625 0.0625 0.375 0.9568136 0.625 0.9568136 0.625 0.9375 0.375 0.9568136 0.375 0.9742366 0.625 0.9742366 0.375 1 0.625 1 0.625 0.9742366 0.375 0.04318642 0.625 0.04318642 0.625 0.02576339 0.375 0.04318642 0.375 0.0625 0.625 0.0625 0.625 0.3125 0.6939244 0.3631428 0.3060756 0.3631428 0.6997066 0.3544852 0.3002935 0.3544852 0.3060756 0.3631428 0.7043163 0.3247433 0.2956838 0.3247433 0.3002935 0.3544852 0.7043163 0.3247433 0.7073011 0.3189371 0.2926989 0.3189371 0.625 0.1875 0.375 0.1875 0.2926989 0.3189371 0.375 0.9375 0.375 0.9568136 0.375 0.9568136 0.375 0.9742366 0.375 0.9742366 0.375 0.9568136 0.375 1 0.375 1 0.375 0.9742366 0.375 0.02576339 0.375 0.04318642 0.375 0.04318642 0.375 0.0625 0.375 0.0625 0.375 0.04318642 0.375 0.3125 0.375 0.3125 0.3060756 0.3631428 0.3002935 0.3544852 0.3060756 0.3631428 0.3060756 0.3631428 0.3002935 0.3544852 0.3002935 0.3544852 0.2956838 0.3247433 0.2956838 0.3247433 0.2956838 0.3247433 0.2926989 0.3189371 0.375 0.1875 0.2926989 0.3189371 0.2926989 0.3189371 0.375 0.1875 0.375 0.1875 0.375 0.0625 0.375 0.3125 0.625 0.3125 0.625 0.3125 0.375 0.9375 0.375 0.9375 0.625 0.9375 0.625 0.9375 0.625 0.9375 0.625 0.9568136 0.625 0.9742366 0.625 0.9568136 0.625 0.9568136 0.625 0.9742366 0.625 0.9742366 0.625 1 0.625 1 0.625 0.02576339 0.625 0.04318642 0.625 0.0625 0.625 0.04318642 0.625 0.04318642 0.625 0.0625 0.625 0.0625 0.625 0.1875 0.625 0.1875 0.625 0.1875 0.7073011 0.3189371 0.7043163 0.3247433 0.7073011 0.3189371 0.7073011 0.3189371 0.7043163 0.3247433 0.7043163 0.3247433 0.6997066 0.3544852 0.6997066 0.3544852 0.6997066 0.3544852 0.6939244 0.3631428 0.625 0.3125 0.6939244 0.3631428 0.6939244 0.3631428</float_array>
          <technique_common>
            <accessor source="#Cube_116-mesh-map-0-array" count="276" stride="2">
              <param name="S" type="float"/>
              <param name="T" type="float"/>
            </accessor>
          </technique_common>
        </source>
        <vertices id="Cube_116-mesh-vertices">
          <input semantic="POSITION" source="#Cube_116-mesh-positions"/>
        </vertices>
        <triangles material="Material_010-material" count="92">
          <input semantic="VERTEX" source="#Cube_116-mesh-vertices" offset="0"/>
          <input semantic="NORMAL" source="#Cube_116-mesh-normals" offset="1"/>
          <input semantic="TEXCOORD" source="#Cube_116-mesh-map-0" offset="2" set="0"/>
          <p>6 0 0 12 0 1 1 0 2 7 1 3 2 1 4 0 1 5 11 2 6 3 2 7 2 2 8 10 3 9 4 3 10 3 3 11 9 4 12 5 4 13 4 4 14 8 5 15 1 5 16 5 5 17 13 6 18 20 6 19 18 6 20 17 7 21 21 7 22 20 7 23 16 8 24 22 8 25 21 8 26 15 9 27 23 9 28 22 9 29 14 10 30 19 10 31 23 10 32 36 11 33 30 11 34 25 11 35 26 12 36 31 12 37 24 12 38 26 13 39 34 13 40 35 13 41 28 14 42 34 14 43 27 14 44 29 15 45 33 15 46 28 15 47 29 16 48 30 16 49 32 16 50 42 17 51 41 17 52 37 17 53 45 18 54 41 18 55 44 18 56 46 19 57 40 19 58 45 19 59 46 20 60 38 20 61 39 20 62 43 21 63 38 21 64 47 21 65 0 22 66 26 22 67 24 22 68 3 23 69 26 23 70 2 23 71 4 24 72 27 24 73 3 24 74 4 25 75 29 25 76 28 25 77 1 26 78 29 26 79 5 26 80 13 27 81 41 27 82 17 27 83 16 28 84 41 28 85 40 28 86 16 29 87 39 29 88 15 29 89 15 30 90 38 30 91 14 30 92 12 31 93 38 31 94 36 31 95 12 32 96 25 32 97 1 32 98 13 33 99 42 33 100 37 33 101 0 34 102 31 34 103 7 34 104 7 35 105 35 35 106 11 35 107 10 36 108 35 36 109 34 36 110 10 37 111 33 37 112 9 37 113 9 38 114 32 38 115 8 38 116 6 39 117 32 39 118 30 39 119 6 40 120 43 40 121 19 40 122 19 41 123 47 41 124 23 41 125 22 42 126 47 42 127 46 42 128 22 43 129 45 43 130 21 43 131 21 44 132 44 44 133 20 44 134 18 45 135 44 45 136 42 45 137 6 46 138 19 46 139 12 46 140 7 47 141 11 47 142 2 47 143 11 48 144 10 48 145 3 48 146 10 49 147 9 49 148 4 49 149 9 50 150 8 50 151 5 50 152 8 51 153 6 51 154 1 51 155 13 52 156 17 52 157 20 52 158 17 53 159 16 53 160 21 53 161 16 54 162 15 54 163 22 54 164 15 55 165 14 55 166 23 55 167 14 56 168 12 56 169 19 56 170 36 57 171 43 57 172 30 57 173 26 58 174 35 58 175 31 58 176 26 59 177 27 59 178 34 59 179 28 60 180 33 60 181 34 60 182 29 61 183 32 61 184 33 61 185 29 62 186 25 62 187 30 62 188 42 63 189 44 63 190 41 63 191 45 64 192 40 64 193 41 64 194 46 65 195 39 65 196 40 65 197 46 66 198 47 66 199 38 66 200 43 67 201 36 67 202 38 67 203 0 68 204 2 68 205 26 68 206 3 69 207 27 69 208 26 69 209 4 70 210 28 70 211 27 70 212 4 71 213 5 71 214 29 71 215 1 72 216 25 72 217 29 72 218 13 73 219 37 73 220 41 73 221 16 74 222 17 74 223 41 74 224 16 75 225 40 75 226 39 75 227 15 76 228 39 76 229 38 76 230 12 77 231 14 77 232 38 77 233 12 78 234 36 78 235 25 78 236 13 79 237 18 79 238 42 79 239 0 80 240 24 80 241 31 80 242 7 81 243 31 81 244 35 81 245 10 82 246 11 82 247 35 82 248 10 83 249 34 83 250 33 83 251 9 84 252 33 84 253 32 84 254 6 85 255 8 85 256 32 85 257 6 86 258 30 86 259 43 86 260 19 87 261 43 87 262 47 87 263 22 88 264 23 88 265 47 88 266 22 89 267 46 89 268 45 89 269 21 90 270 45 90 271 44 90 272 18 91 273 20 91 274 44 91 275</p>
        </triangles>
      </mesh>
    </geometry>
  </library_geometries>
  <library_visual_scenes>
    <visual_scene id="Scene" name="Scene">
      <node id="Cube_115" name="Cube.115" type="NODE">
        <matrix sid="transform">0.8 0 0 -0.6330011 0 0 -0.125 0.1374912 0 0.5 0 9.00279e-9 0 0 0 1</matrix>
        <instance_geometry url="#Cube_116-mesh" name="Cube.115">
          <bind_material>
            <technique_common>
              <instance_material symbol="Material_010-material" target="#Material_010-material">
                <bind_vertex_input semantic="UVMap" input_semantic="TEXCOORD" input_set="0"/>
              </instance_material>
            </technique_common>
          </bind_material>
        </instance_geometry>
      </node>
    </visual_scene>
  </library_visual_scenes>
  <scene>
    <instance_visual_scene url="#Scene"/>
  </scene>
</COLLADA>