<?xml version="1.0" encoding="utf-8"?>
<COLLADA xmlns="http://www.collada.org/2005/11/COLLADASchema" version="1.4.1" xmlns:xsi="http://www.w3.org/2001/XMLSchema-instance">
  <asset>
    <contributor>
      <author>Blender User</author>
      <authoring_tool>Blender 2.83.20 commit date:2022-04-19, commit time:16:00, hash:a56e2faeb7a9</authoring_tool>
    </contributor>
    <created>2026-06-17T14:53:06</created>
    <modified>2026-06-17T14:53:06</modified>
    <unit name="meter" meter="1"/>
    <up_axis>Z_UP</up_axis>
  </asset>
  <library_effects>
    <effect id="Material_006-effect">
      <profile_COMMON>
        <technique sid="common">
          <lambert>
            <emission>
              <color sid="emission">0 0 0 1</color>
            </emission>
            <diffuse>
              <color sid="diffuse">1 1 1 1</color>
            </diffuse>
            <reflectivity>
              <float sid="specular">0.5</float>
            </reflectivity>
          </lambert>
        </technique>
      </profile_COMMON>
    </effect>
  </library_effects>
  <library_images/>
  <library_materials>
    <material id="Material_006-material" name="Material.006">
      <instance_effect url="#Material_006-effect"/>
    </material>
  </library_materials>
  <library_geometries>
    <geometry id="Cube_005-mesh" name="Cube.005">
      <mesh>
        <source id="Cube_005-mesh-positions">
          <float_array id="Cube_005-mesh-positions-array" count="792">-0.5 -1 -1 -1 -0.5 -1 -0.6545085 -0.9755282 -1 -0.7938926 -0.9045085 -1 -0.9045085 -0.7938926 -1 -0.9755282 -0.6545085 -1 -0.5 -1 0.5 -0.5 -0.5 1 -1 -0.5 0.5 -0.5 -0.975519 0.6545374 -0.5 -0.9045441 0.7938436 -0.6545373 -0.9755189 0.5 -0.658634 -0.9465268 0.6595277 -0.6534637 -0.8795239 0.7870723 -0.7938435 -0.9045442 0.5 -0.7873277 -0.8791701 0.65386 -0.7645593 -0.8316878 0.7645593 -0.6545374 -0.5 0.975519 -0.7938436 -0.5 0.9045441 -0.5 -0.6545373 0.9755189 -0.6595277 -0.658634 0.9465268 -0.7870723 -0.6534637 0.8795239 -0.5 -0.7938435 0.9045442 -0.65386 -0.7873277 0.8791701 -0.7645593 -0.7645593 0.8316878 -0.975519 -0.6545374 0.5 -0.9045441 -0.7938436 0.5 -0.9755189 -0.5 0.6545373 -0.9465268 -0.6595277 0.658634 -0.8795239 -0.7870723 0.6534637 -0.9045442 -0.5 0.7938435 -0.8791701 -0.65386 0.7873277 -0.8316878 -0.7645593 0.7645593 -1 0.5 -1 -0.5 1 -1 -0.9755282 0.6545085 -1 -0.9045085 0.7938926 -1 -0.7938926 0.9045085 -1 -0.6545085 0.9755282 -1 -0.5 0.5 1 -0.5 1 0.5 -1 0.5 0.5 -0.5 0.6545374 0.975519 -0.5 0.7938436 0.9045441 -0.6545373 0.5 0.9755189 -0.658634 0.6595277 0.9465268 -0.6534637 0.7870723 0.8795239 -0.7938435 0.5 0.9045442 -0.7873277 0.65386 0.8791701 -0.7645593 0.7645593 0.8316878 -0.6545374 0.975519 0.5 -0.7938436 0.9045441 0.5 -0.5 0.9755189 0.6545373 -0.6595277 0.9465268 0.658634 -0.7870723 0.8795239 0.6534637 -0.5 0.9045442 0.7938435 -0.65386 0.8791701 0.7873277 -0.7645593 0.8316878 0.7645593 -0.975519 0.5 0.6545374 -0.9045441 0.5 0.7938436 -0.9755189 0.6545373 0.5 -0.9465268 0.658634 0.6595277 -0.8795239 0.6534637 0.7870723 -0.9045442 0.7938435 0.5 -0.8791701 0.7873277 0.65386 -0.8316878 0.7645593 0.7645593 1 -0.5 -1 0.5 -1 -1 0.9755282 -0.6545085 -1 0.9045085 -0.7938926 -1 0.7938926 -0.9045085 -1 0.6545085 -0.9755282 -1 0.5 -0.5 1 0.5 -1 0.5 1 -0.5 0.5 0.5 -0.6545374 0.975519 0.5 -0.7938436 0.9045441 0.6545373 -0.5 0.9755189 0.658634 -0.6595277 0.9465268 0.6534637 -0.7870723 0.8795239 0.7938435 -0.5 0.9045442 0.7873277 -0.65386 0.8791701 0.7645593 -0.7645593 0.8316878 0.6545374 -0.975519 0.5 0.7938436 -0.9045441 0.5 0.5 -0.9755189 0.6545373 0.6595277 -0.9465268 0.658634 0.7870723 -0.8795239 0.6534637 0.5 -0.9045442 0.7938435 0.65386 -0.8791701 0.7873277 0.7645593 -0.8316878 0.7645593 0.975519 -0.5 0.6545374 0.9045441 -0.5 0.7938436 0.9755189 -0.6545373 0.5 0.9465268 -0.658634 0.6595277 0.8795239 -0.6534637 0.7870723 0.9045442 -0.7938435 0.5 0.8791701 -0.7873277 0.65386 0.8316878 -0.7645593 0.7645593 0.5 1 -1 1 0.5 -1 0.6545085 0.9755282 -1 0.7938926 0.9045085 -1 0.9045085 0.7938926 -1 0.9755282 0.6545085 -1 0.5 0.5 1 1 0.5 0.5 0.5 1 0.5 0.6545374 0.5 0.975519 0.7938436 0.5 0.9045441 0.5 0.6545373 0.9755189 0.6595277 0.658634 0.9465268 0.7870723 0.6534637 0.8795239 0.5 0.7938435 0.9045442 0.65386 0.7873277 0.8791701 0.7645593 0.7645593 0.8316878 0.975519 0.6545374 0.5 0.9045441 0.7938436 0.5 0.9755189 0.5 0.6545373 0.9465268 0.6595277 0.658634 0.8795239 0.7870723 0.6534637 0.9045442 0.5 0.7938435 0.8791701 0.65386 0.7873277 0.8316878 0.7645593 0.7645593 0.5 0.975519 0.6545374 0.5 0.9045441 0.7938436 0.6545373 0.9755189 0.5 0.658634 0.9465268 0.6595277 0.6534637 0.8795239 0.7870723 0.7938435 0.9045442 0.5 0.7873277 0.8791701 0.65386 0.7645593 0.8316878 0.7645593 -0.4960768 -0.9501556 -1 -0.9501556 -0.4960768 -1 -0.6390585 -0.9279758 -1 -0.7645049 -0.8640577 -1 -0.8640577 -0.7645049 -1 -0.9279758 -0.6390585 -1 -0.4959914 -0.9503235 0.4959914 -0.4959914 -0.4959914 0.9503235 -0.9503235 -0.4959914 0.4959914 -0.4959929 -0.9281237 0.639124 -0.4962294 -0.8641895 0.7645671 -0.6391163 -0.9281283 0.4959776 -0.6432939 -0.9014952 0.6441418 -0.6391932 -0.8409882 0.7585909 -0.7645778 -0.8641834 0.4962127 -0.7588371 -0.8406481 0.6395682 -0.7387818 -0.7974674 0.7387849 -0.639124 -0.4959929 0.9281237 -0.7645671 -0.4962294 0.8641895 -0.4959776 -0.6391163 0.9281283 -0.6441418 -0.6432939 0.9014952 -0.7585909 -0.6391932 0.8409882 -0.4962127 -0.7645778 0.8641834 -0.6395682 -0.7588371 0.8406481 -0.7387849 -0.7387818 0.7974674 -0.9281237 -0.639124 0.4959929 -0.8641895 -0.7645671 0.4962294 -0.9281283 -0.4959776 0.6391163 -0.9014952 -0.6441418 0.6432939 -0.8409882 -0.7585909 0.6391932 -0.8641834 -0.4962127 0.7645778 -0.8406481 -0.6395682 0.7588371 -0.7974674 -0.7387849 0.7387818 -0.9501556 0.4960768 -1 -0.4960768 0.9501556 -1 -0.9279758 0.6390585 -1 -0.8640577 0.7645049 -1 -0.7645049 0.8640577 -1 -0.6390585 0.9279758 -1 -0.4959914 0.4959914 0.9503235 -0.4959914 0.9503235 0.4959914 -0.9503235 0.4959914 0.4959914 -0.4959929 0.639124 0.9281237 -0.4962294 0.7645671 0.8641895 -0.6391163 0.4959776 0.9281283 -0.6432939 0.6441418 0.9014952 -0.6391932 0.7585909 0.8409882 -0.7645778 0.4962127 0.8641834 -0.7588371 0.6395682 0.8406481 -0.7387818 0.7387849 0.7974674 -0.639124 0.9281237 0.4959929 -0.7645671 0.8641895 0.4962294 -0.4959776 0.9281283 0.6391163 -0.6441418 0.9014952 0.6432939 -0.7585909 0.8409882 0.6391932 -0.4962127 0.8641834 0.7645778 -0.6395682 0.8406481 0.7588371 -0.7387849 0.7974674 0.7387818 -0.9281237 0.4959929 0.639124 -0.8641895 0.4962294 0.7645671 -0.9281283 0.6391163 0.4959776 -0.9014952 0.6432939 0.6441418 -0.8409882 0.6391932 0.7585909 -0.8641834 0.7645778 0.4962127 -0.8406481 0.7588371 0.6395682 -0.7974674 0.7387818 0.7387849 0.9501556 -0.4960768 -1 0.4960768 -0.9501556 -1 0.9279758 -0.6390585 -1 0.8640577 -0.7645049 -1 0.7645049 -0.8640577 -1 0.6390585 -0.9279758 -1 0.4959914 -0.4959914 0.9503235 0.4959914 -0.9503235 0.4959914 0.9503235 -0.4959914 0.4959914 0.4959929 -0.639124 0.9281237 0.4962294 -0.7645671 0.8641895 0.6391163 -0.4959776 0.9281283 0.6432939 -0.6441418 0.9014952 0.6391932 -0.7585909 0.8409882 0.7645778 -0.4962127 0.8641834 0.7588371 -0.6395682 0.8406481 0.7387818 -0.7387849 0.7974674 0.639124 -0.9281237 0.4959929 0.7645671 -0.8641895 0.4962294 0.4959776 -0.9281283 0.6391163 0.6441418 -0.9014952 0.6432939 0.7585909 -0.8409882 0.6391932 0.4962127 -0.8641834 0.7645778 0.6395682 -0.8406481 0.7588371 0.7387849 -0.7974674 0.7387818 0.9281237 -0.4959929 0.639124 0.8641895 -0.4962294 0.7645671 0.9281283 -0.6391163 0.4959776 0.9014952 -0.6432939 0.6441418 0.8409882 -0.6391932 0.7585909 0.8641834 -0.7645778 0.4962127 0.8406481 -0.7588371 0.6395682 0.7974674 -0.7387818 0.7387849 0.4960768 0.9501556 -1 0.9501556 0.4960768 -1 0.6390585 0.9279758 -1 0.7645049 0.8640577 -1 0.8640577 0.7645049 -1 0.9279758 0.6390585 -1 0.4959914 0.4959914 0.9503235 0.9503235 0.4959914 0.4959914 0.4959914 0.9503235 0.4959914 0.639124 0.4959929 0.9281237 0.7645671 0.4962294 0.8641895 0.4959776 0.6391163 0.9281283 0.6441418 0.6432939 0.9014952 0.7585909 0.6391932 0.8409882 0.4962127 0.7645778 0.8641834 0.6395682 0.7588371 0.8406481 0.7387849 0.7387818 0.7974674 0.9281237 0.639124 0.4959929 0.8641895 0.7645671 0.4962294 0.9281283 0.4959776 0.6391163 0.9014952 0.6441418 0.6432939 0.8409882 0.7585909 0.6391932 0.8641834 0.4962127 0.7645778 0.8406481 0.6395682 0.7588371 0.7974674 0.7387849 0.7387818 0.4959929 0.9281237 0.639124 0.4962294 0.8641895 0.7645671 0.6391163 0.9281283 0.4959776 0.6432939 0.9014952 0.6441418 0.6391932 0.8409882 0.7585909 0.7645778 0.8641834 0.4962127 0.7588371 0.8406481 0.6395682 0.7387818 0.7974674 0.7387849</float_array>
          <technique_common>
            <accessor source="#Cube_005-mesh-positions-array" count="264" stride="3">
              <param name="X" type="float"/>
              <param name="Y" type="float"/>
              <param name="Z" type="float"/>
            </accessor>
          </technique_common>
        </source>
        <source id="Cube_005-mesh-normals">
          <float_array id="Cube_005-mesh-normals-array" count="1422">0 -1 0 1 0 0 0 0 1 0 1 0 -0.1545837 -0.9758113 0.1545839 -0.1469504 -0.8813469 0.449036 -0.1449372 -0.6996408 0.69964 -0.4489232 -0.8811269 0.1486055 -0.4336208 -0.7923867 0.4290645 -0.4087662 -0.6458679 0.6447984 -0.1545839 -0.1545837 0.9758113 -0.449036 -0.1469504 0.8813469 -0.69964 -0.1449372 0.6996408 -0.1486055 -0.4489232 0.8811269 -0.4290645 -0.4336208 0.7923867 -0.6447984 -0.4087662 0.6458679 -0.9758113 -0.1545839 0.1545837 -0.8813469 -0.449036 0.1469504 -0.6996408 -0.69964 0.1449372 -0.8811269 -0.1486055 0.4489232 -0.7923867 -0.4290645 0.4336208 -0.6458679 -0.6447984 0.4087662 -0.5773504 -0.5773502 0.5773502 -0.1545839 0.1545832 0.9758114 -0.1469504 0.4490359 0.8813469 -0.1449373 0.6996403 0.6996404 -0.4489229 0.1486049 0.881127 -0.4336202 0.4290657 0.7923864 -0.4087663 0.6447993 0.6458669 -0.1545832 0.9758114 0.1545839 -0.449036 0.881347 0.1469504 -0.6996403 0.6996404 0.1449373 -0.1486049 0.881127 0.4489229 -0.4290657 0.7923864 0.4336202 -0.6447993 0.6458669 0.4087663 -0.9758114 0.1545839 0.1545832 -0.881347 0.1469504 0.449036 -0.6996404 0.1449373 0.6996403 -0.881127 0.4489229 0.1486049 -0.7923864 0.4336202 0.4290657 -0.6458669 0.4087663 0.6447993 -0.5773504 0.5773501 0.5773504 0.1545839 -0.1545832 0.9758114 0.1469504 -0.4490359 0.8813469 0.1449373 -0.6996403 0.6996404 0.4489229 -0.1486049 0.881127 0.4336202 -0.4290657 0.7923864 0.4087663 -0.6447993 0.6458669 0.1545832 -0.9758114 0.1545839 0.449036 -0.881347 0.1469504 0.6996403 -0.6996404 0.1449373 0.1486049 -0.881127 0.4489229 0.4290657 -0.7923864 0.4336202 0.6447993 -0.6458669 0.4087663 0.9758114 -0.1545839 0.1545832 0.881347 -0.1469504 0.449036 0.6996404 -0.1449373 0.6996403 0.881127 -0.4489229 0.1486049 0.7923864 -0.4336202 0.4290657 0.6458669 -0.4087663 0.6447993 0.5773504 -0.5773501 0.5773504 0.1545839 0.1545837 0.9758113 0.449036 0.1469504 0.8813469 0.69964 0.1449372 0.6996408 0.1486055 0.4489232 0.8811269 0.4290645 0.4336208 0.7923867 0.6447984 0.4087662 0.6458679 0.9758113 0.1545839 0.1545837 0.8813469 0.449036 0.1469504 0.6996408 0.69964 0.1449372 0.8811269 0.1486055 0.4489232 0.7923867 0.4290645 0.4336208 0.6458679 0.6447984 0.4087662 0.1545837 0.9758113 0.1545839 0.1469504 0.8813469 0.449036 0.1449372 0.6996408 0.69964 0.4489232 0.8811269 0.1486055 0.4336208 0.7923867 0.4290645 0.4087662 0.6458679 0.6447984 0.5773502 0.5773504 0.5773502 -0.1564346 -0.9876883 0 -0.4539906 -0.8910066 -6.26382e-6 -0.7071067 -0.707107 6.34174e-6 -0.891007 -0.4539899 -6.38209e-6 -0.9876884 -0.1564346 0 -0.1564639 0 0.9876837 -0.4539641 0 0.89102 -0.7071068 0 0.7071068 -0.8910202 0 0.4539637 -0.9876836 0 0.1564644 -0.1564639 0.9876837 3.10063e-6 -0.4539639 0.8910202 -3.17699e-6 -0.7071068 0.7071068 6.29571e-6 -0.8910197 0.4539648 -3.15035e-6 -0.9876838 0.1564636 3.15075e-6 0 0.1564639 0.9876837 0 0.453964 0.8910201 0 0.7071068 0.7071068 0 0.8910201 0.453964 0 0.9876837 0.156464 0.9876838 0.1564635 3.09327e-6 0.8910195 0.453965 -3.20876e-6 0.7071068 0.7071068 6.32248e-6 0.4539633 0.8910205 -3.25497e-6 0.1564644 0.9876836 3.17456e-6 0.1564639 0 0.9876837 0.4539641 0 0.89102 0.7071068 0 0.7071068 0.8910202 0 0.4539637 0.9876836 0 0.1564644 0.1564639 -0.9876837 3.10063e-6 0.4539639 -0.8910202 -3.17699e-6 0.7071068 -0.7071068 6.29571e-6 0.8910197 -0.4539648 -3.15035e-6 0.9876838 -0.1564636 3.15075e-6 0 -0.1564639 0.9876837 0 -0.453964 0.8910201 0 -0.7071068 0.7071068 0 -0.8910201 0.453964 0 -0.9876837 0.156464 -1 0 0 0 1 1.12253e-4 -1 0 1.12198e-4 0 0 -1 0 -1 1.12253e-4 0.1514895 0.9767804 -0.1514958 0.1441026 0.8817656 -0.4491371 0.1428338 0.6998608 -0.6998524 0.4490279 0.8815421 -0.1457993 0.4333082 0.7902438 -0.4333114 0.410202 0.6454454 -0.6443094 0.1514958 0.1514895 -0.9767804 0.4491371 0.1441026 -0.8817656 0.6998524 0.1428338 -0.6998609 0.1457993 0.4490279 -0.8815421 0.4333114 0.4333082 -0.7902438 0.6443094 0.410202 -0.6454454 0.9767804 0.1514958 -0.1514895 0.8817655 0.4491371 -0.1441026 0.6998608 0.6998524 -0.1428338 0.8815421 0.1457993 -0.4490279 0.7902438 0.4333114 -0.4333082 0.6454454 0.6443094 -0.410202 0.5773502 0.5773503 -0.5773503 0.1514896 -0.1514961 -0.9767804 0.1441027 -0.4491353 -0.8817663 0.1428346 -0.6998527 -0.6998604 0.4490289 -0.1458 -0.8815415 0.4333089 -0.4333116 -0.7902433 0.4102017 -0.6443088 -0.6454462 0.1514961 -0.9767804 -0.1514896 0.4491353 -0.8817663 -0.1441027 0.6998527 -0.6998604 -0.1428346 0.1458 -0.8815415 -0.4490289 0.4333116 -0.7902433 -0.4333089 0.6443088 -0.6454462 -0.4102016 0.9767804 -0.1514896 -0.1514961 0.8817663 -0.1441027 -0.4491353 0.6998604 -0.1428346 -0.6998527 0.8815415 -0.4490289 -0.1458 0.7902433 -0.4333089 -0.4333116 0.6454462 -0.4102017 -0.6443088 0.5773503 -0.5773504 -0.5773503 -0.1514896 0.1514961 -0.9767804 -0.1441027 0.4491353 -0.8817663 -0.1428346 0.6998527 -0.6998604 -0.4490289 0.1458 -0.8815415 -0.4333089 0.4333116 -0.7902433 -0.4102017 0.6443088 -0.6454462 -0.1514961 0.9767804 -0.1514896 -0.4491353 0.8817663 -0.1441027 -0.6998527 0.6998604 -0.1428346 -0.1458 0.8815415 -0.4490289 -0.4333116 0.7902433 -0.4333089 -0.6443088 0.6454462 -0.4102016 -0.9767804 0.1514896 -0.1514961 -0.8817663 0.1441027 -0.4491353 -0.6998604 0.1428346 -0.6998527 -0.8815415 0.4490289 -0.1458 -0.7902433 0.4333089 -0.4333116 -0.6454462 0.4102017 -0.6443088 -0.5773503 0.5773504 -0.5773503 -0.1514958 -0.1514895 -0.9767804 -0.4491371 -0.1441026 -0.8817656 -0.6998524 -0.1428338 -0.6998609 -0.1457993 -0.4490279 -0.8815421 -0.4333114 -0.4333082 -0.7902438 -0.6443094 -0.410202 -0.6454454 -0.9767804 -0.1514958 -0.1514895 -0.8817655 -0.4491371 -0.1441026 -0.6998608 -0.6998524 -0.1428338 -0.8815421 -0.1457993 -0.4490279 -0.7902438 -0.4333114 -0.4333082 -0.6454454 -0.6443094 -0.410202 -0.1514895 -0.9767804 -0.1514958 -0.1441026 -0.8817656 -0.4491371 -0.1428338 -0.6998608 -0.6998524 -0.4490279 -0.8815421 -0.1457993 -0.4333082 -0.7902438 -0.4333114 -0.410202 -0.6454454 -0.6443094 -0.5773503 -0.5773502 -0.5773503 0.1532442 0.9881883 1.02059e-4 0.4539899 0.8910068 1.08364e-4 0.7071068 0.7071068 9.39036e-5 0.8909552 0.4540914 9.74013e-5 0.9881814 0.1532896 1.04401e-4 0.1532439 0 -0.9881885 0.4540969 5.86716e-7 -0.8909524 0.7070905 3.39899e-6 -0.7071232 0.8909558 6.39845e-7 -0.4540902 0.9881849 -3.31872e-6 -0.1532667 0.1532667 -0.9881849 1.02111e-4 0.4539907 -0.8910064 1.08032e-4 0.70709 -0.7071236 9.16961e-5 0.8909516 -0.4540982 9.69875e-5 0.9881814 -0.15329 1.06593e-4 0 -0.1532441 -0.9881884 5.33378e-7 -0.4540975 -0.890952 3.3589e-6 -0.7070906 -0.7071229 6.39846e-7 -0.8909555 -0.4540909 -3.31872e-6 -0.9881849 -0.1532672 -0.9881851 -0.153266 1.02111e-4 -0.8910065 -0.4539907 1.07961e-4 -0.7071238 -0.7070898 9.1683e-5 -0.4540979 -0.8909518 9.69303e-5 -0.1532899 -0.9881814 1.06567e-4 -0.1532439 0 -0.9881885 -0.4540969 -5.86716e-7 -0.8909524 -0.7070905 -3.39899e-6 -0.7071232 -0.8909558 -6.39845e-7 -0.4540902 -0.9881849 3.31872e-6 -0.1532667 -0.1532667 0.9881849 1.02111e-4 -0.4539907 0.8910064 1.08032e-4 -0.70709 0.7071236 9.16961e-5 -0.8909516 0.4540982 9.69875e-5 -0.9881814 0.15329 1.06593e-4 0 0.1532441 -0.9881884 -5.33378e-7 0.4540975 -0.890952 -3.3589e-6 0.7070906 -0.7071229 -6.39846e-7 0.8909555 -0.4540909 3.31872e-6 0.9881849 -0.1532672 1 0 1.12198e-4 1.19581e-6 0 -1 -1.19581e-6 0 -1 -0.1718736 -0.9700099 0.1718733 -0.1624459 -0.8707929 0.4640378 -0.1450176 -0.6995695 0.6996945 -0.463126 -0.871123 0.1632761 -0.4290621 -0.7923728 0.4336487 -0.4094056 -0.6451297 0.6451315 -0.1718733 -0.1718736 0.9700099 -0.4640378 -0.1624459 0.8707929 -0.6996945 -0.1450176 0.6995695 -0.1632761 -0.4631261 0.871123 -0.4336487 -0.4290621 0.7923728 -0.6451315 -0.4094056 0.6451297 -0.9700099 -0.1718733 0.1718736 -0.8707929 -0.4640378 0.1624459 -0.6995695 -0.6996945 0.1450176 -0.871123 -0.1632761 0.4631261 -0.7923727 -0.4336487 0.4290621 -0.6451297 -0.6451315 0.4094056 -0.1718741 0.1718732 0.9700098 -0.1624456 0.4640379 0.870793 -0.1450169 0.6996938 0.6995704 -0.4631251 0.1632757 0.8711236 -0.4290617 0.4336488 0.7923729 -0.4094062 0.6451303 0.6451305 -0.1718732 0.9700098 0.1718741 -0.4640379 0.870793 0.1624456 -0.6996938 0.6995704 0.1450169 -0.1632757 0.8711236 0.4631251 -0.4336488 0.7923729 0.4290617 -0.6451303 0.6451305 0.4094062 -0.9700098 0.1718741 0.1718732 -0.870793 0.1624456 0.4640379 -0.6995704 0.1450169 0.6996938 -0.8711236 0.4631251 0.1632757 -0.7923729 0.4290617 0.4336488 -0.6451305 0.4094062 0.6451303 0.1718741 -0.1718732 0.9700098 0.1624456 -0.4640379 0.870793 0.1450169 -0.6996938 0.6995704 0.4631251 -0.1632757 0.8711236 0.4290617 -0.4336488 0.7923729 0.4094062 -0.6451303 0.6451305 0.1718732 -0.9700098 0.1718741 0.4640379 -0.870793 0.1624456 0.6996938 -0.6995704 0.1450169 0.1632757 -0.8711236 0.4631251 0.4336488 -0.7923729 0.4290617 0.6451303 -0.6451305 0.4094062 0.9700098 -0.1718741 0.1718732 0.870793 -0.1624456 0.4640379 0.6995704 -0.1450169 0.6996938 0.8711236 -0.4631251 0.1632757 0.7923729 -0.4290617 0.4336488 0.6451305 -0.4094062 0.6451303 0.1718733 0.1718736 0.9700099 0.4640378 0.1624459 0.8707929 0.6996945 0.1450176 0.6995695 0.1632761 0.4631261 0.871123 0.4336487 0.4290621 0.7923728 0.6451315 0.4094056 0.6451297 0.9700099 0.1718733 0.1718736 0.8707929 0.4640378 0.1624459 0.6995695 0.6996945 0.1450176 0.871123 0.1632761 0.4631261 0.7923727 0.4336487 0.4290621 0.6451297 0.6451315 0.4094056 0.1718736 0.9700099 0.1718733 0.1624459 0.8707929 0.4640378 0.1450176 0.6995695 0.6996945 0.463126 0.871123 0.1632761 0.4290621 0.7923728 0.4336487 0.4094056 0.6451297 0.6451315 -0.1564644 -0.9876836 3.1255e-6 -0.4539633 -0.8910205 -3.30407e-6 -0.7071068 -0.7071068 6.34547e-6 -0.8910195 -0.453965 -3.19889e-6 -0.9876838 -0.1564635 3.09519e-6 -0.156464 0 0.9876837 -0.453964 0 0.8910201 -0.7071068 0 0.7071068 -0.8910201 0 0.453964 -0.9876837 0 0.1564639 -0.1564346 0.9876883 0 -0.4539911 0.8910064 -6.31229e-6 -0.7071062 0.7071075 6.35033e-6 -0.8910073 0.453989 -6.35034e-6 -0.9876884 0.1564346 0 0 0.1564644 0.9876836 0 0.4539637 0.8910202 0 0.7071068 0.7071068 0 0.89102 0.4539641 0 0.9876837 0.1564639 0.9876884 0.1564346 0 0.891007 0.4539899 -6.3735e-6 0.7071067 0.707107 6.35033e-6 0.4539906 0.8910066 -6.22333e-6 0.1564346 0.9876883 0 0.156464 0 0.9876837 0.453964 0 0.8910201 0.7071068 0 0.7071068 0.8910201 0 0.453964 0.9876837 0 0.1564639 0.1564346 -0.9876883 0 0.4539911 -0.8910064 -6.31229e-6 0.7071062 -0.7071075 6.35033e-6 0.8910073 -0.453989 -6.35034e-6 0.9876884 -0.1564346 0 0 -0.1564644 0.9876836 0 -0.4539637 0.8910202 0 -0.7071068 0.7071068 0 -0.89102 0.4539641 0 -0.9876837 0.1564639 0 1 1.12221e-4 -1 0 1.12198e-4 0 -1 1.12221e-4 0.1697113 0.9707706 -0.1697134 0.1606913 0.8701767 -0.4658015 0.1429327 0.6997721 -0.699921 0.4648352 0.8705369 -0.1615355 0.431908 0.7917813 -0.4319002 0.4108781 0.6446565 -0.6446684 0.1697134 0.1697113 -0.9707706 0.4658015 0.1606913 -0.8701766 0.699921 0.1429327 -0.6997721 0.1615355 0.4648352 -0.8705369 0.4319002 0.431908 -0.7917813 0.6446684 0.4108781 -0.6446564 0.9707706 0.1697134 -0.1697113 0.8701766 0.4658015 -0.1606913 0.6997721 0.699921 -0.1429327 0.8705369 0.1615355 -0.4648352 0.7917813 0.4319002 -0.431908 0.6446565 0.6446684 -0.4108781 0.1697111 -0.1697148 -0.9707704 0.1606906 -0.4658027 -0.870176 0.1429327 -0.6999199 -0.6997732 0.4648337 -0.1615348 -0.8705379 0.4319081 -0.4319003 -0.7917812 0.4108788 -0.6446687 -0.6446557 0.1697148 -0.9707704 -0.1697111 0.4658027 -0.870176 -0.1606906 0.6999199 -0.6997732 -0.1429327 0.1615348 -0.8705379 -0.4648337 0.4319003 -0.7917812 -0.4319081 0.6446686 -0.6446557 -0.4108788 0.9707704 -0.1697111 -0.1697148 0.870176 -0.1606906 -0.4658027 0.6997732 -0.1429327 -0.6999199 0.8705379 -0.4648337 -0.1615348 0.7917813 -0.4319082 -0.4319004 0.6446557 -0.4108788 -0.6446687 -0.1697111 0.1697148 -0.9707704 -0.1606906 0.4658027 -0.870176 -0.1429327 0.6999199 -0.6997732 -0.4648337 0.1615348 -0.8705379 -0.4319081 0.4319003 -0.7917812 -0.4108788 0.6446687 -0.6446557 -0.1697148 0.9707704 -0.1697111 -0.4658027 0.870176 -0.1606906 -0.6999199 0.6997732 -0.1429327 -0.1615348 0.8705379 -0.4648337 -0.4319003 0.7917812 -0.4319081 -0.6446686 0.6446557 -0.4108788 -0.9707704 0.1697111 -0.1697148 -0.870176 0.1606906 -0.4658027 -0.6997732 0.1429327 -0.6999199 -0.8705379 0.4648337 -0.1615348 -0.7917813 0.4319082 -0.4319004 -0.6446557 0.4108788 -0.6446687 -0.1697134 -0.1697113 -0.9707706 -0.4658015 -0.1606913 -0.8701766 -0.699921 -0.1429327 -0.6997721 -0.1615355 -0.4648352 -0.8705369 -0.4319002 -0.431908 -0.7917813 -0.6446684 -0.4108781 -0.6446564 -0.9707706 -0.1697134 -0.1697113 -0.8701766 -0.4658015 -0.1606913 -0.6997721 -0.699921 -0.1429327 -0.8705369 -0.1615355 -0.4648352 -0.7917813 -0.4319002 -0.431908 -0.6446565 -0.6446684 -0.4108781 -0.1697113 -0.9707706 -0.1697134 -0.1606913 -0.8701767 -0.4658015 -0.1429327 -0.6997721 -0.699921 -0.4648352 -0.8705369 -0.1615355 -0.431908 -0.7917813 -0.4319002 -0.4108781 -0.6446565 -0.6446684 0.1532899 0.9881814 1.06589e-4 0.4540977 0.8909519 9.69635e-5 0.7071236 0.70709 9.1691e-5 0.8910065 0.4539907 1.07948e-4 0.9881849 0.1532663 1.02113e-4 0.1532668 3.31458e-6 -0.9881849 0.4540909 -6.28241e-7 -0.8909553 0.7071231 -3.41059e-6 -0.7070905 0.8909521 -5.06598e-7 -0.4540975 0.9881885 0 -0.153244 0.1532899 -0.9881814 1.04501e-4 0.4540902 -0.8909558 9.73253e-5 0.7071068 -0.7071068 9.39412e-5 0.891007 -0.4539899 1.08352e-4 0.9881884 -0.1532441 1.02117e-4 3.24105e-6 -0.1532667 -0.9881849 -5.88126e-7 -0.4540902 -0.8909558 -3.41059e-6 -0.7071232 -0.7070903 -5.77643e-7 -0.8909524 -0.4540969 0 -0.9881885 -0.1532439 -0.9881814 -0.1532896 1.04397e-4 -0.8909552 -0.4540914 9.74094e-5 -0.7071068 -0.7071068 9.38705e-5 -0.4539899 -0.8910068 1.08387e-4 -0.1532442 -0.9881884 1.02117e-4 -0.1532668 -3.31458e-6 -0.9881849 -0.4540909 6.28241e-7 -0.8909553 -0.7071231 3.41059e-6 -0.7070905 -0.8909521 5.06598e-7 -0.4540975 -0.9881885 0 -0.153244 -0.1532899 0.9881814 1.04501e-4 -0.4540902 0.8909558 9.73253e-5 -0.7071068 0.7071068 9.39412e-5 -0.891007 0.4539899 1.08352e-4 -0.9881884 0.1532441 1.02117e-4 -3.24105e-6 0.1532667 -0.9881849 5.88126e-7 0.4540902 -0.8909558 3.41059e-6 0.7071232 -0.7070903 5.77643e-7 0.8909524 -0.4540969 0 0.9881885 -0.1532439 1 0 1.12198e-4 -2.41054e-6 0 -1 2.41054e-6 0 -1</float_array>
          <technique_common>
            <accessor source="#Cube_005-mesh-normals-array" count="474" stride="3">
              <param name="X" type="float"/>
              <param name="Y" type="float"/>
              <param name="Z" type="float"/>
            </accessor>
          </technique_common>
        </source>
        <source id="Cube_005-mesh-map-0">
          <float_array id="Cube_005-mesh-map-0-array" count="3144">0.5625 0.8125 0.375 0.9375 0.375 0.8125 0.5625 0.5625 0.375 0.6875 0.375 0.5625 0.8125001 0.5625 0.6875 0.6875 0.6875 0.5625 0.5625 0.3125 0.375 0.4375 0.375 0.3125 0.5818172 0.9375 0.5625 0.9568172 0.5625 0.9375 0.5992305 0.9375001 0.582441 0.9573292 0.5818172 0.9375 0.625 0.9375 0.598384 0.956683 0.5992305 0.9375001 0.582441 0.9573292 0.5625 0.9742304 0.5625 0.9568172 0.582441 0.9573292 0.5955699 0.9705699 0.5817325 0.973416 0.625 0.9567325 0.5955699 0.9705699 0.598384 0.956683 0.8318173 0.6875 0.8125001 0.7068172 0.8125 0.6875001 0.8492305 0.6875 0.8324409 0.7073292 0.8318173 0.6875 0.875 0.6875 0.8483842 0.706683 0.8492305 0.6875 0.8324409 0.7073292 0.8125 0.7242304 0.8125001 0.7068172 0.8324409 0.7073292 0.8455699 0.72057 0.8317325 0.723416 0.875 0.7067325 0.8455699 0.72057 0.8483842 0.706683 0.5625001 0.04318279 0.5818172 0.0625 0.5625 0.0625 0.5625001 0.02576953 0.5823292 0.04255902 0.5625001 0.04318279 0.5625 0 0.5816829 0.02661591 0.5625001 0.02576953 0.5823292 0.04255902 0.5992305 0.0625 0.5818172 0.0625 0.5823292 0.04255902 0.5955699 0.02943009 0.598416 0.04326748 0.5817325 0 0.5955699 0.02943009 0.5816829 0.02661591 0.5955699 0.9705699 0.625 0.9705699 0.5955699 1 0.8125001 0.5431828 0.8318172 0.5625 0.8125001 0.5625 0.8125001 0.5257696 0.8323292 0.542559 0.8125001 0.5431828 0.8125 0.5 0.831683 0.526616 0.8125001 0.5257696 0.8323292 0.542559 0.8492305 0.5625 0.8318172 0.5625 0.8323292 0.542559 0.8455699 0.5294301 0.848416 0.5432675 0.8317325 0.5 0.8455699 0.5294301 0.831683 0.526616 0.5625001 0.2931828 0.5818172 0.3125 0.5625 0.3125 0.5625001 0.2757695 0.5823292 0.292559 0.5625001 0.2931828 0.5625 0.2242304 0.5816829 0.276616 0.5625001 0.2757695 0.5823292 0.292559 0.5992305 0.3125 0.5818172 0.3125 0.5823292 0.292559 0.5955699 0.2794301 0.598416 0.2932675 0.5817325 0.2234159 0.5955699 0.2794301 0.5816829 0.276616 0.5818172 0.1875 0.5625 0.2068172 0.5625 0.1875 0.5992305 0.1875 0.582441 0.2073292 0.5818172 0.1875 0.625 0.1875 0.598384 0.2066829 0.5992305 0.1875 0.582441 0.2073292 0.5625 0.2242304 0.5625 0.2068172 0.582441 0.2073292 0.5955699 0.2205699 0.5817325 0.2234159 0.625 0.2067325 0.5955699 0.2205699 0.598384 0.2066829 0.8455699 0.5294301 0.84557 0.5 0.875 0.5294301 0.6875 0.7068172 0.6681828 0.6875 0.6875 0.6875 0.6875 0.7242305 0.6676707 0.7074409 0.6875 0.7068172 0.6875 0.75 0.668317 0.723384 0.6875 0.7242305 0.6676707 0.7074409 0.6507696 0.6875001 0.6681828 0.6875 0.6676707 0.7074409 0.6544301 0.72057 0.651584 0.7067325 0.6682675 0.75 0.6544301 0.72057 0.668317 0.723384 0.5625001 0.7931829 0.5818172 0.8125 0.5625 0.8125 0.5625001 0.7757696 0.5823292 0.792559 0.5625001 0.7931829 0.5625 0.7242304 0.5816829 0.776616 0.5625001 0.7757696 0.5823292 0.792559 0.5992305 0.8125001 0.5818172 0.8125 0.5823292 0.792559 0.5955699 0.7794302 0.598416 0.7932675 0.5817325 0.723416 0.5955699 0.7794302 0.5816829 0.776616 0.5818172 0.6875 0.5625 0.7068172 0.5625 0.6875001 0.5992305 0.6875 0.582441 0.7073292 0.5818172 0.6875 0.6507696 0.6875001 0.598384 0.706683 0.5992305 0.6875 0.582441 0.7073292 0.5625 0.7242304 0.5625 0.7068172 0.582441 0.7073292 0.5955699 0.72057 0.5817325 0.723416 0.651584 0.7067325 0.5955699 0.72057 0.598384 0.706683 0.6544301 0.72057 0.65443 0.75 0.625 0.7205699 0.6681829 0.5625 0.6875 0.5431828 0.6875 0.5625 0.6507696 0.5625 0.6675591 0.5426708 0.6681829 0.5625 0.5992305 0.5625 0.6516159 0.543317 0.6507696 0.5625 0.6675591 0.5426708 0.6875 0.5257696 0.6875 0.5431828 0.6675591 0.5426708 0.6544301 0.5294301 0.6682675 0.526584 0.598416 0.5432675 0.6544301 0.5294301 0.6516159 0.543317 0.5625001 0.5431828 0.5818172 0.5625 0.5625 0.5625 0.5625001 0.5257696 0.5823292 0.542559 0.5625001 0.5431828 0.5625 0.4742304 0.5816829 0.526616 0.5625001 0.5257696 0.5823292 0.542559 0.5992305 0.5625 0.5818172 0.5625 0.5823292 0.542559 0.5955699 0.5294301 0.598416 0.5432675 0.5817325 0.473416 0.5955699 0.5294301 0.5816829 0.526616 0.5818172 0.4375 0.5625 0.4568172 0.5625 0.4375 0.5992305 0.4375 0.582441 0.4573292 0.5818172 0.4375 0.625 0.4375 0.598384 0.456683 0.5992305 0.4375 0.582441 0.4573292 0.5625 0.4742304 0.5625 0.4568172 0.582441 0.4573292 0.5955699 0.4705699 0.5817325 0.473416 0.625 0.4567325 0.5955699 0.4705699 0.598384 0.456683 0.6544301 0.5294301 0.625 0.5294301 0.65443 0.5 0.5625 0.9375 0.375 0.9568136 0.375 0.9375 0.375 0.9568136 0.5625 0.9742304 0.375 0.9742366 0.375 0.9742366 0.5625 1 0.375 1 0.5625001 0.02576953 0.375 0.04318642 0.375 0.02576339 0.375 0.04318642 0.5625 0.0625 0.375 0.0625 0.8125001 0.5625 0.8318173 0.6875 0.8125 0.6875001 0.8318172 0.5625 0.8492305 0.6875 0.8318173 0.6875 0.8492305 0.5625 0.875 0.6875 0.8492305 0.6875 0.5992305 0.1875 0.5818172 0.0625 0.5992305 0.0625 0.5818172 0.1875 0.5625 0.0625 0.5818172 0.0625 0.5625 0.3125 0.375 0.2931864 0.5625001 0.2931828 0.375 0.2931864 0.5625001 0.2757695 0.5625001 0.2931828 0.5625001 0.2757695 0.375 0.2242366 0.5625 0.2242304 0.5625 0.2242304 0.375 0.2068135 0.5625 0.2068172 0.375 0.2068135 0.5625 0.1875 0.5625 0.2068172 0.6875 0.5625 0.8125001 0.5431828 0.8125001 0.5625 0.6875 0.5431828 0.8125001 0.5257696 0.8125001 0.5431828 0.6875 0.5257696 0.8125 0.5 0.8125001 0.5257696 0.5992305 0.4375 0.5818172 0.3125 0.5992305 0.3125 0.5818172 0.4375 0.5625 0.3125 0.5818172 0.3125 0.5625 0.5625 0.375 0.5431864 0.5625001 0.5431828 0.375 0.5431864 0.5625001 0.5257696 0.5625001 0.5431828 0.5625001 0.5257696 0.375 0.4742366 0.5625 0.4742304 0.5625 0.4742304 0.375 0.4568136 0.5625 0.4568172 0.375 0.4568136 0.5625 0.4375 0.5625 0.4568172 0.6875 0.6875 0.6681829 0.5625 0.6875 0.5625 0.6681828 0.6875 0.6507696 0.5625 0.6681829 0.5625 0.6507696 0.6875001 0.5992305 0.5625 0.6507696 0.5625 0.5992305 0.6875 0.5818172 0.5625 0.5992305 0.5625 0.5818172 0.6875 0.5625 0.5625 0.5818172 0.5625 0.5625 0.8125 0.375 0.7931864 0.5625001 0.7931829 0.375 0.7931864 0.5625001 0.7757696 0.5625001 0.7931829 0.5625001 0.7757696 0.375 0.7242366 0.5625 0.7242304 0.5625 0.7242304 0.375 0.7068136 0.5625 0.7068172 0.375 0.7068136 0.5625 0.6875001 0.5625 0.7068172 0.8125 0.6875001 0.6875 0.7068172 0.6875 0.6875 0.8125001 0.7068172 0.6875 0.7242305 0.6875 0.7068172 0.8125 0.7242304 0.6875 0.75 0.6875 0.7242305 0.5992305 0.9375001 0.5818172 0.8125 0.5992305 0.8125001 0.5818172 0.9375 0.5625 0.8125 0.5818172 0.8125 0.5625 0.0625 0.375 0.1875 0.375 0.0625 0.375 0.9375 0.5625 0.8125 0.375 0.8125 0.375 0.6875 0.5625 0.5625 0.375 0.5625 0.6875 0.6875 0.8125001 0.5625 0.6875 0.5625 0.375 0.4375 0.5625 0.3125 0.375 0.3125 0.5625 0.9568172 0.5818172 0.9375 0.5625 0.9375 0.582441 0.9573292 0.5992305 0.9375001 0.5818172 0.9375 0.598384 0.956683 0.625 0.9375 0.5992305 0.9375001 0.5625 0.9742304 0.582441 0.9573292 0.5625 0.9568172 0.5817325 0.973416 0.598384 0.956683 0.582441 0.9573292 0.5955699 0.9705699 0.625 0.9567325 0.598384 0.956683 0.8125001 0.7068172 0.8318173 0.6875 0.8125 0.6875001 0.8324409 0.7073292 0.8492305 0.6875 0.8318173 0.6875 0.8483842 0.706683 0.875 0.6875 0.8492305 0.6875 0.8125 0.7242304 0.8324409 0.7073292 0.8125001 0.7068172 0.8317325 0.723416 0.8483842 0.706683 0.8324409 0.7073292 0.8455699 0.72057 0.875 0.7067325 0.8483842 0.706683 0.5818172 0.0625 0.5625001 0.04318279 0.5625 0.0625 0.5823292 0.04255902 0.5625001 0.02576953 0.5625001 0.04318279 0.5816829 0.02661591 0.5625 0 0.5625001 0.02576953 0.5992305 0.0625 0.5823292 0.04255902 0.5818172 0.0625 0.598416 0.04326748 0.5816829 0.02661591 0.5823292 0.04255902 0.5955699 0.02943009 0.5817325 0 0.5816829 0.02661591 0.5955699 0.9705699 0.5955699 1 0.625 0.9705699 0.8318172 0.5625 0.8125001 0.5431828 0.8125001 0.5625 0.8323292 0.542559 0.8125001 0.5257696 0.8125001 0.5431828 0.831683 0.526616 0.8125 0.5 0.8125001 0.5257696 0.8492305 0.5625 0.8323292 0.542559 0.8318172 0.5625 0.848416 0.5432675 0.831683 0.526616 0.8323292 0.542559 0.8455699 0.5294301 0.8317325 0.5 0.831683 0.526616 0.5818172 0.3125 0.5625001 0.2931828 0.5625 0.3125 0.5823292 0.292559 0.5625001 0.2757695 0.5625001 0.2931828 0.5816829 0.276616 0.5625 0.2242304 0.5625001 0.2757695 0.5992305 0.3125 0.5823292 0.292559 0.5818172 0.3125 0.598416 0.2932675 0.5816829 0.276616 0.5823292 0.292559 0.5955699 0.2794301 0.5817325 0.2234159 0.5816829 0.276616 0.5625 0.2068172 0.5818172 0.1875 0.5625 0.1875 0.582441 0.2073292 0.5992305 0.1875 0.5818172 0.1875 0.598384 0.2066829 0.625 0.1875 0.5992305 0.1875 0.5625 0.2242304 0.582441 0.2073292 0.5625 0.2068172 0.5817325 0.2234159 0.598384 0.2066829 0.582441 0.2073292 0.5955699 0.2205699 0.625 0.2067325 0.598384 0.2066829 0.8455699 0.5294301 0.875 0.5294301 0.84557 0.5 0.6681828 0.6875 0.6875 0.7068172 0.6875 0.6875 0.6676707 0.7074409 0.6875 0.7242305 0.6875 0.7068172 0.668317 0.723384 0.6875 0.75 0.6875 0.7242305 0.6507696 0.6875001 0.6676707 0.7074409 0.6681828 0.6875 0.651584 0.7067325 0.668317 0.723384 0.6676707 0.7074409 0.6544301 0.72057 0.6682675 0.75 0.668317 0.723384 0.5818172 0.8125 0.5625001 0.7931829 0.5625 0.8125 0.5823292 0.792559 0.5625001 0.7757696 0.5625001 0.7931829 0.5816829 0.776616 0.5625 0.7242304 0.5625001 0.7757696 0.5992305 0.8125001 0.5823292 0.792559 0.5818172 0.8125 0.598416 0.7932675 0.5816829 0.776616 0.5823292 0.792559 0.5955699 0.7794302 0.5817325 0.723416 0.5816829 0.776616 0.5625 0.7068172 0.5818172 0.6875 0.5625 0.6875001 0.582441 0.7073292 0.5992305 0.6875 0.5818172 0.6875 0.598384 0.706683 0.6507696 0.6875001 0.5992305 0.6875 0.5625 0.7242304 0.582441 0.7073292 0.5625 0.7068172 0.5817325 0.723416 0.598384 0.706683 0.582441 0.7073292 0.5955699 0.72057 0.651584 0.7067325 0.598384 0.706683 0.6544301 0.72057 0.625 0.7205699 0.65443 0.75 0.6875 0.5431828 0.6681829 0.5625 0.6875 0.5625 0.6675591 0.5426708 0.6507696 0.5625 0.6681829 0.5625 0.6516159 0.543317 0.5992305 0.5625 0.6507696 0.5625 0.6875 0.5257696 0.6675591 0.5426708 0.6875 0.5431828 0.6682675 0.526584 0.6516159 0.543317 0.6675591 0.5426708 0.6544301 0.5294301 0.598416 0.5432675 0.6516159 0.543317 0.5818172 0.5625 0.5625001 0.5431828 0.5625 0.5625 0.5823292 0.542559 0.5625001 0.5257696 0.5625001 0.5431828 0.5816829 0.526616 0.5625 0.4742304 0.5625001 0.5257696 0.5992305 0.5625 0.5823292 0.542559 0.5818172 0.5625 0.598416 0.5432675 0.5816829 0.526616 0.5823292 0.542559 0.5955699 0.5294301 0.5817325 0.473416 0.5816829 0.526616 0.5625 0.4568172 0.5818172 0.4375 0.5625 0.4375 0.582441 0.4573292 0.5992305 0.4375 0.5818172 0.4375 0.598384 0.456683 0.625 0.4375 0.5992305 0.4375 0.5625 0.4742304 0.582441 0.4573292 0.5625 0.4568172 0.5817325 0.473416 0.598384 0.456683 0.582441 0.4573292 0.5955699 0.4705699 0.625 0.4567325 0.598384 0.456683 0.6544301 0.5294301 0.65443 0.5 0.625 0.5294301 0.375 0.9375 0.5625 0.9568172 0.5625 0.9375 0.375 0.9742366 0.5625 0.9568172 0.375 0.9568136 0.375 1 0.5625 0.9742304 0.375 0.9742366 0.375 0.02576339 0.5625001 0.04318279 0.5625001 0.02576953 0.375 0.0625 0.5625001 0.04318279 0.375 0.04318642 0.8125 0.6875001 0.8318172 0.5625 0.8125001 0.5625 0.8318173 0.6875 0.8492305 0.5625 0.8318172 0.5625 0.875 0.6875 0.8492305 0.5625 0.8492305 0.6875 0.5992305 0.0625 0.5818172 0.1875 0.5992305 0.1875 0.5818172 0.0625 0.5625 0.1875 0.5818172 0.1875 0.5625001 0.2931828 0.375 0.3125 0.5625 0.3125 0.5625001 0.2931828 0.375 0.2757634 0.375 0.2931864 0.5625 0.2242304 0.375 0.2757634 0.5625001 0.2757695 0.5625 0.2068172 0.375 0.2242366 0.5625 0.2242304 0.5625 0.2068172 0.375 0.1875 0.375 0.2068135 0.8125001 0.5625 0.6875 0.5431828 0.6875 0.5625 0.8125001 0.5431828 0.6875 0.5257696 0.6875 0.5431828 0.8125 0.5 0.6875 0.5257696 0.8125001 0.5257696 0.5992305 0.3125 0.5818172 0.4375 0.5992305 0.4375 0.5818172 0.3125 0.5625 0.4375 0.5818172 0.4375 0.5625001 0.5431828 0.375 0.5625 0.5625 0.5625 0.5625001 0.5431828 0.375 0.5257634 0.375 0.5431864 0.5625 0.4742304 0.375 0.5257634 0.5625001 0.5257696 0.5625 0.4568172 0.375 0.4742366 0.5625 0.4742304 0.5625 0.4568172 0.375 0.4375 0.375 0.4568136 0.6875 0.5625 0.6681828 0.6875 0.6875 0.6875 0.6681829 0.5625 0.6507696 0.6875001 0.6681828 0.6875 0.5992305 0.5625 0.6507696 0.6875001 0.6507696 0.5625 0.5992305 0.5625 0.5818172 0.6875 0.5992305 0.6875 0.5818172 0.5625 0.5625 0.6875001 0.5818172 0.6875 0.5625001 0.7931829 0.375 0.8125 0.5625 0.8125 0.5625001 0.7931829 0.375 0.7757634 0.375 0.7931864 0.5625 0.7242304 0.375 0.7757634 0.5625001 0.7757696 0.5625 0.7068172 0.375 0.7242366 0.5625 0.7242304 0.5625 0.7068172 0.375 0.6875 0.375 0.7068136 0.6875 0.6875 0.8125001 0.7068172 0.8125 0.6875001 0.6875 0.7068172 0.8125 0.7242304 0.8125001 0.7068172 0.6875 0.75 0.8125 0.7242304 0.6875 0.7242305 0.5992305 0.8125001 0.5818172 0.9375 0.5992305 0.9375001 0.5818172 0.8125 0.5625 0.9375 0.5818172 0.9375 0.375 0.1875 0.5625 0.0625 0.375 0.0625 0.375 0.9375 0.375 0.9568136 0.375 0.9375 0.375 0.9742366 0.375 0.9568136 0.375 0.9568136 0.375 1 0.375 0.9742366 0.375 0.9742366 0.375 0.02576339 0.375 0.04318642 0.375 0.02576339 0.375 0.0625 0.375 0.04318642 0.375 0.04318642 0.375 0.3125 0.375 0.2931864 0.375 0.2931864 0.375 0.2757634 0.375 0.2931864 0.375 0.2757634 0.375 0.2757634 0.375 0.2242366 0.375 0.2242366 0.375 0.2242366 0.375 0.2068135 0.375 0.2068135 0.375 0.1875 0.375 0.2068135 0.375 0.1875 0.375 0.5625 0.375 0.5431864 0.375 0.5431864 0.375 0.5257634 0.375 0.5431864 0.375 0.5257634 0.375 0.5257634 0.375 0.4742366 0.375 0.4742366 0.375 0.4742366 0.375 0.4568136 0.375 0.4568136 0.375 0.4375 0.375 0.4568136 0.375 0.4375 0.375 0.8125 0.375 0.7931864 0.375 0.7931864 0.375 0.7757634 0.375 0.7931864 0.375 0.7757634 0.375 0.7757634 0.375 0.7242366 0.375 0.7242366 0.375 0.7242366 0.375 0.7068136 0.375 0.7068136 0.375 0.6875 0.375 0.7068136 0.375 0.6875 0.375 0.1875 0.375 0.0625 0.375 0.0625 0.375 0.9375 0.375 0.8125 0.375 0.8125 0.375 0.4375 0.375 0.3125 0.375 0.3125 0.375 0.6875 0.375 0.5625 0.375 0.5625 0.5625 0.8125 0.5625 0.9375 0.375 0.9375 0.5625 0.5625 0.5625 0.6875001 0.375 0.6875 0.8125001 0.5625 0.8125 0.6875001 0.6875 0.6875 0.5625 0.3125 0.5625 0.4375 0.375 0.4375 0.5818172 0.9375 0.582441 0.9573292 0.5625 0.9568172 0.5992305 0.9375001 0.598384 0.956683 0.582441 0.9573292 0.625 0.9375 0.625 0.9567325 0.598384 0.956683 0.582441 0.9573292 0.5817325 0.973416 0.5625 0.9742304 0.582441 0.9573292 0.598384 0.956683 0.5955699 0.9705699 0.625 0.9567325 0.625 0.9705699 0.5955699 0.9705699 0.8318173 0.6875 0.8324409 0.7073292 0.8125001 0.7068172 0.8492305 0.6875 0.8483842 0.706683 0.8324409 0.7073292 0.875 0.6875 0.875 0.7067325 0.8483842 0.706683 0.8324409 0.7073292 0.8317325 0.723416 0.8125 0.7242304 0.8324409 0.7073292 0.8483842 0.706683 0.8455699 0.72057 0.875 0.7067325 0.875 0.7205699 0.8455699 0.72057 0.5625001 0.04318279 0.5823292 0.04255902 0.5818172 0.0625 0.5625001 0.02576953 0.5816829 0.02661591 0.5823292 0.04255902 0.5625 0 0.5817325 0 0.5816829 0.02661591 0.5823292 0.04255902 0.598416 0.04326748 0.5992305 0.0625 0.5823292 0.04255902 0.5816829 0.02661591 0.5955699 0.02943009 0.5817325 0 0.5955699 0 0.5955699 0.02943009 0.8125001 0.5431828 0.8323292 0.542559 0.8318172 0.5625 0.8125001 0.5257696 0.831683 0.526616 0.8323292 0.542559 0.8125 0.5 0.8317325 0.5 0.831683 0.526616 0.8323292 0.542559 0.848416 0.5432675 0.8492305 0.5625 0.8323292 0.542559 0.831683 0.526616 0.8455699 0.5294301 0.8317325 0.5 0.84557 0.5 0.8455699 0.5294301 0.5625001 0.2931828 0.5823292 0.292559 0.5818172 0.3125 0.5625001 0.2757695 0.5816829 0.276616 0.5823292 0.292559 0.5625 0.2242304 0.5817325 0.2234159 0.5816829 0.276616 0.5823292 0.292559 0.598416 0.2932675 0.5992305 0.3125 0.5823292 0.292559 0.5816829 0.276616 0.5955699 0.2794301 0.5817325 0.2234159 0.5955699 0.2205699 0.5955699 0.2794301 0.5818172 0.1875 0.582441 0.2073292 0.5625 0.2068172 0.5992305 0.1875 0.598384 0.2066829 0.582441 0.2073292 0.625 0.1875 0.625 0.2067325 0.598384 0.2066829 0.582441 0.2073292 0.5817325 0.2234159 0.5625 0.2242304 0.582441 0.2073292 0.598384 0.2066829 0.5955699 0.2205699 0.625 0.2067325 0.625 0.2205699 0.5955699 0.2205699 0.6875 0.7068172 0.6676707 0.7074409 0.6681828 0.6875 0.6875 0.7242305 0.668317 0.723384 0.6676707 0.7074409 0.6875 0.75 0.6682675 0.75 0.668317 0.723384 0.6676707 0.7074409 0.651584 0.7067325 0.6507696 0.6875001 0.6676707 0.7074409 0.668317 0.723384 0.6544301 0.72057 0.6682675 0.75 0.65443 0.75 0.6544301 0.72057 0.5625001 0.7931829 0.5823292 0.792559 0.5818172 0.8125 0.5625001 0.7757696 0.5816829 0.776616 0.5823292 0.792559 0.5625 0.7242304 0.5817325 0.723416 0.5816829 0.776616 0.5823292 0.792559 0.598416 0.7932675 0.5992305 0.8125001 0.5823292 0.792559 0.5816829 0.776616 0.5955699 0.7794302 0.5817325 0.723416 0.5955699 0.72057 0.5955699 0.7794302 0.5818172 0.6875 0.582441 0.7073292 0.5625 0.7068172 0.5992305 0.6875 0.598384 0.706683 0.582441 0.7073292 0.6507696 0.6875001 0.651584 0.7067325 0.598384 0.706683 0.582441 0.7073292 0.5817325 0.723416 0.5625 0.7242304 0.582441 0.7073292 0.598384 0.706683 0.5955699 0.72057 0.651584 0.7067325 0.6544301 0.72057 0.5955699 0.72057 0.6681829 0.5625 0.6675591 0.5426708 0.6875 0.5431828 0.6507696 0.5625 0.6516159 0.543317 0.6675591 0.5426708 0.5992305 0.5625 0.598416 0.5432675 0.6516159 0.543317 0.6675591 0.5426708 0.6682675 0.526584 0.6875 0.5257696 0.6675591 0.5426708 0.6516159 0.543317 0.6544301 0.5294301 0.598416 0.5432675 0.5955699 0.5294301 0.6544301 0.5294301 0.5625001 0.5431828 0.5823292 0.542559 0.5818172 0.5625 0.5625001 0.5257696 0.5816829 0.526616 0.5823292 0.542559 0.5625 0.4742304 0.5817325 0.473416 0.5816829 0.526616 0.5823292 0.542559 0.598416 0.5432675 0.5992305 0.5625 0.5823292 0.542559 0.5816829 0.526616 0.5955699 0.5294301 0.5817325 0.473416 0.5955699 0.4705699 0.5955699 0.5294301 0.5818172 0.4375 0.582441 0.4573292 0.5625 0.4568172 0.5992305 0.4375 0.598384 0.456683 0.582441 0.4573292 0.625 0.4375 0.625 0.4567325 0.598384 0.456683 0.582441 0.4573292 0.5817325 0.473416 0.5625 0.4742304 0.582441 0.4573292 0.598384 0.456683 0.5955699 0.4705699 0.625 0.4567325 0.625 0.4705699 0.5955699 0.4705699 0.5625 0.9375 0.5625 0.9568172 0.375 0.9568136 0.375 0.9568136 0.5625 0.9568172 0.5625 0.9742304 0.375 0.9742366 0.5625 0.9742304 0.5625 1 0.5625001 0.02576953 0.5625001 0.04318279 0.375 0.04318642 0.375 0.04318642 0.5625001 0.04318279 0.5625 0.0625 0.8125001 0.5625 0.8318172 0.5625 0.8318173 0.6875 0.8318172 0.5625 0.8492305 0.5625 0.8492305 0.6875 0.8492305 0.5625 0.875 0.5625 0.875 0.6875 0.5992305 0.1875 0.5818172 0.1875 0.5818172 0.0625 0.5818172 0.1875 0.5625 0.1875 0.5625 0.0625 0.5625 0.3125 0.375 0.3125 0.375 0.2931864 0.375 0.2931864 0.375 0.2757634 0.5625001 0.2757695 0.5625001 0.2757695 0.375 0.2757634 0.375 0.2242366 0.5625 0.2242304 0.375 0.2242366 0.375 0.2068135 0.375 0.2068135 0.375 0.1875 0.5625 0.1875 0.6875 0.5625 0.6875 0.5431828 0.8125001 0.5431828 0.6875 0.5431828 0.6875 0.5257696 0.8125001 0.5257696 0.6875 0.5257696 0.6875 0.5 0.8125 0.5 0.5992305 0.4375 0.5818172 0.4375 0.5818172 0.3125 0.5818172 0.4375 0.5625 0.4375 0.5625 0.3125 0.5625 0.5625 0.375 0.5625 0.375 0.5431864 0.375 0.5431864 0.375 0.5257634 0.5625001 0.5257696 0.5625001 0.5257696 0.375 0.5257634 0.375 0.4742366 0.5625 0.4742304 0.375 0.4742366 0.375 0.4568136 0.375 0.4568136 0.375 0.4375 0.5625 0.4375 0.6875 0.6875 0.6681828 0.6875 0.6681829 0.5625 0.6681828 0.6875 0.6507696 0.6875001 0.6507696 0.5625 0.6507696 0.6875001 0.5992305 0.6875 0.5992305 0.5625 0.5992305 0.6875 0.5818172 0.6875 0.5818172 0.5625 0.5818172 0.6875 0.5625 0.6875001 0.5625 0.5625 0.5625 0.8125 0.375 0.8125 0.375 0.7931864 0.375 0.7931864 0.375 0.7757634 0.5625001 0.7757696 0.5625001 0.7757696 0.375 0.7757634 0.375 0.7242366 0.5625 0.7242304 0.375 0.7242366 0.375 0.7068136 0.375 0.7068136 0.375 0.6875 0.5625 0.6875001 0.8125 0.6875001 0.8125001 0.7068172 0.6875 0.7068172 0.8125001 0.7068172 0.8125 0.7242304 0.6875 0.7242305 0.8125 0.7242304 0.8125 0.75 0.6875 0.75 0.5992305 0.9375001 0.5818172 0.9375 0.5818172 0.8125 0.5818172 0.9375 0.5625 0.9375 0.5625 0.8125 0.5625 0.0625 0.5625 0.1875 0.375 0.1875 0.375 0.9375 0.5625 0.9375 0.5625 0.8125 0.375 0.6875 0.5625 0.6875001 0.5625 0.5625 0.6875 0.6875 0.8125 0.6875001 0.8125001 0.5625 0.375 0.4375 0.5625 0.4375 0.5625 0.3125 0.5625 0.9568172 0.582441 0.9573292 0.5818172 0.9375 0.582441 0.9573292 0.598384 0.956683 0.5992305 0.9375001 0.598384 0.956683 0.625 0.9567325 0.625 0.9375 0.5625 0.9742304 0.5817325 0.973416 0.582441 0.9573292 0.5817325 0.973416 0.5955699 0.9705699 0.598384 0.956683 0.5955699 0.9705699 0.625 0.9705699 0.625 0.9567325 0.8125001 0.7068172 0.8324409 0.7073292 0.8318173 0.6875 0.8324409 0.7073292 0.8483842 0.706683 0.8492305 0.6875 0.8483842 0.706683 0.875 0.7067325 0.875 0.6875 0.8125 0.7242304 0.8317325 0.723416 0.8324409 0.7073292 0.8317325 0.723416 0.8455699 0.72057 0.8483842 0.706683 0.8455699 0.72057 0.875 0.7205699 0.875 0.7067325 0.5818172 0.0625 0.5823292 0.04255902 0.5625001 0.04318279 0.5823292 0.04255902 0.5816829 0.02661591 0.5625001 0.02576953 0.5816829 0.02661591 0.5817325 0 0.5625 0 0.5992305 0.0625 0.598416 0.04326748 0.5823292 0.04255902 0.598416 0.04326748 0.5955699 0.02943009 0.5816829 0.02661591 0.5955699 0.02943009 0.5955699 0 0.5817325 0 0.8318172 0.5625 0.8323292 0.542559 0.8125001 0.5431828 0.8323292 0.542559 0.831683 0.526616 0.8125001 0.5257696 0.831683 0.526616 0.8317325 0.5 0.8125 0.5 0.8492305 0.5625 0.848416 0.5432675 0.8323292 0.542559 0.848416 0.5432675 0.8455699 0.5294301 0.831683 0.526616 0.8455699 0.5294301 0.84557 0.5 0.8317325 0.5 0.5818172 0.3125 0.5823292 0.292559 0.5625001 0.2931828 0.5823292 0.292559 0.5816829 0.276616 0.5625001 0.2757695 0.5816829 0.276616 0.5817325 0.2234159 0.5625 0.2242304 0.5992305 0.3125 0.598416 0.2932675 0.5823292 0.292559 0.598416 0.2932675 0.5955699 0.2794301 0.5816829 0.276616 0.5955699 0.2794301 0.5955699 0.2205699 0.5817325 0.2234159 0.5625 0.2068172 0.582441 0.2073292 0.5818172 0.1875 0.582441 0.2073292 0.598384 0.2066829 0.5992305 0.1875 0.598384 0.2066829 0.625 0.2067325 0.625 0.1875 0.5625 0.2242304 0.5817325 0.2234159 0.582441 0.2073292 0.5817325 0.2234159 0.5955699 0.2205699 0.598384 0.2066829 0.5955699 0.2205699 0.625 0.2205699 0.625 0.2067325 0.6681828 0.6875 0.6676707 0.7074409 0.6875 0.7068172 0.6676707 0.7074409 0.668317 0.723384 0.6875 0.7242305 0.668317 0.723384 0.6682675 0.75 0.6875 0.75 0.6507696 0.6875001 0.651584 0.7067325 0.6676707 0.7074409 0.651584 0.7067325 0.6544301 0.72057 0.668317 0.723384 0.6544301 0.72057 0.65443 0.75 0.6682675 0.75 0.5818172 0.8125 0.5823292 0.792559 0.5625001 0.7931829 0.5823292 0.792559 0.5816829 0.776616 0.5625001 0.7757696 0.5816829 0.776616 0.5817325 0.723416 0.5625 0.7242304 0.5992305 0.8125001 0.598416 0.7932675 0.5823292 0.792559 0.598416 0.7932675 0.5955699 0.7794302 0.5816829 0.776616 0.5955699 0.7794302 0.5955699 0.72057 0.5817325 0.723416 0.5625 0.7068172 0.582441 0.7073292 0.5818172 0.6875 0.582441 0.7073292 0.598384 0.706683 0.5992305 0.6875 0.598384 0.706683 0.651584 0.7067325 0.6507696 0.6875001 0.5625 0.7242304 0.5817325 0.723416 0.582441 0.7073292 0.5817325 0.723416 0.5955699 0.72057 0.598384 0.706683 0.5955699 0.72057 0.6544301 0.72057 0.651584 0.7067325 0.6875 0.5431828 0.6675591 0.5426708 0.6681829 0.5625 0.6675591 0.5426708 0.6516159 0.543317 0.6507696 0.5625 0.6516159 0.543317 0.598416 0.5432675 0.5992305 0.5625 0.6875 0.5257696 0.6682675 0.526584 0.6675591 0.5426708 0.6682675 0.526584 0.6544301 0.5294301 0.6516159 0.543317 0.6544301 0.5294301 0.5955699 0.5294301 0.598416 0.5432675 0.5818172 0.5625 0.5823292 0.542559 0.5625001 0.5431828 0.5823292 0.542559 0.5816829 0.526616 0.5625001 0.5257696 0.5816829 0.526616 0.5817325 0.473416 0.5625 0.4742304 0.5992305 0.5625 0.598416 0.5432675 0.5823292 0.542559 0.598416 0.5432675 0.5955699 0.5294301 0.5816829 0.526616 0.5955699 0.5294301 0.5955699 0.4705699 0.5817325 0.473416 0.5625 0.4568172 0.582441 0.4573292 0.5818172 0.4375 0.582441 0.4573292 0.598384 0.456683 0.5992305 0.4375 0.598384 0.456683 0.625 0.4567325 0.625 0.4375 0.5625 0.4742304 0.5817325 0.473416 0.582441 0.4573292 0.5817325 0.473416 0.5955699 0.4705699 0.598384 0.456683 0.5955699 0.4705699 0.625 0.4705699 0.625 0.4567325 0.375 0.9375 0.375 0.9568136 0.5625 0.9568172 0.375 0.9742366 0.5625 0.9742304 0.5625 0.9568172 0.375 1 0.5625 1 0.5625 0.9742304 0.375 0.02576339 0.375 0.04318642 0.5625001 0.04318279 0.375 0.0625 0.5625 0.0625 0.5625001 0.04318279 0.8125 0.6875001 0.8318173 0.6875 0.8318172 0.5625 0.8318173 0.6875 0.8492305 0.6875 0.8492305 0.5625 0.875 0.6875 0.875 0.5625 0.8492305 0.5625 0.5992305 0.0625 0.5818172 0.0625 0.5818172 0.1875 0.5818172 0.0625 0.5625 0.0625 0.5625 0.1875 0.5625001 0.2931828 0.375 0.2931864 0.375 0.3125 0.5625001 0.2931828 0.5625001 0.2757695 0.375 0.2757634 0.5625 0.2242304 0.375 0.2242366 0.375 0.2757634 0.5625 0.2068172 0.375 0.2068135 0.375 0.2242366 0.5625 0.2068172 0.5625 0.1875 0.375 0.1875 0.8125001 0.5625 0.8125001 0.5431828 0.6875 0.5431828 0.8125001 0.5431828 0.8125001 0.5257696 0.6875 0.5257696 0.8125 0.5 0.6875 0.5 0.6875 0.5257696 0.5992305 0.3125 0.5818172 0.3125 0.5818172 0.4375 0.5818172 0.3125 0.5625 0.3125 0.5625 0.4375 0.5625001 0.5431828 0.375 0.5431864 0.375 0.5625 0.5625001 0.5431828 0.5625001 0.5257696 0.375 0.5257634 0.5625 0.4742304 0.375 0.4742366 0.375 0.5257634 0.5625 0.4568172 0.375 0.4568136 0.375 0.4742366 0.5625 0.4568172 0.5625 0.4375 0.375 0.4375 0.6875 0.5625 0.6681829 0.5625 0.6681828 0.6875 0.6681829 0.5625 0.6507696 0.5625 0.6507696 0.6875001 0.5992305 0.5625 0.5992305 0.6875 0.6507696 0.6875001 0.5992305 0.5625 0.5818172 0.5625 0.5818172 0.6875 0.5818172 0.5625 0.5625 0.5625 0.5625 0.6875001 0.5625001 0.7931829 0.375 0.7931864 0.375 0.8125 0.5625001 0.7931829 0.5625001 0.7757696 0.375 0.7757634 0.5625 0.7242304 0.375 0.7242366 0.375 0.7757634 0.5625 0.7068172 0.375 0.7068136 0.375 0.7242366 0.5625 0.7068172 0.5625 0.6875001 0.375 0.6875 0.6875 0.6875 0.6875 0.7068172 0.8125001 0.7068172 0.6875 0.7068172 0.6875 0.7242305 0.8125 0.7242304 0.6875 0.75 0.8125 0.75 0.8125 0.7242304 0.5992305 0.8125001 0.5818172 0.8125 0.5818172 0.9375 0.5818172 0.8125 0.5625 0.8125 0.5625 0.9375 0.375 0.1875 0.5625 0.1875 0.5625 0.0625 0.375 0.9375 0.375 0.9568136 0.375 0.9568136 0.375 0.9742366 0.375 0.9742366 0.375 0.9568136 0.375 1 0.375 1 0.375 0.9742366 0.375 0.02576339 0.375 0.04318642 0.375 0.04318642 0.375 0.0625 0.375 0.0625 0.375 0.04318642 0.375 0.3125 0.375 0.3125 0.375 0.2931864 0.375 0.2757634 0.375 0.2931864 0.375 0.2931864 0.375 0.2757634 0.375 0.2757634 0.375 0.2242366 0.375 0.2242366 0.375 0.2242366 0.375 0.2068135 0.375 0.1875 0.375 0.2068135 0.375 0.2068135 0.375 0.5625 0.375 0.5625 0.375 0.5431864 0.375 0.5257634 0.375 0.5431864 0.375 0.5431864 0.375 0.5257634 0.375 0.5257634 0.375 0.4742366 0.375 0.4742366 0.375 0.4742366 0.375 0.4568136 0.375 0.4375 0.375 0.4568136 0.375 0.4568136 0.375 0.8125 0.375 0.8125 0.375 0.7931864 0.375 0.7757634 0.375 0.7931864 0.375 0.7931864 0.375 0.7757634 0.375 0.7757634 0.375 0.7242366 0.375 0.7242366 0.375 0.7242366 0.375 0.7068136 0.375 0.6875 0.375 0.7068136 0.375 0.7068136 0.375 0.1875 0.375 0.1875 0.375 0.0625 0.375 0.9375 0.375 0.9375 0.375 0.8125 0.375 0.4375 0.375 0.4375 0.375 0.3125 0.375 0.6875 0.375 0.6875 0.375 0.5625</float_array>
          <technique_common>
            <accessor source="#Cube_005-mesh-map-0-array" count="1572" stride="2">
              <param name="S" type="float"/>
              <param name="T" type="float"/>
            </accessor>
          </technique_common>
        </source>
        <vertices id="Cube_005-mesh-vertices">
          <input semantic="POSITION" source="#Cube_005-mesh-positions"/>
        </vertices>
        <triangles material="Material_006-material" count="524">
          <input semantic="VERTEX" source="#Cube_005-mesh-vertices" offset="0"/>
          <input semantic="NORMAL" source="#Cube_005-mesh-normals" offset="1"/>
          <input semantic="TEXCOORD" source="#Cube_005-mesh-map-0" offset="2" set="0"/>
          <p>73 0 0 0 0 1 67 0 2 106 1 3 66 1 4 100 1 5 39 2 6 72 2 7 105 2 8 40 3 9 99 3 10 34 3 11 9 4 12 11 4 13 6 4 14 10 5 15 12 5 16 9 5 17 22 6 18 13 6 19 10 6 20 12 7 21 14 7 22 11 7 23 12 8 24 16 8 25 15 8 26 23 9 27 16 9 28 13 9 29 17 10 30 19 10 31 7 10 32 18 11 33 20 11 34 17 11 35 30 12 36 21 12 37 18 12 38 20 13 39 22 13 40 19 13 41 20 14 42 24 14 43 23 14 44 31 15 45 24 15 46 21 15 47 25 16 48 27 16 49 8 16 50 26 17 51 28 17 52 25 17 53 14 18 54 29 18 55 26 18 56 28 19 57 30 19 58 27 19 59 28 20 60 32 20 61 31 20 62 15 21 63 32 21 64 29 21 65 16 22 66 24 22 67 32 22 68 42 23 69 44 23 70 39 23 71 43 24 72 45 24 73 42 24 74 55 25 75 46 25 76 43 25 77 45 26 78 47 26 79 44 26 80 45 27 81 49 27 82 48 27 83 56 28 84 49 28 85 46 28 86 50 29 87 52 29 88 40 29 89 51 30 90 53 30 91 50 30 92 63 31 93 54 31 94 51 31 95 53 32 96 55 32 97 52 32 98 53 33 99 57 33 100 56 33 101 64 34 102 57 34 103 54 34 104 58 35 105 60 35 106 41 35 107 59 36 108 61 36 109 58 36 110 47 37 111 62 37 112 59 37 113 61 38 114 63 38 115 60 38 116 61 39 117 65 39 118 64 39 119 48 40 120 65 40 121 62 40 122 49 41 123 57 41 124 65 41 125 75 42 126 77 42 127 72 42 128 76 43 129 78 43 130 75 43 131 88 44 132 79 44 133 76 44 134 78 45 135 80 45 136 77 45 137 78 46 138 82 46 139 81 46 140 89 47 141 82 47 142 79 47 143 83 48 144 85 48 145 73 48 146 84 49 147 86 49 148 83 49 149 96 50 150 87 50 151 84 50 152 86 51 153 88 51 154 85 51 155 86 52 156 90 52 157 89 52 158 97 53 159 90 53 160 87 53 161 91 54 162 93 54 163 74 54 164 92 55 165 94 55 166 91 55 167 80 56 168 95 56 169 92 56 170 94 57 171 96 57 172 93 57 173 94 58 174 98 58 175 97 58 176 81 59 177 98 59 178 95 59 179 82 60 180 90 60 181 98 60 182 108 61 183 110 61 184 105 61 185 109 62 186 111 62 187 108 62 188 121 63 189 112 63 190 109 63 191 111 64 192 113 64 193 110 64 194 111 65 195 115 65 196 114 65 197 122 66 198 115 66 199 112 66 200 116 67 201 118 67 202 106 67 203 117 68 204 119 68 205 116 68 206 129 69 207 120 69 208 117 69 209 119 70 210 121 70 211 118 70 212 119 71 213 123 71 214 122 71 215 130 72 216 123 72 217 120 72 218 124 73 219 126 73 220 107 73 221 125 74 222 127 74 223 124 74 224 113 75 225 128 75 226 125 75 227 127 76 228 129 76 229 126 76 230 127 77 231 131 77 232 130 77 233 114 78 234 131 78 235 128 78 236 115 79 237 123 79 238 131 79 239 6 80 240 2 80 241 0 80 242 2 81 243 14 81 244 3 81 245 3 82 246 26 82 247 4 82 248 26 83 249 5 83 250 4 83 251 5 84 252 8 84 253 1 84 254 39 85 255 17 85 256 7 85 257 44 86 258 18 86 259 17 86 260 47 87 261 30 87 262 18 87 263 59 88 264 27 88 265 30 88 266 58 89 267 8 89 268 27 89 269 40 90 270 38 90 271 50 90 272 38 91 273 51 91 274 50 91 275 51 92 276 36 92 277 63 92 278 63 93 279 35 93 280 60 93 281 35 94 282 41 94 283 60 94 284 105 95 285 42 95 286 39 95 287 110 96 288 43 96 289 42 96 290 113 97 291 55 97 292 43 97 293 125 98 294 52 98 295 55 98 296 124 99 297 40 99 298 52 99 299 106 100 300 104 100 301 116 100 302 104 101 303 117 101 304 116 101 305 117 102 306 102 102 307 129 102 308 129 103 309 101 103 310 126 103 311 101 104 312 107 104 313 126 104 314 72 105 315 108 105 316 105 105 317 77 106 318 109 106 319 108 106 320 80 107 321 121 107 322 109 107 323 92 108 324 118 108 325 121 108 326 91 109 327 106 109 328 118 109 329 73 110 330 71 110 331 83 110 332 71 111 333 84 111 334 83 111 335 84 112 336 69 112 337 96 112 338 96 113 339 68 113 340 93 113 341 68 114 342 74 114 343 93 114 344 7 115 345 75 115 346 72 115 347 19 116 348 76 116 349 75 116 350 22 117 351 88 117 352 76 117 353 10 118 354 85 118 355 88 118 356 9 119 357 73 119 358 85 119 359 8 120 360 33 120 361 1 120 362 132 121 363 205 121 364 199 121 365 198 122 366 238 122 367 232 122 368 204 123 369 171 123 370 237 123 371 231 124 372 172 124 373 166 124 374 143 125 375 141 125 376 138 125 377 144 126 378 142 126 379 141 126 380 145 127 381 154 127 382 142 127 383 146 128 384 144 128 385 143 128 386 147 129 387 145 129 388 144 129 389 148 130 390 155 130 391 145 130 392 151 131 393 149 131 394 139 131 395 152 132 396 150 132 397 149 132 398 153 133 399 162 133 400 150 133 401 154 134 402 152 134 403 151 134 404 155 135 405 153 135 406 152 135 407 156 136 408 163 136 409 153 136 410 159 137 411 157 137 412 140 137 413 160 138 414 158 138 415 157 138 416 161 139 417 146 139 418 158 139 419 162 140 420 160 140 421 159 140 422 163 141 423 161 141 424 160 141 425 164 142 426 147 142 427 161 142 428 148 143 429 164 143 430 156 143 431 176 144 432 174 144 433 171 144 434 177 145 435 175 145 436 174 145 437 178 146 438 187 146 439 175 146 440 179 147 441 177 147 442 176 147 443 180 148 444 178 148 445 177 148 446 181 149 447 188 149 448 178 149 449 184 150 450 182 150 451 172 150 452 185 151 453 183 151 454 182 151 455 186 152 456 195 152 457 183 152 458 187 153 459 185 153 460 184 153 461 188 154 462 186 154 463 185 154 464 189 155 465 196 155 466 186 155 467 192 156 468 190 156 469 173 156 470 193 157 471 191 157 472 190 157 473 194 158 474 179 158 475 191 158 476 195 159 477 193 159 478 192 159 479 196 160 480 194 160 481 193 160 482 197 161 483 180 161 484 194 161 485 181 162 486 197 162 487 189 162 488 209 163 489 207 163 490 204 163 491 210 164 492 208 164 493 207 164 494 211 165 495 220 165 496 208 165 497 212 166 498 210 166 499 209 166 500 213 167 501 211 167 502 210 167 503 214 168 504 221 168 505 211 168 506 217 169 507 215 169 508 205 169 509 218 170 510 216 170 511 215 170 512 219 171 513 228 171 514 216 171 515 220 172 516 218 172 517 217 172 518 221 173 519 219 173 520 218 173 521 222 174 522 229 174 523 219 174 524 225 175 525 223 175 526 206 175 527 226 176 528 224 176 529 223 176 530 227 177 531 212 177 532 224 177 533 228 178 534 226 178 535 225 178 536 229 179 537 227 179 538 226 179 539 230 180 540 213 180 541 227 180 542 214 181 543 230 181 544 222 181 545 242 182 546 240 182 547 237 182 548 243 183 549 241 183 550 240 183 551 244 184 552 253 184 553 241 184 554 245 185 555 243 185 556 242 185 557 246 186 558 244 186 559 243 186 560 247 187 561 254 187 562 244 187 563 250 188 564 248 188 565 238 188 566 251 189 567 249 189 568 248 189 569 252 190 570 261 190 571 249 190 572 253 191 573 251 191 574 250 191 575 254 192 576 252 192 577 251 192 578 255 193 579 262 193 580 252 193 581 258 194 582 256 194 583 239 194 584 259 195 585 257 195 586 256 195 587 260 196 588 245 196 589 257 196 590 261 197 591 259 197 592 258 197 593 262 198 594 260 198 595 259 198 596 263 199 597 246 199 598 260 199 599 247 200 600 263 200 601 255 200 602 132 201 603 143 201 604 138 201 605 135 202 606 143 202 607 134 202 608 136 203 609 146 203 610 135 203 611 136 204 612 157 204 613 158 204 614 133 205 615 157 205 616 137 205 617 139 206 618 176 206 619 171 206 620 149 207 621 179 207 622 176 207 623 162 208 624 179 208 625 150 208 626 162 209 627 190 209 628 191 209 629 159 210 630 173 210 631 190 210 632 182 211 633 166 211 634 172 211 635 182 212 636 169 212 637 170 212 638 195 213 639 169 213 640 183 213 641 192 214 642 168 214 643 195 214 644 192 215 645 165 215 646 167 215 647 171 216 648 242 216 649 237 216 650 174 217 651 245 217 652 242 217 653 187 218 654 245 218 655 175 218 656 187 219 657 256 219 658 257 219 659 184 220 660 239 220 661 256 220 662 248 221 663 232 221 664 238 221 665 248 222 666 235 222 667 236 222 668 261 223 669 235 223 670 249 223 671 258 224 672 234 224 673 261 224 674 258 225 675 231 225 676 233 225 677 237 226 678 209 226 679 204 226 680 240 227 681 212 227 682 209 227 683 253 228 684 212 228 685 241 228 686 253 229 687 223 229 688 224 229 689 250 230 690 206 230 691 223 230 692 215 231 693 199 231 694 205 231 695 215 232 696 202 232 697 203 232 698 228 233 699 202 233 700 216 233 701 225 234 702 201 234 703 228 234 704 225 235 705 198 235 706 200 235 707 204 236 708 151 236 709 139 236 710 207 237 711 154 237 712 151 237 713 220 238 714 154 238 715 208 238 716 220 239 717 141 239 718 142 239 719 217 240 720 138 240 721 141 240 722 165 241 723 140 241 724 133 241 725 0 123 726 134 123 727 132 123 728 3 123 729 134 123 730 2 123 731 4 123 732 135 123 733 3 123 734 4 123 735 137 123 736 136 123 737 1 123 738 137 123 739 5 123 740 34 123 741 170 123 742 38 123 743 37 123 744 170 123 745 169 123 746 37 123 747 168 123 748 36 123 749 36 123 750 167 123 751 35 123 752 33 123 753 167 123 754 165 123 755 100 123 756 236 123 757 104 123 758 103 123 759 236 123 760 235 123 761 103 123 762 234 123 763 102 123 764 102 123 765 233 123 766 101 123 767 99 123 768 233 123 769 231 123 770 67 123 771 203 123 772 71 123 773 70 123 774 203 123 775 202 123 776 70 123 777 201 123 778 69 123 779 69 123 780 200 123 781 68 123 782 66 123 783 200 123 784 198 123 785 33 242 786 133 242 787 1 242 788 0 123 789 199 123 790 67 123 791 99 123 792 166 123 793 34 123 794 66 243 795 232 243 796 100 243 797 73 0 798 6 0 799 0 0 800 106 1 801 74 1 802 66 1 803 39 2 804 7 2 805 72 2 806 40 3 807 107 3 808 99 3 809 9 244 810 12 244 811 11 244 812 10 245 813 13 245 814 12 245 815 22 246 816 23 246 817 13 246 818 12 247 819 15 247 820 14 247 821 12 248 822 13 248 823 16 248 824 23 249 825 24 249 826 16 249 827 17 250 828 20 250 829 19 250 830 18 251 831 21 251 832 20 251 833 30 252 834 31 252 835 21 252 836 20 253 837 23 253 838 22 253 839 20 254 840 21 254 841 24 254 842 31 255 843 32 255 844 24 255 845 25 256 846 28 256 847 27 256 848 26 257 849 29 257 850 28 257 851 14 258 852 15 258 853 29 258 854 28 259 855 31 259 856 30 259 857 28 260 858 29 260 859 32 260 860 15 261 861 16 261 862 32 261 863 42 262 864 45 262 865 44 262 866 43 263 867 46 263 868 45 263 869 55 264 870 56 264 871 46 264 872 45 265 873 48 265 874 47 265 875 45 266 876 46 266 877 49 266 878 56 267 879 57 267 880 49 267 881 50 268 882 53 268 883 52 268 884 51 269 885 54 269 886 53 269 887 63 270 888 64 270 889 54 270 890 53 271 891 56 271 892 55 271 893 53 272 894 54 272 895 57 272 896 64 273 897 65 273 898 57 273 899 58 274 900 61 274 901 60 274 902 59 275 903 62 275 904 61 275 905 47 276 906 48 276 907 62 276 908 61 277 909 64 277 910 63 277 911 61 278 912 62 278 913 65 278 914 48 279 915 49 279 916 65 279 917 75 280 918 78 280 919 77 280 920 76 281 921 79 281 922 78 281 923 88 282 924 89 282 925 79 282 926 78 283 927 81 283 928 80 283 929 78 284 930 79 284 931 82 284 932 89 285 933 90 285 934 82 285 935 83 286 936 86 286 937 85 286 938 84 287 939 87 287 940 86 287 941 96 288 942 97 288 943 87 288 944 86 289 945 89 289 946 88 289 947 86 290 948 87 290 949 90 290 950 97 291 951 98 291 952 90 291 953 91 292 954 94 292 955 93 292 956 92 293 957 95 293 958 94 293 959 80 294 960 81 294 961 95 294 962 94 295 963 97 295 964 96 295 965 94 296 966 95 296 967 98 296 968 81 297 969 82 297 970 98 297 971 108 298 972 111 298 973 110 298 974 109 299 975 112 299 976 111 299 977 121 300 978 122 300 979 112 300 980 111 301 981 114 301 982 113 301 983 111 302 984 112 302 985 115 302 986 122 303 987 123 303 988 115 303 989 116 304 990 119 304 991 118 304 992 117 305 993 120 305 994 119 305 995 129 306 996 130 306 997 120 306 998 119 307 999 122 307 1000 121 307 1001 119 308 1002 120 308 1003 123 308 1004 130 309 1005 131 309 1006 123 309 1007 124 310 1008 127 310 1009 126 310 1010 125 311 1011 128 311 1012 127 311 1013 113 312 1014 114 312 1015 128 312 1016 127 313 1017 130 313 1018 129 313 1019 127 314 1020 128 314 1021 131 314 1022 114 315 1023 115 315 1024 131 315 1025 6 316 1026 11 316 1027 2 316 1028 2 317 1029 11 317 1030 14 317 1031 3 318 1032 14 318 1033 26 318 1034 26 319 1035 25 319 1036 5 319 1037 5 320 1038 25 320 1039 8 320 1040 39 321 1041 44 321 1042 17 321 1043 44 322 1044 47 322 1045 18 322 1046 47 323 1047 59 323 1048 30 323 1049 59 324 1050 58 324 1051 27 324 1052 58 325 1053 41 325 1054 8 325 1055 40 326 1056 34 326 1057 38 326 1058 38 327 1059 37 327 1060 51 327 1061 51 328 1062 37 328 1063 36 328 1064 63 329 1065 36 329 1066 35 329 1067 35 330 1068 33 330 1069 41 330 1070 105 331 1071 110 331 1072 42 331 1073 110 332 1074 113 332 1075 43 332 1076 113 333 1077 125 333 1078 55 333 1079 125 334 1080 124 334 1081 52 334 1082 124 335 1083 107 335 1084 40 335 1085 106 336 1086 100 336 1087 104 336 1088 104 337 1089 103 337 1090 117 337 1091 117 338 1092 103 338 1093 102 338 1094 129 339 1095 102 339 1096 101 339 1097 101 340 1098 99 340 1099 107 340 1100 72 341 1101 77 341 1102 108 341 1103 77 342 1104 80 342 1105 109 342 1106 80 343 1107 92 343 1108 121 343 1109 92 344 1110 91 344 1111 118 344 1112 91 345 1113 74 345 1114 106 345 1115 73 346 1116 67 346 1117 71 346 1118 71 347 1119 70 347 1120 84 347 1121 84 348 1122 70 348 1123 69 348 1124 96 349 1125 69 349 1126 68 349 1127 68 350 1128 66 350 1129 74 350 1130 7 351 1131 19 351 1132 75 351 1133 19 352 1134 22 352 1135 76 352 1136 22 353 1137 10 353 1138 88 353 1139 10 354 1140 9 354 1141 85 354 1142 9 355 1143 6 355 1144 73 355 1145 8 120 1146 41 120 1147 33 120 1148 132 356 1149 138 356 1150 205 356 1151 198 357 1152 206 357 1153 238 357 1154 204 123 1155 139 123 1156 171 123 1157 231 358 1158 239 358 1159 172 358 1160 143 359 1161 144 359 1162 141 359 1163 144 360 1164 145 360 1165 142 360 1166 145 361 1167 155 361 1168 154 361 1169 146 362 1170 147 362 1171 144 362 1172 147 363 1173 148 363 1174 145 363 1175 148 364 1176 156 364 1177 155 364 1178 151 365 1179 152 365 1180 149 365 1181 152 366 1182 153 366 1183 150 366 1184 153 367 1185 163 367 1186 162 367 1187 154 368 1188 155 368 1189 152 368 1190 155 369 1191 156 369 1192 153 369 1193 156 370 1194 164 370 1195 163 370 1196 159 371 1197 160 371 1198 157 371 1199 160 372 1200 161 372 1201 158 372 1202 161 373 1203 147 373 1204 146 373 1205 162 374 1206 163 374 1207 160 374 1208 163 375 1209 164 375 1210 161 375 1211 164 376 1212 148 376 1213 147 376 1214 176 377 1215 177 377 1216 174 377 1217 177 378 1218 178 378 1219 175 378 1220 178 379 1221 188 379 1222 187 379 1223 179 380 1224 180 380 1225 177 380 1226 180 381 1227 181 381 1228 178 381 1229 181 382 1230 189 382 1231 188 382 1232 184 383 1233 185 383 1234 182 383 1235 185 384 1236 186 384 1237 183 384 1238 186 385 1239 196 385 1240 195 385 1241 187 386 1242 188 386 1243 185 386 1244 188 387 1245 189 387 1246 186 387 1247 189 388 1248 197 388 1249 196 388 1250 192 389 1251 193 389 1252 190 389 1253 193 390 1254 194 390 1255 191 390 1256 194 391 1257 180 391 1258 179 391 1259 195 392 1260 196 392 1261 193 392 1262 196 393 1263 197 393 1264 194 393 1265 197 394 1266 181 394 1267 180 394 1268 209 395 1269 210 395 1270 207 395 1271 210 396 1272 211 396 1273 208 396 1274 211 397 1275 221 397 1276 220 397 1277 212 398 1278 213 398 1279 210 398 1280 213 399 1281 214 399 1282 211 399 1283 214 400 1284 222 400 1285 221 400 1286 217 401 1287 218 401 1288 215 401 1289 218 402 1290 219 402 1291 216 402 1292 219 403 1293 229 403 1294 228 403 1295 220 404 1296 221 404 1297 218 404 1298 221 405 1299 222 405 1300 219 405 1301 222 406 1302 230 406 1303 229 406 1304 225 407 1305 226 407 1306 223 407 1307 226 408 1308 227 408 1309 224 408 1310 227 409 1311 213 409 1312 212 409 1313 228 410 1314 229 410 1315 226 410 1316 229 411 1317 230 411 1318 227 411 1319 230 412 1320 214 412 1321 213 412 1322 242 413 1323 243 413 1324 240 413 1325 243 414 1326 244 414 1327 241 414 1328 244 415 1329 254 415 1330 253 415 1331 245 416 1332 246 416 1333 243 416 1334 246 417 1335 247 417 1336 244 417 1337 247 418 1338 255 418 1339 254 418 1340 250 419 1341 251 419 1342 248 419 1343 251 420 1344 252 420 1345 249 420 1346 252 421 1347 262 421 1348 261 421 1349 253 422 1350 254 422 1351 251 422 1352 254 423 1353 255 423 1354 252 423 1355 255 424 1356 263 424 1357 262 424 1358 258 425 1359 259 425 1360 256 425 1361 259 426 1362 260 426 1363 257 426 1364 260 427 1365 246 427 1366 245 427 1367 261 428 1368 262 428 1369 259 428 1370 262 429 1371 263 429 1372 260 429 1373 263 430 1374 247 430 1375 246 430 1376 132 431 1377 134 431 1378 143 431 1379 135 432 1380 146 432 1381 143 432 1382 136 433 1383 158 433 1384 146 433 1385 136 434 1386 137 434 1387 157 434 1388 133 435 1389 140 435 1390 157 435 1391 139 436 1392 149 436 1393 176 436 1394 149 437 1395 150 437 1396 179 437 1397 162 438 1398 191 438 1399 179 438 1400 162 439 1401 159 439 1402 190 439 1403 159 440 1404 140 440 1405 173 440 1406 182 441 1407 170 441 1408 166 441 1409 182 442 1410 183 442 1411 169 442 1412 195 443 1413 168 443 1414 169 443 1415 192 444 1416 167 444 1417 168 444 1418 192 445 1419 173 445 1420 165 445 1421 171 446 1422 174 446 1423 242 446 1424 174 447 1425 175 447 1426 245 447 1427 187 448 1428 257 448 1429 245 448 1430 187 449 1431 184 449 1432 256 449 1433 184 450 1434 172 450 1435 239 450 1436 248 451 1437 236 451 1438 232 451 1439 248 452 1440 249 452 1441 235 452 1442 261 453 1443 234 453 1444 235 453 1445 258 454 1446 233 454 1447 234 454 1448 258 455 1449 239 455 1450 231 455 1451 237 456 1452 240 456 1453 209 456 1454 240 457 1455 241 457 1456 212 457 1457 253 458 1458 224 458 1459 212 458 1460 253 459 1461 250 459 1462 223 459 1463 250 460 1464 238 460 1465 206 460 1466 215 461 1467 203 461 1468 199 461 1469 215 462 1470 216 462 1471 202 462 1472 228 463 1473 201 463 1474 202 463 1475 225 464 1476 200 464 1477 201 464 1478 225 465 1479 206 465 1480 198 465 1481 204 466 1482 207 466 1483 151 466 1484 207 467 1485 208 467 1486 154 467 1487 220 468 1488 142 468 1489 154 468 1490 220 469 1491 217 469 1492 141 469 1493 217 470 1494 205 470 1495 138 470 1496 165 471 1497 173 471 1498 140 471 1499 0 123 1500 2 123 1501 134 123 1502 3 123 1503 135 123 1504 134 123 1505 4 123 1506 136 123 1507 135 123 1508 4 123 1509 5 123 1510 137 123 1511 1 123 1512 133 123 1513 137 123 1514 34 123 1515 166 123 1516 170 123 1517 37 123 1518 38 123 1519 170 123 1520 37 123 1521 169 123 1522 168 123 1523 36 123 1524 168 123 1525 167 123 1526 33 123 1527 35 123 1528 167 123 1529 100 123 1530 232 123 1531 236 123 1532 103 123 1533 104 123 1534 236 123 1535 103 123 1536 235 123 1537 234 123 1538 102 123 1539 234 123 1540 233 123 1541 99 123 1542 101 123 1543 233 123 1544 67 123 1545 199 123 1546 203 123 1547 70 123 1548 71 123 1549 203 123 1550 70 123 1551 202 123 1552 201 123 1553 69 123 1554 201 123 1555 200 123 1556 66 123 1557 68 123 1558 200 123 1559 33 472 1560 165 472 1561 133 472 1562 0 123 1563 132 123 1564 199 123 1565 99 123 1566 231 123 1567 166 123 1568 66 473 1569 198 473 1570 232 473 1571</p>
        </triangles>
      </mesh>
    </geometry>
  </library_geometries>
  <library_visual_scenes>
    <visual_scene id="Scene" name="Scene">
      <node id="base" name="base" type="NODE">
        <matrix sid="transform">0.5725 0 0 0 0 0 -0.1 0 0 0.4075 0 0 0 0 0 1</matrix>
        <instance_geometry url="#Cube_005-mesh" name="base">
          <bind_material>
            <technique_common>
              <instance_material symbol="Material_006-material" target="#Material_006-material">
                <bind_vertex_input semantic="UVMap" input_semantic="TEXCOORD" input_set="0"/>
              </instance_material>
            </technique_common>
          </bind_material>
        </instance_geometry>
      </node>
    </visual_scene>
  </library_visual_scenes>
  <scene>
    <instance_visual_scene url="#Scene"/>
  </scene>
</COLLADA>