<?xml version="1.0" encoding="utf-8"?>
<COLLADA xmlns="http://www.collada.org/2005/11/COLLADASchema" version="1.4.1" xmlns:xsi="http://www.w3.org/2001/XMLSchema-instance">
  <asset>
    <contributor>
      <author>Blender User</author>
      <authoring_tool>Blender 2.83.20 commit date:2022-04-19, commit time:16:00, hash:a56e2faeb7a9</authoring_tool>
    </contributor>
    <created>2026-06-17T14:52:25</created>
    <modified>2026-06-17T14:52:25</modified>
    <unit name="meter" meter="1"/>
    <up_axis>Z_UP</up_axis>
  </asset>
  <library_effects>
    <effect id="Material_006-effect">
      <profile_COMMON>
        <technique sid="common">
          <lambert>
            <emission>
              <color sid="emission">0 0 0 1</color>
            </emission>
            <diffuse>
              <color sid="diffuse">1 1 1 1</color>
            </diffuse>
            <reflectivity>
              <float sid="specular">0.5</float>
            </reflectivity>
          </lambert>
        </technique>
      </profile_COMMON>
    </effect>
  </library_effects>
  <library_images/>
  <library_materials>
    <material id="Material_006-material" name="Material.006">
      <instance_effect url="#Material_006-effect"/>
    </material>
  </library_materials>
  <library_geometries>
    <geometry id="Cylinder_011-mesh" name="Cylinder.011">
      <mesh>
        <source id="Cylinder_011-mesh-positions">
          <float_array id="Cylinder_011-mesh-positions-array" count="192">0 0.1 -0.04999995 0 0.1 0.04999995 0.01950901 0.09807848 -0.04999995 0.01950901 0.09807848 0.04999995 0.03826832 0.09238791 -0.04999995 0.03826832 0.09238791 0.04999995 0.05555701 0.08314692 -0.04999995 0.05555701 0.08314692 0.04999995 0.07071065 0.07071065 -0.04999995 0.07071065 0.07071065 0.04999995 0.08314692 0.05555701 -0.04999995 0.08314692 0.05555701 0.04999995 0.09238791 0.03826832 -0.04999995 0.09238791 0.03826832 0.04999995 0.09807848 0.01950901 -0.04999995 0.09807848 0.01950901 0.04999995 0.1 0 -0.04999995 0.1 0 0.04999995 0.09807848 -0.01950901 -0.04999995 0.09807848 -0.01950901 0.04999995 0.09238791 -0.03826832 -0.04999995 0.09238791 -0.03826832 0.04999995 0.08314692 -0.05555701 -0.04999995 0.08314692 -0.05555701 0.04999995 0.07071065 -0.07071065 -0.04999995 0.07071065 -0.07071065 0.04999995 0.05555701 -0.08314692 -0.04999995 0.05555701 -0.08314692 0.04999995 0.03826832 -0.09238797 -0.04999995 0.03826832 -0.09238797 0.04999995 0.01950895 -0.09807848 -0.04999995 0.01950895 -0.09807848 0.04999995 0 -0.1 -0.04999995 0 -0.1 0.04999995 -0.01950907 -0.09807848 -0.04999995 -0.01950907 -0.09807848 0.04999995 -0.03826838 -0.09238791 -0.04999995 -0.03826838 -0.09238791 0.04999995 -0.05555707 -0.08314692 -0.04999995 -0.05555707 -0.08314692 0.04999995 -0.07071071 -0.07071059 -0.04999995 -0.07071071 -0.07071059 0.04999995 -0.08314698 -0.05555695 -0.04999995 -0.08314698 -0.05555695 0.04999995 -0.09238797 -0.03826826 -0.04999995 -0.09238797 -0.03826826 0.04999995 -0.09807854 -0.01950889 -0.04999995 -0.09807854 -0.01950889 0.04999995 -0.1 0 -0.04999995 -0.1 0 0.04999995 -0.09807848 0.01950913 -0.04999995 -0.09807848 0.01950913 0.04999995 -0.09238791 0.03826844 -0.04999995 -0.09238791 0.03826844 0.04999995 -0.08314687 0.05555713 -0.04999995 -0.08314687 0.05555713 0.04999995 -0.07071059 0.07071077 -0.04999995 -0.07071059 0.07071077 0.04999995 -0.05555689 0.08314704 -0.04999995 -0.05555689 0.08314704 0.04999995 -0.0382682 0.09238797 -0.04999995 -0.0382682 0.09238797 0.04999995 -0.01950883 0.09807854 -0.04999995 -0.01950883 0.09807854 0.04999995</float_array>
          <technique_common>
            <accessor source="#Cylinder_011-mesh-positions-array" count="64" stride="3">
              <param name="X" type="float"/>
              <param name="Y" type="float"/>
              <param name="Z" type="float"/>
            </accessor>
          </technique_common>
        </source>
        <source id="Cylinder_011-mesh-normals">
          <float_array id="Cylinder_011-mesh-normals-array" count="240">0.09801727 0.9951847 0 0.2902846 0.9569404 0 0.4713968 0.8819214 0 0.6343932 0.7730105 0 0.7730105 0.6343932 0 0.8819217 0.4713961 0 0.9569405 0.2902844 0 0.9951848 0.09801691 0 0.9951848 -0.09801691 0 0.9569402 -0.2902852 0 0.8819214 -0.4713965 0 0.7730104 -0.6343935 0 0.6343932 -0.7730105 0 0.4713969 -0.8819213 0 0.2902842 -0.9569405 0 0.09801685 -0.9951848 0 -0.09801763 -0.9951848 0 -0.290285 -0.9569403 0 -0.4713972 -0.8819211 0 -0.6343939 -0.77301 0 -0.7730109 -0.634393 0 -0.8819219 -0.4713957 0 -0.9569408 -0.2902833 0 -0.9951848 -0.09801685 0 -0.9951847 0.09801876 0 -0.95694 0.2902861 0 -0.8819209 0.4713975 0 -0.7730097 0.6343942 0 -0.6343925 0.7730111 0 -0.4713953 0.8819221 0 0 0 1 -0.290283 0.9569409 0 -0.0980165 0.9951848 0 0 0 -1 0.2902846 0.9569404 0 0.4713969 0.8819212 0 0.634393 0.7730107 0 0.7730104 0.6343935 0 0.8819213 0.4713968 0 0.9569402 0.2902852 0 0.9951847 0.09801787 0 0.9569405 -0.2902844 0 0.7730105 -0.6343932 0 0.2902842 -0.9569405 0 -0.09801763 -0.9951848 0 -0.290285 -0.9569403 0 -0.4713971 -0.8819211 0 -0.6343935 -0.7730103 0 -0.773011 -0.6343926 0 -0.8819215 -0.4713964 0 -0.9951847 0.09801781 0 -0.634392 0.7730115 0 -0.4713956 0.881922 0 1.94098e-7 0 1 0 0 1 1.55278e-6 0 1 1.55278e-6 0 1 -1.06916e-6 0 1 5.82293e-7 0 1 0 0 1 1.04862e-6 0 1 2.09724e-6 0 1 -1.06916e-6 0 1 1.55278e-6 0 1 0 0 1 0 0 1 1.94101e-7 0 -1 7.76388e-7 0 -1 0 0 -1 1.06916e-6 0 -1 2.09724e-6 0 -1 1.94096e-7 0 -1 1.55278e-6 0 -1 1.55278e-6 0 -1 -1.55278e-6 0 -1 -1.99821e-7 0 -1 1.9982e-7 0 -1 -7.99279e-7 0 -1 0 0 -1 -2.24841e-7 0 -1</float_array>
          <technique_common>
            <accessor source="#Cylinder_011-mesh-normals-array" count="80" stride="3">
              <param name="X" type="float"/>
              <param name="Y" type="float"/>
              <param name="Z" type="float"/>
            </accessor>
          </technique_common>
        </source>
        <source id="Cylinder_011-mesh-map-0">
          <float_array id="Cylinder_011-mesh-map-0-array" count="744">1 1 0.96875 0.5 1 0.5 0.96875 1 0.9375 0.5 0.96875 0.5 0.9375 1 0.90625 0.5 0.9375 0.5 0.90625 1 0.875 0.5 0.90625 0.5 0.875 1 0.84375 0.5 0.875 0.5 0.84375 1 0.8125 0.5 0.84375 0.5 0.8125 1 0.78125 0.5 0.8125 0.5 0.78125 1 0.75 0.5 0.78125 0.5 0.75 1 0.71875 0.5 0.75 0.5 0.71875 1 0.6875 0.5 0.71875 0.5 0.6875 1 0.65625 0.5 0.6875 0.5 0.65625 1 0.625 0.5 0.65625 0.5 0.625 1 0.59375 0.5 0.625 0.5 0.59375 1 0.5625 0.5 0.59375 0.5 0.5625 1 0.53125 0.5 0.5625 0.5 0.53125 1 0.5 0.5 0.53125 0.5 0.5 1 0.46875 0.5 0.5 0.5 0.46875 1 0.4375 0.5 0.46875 0.5 0.4375 1 0.40625 0.5 0.4375 0.5 0.40625 1 0.375 0.5 0.40625 0.5 0.375 1 0.34375 0.5 0.375 0.5 0.34375 1 0.3125 0.5 0.34375 0.5 0.3125 1 0.28125 0.5 0.3125 0.5 0.28125 1 0.25 0.5 0.28125 0.5 0.25 1 0.21875 0.5 0.25 0.5 0.21875 1 0.1875 0.5 0.21875 0.5 0.1875 1 0.15625 0.5 0.1875 0.5 0.15625 1 0.125 0.5 0.15625 0.5 0.125 1 0.09375 0.5 0.125 0.5 0.09375 1 0.0625 0.5 0.09375 0.5 0.1581559 0.02826893 0.4717311 0.158156 0.341844 0.4717311 0.0625 1 0.03125 0.5 0.0625 0.5 0.03125 1 0 0.5 0.03125 0.5 0.7968216 0.01461148 0.5146115 0.2031785 0.7031787 0.4853885 1 1 0.96875 1 0.96875 0.5 0.96875 1 0.9375 1 0.9375 0.5 0.9375 1 0.90625 1 0.90625 0.5 0.90625 1 0.875 1 0.875 0.5 0.875 1 0.84375 1 0.84375 0.5 0.84375 1 0.8125 1 0.8125 0.5 0.8125 1 0.78125 1 0.78125 0.5 0.78125 1 0.75 1 0.75 0.5 0.75 1 0.71875 1 0.71875 0.5 0.71875 1 0.6875 1 0.6875 0.5 0.6875 1 0.65625 1 0.65625 0.5 0.65625 1 0.625 1 0.625 0.5 0.625 1 0.59375 1 0.59375 0.5 0.59375 1 0.5625 1 0.5625 0.5 0.5625 1 0.53125 1 0.53125 0.5 0.53125 1 0.5 1 0.5 0.5 0.5 1 0.46875 1 0.46875 0.5 0.46875 1 0.4375 1 0.4375 0.5 0.4375 1 0.40625 1 0.40625 0.5 0.40625 1 0.375 1 0.375 0.5 0.375 1 0.34375 1 0.34375 0.5 0.34375 1 0.3125 1 0.3125 0.5 0.3125 1 0.28125 1 0.28125 0.5 0.28125 1 0.25 1 0.25 0.5 0.25 1 0.21875 1 0.21875 0.5 0.21875 1 0.1875 1 0.1875 0.5 0.1875 1 0.15625 1 0.15625 0.5 0.15625 1 0.125 1 0.125 0.5 0.125 1 0.09375 1 0.09375 0.5 0.09375 1 0.0625 1 0.0625 0.5 0.341844 0.4717311 0.2968217 0.4853885 0.25 0.49 0.25 0.49 0.2031787 0.4853885 0.341844 0.4717311 0.2031787 0.4853885 0.1581563 0.4717312 0.341844 0.4717311 0.1581563 0.4717312 0.1166634 0.4495529 0.08029454 0.4197058 0.08029454 0.4197058 0.05044746 0.3833371 0.1581563 0.4717312 0.05044746 0.3833371 0.02826899 0.3418443 0.1581563 0.4717312 0.02826899 0.3418443 0.01461154 0.2968219 0.00999999 0.2500002 0.00999999 0.2500002 0.01461148 0.2031785 0.02826899 0.3418443 0.01461148 0.2031785 0.02826881 0.1581561 0.02826899 0.3418443 0.02826881 0.1581561 0.05044716 0.1166633 0.08029425 0.08029443 0.08029425 0.08029443 0.116663 0.05044734 0.02826881 0.1581561 0.116663 0.05044734 0.1581559 0.02826893 0.02826881 0.1581561 0.1581559 0.02826893 0.2031782 0.01461154 0.2499999 0.00999999 0.2499999 0.00999999 0.2968216 0.01461148 0.1581559 0.02826893 0.2968216 0.01461148 0.341844 0.02826887 0.1581559 0.02826893 0.341844 0.02826887 0.3833369 0.05044728 0.4717311 0.158156 0.3833369 0.05044728 0.4197056 0.08029437 0.4717311 0.158156 0.4197056 0.08029437 0.4495527 0.1166631 0.4717311 0.158156 0.4717311 0.158156 0.4853885 0.2031783 0.49 0.25 0.49 0.25 0.4853885 0.2968217 0.4717311 0.158156 0.4853885 0.2968217 0.4717311 0.341844 0.4717311 0.158156 0.4717311 0.341844 0.4495527 0.3833369 0.4197056 0.4197056 0.4197056 0.4197056 0.3833369 0.4495527 0.4717311 0.341844 0.3833369 0.4495527 0.341844 0.4717311 0.4717311 0.341844 0.341844 0.4717311 0.1581563 0.4717312 0.02826899 0.3418443 0.02826899 0.3418443 0.02826881 0.1581561 0.1581559 0.02826893 0.1581559 0.02826893 0.341844 0.02826887 0.4717311 0.158156 0.4717311 0.158156 0.4717311 0.341844 0.341844 0.4717311 0.341844 0.4717311 0.02826899 0.3418443 0.1581559 0.02826893 0.0625 1 0.03125 1 0.03125 0.5 0.03125 1 0 1 0 0.5 0.7031787 0.4853885 0.75 0.49 0.7968217 0.4853885 0.7968217 0.4853885 0.841844 0.4717311 0.8833369 0.4495527 0.8833369 0.4495527 0.9197056 0.4197056 0.9495527 0.3833369 0.9495527 0.3833369 0.9717311 0.341844 0.8833369 0.4495527 0.9717311 0.341844 0.9853885 0.2968217 0.8833369 0.4495527 0.9853885 0.2968217 0.99 0.25 0.9853885 0.2031783 0.9853885 0.2031783 0.9717311 0.158156 0.9853885 0.2968217 0.9717311 0.158156 0.9495527 0.1166631 0.9853885 0.2968217 0.9495527 0.1166631 0.9197056 0.08029437 0.8833369 0.05044728 0.8833369 0.05044728 0.841844 0.02826887 0.7968216 0.01461148 0.7968216 0.01461148 0.75 0.00999999 0.7031782 0.01461154 0.7031782 0.01461154 0.6581559 0.02826893 0.616663 0.05044734 0.616663 0.05044734 0.5802943 0.08029443 0.5504472 0.1166633 0.5504472 0.1166633 0.5282688 0.1581561 0.5146115 0.2031785 0.5146115 0.2031785 0.51 0.2500002 0.5146116 0.2968219 0.5146116 0.2968219 0.5282691 0.3418443 0.5146115 0.2031785 0.5282691 0.3418443 0.5504475 0.3833371 0.5146115 0.2031785 0.5504475 0.3833371 0.5802946 0.4197058 0.6166635 0.4495529 0.6166635 0.4495529 0.6581563 0.4717312 0.5504475 0.3833371 0.6581563 0.4717312 0.7031787 0.4853885 0.5504475 0.3833371 0.7031787 0.4853885 0.7968217 0.4853885 0.8833369 0.4495527 0.9495527 0.1166631 0.8833369 0.05044728 0.7968216 0.01461148 0.7968216 0.01461148 0.7031782 0.01461154 0.616663 0.05044734 0.616663 0.05044734 0.5504472 0.1166633 0.5146115 0.2031785 0.7031787 0.4853885 0.8833369 0.4495527 0.9853885 0.2968217 0.9853885 0.2968217 0.9495527 0.1166631 0.7031787 0.4853885 0.9495527 0.1166631 0.7968216 0.01461148 0.7031787 0.4853885 0.7968216 0.01461148 0.616663 0.05044734 0.5146115 0.2031785 0.5146115 0.2031785 0.5504475 0.3833371 0.7031787 0.4853885</float_array>
          <technique_common>
            <accessor source="#Cylinder_011-mesh-map-0-array" count="372" stride="2">
              <param name="S" type="float"/>
              <param name="T" type="float"/>
            </accessor>
          </technique_common>
        </source>
        <vertices id="Cylinder_011-mesh-vertices">
          <input semantic="POSITION" source="#Cylinder_011-mesh-positions"/>
        </vertices>
        <triangles material="Material_006-material" count="124">
          <input semantic="VERTEX" source="#Cylinder_011-mesh-vertices" offset="0"/>
          <input semantic="NORMAL" source="#Cylinder_011-mesh-normals" offset="1"/>
          <input semantic="TEXCOORD" source="#Cylinder_011-mesh-map-0" offset="2" set="0"/>
          <p>1 0 0 2 0 1 0 0 2 3 1 3 4 1 4 2 1 5 5 2 6 6 2 7 4 2 8 7 3 9 8 3 10 6 3 11 9 4 12 10 4 13 8 4 14 11 5 15 12 5 16 10 5 17 13 6 18 14 6 19 12 6 20 15 7 21 16 7 22 14 7 23 17 8 24 18 8 25 16 8 26 19 9 27 20 9 28 18 9 29 21 10 30 22 10 31 20 10 32 23 11 33 24 11 34 22 11 35 25 12 36 26 12 37 24 12 38 27 13 39 28 13 40 26 13 41 29 14 42 30 14 43 28 14 44 31 15 45 32 15 46 30 15 47 33 16 48 34 16 49 32 16 50 35 17 51 36 17 52 34 17 53 37 18 54 38 18 55 36 18 56 39 19 57 40 19 58 38 19 59 41 20 60 42 20 61 40 20 62 43 21 63 44 21 64 42 21 65 45 22 66 46 22 67 44 22 68 47 23 69 48 23 70 46 23 71 49 24 72 50 24 73 48 24 74 51 25 75 52 25 76 50 25 77 53 26 78 54 26 79 52 26 80 55 27 81 56 27 82 54 27 83 57 28 84 58 28 85 56 28 86 59 29 87 60 29 88 58 29 89 37 30 90 21 30 91 5 30 92 61 31 93 62 31 94 60 31 95 63 32 96 0 32 97 62 32 98 30 33 99 46 33 100 62 33 101 1 0 102 3 0 103 2 0 104 3 34 105 5 34 106 4 34 107 5 35 108 7 35 109 6 35 110 7 36 111 9 36 112 8 36 113 9 37 114 11 37 115 10 37 116 11 38 117 13 38 118 12 38 119 13 39 120 15 39 121 14 39 122 15 40 123 17 40 124 16 40 125 17 8 126 19 8 127 18 8 128 19 41 129 21 41 130 20 41 131 21 10 132 23 10 133 22 10 134 23 42 135 25 42 136 24 42 137 25 12 138 27 12 139 26 12 140 27 13 141 29 13 142 28 13 143 29 43 144 31 43 145 30 43 146 31 15 147 33 15 148 32 15 149 33 44 150 35 44 151 34 44 152 35 45 153 37 45 154 36 45 155 37 46 156 39 46 157 38 46 158 39 47 159 41 47 160 40 47 161 41 48 162 43 48 163 42 48 164 43 49 165 45 49 166 44 49 167 45 22 168 47 22 169 46 22 170 47 23 171 49 23 172 48 23 173 49 50 174 51 50 175 50 50 176 51 25 177 53 25 178 52 25 179 53 26 180 55 26 181 54 26 182 55 27 183 57 27 184 56 27 185 57 51 186 59 51 187 58 51 188 59 52 189 61 52 190 60 52 191 5 53 192 3 53 193 1 53 194 1 30 195 63 30 196 5 30 197 63 54 198 61 54 199 5 54 200 61 30 201 59 30 202 57 30 203 57 30 204 55 30 205 61 30 206 55 30 207 53 30 208 61 30 209 53 55 210 51 55 211 49 55 212 49 30 213 47 30 214 53 30 215 47 30 216 45 30 217 53 30 218 45 56 219 43 56 220 41 56 221 41 30 222 39 30 223 45 30 224 39 57 225 37 57 226 45 57 227 37 58 228 35 58 229 33 58 230 33 30 231 31 30 232 37 30 233 31 59 234 29 59 235 37 59 236 29 57 237 27 57 238 21 57 239 27 60 240 25 60 241 21 60 242 25 30 243 23 30 244 21 30 245 21 30 246 19 30 247 17 30 248 17 61 249 15 61 250 21 61 251 15 62 252 13 62 253 21 62 254 13 63 255 11 63 256 9 63 257 9 30 258 7 30 259 13 30 260 7 30 261 5 30 262 13 30 263 5 30 264 61 30 265 53 30 266 53 30 267 45 30 268 37 30 269 37 30 270 29 30 271 21 30 272 21 64 273 13 64 274 5 64 275 5 65 276 53 65 277 37 65 278 61 31 279 63 31 280 62 31 281 63 32 282 1 32 283 0 32 284 62 66 285 0 66 286 2 66 287 2 67 288 4 67 289 6 67 290 6 68 291 8 68 292 10 68 293 10 68 294 12 68 295 6 68 296 12 69 297 14 69 298 6 69 299 14 68 300 16 68 301 18 68 302 18 70 303 20 70 304 14 70 305 20 68 306 22 68 307 14 68 308 22 68 309 24 68 310 26 68 311 26 67 312 28 67 313 30 67 314 30 71 315 32 71 316 34 71 317 34 68 318 36 68 319 38 68 320 38 72 321 40 72 322 42 72 323 42 68 324 44 68 325 46 68 326 46 73 327 48 73 328 50 73 329 50 68 330 52 68 331 46 68 332 52 68 333 54 68 334 46 68 335 54 74 336 56 74 337 58 74 338 58 68 339 60 68 340 54 68 341 60 68 342 62 68 343 54 68 344 62 75 345 2 75 346 6 75 347 22 76 348 26 76 349 30 76 350 30 68 351 34 68 352 38 68 353 38 77 354 42 77 355 46 77 356 62 78 357 6 78 358 14 78 359 14 68 360 22 68 361 62 68 362 22 68 363 30 68 364 62 68 365 30 68 366 38 68 367 46 68 368 46 79 369 54 79 370 62 79 371</p>
        </triangles>
      </mesh>
    </geometry>
  </library_geometries>
  <library_visual_scenes>
    <visual_scene id="Scene" name="Scene">
      <node id="cast_wheel" name="cast_wheel" type="NODE">
        <matrix sid="transform">0.5000001 0 0 0 0 -0.5 2.18557e-8 0 0 -2.18557e-8 -0.5 0 0 0 0 1</matrix>
        <instance_geometry url="#Cylinder_011-mesh" name="cast_wheel">
          <bind_material>
            <technique_common>
              <instance_material symbol="Material_006-material" target="#Material_006-material">
                <bind_vertex_input semantic="UVMap" input_semantic="TEXCOORD" input_set="0"/>
              </instance_material>
            </technique_common>
          </bind_material>
        </instance_geometry>
      </node>
    </visual_scene>
  </library_visual_scenes>
  <scene>
    <instance_visual_scene url="#Scene"/>
  </scene>
</COLLADA>