<?xml version="1.0" encoding="utf-8"?>
<COLLADA xmlns="http://www.collada.org/2005/11/COLLADASchema" version="1.4.1" xmlns:xsi="http://www.w3.org/2001/XMLSchema-instance">
  <asset>
    <contributor>
      <author>Blender User</author>
      <authoring_tool>Blender 4.5.10 LTS commit date:2026-05-18, commit time:13:28, hash:6dc0b208d1b5</authoring_tool>
    </contributor>
    <created>2026-06-18T01:24:47</created>
    <modified>2026-06-18T01:24:47</modified>
    <unit name="meter" meter="1"/>
    <up_axis>Z_UP</up_axis>
  </asset>
  <library_effects>
    <effect id="Material_003-effect">
      <profile_COMMON>
        <technique sid="common">
          <lambert>
            <emission>
              <color sid="emission">0 0 0 1</color>
            </emission>
            <diffuse>
              <color sid="diffuse">0.3 0.3 0.3 1</color>
            </diffuse>
            <index_of_refraction>
              <float sid="ior">1.5</float>
            </index_of_refraction>
          </lambert>
        </technique>
      </profile_COMMON>
    </effect>
  </library_effects>
  <library_images/>
  <library_materials>
    <material id="Material_003-material" name="Material.003">
      <instance_effect url="#Material_003-effect"/>
    </material>
  </library_materials>
  <library_geometries>
    <geometry id="Cube_011-mesh" name="Cube.011">
      <mesh>
        <source id="Cube_011-mesh-positions">
          <float_array id="Cube_011-mesh-positions-array" count="192">-0.5 -0.5 0.1125715 -0.5 -0.9045441 -0.09358483 -0.6534637 -0.8795239 -0.1003561 -0.6545374 -0.5 0.08809053 -0.5 -0.6545373 0.08809047 -0.6595277 -0.658634 0.05909836 -0.5 -0.7938435 0.01711577 -0.65386 -0.7873277 -0.008258342 -0.5 0.5 0.1125715 -0.5 0.6545374 0.08809053 -0.5 0.7938436 0.01711571 -0.6545373 0.5 0.08809047 -0.658634 0.6595277 0.05909836 -0.6534637 0.7870723 -0.007904529 -0.5 0.9045442 -0.09358489 -0.65386 0.8791701 -0.1001007 0.5 -0.5 0.1125715 0.5 -0.6545374 0.08809053 0.5 -0.7938436 0.01711571 0.6545373 -0.5 0.08809047 0.658634 -0.6595277 0.05909836 0.6534637 -0.7870723 -0.007904529 0.5 -0.9045442 -0.09358489 0.65386 -0.8791701 -0.1001007 0.5 0.5 0.1125715 0.6545374 0.5 0.08809053 0.5 0.6545373 0.08809047 0.6595277 0.658634 0.05909836 0.5 0.7938435 0.01711577 0.65386 0.7873277 -0.008258342 0.5 0.9045441 -0.09358483 0.6534637 0.8795239 -0.1003561 -0.4959906 -0.4959906 0.06289416 -0.4962288 -0.8641884 -0.1228626 -0.6391924 -0.8409872 -0.1288385 -0.6391229 -0.4959921 0.04069513 -0.4959774 -0.6391149 0.04069882 -0.6441408 -0.6432929 0.01406621 -0.4962117 -0.7645763 -0.0232461 -0.6395677 -0.7588368 -0.046781 -0.4959906 0.4959906 0.06289416 -0.4959921 0.6391229 0.04069507 -0.4962288 0.7645658 -0.02324002 -0.6391149 0.4959774 0.04069882 -0.6432929 0.6441408 0.01406621 -0.6391924 0.7585898 -0.04644125 -0.4962117 0.8641823 -0.122852 -0.6395677 0.8406473 -0.1285916 0.4959906 -0.4959906 0.06289416 0.4959921 -0.6391229 0.04069507 0.4962288 -0.7645658 -0.02324002 0.6391149 -0.4959774 0.04069882 0.6432929 -0.6441408 0.01406621 0.6391924 -0.7585898 -0.04644125 0.4962117 -0.8641823 -0.122852 0.6395677 -0.8406473 -0.1285916 0.4959906 0.4959906 0.06289416 0.6391229 0.4959921 0.04069513 0.4959774 0.6391149 0.04069882 0.6441408 0.6432929 0.01406621 0.4962117 0.7645763 -0.0232461 0.6395677 0.7588368 -0.046781 0.4962288 0.8641884 -0.1228626 0.6391924 0.8409872 -0.1288385</float_array>
          <technique_common>
            <accessor source="#Cube_011-mesh-positions-array" count="64" stride="3">
              <param name="X" type="float"/>
              <param name="Y" type="float"/>
              <param name="Z" type="float"/>
            </accessor>
          </technique_common>
        </source>
        <source id="Cube_011-mesh-normals">
          <float_array id="Cube_011-mesh-normals-array" count="252">-0.1449373 -0.6996403 0.6996403 -0.1545832 -0.1545837 0.9758114 -0.1486051 -0.4489228 0.881127 -0.1545837 0.1545832 0.9758114 -0.1469505 0.4490358 0.8813469 -0.1449373 0.6996403 0.6996403 0.1545837 -0.1545832 0.9758114 0.1469505 -0.4490358 0.8813469 0.1449373 -0.6996403 0.6996403 0.1545832 0.1545837 0.9758114 0.1486051 0.4489228 0.881127 0.1449373 0.6996403 0.6996403 -0.1564639 0 0.9876836 0 0.1564639 0.9876836 0 0.4539641 0.89102 0 0.7071068 0.7071068 0.1564639 0 0.9876836 0 -0.1564639 0.9876836 0 -0.4539641 0.89102 0 -0.7071068 0.7071068 0 0 1 0.1428329 0.6998602 -0.6998533 0.1514918 0.1514908 -0.9767808 0.1457963 0.4490299 -0.8815416 0.1514907 -0.1514922 -0.9767808 0.1441037 -0.4491408 -0.8817633 0.1428329 -0.6998532 -0.6998602 -0.1514907 0.1514922 -0.9767808 -0.1441037 0.4491408 -0.8817633 -0.1428329 0.6998532 -0.6998602 -0.1514918 -0.1514908 -0.9767808 -0.1457963 -0.4490299 -0.8815416 -0.1428329 -0.6998602 -0.6998533 0.1532456 0 -0.9881882 0 -0.1532457 -0.9881881 -2.80024e-7 -0.4540984 -0.8909516 3.18483e-6 -0.7070909 -0.7071226 -0.1532456 0 -0.9881882 0 0.1532457 -0.9881881 2.80024e-7 0.4540984 -0.8909516 -3.18483e-6 0.7070909 -0.7071226 0 0 -1 -0.1450176 -0.6995701 0.6996939 -0.1718731 -0.1718736 0.9700098 -0.1632759 -0.4631261 0.871123 -0.1718736 0.1718731 0.9700098 -0.162446 0.4640379 0.8707928 -0.1450176 0.6996939 0.6995701 0.1718736 -0.1718731 0.9700098 0.162446 -0.4640379 0.8707928 0.1450176 -0.6996939 0.6995701 0.1718731 0.1718736 0.9700098 0.1632759 0.4631261 0.871123 0.1450176 0.6995701 0.6996939 -0.1564644 0 0.9876836 0 0.1564644 0.9876836 0 0.4539634 0.8910204 0 0.7071068 0.7071068 0.1564644 0 0.9876836 0 -0.1564644 0.9876836 0 -0.4539634 0.8910204 0 -0.7071068 0.7071068 0 0 1 0.1429231 0.6997786 -0.6999163 0.1697117 0.1697137 -0.9707704 0.1615279 0.4648329 -0.8705395 0.1697133 -0.1697118 -0.9707705 0.1606895 -0.4658055 -0.8701748 0.1429234 -0.6999166 -0.6997783 -0.1697133 0.1697118 -0.9707705 -0.1606895 0.4658055 -0.8701748 -0.1429234 0.6999166 -0.6997783 -0.1697117 -0.1697137 -0.9707704 -0.1615279 -0.4648329 -0.8705395 -0.1429231 -0.6997786 -0.6999163 0.1532623 2.44737e-6 -0.9881856 2.50675e-6 -0.1532626 -0.9881855 -6.30745e-7 -0.4540961 -0.8909527 -3.18483e-6 -0.7071226 -0.7070909 -0.1532623 -2.44737e-6 -0.9881856 -2.50675e-6 0.1532626 -0.9881855 6.30745e-7 0.4540961 -0.8909527 3.18483e-6 0.7071226 -0.7070909 0 0 -1</float_array>
          <technique_common>
            <accessor source="#Cube_011-mesh-normals-array" count="84" stride="3">
              <param name="X" type="float"/>
              <param name="Y" type="float"/>
              <param name="Z" type="float"/>
            </accessor>
          </technique_common>
        </source>
        <source id="Cube_011-mesh-map-0">
          <float_array id="Cube_011-mesh-map-0-array" count="504">0.625 0.9375 0.5983841 0.956683 0.5992304 0.9375001 0.8318172 0.6875 0.8125 0.7068172 0.8125 0.6875001 0.832441 0.7073293 0.8125001 0.7500001 0.8125 0.7068172 0.8125 0.5431828 0.8318172 0.5625001 0.8125001 0.5625 0.8125 0.5 0.8323292 0.542559 0.8125 0.5431828 0.5992305 0.3125 0.625 0.293317 0.625 0.3125 0.6875001 0.7068172 0.6681827 0.6875 0.6875001 0.6875001 0.6563604 0.7811395 0.6676708 0.707441 0.6875001 0.7068172 0.5992305 0.8125001 0.6482144 0.7701027 0.6563604 0.7811395 0.6681827 0.5625 0.6874999 0.5431827 0.6875001 0.5625001 0.667559 0.5426707 0.6563777 0.4688777 0.6874999 0.5431827 0.6563777 0.4688777 0.598384 0.4566829 0.5992304 0.4375 0.8125001 0.5625 0.8318172 0.6875 0.8125 0.6875001 0.6875001 0.5625001 0.8125 0.5431828 0.8125001 0.5625 0.6874999 0.5431827 0.8125 0.5 0.8125 0.5431828 0.6563777 0.4688777 0.5992305 0.3125 0.625 0.3125 0.6875001 0.6875001 0.6681827 0.5625 0.6875001 0.5625001 0.8125 0.6875001 0.6875001 0.7068172 0.6875001 0.6875001 0.8125 0.7068172 0.6563604 0.7811395 0.6875001 0.7068172 0.625 0.9375 0.5992305 0.8125001 0.6563604 0.7811395 0.8125001 0.5625 0.6875001 0.6875001 0.6875001 0.5625001 0.5983841 0.956683 0.625 0.9375 0.5992304 0.9375001 0.8125 0.7068172 0.8318172 0.6875 0.8125 0.6875001 0.8125001 0.7500001 0.832441 0.7073293 0.8125 0.7068172 0.8318172 0.5625001 0.8125 0.5431828 0.8125001 0.5625 0.8323292 0.542559 0.8125 0.5 0.8125 0.5431828 0.625 0.293317 0.5992305 0.3125 0.625 0.3125 0.6681827 0.6875 0.6875001 0.7068172 0.6875001 0.6875001 0.6676708 0.707441 0.6563604 0.7811395 0.6875001 0.7068172 0.6482144 0.7701027 0.5992305 0.8125001 0.6563604 0.7811395 0.6874999 0.5431827 0.6681827 0.5625 0.6875001 0.5625001 0.6563777 0.4688777 0.667559 0.5426707 0.6874999 0.5431827 0.598384 0.4566829 0.6563777 0.4688777 0.5992304 0.4375 0.8125 0.6875001 0.8318172 0.5625001 0.8125001 0.5625 0.8125001 0.5625 0.6874999 0.5431827 0.6875001 0.5625001 0.8125 0.5431828 0.6563777 0.4688777 0.6874999 0.5431827 0.5992305 0.3125 0.6563777 0.4688777 0.625 0.3125 0.6875001 0.5625001 0.6681827 0.6875 0.6875001 0.6875001 0.6875001 0.6875001 0.8125 0.7068172 0.8125 0.6875001 0.6875001 0.7068172 0.8125001 0.7500001 0.8125 0.7068172 0.5992305 0.8125001 0.625 0.9375 0.6563604 0.7811395 0.6875001 0.6875001 0.8125001 0.5625 0.6875001 0.5625001 0.625 0.9375 0.625 0.9567326 0.5983841 0.956683 0.8318172 0.6875 0.832441 0.7073293 0.8125 0.7068172 0.832441 0.7073293 0.8317325 0.75 0.8125001 0.7500001 0.8125 0.5431828 0.8323292 0.542559 0.8318172 0.5625001 0.8125 0.5 0.831683 0.5 0.8323292 0.542559 0.5992305 0.3125 0.598416 0.2932675 0.625 0.293317 0.6875001 0.7068172 0.6676708 0.707441 0.6681827 0.6875 0.6563604 0.7811395 0.6482144 0.7701027 0.6676708 0.707441 0.5992305 0.8125001 0.5984159 0.7932674 0.6482144 0.7701027 0.6681827 0.5625 0.667559 0.5426707 0.6874999 0.5431827 0.667559 0.5426707 0.6482393 0.4799718 0.6563777 0.4688777 0.6563777 0.4688777 0.6482393 0.4799718 0.598384 0.4566829 0.8125001 0.5625 0.8318172 0.5625001 0.8318172 0.6875 0.6875001 0.5625001 0.6874999 0.5431827 0.8125 0.5431828 0.6874999 0.5431827 0.6563777 0.4688777 0.8125 0.5 0.6563777 0.4688777 0.5992304 0.4375 0.5992305 0.3125 0.6875001 0.6875001 0.6681827 0.6875 0.6681827 0.5625 0.8125 0.6875001 0.8125 0.7068172 0.6875001 0.7068172 0.8125 0.7068172 0.8125001 0.7500001 0.6563604 0.7811395 0.625 0.9375 0.5992304 0.9375001 0.5992305 0.8125001 0.8125001 0.5625 0.8125 0.6875001 0.6875001 0.6875001 0.5983841 0.956683 0.625 0.9567326 0.625 0.9375 0.8125 0.7068172 0.832441 0.7073293 0.8318172 0.6875 0.8125001 0.7500001 0.8317325 0.75 0.832441 0.7073293 0.8318172 0.5625001 0.8323292 0.542559 0.8125 0.5431828 0.8323292 0.542559 0.831683 0.5 0.8125 0.5 0.625 0.293317 0.598416 0.2932675 0.5992305 0.3125 0.6681827 0.6875 0.6676708 0.707441 0.6875001 0.7068172 0.6676708 0.707441 0.6482144 0.7701027 0.6563604 0.7811395 0.6482144 0.7701027 0.5984159 0.7932674 0.5992305 0.8125001 0.6874999 0.5431827 0.667559 0.5426707 0.6681827 0.5625 0.6563777 0.4688777 0.6482393 0.4799718 0.667559 0.5426707 0.598384 0.4566829 0.6482393 0.4799718 0.6563777 0.4688777 0.8125 0.6875001 0.8318172 0.6875 0.8318172 0.5625001 0.8125001 0.5625 0.8125 0.5431828 0.6874999 0.5431827 0.8125 0.5431828 0.8125 0.5 0.6563777 0.4688777 0.5992305 0.3125 0.5992304 0.4375 0.6563777 0.4688777 0.6875001 0.5625001 0.6681827 0.5625 0.6681827 0.6875 0.6875001 0.6875001 0.6875001 0.7068172 0.8125 0.7068172 0.6875001 0.7068172 0.6563604 0.7811395 0.8125001 0.7500001 0.5992305 0.8125001 0.5992304 0.9375001 0.625 0.9375 0.6875001 0.6875001 0.8125 0.6875001 0.8125001 0.5625</float_array>
          <technique_common>
            <accessor source="#Cube_011-mesh-map-0-array" count="252" stride="2">
              <param name="S" type="float"/>
              <param name="T" type="float"/>
            </accessor>
          </technique_common>
        </source>
        <vertices id="Cube_011-mesh-vertices">
          <input semantic="POSITION" source="#Cube_011-mesh-positions"/>
        </vertices>
        <triangles material="Material_003-material" count="84">
          <input semantic="VERTEX" source="#Cube_011-mesh-vertices" offset="0"/>
          <input semantic="NORMAL" source="#Cube_011-mesh-normals" offset="1"/>
          <input semantic="TEXCOORD" source="#Cube_011-mesh-map-0" offset="2" set="0"/>
          <p>6 0 0 2 0 1 1 0 2 3 1 3 4 1 4 0 1 5 5 2 6 6 2 7 4 2 8 9 3 9 11 3 10 8 3 11 10 4 12 12 4 13 9 4 14 14 5 15 13 5 16 10 5 17 17 6 18 19 6 19 16 6 20 18 7 21 20 7 22 17 7 23 22 8 24 21 8 25 18 8 26 25 9 27 26 9 28 24 9 29 27 10 30 28 10 31 26 10 32 28 11 33 31 11 34 30 11 35 8 12 36 3 12 37 0 12 38 24 13 39 9 13 40 8 13 41 26 14 42 10 14 43 9 14 44 28 15 45 14 15 46 10 15 47 16 16 48 25 16 49 24 16 50 0 17 51 17 17 52 16 17 53 4 18 54 18 18 55 17 18 56 6 19 57 22 19 58 18 19 59 8 20 60 16 20 61 24 20 62 34 21 63 38 21 64 33 21 65 36 22 66 35 22 67 32 22 68 38 23 69 37 23 70 36 23 71 43 24 72 41 24 73 40 24 74 44 25 75 42 25 76 41 25 77 45 26 78 46 26 79 42 26 80 51 27 81 49 27 82 48 27 83 52 28 84 50 28 85 49 28 86 53 29 87 54 29 88 50 29 89 58 30 90 57 30 91 56 30 92 60 31 93 59 31 94 58 31 95 63 32 96 60 32 97 62 32 98 32 33 99 43 33 100 40 33 101 40 34 102 58 34 103 56 34 104 41 35 105 60 35 106 58 35 107 46 36 108 60 36 109 42 36 110 56 37 111 51 37 112 48 37 113 48 38 114 36 38 115 32 38 116 49 39 117 38 39 118 36 39 119 54 40 120 38 40 121 50 40 122 48 41 123 40 41 124 56 41 125 6 42 126 7 42 127 2 42 128 3 43 129 5 43 130 4 43 131 5 44 132 7 44 133 6 44 134 9 45 135 12 45 136 11 45 137 10 46 138 13 46 139 12 46 140 14 47 141 15 47 142 13 47 143 17 48 144 20 48 145 19 48 146 18 49 147 21 49 148 20 49 149 22 50 150 23 50 151 21 50 152 25 51 153 27 51 154 26 51 155 27 52 156 29 52 157 28 52 158 28 53 159 29 53 160 31 53 161 8 54 162 11 54 163 3 54 164 24 55 165 26 55 166 9 55 167 26 56 168 28 56 169 10 56 170 28 57 171 30 57 172 14 57 173 16 58 174 19 58 175 25 58 176 0 59 177 4 59 178 17 59 179 4 60 180 6 60 181 18 60 182 6 61 183 1 61 184 22 61 185 8 62 186 0 62 187 16 62 188 34 63 189 39 63 190 38 63 191 36 64 192 37 64 193 35 64 194 38 65 195 39 65 196 37 65 197 43 66 198 44 66 199 41 66 200 44 67 201 45 67 202 42 67 203 45 68 204 47 68 205 46 68 206 51 69 207 52 69 208 49 69 209 52 70 210 53 70 211 50 70 212 53 71 213 55 71 214 54 71 215 58 72 216 59 72 217 57 72 218 60 73 219 61 73 220 59 73 221 63 74 222 61 74 223 60 74 224 32 75 225 35 75 226 43 75 227 40 76 228 41 76 229 58 76 230 41 77 231 42 77 232 60 77 233 46 78 234 62 78 235 60 78 236 56 79 237 57 79 238 51 79 239 48 80 240 49 80 241 36 80 242 49 81 243 50 81 244 38 81 245 54 82 246 33 82 247 38 82 248 48 83 249 32 83 250 40 83 251</p>
        </triangles>
      </mesh>
    </geometry>
  </library_geometries>
  <library_visual_scenes>
    <visual_scene id="Scene" name="Scene">
      <node id="Cube_008" name="Cube.008" type="NODE">
        <matrix sid="transform">0.5725 0 0 0 0 0 -0.1 0 0 0.4075 0 0 0 0 0 1</matrix>
        <instance_geometry url="#Cube_011-mesh" name="Cube.008">
          <bind_material>
            <technique_common>
              <instance_material symbol="Material_003-material" target="#Material_003-material">
                <bind_vertex_input semantic="UVMap" input_semantic="TEXCOORD" input_set="0"/>
              </instance_material>
            </technique_common>
          </bind_material>
        </instance_geometry>
      </node>
    </visual_scene>
  </library_visual_scenes>
  <scene>
    <instance_visual_scene url="#Scene"/>
  </scene>
</COLLADA>