<?xml version="1.0" encoding="utf-8"?>
<COLLADA xmlns="http://www.collada.org/2005/11/COLLADASchema" version="1.4.1" xmlns:xsi="http://www.w3.org/2001/XMLSchema-instance">
  <asset>
    <contributor>
      <author>Blender User</author>
      <authoring_tool>Blender 4.5.10 LTS commit date:2026-05-18, commit time:13:28, hash:6dc0b208d1b5</authoring_tool>
    </contributor>
    <created>2026-06-18T01:25:00</created>
    <modified>2026-06-18T01:25:00</modified>
    <unit name="meter" meter="1"/>
    <up_axis>Z_UP</up_axis>
  </asset>
  <library_effects>
    <effect id="Material_003-effect">
      <profile_COMMON>
        <technique sid="common">
          <lambert>
            <emission>
              <color sid="emission">0 0 0 1</color>
            </emission>
            <diffuse>
              <color sid="diffuse">0.3 0.3 0.3 1</color>
            </diffuse>
            <index_of_refraction>
              <float sid="ior">1.5</float>
            </index_of_refraction>
          </lambert>
        </technique>
      </profile_COMMON>
    </effect>
  </library_effects>
  <library_images/>
  <library_materials>
    <material id="Material_003-material" name="Material.003">
      <instance_effect url="#Material_003-effect"/>
    </material>
  </library_materials>
  <library_geometries>
    <geometry id="Cube_013-mesh" name="Cube.013">
      <mesh>
        <source id="Cube_013-mesh-positions">
          <float_array id="Cube_013-mesh-positions-array" count="312">0.1984406 -0.5 -1.379087 0.1739688 -0.6545084 -1.379087 0.102949 -0.7938926 -1.379087 -0.007666766 -0.9045084 -1.379087 -0.1470509 -0.9755282 -1.379087 0.1984406 -0.5 0.1209126 -0.147022 -0.5 0.5964316 -0.1429253 -0.6595277 0.5674394 -0.1480956 -0.7870723 0.5004366 -0.00771588 -0.5 0.5254569 -0.01423174 -0.65386 0.5000827 -0.03700011 -0.7645593 0.4526004 -0.1470219 -0.9755189 0.1209126 -0.007715821 -0.9045441 0.1209126 -0.1420316 -0.9465267 0.2795467 -0.01448708 -0.8795238 0.2743764 -0.1476993 -0.87917 0.4082403 -0.03700006 -0.8316877 0.3854719 0.1739595 -0.5 0.2754501 0.1029847 -0.5 0.4147562 0.1739594 -0.6545373 0.1209126 0.1449673 -0.658634 0.2804404 0.07796448 -0.6534637 0.407985 0.1029847 -0.7938435 0.1209126 0.07761067 -0.7873276 0.2747727 0.03012835 -0.7645592 0.385472 0.1984406 0.5000001 -1.379087 -0.1470509 0.9755283 -1.379087 -0.007666766 0.9045085 -1.379087 0.102949 0.7938927 -1.379087 0.1739688 0.6545085 -1.379087 0.1984406 0.5000001 0.1209126 -0.1470219 0.5000001 0.5964316 -0.007715821 0.5000001 0.5254568 -0.1420316 0.6586341 0.5674394 -0.01448708 0.6534638 0.5004366 -0.1476993 0.7873277 0.5000827 -0.03700006 0.7645593 0.4526004 0.1739595 0.6545375 0.1209126 0.1029847 0.7938436 0.1209126 0.1739594 0.5000001 0.27545 0.1449673 0.6595278 0.2795467 0.07796448 0.7870724 0.2743764 0.1029847 0.5000001 0.4147562 0.07761067 0.6538601 0.4082403 0.03012835 0.7645594 0.3854719 -0.147022 0.975519 0.1209126 -0.1429253 0.9465268 0.2804404 -0.1480956 0.8795239 0.407985 -0.00771588 0.9045442 0.1209126 -0.01423174 0.8791701 0.2747727 -0.03700011 0.8316878 0.385472 0.1485947 -0.4960766 -1.379087 0.1264159 -0.6390577 -1.379087 0.06249815 -0.7645034 -1.379087 -0.0370559 -0.8640575 -1.379087 -0.1625016 -0.9279754 -1.379087 0.1487631 -0.4959908 0.1169033 -0.1624445 -0.4959773 0.5490399 -0.1582664 -0.6441407 0.5224073 -0.1623669 -0.7585898 0.4618998 -0.03698307 -0.4962117 0.485095 -0.04272264 -0.6395677 0.46156 -0.06277811 -0.7387841 0.4183786 -0.1624365 -0.9281235 0.1169048 -0.03699368 -0.8641884 0.1171414 -0.1574186 -0.9014946 0.2642056 -0.04296958 -0.8409871 0.2601051 -0.1619916 -0.8406473 0.3797494 -0.06277525 -0.7974659 0.359694 0.126564 -0.4959921 0.2600355 0.06262898 -0.4962287 0.3854784 0.1265679 -0.6391148 0.11689 0.09993523 -0.6432929 0.2650535 0.03942775 -0.6391924 0.3795025 0.06262296 -0.7645762 0.1171243 0.03908795 -0.7588367 0.2604804 -0.004093468 -0.7387813 0.3596968 0.1485947 0.4960767 -1.379087 -0.1625016 0.9279755 -1.379087 -0.0370559 0.8640576 -1.379087 0.06249815 0.7645035 -1.379087 0.126416 0.6390578 -1.379087 0.1487631 0.4959909 0.1169033 -0.1624365 0.4959922 0.5490362 -0.03699362 0.4962288 0.4851011 -0.1574186 0.643293 0.5224073 -0.04296958 0.6391925 0.4618998 -0.1619916 0.7588368 0.4615601 -0.06277525 0.7387813 0.4183786 0.1265641 0.6391229 0.1169048 0.06262904 0.7645657 0.1171414 0.1265678 0.4959774 0.2600275 0.09993523 0.6441408 0.2642056 0.03942775 0.7585899 0.2601051 0.0626229 0.4962118 0.385489 0.03908795 0.6395678 0.3797494 -0.004093468 0.7387842 0.359694 -0.1624445 0.9281274 0.11689 -0.1582664 0.9014947 0.2650535 -0.1623669 0.8409872 0.3795025 -0.03698313 0.8641824 0.1171243 -0.04272264 0.8406474 0.2604804 -0.06277811 0.797466 0.3596968</float_array>
          <technique_common>
            <accessor source="#Cube_013-mesh-positions-array" count="104" stride="3">
              <param name="X" type="float"/>
              <param name="Y" type="float"/>
              <param name="Z" type="float"/>
            </accessor>
          </technique_common>
        </source>
        <source id="Cube_013-mesh-normals">
          <float_array id="Cube_013-mesh-normals-array" count="534">0.4489228 -0.1486051 0.881127 0.4336214 -0.4290648 0.7923861 0.4087664 -0.6447989 0.6458673 0.4490358 -0.8813469 0.1469505 0.6996403 -0.6996403 0.1449373 0.4290648 -0.7923861 0.4336214 0.6447988 -0.6458672 0.4087663 0.9758114 -0.1545837 0.1545832 0.8813469 -0.1469505 0.4490358 0.6996403 -0.1449373 0.6996403 0.881127 -0.4489228 0.1486051 0.7923861 -0.4336214 0.4290648 0.6458672 -0.4087663 0.6447988 0.5773502 -0.5773503 0.5773503 0.4490358 0.1469505 0.8813469 0.6996403 0.1449373 0.6996403 0.4290648 0.4336214 0.7923861 0.6447989 0.4087664 0.6458673 0.9758114 0.1545832 0.1545837 0.8813469 0.4490358 0.1469505 0.6996403 0.6996403 0.1449373 0.881127 0.1486051 0.4489228 0.7923861 0.4290648 0.4336214 0.6458672 0.6447988 0.4087663 0.4489228 0.881127 0.1486051 0.4336214 0.7923861 0.4290648 0.4087663 0.6458672 0.6447988 0.5773503 0.5773502 0.5773503 0.9876837 0.1564639 3.10092e-6 0.89102 0.4539641 -3.2445e-6 0.7071068 0.7071068 6.32203e-6 0.4539634 0.8910204 -3.17208e-6 0.4539641 0 0.89102 0.7071068 0 0.7071068 0.8910204 0 0.4539634 0.9876836 0 0.1564644 0.4539641 -0.89102 -3.2445e-6 0.7071068 -0.7071068 6.32203e-6 0.8910204 -0.4539634 -3.17208e-6 0.9876836 -0.1564644 3.15273e-6 1 0 0 -0.44903 0.1457963 -0.8815416 -0.4333052 0.4333145 -0.7902437 -0.4102029 0.6443042 -0.64545 -0.4491409 0.8817632 -0.144104 -0.6998533 0.6998602 -0.1428328 -0.4333145 0.7902437 -0.4333052 -0.6443042 0.64545 -0.4102029 -0.9767809 0.15149 -0.151492 -0.8817633 0.1441037 -0.4491408 -0.6998602 0.1428329 -0.6998532 -0.8815415 0.4490301 -0.1457967 -0.7902437 0.4333052 -0.4333145 -0.6454501 0.4102027 -0.6443042 -0.5773499 0.5773504 -0.5773504 -0.4491411 -0.144104 -0.8817632 -0.6998533 -0.1428329 -0.6998602 -0.4333146 -0.4333049 -0.7902439 -0.6443042 -0.4102029 -0.64545 -0.9767808 -0.1514917 -0.1514905 -0.8817632 -0.4491409 -0.1441038 -0.6998604 -0.699853 -0.1428326 -0.8815416 -0.1457963 -0.4490299 -0.7902437 -0.4333145 -0.4333052 -0.64545 -0.6443042 -0.4102029 -0.4490299 -0.8815415 -0.1457965 -0.4333052 -0.7902437 -0.4333145 -0.410203 -0.6454502 -0.644304 -0.5773503 -0.5773503 -0.5773503 -0.9881855 -0.1532621 1.02394e-4 -0.8910064 -0.4539908 1.07971e-4 -0.7071229 -0.7070907 9.12392e-5 -0.4540985 -0.8909515 9.64099e-5 -0.4540984 3.33362e-7 -0.8909516 -0.7070909 -3.18483e-6 -0.7071226 -0.8909527 -6.26516e-7 -0.4540961 -0.9881855 2.50688e-6 -0.1532622 -0.4539908 0.8910064 1.07993e-4 -0.7070909 0.7071226 9.12674e-5 -0.8909514 0.4540987 9.64099e-5 -0.9881821 0.153284 1.0621e-4 -1 0 1.12516e-4 -2.38419e-6 -3.77618e-7 -1 5.03885e-7 -6.93543e-7 -1 0 0 -1 -1.09589e-6 -2.15081e-6 -1 -6.93543e-7 -5.03885e-7 -1 0 0 -1 -2.15081e-6 1.09589e-6 -1 0 -8.23685e-7 -1 0 0 -1 0.4631261 -0.1632759 0.871123 0.4290611 -0.4336495 0.7923728 0.4094054 -0.6451308 0.6451306 0.4640379 -0.8707928 0.162446 0.6996939 -0.6995701 0.1450176 0.4336495 -0.7923729 0.4290612 0.6451308 -0.6451306 0.4094054 0.9700098 -0.1718736 0.1718731 0.8707928 -0.162446 0.4640379 0.6995701 -0.1450176 0.6996939 0.871123 -0.4631261 0.1632759 0.7923728 -0.4290611 0.4336495 0.6451306 -0.4094054 0.6451308 0.4640379 0.162446 0.8707928 0.6996939 0.1450176 0.6995701 0.4336495 0.4290611 0.7923728 0.6451308 0.4094054 0.6451306 0.9700098 0.1718731 0.1718736 0.8707928 0.4640379 0.162446 0.6995701 0.6996939 0.1450176 0.871123 0.1632759 0.4631261 0.7923729 0.4336495 0.4290612 0.6451306 0.6451308 0.4094054 0.4631261 0.871123 0.1632759 0.4290611 0.7923728 0.4336495 0.4094054 0.6451306 0.6451308 0.9876883 0.1564345 0 0.8910065 0.4539905 -6.32555e-6 0.7071068 0.7071068 6.32203e-6 0.4539905 0.8910065 -6.34292e-6 0.4539634 0 0.8910204 0.7071068 0 0.7071068 0.89102 0 0.4539641 0.9876836 0 0.1564639 0.4539905 -0.8910065 -6.32555e-6 0.7071068 -0.7071068 6.32203e-6 0.8910065 -0.4539905 -6.34292e-6 0.9876883 -0.1564345 0 1 0 0 -0.4648333 0.1615282 -0.8705393 -0.4319089 0.4319065 -0.7917774 -0.4108842 0.6446662 -0.6446548 -0.4658055 0.8701748 -0.1606897 -0.6999166 0.6997784 -0.1429234 -0.4319065 0.7917774 -0.4319089 -0.644666 0.6446552 -0.4108839 -0.9707704 0.1697133 -0.1697122 -0.8701748 0.1606895 -0.4658055 -0.6997783 0.1429234 -0.6999166 -0.8705393 0.4648333 -0.1615284 -0.7917777 0.4319087 -0.4319063 -0.6446545 0.4108843 -0.6446663 -0.4658055 -0.1606895 -0.8701748 -0.6999166 -0.1429234 -0.6997784 -0.4319069 -0.4319089 -0.7917773 -0.6446662 -0.4108842 -0.6446548 -0.9707704 -0.1697117 -0.1697136 -0.8701748 -0.4658055 -0.1606894 -0.6997784 -0.6999166 -0.1429234 -0.8705393 -0.1615282 -0.4648333 -0.7917774 -0.4319065 -0.4319089 -0.6446548 -0.6446662 -0.4108842 -0.4648333 -0.8705393 -0.1615284 -0.4319089 -0.7917774 -0.4319065 -0.4108845 -0.6446546 -0.644666 -0.9881822 -0.1532837 1.04509e-4 -0.8909525 -0.4540964 9.68091e-5 -0.7071068 -0.7071068 9.33804e-5 -0.4539908 -0.8910064 1.07784e-4 -0.4540965 6.30741e-7 -0.8909525 -0.7071226 3.18483e-6 -0.7070909 -0.8909516 -2.83565e-7 -0.4540984 -0.9881882 0 -0.1532453 -0.4540964 0.8909525 9.68271e-5 -0.7071068 0.7071068 9.33804e-5 -0.8910065 0.4539906 1.0782e-4 -0.9881882 0.153245 1.02395e-4 -1 0 1.12516e-4 0 8.23686e-7 -1 -2.15081e-6 -1.09589e-6 -1 0 0 -1 -6.93543e-7 5.03885e-7 -1 -1.09589e-6 2.15081e-6 -1 0 0 -1 5.03886e-7 6.93543e-7 -1 -2.38418e-6 3.77618e-7 -1 0 0 -1</float_array>
          <technique_common>
            <accessor source="#Cube_013-mesh-normals-array" count="178" stride="3">
              <param name="X" type="float"/>
              <param name="Y" type="float"/>
              <param name="Z" type="float"/>
            </accessor>
          </technique_common>
        </source>
        <source id="Cube_013-mesh-map-0">
          <float_array id="Cube_013-mesh-map-0-array" count="1068">0.6676708 0.707441 0.6507696 0.6875001 0.6681827 0.6875 0.6676708 0.707441 0.6438767 0.7605533 0.6515841 0.7067325 0.5984159 0.7932674 0.6438767 0.7605533 0.6482144 0.7701027 0.5625 0.7757695 0.5823292 0.792559 0.5625001 0.7931828 0.5624999 0.7242304 0.5816828 0.7766159 0.5625 0.7757695 0.5823292 0.792559 0.59557 0.7794301 0.5984159 0.7932674 0.5817325 0.723416 0.59557 0.7794301 0.5816828 0.7766159 0.5818173 0.6875001 0.5625 0.7068172 0.5625 0.6875002 0.5992304 0.6875 0.582441 0.7073293 0.5818173 0.6875001 0.6507696 0.6875001 0.5983841 0.706683 0.5992304 0.6875 0.582441 0.7073293 0.5624999 0.7242304 0.5625 0.7068172 0.582441 0.7073293 0.5955699 0.7245851 0.5817325 0.723416 0.6515841 0.7067325 0.5955699 0.7245851 0.5983841 0.706683 0.6438767 0.7605533 0.59557 0.7794301 0.5955699 0.7245851 0.6507695 0.5625 0.667559 0.5426707 0.6681827 0.5625 0.5992305 0.5625001 0.6516158 0.543317 0.6507695 0.5625 0.667559 0.5426707 0.6438767 0.4894467 0.6482393 0.4799718 0.598416 0.5432675 0.6438767 0.4894467 0.6516158 0.543317 0.5625 0.5431828 0.5818172 0.5625 0.5625 0.5625 0.5625 0.5257695 0.5823292 0.542559 0.5625 0.5431828 0.5624999 0.4742304 0.5816829 0.5266159 0.5625 0.5257695 0.5823292 0.542559 0.5992305 0.5625001 0.5818172 0.5625 0.5823292 0.542559 0.5955699 0.5254148 0.598416 0.5432675 0.5817325 0.473416 0.5955699 0.5254148 0.5816829 0.5266159 0.5824411 0.4573293 0.5624999 0.4742304 0.5625 0.4568171 0.5824411 0.4573293 0.5955699 0.4705699 0.5817325 0.473416 0.6482393 0.4799718 0.5955699 0.4705699 0.598384 0.4566829 0.6438767 0.4894467 0.5955699 0.5254148 0.5955699 0.4705699 0.5625 0.5625 0.375 0.5431865 0.5625 0.5431828 0.375 0.5431865 0.5625 0.5257695 0.5625 0.5431828 0.5625 0.5257695 0.375 0.4742366 0.5624999 0.4742304 0.5624999 0.4742304 0.375 0.4568136 0.5625 0.4568171 0.6681827 0.6875 0.6507695 0.5625 0.6681827 0.5625 0.6507696 0.6875001 0.5992305 0.5625001 0.6507695 0.5625 0.5992304 0.6875 0.5818172 0.5625 0.5992305 0.5625001 0.5818173 0.6875001 0.5625 0.5625 0.5818172 0.5625 0.375 0.7931864 0.5625 0.7757695 0.5625001 0.7931828 0.5625 0.7757695 0.375 0.7242366 0.5624999 0.7242304 0.5624999 0.7242304 0.375 0.7068136 0.5625 0.7068172 0.375 0.7068136 0.5625 0.6875002 0.5625 0.7068172 0.5625 0.5625 0.375 0.6875 0.375 0.5625 0.6507696 0.6875001 0.6676708 0.707441 0.6681827 0.6875 0.6515841 0.7067325 0.6482144 0.7701027 0.6676708 0.707441 0.6438767 0.7605533 0.5984159 0.7932674 0.6482144 0.7701027 0.5823292 0.792559 0.5625 0.7757695 0.5625001 0.7931828 0.5816828 0.7766159 0.5624999 0.7242304 0.5625 0.7757695 0.5984159 0.7932674 0.5816828 0.7766159 0.5823292 0.792559 0.59557 0.7794301 0.5817325 0.723416 0.5816828 0.7766159 0.5625 0.7068172 0.5818173 0.6875001 0.5625 0.6875002 0.582441 0.7073293 0.5992304 0.6875 0.5818173 0.6875001 0.5983841 0.706683 0.6507696 0.6875001 0.5992304 0.6875 0.5624999 0.7242304 0.582441 0.7073293 0.5625 0.7068172 0.5817325 0.723416 0.5983841 0.706683 0.582441 0.7073293 0.5955699 0.7245851 0.6515841 0.7067325 0.5983841 0.706683 0.6438767 0.7605533 0.5955699 0.7245851 0.59557 0.7794301 0.667559 0.5426707 0.6507695 0.5625 0.6681827 0.5625 0.6516158 0.543317 0.5992305 0.5625001 0.6507695 0.5625 0.6482393 0.4799718 0.6516158 0.543317 0.667559 0.5426707 0.6438767 0.4894467 0.598416 0.5432675 0.6516158 0.543317 0.5818172 0.5625 0.5625 0.5431828 0.5625 0.5625 0.5823292 0.542559 0.5625 0.5257695 0.5625 0.5431828 0.5816829 0.5266159 0.5624999 0.4742304 0.5625 0.5257695 0.5992305 0.5625001 0.5823292 0.542559 0.5818172 0.5625 0.598416 0.5432675 0.5816829 0.5266159 0.5823292 0.542559 0.5955699 0.5254148 0.5817325 0.473416 0.5816829 0.5266159 0.5624999 0.4742304 0.5824411 0.4573293 0.5625 0.4568171 0.5817325 0.473416 0.598384 0.4566829 0.5824411 0.4573293 0.5955699 0.4705699 0.6482393 0.4799718 0.598384 0.4566829 0.6438767 0.4894467 0.5955699 0.4705699 0.5955699 0.5254148 0.5625 0.5431828 0.375 0.5625 0.5625 0.5625 0.5625 0.5431828 0.375 0.5257634 0.375 0.5431865 0.5624999 0.4742304 0.375 0.5257634 0.5625 0.5257695 0.5625 0.4568171 0.375 0.4742366 0.5624999 0.4742304 0.6681827 0.5625 0.6507696 0.6875001 0.6681827 0.6875 0.5992305 0.5625001 0.6507696 0.6875001 0.6507695 0.5625 0.5992305 0.5625001 0.5818173 0.6875001 0.5992304 0.6875 0.5818172 0.5625 0.5625 0.6875002 0.5818173 0.6875001 0.5625001 0.7931828 0.375 0.7757634 0.375 0.7931864 0.5624999 0.7242304 0.375 0.7757634 0.5625 0.7757695 0.5625 0.7068172 0.375 0.7242366 0.5624999 0.7242304 0.5625 0.7068172 0.375 0.6875 0.375 0.7068136 0.375 0.6875 0.5625 0.5625 0.375 0.5625 0.375 0.5625 0.375 0.5431865 0.375 0.5431865 0.375 0.5257634 0.375 0.5431865 0.375 0.5257634 0.375 0.5257634 0.375 0.4742366 0.375 0.4742366 0.375 0.4742366 0.375 0.4568136 0.375 0.4568136 0.375 0.7757634 0.375 0.7931864 0.375 0.7757634 0.375 0.7757634 0.375 0.7242366 0.375 0.7242366 0.375 0.7242366 0.375 0.7068136 0.375 0.7068136 0.375 0.6875 0.375 0.7068136 0.375 0.6875 0.375 0.6875 0.375 0.5625 0.375 0.5625 0.6676708 0.707441 0.6515841 0.7067325 0.6507696 0.6875001 0.6676708 0.707441 0.6482144 0.7701027 0.6438767 0.7605533 0.5984159 0.7932674 0.59557 0.7794301 0.6438767 0.7605533 0.5625 0.7757695 0.5816828 0.7766159 0.5823292 0.792559 0.5624999 0.7242304 0.5817325 0.723416 0.5816828 0.7766159 0.5823292 0.792559 0.5816828 0.7766159 0.59557 0.7794301 0.5817325 0.723416 0.5955699 0.7245851 0.59557 0.7794301 0.5818173 0.6875001 0.582441 0.7073293 0.5625 0.7068172 0.5992304 0.6875 0.5983841 0.706683 0.582441 0.7073293 0.6507696 0.6875001 0.6515841 0.7067325 0.5983841 0.706683 0.582441 0.7073293 0.5817325 0.723416 0.5624999 0.7242304 0.582441 0.7073293 0.5983841 0.706683 0.5955699 0.7245851 0.6515841 0.7067325 0.6438767 0.7605533 0.5955699 0.7245851 0.6507695 0.5625 0.6516158 0.543317 0.667559 0.5426707 0.5992305 0.5625001 0.598416 0.5432675 0.6516158 0.543317 0.667559 0.5426707 0.6516158 0.543317 0.6438767 0.4894467 0.598416 0.5432675 0.5955699 0.5254148 0.6438767 0.4894467 0.5625 0.5431828 0.5823292 0.542559 0.5818172 0.5625 0.5625 0.5257695 0.5816829 0.5266159 0.5823292 0.542559 0.5624999 0.4742304 0.5817325 0.473416 0.5816829 0.5266159 0.5823292 0.542559 0.598416 0.5432675 0.5992305 0.5625001 0.5823292 0.542559 0.5816829 0.5266159 0.5955699 0.5254148 0.5817325 0.473416 0.5955699 0.4705699 0.5955699 0.5254148 0.5824411 0.4573293 0.5817325 0.473416 0.5624999 0.4742304 0.5824411 0.4573293 0.598384 0.4566829 0.5955699 0.4705699 0.6482393 0.4799718 0.6438767 0.4894467 0.5955699 0.4705699 0.5625 0.5625 0.375 0.5625 0.375 0.5431865 0.375 0.5431865 0.375 0.5257634 0.5625 0.5257695 0.5625 0.5257695 0.375 0.5257634 0.375 0.4742366 0.5624999 0.4742304 0.375 0.4742366 0.375 0.4568136 0.6681827 0.6875 0.6507696 0.6875001 0.6507695 0.5625 0.6507696 0.6875001 0.5992304 0.6875 0.5992305 0.5625001 0.5992304 0.6875 0.5818173 0.6875001 0.5818172 0.5625 0.5818173 0.6875001 0.5625 0.6875002 0.5625 0.5625 0.375 0.7931864 0.375 0.7757634 0.5625 0.7757695 0.5625 0.7757695 0.375 0.7757634 0.375 0.7242366 0.5624999 0.7242304 0.375 0.7242366 0.375 0.7068136 0.375 0.7068136 0.375 0.6875 0.5625 0.6875002 0.5625 0.5625 0.5625 0.6875002 0.375 0.6875 0.6507696 0.6875001 0.6515841 0.7067325 0.6676708 0.707441 0.6515841 0.7067325 0.6438767 0.7605533 0.6482144 0.7701027 0.6438767 0.7605533 0.59557 0.7794301 0.5984159 0.7932674 0.5823292 0.792559 0.5816828 0.7766159 0.5625 0.7757695 0.5816828 0.7766159 0.5817325 0.723416 0.5624999 0.7242304 0.5984159 0.7932674 0.59557 0.7794301 0.5816828 0.7766159 0.59557 0.7794301 0.5955699 0.7245851 0.5817325 0.723416 0.5625 0.7068172 0.582441 0.7073293 0.5818173 0.6875001 0.582441 0.7073293 0.5983841 0.706683 0.5992304 0.6875 0.5983841 0.706683 0.6515841 0.7067325 0.6507696 0.6875001 0.5624999 0.7242304 0.5817325 0.723416 0.582441 0.7073293 0.5817325 0.723416 0.5955699 0.7245851 0.5983841 0.706683 0.5955699 0.7245851 0.6438767 0.7605533 0.6515841 0.7067325 0.667559 0.5426707 0.6516158 0.543317 0.6507695 0.5625 0.6516158 0.543317 0.598416 0.5432675 0.5992305 0.5625001 0.6482393 0.4799718 0.6438767 0.4894467 0.6516158 0.543317 0.6438767 0.4894467 0.5955699 0.5254148 0.598416 0.5432675 0.5818172 0.5625 0.5823292 0.542559 0.5625 0.5431828 0.5823292 0.542559 0.5816829 0.5266159 0.5625 0.5257695 0.5816829 0.5266159 0.5817325 0.473416 0.5624999 0.4742304 0.5992305 0.5625001 0.598416 0.5432675 0.5823292 0.542559 0.598416 0.5432675 0.5955699 0.5254148 0.5816829 0.5266159 0.5955699 0.5254148 0.5955699 0.4705699 0.5817325 0.473416 0.5624999 0.4742304 0.5817325 0.473416 0.5824411 0.4573293 0.5817325 0.473416 0.5955699 0.4705699 0.598384 0.4566829 0.5955699 0.4705699 0.6438767 0.4894467 0.6482393 0.4799718 0.5625 0.5431828 0.375 0.5431865 0.375 0.5625 0.5625 0.5431828 0.5625 0.5257695 0.375 0.5257634 0.5624999 0.4742304 0.375 0.4742366 0.375 0.5257634 0.5625 0.4568171 0.375 0.4568136 0.375 0.4742366 0.6681827 0.5625 0.6507695 0.5625 0.6507696 0.6875001 0.5992305 0.5625001 0.5992304 0.6875 0.6507696 0.6875001 0.5992305 0.5625001 0.5818172 0.5625 0.5818173 0.6875001 0.5818172 0.5625 0.5625 0.5625 0.5625 0.6875002 0.5625001 0.7931828 0.5625 0.7757695 0.375 0.7757634 0.5624999 0.7242304 0.375 0.7242366 0.375 0.7757634 0.5625 0.7068172 0.375 0.7068136 0.375 0.7242366 0.5625 0.7068172 0.5625 0.6875002 0.375 0.6875 0.375 0.6875 0.5625 0.6875002 0.5625 0.5625 0.375 0.5625 0.375 0.5625 0.375 0.5431865 0.375 0.5257634 0.375 0.5431865 0.375 0.5431865 0.375 0.5257634 0.375 0.5257634 0.375 0.4742366 0.375 0.4742366 0.375 0.4742366 0.375 0.4568136 0.375 0.7757634 0.375 0.7931864 0.375 0.7931864 0.375 0.7757634 0.375 0.7757634 0.375 0.7242366 0.375 0.7242366 0.375 0.7242366 0.375 0.7068136 0.375 0.6875 0.375 0.7068136 0.375 0.7068136 0.375 0.6875 0.375 0.6875 0.375 0.5625</float_array>
          <technique_common>
            <accessor source="#Cube_013-mesh-map-0-array" count="534" stride="2">
              <param name="S" type="float"/>
              <param name="T" type="float"/>
            </accessor>
          </technique_common>
        </source>
        <vertices id="Cube_013-mesh-vertices">
          <input semantic="POSITION" source="#Cube_013-mesh-positions"/>
        </vertices>
        <triangles material="Material_003-material" count="178">
          <input semantic="VERTEX" source="#Cube_013-mesh-vertices" offset="0"/>
          <input semantic="NORMAL" source="#Cube_013-mesh-normals" offset="1"/>
          <input semantic="TEXCOORD" source="#Cube_013-mesh-map-0" offset="2" set="0"/>
          <p>7 0 0 9 0 1 6 0 2 7 1 3 11 1 4 10 1 5 16 2 6 11 2 7 8 2 8 13 3 9 14 3 10 12 3 11 23 4 12 15 4 13 13 4 14 14 5 15 17 5 16 16 5 17 24 6 18 17 6 19 15 6 20 18 7 21 20 7 22 5 7 23 19 8 24 21 8 25 18 8 26 9 9 27 22 9 28 19 9 29 21 10 30 23 10 31 20 10 32 21 11 33 25 11 34 24 11 35 10 12 36 25 12 37 22 12 38 11 13 39 17 13 40 25 13 41 33 14 42 34 14 43 32 14 44 43 15 45 35 15 46 33 15 47 34 16 48 37 16 49 36 16 50 44 17 51 37 17 52 35 17 53 38 18 54 40 18 55 31 18 56 39 19 57 41 19 58 38 19 59 49 20 60 42 20 61 39 20 62 41 21 63 43 21 64 40 21 65 41 22 66 45 22 67 44 22 68 50 23 69 45 23 70 42 23 71 47 24 72 49 24 73 46 24 74 47 25 75 51 25 76 50 25 77 36 26 78 51 26 79 48 26 80 37 27 81 45 27 82 51 27 83 31 28 84 30 28 85 38 28 86 30 29 87 39 29 88 38 29 89 39 30 90 28 30 91 49 30 92 49 31 93 27 31 94 46 31 95 6 32 96 33 32 97 32 32 98 9 33 99 43 33 100 33 33 101 19 34 102 40 34 103 43 34 104 18 35 105 31 35 106 40 35 107 4 36 108 13 36 109 12 36 110 13 37 111 2 37 112 23 37 113 23 38 114 1 38 115 20 38 116 1 39 117 5 39 118 20 39 119 31 40 120 0 40 121 26 40 122 61 41 123 59 41 124 58 41 125 62 42 126 60 42 127 59 42 128 63 43 129 68 43 130 60 43 131 66 44 132 65 44 133 64 44 134 67 45 135 75 45 136 65 45 137 68 46 138 67 46 139 66 46 140 69 47 141 76 47 142 67 47 143 72 48 144 70 48 145 57 48 146 73 49 147 71 49 148 70 49 149 74 50 150 61 50 151 71 50 152 75 51 153 73 51 154 72 51 155 76 52 156 74 52 157 73 52 158 77 53 159 62 53 160 74 53 161 63 54 162 77 54 163 69 54 164 86 55 165 85 55 166 84 55 167 87 56 168 95 56 169 85 56 170 88 57 171 87 57 172 86 57 173 89 58 174 96 58 175 87 58 176 92 59 177 90 59 178 83 59 179 93 60 180 91 60 181 90 60 182 94 61 183 101 61 184 91 61 185 95 62 186 93 62 187 92 62 188 96 63 189 94 63 190 93 63 191 97 64 192 102 64 193 94 64 194 101 65 195 99 65 196 98 65 197 102 66 198 100 66 199 99 66 200 103 67 201 88 67 202 100 67 203 89 68 204 103 68 205 97 68 206 90 69 207 78 69 208 83 69 209 90 70 210 81 70 211 82 70 212 101 71 213 81 71 214 91 71 215 98 72 216 80 72 217 101 72 218 84 73 219 61 73 220 58 73 221 95 74 222 61 74 223 85 74 224 95 75 225 70 75 226 71 75 227 92 76 228 57 76 229 70 76 230 64 77 231 55 77 232 56 77 233 75 78 234 55 78 235 65 78 236 72 79 237 54 79 238 75 79 239 72 80 240 52 80 241 53 80 242 52 81 243 83 81 244 78 81 245 26 82 246 82 82 247 30 82 248 29 83 249 82 83 250 81 83 251 29 84 252 80 84 253 28 84 254 28 85 255 79 85 256 27 85 257 3 86 258 56 86 259 55 86 260 3 87 261 54 87 262 2 87 263 2 88 264 53 88 265 1 88 266 0 89 267 53 89 268 52 89 269 0 90 270 78 90 271 26 90 272 7 91 273 10 91 274 9 91 275 7 92 276 8 92 277 11 92 278 16 93 279 17 93 280 11 93 281 13 94 282 15 94 283 14 94 284 23 95 285 24 95 286 15 95 287 14 96 288 15 96 289 17 96 290 24 97 291 25 97 292 17 97 293 18 98 294 21 98 295 20 98 296 19 99 297 22 99 298 21 99 299 9 100 300 10 100 301 22 100 302 21 101 303 24 101 304 23 101 305 21 102 306 22 102 307 25 102 308 10 103 309 11 103 310 25 103 311 33 104 312 35 104 313 34 104 314 43 105 315 44 105 316 35 105 317 34 106 318 35 106 319 37 106 320 44 107 321 45 107 322 37 107 323 38 108 324 41 108 325 40 108 326 39 109 327 42 109 328 41 109 329 49 110 330 50 110 331 42 110 332 41 111 333 44 111 334 43 111 335 41 112 336 42 112 337 45 112 338 50 113 339 51 113 340 45 113 341 47 114 342 50 114 343 49 114 344 47 115 345 48 115 346 51 115 347 36 116 348 37 116 349 51 116 350 31 117 351 26 117 352 30 117 353 30 118 354 29 118 355 39 118 356 39 119 357 29 119 358 28 119 359 49 120 360 28 120 361 27 120 362 6 121 363 9 121 364 33 121 365 9 122 366 19 122 367 43 122 368 19 123 369 18 123 370 40 123 371 18 124 372 5 124 373 31 124 374 4 125 375 3 125 376 13 125 377 13 126 378 3 126 379 2 126 380 23 127 381 2 127 382 1 127 383 1 128 384 0 128 385 5 128 386 31 129 387 5 129 388 0 129 389 61 130 390 62 130 391 59 130 392 62 131 393 63 131 394 60 131 395 63 132 396 69 132 397 68 132 398 66 133 399 67 133 400 65 133 401 67 134 402 76 134 403 75 134 404 68 135 405 69 135 406 67 135 407 69 136 408 77 136 409 76 136 410 72 137 411 73 137 412 70 137 413 73 138 414 74 138 415 71 138 416 74 139 417 62 139 418 61 139 419 75 140 420 76 140 421 73 140 422 76 141 423 77 141 424 74 141 425 77 142 426 63 142 427 62 142 428 86 143 429 87 143 430 85 143 431 87 144 432 96 144 433 95 144 434 88 145 435 89 145 436 87 145 437 89 146 438 97 146 439 96 146 440 92 147 441 93 147 442 90 147 443 93 148 444 94 148 445 91 148 446 94 149 447 102 149 448 101 149 449 95 150 450 96 150 451 93 150 452 96 151 453 97 151 454 94 151 455 97 152 456 103 152 457 102 152 458 101 153 459 102 153 460 99 153 461 102 154 462 103 154 463 100 154 464 103 155 465 89 155 466 88 155 467 90 156 468 82 156 469 78 156 470 90 157 471 91 157 472 81 157 473 101 158 474 80 158 475 81 158 476 98 159 477 79 159 478 80 159 479 84 160 480 85 160 481 61 160 482 95 161 483 71 161 484 61 161 485 95 162 486 92 162 487 70 162 488 92 163 489 83 163 490 57 163 491 64 164 492 65 164 493 55 164 494 75 165 495 54 165 496 55 165 497 72 166 498 53 166 499 54 166 500 72 167 501 57 167 502 52 167 503 52 168 504 57 168 505 83 168 506 26 169 507 78 169 508 82 169 509 29 170 510 30 170 511 82 170 512 29 171 513 81 171 514 80 171 515 28 172 516 80 172 517 79 172 518 3 173 519 4 173 520 56 173 521 3 174 522 55 174 523 54 174 524 2 175 525 54 175 526 53 175 527 0 176 528 1 176 529 53 176 530 0 177 531 52 177 532 78 177 533</p>
        </triangles>
      </mesh>
    </geometry>
  </library_geometries>
  <library_visual_scenes>
    <visual_scene id="Scene" name="Scene">
      <node id="Cube_010" name="Cube.010" type="NODE">
        <matrix sid="transform">0.5725 0 0 0.4588927 0 0 -0.1 0.05083394 0 0.4075 0 2.98023e-8 0 0 0 1</matrix>
        <instance_geometry url="#Cube_013-mesh" name="Cube.010">
          <bind_material>
            <technique_common>
              <instance_material symbol="Material_003-material" target="#Material_003-material">
                <bind_vertex_input semantic="UVMap" input_semantic="TEXCOORD" input_set="0"/>
              </instance_material>
            </technique_common>
          </bind_material>
        </instance_geometry>
      </node>
    </visual_scene>
  </library_visual_scenes>
  <scene>
    <instance_visual_scene url="#Scene"/>
  </scene>
</COLLADA>