<?xml version="1.0" encoding="utf-8"?>
<COLLADA xmlns="http://www.collada.org/2005/11/COLLADASchema" version="1.4.1" xmlns:xsi="http://www.w3.org/2001/XMLSchema-instance">
  <asset>
    <contributor>
      <author>Blender User</author>
      <authoring_tool>Blender 4.5.10 LTS commit date:2026-05-18, commit time:13:28, hash:6dc0b208d1b5</authoring_tool>
    </contributor>
    <created>2026-06-18T01:25:18</created>
    <modified>2026-06-18T01:25:18</modified>
    <unit name="meter" meter="1"/>
    <up_axis>Z_UP</up_axis>
  </asset>
  <library_effects>
    <effect id="Material_003-effect">
      <profile_COMMON>
        <technique sid="common">
          <lambert>
            <emission>
              <color sid="emission">0 0 0 1</color>
            </emission>
            <diffuse>
              <color sid="diffuse">0.3 0.3 0.3 1</color>
            </diffuse>
            <index_of_refraction>
              <float sid="ior">1.5</float>
            </index_of_refraction>
          </lambert>
        </technique>
      </profile_COMMON>
    </effect>
  </library_effects>
  <library_images/>
  <library_materials>
    <material id="Material_003-material" name="Material.003">
      <instance_effect url="#Material_003-effect"/>
    </material>
  </library_materials>
  <library_geometries>
    <geometry id="Cube_015-mesh" name="Cube.015">
      <mesh>
        <source id="Cube_015-mesh-positions">
          <float_array id="Cube_015-mesh-positions-array" count="96">-0.5000778 -0.06573855 -1.230797 -0.6545863 -0.04126679 -1.230797 -0.5000778 -0.06573855 0.2692027 -0.5000778 -0.0412575 0.4237401 -0.5000778 0.02971732 0.5630462 -0.6546151 -0.04125744 0.2692027 -0.6587118 -0.01226532 0.4287304 -0.6535415 0.05473756 0.556275 0.4999222 -0.06573855 -1.230797 0.6544307 -0.04126679 -1.230797 0.4999222 -0.06573855 0.2692027 0.6544597 -0.0412575 0.2692027 0.4999222 -0.04125744 0.42374 0.6594499 -0.01226532 0.4278367 0.4999222 0.02971726 0.5630462 0.6537823 0.05509138 0.5565303 -0.4961545 -0.01589274 -1.230797 -0.6391355 0.006286025 -1.230797 -0.4960687 -0.01606106 0.2651933 -0.49607 0.006137907 0.4083255 -0.4963065 0.07007306 0.5337684 -0.6391926 0.006134152 0.2651801 -0.6433707 0.03276681 0.4133434 -0.6392702 0.09327429 0.5277925 0.4959989 -0.01589274 -1.230797 0.6389799 0.006286025 -1.230797 0.495913 -0.01606106 0.2651933 0.6390451 0.006137907 0.2651948 0.4958996 0.006134152 0.4083175 0.644063 0.03276681 0.4124956 0.4961339 0.07007914 0.533779 0.63949 0.0936141 0.5280394</float_array>
          <technique_common>
            <accessor source="#Cube_015-mesh-positions-array" count="32" stride="3">
              <param name="X" type="float"/>
              <param name="Y" type="float"/>
              <param name="Z" type="float"/>
            </accessor>
          </technique_common>
        </source>
        <source id="Cube_015-mesh-normals">
          <float_array id="Cube_015-mesh-normals-array" count="126">-0.1545837 -0.9758114 0.1545832 -0.1469505 -0.8813469 0.4490358 0.1545832 -0.9758114 0.1545837 0.1486051 -0.881127 0.4489228 -0.1564345 -0.9876883 0 0.1564639 -0.9876837 3.10092e-6 0 -0.8910204 0.4539634 0 -0.9876836 0.1564644 0 -1 0 0.1514902 0.976781 -0.1514917 0.144104 0.8817631 -0.4491411 -0.1514916 0.976781 -0.1514901 -0.1457966 0.8815414 -0.4490302 0.1532452 0.9881882 1.02396e-4 -0.153262 0.9881855 1.02394e-4 -6.26516e-7 0.8909525 -0.4540965 2.50688e-6 0.9881856 -0.1532618 0 1 1.12516e-4 0 0 -1 0 0 -1 0 0 -1 -0.1718736 -0.9700098 0.1718731 -0.162446 -0.8707928 0.4640379 0.171873 -0.9700098 0.1718736 0.1632759 -0.871123 0.4631261 -0.1564644 -0.9876836 3.15259e-6 0.1564345 -0.9876883 0 0 -0.89102 0.4539641 0 -0.9876836 0.1564639 0 -1 0 0.1697137 0.9707704 -0.1697121 0.1606895 0.8701748 -0.4658055 -0.1697121 0.9707703 -0.1697137 -0.1615282 0.8705393 -0.4648333 0.1532837 0.9881823 1.06172e-4 -0.1532837 0.9881822 1.04515e-4 -2.83569e-7 0.8909514 -0.4540987 0 0.9881883 -0.1532449 0 1 1.12516e-4 0 0 -1 0 0 -1 0 0 -1</float_array>
          <technique_common>
            <accessor source="#Cube_015-mesh-normals-array" count="42" stride="3">
              <param name="X" type="float"/>
              <param name="Y" type="float"/>
              <param name="Z" type="float"/>
            </accessor>
          </technique_common>
        </source>
        <source id="Cube_015-mesh-map-0">
          <float_array id="Cube_015-mesh-map-0-array" count="252">0.5818172 0.9375001 0.5625 0.9568171 0.5625 0.9375 0.5992304 0.9375001 0.5824411 0.9573293 0.5818172 0.9375001 0.5625001 0.7931828 0.5818172 0.8125 0.5625 0.8125 0.5823292 0.792559 0.5992305 0.8125001 0.5818172 0.8125 0.5625 0.9375 0.375 0.9568136 0.375 0.9375 0.5625 0.8125 0.375 0.7931864 0.5625001 0.7931828 0.5992304 0.9375001 0.5818172 0.8125 0.5992305 0.8125001 0.5818172 0.9375001 0.5625 0.8125 0.5818172 0.8125 0.5625 0.8125 0.375 0.9375 0.375 0.8125 0.5625 0.9568171 0.5818172 0.9375001 0.5625 0.9375 0.5824411 0.9573293 0.5992304 0.9375001 0.5818172 0.9375001 0.5818172 0.8125 0.5625001 0.7931828 0.5625 0.8125 0.5992305 0.8125001 0.5823292 0.792559 0.5818172 0.8125 0.375 0.9375 0.5625 0.9568171 0.5625 0.9375 0.5625001 0.7931828 0.375 0.8125 0.5625 0.8125 0.5992305 0.8125001 0.5818172 0.9375001 0.5992304 0.9375001 0.5818172 0.8125 0.5625 0.9375 0.5818172 0.9375001 0.375 0.9375 0.5625 0.8125 0.375 0.8125 0.375 0.9375 0.375 0.9568136 0.375 0.9375 0.375 0.8125 0.375 0.7931864 0.375 0.7931864 0.375 0.9375 0.375 0.8125 0.375 0.8125 0.5818172 0.9375001 0.5824411 0.9573293 0.5625 0.9568171 0.5992304 0.9375001 0.5983841 0.956683 0.5824411 0.9573293 0.5625001 0.7931828 0.5823292 0.792559 0.5818172 0.8125 0.5823292 0.792559 0.5984159 0.7932674 0.5992305 0.8125001 0.5625 0.9375 0.5625 0.9568171 0.375 0.9568136 0.5625 0.8125 0.375 0.8125 0.375 0.7931864 0.5992304 0.9375001 0.5818172 0.9375001 0.5818172 0.8125 0.5818172 0.9375001 0.5625 0.9375 0.5625 0.8125 0.5625 0.8125 0.5625 0.9375 0.375 0.9375 0.5625 0.9568171 0.5824411 0.9573293 0.5818172 0.9375001 0.5824411 0.9573293 0.5983841 0.956683 0.5992304 0.9375001 0.5818172 0.8125 0.5823292 0.792559 0.5625001 0.7931828 0.5992305 0.8125001 0.5984159 0.7932674 0.5823292 0.792559 0.375 0.9375 0.375 0.9568136 0.5625 0.9568171 0.5625001 0.7931828 0.375 0.7931864 0.375 0.8125 0.5992305 0.8125001 0.5818172 0.8125 0.5818172 0.9375001 0.5818172 0.8125 0.5625 0.8125 0.5625 0.9375 0.375 0.9375 0.5625 0.9375 0.5625 0.8125 0.375 0.9375 0.375 0.9568136 0.375 0.9568136 0.375 0.8125 0.375 0.8125 0.375 0.7931864 0.375 0.9375 0.375 0.9375 0.375 0.8125</float_array>
          <technique_common>
            <accessor source="#Cube_015-mesh-map-0-array" count="126" stride="2">
              <param name="S" type="float"/>
              <param name="T" type="float"/>
            </accessor>
          </technique_common>
        </source>
        <vertices id="Cube_015-mesh-vertices">
          <input semantic="POSITION" source="#Cube_015-mesh-positions"/>
        </vertices>
        <triangles material="Material_003-material" count="42">
          <input semantic="VERTEX" source="#Cube_015-mesh-vertices" offset="0"/>
          <input semantic="NORMAL" source="#Cube_015-mesh-normals" offset="1"/>
          <input semantic="TEXCOORD" source="#Cube_015-mesh-map-0" offset="2" set="0"/>
          <p>3 0 0 5 0 1 2 0 2 4 1 3 6 1 4 3 1 5 11 2 6 12 2 7 10 2 8 13 3 9 14 3 10 12 3 11 2 4 12 1 4 13 0 4 14 10 5 15 9 5 16 11 5 17 4 6 18 12 6 19 14 6 20 3 7 21 10 7 22 12 7 23 10 8 24 0 8 25 8 8 26 21 9 27 19 9 28 18 9 29 22 10 30 20 10 31 19 10 32 28 11 33 27 11 34 26 11 35 30 12 36 29 12 37 28 12 38 16 13 39 21 13 40 18 13 41 27 14 42 24 14 43 26 14 44 30 15 45 19 15 46 20 15 47 28 16 48 18 16 49 19 16 50 16 17 51 26 17 52 24 17 53 0 18 54 17 18 55 16 18 56 8 19 57 25 19 58 9 19 59 0 20 60 24 20 61 8 20 62 3 21 63 6 21 64 5 21 65 4 22 66 7 22 67 6 22 68 11 23 69 13 23 70 12 23 71 13 24 72 15 24 73 14 24 74 2 25 75 5 25 76 1 25 77 10 26 78 8 26 79 9 26 80 4 27 81 3 27 82 12 27 83 3 28 84 2 28 85 10 28 86 10 29 87 2 29 88 0 29 89 21 30 90 22 30 91 19 30 92 22 31 93 23 31 94 20 31 95 28 32 96 29 32 97 27 32 98 30 33 99 31 33 100 29 33 101 16 34 102 17 34 103 21 34 104 27 35 105 25 35 106 24 35 107 30 36 108 28 36 109 19 36 110 28 37 111 26 37 112 18 37 113 16 38 114 18 38 115 26 38 116 0 39 117 1 39 118 17 39 119 8 40 120 24 40 121 25 40 122 0 41 123 16 41 124 24 41 125</p>
        </triangles>
      </mesh>
    </geometry>
  </library_geometries>
  <library_visual_scenes>
    <visual_scene id="Scene" name="Scene">
      <node id="Cube_012" name="Cube.012" type="NODE">
        <matrix sid="transform">0.5725 0 0 4.44949e-5 0 0 -0.1 0.0656631 0 0.4075 0 -0.3807115 0 0 0 1</matrix>
        <instance_geometry url="#Cube_015-mesh" name="Cube.012">
          <bind_material>
            <technique_common>
              <instance_material symbol="Material_003-material" target="#Material_003-material">
                <bind_vertex_input semantic="UVMap" input_semantic="TEXCOORD" input_set="0"/>
              </instance_material>
            </technique_common>
          </bind_material>
        </instance_geometry>
      </node>
    </visual_scene>
  </library_visual_scenes>
  <scene>
    <instance_visual_scene url="#Scene"/>
  </scene>
</COLLADA>