<?xml version="1.0" encoding="utf-8"?>
<COLLADA xmlns="http://www.collada.org/2005/11/COLLADASchema" version="1.4.1" xmlns:xsi="http://www.w3.org/2001/XMLSchema-instance">
  <asset>
    <contributor>
      <author>Blender User</author>
      <authoring_tool>Blender 2.83.20 commit date:2022-04-19, commit time:16:00, hash:a56e2faeb7a9</authoring_tool>
    </contributor>
    <created>2026-06-17T14:52:56</created>
    <modified>2026-06-17T14:52:56</modified>
    <unit name="meter" meter="1"/>
    <up_axis>Z_UP</up_axis>
  </asset>
  <library_effects>
    <effect id="Material_005-effect">
      <profile_COMMON>
        <technique sid="common">
          <lambert>
            <emission>
              <color sid="emission">0 0 0 1</color>
            </emission>
            <diffuse>
              <color sid="diffuse">0.1 0.1 0.1 1</color>
            </diffuse>
            <reflectivity>
              <float sid="specular">0.5</float>
            </reflectivity>
          </lambert>
        </technique>
      </profile_COMMON>
    </effect>
    <effect id="Material_004-effect">
      <profile_COMMON>
        <technique sid="common">
          <lambert>
            <emission>
              <color sid="emission">0 0 0 1</color>
            </emission>
            <diffuse>
              <color sid="diffuse">0.3 0 0 1</color>
            </diffuse>
            <reflectivity>
              <float sid="specular">0.5</float>
            </reflectivity>
          </lambert>
        </technique>
      </profile_COMMON>
    </effect>
  </library_effects>
  <library_images/>
  <library_materials>
    <material id="Material_005-material" name="Material.005">
      <instance_effect url="#Material_005-effect"/>
    </material>
    <material id="Material_004-material" name="Material.004">
      <instance_effect url="#Material_004-effect"/>
    </material>
  </library_materials>
  <library_geometries>
    <geometry id="Cube_007-mesh" name="Cube.007">
      <mesh>
        <source id="Cube_007-mesh-positions">
          <float_array id="Cube_007-mesh-positions-array" count="672">-1 -1 -1 -1 -1 1 -1 1 -1 -1 1 1 1 -1 -1 1 -1 1 1 1 -1 1 1 1 -1.145 -0.815 0.5599992 -1.145 -1.63 0.6799992 -2.29 -0.815 0.6799992 -1.145 -1.066896 0.5658747 -1.145 -1.293965 0.5829086 -1.49889 -0.815 0.5658747 -1.508272 -1.07503 0.5728328 -1.496432 -1.282928 0.5889135 -1.817902 -0.815 0.5829086 -1.80298 -1.065792 0.5889984 -1.750841 -1.246232 0.6003942 -1.498891 -1.590096 0.6799992 -1.817902 -1.474407 0.6799992 -1.145 -1.590096 0.6429103 -1.510318 -1.542839 0.6419271 -1.802396 -1.433624 0.643168 -1.145 -1.474407 0.6094768 -1.497339 -1.433047 0.6110406 -1.750841 -1.355651 0.616505 -2.233938 -0.815 0.6429103 -2.071406 -0.815 0.6094768 -2.233938 -1.066896 0.6799992 -2.167546 -1.073573 0.6417126 -2.01411 -1.065146 0.6111019 -2.071406 -1.293965 0.6799992 -2.013299 -1.283344 0.6430729 -1.904565 -1.246232 0.616505 -1.145 -1.63 0.9199993 -1.145 -0.815 1.039999 -2.29 -0.815 0.9199993 -1.145 -1.590096 0.9570882 -1.145 -1.474407 0.9905217 -1.49889 -1.590096 0.9199993 -1.508272 -1.542839 0.9582859 -1.496432 -1.433624 0.9888966 -1.817902 -1.474407 0.9199993 -1.80298 -1.433047 0.9569256 -1.750841 -1.355651 0.9834935 -1.498891 -0.815 1.034124 -1.817902 -0.815 1.01709 -1.145 -1.066896 1.034124 -1.510318 -1.073573 1.027166 -1.802396 -1.065146 1.011085 -1.145 -1.293965 1.01709 -1.497339 -1.283344 1.011 -1.750841 -1.246232 0.9996043 -2.233938 -1.066896 0.9199993 -2.071406 -1.293965 0.9199993 -2.233938 -0.815 0.9570882 -2.167546 -1.07503 0.9580714 -2.01411 -1.282928 0.9568305 -2.071406 -0.815 0.9905217 -2.013299 -1.065792 0.9889579 -1.904565 -1.246232 0.9834935 -1.145 0.815 0.5599992 -2.29 0.815 0.6799992 -1.145 1.63 0.6799992 -1.498891 0.815 0.5658747 -1.817902 0.815 0.5829086 -1.145 1.066896 0.5658747 -1.510318 1.073573 0.5728328 -1.802396 1.065146 0.5889135 -1.145 1.293965 0.5829086 -1.497339 1.283344 0.5889984 -1.750841 1.246232 0.6003942 -2.233938 1.066896 0.6799992 -2.071406 1.293965 0.6799992 -2.233938 0.815 0.6429103 -2.167546 1.07503 0.6419271 -2.01411 1.282928 0.643168 -2.071406 0.815 0.6094768 -2.013299 1.065792 0.6110406 -1.904565 1.246232 0.616505 -1.145 1.590096 0.6429103 -1.145 1.474407 0.6094768 -1.49889 1.590096 0.6799992 -1.508272 1.542839 0.6417126 -1.496432 1.433624 0.6111019 -1.817902 1.474407 0.6799992 -1.80298 1.433047 0.6430729 -1.750841 1.355651 0.616505 -1.145 0.815 1.039999 -1.145 1.63 0.9199993 -2.29 0.815 0.9199993 -1.145 1.066896 1.034124 -1.145 1.293965 1.01709 -1.49889 0.815 1.034124 -1.508272 1.07503 1.027166 -1.496432 1.282928 1.011085 -1.817902 0.815 1.01709 -1.80298 1.065792 1.011 -1.750841 1.246232 0.9996043 -1.498891 1.590096 0.9199993 -1.817902 1.474407 0.9199993 -1.145 1.590096 0.9570882 -1.510318 1.542839 0.9580714 -1.802396 1.433624 0.9568305 -1.145 1.474407 0.9905217 -1.497339 1.433047 0.9889579 -1.750841 1.355651 0.9834935 -2.233938 0.815 0.9570882 -2.071406 0.815 0.9905217 -2.233938 1.066896 0.9199993 -2.167546 1.073573 0.9582859 -2.01411 1.065146 0.9888966 -2.071406 1.293965 0.9199993 -2.013299 1.283344 0.9569256 -1.904565 1.246232 0.9834935 1.145 -0.815 0.5599992 2.29 -0.815 0.6799992 1.145 -1.63 0.6799992 1.498891 -0.815 0.5658747 1.817902 -0.815 0.5829086 1.145 -1.066896 0.5658747 1.510318 -1.073573 0.5728328 1.802396 -1.065146 0.5889135 1.145 -1.293965 0.5829086 1.497339 -1.283344 0.5889984 1.750841 -1.246232 0.6003942 2.233938 -1.066896 0.6799992 2.071406 -1.293965 0.6799992 2.233938 -0.815 0.6429103 2.167546 -1.07503 0.6419271 2.01411 -1.282928 0.643168 2.071406 -0.815 0.6094768 2.013299 -1.065792 0.6110406 1.904565 -1.246232 0.616505 1.145 -1.590096 0.6429103 1.145 -1.474407 0.6094768 1.49889 -1.590096 0.6799992 1.508272 -1.542839 0.6417126 1.496432 -1.433624 0.6111019 1.817902 -1.474407 0.6799992 1.80298 -1.433047 0.6430729 1.750841 -1.355651 0.616505 1.145 -0.815 1.039999 1.145 -1.63 0.9199993 2.29 -0.815 0.9199993 1.145 -1.066896 1.034124 1.145 -1.293965 1.01709 1.49889 -0.815 1.034124 1.508272 -1.07503 1.027166 1.496432 -1.282928 1.011085 1.817902 -0.815 1.01709 1.80298 -1.065792 1.011 1.750841 -1.246232 0.9996043 1.498891 -1.590096 0.9199993 1.817902 -1.474407 0.9199993 1.145 -1.590096 0.9570882 1.510318 -1.542839 0.9580714 1.802396 -1.433624 0.9568305 1.145 -1.474407 0.9905217 1.497339 -1.433047 0.9889579 1.750841 -1.355651 0.9834935 2.233938 -0.815 0.9570882 2.071406 -0.815 0.9905217 2.233938 -1.066896 0.9199993 2.167546 -1.073573 0.9582859 2.01411 -1.065146 0.9888966 2.071406 -1.293965 0.9199993 2.013299 -1.283344 0.9569256 1.904565 -1.246232 0.9834935 1.145 0.815 0.5599992 1.145 1.63 0.6799992 2.29 0.815 0.6799992 1.145 1.066896 0.5658747 1.145 1.293965 0.5829086 1.49889 0.815 0.5658747 1.508272 1.07503 0.5728328 1.496432 1.282928 0.5889135 1.817902 0.815 0.5829086 1.80298 1.065792 0.5889984 1.750841 1.246232 0.6003942 1.498891 1.590096 0.6799992 1.817902 1.474407 0.6799992 1.145 1.590096 0.6429103 1.510318 1.542839 0.6419271 1.802396 1.433624 0.643168 1.145 1.474407 0.6094768 1.497339 1.433047 0.6110406 1.750841 1.355651 0.616505 2.233938 0.815 0.6429103 2.071406 0.815 0.6094768 2.233938 1.066896 0.6799992 2.167546 1.073573 0.6417126 2.01411 1.065146 0.6111019 2.071406 1.293965 0.6799992 2.013299 1.283344 0.6430729 1.904565 1.246232 0.616505 1.145 0.815 1.039999 2.29 0.815 0.9199993 1.145 1.63 0.9199993 1.498891 0.815 1.034124 1.817902 0.815 1.01709 1.145 1.066896 1.034124 1.510318 1.073573 1.027166 1.802396 1.065146 1.011085 1.145 1.293965 1.01709 1.497339 1.283344 1.011 1.750841 1.246232 0.9996043 2.233938 1.066896 0.9199993 2.071406 1.293965 0.9199993 2.233938 0.815 0.9570882 2.167546 1.07503 0.9580714 2.01411 1.282928 0.9568305 2.071406 0.815 0.9905217 2.013299 1.065792 0.9889579 1.904565 1.246232 0.9834935 1.145 1.590096 0.9570882 1.145 1.474407 0.9905217 1.49889 1.590096 0.9199993 1.508272 1.542839 0.9582859 1.496432 1.433624 0.9888966 1.817902 1.474407 0.9199993 1.80298 1.433047 0.9569256 1.750841 1.355651 0.9834935</float_array>
          <technique_common>
            <accessor source="#Cube_007-mesh-positions-array" count="224" stride="3">
              <param name="X" type="float"/>
              <param name="Y" type="float"/>
              <param name="Z" type="float"/>
            </accessor>
          </technique_common>
        </source>
        <source id="Cube_007-mesh-normals">
          <float_array id="Cube_007-mesh-normals-array" count="1260">-1 0 0 0 1 0 1 0 0 0 -1 0 0 0 -1 0 0 1 -0.01659572 -0.02331537 -0.9995905 -0.01734387 -0.07808887 -0.9967956 -0.02147483 -0.1456603 -0.9891015 -0.0533002 -0.02740979 -0.9982024 -0.05707734 -0.079346 -0.9952117 -0.06551551 -0.1453558 -0.9872079 -0.07653975 -0.6787984 -0.7303249 -0.2334162 -0.643644 -0.7288617 -0.3812712 -0.5355545 -0.7535342 -0.03331071 -0.2774795 -0.960154 -0.09964334 -0.2585275 -0.9608511 -0.1591513 -0.223592 -0.9616015 -0.5476438 -0.1218836 -0.8277867 -0.2012603 -0.04714494 -0.9784027 -0.1041853 -0.03032171 -0.9940956 -0.4937455 -0.3534134 -0.794553 -0.1860663 -0.1431195 -0.9720578 -0.1039562 -0.09243392 -0.9902773 -0.1031337 -0.1448923 -0.9840579 -0.07654064 -0.6788013 0.7303221 -0.0329318 -0.2774826 0.9601661 -0.02147418 -0.1456349 0.9891054 -0.2319943 -0.6397203 0.7327595 -0.1016759 -0.2610301 0.9599611 -0.06558746 -0.1455907 0.9871685 -0.01659542 -0.02331542 0.9995905 -0.05565816 -0.02439993 0.9981517 -0.1042038 -0.0303232 0.9940937 -0.0194869 -0.07479214 0.9970088 -0.05647534 -0.080186 0.9951788 -0.1037873 -0.0923323 0.9903045 -0.5476419 -0.1218823 0.8277881 -0.4973086 -0.3559672 0.7911836 -0.3812224 -0.5355806 0.7535403 -0.2012562 -0.04768598 0.9783772 -0.1860715 -0.1431304 0.9720551 -0.1592422 -0.2233496 0.9616428 -0.1031327 -0.1448918 0.984058 -0.01659572 0.02331542 -0.9995905 -0.05565887 0.02439999 -0.9981517 -0.1042031 0.03032308 -0.9940938 -0.0194866 0.07479214 -0.9970088 -0.05647605 0.080186 -0.9951788 -0.103788 0.09233283 -0.9903044 -0.5476419 0.1218823 -0.8277881 -0.4973095 0.3559671 -0.7911831 -0.3812218 0.5355807 -0.7535405 -0.2012562 0.04768598 -0.9783772 -0.1860721 0.1431304 -0.972055 -0.1592414 0.2233496 -0.961643 -0.07654088 0.6788013 -0.7303221 -0.03293192 0.2774826 -0.9601661 -0.02147436 0.1456349 -0.9891054 -0.2319936 0.6397204 -0.7327597 -0.1016759 0.2610301 -0.9599611 -0.06558704 0.1455907 -0.9871686 -0.1031334 0.1448917 -0.9840579 -0.01659542 0.02331537 0.9995905 -0.01734447 0.07808911 0.9967956 -0.02147513 0.14566 0.9891017 -0.05329942 0.02740979 0.9982024 -0.05707681 0.079346 0.9952118 -0.06551551 0.1453558 0.9872079 -0.07654029 0.6787984 0.7303248 -0.2334159 0.643644 0.7288618 -0.3812721 0.5355542 0.7535338 -0.03331035 0.2774795 0.960154 -0.09964358 0.2585275 0.9608511 -0.1591513 0.223592 0.9616015 -0.5476438 0.1218836 0.8277867 -0.201261 0.04714494 0.9784026 -0.1041853 0.03032171 0.9940956 -0.4937455 0.3534134 0.794553 -0.1860663 0.1431195 0.9720578 -0.1039565 0.09243392 0.9902772 -0.1031337 0.1448923 0.9840579 0.01659572 -0.02331542 -0.9995905 0.05565887 -0.02439999 -0.9981517 0.1042031 -0.03032308 -0.9940938 0.0194866 -0.07479214 -0.9970088 0.05647605 -0.080186 -0.9951788 0.103788 -0.09233283 -0.9903044 0.5476419 -0.1218823 -0.8277881 0.4973095 -0.3559671 -0.7911831 0.3812218 -0.5355807 -0.7535405 0.2012562 -0.04768598 -0.9783772 0.1860721 -0.1431304 -0.972055 0.1592414 -0.2233496 -0.961643 0.07654088 -0.6788013 -0.7303221 0.03293192 -0.2774826 -0.9601661 0.02147436 -0.1456349 -0.9891054 0.2319936 -0.6397204 -0.7327597 0.1016759 -0.2610301 -0.9599611 0.06558704 -0.1455907 -0.9871686 0.1031334 -0.1448917 -0.9840579 0.01659542 -0.02331537 0.9995905 0.01734447 -0.07808911 0.9967956 0.02147513 -0.14566 0.9891017 0.05329942 -0.02740979 0.9982024 0.05707681 -0.079346 0.9952118 0.06551551 -0.1453558 0.9872079 0.07654029 -0.6787984 0.7303248 0.2334159 -0.643644 0.7288618 0.3812721 -0.5355542 0.7535338 0.03331035 -0.2774795 0.960154 0.09964358 -0.2585275 0.9608511 0.1591513 -0.223592 0.9616015 0.5476438 -0.1218836 0.8277867 0.201261 -0.04714494 0.9784026 0.1041853 -0.03032171 0.9940956 0.4937455 -0.3534134 0.794553 0.1860663 -0.1431195 0.9720578 0.1039565 -0.09243392 0.9902772 0.1031337 -0.1448923 0.9840579 0.01659572 0.02331537 -0.9995905 0.01734387 0.07808887 -0.9967956 0.02147483 0.1456603 -0.9891015 0.0533002 0.02740979 -0.9982024 0.05707734 0.079346 -0.9952117 0.06551551 0.1453558 -0.9872079 0.07653975 0.6787984 -0.7303249 0.2334162 0.643644 -0.7288617 0.3812712 0.5355545 -0.7535342 0.03331071 0.2774795 -0.960154 0.09964334 0.2585275 -0.9608511 0.1591513 0.223592 -0.9616015 0.5476438 0.1218836 -0.8277867 0.2012603 0.04714494 -0.9784027 0.1041853 0.03032171 -0.9940956 0.4937455 0.3534134 -0.794553 0.1860663 0.1431195 -0.9720578 0.1039562 0.09243392 -0.9902773 0.1031337 0.1448923 -0.9840579 0.01659542 0.02331542 0.9995905 0.05565816 0.02439993 0.9981517 0.1042038 0.0303232 0.9940937 0.0194869 0.07479214 0.9970088 0.05647534 0.080186 0.9951788 0.1037873 0.0923323 0.9903045 0.5476419 0.1218823 0.8277881 0.4973086 0.3559672 0.7911836 0.3812224 0.5355806 0.7535403 0.2012562 0.04768598 0.9783772 0.1860715 0.1431304 0.9720551 0.1592422 0.2233496 0.9616428 0.07654064 0.6788013 0.7303221 0.0329318 0.2774826 0.9601661 0.02147418 0.1456349 0.9891054 0.2319943 0.6397203 0.7327595 0.1016759 0.2610301 0.9599611 0.06558746 0.1455907 0.9871685 0.1031326 0.1448918 0.984058 -0.01660019 0 -0.9998623 -0.05332005 0 -0.9985775 -0.1042327 0 -0.994553 -0.201485 0 -0.9794917 -0.5517565 0 -0.8340053 -0.1120482 -0.9937028 2.03548e-6 -0.340923 -0.9400913 0 -0.5798919 -0.8146935 -2.8072e-7 -0.8131577 -0.5820435 -4.13411e-7 -0.9761174 -0.2172436 0 -0.01659983 0 0.9998623 -0.05332046 0 0.9985775 -0.1042327 0 0.994553 -0.201485 0 0.9794917 -0.5517565 0 0.8340053 -0.1120482 0.9937028 -2.03548e-6 -0.3409232 0.9400912 0 -0.5798917 0.8146936 2.8072e-7 -0.8131577 0.5820437 4.13411e-7 -0.9761176 0.2172435 0 0 0.02331858 -0.9997282 0 0.07480639 -0.9971981 0 0.1456688 -0.9893334 0 0.2776338 -0.9606871 0 0.6807945 -0.7324745 0 0.02331858 0.9997282 0 0.07480639 0.9971981 0 0.1456688 0.9893334 0 0.2776338 0.9606871 0 0.6807945 0.7324745 0.9761176 0.2172433 -1.23683e-6 0.8131558 0.5820461 -1.31877e-7 0.5798913 0.814694 7.16431e-7 0.3409224 0.9400915 7.91259e-7 0.1120487 0.9937027 0 0.01660019 0 -0.9998623 0.05332005 0 -0.9985775 0.1042327 0 -0.994553 0.201485 0 -0.9794917 0.5517565 0 -0.8340053 0.01659983 0 0.9998623 0.05332046 0 0.9985775 0.1042327 0 0.994553 0.201485 0 0.9794917 0.5517565 0 0.8340053 0.1120482 -0.9937028 -2.03548e-6 0.3409232 -0.9400912 0 0.5798917 -0.8146936 2.8072e-7 0.8131577 -0.5820437 4.13411e-7 0.9761176 -0.2172435 0 0 -0.02331858 -0.9997282 0 -0.07480639 -0.9971981 0 -0.1456688 -0.9893334 0 -0.2776338 -0.9606871 0 -0.6807945 -0.7324745 0 -0.02331858 0.9997282 0 -0.07480639 0.9971981 0 -0.1456688 0.9893334 0 -0.2776338 0.9606871 0 -0.6807945 0.7324745 -0.01856046 -0.02607554 -0.9994878 -0.01938498 -0.07479232 -0.9970107 -0.02148562 -0.1456354 -0.9891051 -0.05552607 -0.02470618 -0.9981516 -0.05647659 -0.08019244 -0.9951782 -0.06558722 -0.145119 -0.9872379 -0.08034479 -0.6370499 -0.766624 -0.2287667 -0.6031175 -0.7641434 -0.3811092 -0.5354243 -0.7537087 -0.03558552 -0.2667363 -0.9631124 -0.1016828 -0.2610284 -0.9599608 -0.1587387 -0.223384 -0.9617181 -0.5050567 -0.1257243 -0.8538802 -0.1927269 -0.05051046 -0.9799516 -0.1041657 -0.03033649 -0.9940972 -0.4585256 -0.34248 -0.8200377 -0.1885653 -0.1430592 -0.9715849 -0.1037859 -0.09253191 -0.9902861 -0.08034497 -0.6370509 0.766623 -0.03534138 -0.2661579 0.9632815 -0.02148526 -0.1456098 0.9891089 -0.2276294 -0.6015309 0.765732 -0.09963566 -0.2585086 0.9608569 -0.06565737 -0.1453541 0.9871987 -0.01856064 -0.0260756 0.9994877 -0.05330014 -0.02726674 0.9982062 -0.1041843 -0.03033745 0.9940952 -0.01756221 -0.07790374 0.9968062 -0.05708235 -0.07934659 0.9952115 -0.1036158 -0.09243041 0.9903133 -0.5050561 -0.1257243 0.8538804 -0.4598578 -0.3442765 0.818538 -0.3810603 -0.5354503 0.7537148 -0.1931595 -0.05086344 0.9798482 -0.1885616 -0.1430524 0.9715866 -0.1588314 -0.2231433 0.9617587 -0.01856034 0.0260756 -0.9994877 -0.05329978 0.02726644 -0.9982063 -0.1041847 0.03033745 -0.9940952 -0.01756197 0.07790374 -0.9968062 -0.05708152 0.07934677 -0.9952114 -0.1036154 0.09243041 -0.9903134 -0.5050561 0.1257243 -0.8538804 -0.4598564 0.3442768 -0.8185387 -0.3810603 0.5354503 -0.7537148 -0.1931588 0.05086344 -0.9798483 -0.1885616 0.1430524 -0.9715866 -0.1588314 0.2231433 -0.9617587 -0.08034497 0.6370509 -0.766623 -0.03534138 0.2661579 -0.9632815 -0.02148497 0.1456098 -0.9891089 -0.2276294 0.6015309 -0.765732 -0.09963619 0.2585086 -0.9608569 -0.06565737 0.1453541 -0.9871987 -0.01856046 0.02607554 0.9994878 -0.01938509 0.07479238 0.9970107 -0.02148532 0.1456354 0.9891051 -0.05552619 0.02470618 0.9981516 -0.05647611 0.08019274 0.9951782 -0.06558722 0.1451184 0.9872381 -0.08034479 0.6370499 0.766624 -0.2287667 0.6031175 0.7641434 -0.381109 0.5354244 0.7537087 -0.03558564 0.2667363 0.9631124 -0.1016826 0.2610284 0.9599609 -0.158739 0.223384 0.9617181 -0.5050566 0.1257243 0.8538802 -0.1927262 0.05051046 0.9799517 -0.1041662 0.03033649 0.9940972 -0.4585258 0.34248 0.8200376 -0.1885657 0.1430592 0.9715849 -0.1037856 0.09253191 0.9902861 0.01856034 -0.0260756 -0.9994877 0.05329978 -0.02726644 -0.9982063 0.1041847 -0.03033745 -0.9940952 0.01756197 -0.07790374 -0.9968062 0.05708152 -0.07934677 -0.9952114 0.1036154 -0.09243041 -0.9903134 0.5050561 -0.1257243 -0.8538804 0.4598564 -0.3442768 -0.8185387 0.3810603 -0.5354503 -0.7537148 0.1931588 -0.05086344 -0.9798483 0.1885616 -0.1430524 -0.9715866 0.1588314 -0.2231433 -0.9617587 0.08034497 -0.6370509 -0.766623 0.03534138 -0.2661579 -0.9632815 0.02148497 -0.1456098 -0.9891089 0.2276294 -0.6015309 -0.765732 0.09963619 -0.2585086 -0.9608569 0.06565737 -0.1453541 -0.9871987 0.01856046 -0.02607554 0.9994878 0.01938509 -0.07479238 0.9970107 0.02148532 -0.1456354 0.9891051 0.05552619 -0.02470618 0.9981516 0.05647611 -0.08019274 0.9951782 0.06558722 -0.1451184 0.9872381 0.08034479 -0.6370499 0.766624 0.2287667 -0.6031175 0.7641434 0.381109 -0.5354244 0.7537087 0.03558564 -0.2667363 0.9631124 0.1016826 -0.2610284 0.9599609 0.158739 -0.223384 0.9617181 0.5050566 -0.1257243 0.8538802 0.1927262 -0.05051046 0.9799517 0.1041662 -0.03033649 0.9940972 0.4585258 -0.34248 0.8200376 0.1885657 -0.1430592 0.9715849 0.1037856 -0.09253191 0.9902861 0.01856046 0.02607554 -0.9994878 0.01938498 0.07479232 -0.9970107 0.02148562 0.1456354 -0.9891051 0.05552607 0.02470618 -0.9981516 0.05647659 0.08019244 -0.9951782 0.06558722 0.145119 -0.9872379 0.08034479 0.6370499 -0.766624 0.2287667 0.6031175 -0.7641434 0.3811092 0.5354243 -0.7537087 0.03558552 0.2667363 -0.9631124 0.1016828 0.2610284 -0.9599608 0.1587387 0.223384 -0.9617181 0.5050567 0.1257243 -0.8538802 0.1927269 0.05051046 -0.9799516 0.1041657 0.03033649 -0.9940972 0.4585256 0.34248 -0.8200377 0.1885653 0.1430592 -0.9715849 0.1037859 0.09253191 -0.9902861 0.01856064 0.0260756 0.9994877 0.05330014 0.02726674 0.9982062 0.1041843 0.03033745 0.9940952 0.01756221 0.07790374 0.9968062 0.05708235 0.07934659 0.9952115 0.1036158 0.09243041 0.9903133 0.5050561 0.1257243 0.8538804 0.4598578 0.3442765 0.818538 0.3810603 0.5354503 0.7537148 0.1931595 0.05086344 0.9798482 0.1885616 0.1430524 0.9715866 0.1588314 0.2231433 0.9617587 0.08034497 0.6370509 0.766623 0.03534138 0.2661579 0.9632815 0.02148526 0.1456098 0.9891089 0.2276294 0.6015309 0.765732 0.09963566 0.2585086 0.9608569 0.06565737 0.1453541 0.9871987 -0.01660001 0 -0.9998623 -0.05332022 0 -0.9985775 -0.1042327 0 -0.994553 -0.2014845 0 -0.9794917 -0.5517581 0 -0.8340042 -0.1120487 -0.9937027 0 -0.3409224 -0.9400915 7.31868e-7 -0.5798913 -0.814694 7.98138e-7 -0.8131558 -0.582046 0 -0.9761176 -0.2172434 -1.20298e-6 -0.01660066 0 0.9998622 -0.05331951 0 0.9985775 -0.1042327 0 0.994553 -0.2014845 0 0.9794917 -0.5517581 0 0.8340042 -0.1120486 0.9937028 0 -0.3409222 0.9400915 -7.31868e-7 -0.5798916 0.8146938 -7.98138e-7 -0.8131558 0.5820463 0 -0.9761176 0.2172434 1.20298e-6 0 0.02331864 -0.9997282 0 0.07480633 -0.9971981 0 0.1456688 -0.9893334 0 0.2776333 -0.9606872 0 0.6807989 -0.7324704 0 0.02331864 0.9997282 0 0.07480633 0.9971981 0 0.2776333 0.9606872 0 0.6807989 0.7324704 0.9761174 0.2172436 0 0.8131577 0.5820435 -4.44688e-7 0.5798918 0.8146936 0 0.340923 0.9400913 0 0.1120481 0.9937028 1.39472e-6 0.01660001 0 -0.9998623 0.05332022 0 -0.9985775 0.1042327 0 -0.994553 0.2014845 0 -0.9794917 0.5517581 0 -0.8340042 0.01660066 0 0.9998622 0.05331951 0 0.9985775 0.1042327 0 0.994553 0.2014845 0 0.9794917 0.5517581 0 0.8340042 0.1120486 -0.9937028 0 0.3409222 -0.9400915 -7.31868e-7 0.5798916 -0.8146938 -7.98138e-7 0.8131558 -0.5820463 0 0.9761176 -0.2172434 1.20298e-6 0 -0.02331864 -0.9997282 0 -0.07480633 -0.9971981 0 -0.1456688 -0.9893334 0 -0.2776333 -0.9606872 0 -0.6807989 -0.7324704 0 -0.02331864 0.9997282 0 -0.07480633 0.9971981 0 -0.2776333 0.9606872 0 -0.6807989 0.7324704</float_array>
          <technique_common>
            <accessor source="#Cube_007-mesh-normals-array" count="420" stride="3">
              <param name="X" type="float"/>
              <param name="Y" type="float"/>
              <param name="Z" type="float"/>
            </accessor>
          </technique_common>
        </source>
        <source id="Cube_007-mesh-map-0">
          <float_array id="Cube_007-mesh-map-0-array" count="2640">0.625 0 0.375 0.25 0.375 0 0.625 0.25 0.375 0.5 0.375 0.25 0.625 0.5 0.375 0.75 0.375 0.5 0.625 0.75 0.375 1 0.375 0.75 0.375 0.5 0.125 0.75 0.125 0.5 0.875 0.5 0.625 0.75 0.625 0.5 0.5625 0.8125 0.4375 0.9375 0.4375 0.8125 0.5625 0.5625 0.4375 0.6875 0.4375 0.5625 0.8125001 0.5625 0.6875 0.6875 0.6875 0.5625 0.5625 0.0625 0.4375 0.1875 0.4375 0.0625 0.5625 0.3125 0.4375 0.4375 0.4375 0.3125 0.1875 0.7068172 0.1681828 0.6875 0.1875 0.6875 0.1875 0.7068172 0.168317 0.723384 0.1676707 0.7074409 0.1875 0.7242305 0.1682674 0.75 0.168317 0.723384 0.1681828 0.6875 0.151584 0.7067325 0.1507695 0.6875001 0.1676707 0.7074409 0.15443 0.72057 0.151584 0.7067325 0.168317 0.723384 0.15443 0.75 0.15443 0.72057 0.4375 0.9568172 0.4181828 0.9375 0.4375 0.9375 0.4375 0.9742305 0.4176707 0.9574409 0.4375 0.9568172 0.4375 0.9742305 0.4182675 1 0.418317 0.973384 0.4176707 0.9574409 0.4007696 0.9375 0.4181828 0.9375 0.4176707 0.9574409 0.4044301 0.97057 0.401584 0.9567325 0.418317 0.973384 0.4044301 1 0.4044301 0.97057 0.4181828 0.0625 0.4375 0.04318279 0.4375 0.0625 0.4007695 0.0625 0.417559 0.04267072 0.4181828 0.0625 0.375 0.0625 0.401616 0.04331701 0.4007695 0.0625 0.417559 0.04267072 0.4375 0.02576953 0.4375 0.04318279 0.401616 0.04331701 0.4182675 0.02658402 0.417559 0.04267072 0.375 0.04326748 0.4044301 0.02943009 0.401616 0.04331701 0.15443 0.72057 0.15443 0.75 0.125 0.7205699 0.5818172 0.9375 0.5625 0.9568172 0.5625 0.9375 0.5992305 0.9375001 0.582441 0.9573292 0.5818172 0.9375 0.625 0.9375 0.598384 0.956683 0.5992305 0.9375001 0.582441 0.9573292 0.5625 0.9742304 0.5625 0.9568172 0.582441 0.9573292 0.5955699 0.9705699 0.5817325 0.973416 0.625 0.9567325 0.5955699 0.9705699 0.598384 0.956683 0.8318173 0.6875 0.8125001 0.7068172 0.8125 0.6875001 0.8318173 0.6875 0.8483842 0.706683 0.8324409 0.7073292 0.8492305 0.6875 0.875 0.7067325 0.8483842 0.706683 0.8125001 0.7068172 0.8317325 0.723416 0.8125 0.7242304 0.8324409 0.7073292 0.8455699 0.72057 0.8317325 0.723416 0.8483842 0.706683 0.875 0.7205699 0.8455699 0.72057 0.5625001 0.04318279 0.5818172 0.0625 0.5625 0.0625 0.5625001 0.02576953 0.5823292 0.04255902 0.5625001 0.04318279 0.5625 0 0.5816829 0.02661591 0.5625001 0.02576953 0.5823292 0.04255902 0.5992305 0.0625 0.5818172 0.0625 0.5816829 0.02661591 0.598416 0.04326748 0.5823292 0.04255902 0.5817325 0 0.5955699 0.02943009 0.5816829 0.02661591 0.5955699 0.9705699 0.625 0.9705699 0.5955699 1 0.1681828 0.5625 0.1875 0.5431828 0.1875 0.5625 0.1681828 0.5625 0.1516159 0.543317 0.167559 0.5426708 0.1507695 0.5625 0.125 0.5432675 0.1516159 0.543317 0.1875 0.5431828 0.1682674 0.526584 0.1875 0.5257696 0.167559 0.5426708 0.1544301 0.5294301 0.1682674 0.526584 0.1516159 0.543317 0.125 0.5294301 0.1544301 0.5294301 0.4375 0.2068172 0.4181828 0.1875 0.4375 0.1875 0.4375 0.2242304 0.4176707 0.2074409 0.4375 0.2068172 0.4375 0.2757695 0.418317 0.223384 0.4375 0.2242304 0.4176707 0.2074409 0.4007696 0.1875 0.4181828 0.1875 0.418317 0.223384 0.401584 0.2067325 0.4176707 0.2074409 0.4182675 0.276584 0.4044301 0.2205699 0.418317 0.223384 0.4181828 0.3125 0.4375 0.2931828 0.4375 0.3125 0.4007695 0.3125 0.417559 0.2926708 0.4181828 0.3125 0.375 0.3125 0.401616 0.293317 0.4007695 0.3125 0.417559 0.2926708 0.4375 0.2757695 0.4375 0.2931828 0.417559 0.2926708 0.4044301 0.2794301 0.4182675 0.276584 0.375 0.2932675 0.4044301 0.2794301 0.401616 0.293317 0.1544301 0.5294301 0.125 0.5294301 0.15443 0.5 0.8125001 0.5431828 0.8318172 0.5625 0.8125001 0.5625 0.8125001 0.5431828 0.831683 0.526616 0.8323292 0.542559 0.8125001 0.5257696 0.8317325 0.5 0.831683 0.526616 0.8318172 0.5625 0.848416 0.5432675 0.8492305 0.5625 0.8323292 0.542559 0.8455699 0.5294301 0.848416 0.5432675 0.831683 0.526616 0.84557 0.5 0.8455699 0.5294301 0.5625001 0.2931828 0.5818172 0.3125 0.5625 0.3125 0.5625001 0.2757695 0.5823292 0.292559 0.5625001 0.2931828 0.5625001 0.2757695 0.5817325 0.2234159 0.5816829 0.276616 0.5823292 0.292559 0.5992305 0.3125 0.5818172 0.3125 0.5823292 0.292559 0.5955699 0.2794301 0.598416 0.2932675 0.5816829 0.276616 0.5955699 0.2205699 0.5955699 0.2794301 0.5818172 0.1875 0.5625 0.2068172 0.5625 0.1875 0.5992305 0.1875 0.582441 0.2073292 0.5818172 0.1875 0.625 0.1875 0.598384 0.2066829 0.5992305 0.1875 0.582441 0.2073292 0.5625 0.2242304 0.5625 0.2068172 0.598384 0.2066829 0.5817325 0.2234159 0.582441 0.2073292 0.625 0.2067325 0.5955699 0.2205699 0.598384 0.2066829 0.8455699 0.5294301 0.84557 0.5 0.875 0.5294301 0.3318172 0.6875 0.3125 0.7068172 0.3125 0.6875001 0.3318172 0.6875 0.348384 0.706683 0.3324409 0.7073292 0.3492304 0.6875 0.401584 0.7067325 0.348384 0.706683 0.3125 0.7068172 0.3317325 0.723416 0.3125 0.7242304 0.3324409 0.7073292 0.3455699 0.72057 0.3317325 0.723416 0.348384 0.706683 0.4044301 0.72057 0.3455699 0.72057 0.4375 0.7068172 0.4181828 0.6875 0.4375 0.6875 0.4375 0.7242305 0.4176707 0.7074409 0.4375 0.7068172 0.4375 0.7757696 0.418317 0.723384 0.4375 0.7242305 0.4176707 0.7074409 0.4007696 0.6875001 0.4181828 0.6875 0.418317 0.723384 0.401584 0.7067325 0.4176707 0.7074409 0.4182675 0.776584 0.4044301 0.72057 0.418317 0.723384 0.4181828 0.8125 0.4375 0.7931828 0.4375 0.8125 0.4007695 0.8125 0.417559 0.7926707 0.4181828 0.8125 0.375 0.8125 0.401616 0.793317 0.4007695 0.8125 0.417559 0.7926707 0.4375 0.7757696 0.4375 0.7931828 0.417559 0.7926707 0.4044301 0.7794302 0.4182675 0.776584 0.375 0.7932675 0.4044301 0.7794302 0.401616 0.793317 0.3455699 0.72057 0.375 0.7205699 0.3455699 0.75 0.6875 0.7068172 0.6681828 0.6875 0.6875 0.6875 0.6875 0.7068172 0.668317 0.723384 0.6676707 0.7074409 0.6875 0.7242305 0.6682675 0.75 0.668317 0.723384 0.6681828 0.6875 0.651584 0.7067325 0.6507696 0.6875001 0.6676707 0.7074409 0.6544301 0.72057 0.651584 0.7067325 0.668317 0.723384 0.65443 0.75 0.6544301 0.72057 0.5625001 0.7931829 0.5818172 0.8125 0.5625 0.8125 0.5625001 0.7757696 0.5823292 0.792559 0.5625001 0.7931829 0.5625001 0.7757696 0.5817325 0.723416 0.5816829 0.776616 0.5823292 0.792559 0.5992305 0.8125001 0.5818172 0.8125 0.5823292 0.792559 0.5955699 0.7794302 0.598416 0.7932675 0.5816829 0.776616 0.5955699 0.72057 0.5955699 0.7794302 0.5818172 0.6875 0.5625 0.7068172 0.5625 0.6875001 0.5992305 0.6875 0.582441 0.7073292 0.5818172 0.6875 0.6507696 0.6875001 0.598384 0.706683 0.5992305 0.6875 0.582441 0.7073292 0.5625 0.7242304 0.5625 0.7068172 0.598384 0.706683 0.5817325 0.723416 0.582441 0.7073292 0.651584 0.7067325 0.5955699 0.72057 0.598384 0.706683 0.6544301 0.72057 0.65443 0.75 0.625 0.7205699 0.3125 0.5431828 0.3318172 0.5625 0.3125 0.5625 0.3125 0.5431828 0.331683 0.526616 0.3323292 0.542559 0.3125 0.5257696 0.3317325 0.5 0.331683 0.526616 0.3318172 0.5625 0.3484159 0.5432675 0.3492305 0.5625 0.3323292 0.542559 0.3455699 0.5294301 0.3484159 0.5432675 0.331683 0.526616 0.3455699 0.5 0.3455699 0.5294301 0.4375 0.4568172 0.4181828 0.4375 0.4375 0.4375 0.4375 0.4742305 0.4176707 0.457441 0.4375 0.4568172 0.4375 0.4742305 0.4182675 0.526584 0.418317 0.473384 0.4176707 0.457441 0.4007696 0.4375 0.4181828 0.4375 0.4176707 0.457441 0.4044301 0.4705699 0.401584 0.4567325 0.418317 0.473384 0.4044301 0.5294301 0.4044301 0.4705699 0.4181828 0.5625 0.4375 0.5431828 0.4375 0.5625 0.4007695 0.5625 0.417559 0.5426708 0.4181828 0.5625 0.3492305 0.5625 0.401616 0.543317 0.4007695 0.5625 0.417559 0.5426708 0.4375 0.5257696 0.4375 0.5431828 0.401616 0.543317 0.4182675 0.526584 0.417559 0.5426708 0.3484159 0.5432675 0.4044301 0.5294301 0.401616 0.543317 0.3455699 0.5294301 0.3455699 0.5 0.375 0.5294301 0.6681829 0.5625 0.6875 0.5431828 0.6875 0.5625 0.6681829 0.5625 0.6516159 0.543317 0.6675591 0.5426708 0.6507696 0.5625 0.598416 0.5432675 0.6516159 0.543317 0.6875 0.5431828 0.6682675 0.526584 0.6875 0.5257696 0.6675591 0.5426708 0.6544301 0.5294301 0.6682675 0.526584 0.6516159 0.543317 0.5955699 0.5294301 0.6544301 0.5294301 0.5625001 0.5431828 0.5818172 0.5625 0.5625 0.5625 0.5625001 0.5257696 0.5823292 0.542559 0.5625001 0.5431828 0.5625 0.4742304 0.5816829 0.526616 0.5625001 0.5257696 0.5823292 0.542559 0.5992305 0.5625 0.5818172 0.5625 0.5816829 0.526616 0.598416 0.5432675 0.5823292 0.542559 0.5817325 0.473416 0.5955699 0.5294301 0.5816829 0.526616 0.5818172 0.4375 0.5625 0.4568172 0.5625 0.4375 0.5992305 0.4375 0.582441 0.4573292 0.5818172 0.4375 0.625 0.4375 0.598384 0.456683 0.5992305 0.4375 0.582441 0.4573292 0.5625 0.4742304 0.5625 0.4568172 0.582441 0.4573292 0.5955699 0.4705699 0.5817325 0.473416 0.625 0.4567325 0.5955699 0.4705699 0.598384 0.456683 0.6544301 0.5294301 0.625 0.5294301 0.65443 0.5 0.1875 0.5625 0.1681828 0.6875 0.1681828 0.5625 0.1681828 0.5625 0.1507695 0.6875001 0.1507695 0.5625 0.1507695 0.5625 0.125 0.6875 0.125 0.5625 0.4007695 0.0625 0.4181828 0.1875 0.4007696 0.1875 0.4181828 0.0625 0.4375 0.1875 0.4181828 0.1875 0.4375 0.9375 0.5625 0.9568172 0.4375 0.9568172 0.4375 0.9568172 0.5625 0.9742304 0.4375 0.9742305 0.4375 0.9742305 0.5625 1 0.4375 1 0.4375 0.02576953 0.5625001 0.04318279 0.4375 0.04318279 0.4375 0.04318279 0.5625 0.0625 0.4375 0.0625 0.8125 0.6875001 0.8318172 0.5625 0.8318173 0.6875 0.8318173 0.6875 0.8492305 0.5625 0.8492305 0.6875 0.8492305 0.6875 0.875 0.5625 0.875 0.6875 0.5992305 0.1875 0.5818172 0.0625 0.5992305 0.0625 0.5818172 0.1875 0.5625 0.0625 0.5818172 0.0625 0.5625 0.3125 0.4375 0.2931828 0.5625001 0.2931828 0.5625001 0.2931828 0.4375 0.2757695 0.5625001 0.2757695 0.5625001 0.2757695 0.4375 0.2242304 0.5625 0.2242304 0.5625 0.2242304 0.4375 0.2068172 0.5625 0.2068172 0.5625 0.2068172 0.4375 0.1875 0.5625 0.1875 0.3125 0.5625 0.1875 0.5431828 0.3125 0.5431828 0.1875 0.5431828 0.3125 0.5257696 0.3125 0.5431828 0.1875 0.5257696 0.3125 0.5 0.3125 0.5257696 0.4007695 0.3125 0.4181828 0.4375 0.4007696 0.4375 0.4181828 0.3125 0.4375 0.4375 0.4181828 0.4375 0.8125001 0.5625 0.6875 0.5431828 0.8125001 0.5431828 0.6875 0.5431828 0.8125001 0.5257696 0.8125001 0.5431828 0.6875 0.5257696 0.8125 0.5 0.8125001 0.5257696 0.5992305 0.4375 0.5818172 0.3125 0.5992305 0.3125 0.5818172 0.4375 0.5625 0.3125 0.5818172 0.3125 0.5625 0.5625 0.4375 0.5431828 0.5625001 0.5431828 0.5625001 0.5431828 0.4375 0.5257696 0.5625001 0.5257696 0.5625001 0.5257696 0.4375 0.4742305 0.5625 0.4742304 0.5625 0.4742304 0.4375 0.4568172 0.5625 0.4568172 0.5625 0.4568172 0.4375 0.4375 0.5625 0.4375 0.3125 0.6875001 0.3318172 0.5625 0.3318172 0.6875 0.3318172 0.6875 0.3492305 0.5625 0.3492304 0.6875 0.3492304 0.6875 0.4007695 0.5625 0.4007696 0.6875001 0.4007695 0.5625 0.4181828 0.6875 0.4007696 0.6875001 0.4181828 0.5625 0.4375 0.6875 0.4181828 0.6875 0.6875 0.5625 0.6681828 0.6875 0.6681829 0.5625 0.6681829 0.5625 0.6507696 0.6875001 0.6507696 0.5625 0.6507696 0.5625 0.5992305 0.6875 0.5992305 0.5625 0.5992305 0.6875 0.5818172 0.5625 0.5992305 0.5625 0.5818172 0.6875 0.5625 0.5625 0.5818172 0.5625 0.5625 0.8125 0.4375 0.7931828 0.5625001 0.7931829 0.5625001 0.7931829 0.4375 0.7757696 0.5625001 0.7757696 0.5625001 0.7757696 0.4375 0.7242305 0.5625 0.7242304 0.5625 0.7242304 0.4375 0.7068172 0.5625 0.7068172 0.5625 0.7068172 0.4375 0.6875 0.5625 0.6875001 0.1875 0.6875 0.3125 0.7068172 0.1875 0.7068172 0.3125 0.7068172 0.1875 0.7242305 0.1875 0.7068172 0.3125 0.7242304 0.1875 0.75 0.1875 0.7242305 0.4007695 0.8125 0.4181828 0.9375 0.4007696 0.9375 0.4181828 0.8125 0.4375 0.9375 0.4181828 0.9375 0.6875 0.6875 0.8125001 0.7068172 0.6875 0.7068172 0.8125001 0.7068172 0.6875 0.7242305 0.6875 0.7068172 0.8125 0.7242304 0.6875 0.75 0.6875 0.7242305 0.5992305 0.9375001 0.5818172 0.8125 0.5992305 0.8125001 0.5818172 0.9375 0.5625 0.8125 0.5818172 0.8125 0.3125 0.5625 0.1875 0.6875 0.1875 0.5625 0.625 0 0.625 0.25 0.375 0.25 0.625 0.25 0.625 0.5 0.375 0.5 0.625 0.5 0.625 0.75 0.375 0.75 0.625 0.75 0.625 1 0.375 1 0.375 0.5 0.375 0.75 0.125 0.75 0.875 0.5 0.875 0.75 0.625 0.75 0.5625 0.8125 0.5625 0.9375 0.4375 0.9375 0.5625 0.5625 0.5625 0.6875001 0.4375 0.6875 0.8125001 0.5625 0.8125 0.6875001 0.6875 0.6875 0.5625 0.0625 0.5625 0.1875 0.4375 0.1875 0.5625 0.3125 0.5625 0.4375 0.4375 0.4375 0.1875 0.7068172 0.1676707 0.7074409 0.1681828 0.6875 0.1875 0.7068172 0.1875 0.7242305 0.168317 0.723384 0.1875 0.7242305 0.1875 0.75 0.1682674 0.75 0.1681828 0.6875 0.1676707 0.7074409 0.151584 0.7067325 0.1676707 0.7074409 0.168317 0.723384 0.15443 0.72057 0.168317 0.723384 0.1682674 0.75 0.15443 0.75 0.4375 0.9568172 0.4176707 0.9574409 0.4181828 0.9375 0.4375 0.9742305 0.418317 0.973384 0.4176707 0.9574409 0.4375 0.9742305 0.4375 1 0.4182675 1 0.4176707 0.9574409 0.401584 0.9567325 0.4007696 0.9375 0.4176707 0.9574409 0.418317 0.973384 0.4044301 0.97057 0.418317 0.973384 0.4182675 1 0.4044301 1 0.4181828 0.0625 0.417559 0.04267072 0.4375 0.04318279 0.4007695 0.0625 0.401616 0.04331701 0.417559 0.04267072 0.375 0.0625 0.375 0.04326748 0.401616 0.04331701 0.417559 0.04267072 0.4182675 0.02658402 0.4375 0.02576953 0.401616 0.04331701 0.4044301 0.02943009 0.4182675 0.02658402 0.375 0.04326748 0.375 0.02943009 0.4044301 0.02943009 0.5818172 0.9375 0.582441 0.9573292 0.5625 0.9568172 0.5992305 0.9375001 0.598384 0.956683 0.582441 0.9573292 0.625 0.9375 0.625 0.9567325 0.598384 0.956683 0.582441 0.9573292 0.5817325 0.973416 0.5625 0.9742304 0.582441 0.9573292 0.598384 0.956683 0.5955699 0.9705699 0.625 0.9567325 0.625 0.9705699 0.5955699 0.9705699 0.8318173 0.6875 0.8324409 0.7073292 0.8125001 0.7068172 0.8318173 0.6875 0.8492305 0.6875 0.8483842 0.706683 0.8492305 0.6875 0.875 0.6875 0.875 0.7067325 0.8125001 0.7068172 0.8324409 0.7073292 0.8317325 0.723416 0.8324409 0.7073292 0.8483842 0.706683 0.8455699 0.72057 0.8483842 0.706683 0.875 0.7067325 0.875 0.7205699 0.5625001 0.04318279 0.5823292 0.04255902 0.5818172 0.0625 0.5625001 0.02576953 0.5816829 0.02661591 0.5823292 0.04255902 0.5625 0 0.5817325 0 0.5816829 0.02661591 0.5823292 0.04255902 0.598416 0.04326748 0.5992305 0.0625 0.5816829 0.02661591 0.5955699 0.02943009 0.598416 0.04326748 0.5817325 0 0.5955699 0 0.5955699 0.02943009 0.1681828 0.5625 0.167559 0.5426708 0.1875 0.5431828 0.1681828 0.5625 0.1507695 0.5625 0.1516159 0.543317 0.1507695 0.5625 0.125 0.5625 0.125 0.5432675 0.1875 0.5431828 0.167559 0.5426708 0.1682674 0.526584 0.167559 0.5426708 0.1516159 0.543317 0.1544301 0.5294301 0.1516159 0.543317 0.125 0.5432675 0.125 0.5294301 0.4375 0.2068172 0.4176707 0.2074409 0.4181828 0.1875 0.4375 0.2242304 0.418317 0.223384 0.4176707 0.2074409 0.4375 0.2757695 0.4182675 0.276584 0.418317 0.223384 0.4176707 0.2074409 0.401584 0.2067325 0.4007696 0.1875 0.418317 0.223384 0.4044301 0.2205699 0.401584 0.2067325 0.4182675 0.276584 0.4044301 0.2794301 0.4044301 0.2205699 0.4181828 0.3125 0.417559 0.2926708 0.4375 0.2931828 0.4007695 0.3125 0.401616 0.293317 0.417559 0.2926708 0.375 0.3125 0.375 0.2932675 0.401616 0.293317 0.417559 0.2926708 0.4182675 0.276584 0.4375 0.2757695 0.417559 0.2926708 0.401616 0.293317 0.4044301 0.2794301 0.375 0.2932675 0.375 0.2794301 0.4044301 0.2794301 0.8125001 0.5431828 0.8323292 0.542559 0.8318172 0.5625 0.8125001 0.5431828 0.8125001 0.5257696 0.831683 0.526616 0.8125001 0.5257696 0.8125 0.5 0.8317325 0.5 0.8318172 0.5625 0.8323292 0.542559 0.848416 0.5432675 0.8323292 0.542559 0.831683 0.526616 0.8455699 0.5294301 0.831683 0.526616 0.8317325 0.5 0.84557 0.5 0.5625001 0.2931828 0.5823292 0.292559 0.5818172 0.3125 0.5625001 0.2757695 0.5816829 0.276616 0.5823292 0.292559 0.5625001 0.2757695 0.5625 0.2242304 0.5817325 0.2234159 0.5823292 0.292559 0.598416 0.2932675 0.5992305 0.3125 0.5823292 0.292559 0.5816829 0.276616 0.5955699 0.2794301 0.5816829 0.276616 0.5817325 0.2234159 0.5955699 0.2205699 0.5818172 0.1875 0.582441 0.2073292 0.5625 0.2068172 0.5992305 0.1875 0.598384 0.2066829 0.582441 0.2073292 0.625 0.1875 0.625 0.2067325 0.598384 0.2066829 0.582441 0.2073292 0.5817325 0.2234159 0.5625 0.2242304 0.598384 0.2066829 0.5955699 0.2205699 0.5817325 0.2234159 0.625 0.2067325 0.625 0.2205699 0.5955699 0.2205699 0.3318172 0.6875 0.3324409 0.7073292 0.3125 0.7068172 0.3318172 0.6875 0.3492304 0.6875 0.348384 0.706683 0.3492304 0.6875 0.4007696 0.6875001 0.401584 0.7067325 0.3125 0.7068172 0.3324409 0.7073292 0.3317325 0.723416 0.3324409 0.7073292 0.348384 0.706683 0.3455699 0.72057 0.348384 0.706683 0.401584 0.7067325 0.4044301 0.72057 0.4375 0.7068172 0.4176707 0.7074409 0.4181828 0.6875 0.4375 0.7242305 0.418317 0.723384 0.4176707 0.7074409 0.4375 0.7757696 0.4182675 0.776584 0.418317 0.723384 0.4176707 0.7074409 0.401584 0.7067325 0.4007696 0.6875001 0.418317 0.723384 0.4044301 0.72057 0.401584 0.7067325 0.4182675 0.776584 0.4044301 0.7794302 0.4044301 0.72057 0.4181828 0.8125 0.417559 0.7926707 0.4375 0.7931828 0.4007695 0.8125 0.401616 0.793317 0.417559 0.7926707 0.375 0.8125 0.375 0.7932675 0.401616 0.793317 0.417559 0.7926707 0.4182675 0.776584 0.4375 0.7757696 0.417559 0.7926707 0.401616 0.793317 0.4044301 0.7794302 0.375 0.7932675 0.375 0.7794301 0.4044301 0.7794302 0.6875 0.7068172 0.6676707 0.7074409 0.6681828 0.6875 0.6875 0.7068172 0.6875 0.7242305 0.668317 0.723384 0.6875 0.7242305 0.6875 0.75 0.6682675 0.75 0.6681828 0.6875 0.6676707 0.7074409 0.651584 0.7067325 0.6676707 0.7074409 0.668317 0.723384 0.6544301 0.72057 0.668317 0.723384 0.6682675 0.75 0.65443 0.75 0.5625001 0.7931829 0.5823292 0.792559 0.5818172 0.8125 0.5625001 0.7757696 0.5816829 0.776616 0.5823292 0.792559 0.5625001 0.7757696 0.5625 0.7242304 0.5817325 0.723416 0.5823292 0.792559 0.598416 0.7932675 0.5992305 0.8125001 0.5823292 0.792559 0.5816829 0.776616 0.5955699 0.7794302 0.5816829 0.776616 0.5817325 0.723416 0.5955699 0.72057 0.5818172 0.6875 0.582441 0.7073292 0.5625 0.7068172 0.5992305 0.6875 0.598384 0.706683 0.582441 0.7073292 0.6507696 0.6875001 0.651584 0.7067325 0.598384 0.706683 0.582441 0.7073292 0.5817325 0.723416 0.5625 0.7242304 0.598384 0.706683 0.5955699 0.72057 0.5817325 0.723416 0.651584 0.7067325 0.6544301 0.72057 0.5955699 0.72057 0.3125 0.5431828 0.3323292 0.542559 0.3318172 0.5625 0.3125 0.5431828 0.3125 0.5257696 0.331683 0.526616 0.3125 0.5257696 0.3125 0.5 0.3317325 0.5 0.3318172 0.5625 0.3323292 0.542559 0.3484159 0.5432675 0.3323292 0.542559 0.331683 0.526616 0.3455699 0.5294301 0.331683 0.526616 0.3317325 0.5 0.3455699 0.5 0.4375 0.4568172 0.4176707 0.457441 0.4181828 0.4375 0.4375 0.4742305 0.418317 0.473384 0.4176707 0.457441 0.4375 0.4742305 0.4375 0.5257696 0.4182675 0.526584 0.4176707 0.457441 0.401584 0.4567325 0.4007696 0.4375 0.4176707 0.457441 0.418317 0.473384 0.4044301 0.4705699 0.418317 0.473384 0.4182675 0.526584 0.4044301 0.5294301 0.4181828 0.5625 0.417559 0.5426708 0.4375 0.5431828 0.4007695 0.5625 0.401616 0.543317 0.417559 0.5426708 0.3492305 0.5625 0.3484159 0.5432675 0.401616 0.543317 0.417559 0.5426708 0.4182675 0.526584 0.4375 0.5257696 0.401616 0.543317 0.4044301 0.5294301 0.4182675 0.526584 0.3484159 0.5432675 0.3455699 0.5294301 0.4044301 0.5294301 0.6681829 0.5625 0.6675591 0.5426708 0.6875 0.5431828 0.6681829 0.5625 0.6507696 0.5625 0.6516159 0.543317 0.6507696 0.5625 0.5992305 0.5625 0.598416 0.5432675 0.6875 0.5431828 0.6675591 0.5426708 0.6682675 0.526584 0.6675591 0.5426708 0.6516159 0.543317 0.6544301 0.5294301 0.6516159 0.543317 0.598416 0.5432675 0.5955699 0.5294301 0.5625001 0.5431828 0.5823292 0.542559 0.5818172 0.5625 0.5625001 0.5257696 0.5816829 0.526616 0.5823292 0.542559 0.5625 0.4742304 0.5817325 0.473416 0.5816829 0.526616 0.5823292 0.542559 0.598416 0.5432675 0.5992305 0.5625 0.5816829 0.526616 0.5955699 0.5294301 0.598416 0.5432675 0.5817325 0.473416 0.5955699 0.4705699 0.5955699 0.5294301 0.5818172 0.4375 0.582441 0.4573292 0.5625 0.4568172 0.5992305 0.4375 0.598384 0.456683 0.582441 0.4573292 0.625 0.4375 0.625 0.4567325 0.598384 0.456683 0.582441 0.4573292 0.5817325 0.473416 0.5625 0.4742304 0.582441 0.4573292 0.598384 0.456683 0.5955699 0.4705699 0.625 0.4567325 0.625 0.4705699 0.5955699 0.4705699 0.1875 0.5625 0.1875 0.6875 0.1681828 0.6875 0.1681828 0.5625 0.1681828 0.6875 0.1507695 0.6875001 0.1507695 0.5625 0.1507695 0.6875001 0.125 0.6875 0.4007695 0.0625 0.4181828 0.0625 0.4181828 0.1875 0.4181828 0.0625 0.4375 0.0625 0.4375 0.1875 0.4375 0.9375 0.5625 0.9375 0.5625 0.9568172 0.4375 0.9568172 0.5625 0.9568172 0.5625 0.9742304 0.4375 0.9742305 0.5625 0.9742304 0.5625 1 0.4375 0.02576953 0.5625001 0.02576953 0.5625001 0.04318279 0.4375 0.04318279 0.5625001 0.04318279 0.5625 0.0625 0.8125 0.6875001 0.8125001 0.5625 0.8318172 0.5625 0.8318173 0.6875 0.8318172 0.5625 0.8492305 0.5625 0.8492305 0.6875 0.8492305 0.5625 0.875 0.5625 0.5992305 0.1875 0.5818172 0.1875 0.5818172 0.0625 0.5818172 0.1875 0.5625 0.1875 0.5625 0.0625 0.5625 0.3125 0.4375 0.3125 0.4375 0.2931828 0.5625001 0.2931828 0.4375 0.2931828 0.4375 0.2757695 0.5625001 0.2757695 0.4375 0.2757695 0.4375 0.2242304 0.5625 0.2242304 0.4375 0.2242304 0.4375 0.2068172 0.5625 0.2068172 0.4375 0.2068172 0.4375 0.1875 0.3125 0.5625 0.1875 0.5625 0.1875 0.5431828 0.1875 0.5431828 0.1875 0.5257696 0.3125 0.5257696 0.1875 0.5257696 0.1875 0.5 0.3125 0.5 0.4007695 0.3125 0.4181828 0.3125 0.4181828 0.4375 0.4181828 0.3125 0.4375 0.3125 0.4375 0.4375 0.8125001 0.5625 0.6875 0.5625 0.6875 0.5431828 0.6875 0.5431828 0.6875 0.5257696 0.8125001 0.5257696 0.6875 0.5257696 0.6875 0.5 0.8125 0.5 0.5992305 0.4375 0.5818172 0.4375 0.5818172 0.3125 0.5818172 0.4375 0.5625 0.4375 0.5625 0.3125 0.5625 0.5625 0.4375 0.5625 0.4375 0.5431828 0.5625001 0.5431828 0.4375 0.5431828 0.4375 0.5257696 0.5625001 0.5257696 0.4375 0.5257696 0.4375 0.4742305 0.5625 0.4742304 0.4375 0.4742305 0.4375 0.4568172 0.5625 0.4568172 0.4375 0.4568172 0.4375 0.4375 0.3125 0.6875001 0.3125 0.5625 0.3318172 0.5625 0.3318172 0.6875 0.3318172 0.5625 0.3492305 0.5625 0.3492304 0.6875 0.3492305 0.5625 0.4007695 0.5625 0.4007695 0.5625 0.4181828 0.5625 0.4181828 0.6875 0.4181828 0.5625 0.4375 0.5625 0.4375 0.6875 0.6875 0.5625 0.6875 0.6875 0.6681828 0.6875 0.6681829 0.5625 0.6681828 0.6875 0.6507696 0.6875001 0.6507696 0.5625 0.6507696 0.6875001 0.5992305 0.6875 0.5992305 0.6875 0.5818172 0.6875 0.5818172 0.5625 0.5818172 0.6875 0.5625 0.6875001 0.5625 0.5625 0.5625 0.8125 0.4375 0.8125 0.4375 0.7931828 0.5625001 0.7931829 0.4375 0.7931828 0.4375 0.7757696 0.5625001 0.7757696 0.4375 0.7757696 0.4375 0.7242305 0.5625 0.7242304 0.4375 0.7242305 0.4375 0.7068172 0.5625 0.7068172 0.4375 0.7068172 0.4375 0.6875 0.1875 0.6875 0.3125 0.6875001 0.3125 0.7068172 0.3125 0.7068172 0.3125 0.7242304 0.1875 0.7242305 0.3125 0.7242304 0.3125 0.75 0.1875 0.75 0.4007695 0.8125 0.4181828 0.8125 0.4181828 0.9375 0.4181828 0.8125 0.4375 0.8125 0.4375 0.9375 0.6875 0.6875 0.8125 0.6875001 0.8125001 0.7068172 0.8125001 0.7068172 0.8125 0.7242304 0.6875 0.7242305 0.8125 0.7242304 0.8125 0.75 0.6875 0.75 0.5992305 0.9375001 0.5818172 0.9375 0.5818172 0.8125 0.5818172 0.9375 0.5625 0.9375 0.5625 0.8125 0.3125 0.5625 0.3125 0.6875001 0.1875 0.6875</float_array>
          <technique_common>
            <accessor source="#Cube_007-mesh-map-0-array" count="1320" stride="2">
              <param name="S" type="float"/>
              <param name="T" type="float"/>
            </accessor>
          </technique_common>
        </source>
        <vertices id="Cube_007-mesh-vertices">
          <input semantic="POSITION" source="#Cube_007-mesh-positions"/>
        </vertices>
        <triangles material="Material_005-material" count="12">
          <input semantic="VERTEX" source="#Cube_007-mesh-vertices" offset="0"/>
          <input semantic="NORMAL" source="#Cube_007-mesh-normals" offset="1"/>
          <input semantic="TEXCOORD" source="#Cube_007-mesh-map-0" offset="2" set="0"/>
          <p>1 0 0 2 0 1 0 0 2 3 1 3 6 1 4 2 1 5 7 2 6 4 2 7 6 2 8 5 3 9 0 3 10 4 3 11 6 4 12 0 4 13 2 4 14 3 5 15 5 5 16 7 5 17 1 0 672 3 0 673 2 0 674 3 1 675 7 1 676 6 1 677 7 2 678 5 2 679 4 2 680 5 3 681 1 3 682 0 3 683 6 4 684 4 4 685 0 4 686 3 5 687 1 5 688 5 5 689</p>
        </triangles>
        <triangles material="Material_004-material" count="428">
          <input semantic="VERTEX" source="#Cube_007-mesh-vertices" offset="0"/>
          <input semantic="NORMAL" source="#Cube_007-mesh-normals" offset="1"/>
          <input semantic="TEXCOORD" source="#Cube_007-mesh-map-0" offset="2" set="0"/>
          <p>144 3 18 9 3 19 118 3 20 198 2 21 117 2 22 172 2 23 89 5 24 143 5 25 197 5 26 37 0 27 63 0 28 10 0 29 90 1 30 171 1 31 64 1 32 11 6 33 13 6 34 8 6 35 11 7 36 15 7 37 14 7 38 12 8 39 25 8 40 15 8 41 13 9 42 17 9 43 16 9 44 14 10 45 18 10 46 17 10 47 15 11 48 26 11 49 18 11 50 19 12 51 21 12 52 9 12 53 20 13 54 22 13 55 19 13 56 20 14 57 33 14 58 23 14 59 22 15 60 24 15 61 21 15 62 22 16 63 26 16 64 25 16 65 23 17 66 34 17 67 26 17 68 27 18 69 29 18 70 10 18 71 28 19 72 30 19 73 27 19 74 16 20 75 31 20 76 28 20 77 30 21 78 32 21 79 29 21 80 31 22 81 33 22 82 30 22 83 17 23 84 34 23 85 31 23 86 18 24 87 26 24 88 34 24 89 38 25 90 40 25 91 35 25 92 39 26 93 41 26 94 38 26 95 51 27 96 42 27 97 39 27 98 41 28 99 43 28 100 40 28 101 41 29 102 45 29 103 44 29 104 52 30 105 45 30 106 42 30 107 46 31 108 48 31 109 36 31 110 46 32 111 50 32 112 49 32 113 47 33 114 60 33 115 50 33 116 48 34 117 52 34 118 51 34 119 49 35 120 53 35 121 52 35 122 50 36 123 61 36 124 53 36 125 54 37 126 56 37 127 37 37 128 55 38 129 57 38 130 54 38 131 43 39 132 58 39 133 55 39 134 57 40 135 59 40 136 56 40 137 58 41 138 60 41 139 57 41 140 44 42 141 61 42 142 58 42 143 45 43 144 53 43 145 61 43 146 65 44 147 67 44 148 62 44 149 65 45 150 69 45 151 68 45 152 66 46 153 79 46 154 69 46 155 67 47 156 71 47 157 70 47 158 68 48 159 72 48 160 71 48 161 69 49 162 80 49 163 72 49 164 73 50 165 75 50 166 63 50 167 74 51 168 76 51 169 73 51 170 86 52 171 77 52 172 74 52 173 76 53 174 78 53 175 75 53 176 77 54 177 79 54 178 76 54 179 87 55 180 80 55 181 77 55 182 81 56 183 83 56 184 64 56 185 82 57 186 84 57 187 81 57 188 70 58 189 85 58 190 82 58 191 84 59 192 86 59 193 83 59 194 84 60 195 88 60 196 87 60 197 71 61 198 88 61 199 85 61 200 72 62 201 80 62 202 88 62 203 92 63 204 94 63 205 89 63 206 92 64 207 96 64 208 95 64 209 93 65 210 106 65 211 96 65 212 94 66 213 98 66 214 97 66 215 95 67 216 99 67 217 98 67 218 96 68 219 107 68 220 99 68 221 100 69 222 102 69 223 90 69 224 101 70 225 103 70 226 100 70 227 101 71 228 114 71 229 104 71 230 103 72 231 105 72 232 102 72 233 103 73 234 107 73 235 106 73 236 104 74 237 115 74 238 107 74 239 108 75 240 110 75 241 91 75 242 109 76 243 111 76 244 108 76 245 97 77 246 112 77 247 109 77 248 111 78 249 113 78 250 110 78 251 112 79 252 114 79 253 111 79 254 98 80 255 115 80 256 112 80 257 99 81 258 107 81 259 115 81 260 119 82 261 121 82 262 116 82 263 119 83 264 123 83 265 122 83 266 120 84 267 133 84 268 123 84 269 121 85 270 125 85 271 124 85 272 122 86 273 126 86 274 125 86 275 123 87 276 134 87 277 126 87 278 127 88 279 129 88 280 117 88 281 128 89 282 130 89 283 127 89 284 140 90 285 131 90 286 128 90 287 130 91 288 132 91 289 129 91 290 131 92 291 133 92 292 130 92 293 141 93 294 134 93 295 131 93 296 135 94 297 137 94 298 118 94 299 136 95 300 138 95 301 135 95 302 124 96 303 139 96 304 136 96 305 138 97 306 140 97 307 137 97 308 138 98 309 142 98 310 141 98 311 125 99 312 142 99 313 139 99 314 126 100 315 134 100 316 142 100 317 146 101 318 148 101 319 143 101 320 146 102 321 150 102 322 149 102 323 147 103 324 160 103 325 150 103 326 148 104 327 152 104 328 151 104 329 149 105 330 153 105 331 152 105 332 150 106 333 161 106 334 153 106 335 154 107 336 156 107 337 144 107 338 155 108 339 157 108 340 154 108 341 155 109 342 168 109 343 158 109 344 157 110 345 159 110 346 156 110 347 157 111 348 161 111 349 160 111 350 158 112 351 169 112 352 161 112 353 162 113 354 164 113 355 145 113 356 163 114 357 165 114 358 162 114 359 151 115 360 166 115 361 163 115 362 165 116 363 167 116 364 164 116 365 166 117 366 168 117 367 165 117 368 152 118 369 169 118 370 166 118 371 153 119 372 161 119 373 169 119 374 173 120 375 175 120 376 170 120 377 173 121 378 177 121 379 176 121 380 174 122 381 187 122 382 177 122 383 175 123 384 179 123 385 178 123 386 176 124 387 180 124 388 179 124 389 177 125 390 188 125 391 180 125 392 181 126 393 183 126 394 171 126 395 182 127 396 184 127 397 181 127 398 182 128 399 195 128 400 185 128 401 184 129 402 186 129 403 183 129 404 184 130 405 188 130 406 187 130 407 185 131 408 196 131 409 188 131 410 189 132 411 191 132 412 172 132 413 190 133 414 192 133 415 189 133 416 178 134 417 193 134 418 190 134 419 192 135 420 194 135 421 191 135 422 193 136 423 195 136 424 192 136 425 179 137 426 196 137 427 193 137 428 180 138 429 188 138 430 196 138 431 200 139 432 202 139 433 197 139 434 200 140 435 204 140 436 203 140 437 201 141 438 214 141 439 204 141 440 202 142 441 206 142 442 205 142 443 203 143 444 207 143 445 206 143 446 204 144 447 215 144 448 207 144 449 208 145 450 210 145 451 198 145 452 209 146 453 211 146 454 208 146 455 221 147 456 212 147 457 209 147 458 211 148 459 213 148 460 210 148 461 212 149 462 214 149 463 211 149 464 222 150 465 215 150 466 212 150 467 216 151 468 218 151 469 199 151 470 217 152 471 219 152 472 216 152 473 205 153 474 220 153 475 217 153 476 219 154 477 221 154 478 218 154 479 219 155 480 223 155 481 222 155 482 206 156 483 223 156 484 220 156 485 207 157 486 215 157 487 223 157 488 62 158 489 13 158 490 65 158 491 65 159 492 16 159 493 66 159 494 66 160 495 28 160 496 78 160 497 28 161 498 75 161 499 78 161 500 27 162 501 63 162 502 75 162 503 9 163 504 40 163 505 19 163 506 19 164 507 43 164 508 20 164 509 20 165 510 55 165 511 32 165 512 32 166 513 54 166 514 29 166 515 29 167 516 37 167 517 10 167 518 36 168 519 94 168 520 46 168 521 46 169 522 97 169 523 47 169 524 47 170 525 109 170 526 59 170 527 109 171 528 56 171 529 59 171 530 108 172 531 37 172 532 56 172 533 90 173 534 83 173 535 100 173 536 100 174 537 86 174 538 101 174 539 101 175 540 74 175 541 113 175 542 113 176 543 73 176 544 110 176 545 110 177 546 63 177 547 91 177 548 170 178 549 67 178 550 173 178 551 67 179 552 174 179 553 173 179 554 70 180 555 186 180 556 174 180 557 82 181 558 183 181 559 186 181 560 81 182 561 171 182 562 183 182 563 89 183 564 202 183 565 92 183 566 202 184 567 93 184 568 92 184 569 205 185 570 105 185 571 93 185 572 217 186 573 102 186 574 105 186 575 216 187 576 90 187 577 102 187 578 198 188 579 191 188 580 208 188 581 208 189 582 194 189 583 209 189 584 209 190 585 182 190 586 221 190 587 221 191 588 181 191 589 218 191 590 218 192 591 171 192 592 199 192 593 116 193 594 175 193 595 119 193 596 119 194 597 178 194 598 120 194 599 120 195 600 190 195 601 132 195 602 190 196 603 129 196 604 132 196 605 189 197 606 117 197 607 129 197 608 197 198 609 148 198 610 200 198 611 200 199 612 151 199 613 201 199 614 201 200 615 163 200 616 213 200 617 163 201 618 210 201 619 213 201 620 162 202 621 198 202 622 210 202 623 144 203 624 137 203 625 154 203 626 154 204 627 140 204 628 155 204 629 155 205 630 128 205 631 167 205 632 167 206 633 127 206 634 164 206 635 164 207 636 117 207 637 145 207 638 8 208 639 121 208 640 11 208 641 121 209 642 12 209 643 11 209 644 124 210 645 24 210 646 12 210 647 136 211 648 21 211 649 24 211 650 135 212 651 9 212 652 21 212 653 143 213 654 48 213 655 146 213 656 48 214 657 147 214 658 146 214 659 51 215 660 159 215 661 147 215 662 39 216 663 156 216 664 159 216 665 38 217 666 144 217 667 156 217 668 170 4 669 8 4 670 62 4 671 144 3 690 35 3 691 9 3 692 198 2 693 145 2 694 117 2 695 89 5 696 36 5 697 143 5 698 37 0 699 91 0 700 63 0 701 90 1 702 199 1 703 171 1 704 11 218 705 14 218 706 13 218 707 11 219 708 12 219 709 15 219 710 12 220 711 24 220 712 25 220 713 13 221 714 14 221 715 17 221 716 14 222 717 15 222 718 18 222 719 15 223 720 25 223 721 26 223 722 19 224 723 22 224 724 21 224 725 20 225 726 23 225 727 22 225 728 20 226 729 32 226 730 33 226 731 22 227 732 25 227 733 24 227 734 22 228 735 23 228 736 26 228 737 23 229 738 33 229 739 34 229 740 27 230 741 30 230 742 29 230 743 28 231 744 31 231 745 30 231 746 16 232 747 17 232 748 31 232 749 30 233 750 33 233 751 32 233 752 31 234 753 34 234 754 33 234 755 17 235 756 18 235 757 34 235 758 38 236 759 41 236 760 40 236 761 39 237 762 42 237 763 41 237 764 51 238 765 52 238 766 42 238 767 41 239 768 44 239 769 43 239 770 41 240 771 42 240 772 45 240 773 52 241 774 53 241 775 45 241 776 46 242 777 49 242 778 48 242 779 46 243 780 47 243 781 50 243 782 47 244 783 59 244 784 60 244 785 48 245 786 49 245 787 52 245 788 49 246 789 50 246 790 53 246 791 50 247 792 60 247 793 61 247 794 54 248 795 57 248 796 56 248 797 55 249 798 58 249 799 57 249 800 43 250 801 44 250 802 58 250 803 57 251 804 60 251 805 59 251 806 58 252 807 61 252 808 60 252 809 44 253 810 45 253 811 61 253 812 65 254 813 68 254 814 67 254 815 65 255 816 66 255 817 69 255 818 66 256 819 78 256 820 79 256 821 67 257 822 68 257 823 71 257 824 68 258 825 69 258 826 72 258 827 69 259 828 79 259 829 80 259 830 73 260 831 76 260 832 75 260 833 74 261 834 77 261 835 76 261 836 86 262 837 87 262 838 77 262 839 76 263 840 79 263 841 78 263 842 77 264 843 80 264 844 79 264 845 87 265 846 88 265 847 80 265 848 81 266 849 84 266 850 83 266 851 82 267 852 85 267 853 84 267 854 70 268 855 71 268 856 85 268 857 84 269 858 87 269 859 86 269 860 84 270 861 85 270 862 88 270 863 71 271 864 72 271 865 88 271 866 92 272 867 95 272 868 94 272 869 92 273 870 93 273 871 96 273 872 93 274 873 105 274 874 106 274 875 94 275 876 95 275 877 98 275 878 95 276 879 96 276 880 99 276 881 96 277 882 106 277 883 107 277 884 100 278 885 103 278 886 102 278 887 101 279 888 104 279 889 103 279 890 101 280 891 113 280 892 114 280 893 103 281 894 106 281 895 105 281 896 103 282 897 104 282 898 107 282 899 104 283 900 114 283 901 115 283 902 108 284 903 111 284 904 110 284 905 109 285 906 112 285 907 111 285 908 97 286 909 98 286 910 112 286 911 111 287 912 114 287 913 113 287 914 112 288 915 115 288 916 114 288 917 98 289 918 99 289 919 115 289 920 119 290 921 122 290 922 121 290 923 119 291 924 120 291 925 123 291 926 120 292 927 132 292 928 133 292 929 121 293 930 122 293 931 125 293 932 122 294 933 123 294 934 126 294 935 123 295 936 133 295 937 134 295 938 127 296 939 130 296 940 129 296 941 128 297 942 131 297 943 130 297 944 140 298 945 141 298 946 131 298 947 130 299 948 133 299 949 132 299 950 131 300 951 134 300 952 133 300 953 141 301 954 142 301 955 134 301 956 135 302 957 138 302 958 137 302 959 136 303 960 139 303 961 138 303 962 124 304 963 125 304 964 139 304 965 138 305 966 141 305 967 140 305 968 138 306 969 139 306 970 142 306 971 125 307 972 126 307 973 142 307 974 146 308 975 149 308 976 148 308 977 146 309 978 147 309 979 150 309 980 147 310 981 159 310 982 160 310 983 148 311 984 149 311 985 152 311 986 149 312 987 150 312 988 153 312 989 150 313 990 160 313 991 161 313 992 154 314 993 157 314 994 156 314 995 155 315 996 158 315 997 157 315 998 155 316 999 167 316 1000 168 316 1001 157 317 1002 160 317 1003 159 317 1004 157 318 1005 158 318 1006 161 318 1007 158 319 1008 168 319 1009 169 319 1010 162 320 1011 165 320 1012 164 320 1013 163 321 1014 166 321 1015 165 321 1016 151 322 1017 152 322 1018 166 322 1019 165 323 1020 168 323 1021 167 323 1022 166 324 1023 169 324 1024 168 324 1025 152 325 1026 153 325 1027 169 325 1028 173 326 1029 176 326 1030 175 326 1031 173 327 1032 174 327 1033 177 327 1034 174 328 1035 186 328 1036 187 328 1037 175 329 1038 176 329 1039 179 329 1040 176 330 1041 177 330 1042 180 330 1043 177 331 1044 187 331 1045 188 331 1046 181 332 1047 184 332 1048 183 332 1049 182 333 1050 185 333 1051 184 333 1052 182 334 1053 194 334 1054 195 334 1055 184 335 1056 187 335 1057 186 335 1058 184 336 1059 185 336 1060 188 336 1061 185 337 1062 195 337 1063 196 337 1064 189 338 1065 192 338 1066 191 338 1067 190 339 1068 193 339 1069 192 339 1070 178 340 1071 179 340 1072 193 340 1073 192 341 1074 195 341 1075 194 341 1076 193 342 1077 196 342 1078 195 342 1079 179 343 1080 180 343 1081 196 343 1082 200 344 1083 203 344 1084 202 344 1085 200 345 1086 201 345 1087 204 345 1088 201 346 1089 213 346 1090 214 346 1091 202 347 1092 203 347 1093 206 347 1094 203 348 1095 204 348 1096 207 348 1097 204 349 1098 214 349 1099 215 349 1100 208 350 1101 211 350 1102 210 350 1103 209 351 1104 212 351 1105 211 351 1106 221 352 1107 222 352 1108 212 352 1109 211 353 1110 214 353 1111 213 353 1112 212 354 1113 215 354 1114 214 354 1115 222 355 1116 223 355 1117 215 355 1118 216 356 1119 219 356 1120 218 356 1121 217 357 1122 220 357 1123 219 357 1124 205 358 1125 206 358 1126 220 358 1127 219 359 1128 222 359 1129 221 359 1130 219 360 1131 220 360 1132 223 360 1133 206 361 1134 207 361 1135 223 361 1136 62 362 1137 8 362 1138 13 362 1139 65 363 1140 13 363 1141 16 363 1142 66 364 1143 16 364 1144 28 364 1145 28 365 1146 27 365 1147 75 365 1148 27 366 1149 10 366 1150 63 366 1151 9 367 1152 35 367 1153 40 367 1154 19 368 1155 40 368 1156 43 368 1157 20 369 1158 43 369 1159 55 369 1160 32 370 1161 55 370 1162 54 370 1163 29 371 1164 54 371 1165 37 371 1166 36 372 1167 89 372 1168 94 372 1169 46 373 1170 94 373 1171 97 373 1172 47 374 1173 97 374 1174 109 374 1175 109 375 1176 108 375 1177 56 375 1178 108 376 1179 91 376 1180 37 376 1181 90 377 1182 64 377 1183 83 377 1184 100 378 1185 83 378 1186 86 378 1187 101 379 1188 86 379 1189 74 379 1190 113 380 1191 74 380 1192 73 380 1193 110 381 1194 73 381 1195 63 381 1196 170 382 1197 62 382 1198 67 382 1199 67 383 1200 70 383 1201 174 383 1202 70 384 1203 82 384 1204 186 384 1205 82 385 1206 81 385 1207 183 385 1208 81 386 1209 64 386 1210 171 386 1211 89 387 1212 197 387 1213 202 387 1214 202 388 1215 205 388 1216 93 388 1217 205 185 1218 217 185 1219 105 185 1220 217 389 1221 216 389 1222 102 389 1223 216 390 1224 199 390 1225 90 390 1226 198 391 1227 172 391 1228 191 391 1229 208 392 1230 191 392 1231 194 392 1232 209 393 1233 194 393 1234 182 393 1235 221 394 1236 182 394 1237 181 394 1238 218 395 1239 181 395 1240 171 395 1241 116 396 1242 170 396 1243 175 396 1244 119 397 1245 175 397 1246 178 397 1247 120 398 1248 178 398 1249 190 398 1250 190 399 1251 189 399 1252 129 399 1253 189 400 1254 172 400 1255 117 400 1256 197 401 1257 143 401 1258 148 401 1259 200 402 1260 148 402 1261 151 402 1262 201 403 1263 151 403 1264 163 403 1265 163 404 1266 162 404 1267 210 404 1268 162 405 1269 145 405 1270 198 405 1271 144 406 1272 118 406 1273 137 406 1274 154 407 1275 137 407 1276 140 407 1277 155 408 1278 140 408 1279 128 408 1280 167 409 1281 128 409 1282 127 409 1283 164 410 1284 127 410 1285 117 410 1286 8 411 1287 116 411 1288 121 411 1289 121 412 1290 124 412 1291 12 412 1292 124 413 1293 136 413 1294 24 413 1295 136 414 1296 135 414 1297 21 414 1298 135 415 1299 118 415 1300 9 415 1301 143 416 1302 36 416 1303 48 416 1304 48 417 1305 51 417 1306 147 417 1307 51 215 1308 39 215 1309 159 215 1310 39 418 1311 38 418 1312 156 418 1313 38 419 1314 35 419 1315 144 419 1316 170 4 1317 116 4 1318 8 4 1319</p>
        </triangles>
      </mesh>
    </geometry>
  </library_geometries>
  <library_visual_scenes>
    <visual_scene id="Scene" name="Scene">
      <node id="lift" name="lift" type="NODE">
        <matrix sid="transform">0.25 0 0 0 0 0 -0.125 0 0 0.25 0 0 0 0 0 1</matrix>
        <instance_geometry url="#Cube_007-mesh" name="lift">
          <bind_material>
            <technique_common>
              <instance_material symbol="Material_005-material" target="#Material_005-material">
                <bind_vertex_input semantic="UVMap" input_semantic="TEXCOORD" input_set="0"/>
              </instance_material>
              <instance_material symbol="Material_004-material" target="#Material_004-material">
                <bind_vertex_input semantic="UVMap" input_semantic="TEXCOORD" input_set="0"/>
              </instance_material>
            </technique_common>
          </bind_material>
        </instance_geometry>
      </node>
    </visual_scene>
  </library_visual_scenes>
  <scene>
    <instance_visual_scene url="#Scene"/>
  </scene>
</COLLADA>