<?xml version="1.0" encoding="utf-8"?>
<COLLADA xmlns="http://www.collada.org/2005/11/COLLADASchema" version="1.4.1" xmlns:xsi="http://www.w3.org/2001/XMLSchema-instance">
  <asset>
    <contributor>
      <author>Blender User</author>
      <authoring_tool>Blender 2.83.20 commit date:2022-04-19, commit time:16:00, hash:a56e2faeb7a9</authoring_tool>
    </contributor>
    <created>2026-06-17T15:17:45</created>
    <modified>2026-06-17T15:17:45</modified>
    <unit name="meter" meter="1"/>
    <up_axis>Z_UP</up_axis>
  </asset>
  <library_effects>
    <effect id="Material_004-effect">
      <profile_COMMON>
        <technique sid="common">
          <lambert>
            <emission>
              <color sid="emission">0 0 0 1</color>
            </emission>
            <diffuse>
              <color sid="diffuse">0.3 0 0 1</color>
            </diffuse>
            <reflectivity>
              <float sid="specular">0.5</float>
            </reflectivity>
          </lambert>
        </technique>
      </profile_COMMON>
    </effect>
  </library_effects>
  <library_images/>
  <library_materials>
    <material id="Material_004-material" name="Material.004">
      <instance_effect url="#Material_004-effect"/>
    </material>
  </library_materials>
  <library_geometries>
    <geometry id="Cube_008-mesh" name="Cube.008">
      <mesh>
        <source id="Cube_008-mesh-positions">
          <float_array id="Cube_008-mesh-positions-array" count="648">-0.5 -0.5 -1 -0.5 -1 -0.5 -1 -0.5 -0.5 -0.5 -0.6545374 -0.975519 -0.5 -0.7938436 -0.9045441 -0.6545373 -0.5 -0.9755189 -0.658634 -0.6595277 -0.9465268 -0.6534637 -0.7870723 -0.8795239 -0.7938435 -0.5 -0.9045442 -0.7873277 -0.65386 -0.8791701 -0.7645593 -0.7645593 -0.8316878 -0.6545374 -0.975519 -0.5 -0.7938436 -0.9045441 -0.5 -0.5 -0.9755189 -0.6545373 -0.6595277 -0.9465268 -0.658634 -0.7870723 -0.8795239 -0.6534637 -0.5 -0.9045442 -0.7938435 -0.65386 -0.8791701 -0.7873277 -0.7645593 -0.8316878 -0.7645593 -0.975519 -0.5 -0.6545374 -0.9045441 -0.5 -0.7938436 -0.9755189 -0.6545373 -0.5 -0.9465268 -0.658634 -0.6595277 -0.8795239 -0.6534637 -0.7870723 -0.9045442 -0.7938435 -0.5 -0.8791701 -0.7873277 -0.65386 -0.8316878 -0.7645593 -0.7645593 -0.5 -1 0.5 -0.5 -0.5 1 -1 -0.5 0.5 -0.5 -0.975519 0.6545374 -0.5 -0.9045441 0.7938436 -0.6545373 -0.9755189 0.5 -0.658634 -0.9465268 0.6595277 -0.6534637 -0.8795239 0.7870723 -0.7938435 -0.9045442 0.5 -0.7873277 -0.8791701 0.65386 -0.7645593 -0.8316878 0.7645593 -0.6545374 -0.5 0.975519 -0.7938436 -0.5 0.9045441 -0.5 -0.6545373 0.9755189 -0.6595277 -0.658634 0.9465268 -0.7870723 -0.6534637 0.8795239 -0.5 -0.7938435 0.9045442 -0.65386 -0.7873277 0.8791701 -0.7645593 -0.7645593 0.8316878 -0.975519 -0.6545374 0.5 -0.9045441 -0.7938436 0.5 -0.9755189 -0.5 0.6545373 -0.9465268 -0.6595277 0.658634 -0.8795239 -0.7870723 0.6534637 -0.9045442 -0.5 0.7938435 -0.8791701 -0.65386 0.7873277 -0.8316878 -0.7645593 0.7645593 -0.5 0.5 -1 -1 0.5 -0.5 -0.5 1 -0.5 -0.6545374 0.5 -0.975519 -0.7938436 0.5 -0.9045441 -0.5 0.6545373 -0.9755189 -0.6595277 0.658634 -0.9465268 -0.7870723 0.6534637 -0.8795239 -0.5 0.7938435 -0.9045442 -0.65386 0.7873277 -0.8791701 -0.7645593 0.7645593 -0.8316878 -0.975519 0.6545374 -0.5 -0.9045441 0.7938436 -0.5 -0.9755189 0.5 -0.6545373 -0.9465268 0.6595277 -0.658634 -0.8795239 0.7870723 -0.6534637 -0.9045442 0.5 -0.7938435 -0.8791701 0.65386 -0.7873277 -0.8316878 0.7645593 -0.7645593 -0.5 0.975519 -0.6545374 -0.5 0.9045441 -0.7938436 -0.6545373 0.9755189 -0.5 -0.658634 0.9465268 -0.6595277 -0.6534637 0.8795239 -0.7870723 -0.7938435 0.9045442 -0.5 -0.7873277 0.8791701 -0.65386 -0.7645593 0.8316878 -0.7645593 -0.5 0.5 1 -0.5 1 0.5 -1 0.5 0.5 -0.5 0.6545374 0.975519 -0.5 0.7938436 0.9045441 -0.6545373 0.5 0.9755189 -0.658634 0.6595277 0.9465268 -0.6534637 0.7870723 0.8795239 -0.7938435 0.5 0.9045442 -0.7873277 0.65386 0.8791701 -0.7645593 0.7645593 0.8316878 -0.6545374 0.975519 0.5 -0.7938436 0.9045441 0.5 -0.5 0.9755189 0.6545373 -0.6595277 0.9465268 0.658634 -0.7870723 0.8795239 0.6534637 -0.5 0.9045442 0.7938435 -0.65386 0.8791701 0.7873277 -0.7645593 0.8316878 0.7645593 -0.975519 0.5 0.6545374 -0.9045441 0.5 0.7938436 -0.9755189 0.6545373 0.5 -0.9465268 0.658634 0.6595277 -0.8795239 0.6534637 0.7870723 -0.9045442 0.7938435 0.5 -0.8791701 0.7873277 0.65386 -0.8316878 0.7645593 0.7645593 0.5 -0.5 -1 1 -0.5 -0.5 0.5 -1 -0.5 0.6545374 -0.5 -0.975519 0.7938436 -0.5 -0.9045441 0.5 -0.6545373 -0.9755189 0.6595277 -0.658634 -0.9465268 0.7870723 -0.6534637 -0.8795239 0.5 -0.7938435 -0.9045442 0.65386 -0.7873277 -0.8791701 0.7645593 -0.7645593 -0.8316878 0.975519 -0.6545374 -0.5 0.9045441 -0.7938436 -0.5 0.9755189 -0.5 -0.6545373 0.9465268 -0.6595277 -0.658634 0.8795239 -0.7870723 -0.6534637 0.9045442 -0.5 -0.7938435 0.8791701 -0.65386 -0.7873277 0.8316878 -0.7645593 -0.7645593 0.5 -0.975519 -0.6545374 0.5 -0.9045441 -0.7938436 0.6545373 -0.9755189 -0.5 0.658634 -0.9465268 -0.6595277 0.6534637 -0.8795239 -0.7870723 0.7938435 -0.9045442 -0.5 0.7873277 -0.8791701 -0.65386 0.7645593 -0.8316878 -0.7645593 0.5 -0.5 1 0.5 -1 0.5 1 -0.5 0.5 0.5 -0.6545374 0.975519 0.5 -0.7938436 0.9045441 0.6545373 -0.5 0.9755189 0.658634 -0.6595277 0.9465268 0.6534637 -0.7870723 0.8795239 0.7938435 -0.5 0.9045442 0.7873277 -0.65386 0.8791701 0.7645593 -0.7645593 0.8316878 0.6545374 -0.975519 0.5 0.7938436 -0.9045441 0.5 0.5 -0.9755189 0.6545373 0.6595277 -0.9465268 0.658634 0.7870723 -0.8795239 0.6534637 0.5 -0.9045442 0.7938435 0.65386 -0.8791701 0.7873277 0.7645593 -0.8316878 0.7645593 0.975519 -0.5 0.6545374 0.9045441 -0.5 0.7938436 0.9755189 -0.6545373 0.5 0.9465268 -0.658634 0.6595277 0.8795239 -0.6534637 0.7870723 0.9045442 -0.7938435 0.5 0.8791701 -0.7873277 0.65386 0.8316878 -0.7645593 0.7645593 0.5 0.5 -1 0.5 1 -0.5 1 0.5 -0.5 0.5 0.6545374 -0.975519 0.5 0.7938436 -0.9045441 0.6545373 0.5 -0.9755189 0.658634 0.6595277 -0.9465268 0.6534637 0.7870723 -0.8795239 0.7938435 0.5 -0.9045442 0.7873277 0.65386 -0.8791701 0.7645593 0.7645593 -0.8316878 0.6545374 0.975519 -0.5 0.7938436 0.9045441 -0.5 0.5 0.9755189 -0.6545373 0.6595277 0.9465268 -0.658634 0.7870723 0.8795239 -0.6534637 0.5 0.9045442 -0.7938435 0.65386 0.8791701 -0.7873277 0.7645593 0.8316878 -0.7645593 0.975519 0.5 -0.6545374 0.9045441 0.5 -0.7938436 0.9755189 0.6545373 -0.5 0.9465268 0.658634 -0.6595277 0.8795239 0.6534637 -0.7870723 0.9045442 0.7938435 -0.5 0.8791701 0.7873277 -0.65386 0.8316878 0.7645593 -0.7645593 0.5 0.5 1 1 0.5 0.5 0.5 1 0.5 0.6545374 0.5 0.975519 0.7938436 0.5 0.9045441 0.5 0.6545373 0.9755189 0.6595277 0.658634 0.9465268 0.7870723 0.6534637 0.8795239 0.5 0.7938435 0.9045442 0.65386 0.7873277 0.8791701 0.7645593 0.7645593 0.8316878 0.975519 0.6545374 0.5 0.9045441 0.7938436 0.5 0.9755189 0.5 0.6545373 0.9465268 0.6595277 0.658634 0.8795239 0.7870723 0.6534637 0.9045442 0.5 0.7938435 0.8791701 0.65386 0.7873277 0.8316878 0.7645593 0.7645593 0.5 0.975519 0.6545374 0.5 0.9045441 0.7938436 0.6545373 0.9755189 0.5 0.658634 0.9465268 0.6595277 0.6534637 0.8795239 0.7870723 0.7938435 0.9045442 0.5 0.7873277 0.8791701 0.65386 0.7645593 0.8316878 0.7645593</float_array>
          <technique_common>
            <accessor source="#Cube_008-mesh-positions-array" count="216" stride="3">
              <param name="X" type="float"/>
              <param name="Y" type="float"/>
              <param name="Z" type="float"/>
            </accessor>
          </technique_common>
        </source>
        <source id="Cube_008-mesh-normals">
          <float_array id="Cube_008-mesh-normals-array" count="1266">0 -1 0 1 0 0 0 0 1 -1 0 0 0 1 0 -0.1545839 -0.1545832 -0.9758114 -0.1469504 -0.4490359 -0.8813469 -0.1449373 -0.6996403 -0.6996404 -0.4489229 -0.1486049 -0.881127 -0.4336202 -0.4290657 -0.7923864 -0.4087663 -0.6447993 -0.6458669 -0.1545832 -0.9758114 -0.1545839 -0.449036 -0.881347 -0.1469504 -0.6996403 -0.6996404 -0.1449373 -0.1486049 -0.881127 -0.4489229 -0.4290657 -0.7923864 -0.4336202 -0.6447993 -0.6458669 -0.4087663 -0.9758114 -0.1545839 -0.1545832 -0.881347 -0.1469504 -0.449036 -0.6996404 -0.1449373 -0.6996403 -0.881127 -0.4489229 -0.1486049 -0.7923864 -0.4336202 -0.4290657 -0.6458669 -0.4087663 -0.6447993 -0.5773504 -0.5773501 -0.5773504 -0.1545837 -0.9758113 0.1545839 -0.1469504 -0.8813469 0.449036 -0.1449372 -0.6996408 0.69964 -0.4489232 -0.8811269 0.1486055 -0.4336208 -0.7923867 0.4290645 -0.4087662 -0.6458679 0.6447984 -0.1545839 -0.1545837 0.9758113 -0.449036 -0.1469504 0.8813469 -0.69964 -0.1449372 0.6996408 -0.1486055 -0.4489232 0.8811269 -0.4290645 -0.4336208 0.7923867 -0.6447984 -0.4087662 0.6458679 -0.9758113 -0.1545839 0.1545837 -0.8813469 -0.449036 0.1469504 -0.6996408 -0.69964 0.1449372 -0.8811269 -0.1486055 0.4489232 -0.7923867 -0.4290645 0.4336208 -0.6458679 -0.6447984 0.4087662 -0.5773504 -0.5773502 0.5773502 -0.1545839 0.1545837 -0.9758113 -0.449036 0.1469504 -0.8813469 -0.69964 0.1449372 -0.6996408 -0.1486055 0.4489232 -0.8811269 -0.4290645 0.4336208 -0.7923867 -0.6447984 0.4087662 -0.6458679 -0.9758113 0.1545839 -0.1545837 -0.8813469 0.449036 -0.1469504 -0.6996408 0.69964 -0.1449372 -0.8811269 0.1486055 -0.4489232 -0.7923867 0.4290645 -0.4336208 -0.6458679 0.6447984 -0.4087662 -0.1545837 0.9758113 -0.1545839 -0.1469504 0.8813469 -0.449036 -0.1449372 0.6996408 -0.69964 -0.4489232 0.8811269 -0.1486055 -0.4336208 0.7923867 -0.4290645 -0.4087662 0.6458679 -0.6447984 -0.5773502 0.5773504 -0.5773502 -0.1545839 0.1545832 0.9758114 -0.1469504 0.4490359 0.8813469 -0.1449373 0.6996403 0.6996404 -0.4489229 0.1486049 0.881127 -0.4336202 0.4290657 0.7923864 -0.4087663 0.6447993 0.6458669 -0.1545832 0.9758114 0.1545839 -0.449036 0.881347 0.1469504 -0.6996403 0.6996404 0.1449373 -0.1486049 0.881127 0.4489229 -0.4290657 0.7923864 0.4336202 -0.6447993 0.6458669 0.4087663 -0.9758114 0.1545839 0.1545832 -0.881347 0.1469504 0.449036 -0.6996404 0.1449373 0.6996403 -0.881127 0.4489229 0.1486049 -0.7923864 0.4336202 0.4290657 -0.6458669 0.4087663 0.6447993 -0.5773504 0.5773501 0.5773504 0.1545839 -0.1545837 -0.9758113 0.449036 -0.1469504 -0.8813469 0.69964 -0.1449372 -0.6996408 0.1486055 -0.4489232 -0.8811269 0.4290645 -0.4336208 -0.7923867 0.6447984 -0.4087662 -0.6458679 0.9758113 -0.1545839 -0.1545837 0.8813469 -0.449036 -0.1469504 0.6996408 -0.69964 -0.1449372 0.8811269 -0.1486055 -0.4489232 0.7923867 -0.4290645 -0.4336208 0.6458679 -0.6447984 -0.4087662 0.1545837 -0.9758113 -0.1545839 0.1469504 -0.8813469 -0.449036 0.1449372 -0.6996408 -0.69964 0.4489232 -0.8811269 -0.1486055 0.4336208 -0.7923867 -0.4290645 0.4087662 -0.6458679 -0.6447984 0.5773502 -0.5773504 -0.5773502 0.1545839 -0.1545832 0.9758114 0.1469504 -0.4490359 0.8813469 0.1449373 -0.6996403 0.6996404 0.4489229 -0.1486049 0.881127 0.4336202 -0.4290657 0.7923864 0.4087663 -0.6447993 0.6458669 0.1545832 -0.9758114 0.1545839 0.449036 -0.881347 0.1469504 0.6996403 -0.6996404 0.1449373 0.1486049 -0.881127 0.4489229 0.4290657 -0.7923864 0.4336202 0.6447993 -0.6458669 0.4087663 0.9758114 -0.1545839 0.1545832 0.881347 -0.1469504 0.449036 0.6996404 -0.1449373 0.6996403 0.881127 -0.4489229 0.1486049 0.7923864 -0.4336202 0.4290657 0.6458669 -0.4087663 0.6447993 0.5773504 -0.5773501 0.5773504 0.1545839 0.1545832 -0.9758114 0.1469504 0.4490359 -0.8813469 0.1449373 0.6996403 -0.6996404 0.4489229 0.1486049 -0.881127 0.4336202 0.4290657 -0.7923864 0.4087663 0.6447993 -0.6458669 0.1545832 0.9758114 -0.1545839 0.449036 0.881347 -0.1469504 0.6996403 0.6996404 -0.1449373 0.1486049 0.881127 -0.4489229 0.4290657 0.7923864 -0.4336202 0.6447993 0.6458669 -0.4087663 0.9758114 0.1545839 -0.1545832 0.881347 0.1469504 -0.449036 0.6996404 0.1449373 -0.6996403 0.881127 0.4489229 -0.1486049 0.7923864 0.4336202 -0.4290657 0.6458669 0.4087663 -0.6447993 0.5773504 0.5773501 -0.5773504 0.1545839 0.1545837 0.9758113 0.449036 0.1469504 0.8813469 0.69964 0.1449372 0.6996408 0.1486055 0.4489232 0.8811269 0.4290645 0.4336208 0.7923867 0.6447984 0.4087662 0.6458679 0.9758113 0.1545839 0.1545837 0.8813469 0.449036 0.1469504 0.6996408 0.69964 0.1449372 0.8811269 0.1486055 0.4489232 0.7923867 0.4290645 0.4336208 0.6458679 0.6447984 0.4087662 0.1545837 0.9758113 0.1545839 0.1469504 0.8813469 0.449036 0.1449372 0.6996408 0.69964 0.4489232 0.8811269 0.1486055 0.4336208 0.7923867 0.4290645 0.4087662 0.6458679 0.6447984 0.5773502 0.5773504 0.5773502 -0.1564639 0 -0.9876837 -0.4539641 0 -0.89102 -0.7071068 0 -0.7071068 -0.8910202 0 -0.4539637 -0.9876836 0 -0.1564644 -0.1564639 -0.9876837 0 -0.453964 -0.8910201 0 -0.7071068 -0.7071068 0 -0.8910201 -0.453964 0 -0.9876837 -0.156464 0 -0.1564639 0 0.9876837 -0.4539641 0 0.89102 -0.7071068 0 0.7071068 -0.8910202 0 0.4539637 -0.9876836 0 0.1564644 -0.1564639 0.9876837 0 -0.453964 0.8910201 0 -0.7071068 0.7071068 0 -0.8910201 0.453964 0 -0.9876837 0.156464 0 0 0.1564639 -0.9876837 0 0.453964 -0.8910201 0 0.7071068 -0.7071068 0 0.8910201 -0.453964 0 0.9876837 -0.156464 0 0.1564639 0.9876837 0 0.453964 0.8910201 0 0.7071068 0.7071068 0 0.8910201 0.453964 0 0.9876837 0.156464 0.9876837 0.1564639 0 0.89102 0.4539641 0 0.7071068 0.7071068 0 0.4539637 0.8910202 0 0.1564644 0.9876836 0 0.1564639 0 -0.9876837 0.4539641 0 -0.89102 0.7071068 0 -0.7071068 0.8910202 0 -0.4539637 0.9876836 0 -0.1564644 0.1564639 0 0.9876837 0.4539641 0 0.89102 0.7071068 0 0.7071068 0.8910202 0 0.4539637 0.9876836 0 0.1564644 0.1564639 -0.9876837 0 0.453964 -0.8910201 0 0.7071068 -0.7071068 0 0.8910201 -0.453964 0 0.9876837 -0.156464 0 0 -0.1564639 -0.9876837 0 -0.453964 -0.8910201 0 -0.7071068 -0.7071068 0 -0.8910201 -0.453964 0 -0.9876837 -0.156464 0 -0.1564639 0.9876837 0 -0.453964 0.8910201 0 -0.7071068 0.7071068 0 -0.8910201 0.453964 0 -0.9876837 0.156464 0 0 -1 -0.1718741 -0.1718732 -0.9700098 -0.1624456 -0.4640379 -0.870793 -0.1450169 -0.6996938 -0.6995704 -0.4631251 -0.1632757 -0.8711236 -0.4290617 -0.4336488 -0.7923729 -0.4094062 -0.6451303 -0.6451305 -0.1718732 -0.9700098 -0.1718741 -0.4640379 -0.870793 -0.1624456 -0.6996938 -0.6995704 -0.1450169 -0.1632757 -0.8711236 -0.4631251 -0.4336488 -0.7923729 -0.4290617 -0.6451303 -0.6451305 -0.4094062 -0.9700098 -0.1718741 -0.1718732 -0.870793 -0.1624456 -0.4640379 -0.6995704 -0.1450169 -0.6996938 -0.8711236 -0.4631251 -0.1632757 -0.7923729 -0.4290617 -0.4336488 -0.6451305 -0.4094062 -0.6451303 -0.1718736 -0.9700099 0.1718733 -0.1624459 -0.8707929 0.4640378 -0.1450176 -0.6995695 0.6996945 -0.463126 -0.871123 0.1632761 -0.4290621 -0.7923728 0.4336487 -0.4094056 -0.6451297 0.6451315 -0.1718733 -0.1718736 0.9700099 -0.4640378 -0.1624459 0.8707929 -0.6996945 -0.1450176 0.6995695 -0.1632761 -0.4631261 0.871123 -0.4336487 -0.4290621 0.7923728 -0.6451315 -0.4094056 0.6451297 -0.9700099 -0.1718733 0.1718736 -0.8707929 -0.4640378 0.1624459 -0.6995695 -0.6996945 0.1450176 -0.871123 -0.1632761 0.4631261 -0.7923727 -0.4336487 0.4290621 -0.6451297 -0.6451315 0.4094056 -0.1718733 0.1718736 -0.9700099 -0.4640378 0.1624459 -0.8707929 -0.6996945 0.1450176 -0.6995695 -0.1632761 0.4631261 -0.871123 -0.4336487 0.4290621 -0.7923728 -0.6451315 0.4094056 -0.6451297 -0.9700099 0.1718733 -0.1718736 -0.8707929 0.4640378 -0.1624459 -0.6995695 0.6996945 -0.1450176 -0.871123 0.1632761 -0.4631261 -0.7923727 0.4336487 -0.4290621 -0.6451297 0.6451315 -0.4094056 -0.1718736 0.9700099 -0.1718733 -0.1624459 0.8707929 -0.4640378 -0.1450176 0.6995695 -0.6996945 -0.463126 0.871123 -0.1632761 -0.4290621 0.7923728 -0.4336487 -0.4094056 0.6451297 -0.6451315 -0.1718741 0.1718732 0.9700098 -0.1624456 0.4640379 0.870793 -0.1450169 0.6996938 0.6995704 -0.4631251 0.1632757 0.8711236 -0.4290617 0.4336488 0.7923729 -0.4094062 0.6451303 0.6451305 -0.1718732 0.9700098 0.1718741 -0.4640379 0.870793 0.1624456 -0.6996938 0.6995704 0.1450169 -0.1632757 0.8711236 0.4631251 -0.4336488 0.7923729 0.4290617 -0.6451303 0.6451305 0.4094062 -0.9700098 0.1718741 0.1718732 -0.870793 0.1624456 0.4640379 -0.6995704 0.1450169 0.6996938 -0.8711236 0.4631251 0.1632757 -0.7923729 0.4290617 0.4336488 -0.6451305 0.4094062 0.6451303 0.1718733 -0.1718736 -0.9700099 0.4640378 -0.1624459 -0.8707929 0.6996945 -0.1450176 -0.6995695 0.1632761 -0.4631261 -0.871123 0.4336487 -0.4290621 -0.7923728 0.6451315 -0.4094056 -0.6451297 0.9700099 -0.1718733 -0.1718736 0.8707929 -0.4640378 -0.1624459 0.6995695 -0.6996945 -0.1450176 0.871123 -0.1632761 -0.4631261 0.7923727 -0.4336487 -0.4290621 0.6451297 -0.6451315 -0.4094056 0.1718736 -0.9700099 -0.1718733 0.1624459 -0.8707929 -0.4640378 0.1450176 -0.6995695 -0.6996945 0.463126 -0.871123 -0.1632761 0.4290621 -0.7923728 -0.4336487 0.4094056 -0.6451297 -0.6451315 0.1718741 -0.1718732 0.9700098 0.1624456 -0.4640379 0.870793 0.1450169 -0.6996938 0.6995704 0.4631251 -0.1632757 0.8711236 0.4290617 -0.4336488 0.7923729 0.4094062 -0.6451303 0.6451305 0.1718732 -0.9700098 0.1718741 0.4640379 -0.870793 0.1624456 0.6996938 -0.6995704 0.1450169 0.1632757 -0.8711236 0.4631251 0.4336488 -0.7923729 0.4290617 0.6451303 -0.6451305 0.4094062 0.9700098 -0.1718741 0.1718732 0.870793 -0.1624456 0.4640379 0.6995704 -0.1450169 0.6996938 0.8711236 -0.4631251 0.1632757 0.7923729 -0.4290617 0.4336488 0.6451305 -0.4094062 0.6451303 0.1718741 0.1718732 -0.9700098 0.1624456 0.4640379 -0.870793 0.1450169 0.6996938 -0.6995704 0.4631251 0.1632757 -0.8711236 0.4290617 0.4336488 -0.7923729 0.4094062 0.6451303 -0.6451305 0.1718732 0.9700098 -0.1718741 0.4640379 0.870793 -0.1624456 0.6996938 0.6995704 -0.1450169 0.1632757 0.8711236 -0.4631251 0.4336488 0.7923729 -0.4290617 0.6451303 0.6451305 -0.4094062 0.9700098 0.1718741 -0.1718732 0.870793 0.1624456 -0.4640379 0.6995704 0.1450169 -0.6996938 0.8711236 0.4631251 -0.1632757 0.7923729 0.4290617 -0.4336488 0.6451305 0.4094062 -0.6451303 0.1718733 0.1718736 0.9700099 0.4640378 0.1624459 0.8707929 0.6996945 0.1450176 0.6995695 0.1632761 0.4631261 0.871123 0.4336487 0.4290621 0.7923728 0.6451315 0.4094056 0.6451297 0.9700099 0.1718733 0.1718736 0.8707929 0.4640378 0.1624459 0.6995695 0.6996945 0.1450176 0.871123 0.1632761 0.4631261 0.7923727 0.4336487 0.4290621 0.6451297 0.6451315 0.4094056 0.1718736 0.9700099 0.1718733 0.1624459 0.8707929 0.4640378 0.1450176 0.6995695 0.6996945 0.463126 0.871123 0.1632761 0.4290621 0.7923728 0.4336487 0.4094056 0.6451297 0.6451315 -0.156464 0 -0.9876837 -0.453964 0 -0.8910201 -0.7071068 0 -0.7071068 -0.8910201 0 -0.453964 -0.9876837 0 -0.1564639 -0.1564644 -0.9876836 0 -0.4539637 -0.8910202 0 -0.7071068 -0.7071068 0 -0.89102 -0.4539641 0 -0.9876837 -0.1564639 0 -0.156464 0 0.9876837 -0.453964 0 0.8910201 -0.7071068 0 0.7071068 -0.8910201 0 0.453964 -0.9876837 0 0.1564639 -0.1564644 0.9876836 0 -0.4539637 0.8910202 0 -0.7071068 0.7071068 0 -0.89102 0.4539641 0 -0.9876837 0.1564639 0 0 0.1564644 -0.9876836 0 0.4539637 -0.8910202 0 0.7071068 -0.7071068 0 0.89102 -0.4539641 0 0.9876837 -0.1564639 0 0.1564644 0.9876836 0 0.4539637 0.8910202 0 0.7071068 0.7071068 0 0.89102 0.4539641 0 0.9876837 0.1564639 0.9876837 0.156464 0 0.8910201 0.453964 0 0.7071068 0.7071068 0 0.453964 0.8910201 0 0.1564639 0.9876837 0 0.156464 0 -0.9876837 0.453964 0 -0.8910201 0.7071068 0 -0.7071068 0.8910201 0 -0.453964 0.9876837 0 -0.1564639 0.156464 0 0.9876837 0.453964 0 0.8910201 0.7071068 0 0.7071068 0.8910201 0 0.453964 0.9876837 0 0.1564639 0.1564644 -0.9876836 0 0.4539637 -0.8910202 0 0.7071068 -0.7071068 0 0.89102 -0.4539641 0 0.9876837 -0.1564639 0 0 -0.1564644 -0.9876836 0 -0.4539637 -0.8910202 0 -0.7071068 -0.7071068 0 -0.89102 -0.4539641 0 -0.9876837 -0.1564639 0 -0.1564644 0.9876836 0 -0.4539637 0.8910202 0 -0.7071068 0.7071068 0 -0.89102 0.4539641 0 -0.9876837 0.1564639</float_array>
          <technique_common>
            <accessor source="#Cube_008-mesh-normals-array" count="422" stride="3">
              <param name="X" type="float"/>
              <param name="Y" type="float"/>
              <param name="Z" type="float"/>
            </accessor>
          </technique_common>
        </source>
        <source id="Cube_008-mesh-map-0">
          <float_array id="Cube_008-mesh-map-0-array" count="2568">0.5625 0.8125 0.4375 0.9375 0.4375 0.8125 0.5625 0.5625 0.4375 0.6875 0.4375 0.5625 0.8125001 0.5625 0.6875 0.6875 0.6875 0.5625 0.5625 0.0625 0.4375 0.1875 0.4375 0.0625 0.5625 0.3125 0.4375 0.4375 0.4375 0.3125 0.1875 0.7068172 0.1681828 0.6875 0.1875 0.6875 0.1875 0.7242305 0.1676707 0.7074409 0.1875 0.7068172 0.1875 0.75 0.168317 0.723384 0.1875 0.7242305 0.1676707 0.7074409 0.1507695 0.6875001 0.1681828 0.6875 0.1676707 0.7074409 0.15443 0.72057 0.151584 0.7067325 0.1682674 0.75 0.15443 0.72057 0.168317 0.723384 0.4375 0.9568172 0.4181828 0.9375 0.4375 0.9375 0.4375 0.9742305 0.4176707 0.9574409 0.4375 0.9568172 0.4375 1 0.418317 0.973384 0.4375 0.9742305 0.4176707 0.9574409 0.4007696 0.9375 0.4181828 0.9375 0.4176707 0.9574409 0.4044301 0.97057 0.401584 0.9567325 0.4182675 1 0.4044301 0.97057 0.418317 0.973384 0.4181828 0.0625 0.4375 0.04318279 0.4375 0.0625 0.4007695 0.0625 0.417559 0.04267072 0.4181828 0.0625 0.375 0.0625 0.401616 0.04331701 0.4007695 0.0625 0.417559 0.04267072 0.4375 0.02576953 0.4375 0.04318279 0.417559 0.04267072 0.4044301 0.02943009 0.4182675 0.02658402 0.375 0.04326748 0.4044301 0.02943009 0.401616 0.04331701 0.15443 0.72057 0.15443 0.75 0.125 0.7205699 0.5818172 0.9375 0.5625 0.9568172 0.5625 0.9375 0.5992305 0.9375001 0.582441 0.9573292 0.5818172 0.9375 0.625 0.9375 0.598384 0.956683 0.5992305 0.9375001 0.582441 0.9573292 0.5625 0.9742304 0.5625 0.9568172 0.582441 0.9573292 0.5955699 0.9705699 0.5817325 0.973416 0.625 0.9567325 0.5955699 0.9705699 0.598384 0.956683 0.8318173 0.6875 0.8125001 0.7068172 0.8125 0.6875001 0.8492305 0.6875 0.8324409 0.7073292 0.8318173 0.6875 0.875 0.6875 0.8483842 0.706683 0.8492305 0.6875 0.8324409 0.7073292 0.8125 0.7242304 0.8125001 0.7068172 0.8324409 0.7073292 0.8455699 0.72057 0.8317325 0.723416 0.875 0.7067325 0.8455699 0.72057 0.8483842 0.706683 0.5625001 0.04318279 0.5818172 0.0625 0.5625 0.0625 0.5625001 0.02576953 0.5823292 0.04255902 0.5625001 0.04318279 0.5625 0 0.5816829 0.02661591 0.5625001 0.02576953 0.5823292 0.04255902 0.5992305 0.0625 0.5818172 0.0625 0.5823292 0.04255902 0.5955699 0.02943009 0.598416 0.04326748 0.5817325 0 0.5955699 0.02943009 0.5816829 0.02661591 0.5955699 0.9705699 0.625 0.9705699 0.5955699 1 0.1681828 0.5625 0.1875 0.5431828 0.1875 0.5625 0.1507695 0.5625 0.167559 0.5426708 0.1681828 0.5625 0.125 0.5625 0.1516159 0.543317 0.1507695 0.5625 0.167559 0.5426708 0.1875 0.5257696 0.1875 0.5431828 0.167559 0.5426708 0.1544301 0.5294301 0.1682674 0.526584 0.125 0.5432675 0.1544301 0.5294301 0.1516159 0.543317 0.4375 0.2068172 0.4181828 0.1875 0.4375 0.1875 0.4375 0.2242304 0.4176707 0.2074409 0.4375 0.2068172 0.4375 0.2757695 0.418317 0.223384 0.4375 0.2242304 0.4176707 0.2074409 0.4007696 0.1875 0.4181828 0.1875 0.4176707 0.2074409 0.4044301 0.2205699 0.401584 0.2067325 0.4182675 0.276584 0.4044301 0.2205699 0.418317 0.223384 0.4181828 0.3125 0.4375 0.2931828 0.4375 0.3125 0.4007695 0.3125 0.417559 0.2926708 0.4181828 0.3125 0.375 0.3125 0.401616 0.293317 0.4007695 0.3125 0.417559 0.2926708 0.4375 0.2757695 0.4375 0.2931828 0.417559 0.2926708 0.4044301 0.2794301 0.4182675 0.276584 0.375 0.2932675 0.4044301 0.2794301 0.401616 0.293317 0.1544301 0.5294301 0.125 0.5294301 0.15443 0.5 0.8125001 0.5431828 0.8318172 0.5625 0.8125001 0.5625 0.8125001 0.5257696 0.8323292 0.542559 0.8125001 0.5431828 0.8125 0.5 0.831683 0.526616 0.8125001 0.5257696 0.8323292 0.542559 0.8492305 0.5625 0.8318172 0.5625 0.8323292 0.542559 0.8455699 0.5294301 0.848416 0.5432675 0.8317325 0.5 0.8455699 0.5294301 0.831683 0.526616 0.5625001 0.2931828 0.5818172 0.3125 0.5625 0.3125 0.5625001 0.2757695 0.5823292 0.292559 0.5625001 0.2931828 0.5625 0.2242304 0.5816829 0.276616 0.5625001 0.2757695 0.5823292 0.292559 0.5992305 0.3125 0.5818172 0.3125 0.5823292 0.292559 0.5955699 0.2794301 0.598416 0.2932675 0.5817325 0.2234159 0.5955699 0.2794301 0.5816829 0.276616 0.5818172 0.1875 0.5625 0.2068172 0.5625 0.1875 0.5992305 0.1875 0.582441 0.2073292 0.5818172 0.1875 0.625 0.1875 0.598384 0.2066829 0.5992305 0.1875 0.582441 0.2073292 0.5625 0.2242304 0.5625 0.2068172 0.582441 0.2073292 0.5955699 0.2205699 0.5817325 0.2234159 0.625 0.2067325 0.5955699 0.2205699 0.598384 0.2066829 0.8455699 0.5294301 0.84557 0.5 0.875 0.5294301 0.3318172 0.6875 0.3125 0.7068172 0.3125 0.6875001 0.3492304 0.6875 0.3324409 0.7073292 0.3318172 0.6875 0.4007696 0.6875001 0.348384 0.706683 0.3492304 0.6875 0.3324409 0.7073292 0.3125 0.7242304 0.3125 0.7068172 0.3324409 0.7073292 0.3455699 0.72057 0.3317325 0.723416 0.401584 0.7067325 0.3455699 0.72057 0.348384 0.706683 0.4375 0.7068172 0.4181828 0.6875 0.4375 0.6875 0.4375 0.7242305 0.4176707 0.7074409 0.4375 0.7068172 0.4375 0.7757696 0.418317 0.723384 0.4375 0.7242305 0.4176707 0.7074409 0.4007696 0.6875001 0.4181828 0.6875 0.4176707 0.7074409 0.4044301 0.72057 0.401584 0.7067325 0.4182675 0.776584 0.4044301 0.72057 0.418317 0.723384 0.4181828 0.8125 0.4375 0.7931828 0.4375 0.8125 0.4007695 0.8125 0.417559 0.7926707 0.4181828 0.8125 0.375 0.8125 0.401616 0.793317 0.4007695 0.8125 0.417559 0.7926707 0.4375 0.7757696 0.4375 0.7931828 0.417559 0.7926707 0.4044301 0.7794302 0.4182675 0.776584 0.375 0.7932675 0.4044301 0.7794302 0.401616 0.793317 0.3455699 0.72057 0.375 0.7205699 0.3455699 0.75 0.6875 0.7068172 0.6681828 0.6875 0.6875 0.6875 0.6875 0.7242305 0.6676707 0.7074409 0.6875 0.7068172 0.6875 0.75 0.668317 0.723384 0.6875 0.7242305 0.6676707 0.7074409 0.6507696 0.6875001 0.6681828 0.6875 0.6676707 0.7074409 0.6544301 0.72057 0.651584 0.7067325 0.6682675 0.75 0.6544301 0.72057 0.668317 0.723384 0.5625001 0.7931829 0.5818172 0.8125 0.5625 0.8125 0.5625001 0.7757696 0.5823292 0.792559 0.5625001 0.7931829 0.5625 0.7242304 0.5816829 0.776616 0.5625001 0.7757696 0.5823292 0.792559 0.5992305 0.8125001 0.5818172 0.8125 0.5823292 0.792559 0.5955699 0.7794302 0.598416 0.7932675 0.5817325 0.723416 0.5955699 0.7794302 0.5816829 0.776616 0.5818172 0.6875 0.5625 0.7068172 0.5625 0.6875001 0.5992305 0.6875 0.582441 0.7073292 0.5818172 0.6875 0.6507696 0.6875001 0.598384 0.706683 0.5992305 0.6875 0.582441 0.7073292 0.5625 0.7242304 0.5625 0.7068172 0.582441 0.7073292 0.5955699 0.72057 0.5817325 0.723416 0.651584 0.7067325 0.5955699 0.72057 0.598384 0.706683 0.6544301 0.72057 0.65443 0.75 0.625 0.7205699 0.3125 0.5431828 0.3318172 0.5625 0.3125 0.5625 0.3125 0.5257696 0.3323292 0.542559 0.3125 0.5431828 0.3125 0.5 0.331683 0.526616 0.3125 0.5257696 0.3323292 0.542559 0.3492305 0.5625 0.3318172 0.5625 0.3323292 0.542559 0.3455699 0.5294301 0.3484159 0.5432675 0.3317325 0.5 0.3455699 0.5294301 0.331683 0.526616 0.4375 0.4568172 0.4181828 0.4375 0.4375 0.4375 0.4375 0.4742305 0.4176707 0.457441 0.4375 0.4568172 0.4375 0.5257696 0.418317 0.473384 0.4375 0.4742305 0.4176707 0.457441 0.4007696 0.4375 0.4181828 0.4375 0.4176707 0.457441 0.4044301 0.4705699 0.401584 0.4567325 0.4182675 0.526584 0.4044301 0.4705699 0.418317 0.473384 0.4181828 0.5625 0.4375 0.5431828 0.4375 0.5625 0.4007695 0.5625 0.417559 0.5426708 0.4181828 0.5625 0.3492305 0.5625 0.401616 0.543317 0.4007695 0.5625 0.417559 0.5426708 0.4375 0.5257696 0.4375 0.5431828 0.417559 0.5426708 0.4044301 0.5294301 0.4182675 0.526584 0.3484159 0.5432675 0.4044301 0.5294301 0.401616 0.543317 0.3455699 0.5294301 0.3455699 0.5 0.375 0.5294301 0.6681829 0.5625 0.6875 0.5431828 0.6875 0.5625 0.6507696 0.5625 0.6675591 0.5426708 0.6681829 0.5625 0.5992305 0.5625 0.6516159 0.543317 0.6507696 0.5625 0.6675591 0.5426708 0.6875 0.5257696 0.6875 0.5431828 0.6675591 0.5426708 0.6544301 0.5294301 0.6682675 0.526584 0.598416 0.5432675 0.6544301 0.5294301 0.6516159 0.543317 0.5625001 0.5431828 0.5818172 0.5625 0.5625 0.5625 0.5625001 0.5257696 0.5823292 0.542559 0.5625001 0.5431828 0.5625 0.4742304 0.5816829 0.526616 0.5625001 0.5257696 0.5823292 0.542559 0.5992305 0.5625 0.5818172 0.5625 0.5823292 0.542559 0.5955699 0.5294301 0.598416 0.5432675 0.5817325 0.473416 0.5955699 0.5294301 0.5816829 0.526616 0.5818172 0.4375 0.5625 0.4568172 0.5625 0.4375 0.5992305 0.4375 0.582441 0.4573292 0.5818172 0.4375 0.625 0.4375 0.598384 0.456683 0.5992305 0.4375 0.582441 0.4573292 0.5625 0.4742304 0.5625 0.4568172 0.582441 0.4573292 0.5955699 0.4705699 0.5817325 0.473416 0.625 0.4567325 0.5955699 0.4705699 0.598384 0.456683 0.6544301 0.5294301 0.625 0.5294301 0.65443 0.5 0.1875 0.6875 0.1681828 0.5625 0.1875 0.5625 0.1681828 0.6875 0.1507695 0.5625 0.1681828 0.5625 0.1507695 0.6875001 0.125 0.5625 0.1507695 0.5625 0.4007695 0.0625 0.4181828 0.1875 0.4007696 0.1875 0.4181828 0.0625 0.4375 0.1875 0.4181828 0.1875 0.4375 0.9375 0.5625 0.9568172 0.4375 0.9568172 0.5625 0.9568172 0.4375 0.9742305 0.4375 0.9568172 0.4375 0.9742305 0.5625 1 0.4375 1 0.5625001 0.02576953 0.4375 0.04318279 0.4375 0.02576953 0.4375 0.04318279 0.5625 0.0625 0.4375 0.0625 0.8125001 0.5625 0.8318173 0.6875 0.8125 0.6875001 0.8318172 0.5625 0.8492305 0.6875 0.8318173 0.6875 0.8492305 0.5625 0.875 0.6875 0.8492305 0.6875 0.5992305 0.1875 0.5818172 0.0625 0.5992305 0.0625 0.5818172 0.1875 0.5625 0.0625 0.5818172 0.0625 0.5625 0.3125 0.4375 0.2931828 0.5625001 0.2931828 0.4375 0.2931828 0.5625001 0.2757695 0.5625001 0.2931828 0.5625001 0.2757695 0.4375 0.2242304 0.5625 0.2242304 0.4375 0.2242304 0.5625 0.2068172 0.5625 0.2242304 0.5625 0.2068172 0.4375 0.1875 0.5625 0.1875 0.1875 0.5625 0.3125 0.5431828 0.3125 0.5625 0.1875 0.5431828 0.3125 0.5257696 0.3125 0.5431828 0.1875 0.5257696 0.3125 0.5 0.3125 0.5257696 0.4007695 0.3125 0.4181828 0.4375 0.4007696 0.4375 0.4181828 0.3125 0.4375 0.4375 0.4181828 0.4375 0.6875 0.5625 0.8125001 0.5431828 0.8125001 0.5625 0.6875 0.5431828 0.8125001 0.5257696 0.8125001 0.5431828 0.6875 0.5257696 0.8125 0.5 0.8125001 0.5257696 0.5992305 0.4375 0.5818172 0.3125 0.5992305 0.3125 0.5818172 0.4375 0.5625 0.3125 0.5818172 0.3125 0.5625 0.5625 0.4375 0.5431828 0.5625001 0.5431828 0.4375 0.5431828 0.5625001 0.5257696 0.5625001 0.5431828 0.5625001 0.5257696 0.4375 0.4742305 0.5625 0.4742304 0.4375 0.4742305 0.5625 0.4568172 0.5625 0.4742304 0.5625 0.4568172 0.4375 0.4375 0.5625 0.4375 0.3125 0.5625 0.3318172 0.6875 0.3125 0.6875001 0.3318172 0.5625 0.3492304 0.6875 0.3318172 0.6875 0.3492305 0.5625 0.4007696 0.6875001 0.3492304 0.6875 0.4007695 0.5625 0.4181828 0.6875 0.4007696 0.6875001 0.4181828 0.5625 0.4375 0.6875 0.4181828 0.6875 0.6875 0.6875 0.6681829 0.5625 0.6875 0.5625 0.6681828 0.6875 0.6507696 0.5625 0.6681829 0.5625 0.6507696 0.6875001 0.5992305 0.5625 0.6507696 0.5625 0.5992305 0.6875 0.5818172 0.5625 0.5992305 0.5625 0.5818172 0.6875 0.5625 0.5625 0.5818172 0.5625 0.5625 0.8125 0.4375 0.7931828 0.5625001 0.7931829 0.4375 0.7931828 0.5625001 0.7757696 0.5625001 0.7931829 0.5625001 0.7757696 0.4375 0.7242305 0.5625 0.7242304 0.4375 0.7242305 0.5625 0.7068172 0.5625 0.7242304 0.5625 0.7068172 0.4375 0.6875 0.5625 0.6875001 0.3125 0.6875001 0.1875 0.7068172 0.1875 0.6875 0.3125 0.7068172 0.1875 0.7242305 0.1875 0.7068172 0.3125 0.7242304 0.1875 0.75 0.1875 0.7242305 0.4007695 0.8125 0.4181828 0.9375 0.4007696 0.9375 0.4181828 0.8125 0.4375 0.9375 0.4181828 0.9375 0.8125 0.6875001 0.6875 0.7068172 0.6875 0.6875 0.8125001 0.7068172 0.6875 0.7242305 0.6875 0.7068172 0.8125 0.7242304 0.6875 0.75 0.6875 0.7242305 0.5992305 0.9375001 0.5818172 0.8125 0.5992305 0.8125001 0.5818172 0.9375 0.5625 0.8125 0.5818172 0.8125 0.3125 0.5625 0.1875 0.6875 0.1875 0.5625 0.5625 0.8125 0.5625 0.9375 0.4375 0.9375 0.5625 0.5625 0.5625 0.6875001 0.4375 0.6875 0.8125001 0.5625 0.8125 0.6875001 0.6875 0.6875 0.5625 0.0625 0.5625 0.1875 0.4375 0.1875 0.5625 0.3125 0.5625 0.4375 0.4375 0.4375 0.1875 0.7068172 0.1676707 0.7074409 0.1681828 0.6875 0.1875 0.7242305 0.168317 0.723384 0.1676707 0.7074409 0.1875 0.75 0.1682674 0.75 0.168317 0.723384 0.1676707 0.7074409 0.151584 0.7067325 0.1507695 0.6875001 0.1676707 0.7074409 0.168317 0.723384 0.15443 0.72057 0.1682674 0.75 0.15443 0.75 0.15443 0.72057 0.4375 0.9568172 0.4176707 0.9574409 0.4181828 0.9375 0.4375 0.9742305 0.418317 0.973384 0.4176707 0.9574409 0.4375 1 0.4182675 1 0.418317 0.973384 0.4176707 0.9574409 0.401584 0.9567325 0.4007696 0.9375 0.4176707 0.9574409 0.418317 0.973384 0.4044301 0.97057 0.4182675 1 0.4044301 1 0.4044301 0.97057 0.4181828 0.0625 0.417559 0.04267072 0.4375 0.04318279 0.4007695 0.0625 0.401616 0.04331701 0.417559 0.04267072 0.375 0.0625 0.375 0.04326748 0.401616 0.04331701 0.417559 0.04267072 0.4182675 0.02658402 0.4375 0.02576953 0.417559 0.04267072 0.401616 0.04331701 0.4044301 0.02943009 0.375 0.04326748 0.375 0.02943009 0.4044301 0.02943009 0.5818172 0.9375 0.582441 0.9573292 0.5625 0.9568172 0.5992305 0.9375001 0.598384 0.956683 0.582441 0.9573292 0.625 0.9375 0.625 0.9567325 0.598384 0.956683 0.582441 0.9573292 0.5817325 0.973416 0.5625 0.9742304 0.582441 0.9573292 0.598384 0.956683 0.5955699 0.9705699 0.625 0.9567325 0.625 0.9705699 0.5955699 0.9705699 0.8318173 0.6875 0.8324409 0.7073292 0.8125001 0.7068172 0.8492305 0.6875 0.8483842 0.706683 0.8324409 0.7073292 0.875 0.6875 0.875 0.7067325 0.8483842 0.706683 0.8324409 0.7073292 0.8317325 0.723416 0.8125 0.7242304 0.8324409 0.7073292 0.8483842 0.706683 0.8455699 0.72057 0.875 0.7067325 0.875 0.7205699 0.8455699 0.72057 0.5625001 0.04318279 0.5823292 0.04255902 0.5818172 0.0625 0.5625001 0.02576953 0.5816829 0.02661591 0.5823292 0.04255902 0.5625 0 0.5817325 0 0.5816829 0.02661591 0.5823292 0.04255902 0.598416 0.04326748 0.5992305 0.0625 0.5823292 0.04255902 0.5816829 0.02661591 0.5955699 0.02943009 0.5817325 0 0.5955699 0 0.5955699 0.02943009 0.1681828 0.5625 0.167559 0.5426708 0.1875 0.5431828 0.1507695 0.5625 0.1516159 0.543317 0.167559 0.5426708 0.125 0.5625 0.125 0.5432675 0.1516159 0.543317 0.167559 0.5426708 0.1682674 0.526584 0.1875 0.5257696 0.167559 0.5426708 0.1516159 0.543317 0.1544301 0.5294301 0.125 0.5432675 0.125 0.5294301 0.1544301 0.5294301 0.4375 0.2068172 0.4176707 0.2074409 0.4181828 0.1875 0.4375 0.2242304 0.418317 0.223384 0.4176707 0.2074409 0.4375 0.2757695 0.4182675 0.276584 0.418317 0.223384 0.4176707 0.2074409 0.401584 0.2067325 0.4007696 0.1875 0.4176707 0.2074409 0.418317 0.223384 0.4044301 0.2205699 0.4182675 0.276584 0.4044301 0.2794301 0.4044301 0.2205699 0.4181828 0.3125 0.417559 0.2926708 0.4375 0.2931828 0.4007695 0.3125 0.401616 0.293317 0.417559 0.2926708 0.375 0.3125 0.375 0.2932675 0.401616 0.293317 0.417559 0.2926708 0.4182675 0.276584 0.4375 0.2757695 0.417559 0.2926708 0.401616 0.293317 0.4044301 0.2794301 0.375 0.2932675 0.375 0.2794301 0.4044301 0.2794301 0.8125001 0.5431828 0.8323292 0.542559 0.8318172 0.5625 0.8125001 0.5257696 0.831683 0.526616 0.8323292 0.542559 0.8125 0.5 0.8317325 0.5 0.831683 0.526616 0.8323292 0.542559 0.848416 0.5432675 0.8492305 0.5625 0.8323292 0.542559 0.831683 0.526616 0.8455699 0.5294301 0.8317325 0.5 0.84557 0.5 0.8455699 0.5294301 0.5625001 0.2931828 0.5823292 0.292559 0.5818172 0.3125 0.5625001 0.2757695 0.5816829 0.276616 0.5823292 0.292559 0.5625 0.2242304 0.5817325 0.2234159 0.5816829 0.276616 0.5823292 0.292559 0.598416 0.2932675 0.5992305 0.3125 0.5823292 0.292559 0.5816829 0.276616 0.5955699 0.2794301 0.5817325 0.2234159 0.5955699 0.2205699 0.5955699 0.2794301 0.5818172 0.1875 0.582441 0.2073292 0.5625 0.2068172 0.5992305 0.1875 0.598384 0.2066829 0.582441 0.2073292 0.625 0.1875 0.625 0.2067325 0.598384 0.2066829 0.582441 0.2073292 0.5817325 0.2234159 0.5625 0.2242304 0.582441 0.2073292 0.598384 0.2066829 0.5955699 0.2205699 0.625 0.2067325 0.625 0.2205699 0.5955699 0.2205699 0.3318172 0.6875 0.3324409 0.7073292 0.3125 0.7068172 0.3492304 0.6875 0.348384 0.706683 0.3324409 0.7073292 0.4007696 0.6875001 0.401584 0.7067325 0.348384 0.706683 0.3324409 0.7073292 0.3317325 0.723416 0.3125 0.7242304 0.3324409 0.7073292 0.348384 0.706683 0.3455699 0.72057 0.401584 0.7067325 0.4044301 0.72057 0.3455699 0.72057 0.4375 0.7068172 0.4176707 0.7074409 0.4181828 0.6875 0.4375 0.7242305 0.418317 0.723384 0.4176707 0.7074409 0.4375 0.7757696 0.4182675 0.776584 0.418317 0.723384 0.4176707 0.7074409 0.401584 0.7067325 0.4007696 0.6875001 0.4176707 0.7074409 0.418317 0.723384 0.4044301 0.72057 0.4182675 0.776584 0.4044301 0.7794302 0.4044301 0.72057 0.4181828 0.8125 0.417559 0.7926707 0.4375 0.7931828 0.4007695 0.8125 0.401616 0.793317 0.417559 0.7926707 0.375 0.8125 0.375 0.7932675 0.401616 0.793317 0.417559 0.7926707 0.4182675 0.776584 0.4375 0.7757696 0.417559 0.7926707 0.401616 0.793317 0.4044301 0.7794302 0.375 0.7932675 0.375 0.7794301 0.4044301 0.7794302 0.6875 0.7068172 0.6676707 0.7074409 0.6681828 0.6875 0.6875 0.7242305 0.668317 0.723384 0.6676707 0.7074409 0.6875 0.75 0.6682675 0.75 0.668317 0.723384 0.6676707 0.7074409 0.651584 0.7067325 0.6507696 0.6875001 0.6676707 0.7074409 0.668317 0.723384 0.6544301 0.72057 0.6682675 0.75 0.65443 0.75 0.6544301 0.72057 0.5625001 0.7931829 0.5823292 0.792559 0.5818172 0.8125 0.5625001 0.7757696 0.5816829 0.776616 0.5823292 0.792559 0.5625 0.7242304 0.5817325 0.723416 0.5816829 0.776616 0.5823292 0.792559 0.598416 0.7932675 0.5992305 0.8125001 0.5823292 0.792559 0.5816829 0.776616 0.5955699 0.7794302 0.5817325 0.723416 0.5955699 0.72057 0.5955699 0.7794302 0.5818172 0.6875 0.582441 0.7073292 0.5625 0.7068172 0.5992305 0.6875 0.598384 0.706683 0.582441 0.7073292 0.6507696 0.6875001 0.651584 0.7067325 0.598384 0.706683 0.582441 0.7073292 0.5817325 0.723416 0.5625 0.7242304 0.582441 0.7073292 0.598384 0.706683 0.5955699 0.72057 0.651584 0.7067325 0.6544301 0.72057 0.5955699 0.72057 0.3125 0.5431828 0.3323292 0.542559 0.3318172 0.5625 0.3125 0.5257696 0.331683 0.526616 0.3323292 0.542559 0.3125 0.5 0.3317325 0.5 0.331683 0.526616 0.3323292 0.542559 0.3484159 0.5432675 0.3492305 0.5625 0.3323292 0.542559 0.331683 0.526616 0.3455699 0.5294301 0.3317325 0.5 0.3455699 0.5 0.3455699 0.5294301 0.4375 0.4568172 0.4176707 0.457441 0.4181828 0.4375 0.4375 0.4742305 0.418317 0.473384 0.4176707 0.457441 0.4375 0.5257696 0.4182675 0.526584 0.418317 0.473384 0.4176707 0.457441 0.401584 0.4567325 0.4007696 0.4375 0.4176707 0.457441 0.418317 0.473384 0.4044301 0.4705699 0.4182675 0.526584 0.4044301 0.5294301 0.4044301 0.4705699 0.4181828 0.5625 0.417559 0.5426708 0.4375 0.5431828 0.4007695 0.5625 0.401616 0.543317 0.417559 0.5426708 0.3492305 0.5625 0.3484159 0.5432675 0.401616 0.543317 0.417559 0.5426708 0.4182675 0.526584 0.4375 0.5257696 0.417559 0.5426708 0.401616 0.543317 0.4044301 0.5294301 0.3484159 0.5432675 0.3455699 0.5294301 0.4044301 0.5294301 0.6681829 0.5625 0.6675591 0.5426708 0.6875 0.5431828 0.6507696 0.5625 0.6516159 0.543317 0.6675591 0.5426708 0.5992305 0.5625 0.598416 0.5432675 0.6516159 0.543317 0.6675591 0.5426708 0.6682675 0.526584 0.6875 0.5257696 0.6675591 0.5426708 0.6516159 0.543317 0.6544301 0.5294301 0.598416 0.5432675 0.5955699 0.5294301 0.6544301 0.5294301 0.5625001 0.5431828 0.5823292 0.542559 0.5818172 0.5625 0.5625001 0.5257696 0.5816829 0.526616 0.5823292 0.542559 0.5625 0.4742304 0.5817325 0.473416 0.5816829 0.526616 0.5823292 0.542559 0.598416 0.5432675 0.5992305 0.5625 0.5823292 0.542559 0.5816829 0.526616 0.5955699 0.5294301 0.5817325 0.473416 0.5955699 0.4705699 0.5955699 0.5294301 0.5818172 0.4375 0.582441 0.4573292 0.5625 0.4568172 0.5992305 0.4375 0.598384 0.456683 0.582441 0.4573292 0.625 0.4375 0.625 0.4567325 0.598384 0.456683 0.582441 0.4573292 0.5817325 0.473416 0.5625 0.4742304 0.582441 0.4573292 0.598384 0.456683 0.5955699 0.4705699 0.625 0.4567325 0.625 0.4705699 0.5955699 0.4705699 0.1875 0.6875 0.1681828 0.6875 0.1681828 0.5625 0.1681828 0.6875 0.1507695 0.6875001 0.1507695 0.5625 0.1507695 0.6875001 0.125 0.6875 0.125 0.5625 0.4007695 0.0625 0.4181828 0.0625 0.4181828 0.1875 0.4181828 0.0625 0.4375 0.0625 0.4375 0.1875 0.4375 0.9375 0.5625 0.9375 0.5625 0.9568172 0.5625 0.9568172 0.5625 0.9742304 0.4375 0.9742305 0.4375 0.9742305 0.5625 0.9742304 0.5625 1 0.5625001 0.02576953 0.5625001 0.04318279 0.4375 0.04318279 0.4375 0.04318279 0.5625001 0.04318279 0.5625 0.0625 0.8125001 0.5625 0.8318172 0.5625 0.8318173 0.6875 0.8318172 0.5625 0.8492305 0.5625 0.8492305 0.6875 0.8492305 0.5625 0.875 0.5625 0.875 0.6875 0.5992305 0.1875 0.5818172 0.1875 0.5818172 0.0625 0.5818172 0.1875 0.5625 0.1875 0.5625 0.0625 0.5625 0.3125 0.4375 0.3125 0.4375 0.2931828 0.4375 0.2931828 0.4375 0.2757695 0.5625001 0.2757695 0.5625001 0.2757695 0.4375 0.2757695 0.4375 0.2242304 0.4375 0.2242304 0.4375 0.2068172 0.5625 0.2068172 0.5625 0.2068172 0.4375 0.2068172 0.4375 0.1875 0.1875 0.5625 0.1875 0.5431828 0.3125 0.5431828 0.1875 0.5431828 0.1875 0.5257696 0.3125 0.5257696 0.1875 0.5257696 0.1875 0.5 0.3125 0.5 0.4007695 0.3125 0.4181828 0.3125 0.4181828 0.4375 0.4181828 0.3125 0.4375 0.3125 0.4375 0.4375 0.6875 0.5625 0.6875 0.5431828 0.8125001 0.5431828 0.6875 0.5431828 0.6875 0.5257696 0.8125001 0.5257696 0.6875 0.5257696 0.6875 0.5 0.8125 0.5 0.5992305 0.4375 0.5818172 0.4375 0.5818172 0.3125 0.5818172 0.4375 0.5625 0.4375 0.5625 0.3125 0.5625 0.5625 0.4375 0.5625 0.4375 0.5431828 0.4375 0.5431828 0.4375 0.5257696 0.5625001 0.5257696 0.5625001 0.5257696 0.4375 0.5257696 0.4375 0.4742305 0.4375 0.4742305 0.4375 0.4568172 0.5625 0.4568172 0.5625 0.4568172 0.4375 0.4568172 0.4375 0.4375 0.3125 0.5625 0.3318172 0.5625 0.3318172 0.6875 0.3318172 0.5625 0.3492305 0.5625 0.3492304 0.6875 0.3492305 0.5625 0.4007695 0.5625 0.4007696 0.6875001 0.4007695 0.5625 0.4181828 0.5625 0.4181828 0.6875 0.4181828 0.5625 0.4375 0.5625 0.4375 0.6875 0.6875 0.6875 0.6681828 0.6875 0.6681829 0.5625 0.6681828 0.6875 0.6507696 0.6875001 0.6507696 0.5625 0.6507696 0.6875001 0.5992305 0.6875 0.5992305 0.5625 0.5992305 0.6875 0.5818172 0.6875 0.5818172 0.5625 0.5818172 0.6875 0.5625 0.6875001 0.5625 0.5625 0.5625 0.8125 0.4375 0.8125 0.4375 0.7931828 0.4375 0.7931828 0.4375 0.7757696 0.5625001 0.7757696 0.5625001 0.7757696 0.4375 0.7757696 0.4375 0.7242305 0.4375 0.7242305 0.4375 0.7068172 0.5625 0.7068172 0.5625 0.7068172 0.4375 0.7068172 0.4375 0.6875 0.3125 0.6875001 0.3125 0.7068172 0.1875 0.7068172 0.3125 0.7068172 0.3125 0.7242304 0.1875 0.7242305 0.3125 0.7242304 0.3125 0.75 0.1875 0.75 0.4007695 0.8125 0.4181828 0.8125 0.4181828 0.9375 0.4181828 0.8125 0.4375 0.8125 0.4375 0.9375 0.8125 0.6875001 0.8125001 0.7068172 0.6875 0.7068172 0.8125001 0.7068172 0.8125 0.7242304 0.6875 0.7242305 0.8125 0.7242304 0.8125 0.75 0.6875 0.75 0.5992305 0.9375001 0.5818172 0.9375 0.5818172 0.8125 0.5818172 0.9375 0.5625 0.9375 0.5625 0.8125 0.3125 0.5625 0.3125 0.6875001 0.1875 0.6875</float_array>
          <technique_common>
            <accessor source="#Cube_008-mesh-map-0-array" count="1284" stride="2">
              <param name="S" type="float"/>
              <param name="T" type="float"/>
            </accessor>
          </technique_common>
        </source>
        <vertices id="Cube_008-mesh-vertices">
          <input semantic="POSITION" source="#Cube_008-mesh-positions"/>
        </vertices>
        <triangles material="Material_004-material" count="428">
          <input semantic="VERTEX" source="#Cube_008-mesh-vertices" offset="0"/>
          <input semantic="NORMAL" source="#Cube_008-mesh-normals" offset="1"/>
          <input semantic="TEXCOORD" source="#Cube_008-mesh-map-0" offset="2" set="0"/>
          <p>136 0 0 1 0 1 110 0 2 190 1 3 109 1 4 164 1 5 81 2 6 135 2 7 189 2 8 29 3 9 55 3 10 2 3 11 82 4 12 163 4 13 56 4 14 3 5 15 5 5 16 0 5 17 4 6 18 6 6 19 3 6 20 16 7 21 7 7 22 4 7 23 6 8 24 8 8 25 5 8 26 6 9 27 10 9 28 9 9 29 17 10 30 10 10 31 7 10 32 11 11 33 13 11 34 1 11 35 12 12 36 14 12 37 11 12 38 24 13 39 15 13 40 12 13 41 14 14 42 16 14 43 13 14 44 14 15 45 18 15 46 17 15 47 25 16 48 18 16 49 15 16 50 19 17 51 21 17 52 2 17 53 20 18 54 22 18 55 19 18 56 8 19 57 23 19 58 20 19 59 22 20 60 24 20 61 21 20 62 22 21 63 26 21 64 25 21 65 9 22 66 26 22 67 23 22 68 10 23 69 18 23 70 26 23 71 30 24 72 32 24 73 27 24 74 31 25 75 33 25 76 30 25 77 43 26 78 34 26 79 31 26 80 33 27 81 35 27 82 32 27 83 33 28 84 37 28 85 36 28 86 44 29 87 37 29 88 34 29 89 38 30 90 40 30 91 28 30 92 39 31 93 41 31 94 38 31 95 51 32 96 42 32 97 39 32 98 41 33 99 43 33 100 40 33 101 41 34 102 45 34 103 44 34 104 52 35 105 45 35 106 42 35 107 46 36 108 48 36 109 29 36 110 47 37 111 49 37 112 46 37 113 35 38 114 50 38 115 47 38 116 49 39 117 51 39 118 48 39 119 49 40 120 53 40 121 52 40 122 36 41 123 53 41 124 50 41 125 37 42 126 45 42 127 53 42 128 57 43 129 59 43 130 54 43 131 58 44 132 60 44 133 57 44 134 70 45 135 61 45 136 58 45 137 60 46 138 62 46 139 59 46 140 60 47 141 64 47 142 63 47 143 71 48 144 64 48 145 61 48 146 65 49 147 67 49 148 55 49 149 66 50 150 68 50 151 65 50 152 78 51 153 69 51 154 66 51 155 68 52 156 70 52 157 67 52 158 68 53 159 72 53 160 71 53 161 79 54 162 72 54 163 69 54 164 73 55 165 75 55 166 56 55 167 74 56 168 76 56 169 73 56 170 62 57 171 77 57 172 74 57 173 76 58 174 78 58 175 75 58 176 76 59 177 80 59 178 79 59 179 63 60 180 80 60 181 77 60 182 64 61 183 72 61 184 80 61 185 84 62 186 86 62 187 81 62 188 85 63 189 87 63 190 84 63 191 97 64 192 88 64 193 85 64 194 87 65 195 89 65 196 86 65 197 87 66 198 91 66 199 90 66 200 98 67 201 91 67 202 88 67 203 92 68 204 94 68 205 82 68 206 93 69 207 95 69 208 92 69 209 105 70 210 96 70 211 93 70 212 95 71 213 97 71 214 94 71 215 95 72 216 99 72 217 98 72 218 106 73 219 99 73 220 96 73 221 100 74 222 102 74 223 83 74 224 101 75 225 103 75 226 100 75 227 89 76 228 104 76 229 101 76 230 103 77 231 105 77 232 102 77 233 103 78 234 107 78 235 106 78 236 90 79 237 107 79 238 104 79 239 91 80 240 99 80 241 107 80 242 111 81 243 113 81 244 108 81 245 112 82 246 114 82 247 111 82 248 124 83 249 115 83 250 112 83 251 114 84 252 116 84 253 113 84 254 114 85 255 118 85 256 117 85 257 125 86 258 118 86 259 115 86 260 119 87 261 121 87 262 109 87 263 120 88 264 122 88 265 119 88 266 132 89 267 123 89 268 120 89 269 122 90 270 124 90 271 121 90 272 122 91 273 126 91 274 125 91 275 133 92 276 126 92 277 123 92 278 127 93 279 129 93 280 110 93 281 128 94 282 130 94 283 127 94 284 116 95 285 131 95 286 128 95 287 130 96 288 132 96 289 129 96 290 130 97 291 134 97 292 133 97 293 117 98 294 134 98 295 131 98 296 118 99 297 126 99 298 134 99 299 138 100 300 140 100 301 135 100 302 139 101 303 141 101 304 138 101 305 151 102 306 142 102 307 139 102 308 141 103 309 143 103 310 140 103 311 141 104 312 145 104 313 144 104 314 152 105 315 145 105 316 142 105 317 146 106 318 148 106 319 136 106 320 147 107 321 149 107 322 146 107 323 159 108 324 150 108 325 147 108 326 149 109 327 151 109 328 148 109 329 149 110 330 153 110 331 152 110 332 160 111 333 153 111 334 150 111 335 154 112 336 156 112 337 137 112 338 155 113 339 157 113 340 154 113 341 143 114 342 158 114 343 155 114 344 157 115 345 159 115 346 156 115 347 157 116 348 161 116 349 160 116 350 144 117 351 161 117 352 158 117 353 145 118 354 153 118 355 161 118 356 165 119 357 167 119 358 162 119 359 166 120 360 168 120 361 165 120 362 178 121 363 169 121 364 166 121 365 168 122 366 170 122 367 167 122 368 168 123 369 172 123 370 171 123 371 179 124 372 172 124 373 169 124 374 173 125 375 175 125 376 163 125 377 174 126 378 176 126 379 173 126 380 186 127 381 177 127 382 174 127 383 176 128 384 178 128 385 175 128 386 176 129 387 180 129 388 179 129 389 187 130 390 180 130 391 177 130 392 181 131 393 183 131 394 164 131 395 182 132 396 184 132 397 181 132 398 170 133 399 185 133 400 182 133 401 184 134 402 186 134 403 183 134 404 184 135 405 188 135 406 187 135 407 171 136 408 188 136 409 185 136 410 172 137 411 180 137 412 188 137 413 192 138 414 194 138 415 189 138 416 193 139 417 195 139 418 192 139 419 205 140 420 196 140 421 193 140 422 195 141 423 197 141 424 194 141 425 195 142 426 199 142 427 198 142 428 206 143 429 199 143 430 196 143 431 200 144 432 202 144 433 190 144 434 201 145 435 203 145 436 200 145 437 213 146 438 204 146 439 201 146 440 203 147 441 205 147 442 202 147 443 203 148 444 207 148 445 206 148 446 214 149 447 207 149 448 204 149 449 208 150 450 210 150 451 191 150 452 209 151 453 211 151 454 208 151 455 197 152 456 212 152 457 209 152 458 211 153 459 213 153 460 210 153 461 211 154 462 215 154 463 214 154 464 198 155 465 215 155 466 212 155 467 199 156 468 207 156 469 215 156 470 0 157 471 57 157 472 54 157 473 5 158 474 58 158 475 57 158 476 8 159 477 70 159 478 58 159 479 20 160 480 67 160 481 70 160 482 19 161 483 55 161 484 67 161 485 1 162 486 32 162 487 11 162 488 32 163 489 12 163 490 11 163 491 12 164 492 47 164 493 24 164 494 47 165 495 21 165 496 24 165 497 21 166 498 29 166 499 2 166 500 81 167 501 38 167 502 28 167 503 86 168 504 39 168 505 38 168 506 89 169 507 51 169 508 39 169 509 101 170 510 48 170 511 51 170 512 100 171 513 29 171 514 48 171 515 82 172 516 75 172 517 92 172 518 75 173 519 93 173 520 92 173 521 93 174 522 66 174 523 105 174 524 66 175 525 102 175 526 105 175 527 102 176 528 55 176 529 83 176 530 54 177 531 165 177 532 162 177 533 59 178 534 166 178 535 165 178 536 62 179 537 178 179 538 166 179 539 74 180 540 175 180 541 178 180 542 73 181 543 163 181 544 175 181 545 189 182 546 84 182 547 81 182 548 194 183 549 85 183 550 84 183 551 197 184 552 97 184 553 85 184 554 209 185 555 94 185 556 97 185 557 208 186 558 82 186 559 94 186 560 190 187 561 183 187 562 200 187 563 183 188 564 201 188 565 200 188 566 201 189 567 174 189 568 213 189 569 174 190 570 210 190 571 213 190 572 210 191 573 163 191 574 191 191 575 162 192 576 111 192 577 108 192 578 167 193 579 112 193 580 111 193 581 170 194 582 124 194 583 112 194 584 182 195 585 121 195 586 124 195 587 181 196 588 109 196 589 121 196 590 135 197 591 192 197 592 189 197 593 140 198 594 193 198 595 192 198 596 143 199 597 205 199 598 193 199 599 155 200 600 202 200 601 205 200 602 154 201 603 190 201 604 202 201 605 136 202 606 129 202 607 146 202 608 129 203 609 147 203 610 146 203 611 147 204 612 120 204 613 159 204 614 120 205 615 156 205 616 159 205 617 156 206 618 109 206 619 137 206 620 108 207 621 3 207 622 0 207 623 113 208 624 4 208 625 3 208 626 116 209 627 16 209 628 4 209 629 128 210 630 13 210 631 16 210 632 127 211 633 1 211 634 13 211 635 28 212 636 138 212 637 135 212 638 40 213 639 139 213 640 138 213 641 43 214 642 151 214 643 139 214 644 31 215 645 148 215 646 151 215 647 30 216 648 136 216 649 148 216 650 162 217 651 0 217 652 54 217 653 136 0 654 27 0 655 1 0 656 190 1 657 137 1 658 109 1 659 81 2 660 28 2 661 135 2 662 29 3 663 83 3 664 55 3 665 82 4 666 191 4 667 163 4 668 3 218 669 6 218 670 5 218 671 4 219 672 7 219 673 6 219 674 16 220 675 17 220 676 7 220 677 6 221 678 9 221 679 8 221 680 6 222 681 7 222 682 10 222 683 17 223 684 18 223 685 10 223 686 11 224 687 14 224 688 13 224 689 12 225 690 15 225 691 14 225 692 24 226 693 25 226 694 15 226 695 14 227 696 17 227 697 16 227 698 14 228 699 15 228 700 18 228 701 25 229 702 26 229 703 18 229 704 19 230 705 22 230 706 21 230 707 20 231 708 23 231 709 22 231 710 8 232 711 9 232 712 23 232 713 22 233 714 25 233 715 24 233 716 22 234 717 23 234 718 26 234 719 9 235 720 10 235 721 26 235 722 30 236 723 33 236 724 32 236 725 31 237 726 34 237 727 33 237 728 43 238 729 44 238 730 34 238 731 33 239 732 36 239 733 35 239 734 33 240 735 34 240 736 37 240 737 44 241 738 45 241 739 37 241 740 38 242 741 41 242 742 40 242 743 39 243 744 42 243 745 41 243 746 51 244 747 52 244 748 42 244 749 41 245 750 44 245 751 43 245 752 41 246 753 42 246 754 45 246 755 52 247 756 53 247 757 45 247 758 46 248 759 49 248 760 48 248 761 47 249 762 50 249 763 49 249 764 35 250 765 36 250 766 50 250 767 49 251 768 52 251 769 51 251 770 49 252 771 50 252 772 53 252 773 36 253 774 37 253 775 53 253 776 57 254 777 60 254 778 59 254 779 58 255 780 61 255 781 60 255 782 70 256 783 71 256 784 61 256 785 60 257 786 63 257 787 62 257 788 60 258 789 61 258 790 64 258 791 71 259 792 72 259 793 64 259 794 65 260 795 68 260 796 67 260 797 66 261 798 69 261 799 68 261 800 78 262 801 79 262 802 69 262 803 68 263 804 71 263 805 70 263 806 68 264 807 69 264 808 72 264 809 79 265 810 80 265 811 72 265 812 73 266 813 76 266 814 75 266 815 74 267 816 77 267 817 76 267 818 62 268 819 63 268 820 77 268 821 76 269 822 79 269 823 78 269 824 76 270 825 77 270 826 80 270 827 63 271 828 64 271 829 80 271 830 84 272 831 87 272 832 86 272 833 85 273 834 88 273 835 87 273 836 97 274 837 98 274 838 88 274 839 87 275 840 90 275 841 89 275 842 87 276 843 88 276 844 91 276 845 98 277 846 99 277 847 91 277 848 92 278 849 95 278 850 94 278 851 93 279 852 96 279 853 95 279 854 105 280 855 106 280 856 96 280 857 95 281 858 98 281 859 97 281 860 95 282 861 96 282 862 99 282 863 106 283 864 107 283 865 99 283 866 100 284 867 103 284 868 102 284 869 101 285 870 104 285 871 103 285 872 89 286 873 90 286 874 104 286 875 103 287 876 106 287 877 105 287 878 103 288 879 104 288 880 107 288 881 90 289 882 91 289 883 107 289 884 111 290 885 114 290 886 113 290 887 112 291 888 115 291 889 114 291 890 124 292 891 125 292 892 115 292 893 114 293 894 117 293 895 116 293 896 114 294 897 115 294 898 118 294 899 125 295 900 126 295 901 118 295 902 119 296 903 122 296 904 121 296 905 120 297 906 123 297 907 122 297 908 132 298 909 133 298 910 123 298 911 122 299 912 125 299 913 124 299 914 122 300 915 123 300 916 126 300 917 133 301 918 134 301 919 126 301 920 127 302 921 130 302 922 129 302 923 128 303 924 131 303 925 130 303 926 116 304 927 117 304 928 131 304 929 130 305 930 133 305 931 132 305 932 130 306 933 131 306 934 134 306 935 117 307 936 118 307 937 134 307 938 138 308 939 141 308 940 140 308 941 139 309 942 142 309 943 141 309 944 151 310 945 152 310 946 142 310 947 141 311 948 144 311 949 143 311 950 141 312 951 142 312 952 145 312 953 152 313 954 153 313 955 145 313 956 146 314 957 149 314 958 148 314 959 147 315 960 150 315 961 149 315 962 159 316 963 160 316 964 150 316 965 149 317 966 152 317 967 151 317 968 149 318 969 150 318 970 153 318 971 160 319 972 161 319 973 153 319 974 154 320 975 157 320 976 156 320 977 155 321 978 158 321 979 157 321 980 143 322 981 144 322 982 158 322 983 157 323 984 160 323 985 159 323 986 157 324 987 158 324 988 161 324 989 144 325 990 145 325 991 161 325 992 165 326 993 168 326 994 167 326 995 166 327 996 169 327 997 168 327 998 178 328 999 179 328 1000 169 328 1001 168 329 1002 171 329 1003 170 329 1004 168 330 1005 169 330 1006 172 330 1007 179 331 1008 180 331 1009 172 331 1010 173 332 1011 176 332 1012 175 332 1013 174 333 1014 177 333 1015 176 333 1016 186 334 1017 187 334 1018 177 334 1019 176 335 1020 179 335 1021 178 335 1022 176 336 1023 177 336 1024 180 336 1025 187 337 1026 188 337 1027 180 337 1028 181 338 1029 184 338 1030 183 338 1031 182 339 1032 185 339 1033 184 339 1034 170 340 1035 171 340 1036 185 340 1037 184 341 1038 187 341 1039 186 341 1040 184 342 1041 185 342 1042 188 342 1043 171 343 1044 172 343 1045 188 343 1046 192 344 1047 195 344 1048 194 344 1049 193 345 1050 196 345 1051 195 345 1052 205 346 1053 206 346 1054 196 346 1055 195 347 1056 198 347 1057 197 347 1058 195 348 1059 196 348 1060 199 348 1061 206 349 1062 207 349 1063 199 349 1064 200 350 1065 203 350 1066 202 350 1067 201 351 1068 204 351 1069 203 351 1070 213 352 1071 214 352 1072 204 352 1073 203 353 1074 206 353 1075 205 353 1076 203 354 1077 204 354 1078 207 354 1079 214 355 1080 215 355 1081 207 355 1082 208 356 1083 211 356 1084 210 356 1085 209 357 1086 212 357 1087 211 357 1088 197 358 1089 198 358 1090 212 358 1091 211 359 1092 214 359 1093 213 359 1094 211 360 1095 212 360 1096 215 360 1097 198 361 1098 199 361 1099 215 361 1100 0 362 1101 5 362 1102 57 362 1103 5 363 1104 8 363 1105 58 363 1106 8 364 1107 20 364 1108 70 364 1109 20 365 1110 19 365 1111 67 365 1112 19 366 1113 2 366 1114 55 366 1115 1 367 1116 27 367 1117 32 367 1118 32 368 1119 35 368 1120 12 368 1121 12 369 1122 35 369 1123 47 369 1124 47 370 1125 46 370 1126 21 370 1127 21 371 1128 46 371 1129 29 371 1130 81 372 1131 86 372 1132 38 372 1133 86 373 1134 89 373 1135 39 373 1136 89 374 1137 101 374 1138 51 374 1139 101 375 1140 100 375 1141 48 375 1142 100 376 1143 83 376 1144 29 376 1145 82 377 1146 56 377 1147 75 377 1148 75 378 1149 78 378 1150 93 378 1151 93 379 1152 78 379 1153 66 379 1154 66 380 1155 65 380 1156 102 380 1157 102 381 1158 65 381 1159 55 381 1160 54 382 1161 59 382 1162 165 382 1163 59 383 1164 62 383 1165 166 383 1166 62 384 1167 74 384 1168 178 384 1169 74 385 1170 73 385 1171 175 385 1172 73 386 1173 56 386 1174 163 386 1175 189 387 1176 194 387 1177 84 387 1178 194 388 1179 197 388 1180 85 388 1181 197 389 1182 209 389 1183 97 389 1184 209 390 1185 208 390 1186 94 390 1187 208 391 1188 191 391 1189 82 391 1190 190 392 1191 164 392 1192 183 392 1193 183 393 1194 186 393 1195 201 393 1196 201 394 1197 186 394 1198 174 394 1199 174 395 1200 173 395 1201 210 395 1202 210 396 1203 173 396 1204 163 396 1205 162 397 1206 167 397 1207 111 397 1208 167 398 1209 170 398 1210 112 398 1211 170 399 1212 182 399 1213 124 399 1214 182 400 1215 181 400 1216 121 400 1217 181 401 1218 164 401 1219 109 401 1220 135 402 1221 140 402 1222 192 402 1223 140 403 1224 143 403 1225 193 403 1226 143 404 1227 155 404 1228 205 404 1229 155 405 1230 154 405 1231 202 405 1232 154 406 1233 137 406 1234 190 406 1235 136 407 1236 110 407 1237 129 407 1238 129 408 1239 132 408 1240 147 408 1241 147 409 1242 132 409 1243 120 409 1244 120 410 1245 119 410 1246 156 410 1247 156 411 1248 119 411 1249 109 411 1250 108 412 1251 113 412 1252 3 412 1253 113 413 1254 116 413 1255 4 413 1256 116 414 1257 128 414 1258 16 414 1259 128 415 1260 127 415 1261 13 415 1262 127 416 1263 110 416 1264 1 416 1265 28 417 1266 40 417 1267 138 417 1268 40 418 1269 43 418 1270 139 418 1271 43 419 1272 31 419 1273 151 419 1274 31 420 1275 30 420 1276 148 420 1277 30 421 1278 27 421 1279 136 421 1280 162 217 1281 108 217 1282 0 217 1283</p>
        </triangles>
      </mesh>
    </geometry>
  </library_geometries>
  <library_visual_scenes>
    <visual_scene id="Scene" name="Scene">
      <node id="Cube_003" name="Cube.003" type="NODE">
        <matrix sid="transform">0.5725 0 0 0 0 0 -0.03 0 0 0.4075 0 0 0 0 0 1</matrix>
        <instance_geometry url="#Cube_008-mesh" name="Cube.003">
          <bind_material>
            <technique_common>
              <instance_material symbol="Material_004-material" target="#Material_004-material">
                <bind_vertex_input semantic="UVMap" input_semantic="TEXCOORD" input_set="0"/>
              </instance_material>
            </technique_common>
          </bind_material>
        </instance_geometry>
      </node>
    </visual_scene>
  </library_visual_scenes>
  <scene>
    <instance_visual_scene url="#Scene"/>
  </scene>
</COLLADA>