<?xml version="1.0" encoding="utf-8"?>
<COLLADA xmlns="http://www.collada.org/2005/11/COLLADASchema" version="1.4.1" xmlns:xsi="http://www.w3.org/2001/XMLSchema-instance">
  <asset>
    <contributor>
      <author>Blender User</author>
      <authoring_tool>Blender 4.5.10 LTS commit date:2026-05-18, commit time:13:28, hash:6dc0b208d1b5</authoring_tool>
    </contributor>
    <created>2026-06-18T01:33:52</created>
    <modified>2026-06-18T01:33:52</modified>
    <unit name="meter" meter="1"/>
    <up_axis>Z_UP</up_axis>
  </asset>
  <library_effects>
    <effect id="Material_004-effect">
      <profile_COMMON>
        <technique sid="common">
          <lambert>
            <emission>
              <color sid="emission">0 0 0 1</color>
            </emission>
            <diffuse>
              <color sid="diffuse">0.3 0 0 1</color>
            </diffuse>
            <index_of_refraction>
              <float sid="ior">1.5</float>
            </index_of_refraction>
          </lambert>
        </technique>
      </profile_COMMON>
    </effect>
  </library_effects>
  <library_images/>
  <library_materials>
    <material id="Material_004-material" name="Material.004">
      <instance_effect url="#Material_004-effect"/>
    </material>
  </library_materials>
  <library_geometries>
    <geometry id="Cube_005-mesh" name="Cube.005">
      <mesh>
        <source id="Cube_005-mesh-positions">
          <float_array id="Cube_005-mesh-positions-array" count="648">-0.5 -0.5 -1 -0.5 -1 -0.5 -1 -0.5 -0.5 -0.5 -0.6545374 -0.975519 -0.5 -0.7938436 -0.9045441 -0.6545373 -0.5 -0.9755189 -0.658634 -0.6595277 -0.9465268 -0.6534637 -0.7870723 -0.8795239 -0.7938435 -0.5 -0.9045442 -0.7873277 -0.65386 -0.8791701 -0.7645593 -0.7645593 -0.8316878 -0.6545374 -0.975519 -0.5 -0.7938436 -0.9045441 -0.5 -0.5 -0.9755189 -0.6545373 -0.6595277 -0.9465268 -0.658634 -0.7870723 -0.8795239 -0.6534637 -0.5 -0.9045442 -0.7938435 -0.65386 -0.8791701 -0.7873277 -0.7645593 -0.8316878 -0.7645593 -0.975519 -0.5 -0.6545374 -0.9045441 -0.5 -0.7938436 -0.9755189 -0.6545373 -0.5 -0.9465268 -0.658634 -0.6595277 -0.8795239 -0.6534637 -0.7870723 -0.9045442 -0.7938435 -0.5 -0.8791701 -0.7873277 -0.65386 -0.8316878 -0.7645593 -0.7645593 -0.5 -1 0.5 -0.5 -0.5 1 -1 -0.5 0.5 -0.5 -0.975519 0.6545374 -0.5 -0.9045441 0.7938436 -0.6545373 -0.9755189 0.5 -0.658634 -0.9465268 0.6595277 -0.6534637 -0.8795239 0.7870723 -0.7938435 -0.9045442 0.5 -0.7873277 -0.8791701 0.65386 -0.7645593 -0.8316878 0.7645593 -0.6545374 -0.5 0.975519 -0.7938436 -0.5 0.9045441 -0.5 -0.6545373 0.9755189 -0.6595277 -0.658634 0.9465268 -0.7870723 -0.6534637 0.8795239 -0.5 -0.7938435 0.9045442 -0.65386 -0.7873277 0.8791701 -0.7645593 -0.7645593 0.8316878 -0.975519 -0.6545374 0.5 -0.9045441 -0.7938436 0.5 -0.9755189 -0.5 0.6545373 -0.9465268 -0.6595277 0.658634 -0.8795239 -0.7870723 0.6534637 -0.9045442 -0.5 0.7938435 -0.8791701 -0.65386 0.7873277 -0.8316878 -0.7645593 0.7645593 -0.5 0.5 -1 -1 0.5 -0.5 -0.5 1 -0.5 -0.6545374 0.5 -0.975519 -0.7938436 0.5 -0.9045441 -0.5 0.6545373 -0.9755189 -0.6595277 0.658634 -0.9465268 -0.7870723 0.6534637 -0.8795239 -0.5 0.7938435 -0.9045442 -0.65386 0.7873277 -0.8791701 -0.7645593 0.7645593 -0.8316878 -0.975519 0.6545374 -0.5 -0.9045441 0.7938436 -0.5 -0.9755189 0.5 -0.6545373 -0.9465268 0.6595277 -0.658634 -0.8795239 0.7870723 -0.6534637 -0.9045442 0.5 -0.7938435 -0.8791701 0.65386 -0.7873277 -0.8316878 0.7645593 -0.7645593 -0.5 0.975519 -0.6545374 -0.5 0.9045441 -0.7938436 -0.6545373 0.9755189 -0.5 -0.658634 0.9465268 -0.6595277 -0.6534637 0.8795239 -0.7870723 -0.7938435 0.9045442 -0.5 -0.7873277 0.8791701 -0.65386 -0.7645593 0.8316878 -0.7645593 -0.5 0.5 1 -0.5 1 0.5 -1 0.5 0.5 -0.5 0.6545374 0.975519 -0.5 0.7938436 0.9045441 -0.6545373 0.5 0.9755189 -0.658634 0.6595277 0.9465268 -0.6534637 0.7870723 0.8795239 -0.7938435 0.5 0.9045442 -0.7873277 0.65386 0.8791701 -0.7645593 0.7645593 0.8316878 -0.6545374 0.975519 0.5 -0.7938436 0.9045441 0.5 -0.5 0.9755189 0.6545373 -0.6595277 0.9465268 0.658634 -0.7870723 0.8795239 0.6534637 -0.5 0.9045442 0.7938435 -0.65386 0.8791701 0.7873277 -0.7645593 0.8316878 0.7645593 -0.975519 0.5 0.6545374 -0.9045441 0.5 0.7938436 -0.9755189 0.6545373 0.5 -0.9465268 0.658634 0.6595277 -0.8795239 0.6534637 0.7870723 -0.9045442 0.7938435 0.5 -0.8791701 0.7873277 0.65386 -0.8316878 0.7645593 0.7645593 0.5 -0.5 -1 1 -0.5 -0.5 0.5 -1 -0.5 0.6545374 -0.5 -0.975519 0.7938436 -0.5 -0.9045441 0.5 -0.6545373 -0.9755189 0.6595277 -0.658634 -0.9465268 0.7870723 -0.6534637 -0.8795239 0.5 -0.7938435 -0.9045442 0.65386 -0.7873277 -0.8791701 0.7645593 -0.7645593 -0.8316878 0.975519 -0.6545374 -0.5 0.9045441 -0.7938436 -0.5 0.9755189 -0.5 -0.6545373 0.9465268 -0.6595277 -0.658634 0.8795239 -0.7870723 -0.6534637 0.9045442 -0.5 -0.7938435 0.8791701 -0.65386 -0.7873277 0.8316878 -0.7645593 -0.7645593 0.5 -0.975519 -0.6545374 0.5 -0.9045441 -0.7938436 0.6545373 -0.9755189 -0.5 0.658634 -0.9465268 -0.6595277 0.6534637 -0.8795239 -0.7870723 0.7938435 -0.9045442 -0.5 0.7873277 -0.8791701 -0.65386 0.7645593 -0.8316878 -0.7645593 0.5 -0.5 1 0.5 -1 0.5 1 -0.5 0.5 0.5 -0.6545374 0.975519 0.5 -0.7938436 0.9045441 0.6545373 -0.5 0.9755189 0.658634 -0.6595277 0.9465268 0.6534637 -0.7870723 0.8795239 0.7938435 -0.5 0.9045442 0.7873277 -0.65386 0.8791701 0.7645593 -0.7645593 0.8316878 0.6545374 -0.975519 0.5 0.7938436 -0.9045441 0.5 0.5 -0.9755189 0.6545373 0.6595277 -0.9465268 0.658634 0.7870723 -0.8795239 0.6534637 0.5 -0.9045442 0.7938435 0.65386 -0.8791701 0.7873277 0.7645593 -0.8316878 0.7645593 0.975519 -0.5 0.6545374 0.9045441 -0.5 0.7938436 0.9755189 -0.6545373 0.5 0.9465268 -0.658634 0.6595277 0.8795239 -0.6534637 0.7870723 0.9045442 -0.7938435 0.5 0.8791701 -0.7873277 0.65386 0.8316878 -0.7645593 0.7645593 0.5 0.5 -1 0.5 1 -0.5 1 0.5 -0.5 0.5 0.6545374 -0.975519 0.5 0.7938436 -0.9045441 0.6545373 0.5 -0.9755189 0.658634 0.6595277 -0.9465268 0.6534637 0.7870723 -0.8795239 0.7938435 0.5 -0.9045442 0.7873277 0.65386 -0.8791701 0.7645593 0.7645593 -0.8316878 0.6545374 0.975519 -0.5 0.7938436 0.9045441 -0.5 0.5 0.9755189 -0.6545373 0.6595277 0.9465268 -0.658634 0.7870723 0.8795239 -0.6534637 0.5 0.9045442 -0.7938435 0.65386 0.8791701 -0.7873277 0.7645593 0.8316878 -0.7645593 0.975519 0.5 -0.6545374 0.9045441 0.5 -0.7938436 0.9755189 0.6545373 -0.5 0.9465268 0.658634 -0.6595277 0.8795239 0.6534637 -0.7870723 0.9045442 0.7938435 -0.5 0.8791701 0.7873277 -0.65386 0.8316878 0.7645593 -0.7645593 0.5 0.5 1 1 0.5 0.5 0.5 1 0.5 0.6545374 0.5 0.975519 0.7938436 0.5 0.9045441 0.5 0.6545373 0.9755189 0.6595277 0.658634 0.9465268 0.7870723 0.6534637 0.8795239 0.5 0.7938435 0.9045442 0.65386 0.7873277 0.8791701 0.7645593 0.7645593 0.8316878 0.975519 0.6545374 0.5 0.9045441 0.7938436 0.5 0.9755189 0.5 0.6545373 0.9465268 0.6595277 0.658634 0.8795239 0.7870723 0.6534637 0.9045442 0.5 0.7938435 0.8791701 0.65386 0.7873277 0.8316878 0.7645593 0.7645593 0.5 0.975519 0.6545374 0.5 0.9045441 0.7938436 0.6545373 0.9755189 0.5 0.658634 0.9465268 0.6595277 0.6534637 0.8795239 0.7870723 0.7938435 0.9045442 0.5 0.7873277 0.8791701 0.65386 0.7645593 0.8316878 0.7645593</float_array>
          <technique_common>
            <accessor source="#Cube_005-mesh-positions-array" count="216" stride="3">
              <param name="X" type="float"/>
              <param name="Y" type="float"/>
              <param name="Z" type="float"/>
            </accessor>
          </technique_common>
        </source>
        <source id="Cube_005-mesh-normals">
          <float_array id="Cube_005-mesh-normals-array" count="1284">-0.1545837 -0.1545832 -0.9758114 -0.1469505 -0.4490358 -0.8813469 -0.1449373 -0.6996403 -0.6996403 -0.4489228 -0.1486051 -0.881127 -0.4336214 -0.4290648 -0.7923861 -0.4087664 -0.6447989 -0.6458673 -0.1545832 -0.9758114 -0.1545837 -0.4490358 -0.8813469 -0.1469505 -0.6996403 -0.6996403 -0.1449373 -0.1486051 -0.881127 -0.4489228 -0.4290648 -0.7923861 -0.4336214 -0.6447988 -0.6458672 -0.4087663 -0.9758114 -0.1545837 -0.1545832 -0.8813469 -0.1469505 -0.4490358 -0.6996403 -0.1449373 -0.6996403 -0.881127 -0.4489228 -0.1486051 -0.7923861 -0.4336214 -0.4290648 -0.6458672 -0.4087663 -0.6447988 -0.5773502 -0.5773503 -0.5773503 -0.1545837 -0.9758114 0.1545832 -0.1469505 -0.8813469 0.4490358 -0.1449373 -0.6996403 0.6996403 -0.4489228 -0.881127 0.1486051 -0.4336214 -0.7923861 0.4290648 -0.4087663 -0.6458672 0.6447988 -0.1545832 -0.1545837 0.9758114 -0.4490358 -0.1469505 0.8813469 -0.6996403 -0.1449373 0.6996403 -0.1486051 -0.4489228 0.881127 -0.4290648 -0.4336214 0.7923861 -0.6447989 -0.4087664 0.6458673 -0.9758114 -0.1545832 0.1545837 -0.8813469 -0.4490358 0.1469505 -0.6996403 -0.6996403 0.1449373 -0.881127 -0.1486051 0.4489228 -0.7923861 -0.4290648 0.4336214 -0.6458672 -0.6447988 0.4087663 -0.5773502 -0.5773503 0.5773503 -0.1545832 0.1545837 -0.9758114 -0.4490358 0.1469505 -0.8813469 -0.6996403 0.1449373 -0.6996403 -0.1486051 0.4489228 -0.881127 -0.4290648 0.4336214 -0.7923861 -0.6447989 0.4087664 -0.6458673 -0.9758114 0.1545832 -0.1545837 -0.8813469 0.4490358 -0.1469505 -0.6996403 0.6996403 -0.1449373 -0.881127 0.1486051 -0.4489228 -0.7923861 0.4290648 -0.4336214 -0.6458672 0.6447988 -0.4087663 -0.1545837 0.9758114 -0.1545832 -0.1469505 0.8813469 -0.4490358 -0.1449373 0.6996403 -0.6996403 -0.4489228 0.881127 -0.1486051 -0.4336214 0.7923861 -0.4290648 -0.4087663 0.6458672 -0.6447988 -0.5773503 0.5773502 -0.5773503 -0.1545837 0.1545832 0.9758114 -0.1469505 0.4490358 0.8813469 -0.1449373 0.6996403 0.6996403 -0.4489228 0.1486051 0.881127 -0.4336214 0.4290648 0.7923861 -0.4087664 0.6447989 0.6458673 -0.1545832 0.9758114 0.1545837 -0.4490358 0.8813469 0.1469505 -0.6996403 0.6996403 0.1449373 -0.1486051 0.881127 0.4489228 -0.4290648 0.7923861 0.4336214 -0.6447988 0.6458672 0.4087663 -0.9758114 0.1545837 0.1545832 -0.8813469 0.1469505 0.4490358 -0.6996403 0.1449373 0.6996403 -0.881127 0.4489228 0.1486051 -0.7923861 0.4336214 0.4290648 -0.6458672 0.4087663 0.6447988 -0.5773502 0.5773503 0.5773503 0.1545832 -0.1545837 -0.9758114 0.4490358 -0.1469505 -0.8813469 0.6996403 -0.1449373 -0.6996403 0.1486051 -0.4489228 -0.881127 0.4290648 -0.4336214 -0.7923861 0.6447989 -0.4087664 -0.6458673 0.9758114 -0.1545832 -0.1545837 0.8813469 -0.4490358 -0.1469505 0.6996403 -0.6996403 -0.1449373 0.881127 -0.1486051 -0.4489228 0.7923861 -0.4290648 -0.4336214 0.6458672 -0.6447988 -0.4087663 0.1545837 -0.9758114 -0.1545832 0.1469505 -0.8813469 -0.4490358 0.1449373 -0.6996403 -0.6996403 0.4489228 -0.881127 -0.1486051 0.4336214 -0.7923861 -0.4290648 0.4087663 -0.6458672 -0.6447988 0.5773503 -0.5773502 -0.5773503 0.1545837 -0.1545832 0.9758114 0.1469505 -0.4490358 0.8813469 0.1449373 -0.6996403 0.6996403 0.4489228 -0.1486051 0.881127 0.4336214 -0.4290648 0.7923861 0.4087664 -0.6447989 0.6458673 0.1545832 -0.9758114 0.1545837 0.4490358 -0.8813469 0.1469505 0.6996403 -0.6996403 0.1449373 0.1486051 -0.881127 0.4489228 0.4290648 -0.7923861 0.4336214 0.6447988 -0.6458672 0.4087663 0.9758114 -0.1545837 0.1545832 0.8813469 -0.1469505 0.4490358 0.6996403 -0.1449373 0.6996403 0.881127 -0.4489228 0.1486051 0.7923861 -0.4336214 0.4290648 0.6458672 -0.4087663 0.6447988 0.5773502 -0.5773503 0.5773503 0.1545837 0.1545832 -0.9758114 0.1469505 0.4490358 -0.8813469 0.1449373 0.6996403 -0.6996403 0.4489228 0.1486051 -0.881127 0.4336214 0.4290648 -0.7923861 0.4087664 0.6447989 -0.6458673 0.1545832 0.9758114 -0.1545837 0.4490358 0.8813469 -0.1469505 0.6996403 0.6996403 -0.1449373 0.1486051 0.881127 -0.4489228 0.4290648 0.7923861 -0.4336214 0.6447988 0.6458672 -0.4087663 0.9758114 0.1545837 -0.1545832 0.8813469 0.1469505 -0.4490358 0.6996403 0.1449373 -0.6996403 0.881127 0.4489228 -0.1486051 0.7923861 0.4336214 -0.4290648 0.6458672 0.4087663 -0.6447988 0.5773502 0.5773503 -0.5773503 0.1545832 0.1545837 0.9758114 0.4490358 0.1469505 0.8813469 0.6996403 0.1449373 0.6996403 0.1486051 0.4489228 0.881127 0.4290648 0.4336214 0.7923861 0.6447989 0.4087664 0.6458673 0.9758114 0.1545832 0.1545837 0.8813469 0.4490358 0.1469505 0.6996403 0.6996403 0.1449373 0.881127 0.1486051 0.4489228 0.7923861 0.4290648 0.4336214 0.6458672 0.6447988 0.4087663 0.1545837 0.9758114 0.1545832 0.1469505 0.8813469 0.4490358 0.1449373 0.6996403 0.6996403 0.4489228 0.881127 0.1486051 0.4336214 0.7923861 0.4290648 0.4087663 0.6458672 0.6447988 0.5773503 0.5773502 0.5773503 -0.1564639 0 -0.9876836 -0.4539641 0 -0.89102 -0.7071068 0 -0.7071068 -0.8910204 0 -0.4539634 -0.9876836 0 -0.1564644 -0.1564639 -0.9876836 0 -0.4539641 -0.89102 0 -0.7071068 -0.7071068 0 -0.8910204 -0.4539634 0 -0.9876836 -0.1564644 0 -0.1564639 0 0.9876836 -0.4539641 0 0.89102 -0.7071068 0 0.7071068 -0.8910204 0 0.4539634 -0.9876836 0 0.1564644 -0.1564639 0.9876836 0 -0.4539641 0.89102 0 -0.7071068 0.7071068 0 -0.8910204 0.4539634 0 -0.9876836 0.1564644 0 0 0.1564639 -0.9876836 0 0.4539641 -0.89102 0 0.7071068 -0.7071068 0 0.8910204 -0.4539634 0 0.9876836 -0.1564644 0 0.1564639 0.9876836 0 0.4539641 0.89102 0 0.7071068 0.7071068 0 0.8910204 0.4539634 0 0.9876836 0.1564644 0.9876836 0.1564639 0 0.89102 0.4539641 0 0.7071068 0.7071068 0 0.4539634 0.8910204 0 0.1564644 0.9876836 0 0.1564639 0 -0.9876836 0.4539641 0 -0.89102 0.7071068 0 -0.7071068 0.8910204 0 -0.4539634 0.9876836 0 -0.1564644 0.1564639 0 0.9876836 0.4539641 0 0.89102 0.7071068 0 0.7071068 0.8910204 0 0.4539634 0.9876836 0 0.1564644 0.1564639 -0.9876836 0 0.4539641 -0.89102 0 0.7071068 -0.7071068 0 0.8910204 -0.4539634 0 0.9876836 -0.1564644 0 0 -0.1564639 -0.9876836 0 -0.4539641 -0.89102 0 -0.7071068 -0.7071068 0 -0.8910204 -0.4539634 0 -0.9876836 -0.1564644 0 -0.1564639 0.9876836 0 -0.4539641 0.89102 0 -0.7071068 0.7071068 0 -0.8910204 0.4539634 0 -0.9876836 0.1564644 0 0 -1 -1 0 0 0 -1 0 0 0 1 0 1 0 1 0 0 -0.1718736 -0.1718731 -0.9700098 -0.162446 -0.4640379 -0.8707928 -0.1450176 -0.6996939 -0.6995701 -0.4631261 -0.1632759 -0.871123 -0.4290611 -0.4336495 -0.7923728 -0.4094054 -0.6451308 -0.6451306 -0.1718731 -0.9700098 -0.1718736 -0.4640379 -0.8707928 -0.162446 -0.6996939 -0.6995701 -0.1450176 -0.1632759 -0.871123 -0.4631261 -0.4336495 -0.7923729 -0.4290612 -0.6451308 -0.6451306 -0.4094054 -0.9700098 -0.1718736 -0.1718731 -0.8707928 -0.162446 -0.4640379 -0.6995701 -0.1450176 -0.6996939 -0.871123 -0.4631261 -0.1632759 -0.7923728 -0.4290611 -0.4336495 -0.6451306 -0.4094054 -0.6451308 -0.1718736 -0.9700098 0.1718731 -0.162446 -0.8707928 0.4640379 -0.1450176 -0.6995701 0.6996939 -0.4631261 -0.871123 0.1632759 -0.4290611 -0.7923728 0.4336495 -0.4094054 -0.6451306 0.6451308 -0.1718731 -0.1718736 0.9700098 -0.4640379 -0.162446 0.8707928 -0.6996939 -0.1450176 0.6995701 -0.1632759 -0.4631261 0.871123 -0.4336495 -0.4290611 0.7923728 -0.6451308 -0.4094054 0.6451306 -0.9700098 -0.1718731 0.1718736 -0.8707928 -0.4640379 0.162446 -0.6995701 -0.6996939 0.1450176 -0.871123 -0.1632759 0.4631261 -0.7923729 -0.4336495 0.4290612 -0.6451306 -0.6451308 0.4094054 -0.1718731 0.1718736 -0.9700098 -0.4640379 0.162446 -0.8707928 -0.6996939 0.1450176 -0.6995701 -0.1632759 0.4631261 -0.871123 -0.4336495 0.4290611 -0.7923728 -0.6451308 0.4094054 -0.6451306 -0.9700098 0.1718731 -0.1718736 -0.8707928 0.4640379 -0.162446 -0.6995701 0.6996939 -0.1450176 -0.871123 0.1632759 -0.4631261 -0.7923729 0.4336495 -0.4290612 -0.6451306 0.6451308 -0.4094054 -0.1718736 0.9700098 -0.1718731 -0.162446 0.8707928 -0.4640379 -0.1450176 0.6995701 -0.6996939 -0.4631261 0.871123 -0.1632759 -0.4290611 0.7923728 -0.4336495 -0.4094054 0.6451306 -0.6451308 -0.1718736 0.1718731 0.9700098 -0.162446 0.4640379 0.8707928 -0.1450176 0.6996939 0.6995701 -0.4631261 0.1632759 0.871123 -0.4290611 0.4336495 0.7923728 -0.4094054 0.6451308 0.6451306 -0.1718731 0.9700098 0.1718736 -0.4640379 0.8707928 0.162446 -0.6996939 0.6995701 0.1450176 -0.1632759 0.871123 0.4631261 -0.4336495 0.7923729 0.4290612 -0.6451308 0.6451306 0.4094054 -0.9700098 0.1718736 0.1718731 -0.8707928 0.162446 0.4640379 -0.6995701 0.1450176 0.6996939 -0.871123 0.4631261 0.1632759 -0.7923728 0.4290611 0.4336495 -0.6451306 0.4094054 0.6451308 0.1718731 -0.1718736 -0.9700098 0.4640379 -0.162446 -0.8707928 0.6996939 -0.1450176 -0.6995701 0.1632759 -0.4631261 -0.871123 0.4336495 -0.4290611 -0.7923728 0.6451308 -0.4094054 -0.6451306 0.9700098 -0.1718731 -0.1718736 0.8707928 -0.4640379 -0.162446 0.6995701 -0.6996939 -0.1450176 0.871123 -0.1632759 -0.4631261 0.7923729 -0.4336495 -0.4290612 0.6451306 -0.6451308 -0.4094054 0.1718736 -0.9700098 -0.1718731 0.162446 -0.8707928 -0.4640379 0.1450176 -0.6995701 -0.6996939 0.4631261 -0.871123 -0.1632759 0.4290611 -0.7923728 -0.4336495 0.4094054 -0.6451306 -0.6451308 0.1718736 -0.1718731 0.9700098 0.162446 -0.4640379 0.8707928 0.1450176 -0.6996939 0.6995701 0.4631261 -0.1632759 0.871123 0.4290611 -0.4336495 0.7923728 0.4094054 -0.6451308 0.6451306 0.1718731 -0.9700098 0.1718736 0.4640379 -0.8707928 0.162446 0.6996939 -0.6995701 0.1450176 0.1632759 -0.871123 0.4631261 0.4336495 -0.7923729 0.4290612 0.6451308 -0.6451306 0.4094054 0.9700098 -0.1718736 0.1718731 0.8707928 -0.162446 0.4640379 0.6995701 -0.1450176 0.6996939 0.871123 -0.4631261 0.1632759 0.7923728 -0.4290611 0.4336495 0.6451306 -0.4094054 0.6451308 0.1718736 0.1718731 -0.9700098 0.162446 0.4640379 -0.8707928 0.1450176 0.6996939 -0.6995701 0.4631261 0.1632759 -0.871123 0.4290611 0.4336495 -0.7923728 0.4094054 0.6451308 -0.6451306 0.1718731 0.9700098 -0.1718736 0.4640379 0.8707928 -0.162446 0.6996939 0.6995701 -0.1450176 0.1632759 0.871123 -0.4631261 0.4336495 0.7923729 -0.4290612 0.6451308 0.6451306 -0.4094054 0.9700098 0.1718736 -0.1718731 0.8707928 0.162446 -0.4640379 0.6995701 0.1450176 -0.6996939 0.871123 0.4631261 -0.1632759 0.7923728 0.4290611 -0.4336495 0.6451306 0.4094054 -0.6451308 0.1718731 0.1718736 0.9700098 0.4640379 0.162446 0.8707928 0.6996939 0.1450176 0.6995701 0.1632759 0.4631261 0.871123 0.4336495 0.4290611 0.7923728 0.6451308 0.4094054 0.6451306 0.9700098 0.1718731 0.1718736 0.8707928 0.4640379 0.162446 0.6995701 0.6996939 0.1450176 0.871123 0.1632759 0.4631261 0.7923729 0.4336495 0.4290612 0.6451306 0.6451308 0.4094054 0.1718736 0.9700098 0.1718731 0.162446 0.8707928 0.4640379 0.1450176 0.6995701 0.6996939 0.4631261 0.871123 0.1632759 0.4290611 0.7923728 0.4336495 0.4094054 0.6451306 0.6451308 -0.1564644 0 -0.9876836 -0.4539634 0 -0.8910204 -0.7071068 0 -0.7071068 -0.89102 0 -0.4539641 -0.9876836 0 -0.1564639 -0.1564644 -0.9876836 0 -0.4539634 -0.8910204 0 -0.7071068 -0.7071068 0 -0.89102 -0.4539641 0 -0.9876836 -0.1564639 0 -0.1564644 0 0.9876836 -0.4539634 0 0.8910204 -0.7071068 0 0.7071068 -0.89102 0 0.4539641 -0.9876836 0 0.1564639 -0.1564644 0.9876836 0 -0.4539634 0.8910204 0 -0.7071068 0.7071068 0 -0.89102 0.4539641 0 -0.9876836 0.1564639 0 0 0.1564644 -0.9876836 0 0.4539634 -0.8910204 0 0.7071068 -0.7071068 0 0.89102 -0.4539641 0 0.9876836 -0.1564639 0 0.1564644 0.9876836 0 0.4539634 0.8910204 0 0.7071068 0.7071068 0 0.89102 0.4539641 0 0.9876836 0.1564639 0.9876836 0.1564644 0 0.8910204 0.4539634 0 0.7071068 0.7071068 0 0.4539641 0.89102 0 0.1564639 0.9876836 0 0.1564644 0 -0.9876836 0.4539634 0 -0.8910204 0.7071068 0 -0.7071068 0.89102 0 -0.4539641 0.9876836 0 -0.1564639 0.1564644 0 0.9876836 0.4539634 0 0.8910204 0.7071068 0 0.7071068 0.89102 0 0.4539641 0.9876836 0 0.1564639 0.1564644 -0.9876836 0 0.4539634 -0.8910204 0 0.7071068 -0.7071068 0 0.89102 -0.4539641 0 0.9876836 -0.1564639 0 0 -0.1564644 -0.9876836 0 -0.4539634 -0.8910204 0 -0.7071068 -0.7071068 0 -0.89102 -0.4539641 0 -0.9876836 -0.1564639 0 -0.1564644 0.9876836 0 -0.4539634 0.8910204 0 -0.7071068 0.7071068 0 -0.89102 0.4539641 0 -0.9876836 0.1564639 0 0 -1 -1 0 0 0 -1 0 0 0 1 0 1 0 1 0 0</float_array>
          <technique_common>
            <accessor source="#Cube_005-mesh-normals-array" count="428" stride="3">
              <param name="X" type="float"/>
              <param name="Y" type="float"/>
              <param name="Z" type="float"/>
            </accessor>
          </technique_common>
        </source>
        <source id="Cube_005-mesh-map-0">
          <float_array id="Cube_005-mesh-map-0-array" count="2568">0.1875 0.7068172 0.1681828 0.6875 0.1875 0.6875001 0.1875 0.7242305 0.1676707 0.707441 0.1875 0.7068172 0.1875 0.75 0.168317 0.7233842 0.1875 0.7242305 0.1676707 0.707441 0.1507695 0.6875001 0.1681828 0.6875 0.1676707 0.707441 0.15443 0.7205699 0.151584 0.7067324 0.1682674 0.7500001 0.15443 0.7205699 0.168317 0.7233842 0.4375 0.9568172 0.4181827 0.9375 0.4375 0.9375 0.4375 1 0.4176708 0.9574411 0.4375 0.9568172 0.4375001 0.02576953 0.418317 0 0.4375 0 0.4176708 0.9574411 0.375 0.9375 0.4181827 0.9375 0.4176708 0.9574411 0.375 0.9705699 0.375 0.9567325 0.4182675 0.02658402 0.375 0 0.418317 0 0.4181829 0.0625 0.4375 0.04318279 0.4375001 0.0625 0.375 0.0625 0.4175589 0.04267072 0.4181829 0.0625 0.1507695 0.6875001 0.125 0.706683 0.125 0.6875 0.4175589 0.04267072 0.4375001 0.02576953 0.4375 0.04318279 0.4175589 0.04267072 0.375 0.02943009 0.4182675 0.02658402 0.151584 0.7067324 0.125 0.72057 0.125 0.706683 0.15443 0.7205699 0.1544301 0.75 0.125 0.72057 0.5818172 0.9375001 0.5625 0.9568172 0.5625 0.9375 0.5992304 0.9375001 0.582441 0.9573292 0.5818172 0.9375001 0.625 0.9375 0.598384 0.956683 0.5992304 0.9375001 0.582441 0.9573292 0.5625001 1 0.5625 0.9568172 0.582441 0.9573292 0.5955698 1 0.5817325 1 0.625 0.9567326 0.5955698 1 0.598384 0.956683 0.8318174 0.6875 0.8125001 0.7068172 0.8125001 0.6875001 0.875 0.6875 0.8324409 0.7073292 0.8318174 0.6875 0.5992305 0.0625 0.625 0.04331701 0.625 0.0625 0.8324409 0.7073292 0.8125001 0.7500001 0.8125001 0.7068172 0.8324409 0.7073292 0.875 0.7205699 0.8317325 0.75 0.598416 0.04326748 0.625 0.02943009 0.625 0.04331701 0.5625001 0.04318279 0.5818172 0.0625 0.5625 0.0625 0.5625 0.02576953 0.5823293 0.04255902 0.5625001 0.04318279 0.5625 0 0.5816829 0.02661591 0.5625 0.02576953 0.5823293 0.04255902 0.5992305 0.0625 0.5818172 0.0625 0.5823293 0.04255902 0.5955699 0.02943003 0.598416 0.04326748 0.5817325 0 0.5955699 0.02943003 0.5816829 0.02661591 0.5955699 0 0.625 0.02943009 0.5955699 0.02943003 0.1681828 0.5625 0.1875 0.5431827 0.1875 0.5625001 0.1507695 0.5625001 0.167559 0.5426707 0.1681828 0.5625 0.125 0.5625 0.1516159 0.543317 0.1507695 0.5625001 0.167559 0.5426707 0.1875 0.5257696 0.1875 0.5431827 0.167559 0.5426707 0.15443 0.52943 0.1682675 0.5265841 0.125 0.5432675 0.15443 0.52943 0.1516159 0.543317 0.4375 0.2068172 0.4181828 0.1875 0.4375 0.1875 0.4375 0.2242304 0.4176707 0.2074409 0.4375 0.2068172 0.4375 0.2757696 0.418317 0.223384 0.4375 0.2242304 0.4176707 0.2074409 0.375 0.1875 0.4181828 0.1875 0.4176707 0.2074409 0.375 0.2205699 0.375 0.2067325 0.4182675 0.276584 0.375 0.2205699 0.418317 0.223384 0.4181828 0.3125 0.4374999 0.2931828 0.4375001 0.3125 0.375 0.3125 0.417559 0.2926707 0.4181828 0.3125 0.1875 0.5257696 0.168317 0.5 0.1875 0.5 0.417559 0.2926707 0.4375 0.2757696 0.4374999 0.2931828 0.417559 0.2926707 0.375 0.2794301 0.4182675 0.276584 0.1682675 0.5265841 0.1544301 0.5 0.168317 0.5 0.15443 0.52943 0.125 0.5294301 0.1544301 0.5 0.8125 0.5431828 0.8318171 0.5625 0.8125001 0.5625001 0.8125 0.5 0.8323294 0.5425591 0.8125 0.5431828 0.5992305 0.3125 0.625 0.293317 0.625 0.3125 0.8323294 0.5425591 0.875 0.5625001 0.8318171 0.5625 0.8323294 0.5425591 0.875 0.5294301 0.875 0.5432674 0.5984159 0.2932675 0.625 0.2334489 0.625 0.293317 0.5625001 0.2931828 0.5818172 0.3125 0.5625 0.3125 0.5625 0.2757695 0.5823292 0.292559 0.5625001 0.2931828 0.5625 0.2242304 0.5816829 0.276616 0.5625 0.2757695 0.5823292 0.292559 0.5992305 0.3125 0.5818172 0.3125 0.5823292 0.292559 0.59557 0.2754148 0.5984159 0.2932675 0.5817325 0.2234159 0.59557 0.2754148 0.5816829 0.276616 0.5818172 0.1875 0.5625 0.2068171 0.5625001 0.1875 0.5992304 0.1875 0.582441 0.2073292 0.5818172 0.1875 0.625 0.1875 0.598384 0.2066829 0.5992304 0.1875 0.582441 0.2073292 0.5625 0.2242304 0.5625 0.2068171 0.582441 0.2073292 0.59557 0.2205699 0.5817325 0.2234159 0.625 0.2067325 0.59557 0.2205699 0.598384 0.2066829 0.625 0.2334489 0.59557 0.2754148 0.59557 0.2205699 0.3318172 0.6875 0.3125 0.7068172 0.3125001 0.6875001 0.3492305 0.6875 0.332441 0.7073293 0.3318172 0.6875 0.4007696 0.6875001 0.348384 0.706683 0.3492305 0.6875 0.332441 0.7073293 0.3125 0.7242305 0.3125 0.7068172 0.332441 0.7073293 0.34557 0.7205699 0.3317325 0.7234159 0.401584 0.7067324 0.34557 0.7205699 0.348384 0.706683 0.4375 0.7068172 0.4181828 0.6875 0.4375 0.6875001 0.4375 0.7242305 0.4176708 0.707441 0.4375 0.7068172 0.4375 0.7757697 0.418317 0.723384 0.4375 0.7242305 0.4176708 0.707441 0.4007696 0.6875001 0.4181828 0.6875 0.4176708 0.707441 0.4004149 0.7205699 0.401584 0.7067324 0.4182675 0.7765841 0.4004149 0.7205699 0.418317 0.723384 0.4181828 0.8124999 0.4375 0.7931828 0.4375001 0.8125001 0.3438605 0.7813605 0.417559 0.7926707 0.4181828 0.8124999 0.3125 0.7242305 0.3548973 0.7732144 0.3438605 0.7813605 0.417559 0.7926707 0.4375 0.7757697 0.4375 0.7931828 0.417559 0.7926707 0.3644467 0.7688769 0.4182675 0.7765841 0.3317325 0.7234159 0.3644467 0.7688769 0.3548973 0.7732144 0.34557 0.7205699 0.4004149 0.7205699 0.3644467 0.7688769 0.6875001 0.7068172 0.6681827 0.6875 0.6875 0.6875 0.6563604 0.7811396 0.6676707 0.7074409 0.6875001 0.7068172 0.5992305 0.8125001 0.6482144 0.7701026 0.6563604 0.7811396 0.6676707 0.7074409 0.6507696 0.6875001 0.6681827 0.6875 0.6676707 0.7074409 0.6438767 0.7605533 0.651584 0.7067325 0.598416 0.7932674 0.6438767 0.7605533 0.6482144 0.7701026 0.5625 0.7931827 0.5818172 0.8125 0.5625 0.8125 0.5625 0.7757695 0.5823293 0.792559 0.5625 0.7931827 0.5625 0.7242304 0.5816829 0.7766159 0.5625 0.7757695 0.5823293 0.792559 0.5992305 0.8125001 0.5818172 0.8125 0.5823293 0.792559 0.59557 0.7794301 0.598416 0.7932674 0.5817325 0.723416 0.59557 0.7794301 0.5816829 0.7766159 0.5818172 0.6875001 0.5625 0.7068172 0.5625 0.6875001 0.5992304 0.6875 0.582441 0.7073293 0.5818172 0.6875001 0.6507696 0.6875001 0.5983841 0.706683 0.5992304 0.6875 0.582441 0.7073293 0.5625 0.7242304 0.5625 0.7068172 0.582441 0.7073293 0.5955699 0.7245851 0.5817325 0.723416 0.651584 0.7067325 0.5955699 0.7245851 0.5983841 0.706683 0.6438767 0.7605533 0.59557 0.7794301 0.5955699 0.7245851 0.3125 0.5431828 0.3318172 0.5625001 0.3125 0.5625001 0.3125 0.5257695 0.3323292 0.542559 0.3125 0.5431828 0.3438777 0.4686223 0.331683 0.526616 0.3125 0.5257695 0.3323292 0.542559 0.3492305 0.5625001 0.3318172 0.5625001 0.3323292 0.542559 0.3455699 0.52943 0.3484159 0.5432675 0.3549718 0.4767607 0.3455699 0.52943 0.331683 0.526616 0.4375 0.4568171 0.4181827 0.4375 0.4375 0.4375 0.4375 0.4742305 0.4176707 0.457441 0.4375 0.4568171 0.4375001 0.5257697 0.418317 0.473384 0.4375 0.4742305 0.4176707 0.457441 0.3438777 0.4686223 0.4181827 0.4375 0.4176707 0.457441 0.3644467 0.4811232 0.3549718 0.4767607 0.4182675 0.5265841 0.3644467 0.4811232 0.418317 0.473384 0.4181828 0.5625 0.4375 0.5431829 0.4375001 0.5625 0.4007695 0.5625 0.4175589 0.5426707 0.4181828 0.5625 0.3492305 0.5625001 0.401616 0.543317 0.4007695 0.5625 0.4175589 0.5426707 0.4375001 0.5257697 0.4375 0.5431829 0.4175589 0.5426707 0.4004149 0.5294301 0.4182675 0.5265841 0.3484159 0.5432675 0.4004149 0.5294301 0.401616 0.543317 0.3455699 0.52943 0.3644467 0.4811232 0.4004149 0.5294301 0.6681829 0.5625 0.6875 0.5431827 0.6875 0.5625 0.6507695 0.5625 0.667559 0.5426707 0.6681829 0.5625 0.5992305 0.5625001 0.6516158 0.543317 0.6507695 0.5625 0.667559 0.5426707 0.6563777 0.4688777 0.6875 0.5431827 0.667559 0.5426707 0.6438767 0.4894467 0.6482393 0.4799718 0.598416 0.5432675 0.6438767 0.4894467 0.6516158 0.543317 0.5625 0.5431828 0.5818172 0.5625 0.5625001 0.5625001 0.5625 0.5257695 0.5823292 0.542559 0.5625 0.5431828 0.5625 0.4742305 0.5816829 0.5266159 0.5625 0.5257695 0.5823292 0.542559 0.5992305 0.5625001 0.5818172 0.5625 0.5823292 0.542559 0.5955699 0.5254148 0.598416 0.5432675 0.5817325 0.473416 0.5955699 0.5254148 0.5816829 0.5266159 0.5818172 0.4375 0.5625 0.4568172 0.5625001 0.4375 0.5992304 0.4375 0.582441 0.4573292 0.5818172 0.4375 0.6563777 0.4688777 0.598384 0.4566829 0.5992304 0.4375 0.582441 0.4573292 0.5625 0.4742305 0.5625 0.4568172 0.582441 0.4573292 0.5955699 0.4705699 0.5817325 0.473416 0.6482393 0.4799718 0.5955699 0.4705699 0.598384 0.4566829 0.6438767 0.4894467 0.5955699 0.5254148 0.5955699 0.4705699 0.1875 0.6875001 0.1681828 0.5625 0.1875 0.5625001 0.1681828 0.6875 0.1507695 0.5625001 0.1681828 0.5625 0.1507695 0.6875001 0.125 0.5625 0.1507695 0.5625001 0.375 0.0625 0.4181828 0.1875 0.375 0.1875 0.4181829 0.0625 0.4375 0.1875 0.4181828 0.1875 0.4375 0.9375 0.5625 0.9568172 0.4375 0.9568172 0.5625 0.9568172 0.4375 1 0.4375 0.9568172 0.4375 0 0.5625 0.02576953 0.4375001 0.02576953 0.5625 0.02576953 0.4375 0.04318279 0.4375001 0.02576953 0.4375 0.04318279 0.5625 0.0625 0.4375001 0.0625 0.8125001 0.5625001 0.8318174 0.6875 0.8125001 0.6875001 0.8318171 0.5625 0.875 0.6875 0.8318174 0.6875 0.625 0.1875 0.5992305 0.0625 0.625 0.0625 0.5992304 0.1875 0.5818172 0.0625 0.5992305 0.0625 0.5818172 0.1875 0.5625 0.0625 0.5818172 0.0625 0.5625 0.3125 0.4374999 0.2931828 0.5625001 0.2931828 0.4374999 0.2931828 0.5625 0.2757695 0.5625001 0.2931828 0.5625 0.2757695 0.4375 0.2242304 0.5625 0.2242304 0.4375 0.2242304 0.5625 0.2068171 0.5625 0.2242304 0.5625 0.2068171 0.4375 0.1875 0.5625001 0.1875 0.1875 0.5625001 0.3125 0.5431828 0.3125 0.5625001 0.1875 0.5431827 0.3125 0.5257695 0.3125 0.5431828 0.1875 0.5257696 0.3438777 0.4686223 0.3125 0.5257695 0.375 0.3125 0.4181827 0.4375 0.3438777 0.4686223 0.4181828 0.3125 0.4375 0.4375 0.4181827 0.4375 0.6875 0.5625 0.8125 0.5431828 0.8125001 0.5625001 0.6875 0.5431827 0.8125 0.5 0.8125 0.5431828 0.6563777 0.4688777 0.5992305 0.3125 0.625 0.3125 0.5992304 0.4375 0.5818172 0.3125 0.5992305 0.3125 0.5818172 0.4375 0.5625 0.3125 0.5818172 0.3125 0.5625001 0.5625001 0.4375 0.5431829 0.5625 0.5431828 0.4375 0.5431829 0.5625 0.5257695 0.5625 0.5431828 0.5625 0.5257695 0.4375 0.4742305 0.5625 0.4742305 0.4375 0.4742305 0.5625 0.4568172 0.5625 0.4742305 0.5625 0.4568172 0.4375 0.4375 0.5625001 0.4375 0.3125 0.5625001 0.3318172 0.6875 0.3125001 0.6875001 0.3318172 0.5625001 0.3492305 0.6875 0.3318172 0.6875 0.3492305 0.5625001 0.4007696 0.6875001 0.3492305 0.6875 0.4007695 0.5625 0.4181828 0.6875 0.4007696 0.6875001 0.4181828 0.5625 0.4375 0.6875001 0.4181828 0.6875 0.6875 0.6875 0.6681829 0.5625 0.6875 0.5625 0.6681827 0.6875 0.6507695 0.5625 0.6681829 0.5625 0.6507696 0.6875001 0.5992305 0.5625001 0.6507695 0.5625 0.5992304 0.6875 0.5818172 0.5625 0.5992305 0.5625001 0.5818172 0.6875001 0.5625001 0.5625001 0.5818172 0.5625 0.5625 0.8125 0.4375 0.7931828 0.5625 0.7931827 0.4375 0.7931828 0.5625 0.7757695 0.5625 0.7931827 0.5625 0.7757695 0.4375 0.7242305 0.5625 0.7242304 0.4375 0.7242305 0.5625 0.7068172 0.5625 0.7242304 0.5625 0.7068172 0.4375 0.6875001 0.5625 0.6875001 0.3125001 0.6875001 0.1875 0.7068172 0.1875 0.6875001 0.3125 0.7068172 0.1875 0.7242305 0.1875 0.7068172 0.3125 0.7242305 0.1875 0.75 0.1875 0.7242305 0.3438605 0.7813605 0.4181827 0.9375 0.375 0.9375 0.4181828 0.8124999 0.4375 0.9375 0.4181827 0.9375 0.8125001 0.6875001 0.6875001 0.7068172 0.6875 0.6875 0.8125001 0.7068172 0.6563604 0.7811396 0.6875001 0.7068172 0.625 0.9375 0.5992305 0.8125001 0.6563604 0.7811396 0.5992304 0.9375001 0.5818172 0.8125 0.5992305 0.8125001 0.5818172 0.9375001 0.5625 0.8125 0.5818172 0.8125 0.3125 0.5625001 0.1875 0.6875001 0.1875 0.5625001 0.5625 0.0625 0.4375 0.1875 0.4375001 0.0625 0.5625 0.8125 0.4375 0.9375 0.4375001 0.8125001 0.8125001 0.5625001 0.6875 0.6875 0.6875 0.5625 0.5625 0.3125 0.4375 0.4375 0.4375001 0.3125 0.5625001 0.5625001 0.4375 0.6875001 0.4375001 0.5625 0.1875 0.7068172 0.1676707 0.707441 0.1681828 0.6875 0.1875 0.7242305 0.168317 0.7233842 0.1676707 0.707441 0.1875 0.75 0.1682674 0.7500001 0.168317 0.7233842 0.1676707 0.707441 0.151584 0.7067324 0.1507695 0.6875001 0.1676707 0.707441 0.168317 0.7233842 0.15443 0.7205699 0.1682674 0.7500001 0.1544301 0.75 0.15443 0.7205699 0.4375 0.9568172 0.4176708 0.9574411 0.4181827 0.9375 0.4375 1 0.418317 1 0.4176708 0.9574411 0.4375001 0.02576953 0.4182675 0.02658402 0.418317 0 0.4176708 0.9574411 0.375 0.9567325 0.375 0.9375 0.4176708 0.9574411 0.418317 1 0.375 0.9705699 0.4182675 0.02658402 0.375 0.02943009 0.375 0 0.4181829 0.0625 0.4175589 0.04267072 0.4375 0.04318279 0.375 0.0625 0.375 0.04331701 0.4175589 0.04267072 0.1507695 0.6875001 0.151584 0.7067324 0.125 0.706683 0.4175589 0.04267072 0.4182675 0.02658402 0.4375001 0.02576953 0.4175589 0.04267072 0.375 0.04331701 0.375 0.02943009 0.151584 0.7067324 0.15443 0.7205699 0.125 0.72057 0.5818172 0.9375001 0.582441 0.9573292 0.5625 0.9568172 0.5992304 0.9375001 0.598384 0.956683 0.582441 0.9573292 0.625 0.9375 0.625 0.9567326 0.598384 0.956683 0.582441 0.9573292 0.5817325 1 0.5625001 1 0.582441 0.9573292 0.598384 0.956683 0.5955698 1 0.625 0.9567326 0.625 1 0.5955698 1 0.8318174 0.6875 0.8324409 0.7073292 0.8125001 0.7068172 0.875 0.6875 0.8750001 0.706683 0.8324409 0.7073292 0.5992305 0.0625 0.598416 0.04326748 0.625 0.04331701 0.8324409 0.7073292 0.8317325 0.75 0.8125001 0.7500001 0.8324409 0.7073292 0.8750001 0.706683 0.875 0.7205699 0.598416 0.04326748 0.5955699 0.02943003 0.625 0.02943009 0.5625001 0.04318279 0.5823293 0.04255902 0.5818172 0.0625 0.5625 0.02576953 0.5816829 0.02661591 0.5823293 0.04255902 0.5625 0 0.5817325 0 0.5816829 0.02661591 0.5823293 0.04255902 0.598416 0.04326748 0.5992305 0.0625 0.5823293 0.04255902 0.5816829 0.02661591 0.5955699 0.02943003 0.5817325 0 0.5955699 0 0.5955699 0.02943003 0.1681828 0.5625 0.167559 0.5426707 0.1875 0.5431827 0.1507695 0.5625001 0.1516159 0.543317 0.167559 0.5426707 0.125 0.5625 0.125 0.5432675 0.1516159 0.543317 0.167559 0.5426707 0.1682675 0.5265841 0.1875 0.5257696 0.167559 0.5426707 0.1516159 0.543317 0.15443 0.52943 0.125 0.5432675 0.125 0.5294301 0.15443 0.52943 0.4375 0.2068172 0.4176707 0.2074409 0.4181828 0.1875 0.4375 0.2242304 0.418317 0.223384 0.4176707 0.2074409 0.4375 0.2757696 0.4182675 0.276584 0.418317 0.223384 0.4176707 0.2074409 0.375 0.2067325 0.375 0.1875 0.4176707 0.2074409 0.418317 0.223384 0.375 0.2205699 0.4182675 0.276584 0.375 0.2794301 0.375 0.2205699 0.4181828 0.3125 0.417559 0.2926707 0.4374999 0.2931828 0.375 0.3125 0.375 0.293317 0.417559 0.2926707 0.1875 0.5257696 0.1682675 0.5265841 0.168317 0.5 0.417559 0.2926707 0.4182675 0.276584 0.4375 0.2757696 0.417559 0.2926707 0.375 0.293317 0.375 0.2794301 0.1682675 0.5265841 0.15443 0.52943 0.1544301 0.5 0.8125 0.5431828 0.8323294 0.5425591 0.8318171 0.5625 0.8125 0.5 0.831683 0.5 0.8323294 0.5425591 0.5992305 0.3125 0.5984159 0.2932675 0.625 0.293317 0.8323294 0.5425591 0.875 0.5432674 0.875 0.5625001 0.8323294 0.5425591 0.831683 0.5 0.875 0.5294301 0.5984159 0.2932675 0.59557 0.2754148 0.625 0.2334489 0.5625001 0.2931828 0.5823292 0.292559 0.5818172 0.3125 0.5625 0.2757695 0.5816829 0.276616 0.5823292 0.292559 0.5625 0.2242304 0.5817325 0.2234159 0.5816829 0.276616 0.5823292 0.292559 0.5984159 0.2932675 0.5992305 0.3125 0.5823292 0.292559 0.5816829 0.276616 0.59557 0.2754148 0.5817325 0.2234159 0.59557 0.2205699 0.59557 0.2754148 0.5818172 0.1875 0.582441 0.2073292 0.5625 0.2068171 0.5992304 0.1875 0.598384 0.2066829 0.582441 0.2073292 0.625 0.1875 0.625 0.2067325 0.598384 0.2066829 0.582441 0.2073292 0.5817325 0.2234159 0.5625 0.2242304 0.582441 0.2073292 0.598384 0.2066829 0.59557 0.2205699 0.625 0.2067325 0.625 0.2334489 0.59557 0.2205699 0.3318172 0.6875 0.332441 0.7073293 0.3125 0.7068172 0.3492305 0.6875 0.348384 0.706683 0.332441 0.7073293 0.4007696 0.6875001 0.401584 0.7067324 0.348384 0.706683 0.332441 0.7073293 0.3317325 0.7234159 0.3125 0.7242305 0.332441 0.7073293 0.348384 0.706683 0.34557 0.7205699 0.401584 0.7067324 0.4004149 0.7205699 0.34557 0.7205699 0.4375 0.7068172 0.4176708 0.707441 0.4181828 0.6875 0.4375 0.7242305 0.418317 0.723384 0.4176708 0.707441 0.4375 0.7757697 0.4182675 0.7765841 0.418317 0.723384 0.4176708 0.707441 0.401584 0.7067324 0.4007696 0.6875001 0.4176708 0.707441 0.418317 0.723384 0.4004149 0.7205699 0.4182675 0.7765841 0.3644467 0.7688769 0.4004149 0.7205699 0.4181828 0.8124999 0.417559 0.7926707 0.4375 0.7931828 0.3438605 0.7813605 0.3548973 0.7732144 0.417559 0.7926707 0.3125 0.7242305 0.3317325 0.7234159 0.3548973 0.7732144 0.417559 0.7926707 0.4182675 0.7765841 0.4375 0.7757697 0.417559 0.7926707 0.3548973 0.7732144 0.3644467 0.7688769 0.3317325 0.7234159 0.34557 0.7205699 0.3644467 0.7688769 0.6875001 0.7068172 0.6676707 0.7074409 0.6681827 0.6875 0.6563604 0.7811396 0.6482144 0.7701026 0.6676707 0.7074409 0.5992305 0.8125001 0.598416 0.7932674 0.6482144 0.7701026 0.6676707 0.7074409 0.651584 0.7067325 0.6507696 0.6875001 0.6676707 0.7074409 0.6482144 0.7701026 0.6438767 0.7605533 0.598416 0.7932674 0.59557 0.7794301 0.6438767 0.7605533 0.5625 0.7931827 0.5823293 0.792559 0.5818172 0.8125 0.5625 0.7757695 0.5816829 0.7766159 0.5823293 0.792559 0.5625 0.7242304 0.5817325 0.723416 0.5816829 0.7766159 0.5823293 0.792559 0.598416 0.7932674 0.5992305 0.8125001 0.5823293 0.792559 0.5816829 0.7766159 0.59557 0.7794301 0.5817325 0.723416 0.5955699 0.7245851 0.59557 0.7794301 0.5818172 0.6875001 0.582441 0.7073293 0.5625 0.7068172 0.5992304 0.6875 0.5983841 0.706683 0.582441 0.7073293 0.6507696 0.6875001 0.651584 0.7067325 0.5983841 0.706683 0.582441 0.7073293 0.5817325 0.723416 0.5625 0.7242304 0.582441 0.7073293 0.5983841 0.706683 0.5955699 0.7245851 0.651584 0.7067325 0.6438767 0.7605533 0.5955699 0.7245851 0.3125 0.5431828 0.3323292 0.542559 0.3318172 0.5625001 0.3125 0.5257695 0.331683 0.526616 0.3323292 0.542559 0.3438777 0.4686223 0.3549718 0.4767607 0.331683 0.526616 0.3323292 0.542559 0.3484159 0.5432675 0.3492305 0.5625001 0.3323292 0.542559 0.331683 0.526616 0.3455699 0.52943 0.3549718 0.4767607 0.3644467 0.4811232 0.3455699 0.52943 0.4375 0.4568171 0.4176707 0.457441 0.4181827 0.4375 0.4375 0.4742305 0.418317 0.473384 0.4176707 0.457441 0.4375001 0.5257697 0.4182675 0.5265841 0.418317 0.473384 0.4176707 0.457441 0.3549718 0.4767607 0.3438777 0.4686223 0.4176707 0.457441 0.418317 0.473384 0.3644467 0.4811232 0.4182675 0.5265841 0.4004149 0.5294301 0.3644467 0.4811232 0.4181828 0.5625 0.4175589 0.5426707 0.4375 0.5431829 0.4007695 0.5625 0.401616 0.543317 0.4175589 0.5426707 0.3492305 0.5625001 0.3484159 0.5432675 0.401616 0.543317 0.4175589 0.5426707 0.4182675 0.5265841 0.4375001 0.5257697 0.4175589 0.5426707 0.401616 0.543317 0.4004149 0.5294301 0.3484159 0.5432675 0.3455699 0.52943 0.4004149 0.5294301 0.6681829 0.5625 0.667559 0.5426707 0.6875 0.5431827 0.6507695 0.5625 0.6516158 0.543317 0.667559 0.5426707 0.5992305 0.5625001 0.598416 0.5432675 0.6516158 0.543317 0.667559 0.5426707 0.6482393 0.4799718 0.6563777 0.4688777 0.667559 0.5426707 0.6516158 0.543317 0.6438767 0.4894467 0.598416 0.5432675 0.5955699 0.5254148 0.6438767 0.4894467 0.5625 0.5431828 0.5823292 0.542559 0.5818172 0.5625 0.5625 0.5257695 0.5816829 0.5266159 0.5823292 0.542559 0.5625 0.4742305 0.5817325 0.473416 0.5816829 0.5266159 0.5823292 0.542559 0.598416 0.5432675 0.5992305 0.5625001 0.5823292 0.542559 0.5816829 0.5266159 0.5955699 0.5254148 0.5817325 0.473416 0.5955699 0.4705699 0.5955699 0.5254148 0.5818172 0.4375 0.582441 0.4573292 0.5625 0.4568172 0.5992304 0.4375 0.598384 0.4566829 0.582441 0.4573292 0.6563777 0.4688777 0.6482393 0.4799718 0.598384 0.4566829 0.582441 0.4573292 0.5817325 0.473416 0.5625 0.4742305 0.582441 0.4573292 0.598384 0.4566829 0.5955699 0.4705699 0.6482393 0.4799718 0.6438767 0.4894467 0.5955699 0.4705699 0.1875 0.6875001 0.1681828 0.6875 0.1681828 0.5625 0.1681828 0.6875 0.1507695 0.6875001 0.1507695 0.5625001 0.1507695 0.6875001 0.125 0.6875 0.125 0.5625 0.375 0.0625 0.4181829 0.0625 0.4181828 0.1875 0.4181829 0.0625 0.4375001 0.0625 0.4375 0.1875 0.4375 0.9375 0.5625 0.9375 0.5625 0.9568172 0.5625 0.9568172 0.5625001 1 0.4375 1 0.4375 0 0.5625 0 0.5625 0.02576953 0.5625 0.02576953 0.5625001 0.04318279 0.4375 0.04318279 0.4375 0.04318279 0.5625001 0.04318279 0.5625 0.0625 0.8125001 0.5625001 0.8318171 0.5625 0.8318174 0.6875 0.8318171 0.5625 0.875 0.5625001 0.875 0.6875 0.625 0.1875 0.5992304 0.1875 0.5992305 0.0625 0.5992304 0.1875 0.5818172 0.1875 0.5818172 0.0625 0.5818172 0.1875 0.5625001 0.1875 0.5625 0.0625 0.5625 0.3125 0.4375001 0.3125 0.4374999 0.2931828 0.4374999 0.2931828 0.4375 0.2757696 0.5625 0.2757695 0.5625 0.2757695 0.4375 0.2757696 0.4375 0.2242304 0.4375 0.2242304 0.4375 0.2068172 0.5625 0.2068171 0.5625 0.2068171 0.4375 0.2068172 0.4375 0.1875 0.1875 0.5625001 0.1875 0.5431827 0.3125 0.5431828 0.1875 0.5431827 0.1875 0.5257696 0.3125 0.5257695 0.1875 0.5257696 0.1875 0.5 0.3438777 0.4686223 0.375 0.3125 0.4181828 0.3125 0.4181827 0.4375 0.4181828 0.3125 0.4375001 0.3125 0.4375 0.4375 0.6875 0.5625 0.6875 0.5431827 0.8125 0.5431828 0.6875 0.5431827 0.6563777 0.4688777 0.8125 0.5 0.6563777 0.4688777 0.5992304 0.4375 0.5992305 0.3125 0.5992304 0.4375 0.5818172 0.4375 0.5818172 0.3125 0.5818172 0.4375 0.5625001 0.4375 0.5625 0.3125 0.5625001 0.5625001 0.4375001 0.5625 0.4375 0.5431829 0.4375 0.5431829 0.4375001 0.5257697 0.5625 0.5257695 0.5625 0.5257695 0.4375001 0.5257697 0.4375 0.4742305 0.4375 0.4742305 0.4375 0.4568171 0.5625 0.4568172 0.5625 0.4568172 0.4375 0.4568171 0.4375 0.4375 0.3125 0.5625001 0.3318172 0.5625001 0.3318172 0.6875 0.3318172 0.5625001 0.3492305 0.5625001 0.3492305 0.6875 0.3492305 0.5625001 0.4007695 0.5625 0.4007696 0.6875001 0.4007695 0.5625 0.4181828 0.5625 0.4181828 0.6875 0.4181828 0.5625 0.4375001 0.5625 0.4375 0.6875001 0.6875 0.6875 0.6681827 0.6875 0.6681829 0.5625 0.6681827 0.6875 0.6507696 0.6875001 0.6507695 0.5625 0.6507696 0.6875001 0.5992304 0.6875 0.5992305 0.5625001 0.5992304 0.6875 0.5818172 0.6875001 0.5818172 0.5625 0.5818172 0.6875001 0.5625 0.6875001 0.5625001 0.5625001 0.5625 0.8125 0.4375001 0.8125001 0.4375 0.7931828 0.4375 0.7931828 0.4375 0.7757697 0.5625 0.7757695 0.5625 0.7757695 0.4375 0.7757697 0.4375 0.7242305 0.4375 0.7242305 0.4375 0.7068172 0.5625 0.7068172 0.5625 0.7068172 0.4375 0.7068172 0.4375 0.6875001 0.3125001 0.6875001 0.3125 0.7068172 0.1875 0.7068172 0.3125 0.7068172 0.3125 0.7242305 0.1875 0.7242305 0.3125 0.7242305 0.3438605 0.7813605 0.1875 0.75 0.3438605 0.7813605 0.4181828 0.8124999 0.4181827 0.9375 0.4181828 0.8124999 0.4375001 0.8125001 0.4375 0.9375 0.8125001 0.6875001 0.8125001 0.7068172 0.6875001 0.7068172 0.8125001 0.7068172 0.8125001 0.7500001 0.6563604 0.7811396 0.625 0.9375 0.5992304 0.9375001 0.5992305 0.8125001 0.5992304 0.9375001 0.5818172 0.9375001 0.5818172 0.8125 0.5818172 0.9375001 0.5625 0.9375 0.5625 0.8125 0.3125 0.5625001 0.3125001 0.6875001 0.1875 0.6875001 0.5625 0.0625 0.5625001 0.1875 0.4375 0.1875 0.5625 0.8125 0.5625 0.9375 0.4375 0.9375 0.8125001 0.5625001 0.8125001 0.6875001 0.6875 0.6875 0.5625 0.3125 0.5625001 0.4375 0.4375 0.4375 0.5625001 0.5625001 0.5625 0.6875001 0.4375 0.6875001</float_array>
          <technique_common>
            <accessor source="#Cube_005-mesh-map-0-array" count="1284" stride="2">
              <param name="S" type="float"/>
              <param name="T" type="float"/>
            </accessor>
          </technique_common>
        </source>
        <vertices id="Cube_005-mesh-vertices">
          <input semantic="POSITION" source="#Cube_005-mesh-positions"/>
        </vertices>
        <triangles material="Material_004-material" count="428">
          <input semantic="VERTEX" source="#Cube_005-mesh-vertices" offset="0"/>
          <input semantic="NORMAL" source="#Cube_005-mesh-normals" offset="1"/>
          <input semantic="TEXCOORD" source="#Cube_005-mesh-map-0" offset="2" set="0"/>
          <p>3 0 0 5 0 1 0 0 2 4 1 3 6 1 4 3 1 5 16 2 6 7 2 7 4 2 8 6 3 9 8 3 10 5 3 11 6 4 12 10 4 13 9 4 14 17 5 15 10 5 16 7 5 17 11 6 18 13 6 19 1 6 20 12 7 21 14 7 22 11 7 23 24 8 24 15 8 25 12 8 26 14 9 27 16 9 28 13 9 29 14 10 30 18 10 31 17 10 32 25 11 33 18 11 34 15 11 35 19 12 36 21 12 37 2 12 38 20 13 39 22 13 40 19 13 41 8 14 42 23 14 43 20 14 44 22 15 45 24 15 46 21 15 47 22 16 48 26 16 49 25 16 50 9 17 51 26 17 52 23 17 53 10 18 54 18 18 55 26 18 56 30 19 57 32 19 58 27 19 59 31 20 60 33 20 61 30 20 62 43 21 63 34 21 64 31 21 65 33 22 66 35 22 67 32 22 68 33 23 69 37 23 70 36 23 71 44 24 72 37 24 73 34 24 74 38 25 75 40 25 76 28 25 77 39 26 78 41 26 79 38 26 80 51 27 81 42 27 82 39 27 83 41 28 84 43 28 85 40 28 86 41 29 87 45 29 88 44 29 89 52 30 90 45 30 91 42 30 92 46 31 93 48 31 94 29 31 95 47 32 96 49 32 97 46 32 98 35 33 99 50 33 100 47 33 101 49 34 102 51 34 103 48 34 104 49 35 105 53 35 106 52 35 107 36 36 108 53 36 109 50 36 110 37 37 111 45 37 112 53 37 113 57 38 114 59 38 115 54 38 116 58 39 117 60 39 118 57 39 119 70 40 120 61 40 121 58 40 122 60 41 123 62 41 124 59 41 125 60 42 126 64 42 127 63 42 128 71 43 129 64 43 130 61 43 131 65 44 132 67 44 133 55 44 134 66 45 135 68 45 136 65 45 137 78 46 138 69 46 139 66 46 140 68 47 141 70 47 142 67 47 143 68 48 144 72 48 145 71 48 146 79 49 147 72 49 148 69 49 149 73 50 150 75 50 151 56 50 152 74 51 153 76 51 154 73 51 155 62 52 156 77 52 157 74 52 158 76 53 159 78 53 160 75 53 161 76 54 162 80 54 163 79 54 164 63 55 165 80 55 166 77 55 167 64 56 168 72 56 169 80 56 170 84 57 171 86 57 172 81 57 173 85 58 174 87 58 175 84 58 176 97 59 177 88 59 178 85 59 179 87 60 180 89 60 181 86 60 182 87 61 183 91 61 184 90 61 185 98 62 186 91 62 187 88 62 188 92 63 189 94 63 190 82 63 191 93 64 192 95 64 193 92 64 194 105 65 195 96 65 196 93 65 197 95 66 198 97 66 199 94 66 200 95 67 201 99 67 202 98 67 203 106 68 204 99 68 205 96 68 206 100 69 207 102 69 208 83 69 209 101 70 210 103 70 211 100 70 212 89 71 213 104 71 214 101 71 215 103 72 216 105 72 217 102 72 218 103 73 219 107 73 220 106 73 221 90 74 222 107 74 223 104 74 224 91 75 225 99 75 226 107 75 227 111 76 228 113 76 229 108 76 230 112 77 231 114 77 232 111 77 233 124 78 234 115 78 235 112 78 236 114 79 237 116 79 238 113 79 239 114 80 240 118 80 241 117 80 242 125 81 243 118 81 244 115 81 245 119 82 246 121 82 247 109 82 248 120 83 249 122 83 250 119 83 251 132 84 252 123 84 253 120 84 254 122 85 255 124 85 256 121 85 257 122 86 258 126 86 259 125 86 260 133 87 261 126 87 262 123 87 263 127 88 264 129 88 265 110 88 266 128 89 267 130 89 268 127 89 269 116 90 270 131 90 271 128 90 272 130 91 273 132 91 274 129 91 275 130 92 276 134 92 277 133 92 278 117 93 279 134 93 280 131 93 281 118 94 282 126 94 283 134 94 284 138 95 285 140 95 286 135 95 287 139 96 288 141 96 289 138 96 290 151 97 291 142 97 292 139 97 293 141 98 294 143 98 295 140 98 296 141 99 297 145 99 298 144 99 299 152 100 300 145 100 301 142 100 302 146 101 303 148 101 304 136 101 305 147 102 306 149 102 307 146 102 308 159 103 309 150 103 310 147 103 311 149 104 312 151 104 313 148 104 314 149 105 315 153 105 316 152 105 317 160 106 318 153 106 319 150 106 320 154 107 321 156 107 322 137 107 323 155 108 324 157 108 325 154 108 326 143 109 327 158 109 328 155 109 329 157 110 330 159 110 331 156 110 332 157 111 333 161 111 334 160 111 335 144 112 336 161 112 337 158 112 338 145 113 339 153 113 340 161 113 341 165 114 342 167 114 343 162 114 344 166 115 345 168 115 346 165 115 347 178 116 348 169 116 349 166 116 350 168 117 351 170 117 352 167 117 353 168 118 354 172 118 355 171 118 356 179 119 357 172 119 358 169 119 359 173 120 360 175 120 361 163 120 362 174 121 363 176 121 364 173 121 365 186 122 366 177 122 367 174 122 368 176 123 369 178 123 370 175 123 371 176 124 372 180 124 373 179 124 374 187 125 375 180 125 376 177 125 377 181 126 378 183 126 379 164 126 380 182 127 381 184 127 382 181 127 383 170 128 384 185 128 385 182 128 386 184 129 387 186 129 388 183 129 389 184 130 390 188 130 391 187 130 392 171 131 393 188 131 394 185 131 395 172 132 396 180 132 397 188 132 398 192 133 399 194 133 400 189 133 401 193 134 402 195 134 403 192 134 404 205 135 405 196 135 406 193 135 407 195 136 408 197 136 409 194 136 410 195 137 411 199 137 412 198 137 413 206 138 414 199 138 415 196 138 416 200 139 417 202 139 418 190 139 419 201 140 420 203 140 421 200 140 422 213 141 423 204 141 424 201 141 425 203 142 426 205 142 427 202 142 428 203 143 429 207 143 430 206 143 431 214 144 432 207 144 433 204 144 434 208 145 435 210 145 436 191 145 437 209 146 438 211 146 439 208 146 440 197 147 441 212 147 442 209 147 443 211 148 444 213 148 445 210 148 446 211 149 447 215 149 448 214 149 449 198 150 450 215 150 451 212 150 452 199 151 453 207 151 454 215 151 455 0 152 456 57 152 457 54 152 458 5 153 459 58 153 460 57 153 461 8 154 462 70 154 463 58 154 464 20 155 465 67 155 466 70 155 467 19 156 468 55 156 469 67 156 470 1 157 471 32 157 472 11 157 473 32 158 474 12 158 475 11 158 476 12 159 477 47 159 478 24 159 479 47 160 480 21 160 481 24 160 482 21 161 483 29 161 484 2 161 485 81 162 486 38 162 487 28 162 488 86 163 489 39 163 490 38 163 491 89 164 492 51 164 493 39 164 494 101 165 495 48 165 496 51 165 497 100 166 498 29 166 499 48 166 500 82 167 501 75 167 502 92 167 503 75 168 504 93 168 505 92 168 506 93 169 507 66 169 508 105 169 509 66 170 510 102 170 511 105 170 512 102 171 513 55 171 514 83 171 515 54 172 516 165 172 517 162 172 518 59 173 519 166 173 520 165 173 521 62 174 522 178 174 523 166 174 524 74 175 525 175 175 526 178 175 527 73 176 528 163 176 529 175 176 530 189 177 531 84 177 532 81 177 533 194 178 534 85 178 535 84 178 536 197 179 537 97 179 538 85 179 539 209 180 540 94 180 541 97 180 542 208 181 543 82 181 544 94 181 545 190 182 546 183 182 547 200 182 548 183 183 549 201 183 550 200 183 551 201 184 552 174 184 553 213 184 554 174 185 555 210 185 556 213 185 557 210 186 558 163 186 559 191 186 560 162 187 561 111 187 562 108 187 563 167 188 564 112 188 565 111 188 566 170 189 567 124 189 568 112 189 569 182 190 570 121 190 571 124 190 572 181 191 573 109 191 574 121 191 575 135 192 576 192 192 577 189 192 578 140 193 579 193 193 580 192 193 581 143 194 582 205 194 583 193 194 584 155 195 585 202 195 586 205 195 587 154 196 588 190 196 589 202 196 590 136 197 591 129 197 592 146 197 593 129 198 594 147 198 595 146 198 596 147 199 597 120 199 598 159 199 599 120 200 600 156 200 601 159 200 602 156 201 603 109 201 604 137 201 605 108 202 606 3 202 607 0 202 608 113 203 609 4 203 610 3 203 611 116 204 612 16 204 613 4 204 614 128 205 615 13 205 616 16 205 617 127 206 618 1 206 619 13 206 620 28 207 621 138 207 622 135 207 623 40 208 624 139 208 625 138 208 626 43 209 627 151 209 628 139 209 629 31 210 630 148 210 631 151 210 632 30 211 633 136 211 634 148 211 635 162 212 636 0 212 637 54 212 638 29 213 639 55 213 640 2 213 641 136 214 642 1 214 643 110 214 644 81 215 645 135 215 646 189 215 647 82 216 648 163 216 649 56 216 650 190 217 651 109 217 652 164 217 653 3 218 654 6 218 655 5 218 656 4 219 657 7 219 658 6 219 659 16 220 660 17 220 661 7 220 662 6 221 663 9 221 664 8 221 665 6 222 666 7 222 667 10 222 668 17 223 669 18 223 670 10 223 671 11 224 672 14 224 673 13 224 674 12 225 675 15 225 676 14 225 677 24 226 678 25 226 679 15 226 680 14 227 681 17 227 682 16 227 683 14 228 684 15 228 685 18 228 686 25 229 687 26 229 688 18 229 689 19 230 690 22 230 691 21 230 692 20 231 693 23 231 694 22 231 695 8 232 696 9 232 697 23 232 698 22 233 699 25 233 700 24 233 701 22 234 702 23 234 703 26 234 704 9 235 705 10 235 706 26 235 707 30 236 708 33 236 709 32 236 710 31 237 711 34 237 712 33 237 713 43 238 714 44 238 715 34 238 716 33 239 717 36 239 718 35 239 719 33 240 720 34 240 721 37 240 722 44 241 723 45 241 724 37 241 725 38 242 726 41 242 727 40 242 728 39 243 729 42 243 730 41 243 731 51 244 732 52 244 733 42 244 734 41 245 735 44 245 736 43 245 737 41 246 738 42 246 739 45 246 740 52 247 741 53 247 742 45 247 743 46 248 744 49 248 745 48 248 746 47 249 747 50 249 748 49 249 749 35 250 750 36 250 751 50 250 752 49 251 753 52 251 754 51 251 755 49 252 756 50 252 757 53 252 758 36 253 759 37 253 760 53 253 761 57 254 762 60 254 763 59 254 764 58 255 765 61 255 766 60 255 767 70 256 768 71 256 769 61 256 770 60 257 771 63 257 772 62 257 773 60 258 774 61 258 775 64 258 776 71 259 777 72 259 778 64 259 779 65 260 780 68 260 781 67 260 782 66 261 783 69 261 784 68 261 785 78 262 786 79 262 787 69 262 788 68 263 789 71 263 790 70 263 791 68 264 792 69 264 793 72 264 794 79 265 795 80 265 796 72 265 797 73 266 798 76 266 799 75 266 800 74 267 801 77 267 802 76 267 803 62 268 804 63 268 805 77 268 806 76 269 807 79 269 808 78 269 809 76 270 810 77 270 811 80 270 812 63 271 813 64 271 814 80 271 815 84 272 816 87 272 817 86 272 818 85 273 819 88 273 820 87 273 821 97 274 822 98 274 823 88 274 824 87 275 825 90 275 826 89 275 827 87 276 828 88 276 829 91 276 830 98 277 831 99 277 832 91 277 833 92 278 834 95 278 835 94 278 836 93 279 837 96 279 838 95 279 839 105 280 840 106 280 841 96 280 842 95 281 843 98 281 844 97 281 845 95 282 846 96 282 847 99 282 848 106 283 849 107 283 850 99 283 851 100 284 852 103 284 853 102 284 854 101 285 855 104 285 856 103 285 857 89 286 858 90 286 859 104 286 860 103 287 861 106 287 862 105 287 863 103 288 864 104 288 865 107 288 866 90 289 867 91 289 868 107 289 869 111 290 870 114 290 871 113 290 872 112 291 873 115 291 874 114 291 875 124 292 876 125 292 877 115 292 878 114 293 879 117 293 880 116 293 881 114 294 882 115 294 883 118 294 884 125 295 885 126 295 886 118 295 887 119 296 888 122 296 889 121 296 890 120 297 891 123 297 892 122 297 893 132 298 894 133 298 895 123 298 896 122 299 897 125 299 898 124 299 899 122 300 900 123 300 901 126 300 902 133 301 903 134 301 904 126 301 905 127 302 906 130 302 907 129 302 908 128 303 909 131 303 910 130 303 911 116 304 912 117 304 913 131 304 914 130 305 915 133 305 916 132 305 917 130 306 918 131 306 919 134 306 920 117 307 921 118 307 922 134 307 923 138 308 924 141 308 925 140 308 926 139 309 927 142 309 928 141 309 929 151 310 930 152 310 931 142 310 932 141 311 933 144 311 934 143 311 935 141 312 936 142 312 937 145 312 938 152 313 939 153 313 940 145 313 941 146 314 942 149 314 943 148 314 944 147 315 945 150 315 946 149 315 947 159 316 948 160 316 949 150 316 950 149 317 951 152 317 952 151 317 953 149 318 954 150 318 955 153 318 956 160 319 957 161 319 958 153 319 959 154 320 960 157 320 961 156 320 962 155 321 963 158 321 964 157 321 965 143 322 966 144 322 967 158 322 968 157 323 969 160 323 970 159 323 971 157 324 972 158 324 973 161 324 974 144 325 975 145 325 976 161 325 977 165 326 978 168 326 979 167 326 980 166 327 981 169 327 982 168 327 983 178 328 984 179 328 985 169 328 986 168 329 987 171 329 988 170 329 989 168 330 990 169 330 991 172 330 992 179 331 993 180 331 994 172 331 995 173 332 996 176 332 997 175 332 998 174 333 999 177 333 1000 176 333 1001 186 334 1002 187 334 1003 177 334 1004 176 335 1005 179 335 1006 178 335 1007 176 336 1008 177 336 1009 180 336 1010 187 337 1011 188 337 1012 180 337 1013 181 338 1014 184 338 1015 183 338 1016 182 339 1017 185 339 1018 184 339 1019 170 340 1020 171 340 1021 185 340 1022 184 341 1023 187 341 1024 186 341 1025 184 342 1026 185 342 1027 188 342 1028 171 343 1029 172 343 1030 188 343 1031 192 344 1032 195 344 1033 194 344 1034 193 345 1035 196 345 1036 195 345 1037 205 346 1038 206 346 1039 196 346 1040 195 347 1041 198 347 1042 197 347 1043 195 348 1044 196 348 1045 199 348 1046 206 349 1047 207 349 1048 199 349 1049 200 350 1050 203 350 1051 202 350 1052 201 351 1053 204 351 1054 203 351 1055 213 352 1056 214 352 1057 204 352 1058 203 353 1059 206 353 1060 205 353 1061 203 354 1062 204 354 1063 207 354 1064 214 355 1065 215 355 1066 207 355 1067 208 356 1068 211 356 1069 210 356 1070 209 357 1071 212 357 1072 211 357 1073 197 358 1074 198 358 1075 212 358 1076 211 359 1077 214 359 1078 213 359 1079 211 360 1080 212 360 1081 215 360 1082 198 361 1083 199 361 1084 215 361 1085 0 362 1086 5 362 1087 57 362 1088 5 363 1089 8 363 1090 58 363 1091 8 364 1092 20 364 1093 70 364 1094 20 365 1095 19 365 1096 67 365 1097 19 366 1098 2 366 1099 55 366 1100 1 367 1101 27 367 1102 32 367 1103 32 368 1104 35 368 1105 12 368 1106 12 369 1107 35 369 1108 47 369 1109 47 370 1110 46 370 1111 21 370 1112 21 371 1113 46 371 1114 29 371 1115 81 372 1116 86 372 1117 38 372 1118 86 373 1119 89 373 1120 39 373 1121 89 374 1122 101 374 1123 51 374 1124 101 375 1125 100 375 1126 48 375 1127 100 376 1128 83 376 1129 29 376 1130 82 377 1131 56 377 1132 75 377 1133 75 378 1134 78 378 1135 93 378 1136 93 379 1137 78 379 1138 66 379 1139 66 380 1140 65 380 1141 102 380 1142 102 381 1143 65 381 1144 55 381 1145 54 382 1146 59 382 1147 165 382 1148 59 383 1149 62 383 1150 166 383 1151 62 384 1152 74 384 1153 178 384 1154 74 385 1155 73 385 1156 175 385 1157 73 386 1158 56 386 1159 163 386 1160 189 387 1161 194 387 1162 84 387 1163 194 388 1164 197 388 1165 85 388 1166 197 389 1167 209 389 1168 97 389 1169 209 390 1170 208 390 1171 94 390 1172 208 391 1173 191 391 1174 82 391 1175 190 392 1176 164 392 1177 183 392 1178 183 393 1179 186 393 1180 201 393 1181 201 394 1182 186 394 1183 174 394 1184 174 395 1185 173 395 1186 210 395 1187 210 396 1188 173 396 1189 163 396 1190 162 397 1191 167 397 1192 111 397 1193 167 398 1194 170 398 1195 112 398 1196 170 399 1197 182 399 1198 124 399 1199 182 400 1200 181 400 1201 121 400 1202 181 401 1203 164 401 1204 109 401 1205 135 402 1206 140 402 1207 192 402 1208 140 403 1209 143 403 1210 193 403 1211 143 404 1212 155 404 1213 205 404 1214 155 405 1215 154 405 1216 202 405 1217 154 406 1218 137 406 1219 190 406 1220 136 407 1221 110 407 1222 129 407 1223 129 408 1224 132 408 1225 147 408 1226 147 409 1227 132 409 1228 120 409 1229 120 410 1230 119 410 1231 156 410 1232 156 411 1233 119 411 1234 109 411 1235 108 412 1236 113 412 1237 3 412 1238 113 413 1239 116 413 1240 4 413 1241 116 414 1242 128 414 1243 16 414 1244 128 415 1245 127 415 1246 13 415 1247 127 416 1248 110 416 1249 1 416 1250 28 417 1251 40 417 1252 138 417 1253 40 418 1254 43 418 1255 139 418 1256 43 419 1257 31 419 1258 151 419 1259 31 420 1260 30 420 1261 148 420 1262 30 421 1263 27 421 1264 136 421 1265 162 422 1266 108 422 1267 0 422 1268 29 423 1269 83 423 1270 55 423 1271 136 424 1272 27 424 1273 1 424 1274 81 425 1275 28 425 1276 135 425 1277 82 426 1278 191 426 1279 163 426 1280 190 427 1281 137 427 1282 109 427 1283</p>
        </triangles>
      </mesh>
    </geometry>
  </library_geometries>
  <library_visual_scenes>
    <visual_scene id="Scene" name="Scene">
      <node id="Cube_004" name="Cube.004" type="NODE">
        <matrix sid="transform">0.57 0 0 0 0 0 -0.03 0 0 0.4075 0 0 0 0 0 1</matrix>
        <instance_geometry url="#Cube_005-mesh" name="Cube.004">
          <bind_material>
            <technique_common>
              <instance_material symbol="Material_004-material" target="#Material_004-material">
                <bind_vertex_input semantic="UVMap" input_semantic="TEXCOORD" input_set="0"/>
              </instance_material>
            </technique_common>
          </bind_material>
        </instance_geometry>
      </node>
    </visual_scene>
  </library_visual_scenes>
  <scene>
    <instance_visual_scene url="#Scene"/>
  </scene>
</COLLADA>