<?xml version="1.0" encoding="utf-8"?>
<COLLADA xmlns="http://www.collada.org/2005/11/COLLADASchema" version="1.4.1" xmlns:xsi="http://www.w3.org/2001/XMLSchema-instance">
  <asset>
    <contributor>
      <author>Blender User</author>
      <authoring_tool>Blender 4.5.10 LTS commit date:2026-05-18, commit time:13:28, hash:6dc0b208d1b5</authoring_tool>
    </contributor>
    <created>2026-06-18T01:25:28</created>
    <modified>2026-06-18T01:25:28</modified>
    <unit name="meter" meter="1"/>
    <up_axis>Z_UP</up_axis>
  </asset>
  <library_effects>
    <effect id="Material_003-effect">
      <profile_COMMON>
        <technique sid="common">
          <lambert>
            <emission>
              <color sid="emission">0 0 0 1</color>
            </emission>
            <diffuse>
              <color sid="diffuse">0.3 0.3 0.3 1</color>
            </diffuse>
            <index_of_refraction>
              <float sid="ior">1.5</float>
            </index_of_refraction>
          </lambert>
        </technique>
      </profile_COMMON>
    </effect>
  </library_effects>
  <library_images/>
  <library_materials>
    <material id="Material_003-material" name="Material.003">
      <instance_effect url="#Material_003-effect"/>
    </material>
  </library_materials>
  <library_geometries>
    <geometry id="Cube_014-mesh" name="Cube.014">
      <mesh>
        <source id="Cube_014-mesh-positions">
          <float_array id="Cube_014-mesh-positions-array" count="96">-0.4999222 0.06573855 -1.230797 -0.6544307 0.04126679 -1.230797 -0.4999222 0.06573855 0.2692027 -0.6544597 0.0412575 0.2692027 -0.4999222 0.04125744 0.42374 -0.6594499 0.01226532 0.4278367 -0.4999222 -0.02971726 0.5630462 -0.6537823 -0.05509138 0.5565303 0.5000778 0.06573855 -1.230797 0.6545863 0.04126679 -1.230797 0.5000778 0.06573855 0.2692027 0.5000778 0.0412575 0.4237401 0.5000778 -0.02971732 0.5630462 0.6546151 0.04125744 0.2692027 0.6587118 0.01226532 0.4287304 0.6535415 -0.05473756 0.556275 -0.4959989 0.01589274 -1.230797 -0.6389799 -0.006286025 -1.230797 -0.495913 0.01606106 0.2651933 -0.6390451 -0.006137907 0.2651948 -0.4958996 -0.006134152 0.4083175 -0.644063 -0.03276681 0.4124956 -0.4961339 -0.07007914 0.533779 -0.63949 -0.0936141 0.5280394 0.4961545 0.01589274 -1.230797 0.6391355 -0.006286025 -1.230797 0.4960687 0.01606106 0.2651933 0.49607 -0.006137907 0.4083255 0.4963065 -0.07007306 0.5337684 0.6391926 -0.006134152 0.2651801 0.6433707 -0.03276681 0.4133434 0.6392702 -0.09327429 0.5277925</float_array>
          <technique_common>
            <accessor source="#Cube_014-mesh-positions-array" count="32" stride="3">
              <param name="X" type="float"/>
              <param name="Y" type="float"/>
              <param name="Z" type="float"/>
            </accessor>
          </technique_common>
        </source>
        <source id="Cube_014-mesh-normals">
          <float_array id="Cube_014-mesh-normals-array" count="126">-0.1545832 0.9758114 0.1545837 -0.1486051 0.881127 0.4489228 0.1545837 0.9758114 0.1545832 0.1469505 0.8813469 0.4490358 -0.1564639 0.9876837 3.10092e-6 0 0.8910204 0.4539634 0 0.9876836 0.1564644 0.1564644 0.9876836 3.15273e-6 0.1514916 -0.976781 -0.1514901 0.1457966 -0.8815414 -0.4490302 -0.1514902 -0.976781 -0.1514917 -0.144104 -0.8817631 -0.4491411 0.153262 -0.9881855 1.02394e-4 6.26516e-7 -0.8909525 -0.4540965 -2.50688e-6 -0.9881856 -0.1532618 -0.1532837 -0.9881823 1.06172e-4 0 -1 1.12516e-4 0 0 -1 0 0 -1 0 0 -1 0 1 0 -0.171873 0.9700098 0.1718736 -0.1632759 0.871123 0.4631261 0.1718736 0.9700098 0.1718731 0.162446 0.8707928 0.4640379 -0.1564345 0.9876883 0 0 0.89102 0.4539641 0 0.9876836 0.1564639 0.1564345 0.9876883 0 0.1697121 -0.9707703 -0.1697137 0.1615282 -0.8705393 -0.4648333 -0.1697137 -0.9707704 -0.1697121 -0.1606895 -0.8701748 -0.4658055 0.1532837 -0.9881822 1.04515e-4 2.83569e-7 -0.8909514 -0.4540987 0 -0.9881883 -0.1532449 -0.1532452 -0.9881882 1.02395e-4 0 -1 1.12516e-4 0 0 -1 0 0 -1 0 0 -1 0 1 0</float_array>
          <technique_common>
            <accessor source="#Cube_014-mesh-normals-array" count="42" stride="3">
              <param name="X" type="float"/>
              <param name="Y" type="float"/>
              <param name="Z" type="float"/>
            </accessor>
          </technique_common>
        </source>
        <source id="Cube_014-mesh-map-0">
          <float_array id="Cube_014-mesh-map-0-array" count="252">0.5625001 0.2931828 0.5818172 0.3125 0.5625 0.3125 0.5823293 0.292559 0.5992305 0.3125 0.5818172 0.3125 0.5818172 0.4375 0.5625 0.4568171 0.5625001 0.4375001 0.5992304 0.4375 0.5824411 0.4573293 0.5818172 0.4375 0.5625 0.3125 0.375 0.2931864 0.5625001 0.2931828 0.5992304 0.4375 0.5818172 0.3125 0.5992305 0.3125 0.5818172 0.4375 0.5625 0.3125 0.5818172 0.3125 0.375 0.4568136 0.5625001 0.4375001 0.5625 0.4568171 0.5818172 0.3125 0.5625001 0.2931828 0.5625 0.3125 0.5992305 0.3125 0.5823293 0.292559 0.5818172 0.3125 0.5625 0.4568171 0.5818172 0.4375 0.5625001 0.4375001 0.5824411 0.4573293 0.5992304 0.4375 0.5818172 0.4375 0.5625001 0.2931828 0.375 0.3125 0.5625 0.3125 0.5992305 0.3125 0.5818172 0.4375 0.5992304 0.4375 0.5818172 0.3125 0.5625001 0.4375001 0.5818172 0.4375 0.5625 0.4568171 0.375 0.4375 0.375 0.4568136 0.375 0.4375 0.5625 0.3125 0.375 0.3125 0.375 0.3125 0.375 0.2931864 0.375 0.2931864 0.375 0.4375 0.375 0.4568136 0.375 0.4375 0.375 0.4375 0.375 0.3125 0.375 0.3125 0.5625 0.3125 0.5625001 0.4375001 0.375 0.4375 0.5625001 0.2931828 0.5823293 0.292559 0.5818172 0.3125 0.5823293 0.292559 0.598416 0.2932675 0.5992305 0.3125 0.5818172 0.4375 0.5824411 0.4573293 0.5625 0.4568171 0.5992304 0.4375 0.598384 0.4566829 0.5824411 0.4573293 0.5625 0.3125 0.375 0.3125 0.375 0.2931864 0.5992304 0.4375 0.5818172 0.4375 0.5818172 0.3125 0.5818172 0.4375 0.5625001 0.4375001 0.5625 0.3125 0.375 0.4568136 0.375 0.4375 0.5625001 0.4375001 0.5818172 0.3125 0.5823293 0.292559 0.5625001 0.2931828 0.5992305 0.3125 0.598416 0.2932675 0.5823293 0.292559 0.5625 0.4568171 0.5824411 0.4573293 0.5818172 0.4375 0.5824411 0.4573293 0.598384 0.4566829 0.5992304 0.4375 0.5625001 0.2931828 0.375 0.2931864 0.375 0.3125 0.5992305 0.3125 0.5818172 0.3125 0.5818172 0.4375 0.5818172 0.3125 0.5625 0.3125 0.5625001 0.4375001 0.5625 0.4568171 0.5625001 0.4375001 0.375 0.4375 0.375 0.4375 0.5625001 0.4375001 0.5625 0.3125 0.375 0.3125 0.375 0.3125 0.375 0.2931864 0.375 0.4375 0.375 0.4568136 0.375 0.4568136 0.375 0.4375 0.375 0.4375 0.375 0.3125 0.375 0.4375 0.375 0.3125 0.5625 0.3125</float_array>
          <technique_common>
            <accessor source="#Cube_014-mesh-map-0-array" count="126" stride="2">
              <param name="S" type="float"/>
              <param name="T" type="float"/>
            </accessor>
          </technique_common>
        </source>
        <vertices id="Cube_014-mesh-vertices">
          <input semantic="POSITION" source="#Cube_014-mesh-positions"/>
        </vertices>
        <triangles material="Material_003-material" count="42">
          <input semantic="VERTEX" source="#Cube_014-mesh-vertices" offset="0"/>
          <input semantic="NORMAL" source="#Cube_014-mesh-normals" offset="1"/>
          <input semantic="TEXCOORD" source="#Cube_014-mesh-map-0" offset="2" set="0"/>
          <p>3 0 0 4 0 1 2 0 2 5 1 3 6 1 4 4 1 5 11 2 6 13 2 7 10 2 8 12 3 9 14 3 10 11 3 11 2 4 12 1 4 13 3 4 14 12 5 15 4 5 16 6 5 17 11 6 18 2 6 19 4 6 20 9 7 21 10 7 22 13 7 23 20 8 24 19 8 25 18 8 26 22 9 27 21 9 28 20 9 29 29 10 30 27 10 31 26 10 32 30 11 33 28 11 34 27 11 35 19 12 36 16 12 37 18 12 38 22 13 39 27 13 40 28 13 41 20 14 42 26 14 43 27 14 44 29 15 45 24 15 46 25 15 47 24 16 48 18 16 49 16 16 50 0 17 51 17 17 52 1 17 53 8 18 54 25 18 55 24 18 56 8 19 57 16 19 58 0 19 59 2 20 60 10 20 61 8 20 62 3 21 63 5 21 64 4 21 65 5 22 66 7 22 67 6 22 68 11 23 69 14 23 70 13 23 71 12 24 72 15 24 73 14 24 74 2 25 75 0 25 76 1 25 77 12 26 78 11 26 79 4 26 80 11 27 81 10 27 82 2 27 83 9 28 84 8 28 85 10 28 86 20 29 87 21 29 88 19 29 89 22 30 90 23 30 91 21 30 92 29 31 93 30 31 94 27 31 95 30 32 96 31 32 97 28 32 98 19 33 99 17 33 100 16 33 101 22 34 102 20 34 103 27 34 104 20 35 105 18 35 106 26 35 107 29 36 108 26 36 109 24 36 110 24 37 111 26 37 112 18 37 113 0 38 114 16 38 115 17 38 116 8 39 117 9 39 118 25 39 119 8 40 120 24 40 121 16 40 122 8 41 123 0 41 124 2 41 125</p>
        </triangles>
      </mesh>
    </geometry>
  </library_geometries>
  <library_visual_scenes>
    <visual_scene id="Scene" name="Scene">
      <node id="Cube_011" name="Cube.011" type="NODE">
        <matrix sid="transform">0.5725 0 0 -4.46141e-5 0 0 -0.1 0.0656631 0 0.4075 0 0.3807116 0 0 0 1</matrix>
        <instance_geometry url="#Cube_014-mesh" name="Cube.011">
          <bind_material>
            <technique_common>
              <instance_material symbol="Material_003-material" target="#Material_003-material">
                <bind_vertex_input semantic="UVMap" input_semantic="TEXCOORD" input_set="0"/>
              </instance_material>
            </technique_common>
          </bind_material>
        </instance_geometry>
      </node>
    </visual_scene>
  </library_visual_scenes>
  <scene>
    <instance_visual_scene url="#Scene"/>
  </scene>
</COLLADA>