<?xml version="1.0" encoding="utf-8"?>
<COLLADA xmlns="http://www.collada.org/2005/11/COLLADASchema" version="1.4.1" xmlns:xsi="http://www.w3.org/2001/XMLSchema-instance">
  <asset>
    <contributor>
      <author>Blender User</author>
      <authoring_tool>Blender 4.4.0 commit date:2025-03-17, commit time:17:00, hash:05377985c527</authoring_tool>
    </contributor>
    <created>2026-07-15T17:13:01</created>
    <modified>2026-07-15T17:13:01</modified>
    <unit name="meter" meter="1"/>
    <up_axis>Z_UP</up_axis>
  </asset>
  <library_effects/>
  <library_images/>
  <library_geometries>
    <geometry id="Cube_174-mesh" name="Cube.174">
      <mesh>
        <source id="Cube_174-mesh-positions">
          <float_array id="Cube_174-mesh-positions-array" count="288">-2 -0.9999981 -0.9999995 -2 -0.9999981 1 -2 1.000002 -0.9999995 -2 1.000002 1 -1.19209e-7 -0.9999981 -0.9999995 -1.19209e-7 -0.9999981 1 -1.19209e-7 1.000002 -0.9999995 -1.19209e-7 1.000002 1 -2 -15 -0.9999995 -2 -15 1 -2 -13 -0.9999995 -2 -13 1 -2.26494e-7 -15 -0.9999995 -2.26494e-7 -15 1 -2.26494e-7 -13 -0.9999995 -2.26494e-7 -13 1 -1.699998 -1 0.008726477 -1.699998 -13 0.008726477 -1.670665 -1 0.9840089 -1.670665 -13 0.9840089 -1.584815 -1 1.921476 -1.584815 -13 1.921476 -1.445748 -1 2.785103 -1.445748 -13 2.785103 -1.258807 -1 3.541699 -1.258807 -13 3.541699 -1.031177 -1 4.162189 -1.031177 -13 4.162189 -0.7716056 -1 4.622729 -0.7716056 -13 4.622729 -0.4900675 -0.9999995 4.905621 -0.4900674 -13 4.905621 -0.1973822 -0.9999995 4.999992 -0.1973822 -13 4.999992 0.09520238 -0.9999995 4.902216 0.09520244 -13 4.902216 0.3764426 -0.9999991 4.616051 0.3764426 -13 4.616051 0.6355306 -0.9999991 4.152493 0.6355306 -13 4.152493 0.8625095 -0.9999991 3.529358 0.8625095 -13 3.529358 1.048657 -0.9999991 2.770591 1.048657 -13 2.770591 1.186819 -0.9999991 1.905351 1.186819 -13 1.905351 1.271686 -0.9999991 0.96689 1.271686 -13 0.96689 1.299997 -0.9999991 -0.008728086 1.299997 -13 -0.008728086 1.270665 -0.9999991 -0.9840109 1.270665 -13 -0.9840109 1.184815 -0.9999991 -1.921478 1.184815 -13 -1.921478 1.045747 -0.9999991 -2.785105 1.045747 -13 -2.785105 0.8588065 -0.9999991 -3.541701 0.8588065 -13 -3.541701 0.6311763 -0.9999991 -4.162191 0.6311763 -13 -4.162191 0.3716043 -0.9999991 -4.622731 0.3716043 -13 -4.622731 0.09006595 -0.9999995 -4.905622 0.09006601 -13 -4.905622 -0.2026194 -0.9999995 -4.999992 -0.2026194 -13 -4.999992 -0.4952043 -0.9999995 -4.902215 -0.4952042 -13 -4.902215 -0.7764445 -1 -4.616049 -0.7764445 -13 -4.616049 -1.035532 -1 -4.15249 -1.035532 -13 -4.15249 -1.262511 -1 -3.529353 -1.262511 -13 -3.529353 -1.448658 -1 -2.770585 -1.448658 -13 -2.770585 -1.58682 -1 -1.905345 -1.58682 -13 -1.905345 -1.671687 -1 -0.9668837 -1.671687 -13 -0.9668837 -1.199999 -26 -1 -1.999999 -26 -1 -1.199999 -15 -1 -1.999999 -15 -1 -1.199999 -26 1 -1.999999 -26 1 -1.199999 -15 1 -1.999999 -15 1 -1.199999 1.000001 -1 -1.999999 1.000001 -1 -1.199999 12 -1 -1.999999 12 -1 -1.199999 1.000001 1 -1.999999 1.000001 1 -1.199999 12 1 -1.999999 12 1</float_array>
          <technique_common>
            <accessor source="#Cube_174-mesh-positions-array" count="96" stride="3">
              <param name="X" type="float"/>
              <param name="Y" type="float"/>
              <param name="Z" type="float"/>
            </accessor>
          </technique_common>
        </source>
        <source id="Cube_174-mesh-normals">
          <float_array id="Cube_174-mesh-normals-array" count="516">-1 0 0 0 1 0 1 0 0 0 -1 0 0 0 -1 0 0 1 -1 0 0 0 1 0 1 0 0 0 -1 0 0 0 -1 0 0 1 -0.999548 0 0.03006255 -0.9958331 0 0.09119451 -0.9872819 0 0.1589792 -0.9708055 0 0.2398678 -0.9388192 0 0.3444103 -0.8711566 0 0.4910053 -0.7088 0 0.7054095 -0.3068753 0 0.9517497 0.316949 0 0.9484426 0.7132175 0 0.7009428 0.8729106 0 0.4878802 0.9396073 0 0.3422545 0.9712006 0 0.2382633 0.9874897 0 0.1576831 0.9959359 0 0.09006482 0.9995792 0 0.02900654 0.999548 0 -0.03006267 0.9958331 0 -0.09119462 0.9872819 0 -0.1589793 0.9708055 0 -0.2398681 0.9388191 0 -0.3444108 0.8711563 0 -0.4910058 0.7087985 0 -0.705411 0.3068723 0 -0.9517507 -0.316953 0 -0.9484413 -0.7132188 0 -0.7009416 -0.8729112 0 -0.4878791 -0.9396076 0 -0.3422538 -0.9712008 0 -0.2382627 -0.9874898 0 -0.1576826 4.48922e-7 -1 0 -0.9959359 0 -0.0900644 -0.9995792 0 -0.02900642 -3.44404e-7 1 0 1.49012e-7 0 -1 0 1 0 -1.49012e-7 0 1 0 -1 0 1 0 0 -1 0 0 1.49012e-7 0 -1 0 1 0 -1.49012e-7 0 1 0 -1 0 1 0 0 -1 0 0 -1 0 0 0 1 0 1 0 0 0 -1 0 0 0 -1 0 0 1 -1 0 0 0 1 0 1 0 0 0 -1 0 0 0 -1 0 0 1 -0.999548 0 0.03006255 -0.9958331 0 0.09119451 -0.9872819 0 0.1589792 -0.9708055 0 0.2398678 -0.9388192 0 0.3444103 -0.8711566 0 0.4910053 -0.7088 0 0.7054096 -0.3068753 0 0.9517497 0.316949 0 0.9484426 0.7132176 0 0.7009427 0.8729106 0 0.4878802 0.9396073 0 0.3422545 0.9712006 0 0.2382633 0.9874897 0 0.1576831 0.9959359 0 0.09006482 0.9995792 0 0.02900654 0.999548 0 -0.03006267 0.9958331 0 -0.09119462 0.9872819 0 -0.1589793 0.9708055 0 -0.2398681 0.9388191 0 -0.3444108 0.8711563 0 -0.4910058 0.7087986 0 -0.7054109 0.3068723 0 -0.9517507 -0.316953 0 -0.9484413 -0.7132186 0 -0.7009416 -0.8729112 0 -0.4878791 -0.9396076 0 -0.3422538 -0.9712008 0 -0.2382627 -0.9874898 0 -0.1576826 3.43901e-7 -1 0 3.24063e-7 -1 0 3.17946e-7 -1 0 3.17946e-7 -1 0 3.24291e-7 -1 0 3.439e-7 -1 0 3.44404e-7 -1 0 3.82872e-7 -1 0 3.81967e-7 -1 0 4.50522e-7 -1 1.64104e-7 5.74058e-7 -1 3.20847e-7 5.70971e-7 -1 -2.09464e-7 8.15961e-7 -1 -2.53067e-6 0 -1 0 0 -1 0 8.27975e-7 -1 -4.66668e-7 4.48921e-7 -1 0 3.24063e-7 -1 0 3.2429e-7 -1 0 3.44404e-7 -1 0 3.82872e-7 -1 0 3.81968e-7 -1 0 4.50522e-7 -1 1.64104e-7 5.74057e-7 -1 3.20847e-7 5.70972e-7 -1 -2.09464e-7 8.35468e-7 -1 8.21089e-7 0 -1 0 0 -1 3.35177e-6 8.27977e-7 -1 -4.66668e-7 -0.9959359 0 -0.0900644 -0.9995792 0 -0.02900642 -3.17946e-7 1 0 -3.24063e-7 1 0 -3.43901e-7 1 0 -3.81968e-7 1 0 -3.2429e-7 1 0 -4.48922e-7 1 0 -5.70972e-7 1 2.09464e-7 -8.27977e-7 1 4.66668e-7 0 1 -1.67588e-6 -5.74057e-7 1 -3.20847e-7 0 1 0 -8.2572e-7 1 8.54791e-7 -4.50522e-7 1 -1.64104e-7 -3.82872e-7 1 0 -3.44404e-7 1 0 -3.17946e-7 1 0 -3.24063e-7 1 0 -3.439e-7 1 0 -3.81967e-7 1 0 -3.24291e-7 1 0 -4.48921e-7 1 0 -5.70971e-7 1 2.09464e-7 -8.27975e-7 1 4.66668e-7 0 1 -1.67588e-6 -5.74058e-7 1 -3.20847e-7 0 1 0 -8.25716e-7 1 8.54792e-7 -4.50522e-7 1 -1.64104e-7 -3.82872e-7 1 0 1.49012e-7 0 -1 0 1 0 -1.49012e-7 0 1 0 -1 0 1 0 0 -1 0 0 1.49012e-7 0 -1 0 1 0 -1.49012e-7 0 1 0 -1 0 1 0 0 -1 0 0</float_array>
          <technique_common>
            <accessor source="#Cube_174-mesh-normals-array" count="172" stride="3">
              <param name="X" type="float"/>
              <param name="Y" type="float"/>
              <param name="Z" type="float"/>
            </accessor>
          </technique_common>
        </source>
        <source id="Cube_174-mesh-map-0">
          <float_array id="Cube_174-mesh-map-0-array" count="1032">0.625 0 0.375 0.25 0.375 0 0.625 0.25 0.375 0.5 0.375 0.25 0.625 0.5 0.375 0.75 0.375 0.5 0.625 0.75 0.375 1 0.375 0.75 0.375 0.5 0.125 0.75 0.125 0.5 0.875 0.5 0.625 0.75 0.625 0.5 0.625 0 0.375 0.25 0.375 0 0.625 0.25 0.375 0.5 0.375 0.25 0.625 0.5 0.375 0.75 0.375 0.5 0.625 0.75 0.375 1 0.375 0.75 0.375 0.5 0.125 0.75 0.125 0.5 0.875 0.5 0.625 0.75 0.625 0.5 1 1 0.96875 0.5 1 0.5 0.96875 1 0.9375 0.5 0.96875 0.5 0.9375 1 0.90625 0.5 0.9375 0.5 0.90625 1 0.875 0.5 0.90625 0.5 0.875 1 0.84375 0.5 0.875 0.5 0.84375 1 0.8125 0.5 0.84375 0.5 0.8125 0.5 0.78125 1 0.78125 0.5 0.78125 1 0.75 0.5 0.78125 0.5 0.75 1 0.71875 0.5 0.75 0.5 0.71875 0.5 0.6875 1 0.6875 0.5 0.6875 1 0.65625 0.5 0.6875 0.5 0.65625 1 0.625 0.5 0.65625 0.5 0.625 1 0.59375 0.5 0.625 0.5 0.59375 1 0.5625 0.5 0.59375 0.5 0.5625 1 0.53125 0.5 0.5625 0.5 0.53125 1 0.5 0.5 0.53125 0.5 0.5 1 0.46875 0.5 0.5 0.5 0.46875 1 0.4375 0.5 0.46875 0.5 0.4375 1 0.40625 0.5 0.4375 0.5 0.40625 1 0.375 0.5 0.40625 0.5 0.375 1 0.34375 0.5 0.375 0.5 0.34375 1 0.3125 0.5 0.34375 0.5 0.3125 1 0.28125 0.5 0.3125 0.5 0.28125 1 0.25 0.5 0.28125 0.5 0.25 1 0.21875 0.5 0.25 0.5 0.21875 1 0.1875 0.5 0.21875 0.5 0.1875 1 0.15625 0.5 0.1875 0.5 0.15625 1 0.125 0.5 0.15625 0.5 0.125 1 0.09375 0.5 0.125 0.5 0.09375 1 0.0625 0.5 0.09375 0.5 0.4197056 0.4197056 0.3833369 0.4495527 0.4197056 0.08029437 0.0625 1 0.03125 0.5 0.0625 0.5 0.03125 1 0 0.5 0.03125 0.5 0.6166634 0.4495529 0.6581563 0.4717312 0.6581559 0.02826893 0.625 0 0.375 0.25 0.375 0 0.375 0.25 0.625 0.5 0.375 0.5 0.625 0.5 0.375 0.75 0.375 0.5 0.625 0.75 0.375 1 0.375 0.75 0.375 0.5 0.125 0.75 0.125 0.5 0.875 0.5 0.625 0.75 0.625 0.5 0.625 0 0.375 0.25 0.375 0 0.375 0.25 0.625 0.5 0.375 0.5 0.625 0.5 0.375 0.75 0.375 0.5 0.625 0.75 0.375 1 0.375 0.75 0.375 0.5 0.125 0.75 0.125 0.5 0.875 0.5 0.625 0.75 0.625 0.5 0.625 0 0.625 0.25 0.375 0.25 0.625 0.25 0.625 0.5 0.375 0.5 0.625 0.5 0.625 0.75 0.375 0.75 0.625 0.75 0.625 1 0.375 1 0.375 0.5 0.375 0.75 0.125 0.75 0.875 0.5 0.875 0.75 0.625 0.75 0.625 0 0.625 0.25 0.375 0.25 0.625 0.25 0.625 0.5 0.375 0.5 0.625 0.5 0.625 0.75 0.375 0.75 0.625 0.75 0.625 1 0.375 1 0.375 0.5 0.375 0.75 0.125 0.75 0.875 0.5 0.875 0.75 0.625 0.75 1 1 0.96875 1 0.96875 0.5 0.96875 1 0.9375 1 0.9375 0.5 0.9375 1 0.90625 1 0.90625 0.5 0.90625 1 0.875 1 0.875 0.5 0.875 1 0.84375 1 0.84375 0.5 0.84375 1 0.8125 1 0.8125 0.5 0.8125 0.5 0.8125 1 0.78125 1 0.78125 1 0.75 1 0.75 0.5 0.75 1 0.71875 1 0.71875 0.5 0.71875 0.5 0.71875 1 0.6875 1 0.6875 1 0.65625 1 0.65625 0.5 0.65625 1 0.625 1 0.625 0.5 0.625 1 0.59375 1 0.59375 0.5 0.59375 1 0.5625 1 0.5625 0.5 0.5625 1 0.53125 1 0.53125 0.5 0.53125 1 0.5 1 0.5 0.5 0.5 1 0.46875 1 0.46875 0.5 0.46875 1 0.4375 1 0.4375 0.5 0.4375 1 0.40625 1 0.40625 0.5 0.40625 1 0.375 1 0.375 0.5 0.375 1 0.34375 1 0.34375 0.5 0.34375 1 0.3125 1 0.3125 0.5 0.3125 1 0.28125 1 0.28125 0.5 0.28125 1 0.25 1 0.25 0.5 0.25 1 0.21875 1 0.21875 0.5 0.21875 1 0.1875 1 0.1875 0.5 0.1875 1 0.15625 1 0.15625 0.5 0.15625 1 0.125 1 0.125 0.5 0.125 1 0.09375 1 0.09375 0.5 0.09375 1 0.0625 1 0.0625 0.5 0.341844 0.4717311 0.2968217 0.4853885 0.341844 0.02826887 0.2968217 0.4853885 0.25 0.49 0.2968216 0.01461148 0.2968216 0.01461148 0.25 0.49 0.2499999 0.00999999 0.25 0.49 0.2031787 0.4853885 0.2499999 0.00999999 0.2031787 0.4853885 0.1581563 0.4717312 0.2031782 0.01461154 0.2031782 0.01461154 0.1581563 0.4717312 0.1581559 0.02826893 0.1581563 0.4717312 0.1166634 0.4495529 0.1581559 0.02826893 0.1166634 0.4495529 0.08029454 0.4197058 0.116663 0.05044734 0.1581559 0.02826893 0.1166634 0.4495529 0.116663 0.05044734 0.08029454 0.4197058 0.05044746 0.3833371 0.08029425 0.08029443 0.05044746 0.3833371 0.02826899 0.3418443 0.05044716 0.1166633 0.08029425 0.08029443 0.05044746 0.3833371 0.05044716 0.1166633 0.02826899 0.3418443 0.01461154 0.2968219 0.02826881 0.1581561 0.01461154 0.2968219 0.00999999 0.2500002 0.01461148 0.2031785 0.02826881 0.1581561 0.01461154 0.2968219 0.01461148 0.2031785 0.02826881 0.1581561 0.05044716 0.1166633 0.02826899 0.3418443 0.08029425 0.08029443 0.116663 0.05044734 0.08029454 0.4197058 0.2031782 0.01461154 0.2499999 0.00999999 0.2031787 0.4853885 0.2968216 0.01461148 0.341844 0.02826887 0.2968217 0.4853885 0.341844 0.02826887 0.3833369 0.05044728 0.341844 0.4717311 0.3833369 0.05044728 0.4197056 0.08029437 0.3833369 0.4495527 0.341844 0.4717311 0.3833369 0.05044728 0.3833369 0.4495527 0.4197056 0.08029437 0.4495527 0.1166631 0.4197056 0.4197056 0.4495527 0.1166631 0.4717311 0.158156 0.4495527 0.3833369 0.4197056 0.4197056 0.4495527 0.1166631 0.4495527 0.3833369 0.4717311 0.158156 0.4853885 0.2031783 0.4717311 0.341844 0.4853885 0.2031783 0.49 0.25 0.4853885 0.2968217 0.4717311 0.341844 0.4853885 0.2031783 0.4853885 0.2968217 0.4717311 0.341844 0.4495527 0.3833369 0.4717311 0.158156 0.0625 1 0.03125 1 0.03125 0.5 0.03125 1 0 1 0 0.5 0.7031787 0.4853885 0.75 0.49 0.75 0.00999999 0.75 0.49 0.7968217 0.4853885 0.7968216 0.01461148 0.7968217 0.4853885 0.841844 0.4717311 0.841844 0.02826887 0.841844 0.4717311 0.8833369 0.4495527 0.8833369 0.05044728 0.7968217 0.4853885 0.841844 0.02826887 0.7968216 0.01461148 0.8833369 0.4495527 0.9197056 0.4197056 0.9197056 0.08029437 0.9197056 0.4197056 0.9495527 0.3833369 0.9495527 0.1166631 0.9495527 0.3833369 0.9717311 0.341844 0.9717311 0.158156 0.9717311 0.341844 0.9853885 0.2968217 0.9853885 0.2031783 0.9495527 0.3833369 0.9717311 0.158156 0.9495527 0.1166631 0.9853885 0.2968217 0.99 0.25 0.9853885 0.2031783 0.9853885 0.2031783 0.9717311 0.158156 0.9717311 0.341844 0.9495527 0.1166631 0.9197056 0.08029437 0.9197056 0.4197056 0.9197056 0.08029437 0.8833369 0.05044728 0.8833369 0.4495527 0.8833369 0.05044728 0.841844 0.02826887 0.841844 0.4717311 0.7968216 0.01461148 0.75 0.00999999 0.75 0.49 0.75 0.00999999 0.7031782 0.01461154 0.7031787 0.4853885 0.7031782 0.01461154 0.6581559 0.02826893 0.6581563 0.4717312 0.6581559 0.02826893 0.616663 0.05044734 0.6166634 0.4495529 0.7031782 0.01461154 0.6581563 0.4717312 0.7031787 0.4853885 0.616663 0.05044734 0.5802943 0.08029443 0.5802946 0.4197058 0.5802943 0.08029443 0.5504472 0.1166633 0.5504475 0.3833371 0.5504472 0.1166633 0.5282688 0.1581561 0.5282691 0.3418443 0.5282688 0.1581561 0.5146115 0.2031785 0.5146116 0.2968219 0.5504472 0.1166633 0.5282691 0.3418443 0.5504475 0.3833371 0.5146115 0.2031785 0.51 0.2500002 0.5146116 0.2968219 0.5146116 0.2968219 0.5282691 0.3418443 0.5282688 0.1581561 0.5504475 0.3833371 0.5802946 0.4197058 0.5802943 0.08029443 0.5802946 0.4197058 0.6166634 0.4495529 0.616663 0.05044734 0.625 0 0.625 0.25 0.375 0.25 0.375 0.25 0.625 0.25 0.625 0.5 0.625 0.5 0.625 0.75 0.375 0.75 0.625 0.75 0.625 1 0.375 1 0.375 0.5 0.375 0.75 0.125 0.75 0.875 0.5 0.875 0.75 0.625 0.75 0.625 0 0.625 0.25 0.375 0.25 0.375 0.25 0.625 0.25 0.625 0.5 0.625 0.5 0.625 0.75 0.375 0.75 0.625 0.75 0.625 1 0.375 1 0.375 0.5 0.375 0.75 0.125 0.75 0.875 0.5 0.875 0.75 0.625 0.75</float_array>
          <technique_common>
            <accessor source="#Cube_174-mesh-map-0-array" count="516" stride="2">
              <param name="S" type="float"/>
              <param name="T" type="float"/>
            </accessor>
          </technique_common>
        </source>
        <vertices id="Cube_174-mesh-vertices">
          <input semantic="POSITION" source="#Cube_174-mesh-positions"/>
        </vertices>
        <triangles count="172">
          <input semantic="VERTEX" source="#Cube_174-mesh-vertices" offset="0"/>
          <input semantic="NORMAL" source="#Cube_174-mesh-normals" offset="1"/>
          <input semantic="TEXCOORD" source="#Cube_174-mesh-map-0" offset="2" set="0"/>
          <p>1 0 0 2 0 1 0 0 2 3 1 3 6 1 4 2 1 5 7 2 6 4 2 7 6 2 8 5 3 9 0 3 10 4 3 11 6 4 12 0 4 13 2 4 14 3 5 15 5 5 16 7 5 17 9 6 18 10 6 19 8 6 20 11 7 21 14 7 22 10 7 23 15 8 24 12 8 25 14 8 26 13 9 27 8 9 28 12 9 29 14 10 30 8 10 31 10 10 32 11 11 33 13 11 34 15 11 35 17 12 36 18 12 37 16 12 38 19 13 39 20 13 40 18 13 41 21 14 42 22 14 43 20 14 44 23 15 45 24 15 46 22 15 47 25 16 48 26 16 49 24 16 50 27 17 51 28 17 52 26 17 53 28 18 54 31 18 55 30 18 56 31 19 57 32 19 58 30 19 59 33 20 60 34 20 61 32 20 62 34 21 63 37 21 64 36 21 65 37 22 66 38 22 67 36 22 68 39 23 69 40 23 70 38 23 71 41 24 72 42 24 73 40 24 74 43 25 75 44 25 76 42 25 77 45 26 78 46 26 79 44 26 80 47 27 81 48 27 82 46 27 83 49 28 84 50 28 85 48 28 86 51 29 87 52 29 88 50 29 89 53 30 90 54 30 91 52 30 92 55 31 93 56 31 94 54 31 95 57 32 96 58 32 97 56 32 98 59 33 99 60 33 100 58 33 101 61 34 102 62 34 103 60 34 104 63 35 105 64 35 106 62 35 107 65 36 108 66 36 109 64 36 110 67 37 111 68 37 112 66 37 113 69 38 114 70 38 115 68 38 116 71 39 117 72 39 118 70 39 119 73 40 120 74 40 121 72 40 122 75 41 123 76 41 124 74 41 125 25 42 126 23 42 127 41 42 128 77 43 129 78 43 130 76 43 131 79 44 132 16 44 133 78 44 134 74 45 135 76 45 136 52 45 137 81 46 138 82 46 139 80 46 140 82 47 141 87 47 142 86 47 143 87 48 144 84 48 145 86 48 146 85 49 147 80 49 148 84 49 149 86 50 150 80 50 151 82 50 152 83 51 153 85 51 154 87 51 155 89 52 156 90 52 157 88 52 158 90 53 159 95 53 160 94 53 161 95 54 162 92 54 163 94 54 164 93 55 165 88 55 166 92 55 167 94 56 168 88 56 169 90 56 170 91 57 171 93 57 172 95 57 173 1 58 174 3 58 175 2 58 176 3 59 177 7 59 178 6 59 179 7 60 180 5 60 181 4 60 182 5 61 183 1 61 184 0 61 185 6 62 186 4 62 187 0 62 188 3 63 189 1 63 190 5 63 191 9 64 192 11 64 193 10 64 194 11 65 195 15 65 196 14 65 197 15 66 198 13 66 199 12 66 200 13 67 201 9 67 202 8 67 203 14 68 204 12 68 205 8 68 206 11 69 207 9 69 208 13 69 209 17 70 210 19 70 211 18 70 212 19 71 213 21 71 214 20 71 215 21 72 216 23 72 217 22 72 218 23 73 219 25 73 220 24 73 221 25 74 222 27 74 223 26 74 224 27 75 225 29 75 226 28 75 227 28 76 228 29 76 229 31 76 230 31 77 231 33 77 232 32 77 233 33 78 234 35 78 235 34 78 236 34 79 237 35 79 238 37 79 239 37 80 240 39 80 241 38 80 242 39 81 243 41 81 244 40 81 245 41 82 246 43 82 247 42 82 248 43 83 249 45 83 250 44 83 251 45 84 252 47 84 253 46 84 254 47 85 255 49 85 256 48 85 257 49 86 258 51 86 259 50 86 260 51 87 261 53 87 262 52 87 263 53 88 264 55 88 265 54 88 266 55 89 267 57 89 268 56 89 269 57 90 270 59 90 271 58 90 272 59 91 273 61 91 274 60 91 275 61 92 276 63 92 277 62 92 278 63 93 279 65 93 280 64 93 281 65 94 282 67 94 283 66 94 284 67 95 285 69 95 286 68 95 287 69 96 288 71 96 289 70 96 290 71 97 291 73 97 292 72 97 293 73 98 294 75 98 295 74 98 296 75 99 297 77 99 298 76 99 299 21 100 300 19 100 301 45 100 302 19 101 303 17 101 304 47 101 305 47 102 306 17 102 307 49 102 308 17 103 309 79 103 310 49 103 311 79 104 312 77 104 313 51 104 314 51 105 315 77 105 316 53 105 317 77 106 318 75 106 319 53 106 320 75 107 321 73 107 322 55 107 323 53 108 324 75 108 325 55 108 326 73 109 327 71 109 328 57 109 329 71 110 330 69 110 331 59 110 332 57 111 333 71 111 334 59 111 335 69 112 336 67 112 337 61 112 338 67 113 339 65 113 340 63 113 341 61 114 342 67 114 343 63 114 344 61 115 345 59 115 346 69 115 347 57 116 348 55 116 349 73 116 350 51 117 351 49 117 352 79 117 353 47 118 354 45 118 355 19 118 356 45 119 357 43 119 358 21 119 359 43 120 360 41 120 361 23 120 362 21 121 363 43 121 364 23 121 365 41 122 366 39 122 367 25 122 368 39 123 369 37 123 370 27 123 371 25 124 372 39 124 373 27 124 374 37 125 375 35 125 376 29 125 377 35 126 378 33 126 379 31 126 380 29 127 381 35 127 382 31 127 383 29 128 384 27 128 385 37 128 386 77 129 387 79 129 388 78 129 389 79 130 390 17 130 391 16 130 392 78 131 393 16 131 394 48 131 395 16 132 396 18 132 397 46 132 398 18 133 399 20 133 400 44 133 401 20 134 402 22 134 403 42 134 404 18 135 405 44 135 406 46 135 407 22 136 408 24 136 409 40 136 410 24 137 411 26 137 412 38 137 413 26 138 414 28 138 415 36 138 416 28 139 417 30 139 418 34 139 419 26 140 420 36 140 421 38 140 422 30 141 423 32 141 424 34 141 425 34 142 426 36 142 427 28 142 428 38 143 429 40 143 430 24 143 431 40 144 432 42 144 433 22 144 434 42 145 435 44 145 436 20 145 437 46 146 438 48 146 439 16 146 440 48 147 441 50 147 442 78 147 443 50 148 444 52 148 445 76 148 446 52 149 447 54 149 448 74 149 449 50 150 450 76 150 451 78 150 452 54 151 453 56 151 454 72 151 455 56 152 456 58 152 457 70 152 458 58 153 459 60 153 460 68 153 461 60 154 462 62 154 463 66 154 464 58 155 465 68 155 466 70 155 467 62 156 468 64 156 469 66 156 470 66 157 471 68 157 472 60 157 473 70 158 474 72 158 475 56 158 476 72 159 477 74 159 478 54 159 479 81 160 480 83 160 481 82 160 482 82 161 483 83 161 484 87 161 485 87 162 486 85 162 487 84 162 488 85 163 489 81 163 490 80 163 491 86 164 492 84 164 493 80 164 494 83 165 495 81 165 496 85 165 497 89 166 498 91 166 499 90 166 500 90 167 501 91 167 502 95 167 503 95 168 504 93 168 505 92 168 506 93 169 507 89 169 508 88 169 509 94 170 510 92 170 511 88 170 512 91 171 513 89 171 514 93 171 515</p>
        </triangles>
      </mesh>
    </geometry>
  </library_geometries>
  <library_visual_scenes>
    <visual_scene id="Scene" name="Scene">
      <node id="Cube_162" name="Cube.162" type="NODE">
        <matrix sid="transform">3.7749e-9 -1.62921e-9 0.015 -0.165 -0.05 0 1.13247e-9 -0.1899999 0 -0.005000001 -4.88762e-9 -0.03500004 0 0 0 1</matrix>
        <instance_geometry url="#Cube_174-mesh" name="Cube.162"/>
      </node>
    </visual_scene>
  </library_visual_scenes>
  <scene>
    <instance_visual_scene url="#Scene"/>
  </scene>
</COLLADA>