<?xml version="1.0" encoding="utf-8"?>
<COLLADA xmlns="http://www.collada.org/2005/11/COLLADASchema" version="1.4.1" xmlns:xsi="http://www.w3.org/2001/XMLSchema-instance">
  <asset>
    <contributor>
      <author>Blender User</author>
      <authoring_tool>Blender 4.4.0 commit date:2025-03-17, commit time:17:00, hash:05377985c527</authoring_tool>
    </contributor>
    <created>2026-07-15T17:11:31</created>
    <modified>2026-07-15T17:11:31</modified>
    <unit name="meter" meter="1"/>
    <up_axis>Z_UP</up_axis>
  </asset>
  <library_effects/>
  <library_images/>
  <library_geometries>
    <geometry id="Cube_147-mesh" name="Cube.147">
      <mesh>
        <source id="Cube_147-mesh-positions">
          <float_array id="Cube_147-mesh-positions-array" count="48">-1 -1 -2 -0.3333197 -1 -2 -1 1 -2 1 -1 -2 1 -1 0 1 1 -2 1 1 0 0.3333349 -1 0 0.3333349 1 0 -1 1 -0.8000002 -1 -1 -0.8000002 -0.3333197 1 -2 -0.3333197 1 -0.3999996 -0.3333325 -1 -0.4000001 -0.3333197 1 -1.2 -0.3333261 -1 -1.2</float_array>
          <technique_common>
            <accessor source="#Cube_147-mesh-positions-array" count="16" stride="3">
              <param name="X" type="float"/>
              <param name="Y" type="float"/>
              <param name="Z" type="float"/>
            </accessor>
          </technique_common>
        </source>
        <source id="Cube_147-mesh-normals">
          <float_array id="Cube_147-mesh-normals-array" count="63">-0.5145022 0 0.857489 0 1 0 1 0 0 0 -1 0 0 0 -1 0 0 1 -1 3.21865e-6 -8.04663e-6 -0.5144954 3.10752e-6 0.8574931 0 1 0 0 1 0 0 1 0 1 0 0 0 -1 0 0 -1 0 0 -1 0 0 -1 0 0 0 -1 0 0 -1 0 0 -1 0 0 1 -1 6.4373e-6 0</float_array>
          <technique_common>
            <accessor source="#Cube_147-mesh-normals-array" count="21" stride="3">
              <param name="X" type="float"/>
              <param name="Y" type="float"/>
              <param name="Z" type="float"/>
            </accessor>
          </technique_common>
        </source>
        <source id="Cube_147-mesh-map-0">
          <float_array id="Cube_147-mesh-map-0-array" count="126">0 0 0.625 0.875 0.625 0.375 0.375 0.375 0.625 0.375 0.375 0.5 0.625 0.5 0.375 0.75 0.375 0.5 0 0 0.125 0.75 0.25 0.75 0.25 0.5 0.375 0.75 0.25 0.75 0.625 0.875 0.625 0.5 0.625 0.375 0 0 0 0 0 0 0 0 0 0 0.625 0.875 0.375 0.375 0.375 0.25 0.5 0.25 0.5 0.25 0.625 0.375 0.375 0.375 0.625 0.375 0.625 0.5 0.375 0.5 0.625 0.5 0.625 0.75 0.375 0.75 0.25 0.75 0.375 0.75 0 0 0.375 0.75 0.625 0.75 0.625 0.875 0 0 0.375 0.75 0.625 0.875 0 0 0 0 0.25 0.75 0.125 0.75 0.125 0.5 0.25 0.5 0.25 0.5 0.375 0.5 0.375 0.75 0.25 0.75 0.125 0.75 0.25 0.5 0.625 0.875 0.625 0.75 0.625 0.5 0 0 0 0 0 0</float_array>
          <technique_common>
            <accessor source="#Cube_147-mesh-map-0-array" count="63" stride="2">
              <param name="S" type="float"/>
              <param name="T" type="float"/>
            </accessor>
          </technique_common>
        </source>
        <vertices id="Cube_147-mesh-vertices">
          <input semantic="POSITION" source="#Cube_147-mesh-positions"/>
        </vertices>
        <lines count="1">
          <input semantic="VERTEX" source="#Cube_147-mesh-vertices" offset="0"/>
          <p>9 12</p>
        </lines>
        <triangles count="21">
          <input semantic="VERTEX" source="#Cube_147-mesh-vertices" offset="0"/>
          <input semantic="NORMAL" source="#Cube_147-mesh-normals" offset="1"/>
          <input semantic="TEXCOORD" source="#Cube_147-mesh-map-0" offset="2" set="0"/>
          <p>12 0 0 7 0 1 8 0 2 11 1 3 8 1 4 5 1 5 6 2 6 3 2 7 5 2 8 10 3 9 0 3 10 1 3 11 11 4 12 3 4 13 1 4 14 7 5 15 6 5 16 8 5 17 13 6 18 14 6 19 15 6 20 12 7 21 13 7 22 7 7 23 11 8 24 2 8 25 9 8 26 9 9 27 8 9 28 11 9 29 8 10 30 6 10 31 5 10 32 6 11 33 4 11 34 3 11 35 1 12 36 3 12 37 13 12 38 3 13 39 4 13 40 7 13 41 13 14 42 3 14 43 7 14 44 13 15 45 10 15 46 1 15 47 0 16 48 2 16 49 11 16 50 11 17 51 5 17 52 3 17 53 1 18 54 0 18 55 11 18 56 7 19 57 4 19 58 6 19 59 13 20 60 12 20 61 14 20 62</p>
        </triangles>
      </mesh>
    </geometry>
  </library_geometries>
  <library_visual_scenes>
    <visual_scene id="Scene" name="Scene">
      <node id="Cube_154" name="Cube.154" type="NODE">
        <matrix sid="transform">0.025 0 1.45524e-12 -0.371 -1.45524e-12 1.96295e-8 0.025 5.96046e-8 0 -0.13 3.77489e-9 1.06581e-14 0 0 0 1</matrix>
        <instance_geometry url="#Cube_147-mesh" name="Cube.154"/>
      </node>
    </visual_scene>
  </library_visual_scenes>
  <scene>
    <instance_visual_scene url="#Scene"/>
  </scene>
</COLLADA>