<?xml version="1.0" encoding="utf-8"?>
<COLLADA xmlns="http://www.collada.org/2005/11/COLLADASchema" version="1.4.1" xmlns:xsi="http://www.w3.org/2001/XMLSchema-instance">
  <asset>
    <contributor>
      <author>Blender User</author>
      <authoring_tool>Blender 4.4.0 commit date:2025-03-17, commit time:17:00, hash:05377985c527</authoring_tool>
    </contributor>
    <created>2026-07-15T17:11:19</created>
    <modified>2026-07-15T17:11:19</modified>
    <unit name="meter" meter="1"/>
    <up_axis>Z_UP</up_axis>
  </asset>
  <library_effects/>
  <library_images/>
  <library_geometries>
    <geometry id="Cube_135-mesh" name="Cube.135">
      <mesh>
        <source id="Cube_135-mesh-positions">
          <float_array id="Cube_135-mesh-positions-array" count="96">-1 -1 -2 -1 -1 0 -1 1 -2 -1 1 0 1 -1 -2 1 -1 0 1 1 -2 1 1 0 1.000004 -0.9999975 -0.8666662 1.000004 -0.9999975 -0.1999994 1.000004 -0.3333308 -0.8666662 1.000004 -0.3333308 -0.1999994 21 -0.9999975 -0.8666662 21 -0.9999975 -0.1999994 21 -0.3333308 -0.8666662 21 -0.3333308 -0.1999994 21 -0.9999995 -2 21 -0.9999995 0 21 1 -2 21 1 0 23 -0.9999995 -2 23 -0.9999995 0 23 1 -2 23 1 0 1.000004 -0.999998 -0.1999996 1.000004 -0.999998 3.42727e-7 1.000004 -0.3333312 -0.1999996 1.000004 -0.3333312 3.42727e-7 21 -0.999998 -0.1999996 21 -0.999998 3.42727e-7 21 -0.3333312 -0.1999996 21 -0.3333312 3.42727e-7</float_array>
          <technique_common>
            <accessor source="#Cube_135-mesh-positions-array" count="32" stride="3">
              <param name="X" type="float"/>
              <param name="Y" type="float"/>
              <param name="Z" type="float"/>
            </accessor>
          </technique_common>
        </source>
        <source id="Cube_135-mesh-normals">
          <float_array id="Cube_135-mesh-normals-array" count="144">-1 0 0 0 1 0 1 0 0 0 -1 0 0 0 -1 0 0 1 -1 0 0 0 1 0 1 0 0 0 -1 0 0 0 -1 0 0 1 -1 0 0 0 1 0 1 0 0 0 -1 0 0 0 -1 0 0 1 -1 0 0 0 1 0 1 0 0 0 -1 0 0 0 -1 0 0 1 -1 0 0 0 1 0 1 0 0 0 -1 0 0 0 -1 0 0 1 -1 0 0 0 1 0 1 0 0 0 -1 0 0 0 -1 0 0 1 -1 0 0 0 1 0 1 0 0 0 -1 0 0 0 -1 0 0 1 -1 0 0 0 1 0 1 0 0 0 -1 0 0 0 -1 0 0 1</float_array>
          <technique_common>
            <accessor source="#Cube_135-mesh-normals-array" count="48" stride="3">
              <param name="X" type="float"/>
              <param name="Y" type="float"/>
              <param name="Z" type="float"/>
            </accessor>
          </technique_common>
        </source>
        <source id="Cube_135-mesh-map-0">
          <float_array id="Cube_135-mesh-map-0-array" count="288">0.625 0 0.375 0.25 0.375 0 0.625 0.25 0.375 0.5 0.375 0.25 0.625 0.5 0.375 0.75 0.375 0.5 0.625 0.75 0.375 1 0.375 0.75 0.375 0.5 0.125 0.75 0.125 0.5 0.875 0.5 0.625 0.75 0.625 0.5 0.625 0 0.375 0.25 0.375 0 0.625 0.25 0.375 0.5 0.375 0.25 0.625 0.5 0.375 0.75 0.375 0.5 0.625 0.75 0.375 1 0.375 0.75 0.375 0.5 0.125 0.75 0.125 0.5 0.875 0.5 0.625 0.75 0.625 0.5 0.625 0 0.375 0.25 0.375 0 0.625 0.25 0.375 0.5 0.375 0.25 0.625 0.5 0.375 0.75 0.375 0.5 0.625 0.75 0.375 1 0.375 0.75 0.375 0.5 0.125 0.75 0.125 0.5 0.875 0.5 0.625 0.75 0.625 0.5 0.625 0 0.375 0.25 0.375 0 0.625 0.25 0.375 0.5 0.375 0.25 0.625 0.5 0.375 0.75 0.375 0.5 0.625 0.75 0.375 1 0.375 0.75 0.375 0.5 0.125 0.75 0.125 0.5 0.875 0.5 0.625 0.75 0.625 0.5 0.625 0 0.625 0.25 0.375 0.25 0.625 0.25 0.625 0.5 0.375 0.5 0.625 0.5 0.625 0.75 0.375 0.75 0.625 0.75 0.625 1 0.375 1 0.375 0.5 0.375 0.75 0.125 0.75 0.875 0.5 0.875 0.75 0.625 0.75 0.625 0 0.625 0.25 0.375 0.25 0.625 0.25 0.625 0.5 0.375 0.5 0.625 0.5 0.625 0.75 0.375 0.75 0.625 0.75 0.625 1 0.375 1 0.375 0.5 0.375 0.75 0.125 0.75 0.875 0.5 0.875 0.75 0.625 0.75 0.625 0 0.625 0.25 0.375 0.25 0.625 0.25 0.625 0.5 0.375 0.5 0.625 0.5 0.625 0.75 0.375 0.75 0.625 0.75 0.625 1 0.375 1 0.375 0.5 0.375 0.75 0.125 0.75 0.875 0.5 0.875 0.75 0.625 0.75 0.625 0 0.625 0.25 0.375 0.25 0.625 0.25 0.625 0.5 0.375 0.5 0.625 0.5 0.625 0.75 0.375 0.75 0.625 0.75 0.625 1 0.375 1 0.375 0.5 0.375 0.75 0.125 0.75 0.875 0.5 0.875 0.75 0.625 0.75</float_array>
          <technique_common>
            <accessor source="#Cube_135-mesh-map-0-array" count="144" stride="2">
              <param name="S" type="float"/>
              <param name="T" type="float"/>
            </accessor>
          </technique_common>
        </source>
        <vertices id="Cube_135-mesh-vertices">
          <input semantic="POSITION" source="#Cube_135-mesh-positions"/>
        </vertices>
        <triangles count="48">
          <input semantic="VERTEX" source="#Cube_135-mesh-vertices" offset="0"/>
          <input semantic="NORMAL" source="#Cube_135-mesh-normals" offset="1"/>
          <input semantic="TEXCOORD" source="#Cube_135-mesh-map-0" offset="2" set="0"/>
          <p>1 0 0 2 0 1 0 0 2 3 1 3 6 1 4 2 1 5 7 2 6 4 2 7 6 2 8 5 3 9 0 3 10 4 3 11 6 4 12 0 4 13 2 4 14 3 5 15 5 5 16 7 5 17 9 6 18 10 6 19 8 6 20 11 7 21 14 7 22 10 7 23 15 8 24 12 8 25 14 8 26 13 9 27 8 9 28 12 9 29 14 10 30 8 10 31 10 10 32 11 11 33 13 11 34 15 11 35 17 12 36 18 12 37 16 12 38 19 13 39 22 13 40 18 13 41 23 14 42 20 14 43 22 14 44 21 15 45 16 15 46 20 15 47 22 16 48 16 16 49 18 16 50 19 17 51 21 17 52 23 17 53 25 18 54 26 18 55 24 18 56 27 19 57 30 19 58 26 19 59 31 20 60 28 20 61 30 20 62 29 21 63 24 21 64 28 21 65 30 22 66 24 22 67 26 22 68 27 23 69 29 23 70 31 23 71 1 24 72 3 24 73 2 24 74 3 25 75 7 25 76 6 25 77 7 26 78 5 26 79 4 26 80 5 27 81 1 27 82 0 27 83 6 28 84 4 28 85 0 28 86 3 29 87 1 29 88 5 29 89 9 30 90 11 30 91 10 30 92 11 31 93 15 31 94 14 31 95 15 32 96 13 32 97 12 32 98 13 33 99 9 33 100 8 33 101 14 34 102 12 34 103 8 34 104 11 35 105 9 35 106 13 35 107 17 36 108 19 36 109 18 36 110 19 37 111 23 37 112 22 37 113 23 38 114 21 38 115 20 38 116 21 39 117 17 39 118 16 39 119 22 40 120 20 40 121 16 40 122 19 41 123 17 41 124 21 41 125 25 42 126 27 42 127 26 42 128 27 43 129 31 43 130 30 43 131 31 44 132 29 44 133 28 44 134 29 45 135 25 45 136 24 45 137 30 46 138 28 46 139 24 46 140 27 47 141 25 47 142 29 47 143</p>
        </triangles>
      </mesh>
    </geometry>
  </library_geometries>
  <library_visual_scenes>
    <visual_scene id="Scene" name="Scene">
      <node id="Cube_152" name="Cube.152" type="NODE">
        <matrix sid="transform">0.015 0 8.73142e-12 -0.33 -8.73142e-13 2.26494e-9 0.15 7.45058e-9 0 -0.015 2.26494e-8 -0.11 0 0 0 1</matrix>
        <instance_geometry url="#Cube_135-mesh" name="Cube.152"/>
      </node>
    </visual_scene>
  </library_visual_scenes>
  <scene>
    <instance_visual_scene url="#Scene"/>
  </scene>
</COLLADA>