<?xml version="1.0" encoding="utf-8"?>
<COLLADA xmlns="http://www.collada.org/2005/11/COLLADASchema" version="1.4.1" xmlns:xsi="http://www.w3.org/2001/XMLSchema-instance">
  <asset>
    <contributor>
      <author>Blender User</author>
      <authoring_tool>Blender 4.4.0 commit date:2025-03-17, commit time:17:00, hash:05377985c527</authoring_tool>
    </contributor>
    <created>2026-07-15T17:09:32</created>
    <modified>2026-07-15T17:09:32</modified>
    <unit name="meter" meter="1"/>
    <up_axis>Z_UP</up_axis>
  </asset>
  <library_effects/>
  <library_images/>
  <library_geometries>
    <geometry id="Cube_186-mesh" name="Cube.186">
      <mesh>
        <source id="Cube_186-mesh-positions">
          <float_array id="Cube_186-mesh-positions-array" count="24">-1.526112 1.000001 1.000001 -1.526112 -1.000001 1.000001 -1.513303 1.000001 0.8049106 -1.513303 -1.000001 0.8049106 -1.499446 1 1.04 -1.499446 -1.000001 1.04 -1.486636 1 0.8449096 -1.486636 -1.000001 0.8449096</float_array>
          <technique_common>
            <accessor source="#Cube_186-mesh-positions-array" count="8" stride="3">
              <param name="X" type="float"/>
              <param name="Y" type="float"/>
              <param name="Z" type="float"/>
            </accessor>
          </technique_common>
        </source>
        <source id="Cube_186-mesh-normals">
          <float_array id="Cube_186-mesh-normals-array" count="36">-0.9978513 0 -0.06551951 0.9978513 0 0.06551951 4.06953e-6 -1 2.67208e-7 4.06953e-6 1 2.67208e-7 0.8320431 0 -0.5547111 -0.8320431 0 0.5547111 -0.9978513 0 -0.06551951 0.9978513 0 0.06551951 4.06953e-6 -1 2.67208e-7 4.06953e-6 1 2.67208e-7 0.832043 0 -0.5547111 -0.832043 0 0.5547111</float_array>
          <technique_common>
            <accessor source="#Cube_186-mesh-normals-array" count="12" stride="3">
              <param name="X" type="float"/>
              <param name="Y" type="float"/>
              <param name="Z" type="float"/>
            </accessor>
          </technique_common>
        </source>
        <source id="Cube_186-mesh-map-0">
          <float_array id="Cube_186-mesh-map-0-array" count="72">0.28125 0.73125 0.25 0.76875 0.25 0.73125 0.25 0.76875 0.28125 0.73125 0.25 0.73125 0.28125 0.76875 0.5100001 0.9949999 0.28125 0.76875 0.5100001 0.255 0.28125 0.73125 0.28125 0.73125 0.28125 0.73125 0.28125 0.76875 0.28125 0.73125 0.5100001 0.9949999 0.25 0.73125 0.5100001 0.255 0.28125 0.73125 0.28125 0.76875 0.25 0.76875 0.25 0.76875 0.28125 0.76875 0.28125 0.73125 0.28125 0.76875 0.25 0.76875 0.5100001 0.9949999 0.5100001 0.255 0.25 0.73125 0.28125 0.73125 0.28125 0.73125 0.28125 0.76875 0.28125 0.76875 0.5100001 0.9949999 0.25 0.76875 0.25 0.73125</float_array>
          <technique_common>
            <accessor source="#Cube_186-mesh-map-0-array" count="36" stride="2">
              <param name="S" type="float"/>
              <param name="T" type="float"/>
            </accessor>
          </technique_common>
        </source>
        <vertices id="Cube_186-mesh-vertices">
          <input semantic="POSITION" source="#Cube_186-mesh-positions"/>
        </vertices>
        <triangles count="12">
          <input semantic="VERTEX" source="#Cube_186-mesh-vertices" offset="0"/>
          <input semantic="NORMAL" source="#Cube_186-mesh-normals" offset="1"/>
          <input semantic="TEXCOORD" source="#Cube_186-mesh-map-0" offset="2" set="0"/>
          <p>2 0 0 1 0 1 0 0 2 5 1 3 6 1 4 4 1 5 7 2 6 1 2 7 3 2 8 0 3 9 6 3 10 2 3 11 6 4 12 3 4 13 2 4 14 1 5 15 4 5 16 0 5 17 2 6 18 3 6 19 1 6 20 5 7 21 7 7 22 6 7 23 7 8 24 5 8 25 1 8 26 0 9 27 4 9 28 6 9 29 6 10 30 7 10 31 3 10 32 1 11 33 5 11 34 4 11 35</p>
        </triangles>
      </mesh>
    </geometry>
  </library_geometries>
  <library_visual_scenes>
    <visual_scene id="Scene" name="Scene">
      <node id="Cube_174" name="Cube.174" type="NODE">
        <matrix sid="transform">0.3750001 0 0 -0.5642924 0 -2.66454e-16 -0.25 -0.04000007 0 0.07500001 -8.88178e-16 2.98023e-8 0 0 0 1</matrix>
        <instance_geometry url="#Cube_186-mesh" name="Cube.174"/>
      </node>
    </visual_scene>
  </library_visual_scenes>
  <scene>
    <instance_visual_scene url="#Scene"/>
  </scene>
</COLLADA>