<?xml version="1.0" encoding="utf-8"?>
<COLLADA xmlns="http://www.collada.org/2005/11/COLLADASchema" version="1.4.1" xmlns:xsi="http://www.w3.org/2001/XMLSchema-instance">
  <asset>
    <contributor>
      <author>Blender User</author>
      <authoring_tool>Blender 2.83.20 commit date:2022-04-19, commit time:16:00, hash:a56e2faeb7a9</authoring_tool>
    </contributor>
    <created>2026-06-23T13:10:21</created>
    <modified>2026-06-23T13:10:21</modified>
    <unit name="meter" meter="1"/>
    <up_axis>Z_UP</up_axis>
  </asset>
  <library_effects>
    <effect id="Material_001-effect">
      <profile_COMMON>
        <technique sid="common">
          <lambert>
            <emission>
              <color sid="emission">0 0 0 1</color>
            </emission>
            <diffuse>
              <color sid="diffuse">0.07323896 0.07323896 0.07323896 1</color>
            </diffuse>
            <index_of_refraction>
              <float sid="ior">1.45</float>
            </index_of_refraction>
          </lambert>
        </technique>
      </profile_COMMON>
    </effect>
  </library_effects>
  <library_images/>
  <library_materials>
    <material id="Material_001-material" name="Material.001">
      <instance_effect url="#Material_001-effect"/>
    </material>
  </library_materials>
  <library_geometries>
    <geometry id="Cube_037-mesh" name="Cube.037">
      <mesh>
        <source id="Cube_037-mesh-positions">
          <float_array id="Cube_037-mesh-positions-array" count="186">0.4527769 0.5714287 0.8324038 0.4527769 -0.5714284 0.8324034 0.4574413 0.5714288 0.5644137 0.4574413 -0.5714283 0.5644133 0.4590163 0.5714288 0.2857133 0.4590163 -0.5714283 0.2857128 0.2950819 0.5714288 0.2857146 0.2950819 -0.5714283 0.2857141 0.2966569 0.5714288 0.5644152 0.2966569 -0.5714283 0.5644147 0.3013213 0.5714287 0.8324053 0.3013213 -0.5714284 0.8324049 0.2560558 0.5714287 0.832404 0.2560558 -0.5714284 0.8324035 0.2607203 0.5714288 0.5644139 0.2607203 -0.5714283 0.5644134 0.2622952 0.5714288 0.2857134 0.2622952 -0.5714283 0.285713 0.09836077 0.5714288 0.2857147 0.09836077 -0.5714283 0.2857142 0.09993577 0.5714288 0.5644153 0.09993577 -0.5714283 0.5644148 0.1046002 0.5714287 0.8324055 0.1046002 -0.5714284 0.832405 0.0327869 -0.8 0.1428572 0.0327869 0.8 0.1428572 0.5245902 -0.8 0.1428572 0.5245902 0.8 0.1428572 -1 -1 -1 -1 -1 1 -1 1 -1 -1 1 1 0.9852875 -0.7294251 -1 0.7147126 -1 -1 0.7147126 -1 1 0.9852875 -0.7294251 1 0.7147126 1 -1 0.9852875 0.7294251 -1 0.9852875 0.7294251 1 0.7147126 1 1 0.0327869 0.8 -1 0.5245902 0.8 -1 0.5245902 -0.8 -1 0.0327869 -0.8 -1 0.03278684 0.204618 -1 0.2509159 0.5714287 1 0.1097401 -0.5714284 1 0.2509159 -0.5714284 1 0.1097401 0.5714287 1 0.1097401 0.204083 1 0.09916806 -0.5714283 0.1428572 0.09916806 0.5714288 0.1428572 0.2614879 0.5714288 0.1428573 0.2614879 -0.5714283 0.1428572 0.447637 0.5714287 1 0.3064612 -0.5714284 1 0.447637 -0.5714284 1 0.3064612 0.5714287 1 0.2958891 -0.5714283 0.1428572 0.2958892 0.5714288 0.1428573 0.458209 0.5714288 0.1428572 0.458209 -0.5714283 0.1428572</float_array>
          <technique_common>
            <accessor source="#Cube_037-mesh-positions-array" count="62" stride="3">
              <param name="X" type="float"/>
              <param name="Y" type="float"/>
              <param name="Z" type="float"/>
            </accessor>
          </technique_common>
        </source>
        <source id="Cube_037-mesh-normals">
          <float_array id="Cube_037-mesh-normals-array" count="216">-0.9998487 0 -0.01740252 -0.999984 0 -0.005650997 -0.999984 0 0.005651116 0.999984 0 -0.005651056 0.9998486 0 -0.01740252 0.9995301 0 -0.03065419 -0.9998487 0 -0.01740252 -0.999984 0 -0.005650997 -0.999984 0 0.005651116 0.999984 0 -0.005651056 0.9998486 0 -0.01740258 0.9995301 0 -0.03065431 9.47532e-7 -5.63788e-7 -1 -1 0 0 0 -1 0 0 0 1 1 0 0 0 1 0 0.7071068 0.7071068 0 0.7071068 -0.7071068 0 0 0 -1 1 0 0 -2.29789e-7 0 -1 0 1 -5.87048e-7 0.999984 0 0.005650997 -0.9995301 0 -0.03065425 0.999984 0 0.005650877 0 0 -1 -0.9998487 0 -0.01740252 -0.999984 0 -0.005650997 -0.9999841 0 0.005650937 0.999984 0 -0.005651056 0.9998487 0 -0.01740252 0.9995301 0 -0.03065431 -0.9998486 0 -0.01740252 -0.9999841 0 -0.005650997 -0.999984 0 0.005650937 0.9999841 0 -0.005651056 0.9998487 0 -0.01740258 0.9995301 0 -0.03065425 0.9995301 0 -0.03065425 2.10449e-7 0 -1 -3.92838e-7 0 -1 0 0 -1 0 0 -1 0 0 -1 -2.00815e-7 0 -1 7.58025e-7 0 -1 -3.23448e-7 0 -1 1 0 0 1 0 0 0 1 2.75533e-7 0 1 0 0 1 7.34253e-7 0 -1 0 0 -1 0 0 -1 -6.36284e-7 0 -1 -3.67127e-7 -2.80598e-7 0 -1 3.92838e-7 0 -1 0.999984 0 0.005650997 -0.9995301 0 -0.03065413 0 1 -3.54256e-7 0 1 0 0 1 6.42616e-7 0 1 7.34253e-7 0 -1 2.36173e-7 0 -1 0 0 -1 -6.36285e-7 0 -1 -3.67127e-7 0.9999841 0 0.005651056 -0.9995301 0 -0.03065407</float_array>
          <technique_common>
            <accessor source="#Cube_037-mesh-normals-array" count="72" stride="3">
              <param name="X" type="float"/>
              <param name="Y" type="float"/>
              <param name="Z" type="float"/>
            </accessor>
          </technique_common>
        </source>
        <source id="Cube_037-mesh-map-0">
          <float_array id="Cube_037-mesh-map-0-array" count="768">0.78125 0.5 0.8125 1 0.8125 0.5 0.75 0.5 0.78125 1 0.78125 0.5 0.7339819 0.5 0.75 1 0.75 0.5 0.25 0.5 0.21875 1 0.25 1 0.21875 0.5 0.1875 1 0.21875 1 0.1875 0.5 0.1662945 1 0.1875 1 0.78125 0.5 0.8125 1 0.8125 0.5 0.75 0.5 0.78125 1 0.78125 0.5 0.7339819 0.5 0.75 1 0.75 0.5 0.25 0.5 0.21875 1 0.25 1 0.21875 0.5 0.1875 1 0.21875 1 0.1662946 0.6607138 0.1662945 1 0.1875 1 0.625 0.5 0.7412563 0.5357142 0.7587437 0.5357142 0.625 0 0.375 0.25 0.375 0 0.625 0.7838219 0.375 1 0.375 0.7838219 0.625 0.5338219 0.717365 0.5535714 0.7103785 0.5535715 0.625 0.5338219 0.375 0.7161782 0.375 0.5338219 0.625 0.25 0.375 0.4661781 0.375 0.25 0.375 0.5338219 0.625 0.4661781 0.625 0.5338219 0.375 0.7838219 0.625 0.7161782 0.625 0.7838219 0.2551816 0.525 0.125 0.5 0.3411781 0.5 0.625 0.75 0.425 0.5 0.425 0.75 0.625 0.5 0.425 0.25 0.425 0.5 0.625 0 0.425 0 0.425 0.1569715 0.625 1 0.425 0.75 0.425 1 0.2551816 0.725 0.125 0.75 0.2551313 0.5994228 0.02826899 0.3418443 0.04331868 0.3700002 0.4717311 0.341844 0.6588219 0.5 0.875 0.5 0.7351487 0.5535714 0.9717311 0.341844 0.9566813 0.3700001 0.5282691 0.3418443 0.7587438 0.7142857 0.625 0.75 0.875 0.75 0.2660182 0.5 0.25 1 0.2660182 1 0.8125 0.5 0.8337057 1 0.8337056 0.5 0.02826899 0.3418443 0.04331874 0.3700003 0.4717311 0.341844 0.9717311 0.341844 0.9566814 0.3700002 0.5282691 0.3418443 0.625 0.5338219 0.6926221 0.5535714 0.692596 0.6964285 0.2660182 0.5 0.25 1 0.2660182 1 0.8125 0.5 0.8337057 1 0.8337056 0.5 0.7587438 0.7142857 0.6587439 0.7142855 0.625 0.75 0.78125 0.5 0.78125 1 0.8125 1 0.75 0.5 0.75 1 0.78125 1 0.7339819 0.5 0.733982 1 0.75 1 0.25 0.5 0.21875 0.5 0.21875 1 0.21875 0.5 0.1875 0.5 0.1875 1 0.1875 0.5 0.1662946 0.5 0.1662945 1 0.78125 0.5 0.78125 1 0.8125 1 0.75 0.5 0.75 1 0.78125 1 0.7339819 0.5 0.733982 1 0.75 1 0.25 0.5 0.21875 0.5 0.21875 1 0.21875 0.5 0.1875 0.5 0.1875 1 0.1875 1 0.1875 0.5 0.1662946 0.6607138 0.1875 0.5 0.1662946 0.5 0.1662946 0.6607138 0.625 0.5 0.625 0.75 0.6587439 0.7142855 0.625 0.5 0.6587439 0.7142855 0.6587437 0.5357143 0.8412563 0.5357143 0.875 0.5 0.7587437 0.5357142 0.875 0.5 0.625 0.5 0.7587437 0.5357142 0.7412565 0.7142858 0.7587438 0.7142857 0.7587437 0.5357142 0.625 0.5 0.6587437 0.5357143 0.7412563 0.5357142 0.7412563 0.5357142 0.7412565 0.7142858 0.7587437 0.5357142 0.625 0 0.625 0.25 0.375 0.25 0.625 0.7838219 0.625 1 0.375 1 0.717365 0.5535714 0.7173651 0.6964285 0.7103703 0.6964284 0.7103785 0.5535715 0.6926221 0.5535714 0.625 0.5338219 0.717365 0.5535714 0.7103703 0.6964284 0.7103785 0.5535715 0.625 0.5338219 0.625 0.7161782 0.375 0.7161782 0.625 0.25 0.625 0.4661781 0.375 0.4661781 0.375 0.5338219 0.375 0.4661781 0.625 0.4661781 0.375 0.7838219 0.375 0.7161782 0.625 0.7161782 0.3411781 0.5 0.375 0.5338219 0.3171494 0.525 0.375 0.5338219 0.375 0.7161782 0.3171494 0.525 0.375 0.7161782 0.3411781 0.75 0.3171494 0.725 0.375 0.7161782 0.3171494 0.725 0.3171494 0.525 0.2551816 0.525 0.2551313 0.5994228 0.125 0.5 0.3171494 0.525 0.2551816 0.525 0.3411781 0.5 0.625 0.75 0.625 0.5 0.425 0.5 0.625 0.5 0.625 0.25 0.425 0.25 0.425 0.1569715 0.425 0.25 0.625 0.25 0.625 0.25 0.625 0 0.425 0.1569715 0.625 1 0.625 0.75 0.425 0.75 0.2551816 0.725 0.3171494 0.725 0.3411781 0.75 0.125 0.75 0.125 0.5 0.2551313 0.5994228 0.2551816 0.725 0.3411781 0.75 0.125 0.75 0.04331868 0.3700002 0.4566813 0.3700003 0.4717311 0.341844 0.4717311 0.341844 0.4853885 0.2968217 0.01461154 0.2968219 0.4853885 0.2968217 0.49 0.25 0.01461154 0.2968219 0.49 0.25 0.4876362 0.2260003 0.01236373 0.2260003 0.01236373 0.2260003 0.00999999 0.2500002 0.49 0.25 0.00999999 0.2500002 0.01461154 0.2968219 0.49 0.25 0.01461154 0.2968219 0.02826899 0.3418443 0.4717311 0.341844 0.875 0.5 0.7351766 0.5994896 0.7351487 0.5535714 0.7351487 0.5535714 0.717365 0.5535714 0.6588219 0.5 0.717365 0.5535714 0.625 0.5338219 0.6588219 0.5 0.9566813 0.3700001 0.5433187 0.3700001 0.5282691 0.3418443 0.5282691 0.3418443 0.5146116 0.2968219 0.9853885 0.2968217 0.5146116 0.2968219 0.51 0.2500002 0.9853885 0.2968217 0.51 0.2500002 0.5123638 0.2260001 0.9876362 0.2260001 0.9876362 0.2260001 0.99 0.25 0.51 0.2500002 0.99 0.25 0.9853885 0.2968217 0.51 0.2500002 0.9853885 0.2968217 0.9717311 0.341844 0.5282691 0.3418443 0.875 0.75 0.875 0.5 0.8412563 0.7142857 0.875 0.5 0.8412563 0.5357143 0.8412563 0.7142857 0.8412563 0.7142857 0.7587438 0.7142857 0.875 0.75 0.2660182 0.5 0.25 0.5 0.25 1 0.8125 0.5 0.8125 1 0.8337057 1 0.04331874 0.3700003 0.4566813 0.3700003 0.4717311 0.341844 0.4717311 0.341844 0.4853885 0.2968217 0.01461154 0.2968219 0.4853885 0.2968217 0.49 0.25 0.01461154 0.2968219 0.49 0.25 0.4876362 0.2260003 0.01236373 0.2260003 0.01236373 0.2260003 0.00999999 0.2500002 0.49 0.25 0.00999999 0.2500002 0.01461154 0.2968219 0.49 0.25 0.01461154 0.2968219 0.02826899 0.3418443 0.4717311 0.341844 0.9566814 0.3700002 0.5433188 0.3700002 0.5282691 0.3418443 0.5282691 0.3418443 0.5146116 0.2968219 0.9853885 0.2968217 0.5146116 0.2968219 0.51 0.2500002 0.9853885 0.2968217 0.51 0.2500002 0.5123637 0.2260002 0.9876362 0.2260002 0.9876362 0.2260002 0.99 0.25 0.51 0.2500002 0.99 0.25 0.9853885 0.2968217 0.51 0.2500002 0.9853885 0.2968217 0.9717311 0.341844 0.5282691 0.3418443 0.692596 0.6964285 0.7103703 0.6964284 0.6588219 0.75 0.7103703 0.6964284 0.7173651 0.6964285 0.6588219 0.75 0.6588219 0.75 0.7173651 0.6964285 0.7351487 0.6964285 0.7351487 0.6964285 0.7351766 0.5994896 0.875 0.75 0.7351766 0.5994896 0.875 0.5 0.875 0.75 0.6588219 0.75 0.7351487 0.6964285 0.875 0.75 0.6588219 0.75 0.625 0.7161782 0.692596 0.6964285 0.625 0.7161782 0.625 0.5338219 0.692596 0.6964285 0.2660182 0.5 0.25 0.5 0.25 1 0.8125 0.5 0.8125 1 0.8337057 1 0.7587438 0.7142857 0.7412565 0.7142858 0.6587439 0.7142855</float_array>
          <technique_common>
            <accessor source="#Cube_037-mesh-map-0-array" count="384" stride="2">
              <param name="S" type="float"/>
              <param name="T" type="float"/>
            </accessor>
          </technique_common>
        </source>
        <vertices id="Cube_037-mesh-vertices">
          <input semantic="POSITION" source="#Cube_037-mesh-positions"/>
        </vertices>
        <triangles material="Material_001-material" count="128">
          <input semantic="VERTEX" source="#Cube_037-mesh-vertices" offset="0"/>
          <input semantic="NORMAL" source="#Cube_037-mesh-normals" offset="1"/>
          <input semantic="TEXCOORD" source="#Cube_037-mesh-map-0" offset="2" set="0"/>
          <p>2 0 0 1 0 1 0 0 2 4 1 3 3 1 4 2 1 5 60 2 6 5 2 7 4 2 8 6 3 9 9 3 10 7 3 11 8 4 12 11 4 13 9 4 14 10 5 15 55 5 16 11 5 17 14 6 18 13 6 19 12 6 20 16 7 21 15 7 22 14 7 23 52 8 24 17 8 25 16 8 26 18 9 27 21 9 28 19 9 29 20 10 30 23 10 31 21 10 32 49 11 33 46 11 34 23 11 35 27 12 36 59 12 37 52 12 38 29 13 39 30 13 40 28 13 41 34 14 42 28 14 43 33 14 44 38 15 45 45 15 46 57 15 47 38 16 48 32 16 49 37 16 50 31 17 51 36 17 52 30 17 53 37 18 54 39 18 55 38 18 56 33 19 57 35 19 58 34 19 59 40 20 60 30 20 61 36 20 62 26 13 63 41 13 64 42 13 65 27 14 66 40 14 67 41 14 68 24 21 69 43 21 70 44 21 71 24 17 72 42 17 73 43 17 74 43 22 75 28 22 76 44 22 77 23 23 78 46 23 79 13 23 80 39 15 81 31 15 82 48 15 83 12 14 84 45 14 85 22 14 86 53 20 87 26 20 88 24 20 89 51 24 90 19 24 91 50 24 92 12 25 93 47 25 94 45 25 95 11 17 96 55 17 97 1 17 98 0 14 99 54 14 100 10 14 101 38 15 102 54 15 103 56 15 104 59 26 105 7 26 106 58 26 107 0 25 108 56 25 109 54 25 110 53 27 111 61 27 112 26 27 113 2 28 114 3 28 115 1 28 116 4 29 117 5 29 118 3 29 119 60 30 120 61 30 121 5 30 122 6 31 123 8 31 124 9 31 125 8 32 126 10 32 127 11 32 128 10 33 129 57 33 130 55 33 131 14 34 132 15 34 133 13 34 134 16 35 135 17 35 136 15 35 137 52 36 138 53 36 139 17 36 140 18 37 141 20 37 142 21 37 143 20 38 144 22 38 145 23 38 146 23 39 147 22 39 148 49 39 149 22 40 150 48 40 151 49 40 152 27 41 153 26 41 154 61 41 155 27 42 156 61 42 157 60 42 158 51 43 159 25 43 160 52 43 161 25 44 162 27 44 163 52 44 164 58 45 165 53 45 166 52 45 167 27 46 168 60 46 169 59 46 170 59 47 171 58 47 172 52 47 173 29 13 174 31 13 175 30 13 176 34 14 177 29 14 178 28 14 179 45 15 180 47 15 181 55 15 182 57 15 183 54 15 184 38 15 185 45 15 186 55 15 187 57 15 188 38 16 189 35 16 190 32 16 191 31 17 192 39 17 193 36 17 194 37 18 195 36 18 196 39 18 197 33 19 198 32 19 199 35 19 200 36 20 201 37 20 202 41 20 203 37 20 204 32 20 205 41 20 206 32 20 207 33 20 208 42 20 209 32 48 210 42 48 211 41 48 212 40 20 213 44 20 214 30 20 215 41 20 216 40 20 217 36 20 218 26 13 219 27 13 220 41 13 221 27 14 222 25 14 223 40 14 224 44 49 225 40 49 226 25 49 227 25 50 228 24 50 229 44 50 230 24 17 231 26 17 232 42 17 233 43 20 234 42 20 235 33 20 236 28 20 237 30 20 238 44 20 239 43 20 240 33 20 241 28 20 242 46 51 243 47 51 244 13 51 245 13 52 246 15 52 247 21 52 248 15 17 249 17 17 250 21 17 251 17 17 252 53 17 253 50 17 254 50 17 255 19 17 256 17 17 257 19 17 258 21 17 259 17 17 260 21 53 261 23 53 262 13 53 263 31 15 264 49 15 265 48 15 266 48 15 267 45 15 268 39 15 269 45 15 270 38 15 271 39 15 272 45 54 273 48 54 274 22 54 275 22 55 276 20 55 277 14 55 278 20 14 279 18 14 280 14 14 281 18 14 282 51 14 283 52 14 284 52 56 285 16 56 286 18 56 287 16 14 288 14 14 289 18 14 290 14 57 291 12 57 292 22 57 293 24 58 294 25 58 295 50 58 296 25 59 297 51 59 298 50 59 299 50 20 300 53 20 301 24 20 302 51 60 303 18 60 304 19 60 305 12 61 306 13 61 307 47 61 308 55 62 309 56 62 310 1 62 311 1 63 312 3 63 313 9 63 314 3 17 315 5 17 316 9 17 317 5 64 318 61 64 319 58 64 320 58 17 321 7 17 322 5 17 323 7 17 324 9 17 325 5 17 326 9 65 327 11 65 328 1 65 329 54 66 330 57 66 331 10 66 332 10 67 333 8 67 334 2 67 335 8 14 336 6 14 337 2 14 338 6 14 339 59 14 340 60 14 341 60 68 342 4 68 343 6 68 344 4 14 345 2 14 346 6 14 347 2 69 348 0 69 349 10 69 350 56 15 351 55 15 352 34 15 353 55 15 354 47 15 355 34 15 356 34 15 357 47 15 358 46 15 359 46 15 360 49 15 361 29 15 362 49 15 363 31 15 364 29 15 365 34 15 366 46 15 367 29 15 368 34 15 369 35 15 370 56 15 371 35 15 372 38 15 373 56 15 374 59 70 375 6 70 376 7 70 377 0 71 378 1 71 379 56 71 380 53 17 381 58 17 382 61 17 383</p>
        </triangles>
      </mesh>
    </geometry>
  </library_geometries>
  <library_visual_scenes>
    <visual_scene id="Scene" name="Scene">
      <node id="Cube_020" name="Cube.020" type="NODE">
        <matrix sid="transform">0.61 0 0 0.62 0 0 -0.035 0.29 0 0.0875 0 0.2225 0 0 0 1</matrix>
        <instance_geometry url="#Cube_037-mesh" name="Cube.020">
          <bind_material>
            <technique_common>
              <instance_material symbol="Material_001-material" target="#Material_001-material">
                <bind_vertex_input semantic="UVMap" input_semantic="TEXCOORD" input_set="0"/>
              </instance_material>
            </technique_common>
          </bind_material>
        </instance_geometry>
      </node>
    </visual_scene>
  </library_visual_scenes>
  <scene>
    <instance_visual_scene url="#Scene"/>
  </scene>
</COLLADA>