<?xml version="1.0" encoding="utf-8"?>
<COLLADA xmlns="http://www.collada.org/2005/11/COLLADASchema" version="1.4.1" xmlns:xsi="http://www.w3.org/2001/XMLSchema-instance">
  <asset>
    <contributor>
      <author>Blender User</author>
      <authoring_tool>Blender 2.83.20 commit date:2022-04-19, commit time:16:00, hash:a56e2faeb7a9</authoring_tool>
    </contributor>
    <created>2026-06-23T13:10:10</created>
    <modified>2026-06-23T13:10:10</modified>
    <unit name="meter" meter="1"/>
    <up_axis>Z_UP</up_axis>
  </asset>
  <library_effects>
    <effect id="Material_001-effect">
      <profile_COMMON>
        <technique sid="common">
          <lambert>
            <emission>
              <color sid="emission">0 0 0 1</color>
            </emission>
            <diffuse>
              <color sid="diffuse">0.07323896 0.07323896 0.07323896 1</color>
            </diffuse>
            <index_of_refraction>
              <float sid="ior">1.45</float>
            </index_of_refraction>
          </lambert>
        </technique>
      </profile_COMMON>
    </effect>
  </library_effects>
  <library_images/>
  <library_materials>
    <material id="Material_001-material" name="Material.001">
      <instance_effect url="#Material_001-effect"/>
    </material>
  </library_materials>
  <library_geometries>
    <geometry id="Cube_041-mesh" name="Cube.041">
      <mesh>
        <source id="Cube_041-mesh-positions">
          <float_array id="Cube_041-mesh-positions-array" count="195">0.4527772 0.5714288 0.8324047 0.4527772 -0.5714284 0.8324042 0.4574416 0.5714288 0.5644146 0.4574416 -0.5714284 0.5644141 0.4590165 0.5714288 0.2857141 0.4590165 -0.5714284 0.2857137 0.2950821 0.5714288 0.2857154 0.2950821 -0.5714284 0.2857149 0.2966571 0.5714288 0.564416 0.2966571 -0.5714284 0.5644155 0.3013215 0.5714288 0.8324062 0.3013215 -0.5714284 0.8324057 0.2560561 0.5714286 0.8324045 0.2560561 -0.5714286 0.8324044 0.2607205 0.5714286 0.5644144 0.2607205 -0.5714286 0.5644143 0.2622954 0.5714286 0.285714 0.2622954 -0.5714286 0.2857139 0.09836101 0.5714286 0.2857152 0.09836101 -0.5714286 0.2857151 0.099936 0.5714286 0.5644158 0.099936 -0.5714286 0.5644157 0.1046004 0.5714286 0.832406 0.1046004 -0.5714286 0.8324059 0.0327869 -0.8 0.1428562 0.0327869 0.8 0.1428562 0.5245902 -0.8 0.1428562 0.5245902 0.8 0.1428562 -1 -1 -1 -1 -1 1 -1 1 -1 -1 1 1 0.9852875 -0.7294251 -1 0.7147126 -1 -1 0.7147126 -1 1 0.9852875 -0.7294251 1 0.7147126 1 -1 0.9852875 0.7294251 -1 0.9852875 0.7294251 1 0.7147126 1 1 0.0327869 0.8 -1 0.5245902 0.8 -1 0.5245902 -0.8 -1 0.0327869 -0.8 -1 0.03278684 0.204618 -1 0.2509161 0.5714286 1 0.1097403 -0.5714286 1 0.2509161 -0.5714286 1 0.1097403 0.5714286 1 0.1097403 0.2943747 1 0.2509163 0.459039 1 0.0991683 -0.5714286 0.1428562 0.0991683 0.5714286 0.1428562 0.2614881 0.5714286 0.1428562 0.2614881 -0.5714286 0.1428562 0.4476373 0.5714288 1 0.3064614 -0.5714284 1 0.4476372 -0.5714284 1 0.3064614 0.5714288 1 0.3064614 0.47949 1 0.4476372 0.5314691 1 0.2958894 -0.5714283 0.1428562 0.2958894 0.5714289 0.1428562 0.4582092 0.5714288 0.1428562 0.4582092 -0.5714284 0.1428563</float_array>
          <technique_common>
            <accessor source="#Cube_041-mesh-positions-array" count="65" stride="3">
              <param name="X" type="float"/>
              <param name="Y" type="float"/>
              <param name="Z" type="float"/>
            </accessor>
          </technique_common>
        </source>
        <source id="Cube_041-mesh-normals">
          <float_array id="Cube_041-mesh-normals-array" count="252">-0.9998487 0 -0.01740252 -0.9999841 0 -0.005650997 -0.9999841 0 0.005651056 0.9999841 0 -0.005651056 0.9998487 0 -0.01740252 0.9995301 0 -0.03065419 -0.9998487 0 -0.01740252 -0.999984 0 -0.005650997 -0.999984 0 0.005651056 0.9999841 0 -0.005651056 0.9998487 0 -0.01740258 0.9995301 0 -0.03065431 -2.58189e-7 1.57046e-7 -1 -1 0 0 0 -1 0 0 0 1 1 0 0 0 1 0 0.7071068 0.7071068 0 0.7071068 -0.7071068 0 0 0 -1 1 0 0 -2.29789e-7 0 -1 0 1 -5.87051e-7 0 0 1 0 -1 -5.87047e-7 0.9999841 0 0.005650937 -0.9995301 0 -0.03065431 0.999984 0 0.005650997 -0.9995301 0 -0.03065407 9.47519e-7 0 -1 -0.9998486 0 -0.01740252 -0.999984 0 -0.005650997 -0.999984 0 0.005651056 0.999984 0 -0.005651056 0.9998486 0 -0.01740252 0.9995301 0 -0.03065431 0.9995301 0 -0.03065425 -0.9998487 0 -0.01740252 -0.9999841 0 -0.005650997 -0.999984 0 0.005651056 0.999984 0 -0.005651056 0.9998487 0 -0.01740258 0.9995301 0 -0.03065389 0.9995301 -3.2077e-7 -0.03065437 3.92839e-7 0 -1 0 0 -1 0 0 -1 0 0 -1 0 -2.63106e-7 1 2.04218e-6 0 1 0 1.39077e-7 1 0 5.95981e-7 1 -3.23448e-7 0 -1 1 0 0 1 0 0 0 1 3.73939e-7 0 1 -3.26146e-7 0 1 3.67127e-7 0 -1 0 0 -1 -3.26146e-7 0 -1 3.67127e-7 0 0 -1 0 0 -1 0 0 -1 0.999984 0 0.005650997 -0.9995301 -7.90729e-7 -0.03065419 -0.9995301 0 -0.03065365 0.999984 0 0.005650997 -0.9995301 2.22399e-6 -0.03065401 -0.9995301 0 -0.03065437 0 1 0 0 1 6.91652e-7 3.67205e-7 1 -6.42608e-7 0 1 6.36273e-7 0 1 0 -7.58025e-7 0 -1 7.58025e-7 0 -1 -2.00815e-7 0 -1 0 -1 0 0 -1 -3.45826e-7 0 -1 -3.32536e-7 -3.67205e-7 -1 -1.2852e-6 0 -1 0</float_array>
          <technique_common>
            <accessor source="#Cube_041-mesh-normals-array" count="84" stride="3">
              <param name="X" type="float"/>
              <param name="Y" type="float"/>
              <param name="Z" type="float"/>
            </accessor>
          </technique_common>
        </source>
        <source id="Cube_041-mesh-map-0">
          <float_array id="Cube_041-mesh-map-0-array" count="804">0.78125 0.5 0.8125 1 0.8125 0.5 0.75 0.5 0.78125 1 0.78125 0.5 0.7339817 0.5 0.75 1 0.75 0.5 0.25 0.5 0.21875 1 0.25 1 0.1875 0.5 0.21875 1 0.21875 0.5 0.1662947 0.5402233 0.1662946 1 0.1875 1 0.78125 0.5 0.8125 1 0.8125 0.5 0.75 0.5 0.78125 1 0.78125 0.5 0.7339817 0.5 0.75 1 0.75 0.5 0.25 0.5 0.21875 1 0.25 1 0.21875 0.5 0.1875 1 0.21875 1 0.1662947 0.6212111 0.1662946 1 0.1875 1 0.625 0.5 0.6587436 0.5357142 0.7412562 0.5357143 0.625 0 0.375 0.25 0.375 0 0.625 0.7838219 0.375 1 0.375 0.7838219 0.7103714 0.6964285 0.7173792 0.5676201 0.717365 0.6964286 0.625 0.5338219 0.375 0.7161782 0.375 0.5338219 0.625 0.25 0.375 0.4661781 0.375 0.25 0.375 0.5338219 0.625 0.4661781 0.625 0.5338219 0.375 0.7838219 0.625 0.7161782 0.625 0.7838219 0.2551816 0.525 0.125 0.5 0.3411781 0.5 0.625 0.75 0.4250002 0.5 0.4250002 0.75 0.625 0.5 0.4250002 0.25 0.4250002 0.5 0.625 0 0.4250002 0 0.4250002 0.1569716 0.625 1 0.4250002 0.75 0.4250002 1 0.2551816 0.725 0.125 0.75 0.2551313 0.5994228 0.02826899 0.3418443 0.04331862 0.3700001 0.4717311 0.341844 0.6588219 0.5 0.717365 0.5535714 0.7103816 0.5535714 0.9717311 0.341844 0.9566814 0.3700001 0.5282691 0.3418443 0.875 0.75 0.8412562 0.5357143 0.8412561 0.7142857 0.25 0.5 0.2660184 1 0.2660184 0.5 0.8125 1 0.8337056 1 0.8337055 0.5491704 0.25 0.5 0.2660184 1 0.2660185 0.5 0.8125 1 0.8337056 1 0.8337054 0.5174824 0.02826899 0.3418443 0.04331862 0.3700001 0.4717311 0.341844 0.7412562 0.7142857 0.625 0.75 0.7587435 0.7142857 0.9717311 0.341844 0.9566813 0.37 0.5282691 0.3418443 0.78125 0.5 0.78125 1 0.8125 1 0.75 0.5 0.75 1 0.78125 1 0.7339817 0.5 0.7339817 1 0.75 1 0.25 0.5 0.21875 0.5 0.21875 1 0.1875 0.5 0.1875 1 0.21875 1 0.1875 1 0.1875 0.5 0.1662947 0.5402233 0.1875 0.5 0.1662947 0.5 0.1662947 0.5402233 0.78125 0.5 0.78125 1 0.8125 1 0.75 0.5 0.75 1 0.78125 1 0.7339817 0.5 0.7339817 1 0.75 1 0.25 0.5 0.21875 0.5 0.21875 1 0.21875 0.5 0.1875 0.5 0.1875 1 0.1875 1 0.1875 0.5 0.1662947 0.6212111 0.1875 0.5 0.1662946 0.5 0.1662947 0.6212111 0.625 0.5 0.625 0.75 0.6587437 0.7142856 0.625 0.5 0.6587437 0.7142856 0.6587436 0.5357142 0.8412562 0.5357143 0.875 0.5 0.7587435 0.5357143 0.875 0.5 0.625 0.5 0.7412562 0.5357143 0.7412562 0.5357143 0.7587435 0.5357143 0.875 0.5 0.625 0 0.625 0.25 0.375 0.25 0.625 0.7838219 0.625 1 0.375 1 0.625 0.7161782 0.625 0.5338219 0.6926329 0.5585663 0.625 0.7161782 0.6926329 0.5585663 0.6925979 0.6964286 0.875 0.75 0.6588219 0.75 0.7351486 0.6964285 0.6588219 0.75 0.625 0.7161782 0.6925979 0.6964286 0.7351722 0.5882031 0.875 0.5 0.875 0.75 0.7351486 0.6964285 0.7351722 0.5882031 0.875 0.75 0.6588219 0.75 0.6925979 0.6964286 0.7103714 0.6964285 0.7103714 0.6964285 0.7103919 0.5650637 0.7173792 0.5676201 0.6588219 0.75 0.7103714 0.6964285 0.717365 0.6964286 0.717365 0.6964286 0.7351486 0.6964285 0.6588219 0.75 0.625 0.5338219 0.625 0.7161782 0.375 0.7161782 0.625 0.25 0.625 0.4661781 0.375 0.4661781 0.375 0.5338219 0.375 0.4661781 0.625 0.4661781 0.375 0.7838219 0.375 0.7161782 0.625 0.7161782 0.3411781 0.5 0.375 0.5338219 0.3171494 0.525 0.375 0.5338219 0.375 0.7161782 0.3171494 0.525 0.375 0.7161782 0.3411781 0.75 0.3171494 0.725 0.375 0.7161782 0.3171494 0.725 0.3171494 0.525 0.2551816 0.525 0.2551313 0.5994228 0.125 0.5 0.3171494 0.525 0.2551816 0.525 0.3411781 0.5 0.625 0.75 0.625 0.5 0.4250002 0.5 0.625 0.5 0.625 0.25 0.4250002 0.25 0.4250002 0.1569716 0.4250002 0.25 0.625 0.25 0.625 0.25 0.625 0 0.4250002 0.1569716 0.625 1 0.625 0.75 0.4250002 0.75 0.2551816 0.725 0.3171494 0.725 0.3411781 0.75 0.125 0.75 0.125 0.5 0.2551313 0.5994228 0.2551816 0.725 0.3411781 0.75 0.125 0.75 0.04331862 0.3700001 0.4566814 0.3700001 0.4717311 0.341844 0.4717311 0.341844 0.4853885 0.2968217 0.01461154 0.2968219 0.4853885 0.2968217 0.49 0.25 0.01461154 0.2968219 0.49 0.25 0.4876362 0.2259999 0.01236379 0.2259999 0.01236379 0.2259999 0.00999999 0.2500002 0.49 0.25 0.00999999 0.2500002 0.01461154 0.2968219 0.49 0.25 0.01461154 0.2968219 0.02826899 0.3418443 0.4717311 0.341844 0.875 0.5 0.7351722 0.5882031 0.7351487 0.5535714 0.717365 0.5535714 0.7173792 0.5676201 0.7103919 0.5650637 0.875 0.5 0.7351487 0.5535714 0.6588219 0.5 0.7351487 0.5535714 0.717365 0.5535714 0.6588219 0.5 0.625 0.5338219 0.6588219 0.5 0.692626 0.5535714 0.692626 0.5535714 0.6926329 0.5585663 0.625 0.5338219 0.717365 0.5535714 0.7103919 0.5650637 0.7103816 0.5535714 0.7103816 0.5535714 0.692626 0.5535714 0.6588219 0.5 0.9566814 0.3700001 0.5433186 0.37 0.5282691 0.3418443 0.5282691 0.3418443 0.5146116 0.2968219 0.9853885 0.2968217 0.5146116 0.2968219 0.51 0.2500002 0.9853885 0.2968217 0.51 0.2500002 0.5123638 0.2259999 0.9876362 0.2259999 0.9876362 0.2259999 0.99 0.25 0.51 0.2500002 0.99 0.25 0.9853885 0.2968217 0.51 0.2500002 0.9853885 0.2968217 0.9717311 0.341844 0.5282691 0.3418443 0.875 0.75 0.875 0.5 0.8412562 0.5357143 0.8412561 0.7142857 0.7587435 0.7142857 0.875 0.75 0.7587435 0.7142857 0.625 0.75 0.875 0.75 0.25 0.5 0.25 1 0.2660184 1 0.8337055 0.5491704 0.8337056 0.5 0.8125 0.5 0.8125 0.5 0.8125 1 0.8337055 0.5491704 0.25 0.5 0.25 1 0.2660184 1 0.8337054 0.5174824 0.8337054 0.5 0.8125 0.5 0.8125 0.5 0.8125 1 0.8337054 0.5174824 0.04331862 0.3700001 0.4566813 0.3700001 0.4717311 0.341844 0.4717311 0.341844 0.4853885 0.2968217 0.01461154 0.2968219 0.4853885 0.2968217 0.49 0.25 0.01461154 0.2968219 0.49 0.25 0.4876362 0.226 0.01236379 0.226 0.01236379 0.226 0.00999999 0.2500002 0.49 0.25 0.00999999 0.2500002 0.01461154 0.2968219 0.49 0.25 0.01461154 0.2968219 0.02826899 0.3418443 0.4717311 0.341844 0.7587435 0.7142857 0.7587435 0.5357143 0.7412562 0.7142857 0.7587435 0.5357143 0.7412562 0.5357143 0.7412562 0.7142857 0.7412562 0.7142857 0.6587437 0.7142856 0.625 0.75 0.9566813 0.37 0.5433186 0.37 0.5282691 0.3418443 0.5282691 0.3418443 0.5146116 0.2968219 0.9853885 0.2968217 0.5146116 0.2968219 0.51 0.2500002 0.9853885 0.2968217 0.51 0.2500002 0.5123638 0.2259999 0.9876362 0.2259999 0.9876362 0.2259999 0.99 0.25 0.51 0.2500002 0.99 0.25 0.9853885 0.2968217 0.51 0.2500002 0.9853885 0.2968217 0.9717311 0.341844 0.5282691 0.3418443</float_array>
          <technique_common>
            <accessor source="#Cube_041-mesh-map-0-array" count="402" stride="2">
              <param name="S" type="float"/>
              <param name="T" type="float"/>
            </accessor>
          </technique_common>
        </source>
        <vertices id="Cube_041-mesh-vertices">
          <input semantic="POSITION" source="#Cube_041-mesh-positions"/>
        </vertices>
        <triangles material="Material_001-material" count="134">
          <input semantic="VERTEX" source="#Cube_041-mesh-vertices" offset="0"/>
          <input semantic="NORMAL" source="#Cube_041-mesh-normals" offset="1"/>
          <input semantic="TEXCOORD" source="#Cube_041-mesh-map-0" offset="2" set="0"/>
          <p>2 0 0 1 0 1 0 0 2 4 1 3 3 1 4 2 1 5 63 2 6 5 2 7 4 2 8 6 3 9 9 3 10 7 3 11 10 4 12 9 4 13 8 4 14 59 5 15 56 5 16 11 5 17 14 6 18 13 6 19 12 6 20 16 7 21 15 7 22 14 7 23 53 8 24 17 8 25 16 8 26 18 9 27 21 9 28 19 9 29 20 10 30 23 10 31 21 10 32 49 11 33 46 11 34 23 11 35 27 12 36 63 12 37 62 12 38 29 13 39 30 13 40 28 13 41 34 14 42 28 14 43 33 14 44 56 15 45 50 15 46 47 15 47 38 16 48 32 16 49 37 16 50 31 17 51 36 17 52 30 17 53 37 18 54 39 18 55 38 18 56 33 19 57 35 19 58 34 19 59 40 20 60 30 20 61 36 20 62 26 13 63 41 13 64 42 13 65 27 14 66 40 14 67 41 14 68 24 21 69 43 21 70 44 21 71 24 17 72 42 17 73 43 17 74 43 22 75 28 22 76 44 22 77 23 23 78 46 23 79 13 23 80 39 24 81 45 24 82 58 24 83 12 25 84 45 25 85 22 25 86 24 20 87 52 20 88 51 20 89 18 26 90 51 26 91 52 26 92 13 27 93 47 27 94 50 27 95 6 28 96 61 28 97 62 28 98 1 29 99 57 29 100 60 29 101 11 17 102 56 17 103 1 17 104 61 30 105 26 30 106 54 30 107 0 14 108 55 14 109 10 14 110 2 31 111 3 31 112 1 31 113 4 32 114 5 32 115 3 32 116 63 33 117 64 33 118 5 33 119 6 34 120 8 34 121 9 34 122 10 35 123 11 35 124 9 35 125 11 36 126 10 36 127 59 36 128 10 37 129 58 37 130 59 37 131 14 38 132 15 38 133 13 38 134 16 39 135 17 39 136 15 39 137 53 40 138 54 40 139 17 40 140 18 41 141 20 41 142 21 41 143 20 42 144 22 42 145 23 42 146 23 43 147 22 43 148 49 43 149 22 44 150 48 44 151 49 44 152 27 20 153 26 20 154 64 20 155 27 45 156 64 45 157 63 45 158 52 46 159 25 46 160 53 46 161 25 47 162 27 47 163 62 47 164 62 48 165 53 48 166 25 48 167 29 13 168 31 13 169 30 13 170 34 14 171 29 14 172 28 14 173 35 24 174 38 24 175 60 24 176 35 24 177 60 24 178 57 24 179 29 24 180 34 24 181 46 24 182 34 24 183 35 24 184 57 24 185 49 24 186 31 24 187 29 24 188 46 24 189 49 24 190 29 24 191 34 49 192 57 49 193 56 49 194 56 50 195 59 50 196 50 50 197 34 51 198 56 51 199 47 51 200 47 52 201 46 52 202 34 52 203 38 16 204 35 16 205 32 16 206 31 17 207 39 17 208 36 17 209 37 18 210 36 18 211 39 18 212 33 19 213 32 19 214 35 19 215 36 20 216 37 20 217 41 20 218 37 20 219 32 20 220 41 20 221 32 20 222 33 20 223 42 20 224 32 53 225 42 53 226 41 53 227 40 20 228 44 20 229 30 20 230 41 20 231 40 20 232 36 20 233 26 13 234 27 13 235 41 13 236 27 14 237 25 14 238 40 14 239 44 54 240 40 54 241 25 54 242 25 55 243 24 55 244 44 55 245 24 17 246 26 17 247 42 17 248 43 20 249 42 20 250 33 20 251 28 20 252 30 20 253 44 20 254 43 20 255 33 20 256 28 20 257 46 56 258 47 56 259 13 56 260 13 17 261 15 17 262 21 17 263 15 17 264 17 17 265 21 17 266 17 17 267 54 17 268 51 17 269 51 17 270 19 17 271 17 17 272 19 57 273 21 57 274 17 57 275 21 58 276 23 58 277 13 58 278 31 24 279 49 24 280 48 24 281 45 24 282 50 24 283 59 24 284 31 24 285 48 24 286 39 24 287 48 24 288 45 24 289 39 24 290 38 24 291 39 24 292 55 24 293 55 24 294 60 24 295 38 24 296 45 24 297 59 24 298 58 24 299 58 24 300 55 24 301 39 24 302 45 59 303 48 59 304 22 59 305 22 14 306 20 14 307 14 14 308 20 14 309 18 14 310 14 14 311 18 14 312 52 14 313 53 14 314 53 14 315 16 14 316 18 14 317 16 60 318 14 60 319 18 60 320 14 61 321 12 61 322 22 61 323 24 62 324 25 62 325 52 62 326 51 63 327 54 63 328 24 63 329 54 64 330 26 64 331 24 64 332 18 65 333 19 65 334 51 65 335 50 66 336 45 66 337 12 66 338 12 67 339 13 67 340 50 67 341 6 68 342 7 68 343 61 68 344 60 69 345 55 69 346 0 69 347 0 70 348 1 70 349 60 70 350 56 71 351 57 71 352 1 71 353 1 72 354 3 72 355 9 72 356 3 17 357 5 17 358 9 17 359 5 73 360 64 73 361 61 73 362 61 74 363 7 74 364 5 74 365 7 17 366 9 17 367 5 17 368 9 75 369 11 75 370 1 75 371 54 76 372 53 76 373 61 76 374 53 77 375 62 77 376 61 77 377 61 78 378 64 78 379 26 78 380 55 79 381 58 79 382 10 79 383 10 80 384 8 80 385 2 80 386 8 81 387 6 81 388 2 81 389 6 82 390 62 82 391 63 82 392 63 14 393 4 14 394 6 14 395 4 14 396 2 14 397 6 14 398 2 83 399 0 83 400 10 83 401</p>
        </triangles>
      </mesh>
    </geometry>
  </library_geometries>
  <library_visual_scenes>
    <visual_scene id="Scene" name="Scene">
      <node id="Cube_024" name="Cube.024" type="NODE">
        <matrix sid="transform">0.61 0 0 0.62 0 0 -0.035 0.29 0 0.0875 0 -0.2225 0 0 0 1</matrix>
        <instance_geometry url="#Cube_041-mesh" name="Cube.024">
          <bind_material>
            <technique_common>
              <instance_material symbol="Material_001-material" target="#Material_001-material">
                <bind_vertex_input semantic="UVMap" input_semantic="TEXCOORD" input_set="0"/>
              </instance_material>
            </technique_common>
          </bind_material>
        </instance_geometry>
      </node>
    </visual_scene>
  </library_visual_scenes>
  <scene>
    <instance_visual_scene url="#Scene"/>
  </scene>
</COLLADA>