<?xml version="1.0" encoding="utf-8"?>
<COLLADA xmlns="http://www.collada.org/2005/11/COLLADASchema" version="1.4.1" xmlns:xsi="http://www.w3.org/2001/XMLSchema-instance">
  <asset>
    <contributor>
      <author>Blender User</author>
      <authoring_tool>Blender 2.83.20 commit date:2022-04-19, commit time:16:00, hash:a56e2faeb7a9</authoring_tool>
    </contributor>
    <created>2026-06-26T16:54:40</created>
    <modified>2026-06-26T16:54:40</modified>
    <unit name="meter" meter="1"/>
    <up_axis>Z_UP</up_axis>
  </asset>
  <library_effects/>
  <library_images/>
  <library_geometries>
    <geometry id="Cube_098-mesh" name="Cube.098">
      <mesh>
        <source id="Cube_098-mesh-positions">
          <float_array id="Cube_098-mesh-positions-array" count="48">-1 -1 -2 -0.3333197 -1 -2 -1 1 -2 1 -1 -2 1 -1 0 1 1 -2 1 1 0 0.3333349 -1 0 0.3333349 1 0 -1 1 -0.8000002 -1 -1 -0.8000002 -0.3333197 1 -2 -0.3333197 1 -0.3999996 -0.3333325 -1 -0.4000001 -0.3333197 1 -1.2 -0.3333261 -1 -1.2</float_array>
          <technique_common>
            <accessor source="#Cube_098-mesh-positions-array" count="16" stride="3">
              <param name="X" type="float"/>
              <param name="Y" type="float"/>
              <param name="Z" type="float"/>
            </accessor>
          </technique_common>
        </source>
        <source id="Cube_098-mesh-normals">
          <float_array id="Cube_098-mesh-normals-array" count="27">-0.5145023 0 0.8574891 0 1 0 1 0 0 0 -1 0 0 0 -1 0 0 1 -1 3.21617e-6 -8.04663e-6 -0.5144954 3.10752e-6 0.8574932 -1 6.4075e-6 0</float_array>
          <technique_common>
            <accessor source="#Cube_098-mesh-normals-array" count="9" stride="3">
              <param name="X" type="float"/>
              <param name="Y" type="float"/>
              <param name="Z" type="float"/>
            </accessor>
          </technique_common>
        </source>
        <source id="Cube_098-mesh-map-0">
          <float_array id="Cube_098-mesh-map-0-array" count="126">0 0 0.625 0.875 0.625 0.375 0.375 0.375 0.625 0.375 0.375 0.5 0.625 0.5 0.375 0.75 0.375 0.5 0 0 0.125 0.75 0.25 0.75 0.25 0.5 0.375 0.75 0.25 0.75 0.625 0.875 0.625 0.5 0.625 0.375 0 0 0 0 0 0 0 0 0 0 0.625 0.875 0.375 0.375 0.375 0.25 0.5 0.25 0.5 0.25 0.625 0.375 0.375 0.375 0.625 0.375 0.625 0.5 0.375 0.5 0.625 0.5 0.625 0.75 0.375 0.75 0.25 0.75 0.375 0.75 0 0 0.375 0.75 0.625 0.75 0.625 0.875 0 0 0.375 0.75 0.625 0.875 0 0 0 0 0.25 0.75 0.125 0.75 0.125 0.5 0.25 0.5 0.25 0.5 0.375 0.5 0.375 0.75 0.25 0.75 0.125 0.75 0.25 0.5 0.625 0.875 0.625 0.75 0.625 0.5 0 0 0 0 0 0</float_array>
          <technique_common>
            <accessor source="#Cube_098-mesh-map-0-array" count="63" stride="2">
              <param name="S" type="float"/>
              <param name="T" type="float"/>
            </accessor>
          </technique_common>
        </source>
        <vertices id="Cube_098-mesh-vertices">
          <input semantic="POSITION" source="#Cube_098-mesh-positions"/>
        </vertices>
        <lines count="1">
          <input semantic="VERTEX" source="#Cube_098-mesh-vertices" offset="0"/>
          <p>9 12</p>
        </lines>
        <triangles count="21">
          <input semantic="VERTEX" source="#Cube_098-mesh-vertices" offset="0"/>
          <input semantic="NORMAL" source="#Cube_098-mesh-normals" offset="1"/>
          <input semantic="TEXCOORD" source="#Cube_098-mesh-map-0" offset="2" set="0"/>
          <p>12 0 0 7 0 1 8 0 2 11 1 3 8 1 4 5 1 5 6 2 6 3 2 7 5 2 8 10 3 9 0 3 10 1 3 11 11 4 12 3 4 13 1 4 14 7 5 15 6 5 16 8 5 17 13 6 18 14 6 19 15 6 20 12 7 21 13 7 22 7 7 23 11 1 24 2 1 25 9 1 26 9 1 27 8 1 28 11 1 29 8 1 30 6 1 31 5 1 32 6 2 33 4 2 34 3 2 35 1 3 36 3 3 37 13 3 38 3 3 39 4 3 40 7 3 41 13 3 42 3 3 43 7 3 44 13 3 45 10 3 46 1 3 47 0 4 48 2 4 49 11 4 50 11 4 51 5 4 52 3 4 53 1 4 54 0 4 55 11 4 56 7 5 57 4 5 58 6 5 59 13 8 60 12 8 61 14 8 62</p>
        </triangles>
      </mesh>
    </geometry>
  </library_geometries>
  <library_visual_scenes>
    <visual_scene id="Scene" name="Scene">
      <node id="Cube_077" name="Cube.077" type="NODE">
        <matrix sid="transform">0.025 0 -1.45519e-12 -0.356 -1.45519e-12 -4.61853e-16 -0.025 -0.07999998 0 0.13 0 -2.23517e-8 0 0 0 1</matrix>
        <instance_geometry url="#Cube_098-mesh" name="Cube.077"/>
      </node>
    </visual_scene>
  </library_visual_scenes>
  <scene>
    <instance_visual_scene url="#Scene"/>
  </scene>
</COLLADA>