<?xml version="1.0" encoding="utf-8"?>
<COLLADA xmlns="http://www.collada.org/2005/11/COLLADASchema" version="1.4.1" xmlns:xsi="http://www.w3.org/2001/XMLSchema-instance">
  <asset>
    <contributor>
      <author>Blender User</author>
      <authoring_tool>Blender 2.83.20 commit date:2022-04-19, commit time:16:00, hash:a56e2faeb7a9</authoring_tool>
    </contributor>
    <created>2026-06-26T16:57:45</created>
    <modified>2026-06-26T16:57:45</modified>
    <unit name="meter" meter="1"/>
    <up_axis>Z_UP</up_axis>
  </asset>
  <library_effects/>
  <library_images/>
  <library_geometries>
    <geometry id="Cylinder_026-mesh" name="Cylinder.026">
      <mesh>
        <source id="Cylinder_026-mesh-positions">
          <float_array id="Cylinder_026-mesh-positions-array" count="216">0 1 -1 0 1 1 0.1950903 0.9807853 -1 0.1950903 0.9807853 1 0.3826835 0.9238795 -1 0.3826835 0.9238795 1 0.5555703 0.8314696 -1 0.5555703 0.8314696 1 0.7071068 0.7071068 -1 0.7071068 0.7071068 1 0.8314697 0.5555702 -1 0.8314697 0.5555702 1 0.9238795 0.3826834 -1 0.9238795 0.3826834 1 0.9807853 0.1950903 -1 0.9807853 0.1950903 1 1 0 -1 1 0 1 0.9807853 -0.1950902 -1 0.9807853 -0.1950902 1 0.9238796 -0.3826833 -1 0.9238796 -0.3826833 1 0.8314697 -0.5555702 -1 0.8314697 -0.5555702 1 0.7071068 -0.7071068 -1 0.7071068 -0.7071068 1 0.5555702 -0.8314697 -1 0.5555702 -0.8314697 1 0.3826833 -0.9238796 -1 0.3826833 -0.9238796 1 0.1950901 -0.9807853 -1 0.1950901 -0.9807853 1 -3.25841e-7 -1 -1 -3.25841e-7 -1 1 -0.1950907 -0.9807852 -1 -0.1950907 -0.9807852 1 -0.3826839 -0.9238793 -1 -0.3826839 -0.9238793 1 -0.5555707 -0.8314693 -1 -0.5555707 -0.8314693 1 -0.7071073 -0.7071064 -1 -0.7071073 -0.7071064 1 -0.83147 -0.5555697 -1 -0.83147 -0.5555697 1 -0.9238799 -0.3826827 -1 -0.9238799 -0.3826827 1 -0.9807854 -0.1950894 -1 -0.9807854 -0.1950894 1 -1 9.65599e-7 -1 -1 9.65599e-7 1 -0.9807851 0.1950913 -1 -0.9807851 0.1950913 1 -0.9238791 0.3826845 -1 -0.9238791 0.3826845 1 -0.8314689 0.5555713 -1 -0.8314689 0.5555713 1 -0.7071059 0.7071077 -1 -0.7071059 0.7071077 1 -0.5555691 0.8314704 -1 -0.5555691 0.8314704 1 -0.3826821 0.9238801 -1 -0.3826821 0.9238801 1 -0.1950888 0.9807856 -1 -0.1950888 0.9807856 1 -9.15327 4.118006 1.216664 -8.156294 5.851799 1.216664 -9.15327 4.118006 -1.005558 -8.156294 5.851799 -1.005558 -0.4843015 -0.8668718 1.216665 0.5126739 0.8669217 1.216665 -0.4843015 -0.8668718 -1.005557 0.5126739 0.8669217 -1.005557</float_array>
          <technique_common>
            <accessor source="#Cylinder_026-mesh-positions-array" count="72" stride="3">
              <param name="X" type="float"/>
              <param name="Y" type="float"/>
              <param name="Z" type="float"/>
            </accessor>
          </technique_common>
        </source>
        <source id="Cylinder_026-mesh-normals">
          <float_array id="Cylinder_026-mesh-normals-array" count="210">0.09801727 0.9951847 0 0.2902846 0.9569405 0 0.4713967 0.8819213 0 0.6343935 0.7730103 0 0.7730106 0.6343932 0 0.8819215 0.4713966 0 0.9569404 0.2902848 0 0.9951847 0.09801727 0 0.9951848 -0.09801667 0 0.9569404 -0.2902848 0 0.8819214 -0.4713968 0 0.7730103 -0.6343936 0 0.6343934 -0.7730104 0 0.4713968 -0.8819214 0 0.2902842 -0.9569405 0 0.09801691 -0.9951848 0 -0.09801757 -0.9951848 0 -0.2902852 -0.9569402 0 -0.4713971 -0.8819211 0 -0.6343939 -0.77301 0 -0.7730109 -0.6343929 0 -0.8819217 -0.4713961 0 -0.9569407 -0.2902834 0 -0.9951849 -0.09801602 0 -0.9951847 0.09801787 0 -0.95694 0.2902858 0 -0.8819208 0.4713979 0 -0.7730096 0.6343944 0 -0.6343926 0.7730111 0 -0.4713955 0.881922 0 0 0 1 -0.290283 0.9569408 0 -0.0980165 0.9951848 0 0 0 -1 -0.8668965 0.4984883 0 0 -1.38997e-7 -1 0.8668969 -0.4984878 0 0 1.38997e-7 1 -0.4984877 -0.8668968 0 0.4984877 0.8668968 0 0.2902847 0.9569404 0 0.6343932 0.7730106 0 0.7730103 0.6343936 0 0.9951847 -0.09801727 0 0.8819216 -0.4713962 0 0.7730106 -0.6343932 0 0.2902843 -0.9569405 0 -0.2902852 -0.9569402 0 -0.6343936 -0.7730103 0 -0.7730111 -0.6343926 0 -0.9569405 -0.2902839 0 -0.9951848 -0.09801661 0 -0.9951846 0.09801846 0 -0.881921 0.4713975 0 -0.6343923 0.7730113 0 0 0 1 -3.97511e-6 0 1 3.97512e-6 0 1 1.43703e-6 0 1 -7.77715e-7 0 1 -2.87796e-7 0 1 -0.2902831 0.9569409 0 -3.97511e-6 0 -1 3.97512e-6 0 -1 3.88857e-7 0 -1 0 0 -1 -0.8668968 0.4984876 0 0.8668968 -0.4984877 0 0 1.38997e-7 1 0.4984877 0.8668968 0</float_array>
          <technique_common>
            <accessor source="#Cylinder_026-mesh-normals-array" count="70" stride="3">
              <param name="X" type="float"/>
              <param name="Y" type="float"/>
              <param name="Z" type="float"/>
            </accessor>
          </technique_common>
        </source>
        <source id="Cylinder_026-mesh-map-0">
          <float_array id="Cylinder_026-mesh-map-0-array" count="816">1 1 0.96875 0.5 1 0.5 0.96875 1 0.9375 0.5 0.96875 0.5 0.9375 1 0.90625 0.5 0.9375 0.5 0.90625 1 0.875 0.5 0.90625 0.5 0.875 1 0.84375 0.5 0.875 0.5 0.84375 1 0.8125 0.5 0.84375 0.5 0.8125 1 0.78125 0.5 0.8125 0.5 0.78125 1 0.75 0.5 0.78125 0.5 0.75 1 0.71875 0.5 0.75 0.5 0.71875 1 0.6875 0.5 0.71875 0.5 0.6875 1 0.65625 0.5 0.6875 0.5 0.65625 1 0.625 0.5 0.65625 0.5 0.625 1 0.59375 0.5 0.625 0.5 0.59375 1 0.5625 0.5 0.59375 0.5 0.5625 1 0.53125 0.5 0.5625 0.5 0.53125 1 0.5 0.5 0.53125 0.5 0.5 1 0.46875 0.5 0.5 0.5 0.46875 1 0.4375 0.5 0.46875 0.5 0.4375 1 0.40625 0.5 0.4375 0.5 0.40625 1 0.375 0.5 0.40625 0.5 0.375 1 0.34375 0.5 0.375 0.5 0.34375 1 0.3125 0.5 0.34375 0.5 0.3125 1 0.28125 0.5 0.3125 0.5 0.28125 1 0.25 0.5 0.28125 0.5 0.25 1 0.21875 0.5 0.25 0.5 0.21875 1 0.1875 0.5 0.21875 0.5 0.1875 1 0.15625 0.5 0.1875 0.5 0.15625 1 0.125 0.5 0.15625 0.5 0.125 1 0.09375 0.5 0.125 0.5 0.09375 1 0.0625 0.5 0.09375 0.5 0.02826899 0.3418443 0.1581559 0.02826893 0.4717311 0.158156 0.0625 1 0.03125 0.5 0.0625 0.5 0.03125 1 0 0.5 0.03125 0.5 0.9853885 0.2968217 0.7968216 0.01461148 0.5146115 0.2031785 0.625 0 0.375 0.25 0.375 0 0.625 0.25 0.375 0.5 0.375 0.25 0.375 0.5 0.625 0.75 0.375 0.75 0.375 0.75 0.625 1 0.375 1 0.375 0.5 0.125 0.75 0.125 0.5 0.625 0.5 0.875 0.75 0.625 0.75 1 1 0.96875 1 0.96875 0.5 0.96875 1 0.9375 1 0.9375 0.5 0.9375 1 0.90625 1 0.90625 0.5 0.90625 1 0.875 1 0.875 0.5 0.875 1 0.84375 1 0.84375 0.5 0.84375 1 0.8125 1 0.8125 0.5 0.8125 1 0.78125 1 0.78125 0.5 0.78125 1 0.75 1 0.75 0.5 0.75 1 0.71875 1 0.71875 0.5 0.71875 1 0.6875 1 0.6875 0.5 0.6875 1 0.65625 1 0.65625 0.5 0.65625 1 0.625 1 0.625 0.5 0.625 1 0.59375 1 0.59375 0.5 0.59375 1 0.5625 1 0.5625 0.5 0.5625 1 0.53125 1 0.53125 0.5 0.53125 1 0.5 1 0.5 0.5 0.5 1 0.46875 1 0.46875 0.5 0.46875 1 0.4375 1 0.4375 0.5 0.4375 1 0.40625 1 0.40625 0.5 0.40625 1 0.375 1 0.375 0.5 0.375 1 0.34375 1 0.34375 0.5 0.34375 1 0.3125 1 0.3125 0.5 0.3125 1 0.28125 1 0.28125 0.5 0.28125 1 0.25 1 0.25 0.5 0.25 1 0.21875 1 0.21875 0.5 0.21875 1 0.1875 1 0.1875 0.5 0.1875 1 0.15625 1 0.15625 0.5 0.15625 1 0.125 1 0.125 0.5 0.125 1 0.09375 1 0.09375 0.5 0.09375 1 0.0625 1 0.0625 0.5 0.341844 0.4717311 0.2968217 0.4853885 0.25 0.49 0.25 0.49 0.2031787 0.4853885 0.341844 0.4717311 0.2031787 0.4853885 0.1581563 0.4717312 0.341844 0.4717311 0.1581563 0.4717312 0.1166634 0.4495529 0.08029454 0.4197058 0.08029454 0.4197058 0.05044746 0.3833371 0.02826899 0.3418443 0.02826899 0.3418443 0.01461154 0.2968219 0.00999999 0.2500002 0.00999999 0.2500002 0.01461148 0.2031785 0.02826899 0.3418443 0.01461148 0.2031785 0.02826881 0.1581561 0.02826899 0.3418443 0.02826881 0.1581561 0.05044716 0.1166633 0.1581559 0.02826893 0.05044716 0.1166633 0.08029425 0.08029443 0.1581559 0.02826893 0.08029425 0.08029443 0.116663 0.05044734 0.1581559 0.02826893 0.1581559 0.02826893 0.2031782 0.01461154 0.2499999 0.00999999 0.2499999 0.00999999 0.2968216 0.01461148 0.341844 0.02826887 0.341844 0.02826887 0.3833369 0.05044728 0.4197056 0.08029437 0.4197056 0.08029437 0.4495527 0.1166631 0.4717311 0.158156 0.4717311 0.158156 0.4853885 0.2031783 0.49 0.25 0.49 0.25 0.4853885 0.2968217 0.4717311 0.158156 0.4853885 0.2968217 0.4717311 0.341844 0.4717311 0.158156 0.4717311 0.341844 0.4495527 0.3833369 0.4197056 0.4197056 0.4197056 0.4197056 0.3833369 0.4495527 0.341844 0.4717311 0.1581563 0.4717312 0.08029454 0.4197058 0.341844 0.4717311 0.08029454 0.4197058 0.02826899 0.3418443 0.341844 0.4717311 0.1581559 0.02826893 0.2499999 0.00999999 0.4717311 0.158156 0.2499999 0.00999999 0.341844 0.02826887 0.4717311 0.158156 0.341844 0.02826887 0.4197056 0.08029437 0.4717311 0.158156 0.4717311 0.341844 0.4197056 0.4197056 0.4717311 0.158156 0.4197056 0.4197056 0.341844 0.4717311 0.4717311 0.158156 0.02826899 0.3418443 0.02826881 0.1581561 0.1581559 0.02826893 0.341844 0.4717311 0.02826899 0.3418443 0.4717311 0.158156 0.0625 1 0.03125 1 0.03125 0.5 0.03125 1 0 1 0 0.5 0.7031787 0.4853885 0.75 0.49 0.7968217 0.4853885 0.7968217 0.4853885 0.841844 0.4717311 0.8833369 0.4495527 0.8833369 0.4495527 0.9197056 0.4197056 0.9495527 0.3833369 0.9495527 0.3833369 0.9717311 0.341844 0.8833369 0.4495527 0.9717311 0.341844 0.9853885 0.2968217 0.8833369 0.4495527 0.9853885 0.2968217 0.99 0.25 0.9853885 0.2031783 0.9853885 0.2031783 0.9717311 0.158156 0.9853885 0.2968217 0.9717311 0.158156 0.9495527 0.1166631 0.9853885 0.2968217 0.9495527 0.1166631 0.9197056 0.08029437 0.7968216 0.01461148 0.9197056 0.08029437 0.8833369 0.05044728 0.7968216 0.01461148 0.8833369 0.05044728 0.841844 0.02826887 0.7968216 0.01461148 0.7968216 0.01461148 0.75 0.00999999 0.7031782 0.01461154 0.7031782 0.01461154 0.6581559 0.02826893 0.616663 0.05044734 0.616663 0.05044734 0.5802943 0.08029443 0.5504472 0.1166633 0.5504472 0.1166633 0.5282688 0.1581561 0.5146115 0.2031785 0.5146115 0.2031785 0.51 0.2500002 0.5146116 0.2968219 0.5146116 0.2968219 0.5282691 0.3418443 0.5504475 0.3833371 0.5504475 0.3833371 0.5802946 0.4197058 0.7031787 0.4853885 0.5802946 0.4197058 0.6166634 0.4495529 0.7031787 0.4853885 0.6166634 0.4495529 0.6581563 0.4717312 0.7031787 0.4853885 0.7031787 0.4853885 0.7968217 0.4853885 0.8833369 0.4495527 0.7968216 0.01461148 0.7031782 0.01461154 0.5146115 0.2031785 0.7031782 0.01461154 0.616663 0.05044734 0.5146115 0.2031785 0.616663 0.05044734 0.5504472 0.1166633 0.5146115 0.2031785 0.5146115 0.2031785 0.5146116 0.2968219 0.7031787 0.4853885 0.5146116 0.2968219 0.5504475 0.3833371 0.7031787 0.4853885 0.7031787 0.4853885 0.8833369 0.4495527 0.9853885 0.2968217 0.9853885 0.2968217 0.9495527 0.1166631 0.7968216 0.01461148 0.7031787 0.4853885 0.9853885 0.2968217 0.5146115 0.2031785 0.625 0 0.625 0.25 0.375 0.25 0.625 0.25 0.625 0.5 0.375 0.5 0.375 0.5 0.625 0.5 0.625 0.75 0.375 0.75 0.625 0.75 0.625 1 0.375 0.5 0.375 0.75 0.125 0.75 0.625 0.5 0.875 0.5 0.875 0.75</float_array>
          <technique_common>
            <accessor source="#Cylinder_026-mesh-map-0-array" count="408" stride="2">
              <param name="S" type="float"/>
              <param name="T" type="float"/>
            </accessor>
          </technique_common>
        </source>
        <vertices id="Cylinder_026-mesh-vertices">
          <input semantic="POSITION" source="#Cylinder_026-mesh-positions"/>
        </vertices>
        <triangles count="136">
          <input semantic="VERTEX" source="#Cylinder_026-mesh-vertices" offset="0"/>
          <input semantic="NORMAL" source="#Cylinder_026-mesh-normals" offset="1"/>
          <input semantic="TEXCOORD" source="#Cylinder_026-mesh-map-0" offset="2" set="0"/>
          <p>1 0 0 2 0 1 0 0 2 3 1 3 4 1 4 2 1 5 5 2 6 6 2 7 4 2 8 7 3 9 8 3 10 6 3 11 9 4 12 10 4 13 8 4 14 11 5 15 12 5 16 10 5 17 13 6 18 14 6 19 12 6 20 15 7 21 16 7 22 14 7 23 17 8 24 18 8 25 16 8 26 19 9 27 20 9 28 18 9 29 21 10 30 22 10 31 20 10 32 23 11 33 24 11 34 22 11 35 25 12 36 26 12 37 24 12 38 27 13 39 28 13 40 26 13 41 29 14 42 30 14 43 28 14 44 31 15 45 32 15 46 30 15 47 33 16 48 34 16 49 32 16 50 35 17 51 36 17 52 34 17 53 37 18 54 38 18 55 36 18 56 39 19 57 40 19 58 38 19 59 41 20 60 42 20 61 40 20 62 43 21 63 44 21 64 42 21 65 45 22 66 46 22 67 44 22 68 47 23 69 48 23 70 46 23 71 49 24 72 50 24 73 48 24 74 51 25 75 52 25 76 50 25 77 53 26 78 54 26 79 52 26 80 55 27 81 56 27 82 54 27 83 57 28 84 58 28 85 56 28 86 59 29 87 60 29 88 58 29 89 53 30 90 37 30 91 21 30 92 61 31 93 62 31 94 60 31 95 63 32 96 0 32 97 62 32 98 14 33 99 30 33 100 46 33 101 65 34 102 66 34 103 64 34 104 67 35 105 70 35 106 66 35 107 70 36 108 69 36 109 68 36 110 68 37 111 65 37 112 64 37 113 70 38 114 64 38 115 66 38 116 71 39 117 65 39 118 69 39 119 1 0 120 3 0 121 2 0 122 3 40 123 5 40 124 4 40 125 5 2 126 7 2 127 6 2 128 7 41 129 9 41 130 8 41 131 9 42 132 11 42 133 10 42 134 11 5 135 13 5 136 12 5 137 13 6 138 15 6 139 14 6 140 15 7 141 17 7 142 16 7 143 17 43 144 19 43 145 18 43 146 19 9 147 21 9 148 20 9 149 21 44 150 23 44 151 22 44 152 23 45 153 25 45 154 24 45 155 25 12 156 27 12 157 26 12 158 27 13 159 29 13 160 28 13 161 29 46 162 31 46 163 30 46 164 31 15 165 33 15 166 32 15 167 33 16 168 35 16 169 34 16 170 35 47 171 37 47 172 36 47 173 37 18 174 39 18 175 38 18 176 39 48 177 41 48 178 40 48 179 41 49 180 43 49 181 42 49 182 43 21 183 45 21 184 44 21 185 45 50 186 47 50 187 46 50 188 47 51 189 49 51 190 48 51 191 49 52 192 51 52 193 50 52 194 51 25 195 53 25 196 52 25 197 53 53 198 55 53 199 54 53 200 55 27 201 57 27 202 56 27 203 57 54 204 59 54 205 58 54 206 59 29 207 61 29 208 60 29 209 5 55 210 3 55 211 1 55 212 1 55 213 63 55 214 5 55 215 63 55 216 61 55 217 5 55 218 61 55 219 59 55 220 57 55 221 57 55 222 55 55 223 53 55 224 53 56 225 51 56 226 49 56 227 49 55 228 47 55 229 53 55 230 47 55 231 45 55 232 53 55 233 45 55 234 43 55 235 37 55 236 43 55 237 41 55 238 37 55 239 41 55 240 39 55 241 37 55 242 37 55 243 35 55 244 33 55 245 33 55 246 31 55 247 29 55 248 29 55 249 27 55 250 25 55 251 25 55 252 23 55 253 21 55 254 21 57 255 19 57 256 17 57 257 17 55 258 15 55 259 21 55 260 15 55 261 13 55 262 21 55 263 13 55 264 11 55 265 9 55 266 9 55 267 7 55 268 5 55 269 61 55 270 57 55 271 5 55 272 57 55 273 53 55 274 5 55 275 37 55 276 33 55 277 21 55 278 33 55 279 29 55 280 21 55 281 29 55 282 25 55 283 21 55 284 13 58 285 9 58 286 21 58 287 9 59 288 5 59 289 21 59 290 53 60 291 45 60 292 37 60 293 5 55 294 53 55 295 21 55 296 61 61 297 63 61 298 62 61 299 63 32 300 1 32 301 0 32 302 62 33 303 0 33 304 2 33 305 2 33 306 4 33 307 6 33 308 6 33 309 8 33 310 10 33 311 10 33 312 12 33 313 6 33 314 12 33 315 14 33 316 6 33 317 14 33 318 16 33 319 18 33 320 18 33 321 20 33 322 14 33 323 20 33 324 22 33 325 14 33 326 22 33 327 24 33 328 30 33 329 24 33 330 26 33 331 30 33 332 26 33 333 28 33 334 30 33 335 30 33 336 32 33 337 34 33 338 34 33 339 36 33 340 38 33 341 38 33 342 40 33 343 42 33 344 42 33 345 44 33 346 46 33 347 46 62 348 48 62 349 50 62 350 50 63 351 52 63 352 54 63 353 54 33 354 56 33 355 62 33 356 56 33 357 58 33 358 62 33 359 58 33 360 60 33 361 62 33 362 62 33 363 2 33 364 6 33 365 30 33 366 34 33 367 46 33 368 34 33 369 38 33 370 46 33 371 38 33 372 42 33 373 46 33 374 46 64 375 50 64 376 62 64 377 50 33 378 54 33 379 62 33 380 62 33 381 6 33 382 14 33 383 14 33 384 22 33 385 30 33 386 62 65 387 14 65 388 46 65 389 65 66 390 67 66 391 66 66 392 67 35 393 71 35 394 70 35 395 70 67 396 71 67 397 69 67 398 68 68 399 69 68 400 65 68 401 70 38 402 68 38 403 64 38 404 71 69 405 67 69 406 65 69 407</p>
        </triangles>
      </mesh>
    </geometry>
  </library_geometries>
  <library_visual_scenes>
    <visual_scene id="Scene" name="Scene">
      <node id="Cylinder_024" name="Cylinder.024" type="NODE">
        <matrix sid="transform">0.01499998 2.61801e-5 -1.82504e-12 -2.12797e-4 2.61801e-5 -0.01499998 1.96701e-10 0.1 -4.93908e-12 -6.5568e-10 -0.0045 0.035475 0 0 0 1</matrix>
        <instance_geometry url="#Cylinder_026-mesh" name="Cylinder.024"/>
      </node>
    </visual_scene>
  </library_visual_scenes>
  <scene>
    <instance_visual_scene url="#Scene"/>
  </scene>
</COLLADA>