<?xml version="1.0" encoding="utf-8"?>
<COLLADA xmlns="http://www.collada.org/2005/11/COLLADASchema" version="1.4.1" xmlns:xsi="http://www.w3.org/2001/XMLSchema-instance">
  <asset>
    <contributor>
      <author>Blender User</author>
      <authoring_tool>Blender 4.5.10 LTS commit date:2026-05-18, commit time:13:28, hash:6dc0b208d1b5</authoring_tool>
    </contributor>
    <created>2026-06-16T23:31:48</created>
    <modified>2026-06-16T23:31:48</modified>
    <unit name="meter" meter="1"/>
    <up_axis>Z_UP</up_axis>
  </asset>
  <library_effects/>
  <library_images/>
  <library_geometries>
    <geometry id="Cube_023-mesh" name="Cube.023">
      <mesh>
        <source id="Cube_023-mesh-positions">
          <float_array id="Cube_023-mesh-positions-array" count="186">-0.02699995 -0.00999999 0.009509801 -0.02699995 -0.00999999 0.02950978 -0.02699995 0.00999999 0.009509801 -0.02699995 0.00999999 0.02950978 -0.006999969 -0.00999999 0.009509801 -0.006999969 -0.00999999 0.02950978 -0.006999969 0.00999999 0.009509801 -0.006999969 0.00999999 0.02950978 -0.02199995 -0.003749966 0.009705781 -0.02199995 -0.003749966 0.02931362 -0.02199995 0.003749966 0.009705781 -0.02199995 0.003749966 0.02931362 0.018 -0.002243638 0.009705781 0.018 -0.002243638 0.02931362 0.018 0.002243638 0.009705781 0.018 0.002243638 0.02931362 -0.006999969 0.008131861 0.009705841 -0.02699995 0.008131861 -0.02950978 -0.02699995 0.008131861 0.009705841 -0.006999969 0.009431838 0.009705841 -0.02699995 0.009431838 -0.02950978 -0.02699995 0.009431838 0.009705841 -0.006999969 -0.009368062 0.009705841 -0.02699995 -0.009368062 -0.02950978 -0.02699995 -0.009368062 0.009705841 -0.006999969 -0.008068084 0.009705841 -0.02699995 -0.008068084 -0.02950978 -0.02699995 -0.008068084 0.009705841 0.018 0.002249956 0.009705841 0.018 0.002249956 0.02931368 0.01975578 0.002206742 0.009705841 0.01975578 0.002206742 0.02931368 0.02144414 0.002078711 0.009705841 0.02144414 0.002078711 0.02931368 0.02300012 0.001870751 0.009705841 0.02300012 0.001870751 0.02931368 0.02436393 0.001590967 0.009705841 0.02436393 0.001590967 0.02931368 0.02548319 0.001250028 0.009705841 0.02548319 0.001250028 0.02931368 0.02631491 8.61038e-4 0.009705841 0.02631491 8.61038e-4 0.02931368 0.02682703 4.38953e-4 0.009705841 0.02682703 4.38953e-4 0.02931368 0.02699995 0 0.009705841 0.02699995 0 0.02931368 0.02682703 -4.38953e-4 0.009705841 0.02682703 -4.38953e-4 0.02931368 0.02631491 -8.61037e-4 0.009705841 0.02631491 -8.61037e-4 0.02931368 0.02548319 -0.001250028 0.009705841 0.02548319 -0.001250028 0.02931368 0.02436393 -0.001590967 0.009705841 0.02436393 -0.001590967 0.02931368 0.02300012 -0.001870751 0.009705841 0.02300012 -0.001870751 0.02931368 0.02144414 -0.002078711 0.009705841 0.02144414 -0.002078711 0.02931368 0.01975578 -0.002206742 0.009705841 0.01975578 -0.002206742 0.02931368 0.01799994 -0.002249956 0.009705841 0.01799994 -0.002249956 0.02931368</float_array>
          <technique_common>
            <accessor source="#Cube_023-mesh-positions-array" count="62" stride="3">
              <param name="X" type="float"/>
              <param name="Y" type="float"/>
              <param name="Z" type="float"/>
            </accessor>
          </technique_common>
        </source>
        <source id="Cube_023-mesh-normals">
          <float_array id="Cube_023-mesh-normals-array" count="312">-1 0 0 0 1 0 1 0 0 0 -1 0 0 0 -1 0 0 1 -1 0 0 0.03763115 0.9992917 0 1 0 0 0.03763115 -0.9992917 0 0 0 -1 0 0 1 0 -1 0 0 1 0 0 0 1 -1 0 0 0.8908354 0 -0.4543261 0 -1 0 0 1 0 0 0 1 -1 0 0 0.8908354 0 -0.4543261 0.0246154 0.999697 0 0.07561951 0.9971367 0 0.1324503 0.9911896 0 0.2009832 0.9795947 0 0.2914056 0.9565996 0 0.4236664 0.9058182 0 0.6359897 0.7716975 0 0.9303979 0.3665511 0 0.9304006 -0.3665442 0 0.6359869 -0.7716999 0 0.4236668 -0.9058181 0 0.2914056 -0.9565996 0 0.2009832 -0.9795947 0 0.1324504 -0.9911896 0 0.07561939 -0.9971367 0 0.02461534 -0.9996969 0 -1 8.27842e-7 0 0 0 1 0 0 1 0 0 1 0 0 1 0 0 1 0 0 1 0 0 1 0 0 1 0 0 1 0 0 1 0 0 1 0 0 1 0 0 1 0 0 -1 0 0 1 0 0 1 -1 0 0 0 1 0 1 0 0 0 -1 0 0 0 -1 0 0 1 -1 0 0 0.03763115 0.9992917 0 1 0 0 0.03763115 -0.9992917 0 0 0 -1 0 0 1 0 0 1 -1 0 0 0.8908354 0 -0.4543261 0 0 1 -1 0 0 0.8908354 0 -0.4543261 0.0246154 0.999697 0 0.07561951 0.9971367 0 0.1324503 0.9911896 0 0.2009832 0.9795947 0 0.2914056 0.9565996 0 0.4236664 0.9058182 0 0.6359897 0.7716975 0 0.9303979 0.3665511 0 0.9304006 -0.3665442 0 0.6359869 -0.7716999 0 0.4236668 -0.9058181 0 0.2914056 -0.9565996 0 0.2009832 -0.9795947 0 0.1324504 -0.9911896 0 0.07561939 -0.9971367 0 0.02461534 -0.9996969 0 -1 8.27842e-7 0 0 0 -1 0 0 -1 0 0 -1 0 0 -1 0 0 -1 0 0 -1 0 0 -1 0 0 -1 0 0 -1 0 0 -1 0 0 -1 0 0 -1 0 0 -1 0 0 -1</float_array>
          <technique_common>
            <accessor source="#Cube_023-mesh-normals-array" count="104" stride="3">
              <param name="X" type="float"/>
              <param name="Y" type="float"/>
              <param name="Z" type="float"/>
            </accessor>
          </technique_common>
        </source>
        <source id="Cube_023-mesh-map-0">
          <float_array id="Cube_023-mesh-map-0-array" count="624">0.625 0 0.375 0.25 0.375 0 0.625 0.25 0.375 0.5 0.375 0.25 0.625 0.5 0.375 0.75 0.375 0.5 0.625 0.75 0.375 1 0.375 0.75 0.375 0.5 0.125 0.75 0.125 0.5 0.875 0.5 0.625 0.75 0.625 0.5 0.625 0 0.375 0.25 0.375 0 0.625 0.25 0.375 0.5 0.375 0.25 0.625 0.5 0.375 0.75 0.375 0.5 0.625 0.75 0.375 1 0.375 0.75 0.375 0.5 0.125 0.75 0.125 0.5 0.875 0.5 0.625 0.75 0.625 0.5 0.875 0.5 0.625 0.5 0.625 0.75 0.875 0.5 0.625 0.75 0.625 0.5 0.875 0.5 0.625 0.5 0.625 0.5 0.625 0.5 0.625 0.75 0.625 0.75 0.625 0.75 0.875 0.5 0.875 0.5 0.875 0.5 0.625 0.5 0.625 0.75 0.875 0.5 0.625 0.75 0.625 0.5 0.875 0.5 0.625 0.5 0.625 0.5 0.625 0.5 0.625 0.75 0.625 0.75 0.625 0.75 0.875 0.5 0.875 0.5 1 1 0.96875 0.5 1 0.5 0.96875 1 0.9375 0.5 0.96875 0.5 0.9375 1 0.90625 0.5 0.9375 0.5 0.90625 1 0.875 0.5 0.90625 0.5 0.875 1 0.84375 0.5 0.875 0.5 0.84375 1 0.8125 0.5 0.84375 0.5 0.8125 1 0.78125 0.5 0.8125 0.5 0.78125 1 0.75 0.5 0.78125 0.5 0.75 1 0.71875 0.5 0.75 0.5 0.71875 1 0.6875 0.5 0.71875 0.5 0.6875 1 0.65625 0.5 0.6875 0.5 0.65625 1 0.625 0.5 0.65625 0.5 0.625 1 0.59375 0.5 0.625 0.5 0.59375 1 0.5625 0.5 0.59375 0.5 0.5625 1 0.53125 0.5 0.5625 0.5 0.53125 1 0.5 0.5 0.53125 0.5 0.5 0.5 1 1 1 0.5 0 0 0 0 0 0 0 0 0 0 0 0 0 0 0 0 0 0 0 0 0 0 0 0 0 0 0 0 0 0 0 0 0 0 0 0 0 0 0 0 0 0 0 0 0 0 0 0 0 0 0 0 0 0 0 0 0 0 0 0 0 0 0 0 0 0 0 0 0 0 0 0 0 0 0 0 0 0 0.5625 0.5 0.53125 0.5 0.96875 0.5 0 0 0 0 0 0 0 0 0 0 0 0 0.625 0 0.625 0.25 0.375 0.25 0.625 0.25 0.625 0.5 0.375 0.5 0.625 0.5 0.625 0.75 0.375 0.75 0.625 0.75 0.625 1 0.375 1 0.375 0.5 0.375 0.75 0.125 0.75 0.875 0.5 0.875 0.75 0.625 0.75 0.625 0 0.625 0.25 0.375 0.25 0.625 0.25 0.625 0.5 0.375 0.5 0.625 0.5 0.625 0.75 0.375 0.75 0.625 0.75 0.625 1 0.375 1 0.375 0.5 0.375 0.75 0.125 0.75 0.875 0.5 0.875 0.75 0.625 0.75 0.875 0.5 0.875 0.5 0.625 0.5 0.625 0.5 0.625 0.5 0.625 0.75 0.625 0.75 0.625 0.75 0.875 0.5 0.875 0.5 0.875 0.5 0.625 0.5 0.625 0.5 0.625 0.5 0.625 0.75 0.625 0.75 0.625 0.75 0.875 0.5 1 1 0.96875 1 0.96875 0.5 0.96875 1 0.9375 1 0.9375 0.5 0.9375 1 0.90625 1 0.90625 0.5 0.90625 1 0.875 1 0.875 0.5 0.875 1 0.84375 1 0.84375 0.5 0.84375 1 0.8125 1 0.8125 0.5 0.8125 1 0.78125 1 0.78125 0.5 0.78125 1 0.75 1 0.75 0.5 0.75 1 0.71875 1 0.71875 0.5 0.71875 1 0.6875 1 0.6875 0.5 0.6875 1 0.65625 1 0.65625 0.5 0.65625 1 0.625 1 0.625 0.5 0.625 1 0.59375 1 0.59375 0.5 0.59375 1 0.5625 1 0.5625 0.5 0.5625 1 0.53125 1 0.53125 0.5 0.53125 1 0.5 1 0.5 0.5 0.5 0.5 0.5 1 1 1 0.5 0.5 1 0.5 0.53125 0.5 1 0.5 0.96875 0.5 0.53125 0.5 0.96875 0.5 0.9375 0.5 0.5625 0.5 0.9375 0.5 0.90625 0.5 0.59375 0.5 0.90625 0.5 0.875 0.5 0.59375 0.5 0.875 0.5 0.84375 0.5 0.625 0.5 0.59375 0.5 0.875 0.5 0.625 0.5 0.84375 0.5 0.8125 0.5 0.6875 0.5 0.8125 0.5 0.78125 0.5 0.71875 0.5 0.78125 0.5 0.75 0.5 0.71875 0.5 0.71875 0.5 0.6875 0.5 0.8125 0.5 0.6875 0.5 0.65625 0.5 0.84375 0.5 0.65625 0.5 0.625 0.5 0.84375 0.5 0.59375 0.5 0.5625 0.5 0.9375 0.5</float_array>
          <technique_common>
            <accessor source="#Cube_023-mesh-map-0-array" count="312" stride="2">
              <param name="S" type="float"/>
              <param name="T" type="float"/>
            </accessor>
          </technique_common>
        </source>
        <vertices id="Cube_023-mesh-vertices">
          <input semantic="POSITION" source="#Cube_023-mesh-positions"/>
        </vertices>
        <triangles count="104">
          <input semantic="VERTEX" source="#Cube_023-mesh-vertices" offset="0"/>
          <input semantic="NORMAL" source="#Cube_023-mesh-normals" offset="1"/>
          <input semantic="TEXCOORD" source="#Cube_023-mesh-map-0" offset="2" set="0"/>
          <p>1 0 0 2 0 1 0 0 2 3 1 3 6 1 4 2 1 5 7 2 6 4 2 7 6 2 8 5 3 9 0 3 10 4 3 11 6 4 12 0 4 13 2 4 14 3 5 15 5 5 16 7 5 17 9 6 18 10 6 19 8 6 20 11 7 21 14 7 22 10 7 23 15 8 24 12 8 25 14 8 26 13 9 27 8 9 28 12 9 29 14 10 30 8 10 31 10 10 32 11 11 33 13 11 34 15 11 35 16 12 36 18 12 37 17 12 38 19 13 39 20 13 40 21 13 41 16 14 42 21 14 43 18 14 44 18 15 45 20 15 46 17 15 47 17 16 48 19 16 49 16 16 50 22 17 51 24 17 52 23 17 53 25 18 54 26 18 55 27 18 56 22 19 57 27 19 58 24 19 59 24 20 60 26 20 61 23 20 62 23 21 63 25 21 64 22 21 65 29 22 66 30 22 67 28 22 68 31 23 69 32 23 70 30 23 71 33 24 72 34 24 73 32 24 74 35 25 75 36 25 76 34 25 77 37 26 78 38 26 79 36 26 80 39 27 81 40 27 82 38 27 83 41 28 84 42 28 85 40 28 86 43 29 87 44 29 88 42 29 89 45 30 90 46 30 91 44 30 92 47 31 93 48 31 94 46 31 95 49 32 96 50 32 97 48 32 98 51 33 99 52 33 100 50 33 101 53 34 102 54 34 103 52 34 104 55 35 105 56 35 106 54 35 107 57 36 108 58 36 109 56 36 110 59 37 111 60 37 112 58 37 113 60 38 114 29 38 115 28 38 116 31 39 117 29 39 118 61 39 119 37 40 120 35 40 121 33 40 122 31 41 123 61 41 124 37 41 125 49 42 126 45 42 127 43 42 128 61 43 129 41 43 130 37 43 131 59 44 132 57 44 133 55 44 134 43 45 135 41 45 136 61 45 137 43 46 138 61 46 139 53 46 140 53 47 141 51 47 142 49 47 143 41 48 144 39 48 145 37 48 146 43 49 147 53 49 148 49 49 149 59 50 150 55 50 151 53 50 152 61 51 153 59 51 154 53 51 155 56 52 156 58 52 157 30 52 158 31 53 159 37 53 160 33 53 161 49 54 162 47 54 163 45 54 164 1 55 165 3 55 166 2 55 167 3 56 168 7 56 169 6 56 170 7 57 171 5 57 172 4 57 173 5 58 174 1 58 175 0 58 176 6 59 177 4 59 178 0 59 179 3 60 180 1 60 181 5 60 182 9 61 183 11 61 184 10 61 185 11 62 186 15 62 187 14 62 188 15 63 189 13 63 190 12 63 191 13 64 192 9 64 193 8 64 194 14 65 195 12 65 196 8 65 197 11 66 198 9 66 199 13 66 200 16 67 201 19 67 202 21 67 203 18 68 204 21 68 205 20 68 206 17 69 207 20 69 208 19 69 209 22 70 210 25 70 211 27 70 212 24 71 213 27 71 214 26 71 215 23 72 216 26 72 217 25 72 218 29 73 219 31 73 220 30 73 221 31 74 222 33 74 223 32 74 224 33 75 225 35 75 226 34 75 227 35 76 228 37 76 229 36 76 230 37 77 231 39 77 232 38 77 233 39 78 234 41 78 235 40 78 236 41 79 237 43 79 238 42 79 239 43 80 240 45 80 241 44 80 242 45 81 243 47 81 244 46 81 245 47 82 246 49 82 247 48 82 248 49 83 249 51 83 250 50 83 251 51 84 252 53 84 253 52 84 254 53 85 255 55 85 256 54 85 257 55 86 258 57 86 259 56 86 260 57 87 261 59 87 262 58 87 263 59 88 264 61 88 265 60 88 266 60 89 267 61 89 268 29 89 269 60 90 270 28 90 271 58 90 272 28 91 273 30 91 274 58 91 275 30 92 276 32 92 277 56 92 278 32 93 279 34 93 280 54 93 281 34 94 282 36 94 283 54 94 284 36 95 285 38 95 286 52 95 287 54 96 288 36 96 289 52 96 290 38 97 291 40 97 292 48 97 293 40 98 294 42 98 295 46 98 296 42 99 297 44 99 298 46 99 299 46 100 300 48 100 301 40 100 302 48 101 303 50 101 304 38 101 305 50 102 306 52 102 307 38 102 308 54 103 309 56 103 310 32 103 311</p>
        </triangles>
      </mesh>
    </geometry>
  </library_geometries>
  <library_visual_scenes>
    <visual_scene id="Scene" name="Scene">
      <node id="Cube_022" name="Cube.022" type="NODE">
        <matrix sid="transform">10 0 0 0 0 0 -2.55 0 0 40 0 0 0 0 0 1</matrix>
        <instance_geometry url="#Cube_023-mesh" name="Cube.022"/>
      </node>
    </visual_scene>
  </library_visual_scenes>
  <scene>
    <instance_visual_scene url="#Scene"/>
  </scene>
</COLLADA>