<?xml version="1.0" encoding="utf-8"?>
<COLLADA xmlns="http://www.collada.org/2005/11/COLLADASchema" version="1.4.1" xmlns:xsi="http://www.w3.org/2001/XMLSchema-instance">
  <asset>
    <contributor>
      <author>Blender User</author>
      <authoring_tool>Blender 4.5.10 LTS commit date:2026-05-18, commit time:13:28, hash:6dc0b208d1b5</authoring_tool>
    </contributor>
    <created>2026-06-16T23:43:15</created>
    <modified>2026-06-16T23:43:15</modified>
    <unit name="meter" meter="1"/>
    <up_axis>Z_UP</up_axis>
  </asset>
  <library_effects>
    <effect id="Material_test-effect">
      <profile_COMMON>
        <technique sid="common">
          <lambert>
            <emission>
              <color sid="emission">0 0 0 1</color>
            </emission>
            <diffuse>
              <color sid="diffuse">0.8 0.8 0.8 1</color>
            </diffuse>
            <reflectivity>
              <float sid="specular">1</float>
            </reflectivity>
            <index_of_refraction>
              <float sid="ior">1</float>
            </index_of_refraction>
          </lambert>
        </technique>
      </profile_COMMON>
    </effect>
  </library_effects>
  <library_images>
    <image id="checker_image" name="checker_image">
      <init_from>check.png</init_from>
    </image>
  </library_images>
  <library_materials>
    <material id="Material_test-material" name="Material_test">
      <instance_effect url="#Material_test-effect"/>
    </material>
  </library_materials>
  <library_geometries>
    <geometry id="Cylinder-mesh" name="Cylinder">
      <mesh>
        <source id="Cylinder-mesh-positions">
          <float_array id="Cylinder-mesh-positions-array" count="192">0 0.1 -0.04999995 0 0.1 0.04999995 0.01950901 0.09807848 -0.04999995 0.01950901 0.09807848 0.04999995 0.03826832 0.09238791 -0.04999995 0.03826832 0.09238791 0.04999995 0.05555701 0.08314692 -0.04999995 0.05555701 0.08314692 0.04999995 0.07071065 0.07071065 -0.04999995 0.07071065 0.07071065 0.04999995 0.08314692 0.05555701 -0.04999995 0.08314692 0.05555701 0.04999995 0.09238791 0.03826832 -0.04999995 0.09238791 0.03826832 0.04999995 0.09807848 0.01950901 -0.04999995 0.09807848 0.01950901 0.04999995 0.1 0 -0.04999995 0.1 0 0.04999995 0.09807848 -0.01950901 -0.04999995 0.09807848 -0.01950901 0.04999995 0.09238791 -0.03826832 -0.04999995 0.09238791 -0.03826832 0.04999995 0.08314692 -0.05555701 -0.04999995 0.08314692 -0.05555701 0.04999995 0.07071065 -0.07071065 -0.04999995 0.07071065 -0.07071065 0.04999995 0.05555701 -0.08314692 -0.04999995 0.05555701 -0.08314692 0.04999995 0.03826832 -0.09238797 -0.04999995 0.03826832 -0.09238797 0.04999995 0.01950895 -0.09807848 -0.04999995 0.01950895 -0.09807848 0.04999995 0 -0.1 -0.04999995 0 -0.1 0.04999995 -0.01950907 -0.09807848 -0.04999995 -0.01950907 -0.09807848 0.04999995 -0.03826838 -0.09238791 -0.04999995 -0.03826838 -0.09238791 0.04999995 -0.05555707 -0.08314692 -0.04999995 -0.05555707 -0.08314692 0.04999995 -0.07071071 -0.07071059 -0.04999995 -0.07071071 -0.07071059 0.04999995 -0.08314698 -0.05555695 -0.04999995 -0.08314698 -0.05555695 0.04999995 -0.09238797 -0.03826826 -0.04999995 -0.09238797 -0.03826826 0.04999995 -0.09807854 -0.01950889 -0.04999995 -0.09807854 -0.01950889 0.04999995 -0.1 0 -0.04999995 -0.1 0 0.04999995 -0.09807848 0.01950913 -0.04999995 -0.09807848 0.01950913 0.04999995 -0.09238791 0.03826844 -0.04999995 -0.09238791 0.03826844 0.04999995 -0.08314687 0.05555713 -0.04999995 -0.08314687 0.05555713 0.04999995 -0.07071059 0.07071077 -0.04999995 -0.07071059 0.07071077 0.04999995 -0.05555689 0.08314704 -0.04999995 -0.05555689 0.08314704 0.04999995 -0.0382682 0.09238797 -0.04999995 -0.0382682 0.09238797 0.04999995 -0.01950883 0.09807854 -0.04999995 -0.01950883 0.09807854 0.04999995</float_array>
          <technique_common>
            <accessor source="#Cylinder-mesh-positions-array" count="64" stride="3">
              <param name="X" type="float"/>
              <param name="Y" type="float"/>
              <param name="Z" type="float"/>
            </accessor>
          </technique_common>
        </source>
        <source id="Cylinder-mesh-normals">
          <float_array id="Cylinder-mesh-normals-array" count="372">0.09801727 0.9951848 0 0.2902846 0.9569404 0 0.4713968 0.8819212 0 0.6343931 0.7730106 0 0.7730106 0.6343932 0 0.8819214 0.4713965 0 0.9569403 0.2902847 0 0.9951847 0.09801727 0 0.9951847 -0.09801691 0 0.9569403 -0.2902847 0 0.8819214 -0.4713965 0 0.7730106 -0.6343932 0 0.6343932 -0.7730106 0 0.4713968 -0.8819212 0 0.2902842 -0.9569405 0 0.09801685 -0.9951847 0 -0.09801757 -0.9951847 0 -0.290285 -0.9569403 0 -0.4713972 -0.881921 0 -0.6343936 -0.7730102 0 -0.773011 -0.6343927 0 -0.8819216 -0.4713961 0 -0.9569407 -0.2902835 0 -0.9951848 -0.09801644 0 -0.9951846 0.09801799 0 -0.9569399 0.290286 0 -0.8819208 0.4713976 0 -0.7730098 0.6343941 0 -0.6343923 0.7730113 0 -0.4713954 0.881922 0 0 0 1 -0.290283 0.9569408 0 -0.0980165 0.9951848 0 0 0 -1 0.09801727 0.9951848 0 0.2902846 0.9569404 0 0.4713968 0.8819212 0 0.6343931 0.7730106 0 0.7730106 0.6343932 0 0.8819214 0.4713965 0 0.9569403 0.2902847 0 0.9951847 0.09801727 0 0.9951847 -0.09801691 0 0.9569403 -0.2902847 0 0.8819214 -0.4713965 0 0.7730106 -0.6343932 0 0.6343932 -0.7730106 0 0.4713968 -0.8819212 0 0.2902842 -0.9569405 0 0.09801685 -0.9951847 0 -0.09801757 -0.9951847 0 -0.290285 -0.9569403 0 -0.4713972 -0.881921 0 -0.6343936 -0.7730102 0 -0.773011 -0.6343927 0 -0.8819216 -0.4713961 0 -0.9569407 -0.2902835 0 -0.9951848 -0.09801644 0 -0.9951846 0.09801799 0 -0.9569399 0.290286 0 -0.8819208 0.4713976 0 -0.7730098 0.6343941 0 -0.6343923 0.7730113 0 -0.4713954 0.881922 0 0 0 1 0 0 1 0 0 1 0 0 1 0 0 1 0 0 1 0 0 1 0 0 1 0 0 1 0 0 1 0 0 1 0 0 1 0 0 1 0 0 1 0 0 1 0 0 1 0 0 1 0 0 1 0 0 1 0 0 1 0 0 1 0 0 1 0 0 1 0 0 1 0 0 1 0 0 1 0 0 1 0 0 1 0 0 1 -0.290283 0.9569408 0 -0.0980165 0.9951848 0 0 0 -1 0 0 -1 0 0 -1 0 0 -1 0 0 -1 0 0 -1 0 0 -1 0 0 -1 0 0 -1 0 0 -1 0 0 -1 0 0 -1 0 0 -1 0 0 -1 0 0 -1 0 0 -1 0 0 -1 0 0 -1 0 0 -1 0 0 -1 0 0 -1 0 0 -1 0 0 -1 0 0 -1 0 0 -1 0 0 -1 0 0 -1 0 0 -1 0 0 -1</float_array>
          <technique_common>
            <accessor source="#Cylinder-mesh-normals-array" count="124" stride="3">
              <param name="X" type="float"/>
              <param name="Y" type="float"/>
              <param name="Z" type="float"/>
            </accessor>
          </technique_common>
        </source>
        <source id="Cylinder-mesh-map-0">
          <float_array id="Cylinder-mesh-map-0-array" count="744">1 1 0.96875 0.5 1 0.5 0.96875 1 0.9375 0.5 0.96875 0.5 0.9375 1 0.90625 0.5 0.9375 0.5 0.90625 1 0.875 0.5 0.90625 0.5 0.875 1 0.84375 0.5 0.875 0.5 0.84375 1 0.8125 0.5 0.84375 0.5 0.8125 1 0.78125 0.5 0.8125 0.5 0.78125 1 0.75 0.5 0.78125 0.5 0.75 1 0.71875 0.5 0.75 0.5 0.71875 1 0.6875 0.5 0.71875 0.5 0.6875 1 0.65625 0.5 0.6875 0.5 0.65625 1 0.625 0.5 0.65625 0.5 0.625 1 0.59375 0.5 0.625 0.5 0.59375 1 0.5625 0.5 0.59375 0.5 0.5625 1 0.53125 0.5 0.5625 0.5 0.53125 1 0.5 0.5 0.53125 0.5 0.5 1 0.46875 0.5 0.5 0.5 0.46875 1 0.4375 0.5 0.46875 0.5 0.4375 1 0.40625 0.5 0.4375 0.5 0.40625 1 0.375 0.5 0.40625 0.5 0.375 1 0.34375 0.5 0.375 0.5 0.34375 1 0.3125 0.5 0.34375 0.5 0.3125 1 0.28125 0.5 0.3125 0.5 0.28125 1 0.25 0.5 0.28125 0.5 0.25 1 0.21875 0.5 0.25 0.5 0.21875 1 0.1875 0.5 0.21875 0.5 0.1875 1 0.15625 0.5 0.1875 0.5 0.15625 1 0.125 0.5 0.15625 0.5 0.125 1 0.09375 0.5 0.125 0.5 0.09375 1 0.0625 0.5 0.09375 0.5 0.1581559 0.02826893 0.4717311 0.158156 0.341844 0.4717311 0.0625 1 0.03125 0.5 0.0625 0.5 0.03125 1 0 0.5 0.03125 0.5 0.7968216 0.01461148 0.5146115 0.2031785 0.7031787 0.4853885 1 1 0.96875 1 0.96875 0.5 0.96875 1 0.9375 1 0.9375 0.5 0.9375 1 0.90625 1 0.90625 0.5 0.90625 1 0.875 1 0.875 0.5 0.875 1 0.84375 1 0.84375 0.5 0.84375 1 0.8125 1 0.8125 0.5 0.8125 1 0.78125 1 0.78125 0.5 0.78125 1 0.75 1 0.75 0.5 0.75 1 0.71875 1 0.71875 0.5 0.71875 1 0.6875 1 0.6875 0.5 0.6875 1 0.65625 1 0.65625 0.5 0.65625 1 0.625 1 0.625 0.5 0.625 1 0.59375 1 0.59375 0.5 0.59375 1 0.5625 1 0.5625 0.5 0.5625 1 0.53125 1 0.53125 0.5 0.53125 1 0.5 1 0.5 0.5 0.5 1 0.46875 1 0.46875 0.5 0.46875 1 0.4375 1 0.4375 0.5 0.4375 1 0.40625 1 0.40625 0.5 0.40625 1 0.375 1 0.375 0.5 0.375 1 0.34375 1 0.34375 0.5 0.34375 1 0.3125 1 0.3125 0.5 0.3125 1 0.28125 1 0.28125 0.5 0.28125 1 0.25 1 0.25 0.5 0.25 1 0.21875 1 0.21875 0.5 0.21875 1 0.1875 1 0.1875 0.5 0.1875 1 0.15625 1 0.15625 0.5 0.15625 1 0.125 1 0.125 0.5 0.125 1 0.09375 1 0.09375 0.5 0.09375 1 0.0625 1 0.0625 0.5 0.341844 0.4717311 0.2968217 0.4853885 0.25 0.49 0.25 0.49 0.2031787 0.4853885 0.341844 0.4717311 0.2031787 0.4853885 0.1581563 0.4717312 0.341844 0.4717311 0.1581563 0.4717312 0.1166634 0.4495529 0.08029454 0.4197058 0.08029454 0.4197058 0.05044746 0.3833371 0.1581563 0.4717312 0.05044746 0.3833371 0.02826899 0.3418443 0.1581563 0.4717312 0.02826899 0.3418443 0.01461154 0.2968219 0.00999999 0.2500002 0.00999999 0.2500002 0.01461148 0.2031785 0.02826899 0.3418443 0.01461148 0.2031785 0.02826881 0.1581561 0.02826899 0.3418443 0.02826881 0.1581561 0.05044716 0.1166633 0.08029425 0.08029443 0.08029425 0.08029443 0.116663 0.05044734 0.02826881 0.1581561 0.116663 0.05044734 0.1581559 0.02826893 0.02826881 0.1581561 0.1581559 0.02826893 0.2031782 0.01461154 0.2499999 0.00999999 0.2499999 0.00999999 0.2968216 0.01461148 0.1581559 0.02826893 0.2968216 0.01461148 0.341844 0.02826887 0.1581559 0.02826893 0.341844 0.02826887 0.3833369 0.05044728 0.4717311 0.158156 0.3833369 0.05044728 0.4197056 0.08029437 0.4717311 0.158156 0.4197056 0.08029437 0.4495527 0.1166631 0.4717311 0.158156 0.4717311 0.158156 0.4853885 0.2031783 0.49 0.25 0.49 0.25 0.4853885 0.2968217 0.4717311 0.158156 0.4853885 0.2968217 0.4717311 0.341844 0.4717311 0.158156 0.4717311 0.341844 0.4495527 0.3833369 0.4197056 0.4197056 0.4197056 0.4197056 0.3833369 0.4495527 0.4717311 0.341844 0.3833369 0.4495527 0.341844 0.4717311 0.4717311 0.341844 0.341844 0.4717311 0.1581563 0.4717312 0.02826899 0.3418443 0.02826899 0.3418443 0.02826881 0.1581561 0.1581559 0.02826893 0.1581559 0.02826893 0.341844 0.02826887 0.4717311 0.158156 0.4717311 0.158156 0.4717311 0.341844 0.341844 0.4717311 0.341844 0.4717311 0.02826899 0.3418443 0.1581559 0.02826893 0.0625 1 0.03125 1 0.03125 0.5 0.03125 1 0 1 0 0.5 0.7031787 0.4853885 0.75 0.49 0.7968217 0.4853885 0.7968217 0.4853885 0.841844 0.4717311 0.8833369 0.4495527 0.8833369 0.4495527 0.9197056 0.4197056 0.9495527 0.3833369 0.9495527 0.3833369 0.9717311 0.341844 0.8833369 0.4495527 0.9717311 0.341844 0.9853885 0.2968217 0.8833369 0.4495527 0.9853885 0.2968217 0.99 0.25 0.9853885 0.2031783 0.9853885 0.2031783 0.9717311 0.158156 0.9853885 0.2968217 0.9717311 0.158156 0.9495527 0.1166631 0.9853885 0.2968217 0.9495527 0.1166631 0.9197056 0.08029437 0.8833369 0.05044728 0.8833369 0.05044728 0.841844 0.02826887 0.7968216 0.01461148 0.7968216 0.01461148 0.75 0.00999999 0.7031782 0.01461154 0.7031782 0.01461154 0.6581559 0.02826893 0.616663 0.05044734 0.616663 0.05044734 0.5802943 0.08029443 0.5504472 0.1166633 0.5504472 0.1166633 0.5282688 0.1581561 0.5146115 0.2031785 0.5146115 0.2031785 0.51 0.2500002 0.5146116 0.2968219 0.5146116 0.2968219 0.5282691 0.3418443 0.5146115 0.2031785 0.5282691 0.3418443 0.5504475 0.3833371 0.5146115 0.2031785 0.5504475 0.3833371 0.5802946 0.4197058 0.6166635 0.4495529 0.6166635 0.4495529 0.6581563 0.4717312 0.5504475 0.3833371 0.6581563 0.4717312 0.7031787 0.4853885 0.5504475 0.3833371 0.7031787 0.4853885 0.7968217 0.4853885 0.8833369 0.4495527 0.9495527 0.1166631 0.8833369 0.05044728 0.7968216 0.01461148 0.7968216 0.01461148 0.7031782 0.01461154 0.616663 0.05044734 0.616663 0.05044734 0.5504472 0.1166633 0.5146115 0.2031785 0.7031787 0.4853885 0.8833369 0.4495527 0.9853885 0.2968217 0.9853885 0.2968217 0.9495527 0.1166631 0.7031787 0.4853885 0.9495527 0.1166631 0.7968216 0.01461148 0.7031787 0.4853885 0.7968216 0.01461148 0.616663 0.05044734 0.5146115 0.2031785 0.5146115 0.2031785 0.5504475 0.3833371 0.7031787 0.4853885</float_array>
          <technique_common>
            <accessor source="#Cylinder-mesh-map-0-array" count="372" stride="2">
              <param name="S" type="float"/>
              <param name="T" type="float"/>
            </accessor>
          </technique_common>
        </source>
        <vertices id="Cylinder-mesh-vertices">
          <input semantic="POSITION" source="#Cylinder-mesh-positions"/>
        </vertices>
        <triangles material="Material_test-material" count="124">
          <input semantic="VERTEX" source="#Cylinder-mesh-vertices" offset="0"/>
          <input semantic="NORMAL" source="#Cylinder-mesh-normals" offset="1"/>
          <input semantic="TEXCOORD" source="#Cylinder-mesh-map-0" offset="2" set="0"/>
          <p>1 0 0 2 0 1 0 0 2 3 1 3 4 1 4 2 1 5 5 2 6 6 2 7 4 2 8 7 3 9 8 3 10 6 3 11 9 4 12 10 4 13 8 4 14 11 5 15 12 5 16 10 5 17 13 6 18 14 6 19 12 6 20 15 7 21 16 7 22 14 7 23 17 8 24 18 8 25 16 8 26 19 9 27 20 9 28 18 9 29 21 10 30 22 10 31 20 10 32 23 11 33 24 11 34 22 11 35 25 12 36 26 12 37 24 12 38 27 13 39 28 13 40 26 13 41 29 14 42 30 14 43 28 14 44 31 15 45 32 15 46 30 15 47 33 16 48 34 16 49 32 16 50 35 17 51 36 17 52 34 17 53 37 18 54 38 18 55 36 18 56 39 19 57 40 19 58 38 19 59 41 20 60 42 20 61 40 20 62 43 21 63 44 21 64 42 21 65 45 22 66 46 22 67 44 22 68 47 23 69 48 23 70 46 23 71 49 24 72 50 24 73 48 24 74 51 25 75 52 25 76 50 25 77 53 26 78 54 26 79 52 26 80 55 27 81 56 27 82 54 27 83 57 28 84 58 28 85 56 28 86 59 29 87 60 29 88 58 29 89 37 30 90 21 30 91 5 30 92 61 31 93 62 31 94 60 31 95 63 32 96 0 32 97 62 32 98 30 33 99 46 33 100 62 33 101 1 34 102 3 34 103 2 34 104 3 35 105 5 35 106 4 35 107 5 36 108 7 36 109 6 36 110 7 37 111 9 37 112 8 37 113 9 38 114 11 38 115 10 38 116 11 39 117 13 39 118 12 39 119 13 40 120 15 40 121 14 40 122 15 41 123 17 41 124 16 41 125 17 42 126 19 42 127 18 42 128 19 43 129 21 43 130 20 43 131 21 44 132 23 44 133 22 44 134 23 45 135 25 45 136 24 45 137 25 46 138 27 46 139 26 46 140 27 47 141 29 47 142 28 47 143 29 48 144 31 48 145 30 48 146 31 49 147 33 49 148 32 49 149 33 50 150 35 50 151 34 50 152 35 51 153 37 51 154 36 51 155 37 52 156 39 52 157 38 52 158 39 53 159 41 53 160 40 53 161 41 54 162 43 54 163 42 54 164 43 55 165 45 55 166 44 55 167 45 56 168 47 56 169 46 56 170 47 57 171 49 57 172 48 57 173 49 58 174 51 58 175 50 58 176 51 59 177 53 59 178 52 59 179 53 60 180 55 60 181 54 60 182 55 61 183 57 61 184 56 61 185 57 62 186 59 62 187 58 62 188 59 63 189 61 63 190 60 63 191 5 64 192 3 64 193 1 64 194 1 65 195 63 65 196 5 65 197 63 66 198 61 66 199 5 66 200 61 67 201 59 67 202 57 67 203 57 68 204 55 68 205 61 68 206 55 69 207 53 69 208 61 69 209 53 70 210 51 70 211 49 70 212 49 71 213 47 71 214 53 71 215 47 72 216 45 72 217 53 72 218 45 73 219 43 73 220 41 73 221 41 74 222 39 74 223 45 74 224 39 75 225 37 75 226 45 75 227 37 76 228 35 76 229 33 76 230 33 77 231 31 77 232 37 77 233 31 78 234 29 78 235 37 78 236 29 79 237 27 79 238 21 79 239 27 80 240 25 80 241 21 80 242 25 81 243 23 81 244 21 81 245 21 82 246 19 82 247 17 82 248 17 83 249 15 83 250 21 83 251 15 84 252 13 84 253 21 84 254 13 85 255 11 85 256 9 85 257 9 86 258 7 86 259 13 86 260 7 87 261 5 87 262 13 87 263 5 88 264 61 88 265 53 88 266 53 89 267 45 89 268 37 89 269 37 90 270 29 90 271 21 90 272 21 91 273 13 91 274 5 91 275 5 92 276 53 92 277 37 92 278 61 93 279 63 93 280 62 93 281 63 94 282 1 94 283 0 94 284 62 95 285 0 95 286 2 95 287 2 96 288 4 96 289 6 96 290 6 97 291 8 97 292 10 97 293 10 98 294 12 98 295 6 98 296 12 99 297 14 99 298 6 99 299 14 100 300 16 100 301 18 100 302 18 101 303 20 101 304 14 101 305 20 102 306 22 102 307 14 102 308 22 103 309 24 103 310 26 103 311 26 104 312 28 104 313 30 104 314 30 105 315 32 105 316 34 105 317 34 106 318 36 106 319 38 106 320 38 107 321 40 107 322 42 107 323 42 108 324 44 108 325 46 108 326 46 109 327 48 109 328 50 109 329 50 110 330 52 110 331 46 110 332 52 111 333 54 111 334 46 111 335 54 112 336 56 112 337 58 112 338 58 113 339 60 113 340 54 113 341 60 114 342 62 114 343 54 114 344 62 115 345 2 115 346 6 115 347 22 116 348 26 116 349 30 116 350 30 117 351 34 117 352 38 117 353 38 118 354 42 118 355 46 118 356 62 119 357 6 119 358 14 119 359 14 120 360 22 120 361 62 120 362 22 121 363 30 121 364 62 121 365 30 122 366 38 122 367 46 122 368 46 123 369 54 123 370 62 123 371</p>
        </triangles>
      </mesh>
    </geometry>
  </library_geometries>
  <library_visual_scenes>
    <visual_scene id="Scene" name="Scene">
      <node id="Cylinder" name="Cylinder" type="NODE">
        <matrix sid="transform">1.5 0 0 0 0 -1.5 4.37114e-8 0 0 -6.55671e-8 -1 0 0 0 0 1</matrix>
        <instance_geometry url="#Cylinder-mesh" name="Cylinder">
          <bind_material>
            <technique_common>
              <instance_material symbol="Material_test-material" target="#Material_test-material">
                <bind_vertex_input semantic="UVMap" input_semantic="TEXCOORD" input_set="0"/>
              </instance_material>
            </technique_common>
          </bind_material>
        </instance_geometry>
      </node>
    </visual_scene>
  </library_visual_scenes>
  <scene>
    <instance_visual_scene url="#Scene"/>
  </scene>
</COLLADA>