<?xml version="1.0" encoding="utf-8"?>
<COLLADA xmlns="http://www.collada.org/2005/11/COLLADASchema" version="1.4.1" xmlns:xsi="http://www.w3.org/2001/XMLSchema-instance">
  <asset>
    <contributor>
      <author>Blender User</author>
      <authoring_tool>Blender 4.5.10 LTS commit date:2026-05-18, commit time:13:28, hash:6dc0b208d1b5</authoring_tool>
    </contributor>
    <created>2026-06-16T23:31:31</created>
    <modified>2026-06-16T23:31:31</modified>
    <unit name="meter" meter="1"/>
    <up_axis>Z_UP</up_axis>
  </asset>
  <library_effects/>
  <library_images/>
  <library_geometries>
    <geometry id="Cube_005-mesh" name="Cube.005">
      <mesh>
        <source id="Cube_005-mesh-positions">
          <float_array id="Cube_005-mesh-positions-array" count="426">-0.01042854 -0.00999999 -0.08199995 -0.01042854 -0.00999999 -0.06199991 -0.01042854 0.00999999 -0.08199995 -0.01042854 0.00999999 -0.06199991 0.009571373 -0.00999999 -0.08199995 0.009571373 -0.00999999 -0.06199991 0.009571373 0.00999999 -0.08199995 0.009571373 0.00999999 -0.06199991 -0.01128566 0.009199976 0.02200001 -0.01128566 0.009199976 0.04200005 -0.01128566 0.00999999 0.02200001 -0.01128566 0.00999999 0.04200005 0.008714258 0.009199976 0.02200001 0.008714258 0.009199976 0.04200005 0.008714258 0.00999999 0.02200001 0.008714258 0.00999999 0.04200005 -0.01128566 0.009199976 -0.0259999 -0.01128566 0.009199976 -0.005999863 -0.01128566 0.00999999 -0.0259999 -0.01128566 0.00999999 -0.005999863 0.008714258 0.009199976 -0.0259999 0.008714258 0.009199976 -0.005999863 0.008714258 0.00999999 -0.0259999 0.008714258 0.00999999 -0.005999863 -0.01128566 -0.00999999 0.02200001 -0.01128566 -0.00999999 0.04200005 -0.01128566 -0.009199976 0.02200001 -0.01128566 -0.009199976 0.04200005 0.008714258 -0.00999999 0.02200001 0.008714258 -0.00999999 0.04200005 0.008714258 -0.009199976 0.02200001 0.008714258 -0.009199976 0.04200005 -0.01128566 -0.00999999 -0.0259999 -0.01128566 -0.00999999 -0.005999863 -0.01128566 -0.009199976 -0.0259999 -0.01128566 -0.009199976 -0.005999863 0.008714258 -0.00999999 -0.0259999 0.008714258 -0.00999999 -0.005999863 0.008714258 -0.009199976 -0.0259999 0.008714258 -0.009199976 -0.005999863 0.009571373 -0.00999999 -0.07999986 0.009571373 -0.00999999 0.0800001 0.009379267 -0.01070231 -0.07999986 0.009379267 -0.01070231 0.0800001 0.008810222 -0.01137763 -0.07999986 0.008810222 -0.01137763 0.0800001 0.007886111 -0.01200002 -0.07999986 0.007886111 -0.01200002 0.0800001 0.00664246 -0.01254558 -0.07999986 0.00664246 -0.01254558 0.0800001 0.005127131 -0.01299327 -0.07999986 0.005127131 -0.01299327 0.0800001 0.003398239 -0.01332592 -0.07999986 0.003398239 -0.01332592 0.0800001 0.001522302 -0.01353079 -0.07999986 0.001522302 -0.01353079 0.0800001 -4.2857e-4 -0.01359999 -0.07999986 -4.2857e-4 -0.01359999 0.0800001 -0.002379417 -0.01353079 -0.07999986 -0.002379417 -0.01353079 0.0800001 -0.004255354 -0.01332592 -0.07999986 -0.004255354 -0.01332592 0.0800001 -0.005984246 -0.01299327 -0.07999986 -0.005984246 -0.01299327 0.0800001 -0.007499635 -0.01254552 -0.07999986 -0.007499635 -0.01254552 0.0800001 -0.008743226 -0.01200002 -0.07999986 -0.008743226 -0.01200002 0.0800001 -0.009667336 -0.01137763 -0.07999986 -0.009667336 -0.01137763 0.0800001 -0.01023638 -0.01070231 -0.07999986 -0.01023638 -0.01070231 0.0800001 -0.01042854 -0.00999999 -0.07999986 -0.01042854 -0.00999999 0.0800001 -0.01042854 0.00999999 -0.07999998 -0.01042854 0.00999999 0.07999998 -0.01023638 0.01070231 -0.07999998 -0.01023638 0.01070231 0.07999998 -0.009667336 0.01137763 -0.07999998 -0.009667336 0.01137763 0.07999998 -0.008743226 0.01200002 -0.07999998 -0.008743226 0.01200002 0.07999998 -0.007499635 0.01254552 -0.07999998 -0.007499635 0.01254552 0.07999998 -0.005984246 0.01299327 -0.07999998 -0.005984246 0.01299327 0.07999998 -0.004255354 0.01332592 -0.07999998 -0.004255354 0.01332592 0.07999998 -0.002379417 0.01353079 -0.07999998 -0.002379417 0.01353079 0.07999998 -4.28571e-4 0.01359999 -0.07999998 -4.28571e-4 0.01359999 0.07999998 0.001522302 0.01353079 -0.07999998 0.001522302 0.01353079 0.07999998 0.003398239 0.01332592 -0.07999998 0.003398239 0.01332592 0.07999998 0.005127131 0.01299327 -0.07999998 0.005127131 0.01299327 0.07999998 0.00664246 0.01254558 -0.07999998 0.00664246 0.01254558 0.07999998 0.007886111 0.01200002 -0.07999998 0.007886111 0.01200002 0.07999998 0.008810222 0.01137763 -0.07999998 0.008810222 0.01137763 0.07999998 0.009379267 0.01070231 -0.07999998 0.009379267 0.01070231 0.07999998 0.009571373 0.00999999 -0.07999998 0.009571373 0.00999999 0.07999998 0.008714258 0.01199996 -0.08399999 0.008714258 0.01199996 0.08399999 0.009215891 0.01176941 -0.08399999 0.009215891 0.01176941 0.08399999 0.009698271 0.01108652 -0.08399999 0.009698271 0.01108652 0.08399999 0.01014286 0.009977638 -0.08399999 0.01014286 0.009977638 0.08399999 0.01053255 0.008485257 -0.08399999 0.01053255 0.008485257 0.08399999 0.01085233 0.006666839 -0.08399999 0.01085233 0.006666839 0.08399999 0.01108992 0.00459218 -0.08399999 0.01108992 0.00459218 0.08399999 0.01123625 0.002341032 -0.08399999 0.01123625 0.002341032 0.08399999 0.01128566 0 -0.08399999 0.01128566 0 0.08399999 0.01123625 -0.002341032 -0.08399999 0.01123625 -0.002341032 0.08399999 0.01108992 -0.00459218 -0.08399999 0.01108992 -0.00459218 0.08399999 0.01085233 -0.006666839 -0.08399999 0.01085233 -0.006666839 0.08399999 0.01053255 -0.008485257 -0.08399999 0.01053255 -0.008485257 0.08399999 0.01014286 -0.009977579 -0.08399999 0.01014286 -0.009977579 0.08399999 0.009698271 -0.01108652 -0.08399999 0.009698271 -0.01108652 0.08399999 0.009215891 -0.01176941 -0.08399999 0.009215891 -0.01176941 0.08399999 0.008714258 -0.01199996 -0.08399999 0.008714258 -0.01199996 0.08399999</float_array>
          <technique_common>
            <accessor source="#Cube_005-mesh-positions-array" count="142" stride="3">
              <param name="X" type="float"/>
              <param name="Y" type="float"/>
              <param name="Z" type="float"/>
            </accessor>
          </technique_common>
        </source>
        <source id="Cube_005-mesh-normals">
          <float_array id="Cube_005-mesh-normals-array" count="756">-1 0 0 0 1 0 1 0 0 0 -1 0 0 0 -1 0 0 1 -1 0 0 0 1 0 1 0 0 0 -1 0 0 0 -1 0 0 1 -1 0 0 0 1 0 1 0 0 0 -1 0 0 0 -1 0 0 1 -1 0 0 0 1 0 1 0 0 0 -1 0 0 0 -1 0 0 1 -1 0 0 0 1 0 1 0 0 0 -1 0 0 0 -1 0 0 1 0.9645528 -0.26389 0 0.7647137 -0.6443703 0 0.5586249 -0.8294204 0 0.4017112 -0.9157665 0 0.2833366 -0.9590205 0 0.1889576 -0.9819853 0 0.1085596 -0.99409 0 0.03543466 -0.9993721 0 -0.03543466 -0.999372 0 -0.1085597 -0.99409 0 -0.1889575 -0.9819853 0 -0.2833377 -0.9590201 0 -0.4017112 -0.9157665 0 -0.5586242 -0.8294209 0 -0.7647141 -0.6443696 0 -0.9645532 -0.2638888 0 0 1 0 0 0 1 0 0 1 0 0 1 0 0 1 0 0 1 0 0 1 0 0 1 0 0 1 0 0 1 0 0 1 0 0 1 0 0 1 0 0 1 0 0 -1 0 0 1 0 0 1 -0.9645528 0.26389 0 -0.7647137 0.6443703 0 -0.5586249 0.8294204 0 -0.4017112 0.9157665 0 -0.2833377 0.9590201 0 -0.1889576 0.9819853 0 -0.1085587 0.99409 0 -0.03543561 0.999372 0 0.03543466 0.999372 0 0.1085596 0.99409 0 0.1889575 0.9819853 0 0.2833366 0.9590205 0 0.4017112 0.9157665 0 0.5586254 0.8294202 0 0.7647141 0.6443696 0 0.9645532 0.2638888 0 0 -1 0 0 0 1 0 0 1 0 0 1 0 0 1 0 0 1 0 0 1 0 0 1 0 0 1 0 0 1 0 0 1 0 0 1 0 0 1 0 0 1 0 0 -1 0 0 1 0 0 1 0.417626 0.908619 0 0.816767 0.5769677 0 0.928188 0.3721116 0 0.967561 0.2526376 0 0.9848864 0.1732017 0 0.9935044 0.1137939 0 0.9978939 0.06486612 0 0.9997774 0.02110064 0 0.9997773 -0.02110064 0 0.997894 -0.0648657 0 0.9935044 -0.1137942 0 0.9848864 -0.1732017 0 0.9675609 -0.2526379 0 0.9281885 -0.3721106 0 0.8167657 -0.5769695 0 0.417626 -0.908619 0 -1 0 0 0 0 1 0 0 1 0 0 1 0 0 1 0 0 1 0 0 1 0 0 1 0 0 1 0 0 1 0 0 1 0 0 1 0 0 1 0 0 1 0 0 -1 0 0 1 0 0 1 -1 0 0 0 1 0 1 0 0 0 -1 0 0 0 -1 0 0 1 -1 0 0 0 1 0 1 0 0 0 -1 0 0 0 -1 0 0 1 -1 0 0 0 1 0 1 0 0 0 -1 0 0 0 -1 0 0 1 -1 0 0 0 1 0 1 0 0 0 -1 0 0 0 -1 0 0 1 -1 0 0 0 1 0 1 0 0 0 -1 0 0 0 -1 0 0 1 0.9645528 -0.26389 0 0.7647137 -0.6443703 0 0.5586249 -0.8294204 0 0.4017112 -0.9157665 0 0.2833366 -0.9590205 0 0.1889576 -0.9819853 0 0.1085596 -0.99409 0 0.03543466 -0.9993721 0 -0.03543466 -0.999372 0 -0.1085597 -0.99409 0 -0.1889575 -0.9819853 0 -0.2833377 -0.9590201 0 -0.4017112 -0.9157665 0 -0.5586242 -0.8294209 0 -0.7647141 -0.6443696 0 -0.9645532 -0.2638888 0 0 1 0 0 0 -1 0 0 -1 0 0 -1 0 0 -1 0 0 -1 0 0 -1 0 0 -1 0 0 -1 0 0 -1 0 0 -1 0 0 -1 0 0 -1 0 0 -1 0 0 -1 -0.9645528 0.26389 0 -0.7647137 0.6443703 0 -0.5586249 0.8294204 0 -0.4017112 0.9157665 0 -0.2833377 0.9590201 0 -0.1889576 0.9819853 0 -0.1085587 0.99409 0 -0.03543561 0.999372 0 0.03543466 0.999372 0 0.1085596 0.99409 0 0.1889575 0.9819853 0 0.2833366 0.9590205 0 0.4017112 0.9157665 0 0.5586254 0.8294202 0 0.7647141 0.6443696 0 0.9645532 0.2638888 0 0 -1 0 0 0 -1 0 0 -1 0 0 -1 0 0 -1 0 0 -1 0 0 -1 0 0 -1 0 0 -1 0 0 -1 0 0 -1 0 0 -1 0 0 -1 0 0 -1 0 0 -1 0.417626 0.908619 0 0.816767 0.5769677 0 0.928188 0.3721116 0 0.967561 0.2526376 0 0.9848864 0.1732017 0 0.9935044 0.1137939 0 0.9978939 0.06486612 0 0.9997774 0.02110064 0 0.9997773 -0.02110064 0 0.997894 -0.0648657 0 0.9935044 -0.1137942 0 0.9848864 -0.1732017 0 0.9675609 -0.2526379 0 0.9281885 -0.3721106 0 0.8167657 -0.5769695 0 0.417626 -0.908619 0 -1 0 0 0 0 -1 0 0 -1 0 0 -1 0 0 -1 0 0 -1 0 0 -1 0 0 -1 0 0 -1 0 0 -1 0 0 -1 0 0 -1 0 0 -1 0 0 -1 0 0 -1</float_array>
          <technique_common>
            <accessor source="#Cube_005-mesh-normals-array" count="252" stride="3">
              <param name="X" type="float"/>
              <param name="Y" type="float"/>
              <param name="Z" type="float"/>
            </accessor>
          </technique_common>
        </source>
        <source id="Cube_005-mesh-map-0">
          <float_array id="Cube_005-mesh-map-0-array" count="1512">0.625 0 0.375 0.25 0.375 0 0.625 0.25 0.375 0.5 0.375 0.25 0.625 0.5 0.375 0.75 0.375 0.5 0.625 0.75 0.375 1 0.375 0.75 0.375 0.5 0.125 0.75 0.125 0.5 0.875 0.5 0.625 0.75 0.625 0.5 0.625 0 0.375 0.25 0.375 0 0.625 0.25 0.375 0.5 0.375 0.25 0.625 0.5 0.375 0.75 0.375 0.5 0.625 0.75 0.375 1 0.375 0.75 0.375 0.5 0.125 0.75 0.125 0.5 0.875 0.5 0.625 0.75 0.625 0.5 0.625 0 0.375 0.25 0.375 0 0.625 0.25 0.375 0.5 0.375 0.25 0.625 0.5 0.375 0.75 0.375 0.5 0.625 0.75 0.375 1 0.375 0.75 0.375 0.5 0.125 0.75 0.125 0.5 0.875 0.5 0.625 0.75 0.625 0.5 0.625 0 0.375 0.25 0.375 0 0.625 0.25 0.375 0.5 0.375 0.25 0.625 0.5 0.375 0.75 0.375 0.5 0.625 0.75 0.375 1 0.375 0.75 0.375 0.5 0.125 0.75 0.125 0.5 0.875 0.5 0.625 0.75 0.625 0.5 0.625 0 0.375 0.25 0.375 0 0.625 0.25 0.375 0.5 0.375 0.25 0.625 0.5 0.375 0.75 0.375 0.5 0.625 0.75 0.375 1 0.375 0.75 0.375 0.5 0.125 0.75 0.125 0.5 0.875 0.5 0.625 0.75 0.625 0.5 1 1 0.96875 0.5 1 0.5 0.96875 1 0.9375 0.5 0.96875 0.5 0.9375 1 0.90625 0.5 0.9375 0.5 0.90625 1 0.875 0.5 0.90625 0.5 0.875 1 0.84375 0.5 0.875 0.5 0.84375 1 0.8125 0.5 0.84375 0.5 0.8125 1 0.78125 0.5 0.8125 0.5 0.78125 1 0.75 0.5 0.78125 0.5 0.75 1 0.71875 0.5 0.75 0.5 0.71875 1 0.6875 0.5 0.71875 0.5 0.6875 1 0.65625 0.5 0.6875 0.5 0.65625 1 0.625 0.5 0.65625 0.5 0.625 1 0.59375 0.5 0.625 0.5 0.59375 1 0.5625 0.5 0.59375 0.5 0.5625 1 0.53125 0.5 0.5625 0.5 0.53125 1 0.5 0.5 0.53125 0.5 0.5 0.5 1 1 1 0.5 0 0 0 0 0 0 0 0 0 0 0 0 0 0 0 0 0 0 0 0 0 0 0 0 0 0 0 0 0 0 0 0 0 0 0 0 0 0 0 0 0 0 0 0 0 0 0 0 0 0 0 0 0 0 0 0 0 0 0 0 0 0 0 0 0 0 0 0 0 0 0 0 0 0 0 0 0 0 0.5625 0.5 0.53125 0.5 0.5 0.5 0 0 0 0 0 0 0 0 0 0 0 0 1 1 0.96875 0.5 1 0.5 0.96875 1 0.9375 0.5 0.96875 0.5 0.9375 1 0.90625 0.5 0.9375 0.5 0.90625 1 0.875 0.5 0.90625 0.5 0.875 1 0.84375 0.5 0.875 0.5 0.84375 1 0.8125 0.5 0.84375 0.5 0.8125 1 0.78125 0.5 0.8125 0.5 0.78125 1 0.75 0.5 0.78125 0.5 0.75 1 0.71875 0.5 0.75 0.5 0.71875 1 0.6875 0.5 0.71875 0.5 0.6875 1 0.65625 0.5 0.6875 0.5 0.65625 1 0.625 0.5 0.65625 0.5 0.625 1 0.59375 0.5 0.625 0.5 0.59375 1 0.5625 0.5 0.59375 0.5 0.5625 1 0.53125 0.5 0.5625 0.5 0.53125 1 0.5 0.5 0.53125 0.5 0.5 0.5 1 1 1 0.5 0 0 0 0 0 0 0 0 0 0 0 0 0 0 0 0 0 0 0 0 0 0 0 0 0 0 0 0 0 0 0 0 0 0 0 0 0 0 0 0 0 0 0 0 0 0 0 0 0 0 0 0 0 0 0 0 0 0 0 0 0 0 0 0 0 0 0 0 0 0 0 0 0 0 0 0 0 0 0.5625 0.5 0.53125 0.5 0.5 0.5 0 0 0 0 0 0 0 0 0 0 0 0 1 1 0.96875 0.5 1 0.5 0.96875 1 0.9375 0.5 0.96875 0.5 0.9375 1 0.90625 0.5 0.9375 0.5 0.90625 1 0.875 0.5 0.90625 0.5 0.875 1 0.84375 0.5 0.875 0.5 0.84375 1 0.8125 0.5 0.84375 0.5 0.8125 1 0.78125 0.5 0.8125 0.5 0.78125 1 0.75 0.5 0.78125 0.5 0.75 1 0.71875 0.5 0.75 0.5 0.71875 1 0.6875 0.5 0.71875 0.5 0.6875 1 0.65625 0.5 0.6875 0.5 0.65625 1 0.625 0.5 0.65625 0.5 0.625 1 0.59375 0.5 0.625 0.5 0.59375 1 0.5625 0.5 0.59375 0.5 0.5625 1 0.53125 0.5 0.5625 0.5 0.53125 1 0.5 0.5 0.53125 0.5 0.5 0.5 1 1 1 0.5 0 0 0 0 0 0 0 0 0 0 0 0 0 0 0 0 0 0 0 0 0 0 0 0 0 0 0 0 0 0 0 0 0 0 0 0 0 0 0 0 0 0 0 0 0 0 0 0 0 0 0 0 0 0 0 0 0 0 0 0 0 0 0 0 0 0 0 0 0 0 0 0 0 0 0 0 0 0 0.5625 0.5 0.53125 0.5 0.5 0.5 0 0 0 0 0 0 0 0 0 0 0 0 0.625 0 0.625 0.25 0.375 0.25 0.625 0.25 0.625 0.5 0.375 0.5 0.625 0.5 0.625 0.75 0.375 0.75 0.625 0.75 0.625 1 0.375 1 0.375 0.5 0.375 0.75 0.125 0.75 0.875 0.5 0.875 0.75 0.625 0.75 0.625 0 0.625 0.25 0.375 0.25 0.625 0.25 0.625 0.5 0.375 0.5 0.625 0.5 0.625 0.75 0.375 0.75 0.625 0.75 0.625 1 0.375 1 0.375 0.5 0.375 0.75 0.125 0.75 0.875 0.5 0.875 0.75 0.625 0.75 0.625 0 0.625 0.25 0.375 0.25 0.625 0.25 0.625 0.5 0.375 0.5 0.625 0.5 0.625 0.75 0.375 0.75 0.625 0.75 0.625 1 0.375 1 0.375 0.5 0.375 0.75 0.125 0.75 0.875 0.5 0.875 0.75 0.625 0.75 0.625 0 0.625 0.25 0.375 0.25 0.625 0.25 0.625 0.5 0.375 0.5 0.625 0.5 0.625 0.75 0.375 0.75 0.625 0.75 0.625 1 0.375 1 0.375 0.5 0.375 0.75 0.125 0.75 0.875 0.5 0.875 0.75 0.625 0.75 0.625 0 0.625 0.25 0.375 0.25 0.625 0.25 0.625 0.5 0.375 0.5 0.625 0.5 0.625 0.75 0.375 0.75 0.625 0.75 0.625 1 0.375 1 0.375 0.5 0.375 0.75 0.125 0.75 0.875 0.5 0.875 0.75 0.625 0.75 1 1 0.96875 1 0.96875 0.5 0.96875 1 0.9375 1 0.9375 0.5 0.9375 1 0.90625 1 0.90625 0.5 0.90625 1 0.875 1 0.875 0.5 0.875 1 0.84375 1 0.84375 0.5 0.84375 1 0.8125 1 0.8125 0.5 0.8125 1 0.78125 1 0.78125 0.5 0.78125 1 0.75 1 0.75 0.5 0.75 1 0.71875 1 0.71875 0.5 0.71875 1 0.6875 1 0.6875 0.5 0.6875 1 0.65625 1 0.65625 0.5 0.65625 1 0.625 1 0.625 0.5 0.625 1 0.59375 1 0.59375 0.5 0.59375 1 0.5625 1 0.5625 0.5 0.5625 1 0.53125 1 0.53125 0.5 0.53125 1 0.5 1 0.5 0.5 0.5 0.5 0.5 1 1 1 0.5 0.5 1 0.5 0.75 0.5 1 0.5 0.96875 0.5 0.9375 0.5 0.5 0.5 0.75 0.5 0.71875 0.5 0.9375 0.5 0.90625 0.5 1 0.5 0.90625 0.5 0.875 0.5 1 0.5 0.875 0.5 0.84375 0.5 1 0.5 0.84375 0.5 0.8125 0.5 1 0.5 0.8125 0.5 0.78125 0.5 1 0.5 0.78125 0.5 0.75 0.5 1 0.5 0.71875 0.5 0.6875 0.5 0.5 0.5 0.6875 0.5 0.65625 0.5 0.5 0.5 0.65625 0.5 0.625 0.5 0.5 0.5 0.625 0.5 0.59375 0.5 0.5 0.5 0.59375 0.5 0.5625 0.5 0.5 0.5 1 1 0.96875 1 0.96875 0.5 0.96875 1 0.9375 1 0.9375 0.5 0.9375 1 0.90625 1 0.90625 0.5 0.90625 1 0.875 1 0.875 0.5 0.875 1 0.84375 1 0.84375 0.5 0.84375 1 0.8125 1 0.8125 0.5 0.8125 1 0.78125 1 0.78125 0.5 0.78125 1 0.75 1 0.75 0.5 0.75 1 0.71875 1 0.71875 0.5 0.71875 1 0.6875 1 0.6875 0.5 0.6875 1 0.65625 1 0.65625 0.5 0.65625 1 0.625 1 0.625 0.5 0.625 1 0.59375 1 0.59375 0.5 0.59375 1 0.5625 1 0.5625 0.5 0.5625 1 0.53125 1 0.53125 0.5 0.53125 1 0.5 1 0.5 0.5 0.5 0.5 0.5 1 1 1 0.5 0.5 1 0.5 0.75 0.5 1 0.5 0.96875 0.5 0.9375 0.5 0.5 0.5 0.75 0.5 0.71875 0.5 0.9375 0.5 0.90625 0.5 1 0.5 0.90625 0.5 0.875 0.5 1 0.5 0.875 0.5 0.84375 0.5 1 0.5 0.84375 0.5 0.8125 0.5 1 0.5 0.8125 0.5 0.78125 0.5 1 0.5 0.78125 0.5 0.75 0.5 1 0.5 0.71875 0.5 0.6875 0.5 0.5 0.5 0.6875 0.5 0.65625 0.5 0.5 0.5 0.65625 0.5 0.625 0.5 0.5 0.5 0.625 0.5 0.59375 0.5 0.5 0.5 0.59375 0.5 0.5625 0.5 0.5 0.5 1 1 0.96875 1 0.96875 0.5 0.96875 1 0.9375 1 0.9375 0.5 0.9375 1 0.90625 1 0.90625 0.5 0.90625 1 0.875 1 0.875 0.5 0.875 1 0.84375 1 0.84375 0.5 0.84375 1 0.8125 1 0.8125 0.5 0.8125 1 0.78125 1 0.78125 0.5 0.78125 1 0.75 1 0.75 0.5 0.75 1 0.71875 1 0.71875 0.5 0.71875 1 0.6875 1 0.6875 0.5 0.6875 1 0.65625 1 0.65625 0.5 0.65625 1 0.625 1 0.625 0.5 0.625 1 0.59375 1 0.59375 0.5 0.59375 1 0.5625 1 0.5625 0.5 0.5625 1 0.53125 1 0.53125 0.5 0.53125 1 0.5 1 0.5 0.5 0.5 0.5 0.5 1 1 1 0.5 0.5 1 0.5 0.75 0.5 1 0.5 0.96875 0.5 0.9375 0.5 0.5 0.5 0.75 0.5 0.71875 0.5 0.9375 0.5 0.90625 0.5 1 0.5 0.90625 0.5 0.875 0.5 1 0.5 0.875 0.5 0.84375 0.5 1 0.5 0.84375 0.5 0.8125 0.5 1 0.5 0.8125 0.5 0.78125 0.5 1 0.5 0.78125 0.5 0.75 0.5 1 0.5 0.71875 0.5 0.6875 0.5 0.5 0.5 0.6875 0.5 0.65625 0.5 0.5 0.5 0.65625 0.5 0.625 0.5 0.5 0.5 0.625 0.5 0.59375 0.5 0.5 0.5 0.59375 0.5 0.5625 0.5 0.5 0.5</float_array>
          <technique_common>
            <accessor source="#Cube_005-mesh-map-0-array" count="756" stride="2">
              <param name="S" type="float"/>
              <param name="T" type="float"/>
            </accessor>
          </technique_common>
        </source>
        <vertices id="Cube_005-mesh-vertices">
          <input semantic="POSITION" source="#Cube_005-mesh-positions"/>
        </vertices>
        <triangles count="252">
          <input semantic="VERTEX" source="#Cube_005-mesh-vertices" offset="0"/>
          <input semantic="NORMAL" source="#Cube_005-mesh-normals" offset="1"/>
          <input semantic="TEXCOORD" source="#Cube_005-mesh-map-0" offset="2" set="0"/>
          <p>1 0 0 2 0 1 0 0 2 3 1 3 6 1 4 2 1 5 7 2 6 4 2 7 6 2 8 5 3 9 0 3 10 4 3 11 6 4 12 0 4 13 2 4 14 3 5 15 5 5 16 7 5 17 9 6 18 10 6 19 8 6 20 11 7 21 14 7 22 10 7 23 15 8 24 12 8 25 14 8 26 13 9 27 8 9 28 12 9 29 14 10 30 8 10 31 10 10 32 11 11 33 13 11 34 15 11 35 17 12 36 18 12 37 16 12 38 19 13 39 22 13 40 18 13 41 23 14 42 20 14 43 22 14 44 21 15 45 16 15 46 20 15 47 22 16 48 16 16 49 18 16 50 19 17 51 21 17 52 23 17 53 25 18 54 26 18 55 24 18 56 27 19 57 30 19 58 26 19 59 31 20 60 28 20 61 30 20 62 29 21 63 24 21 64 28 21 65 30 22 66 24 22 67 26 22 68 27 23 69 29 23 70 31 23 71 33 24 72 34 24 73 32 24 74 35 25 75 38 25 76 34 25 77 39 26 78 36 26 79 38 26 80 37 27 81 32 27 82 36 27 83 38 28 84 32 28 85 34 28 86 35 29 87 37 29 88 39 29 89 41 30 90 42 30 91 40 30 92 43 31 93 44 31 94 42 31 95 45 32 96 46 32 97 44 32 98 47 33 99 48 33 100 46 33 101 49 34 102 50 34 103 48 34 104 51 35 105 52 35 106 50 35 107 53 36 108 54 36 109 52 36 110 55 37 111 56 37 112 54 37 113 57 38 114 58 38 115 56 38 116 59 39 117 60 39 118 58 39 119 61 40 120 62 40 121 60 40 122 63 41 123 64 41 124 62 41 125 65 42 126 66 42 127 64 42 128 67 43 129 68 43 130 66 43 131 69 44 132 70 44 133 68 44 134 71 45 135 72 45 136 70 45 137 72 46 138 41 46 139 40 46 140 43 47 141 41 47 142 73 47 143 49 48 144 47 48 145 45 48 146 43 49 147 73 49 148 49 49 149 61 50 150 57 50 151 55 50 152 73 51 153 53 51 154 49 51 155 71 52 156 69 52 157 67 52 158 55 53 159 53 53 160 73 53 161 55 54 162 73 54 163 65 54 164 65 55 165 63 55 166 61 55 167 53 56 168 51 56 169 49 56 170 55 57 171 65 57 172 61 57 173 71 58 174 67 58 175 65 58 176 73 59 177 71 59 178 65 59 179 68 60 180 70 60 181 72 60 182 43 61 183 49 61 184 45 61 185 61 62 186 59 62 187 57 62 188 75 63 189 76 63 190 74 63 191 77 64 192 78 64 193 76 64 194 79 65 195 80 65 196 78 65 197 81 66 198 82 66 199 80 66 200 83 67 201 84 67 202 82 67 203 85 68 204 86 68 205 84 68 206 87 69 207 88 69 208 86 69 209 89 70 210 90 70 211 88 70 212 91 71 213 92 71 214 90 71 215 93 72 216 94 72 217 92 72 218 95 73 219 96 73 220 94 73 221 97 74 222 98 74 223 96 74 224 99 75 225 100 75 226 98 75 227 101 76 228 102 76 229 100 76 230 103 77 231 104 77 232 102 77 233 105 78 234 106 78 235 104 78 236 106 79 237 75 79 238 74 79 239 77 80 240 75 80 241 107 80 242 83 81 243 81 81 244 79 81 245 77 82 246 107 82 247 83 82 248 95 83 249 91 83 250 89 83 251 107 84 252 87 84 253 83 84 254 105 85 255 103 85 256 101 85 257 89 86 258 87 86 259 107 86 260 89 87 261 107 87 262 99 87 263 99 88 264 97 88 265 95 88 266 87 89 267 85 89 268 83 89 269 89 90 270 99 90 271 95 90 272 105 91 273 101 91 274 99 91 275 107 92 276 105 92 277 99 92 278 102 93 279 104 93 280 106 93 281 77 94 282 83 94 283 79 94 284 95 95 285 93 95 286 91 95 287 109 96 288 110 96 289 108 96 290 111 97 291 112 97 292 110 97 293 113 98 294 114 98 295 112 98 296 115 99 297 116 99 298 114 99 299 117 100 300 118 100 301 116 100 302 119 101 303 120 101 304 118 101 305 121 102 306 122 102 307 120 102 308 123 103 309 124 103 310 122 103 311 125 104 312 126 104 313 124 104 314 127 105 315 128 105 316 126 105 317 129 106 318 130 106 319 128 106 320 131 107 321 132 107 322 130 107 323 133 108 324 134 108 325 132 108 326 135 109 327 136 109 328 134 109 329 137 110 330 138 110 331 136 110 332 139 111 333 140 111 334 138 111 335 140 112 336 109 112 337 108 112 338 111 113 339 109 113 340 141 113 341 117 114 342 115 114 343 113 114 344 111 115 345 141 115 346 117 115 347 129 116 348 125 116 349 123 116 350 141 117 351 121 117 352 117 117 353 139 118 354 137 118 355 135 118 356 123 119 357 121 119 358 141 119 359 123 120 360 141 120 361 133 120 362 133 121 363 131 121 364 129 121 365 121 122 366 119 122 367 117 122 368 123 123 369 133 123 370 129 123 371 139 124 372 135 124 373 133 124 374 141 125 375 139 125 376 133 125 377 136 126 378 138 126 379 140 126 380 111 127 381 117 127 382 113 127 383 129 128 384 127 128 385 125 128 386 1 129 387 3 129 388 2 129 389 3 130 390 7 130 391 6 130 392 7 131 393 5 131 394 4 131 395 5 132 396 1 132 397 0 132 398 6 133 399 4 133 400 0 133 401 3 134 402 1 134 403 5 134 404 9 135 405 11 135 406 10 135 407 11 136 408 15 136 409 14 136 410 15 137 411 13 137 412 12 137 413 13 138 414 9 138 415 8 138 416 14 139 417 12 139 418 8 139 419 11 140 420 9 140 421 13 140 422 17 141 423 19 141 424 18 141 425 19 142 426 23 142 427 22 142 428 23 143 429 21 143 430 20 143 431 21 144 432 17 144 433 16 144 434 22 145 435 20 145 436 16 145 437 19 146 438 17 146 439 21 146 440 25 147 441 27 147 442 26 147 443 27 148 444 31 148 445 30 148 446 31 149 447 29 149 448 28 149 449 29 150 450 25 150 451 24 150 452 30 151 453 28 151 454 24 151 455 27 152 456 25 152 457 29 152 458 33 153 459 35 153 460 34 153 461 35 154 462 39 154 463 38 154 464 39 155 465 37 155 466 36 155 467 37 156 468 33 156 469 32 156 470 38 157 471 36 157 472 32 157 473 35 158 474 33 158 475 37 158 476 41 159 477 43 159 478 42 159 479 43 160 480 45 160 481 44 160 482 45 161 483 47 161 484 46 161 485 47 162 486 49 162 487 48 162 488 49 163 489 51 163 490 50 163 491 51 164 492 53 164 493 52 164 494 53 165 495 55 165 496 54 165 497 55 166 498 57 166 499 56 166 500 57 167 501 59 167 502 58 167 503 59 168 504 61 168 505 60 168 506 61 169 507 63 169 508 62 169 509 63 170 510 65 170 511 64 170 512 65 171 513 67 171 514 66 171 515 67 172 516 69 172 517 68 172 518 69 173 519 71 173 520 70 173 521 71 174 522 73 174 523 72 174 524 72 175 525 73 175 526 41 175 527 72 176 528 40 176 529 56 176 530 40 177 531 42 177 532 44 177 533 72 178 534 56 178 535 58 178 536 44 179 537 46 179 538 40 179 539 46 180 540 48 180 541 40 180 542 48 181 543 50 181 544 40 181 545 50 182 546 52 182 547 40 182 548 52 183 549 54 183 550 40 183 551 54 184 552 56 184 553 40 184 554 58 185 555 60 185 556 72 185 557 60 186 558 62 186 559 72 186 560 62 187 561 64 187 562 72 187 563 64 188 564 66 188 565 72 188 566 66 189 567 68 189 568 72 189 569 75 190 570 77 190 571 76 190 572 77 191 573 79 191 574 78 191 575 79 192 576 81 192 577 80 192 578 81 193 579 83 193 580 82 193 581 83 194 582 85 194 583 84 194 584 85 195 585 87 195 586 86 195 587 87 196 588 89 196 589 88 196 590 89 197 591 91 197 592 90 197 593 91 198 594 93 198 595 92 198 596 93 199 597 95 199 598 94 199 599 95 200 600 97 200 601 96 200 602 97 201 603 99 201 604 98 201 605 99 202 606 101 202 607 100 202 608 101 203 609 103 203 610 102 203 611 103 204 612 105 204 613 104 204 614 105 205 615 107 205 616 106 205 617 106 206 618 107 206 619 75 206 620 106 207 621 74 207 622 90 207 623 74 208 624 76 208 625 78 208 626 106 209 627 90 209 628 92 209 629 78 210 630 80 210 631 74 210 632 80 211 633 82 211 634 74 211 635 82 212 636 84 212 637 74 212 638 84 213 639 86 213 640 74 213 641 86 214 642 88 214 643 74 214 644 88 215 645 90 215 646 74 215 647 92 216 648 94 216 649 106 216 650 94 217 651 96 217 652 106 217 653 96 218 654 98 218 655 106 218 656 98 219 657 100 219 658 106 219 659 100 220 660 102 220 661 106 220 662 109 221 663 111 221 664 110 221 665 111 222 666 113 222 667 112 222 668 113 223 669 115 223 670 114 223 671 115 224 672 117 224 673 116 224 674 117 225 675 119 225 676 118 225 677 119 226 678 121 226 679 120 226 680 121 227 681 123 227 682 122 227 683 123 228 684 125 228 685 124 228 686 125 229 687 127 229 688 126 229 689 127 230 690 129 230 691 128 230 692 129 231 693 131 231 694 130 231 695 131 232 696 133 232 697 132 232 698 133 233 699 135 233 700 134 233 701 135 234 702 137 234 703 136 234 704 137 235 705 139 235 706 138 235 707 139 236 708 141 236 709 140 236 710 140 237 711 141 237 712 109 237 713 140 238 714 108 238 715 124 238 716 108 239 717 110 239 718 112 239 719 140 240 720 124 240 721 126 240 722 112 241 723 114 241 724 108 241 725 114 242 726 116 242 727 108 242 728 116 243 729 118 243 730 108 243 731 118 244 732 120 244 733 108 244 734 120 245 735 122 245 736 108 245 737 122 246 738 124 246 739 108 246 740 126 247 741 128 247 742 140 247 743 128 248 744 130 248 745 140 248 746 130 249 747 132 249 748 140 249 749 132 250 750 134 250 751 140 250 752 134 251 753 136 251 754 140 251 755</p>
        </triangles>
      </mesh>
    </geometry>
  </library_geometries>
  <library_visual_scenes>
    <visual_scene id="Scene" name="Scene">
      <node id="Cube_010" name="Cube.010" type="NODE">
        <matrix sid="transform">35 0 0 0.1 0 0 -1.25 0 0 25 0 0 0 0 0 1</matrix>
        <instance_geometry url="#Cube_005-mesh" name="Cube.010"/>
      </node>
    </visual_scene>
  </library_visual_scenes>
  <scene>
    <instance_visual_scene url="#Scene"/>
  </scene>
</COLLADA>