<?xml version="1.0" encoding="utf-8"?>
<COLLADA xmlns="http://www.collada.org/2005/11/COLLADASchema" version="1.4.1" xmlns:xsi="http://www.w3.org/2001/XMLSchema-instance">
  <asset>
    <contributor>
      <author>Blender User</author>
      <authoring_tool>Blender 2.83.20 commit date:2022-04-19, commit time:16:00, hash:a56e2faeb7a9</authoring_tool>
    </contributor>
    <created>2026-07-02T14:48:51</created>
    <modified>2026-07-02T14:48:51</modified>
    <unit name="meter" meter="1"/>
    <up_axis>Z_UP</up_axis>
  </asset>
  <library_effects>
    <effect id="Material_002-effect">
      <profile_COMMON>
        <newparam sid="Conveyor_diffuse_png-surface">
          <surface type="2D">
            <init_from>Conveyor_diffuse_png</init_from>
          </surface>
        </newparam>
        <newparam sid="Conveyor_diffuse_png-sampler">
          <sampler2D>
            <source>Conveyor_diffuse_png-surface</source>
          </sampler2D>
        </newparam>
        <technique sid="common">
          <lambert>
            <emission>
              <color sid="emission">0 0 0 1</color>
            </emission>
            <diffuse>
              <texture texture="Conveyor_diffuse_png-sampler" texcoord="UVMap"/>
            </diffuse>
            <index_of_refraction>
              <float sid="ior">1.45</float>
            </index_of_refraction>
          </lambert>
        </technique>
      </profile_COMMON>
    </effect>
  </library_effects>
  <library_images>
    <image id="Conveyor_diffuse_png" name="Conveyor_diffuse_png">
      <init_from>Conveyor_diffuse.png</init_from>
    </image>
  </library_images>
  <library_materials>
    <material id="Material_002-material" name="Material.002">
      <instance_effect url="#Material_002-effect"/>
    </material>
  </library_materials>
  <library_geometries>
    <geometry id="Conveyor01Frame_Conveyor_0_004-mesh" name="Conveyor01Frame_Conveyor_0.004">
      <mesh>
        <source id="Conveyor01Frame_Conveyor_0_004-mesh-positions">
          <float_array id="Conveyor01Frame_Conveyor_0_004-mesh-positions-array" count="588">0.2250163 -1.28686e-4 1.775898 0.2250163 -0.01392871 1.774298 0.2250163 -0.02652871 1.769798 0.2250163 -0.0469287 1.753398 0.2250163 0.04657131 1.753398 0.2250163 0.0536713 1.742298 0.2250163 -0.05402868 1.742298 0.2250163 0.05817127 1.729698 0.2250163 0.05987131 1.715398 0.2250163 -0.06012868 1.715398 0.2250163 -0.06012868 -1.7154 0.2250163 0.05987131 -1.7154 0.2250163 -0.05402868 -1.7423 0.2250163 0.05817127 -1.7297 0.2250163 0.04657131 -1.7534 0.2250163 -0.01392871 -1.7743 0.2250163 0.01357126 -1.7743 -0.2249836 -0.01392871 -1.7743 -0.2249836 0.02617126 -1.7698 -0.2249836 0.01357126 1.774298 -0.2249836 -1.28686e-4 1.775898 -0.2249836 0.0536713 1.742298 -0.2249836 -0.05852872 1.729698 -0.2249836 0.05987131 1.715398 -0.2249836 -0.06012868 -1.7154 -0.2249836 -0.05852872 -1.7297 -0.2249836 0.0536713 -1.7423 -0.2249836 0.04657131 -1.7534 0.3250163 0.06797128 -1.732 0.3250163 0.0698713 -1.716 0.3250163 0.05987131 -1.7154 0.3250163 0.0698713 1.715898 0.3250163 0.05987131 1.715398 0.3250163 0.05817127 1.729698 0.3250163 0.06797128 1.731998 0.3250163 0.0626713 1.746698 0.3250163 0.05447131 1.759698 0.3250163 0.04357129 1.770598 0.3250163 0.03727126 1.762698 0.3250163 0.03057128 1.778798 0.3250163 0.02617126 1.769798 0.3250163 0.01587128 1.784098 0.3250163 0.01357126 1.774298 0.3250163 -1.28686e-4 1.785898 0.3250163 -1.28686e-4 1.775898 0.3250163 -0.01622873 1.784098 0.3250163 -0.03092873 1.778798 0.3250163 -0.02652871 1.769798 0.3250163 -0.04392868 1.770598 0.3250163 -0.05472868 1.759698 0.3250163 -0.0469287 1.753398 0.3250163 -0.06302869 1.746698 0.3250163 -0.06832873 1.731998 0.3250163 -0.05852872 1.729698 0.3250163 -0.07012873 1.715898 0.3250163 -0.07012873 -1.716 0.3250163 -0.05852872 -1.7297 0.3250163 -0.06832873 -1.732 0.3250163 -0.06302869 -1.7467 0.3250163 -0.05472868 -1.7597 0.3250163 -0.04392868 -1.7706 0.3250163 -0.03092873 -1.7788 0.3250163 -0.02652871 -1.7698 0.3250163 -0.01622873 -1.7841 0.3250163 -1.28686e-4 -1.786 0.3250163 -1.28686e-4 -1.7759 0.3250163 0.01587128 -1.7841 0.3250163 0.03057128 -1.7788 0.3250163 0.04357129 -1.7706 0.3250163 0.05447131 -1.7597 0.3250163 0.0626713 -1.7467 0.3250163 0.0536713 -1.7423 -0.3249837 0.05817127 -1.7297 -0.3249837 0.05987131 -1.7154 -0.3249837 0.0698713 -1.716 -0.3249837 0.06797128 -1.732 -0.3249837 0.0626713 -1.7467 -0.3249837 0.0536713 -1.7423 -0.3249837 0.05447131 -1.7597 -0.3249837 0.04657131 -1.7534 -0.3249837 0.04357129 -1.7706 -0.3249837 0.03057128 -1.7788 -0.3249837 0.02617126 -1.7698 -0.3249837 0.01587128 -1.7841 -0.3249837 -1.28686e-4 -1.786 -0.3249837 -0.01622873 -1.7841 -0.3249837 -0.01392871 -1.7743 -0.3249837 -0.03092873 -1.7788 -0.3249837 -0.02652871 -1.7698 -0.3249837 -0.04392868 -1.7706 -0.3249837 -0.05472868 -1.7597 -0.3249837 -0.06302869 -1.7467 -0.3249837 -0.05402868 -1.7423 -0.3249837 -0.06832873 -1.732 -0.3249837 -0.05852872 -1.7297 -0.3249837 -0.07012873 -1.716 -0.3249837 -0.06012868 -1.7154 -0.3249837 -0.07012873 1.715898 -0.3249837 -0.06832873 1.731998 -0.3249837 -0.06302869 1.746698 -0.3249837 -0.05402868 1.742298 -0.3249837 -0.05472868 1.759698 -0.3249837 -0.0469287 1.753398 -0.3249837 -0.04392868 1.770598 -0.3249837 -0.03092873 1.778798 -0.3249837 -0.02652871 1.769798 -0.3249837 -0.01622873 1.784098 -0.3249837 -1.28686e-4 1.785898 -0.3249837 0.01587128 1.784098 -0.3249837 0.01357126 1.774298 -0.3249837 0.03057128 1.778798 -0.3249837 0.02617126 1.769798 -0.3249837 0.04357129 1.770598 -0.3249837 0.05447131 1.759698 -0.3249837 0.04657131 1.753398 -0.3249837 0.0626713 1.746698 -0.3249837 0.0536713 1.742298 -0.3249837 0.06797128 1.731998 -0.3249837 0.05817127 1.729698 -0.3249837 0.0698713 1.715898 0.3250163 0.05817127 -1.7297 0.3250163 0.0536713 1.742298 0.3250163 0.04657131 1.753398 0.2250163 0.03727126 1.762698 0.2250163 0.02617126 1.769798 0.2250163 0.01357126 1.774298 0.3250163 -0.01392871 1.774298 0.2250163 -0.03762871 1.762698 0.3250163 -0.03762871 1.762698 0.3250163 -0.05402868 1.742298 0.2250163 -0.05852872 1.729698 0.3250163 -0.06012868 1.715398 0.3250163 -0.06012868 -1.7154 0.2250163 -0.05852872 -1.7297 0.3250163 -0.05402868 -1.7423 0.3250163 -0.0469287 -1.7534 0.2250163 -0.0469287 -1.7534 0.2250163 -0.03762871 -1.7627 0.3250163 -0.03762871 -1.7627 0.2250163 -0.02652871 -1.7698 0.3250163 -0.01392871 -1.7743 0.2250163 -1.28686e-4 -1.7759 0.3250163 0.01357126 -1.7743 0.3250163 0.02617126 -1.7698 0.2250163 0.02617126 -1.7698 0.2250163 0.03727126 -1.7627 0.3250163 0.03727126 -1.7627 0.3250163 0.04657131 -1.7534 0.2250163 0.0536713 -1.7423 -0.2249836 0.05987131 -1.7154 -0.2249836 0.05817127 -1.7297 -0.3249837 0.03727126 -1.7627 -0.2249836 0.03727126 -1.7627 -0.3249837 0.01357126 -1.7743 -0.2249836 0.01357126 -1.7743 -0.3249837 -1.28686e-4 -1.7759 -0.2249836 -1.28686e-4 -1.7759 -0.2249836 -0.02652871 -1.7698 -0.3249837 -0.03762871 -1.7627 -0.2249836 -0.03762871 -1.7627 -0.3249837 -0.0469287 -1.7534 -0.2249836 -0.0469287 -1.7534 -0.2249836 -0.05402868 -1.7423 -0.3249837 -0.06012868 1.715398 -0.2249836 -0.06012868 1.715398 -0.3249837 -0.05852872 1.729698 -0.2249836 -0.05402868 1.742298 -0.2249836 -0.0469287 1.753398 -0.2249836 -0.03762871 1.762698 -0.3249837 -0.03762871 1.762698 -0.2249836 -0.02652871 1.769798 -0.3249837 -0.01392871 1.774298 -0.2249836 -0.01392871 1.774298 -0.3249837 -1.28686e-4 1.775898 -0.2249836 0.02617126 1.769798 -0.3249837 0.03727126 1.762698 -0.2249836 0.03727126 1.762698 -0.2249836 0.04657131 1.753398 -0.2249836 0.05817127 1.729698 -0.3249837 0.05987131 1.715398 -0.3751837 0.02687126 -1.7365 -0.3751837 0.02687126 -1.6865 0.3748163 0.02687126 -1.6865 0.3748163 0.02687126 -1.7365 0.3748163 -0.02312868 -1.7365 0.3748163 -0.02312868 -1.6865 -0.3751837 -0.02312868 -1.6865 -0.3751837 -0.02312868 -1.7365 0.3748163 0.02687126 1.736598 -0.3751837 0.02687126 1.736598 -0.3751837 0.02687126 1.686598 0.3748163 0.02687126 1.686598 0.3748163 -0.02312868 1.686598 0.3748163 -0.02312868 1.736598 -0.3751837 -0.02312868 1.736598 -0.3751837 -0.02312868 1.686598</float_array>
          <technique_common>
            <accessor source="#Conveyor01Frame_Conveyor_0_004-mesh-positions-array" count="196" stride="3">
              <param name="X" type="float"/>
              <param name="Y" type="float"/>
              <param name="Z" type="float"/>
            </accessor>
          </technique_common>
        </source>
        <source id="Conveyor01Frame_Conveyor_0_004-mesh-normals">
          <float_array id="Conveyor01Frame_Conveyor_0_004-mesh-normals-array" count="576">1 0 0 1 3.849e-6 0 1 -9.62086e-7 0 -1 0 0 -1 -5.89233e-6 0 -1 2.88657e-6 0 -1 -1.92414e-6 0 -1 6.18316e-7 0 -1 -3.1999e-7 0 -1 6.36725e-7 0 -1 -3.8245e-7 0 1 3.03484e-6 0 1 -3.58964e-6 0 1 3.51652e-6 0 1 3.00857e-6 0 1 -3.52609e-6 0 1 -3.0167e-6 0 1 3.55093e-6 0 1 1.49618e-6 0 1 -3.47947e-6 0 1 -7.23346e-7 0 1 7.23078e-7 0 1 1.74801e-6 0 1 -3.04195e-6 0 1 3.51667e-6 0 1 -3.02393e-6 0 1 3.55124e-6 0 1 5.75161e-6 0 1 -2.42599e-6 0 1 -2.17004e-6 0 1 -3.5463e-6 0 1 3.55114e-6 0 1 -3.024e-6 0 1 2.99236e-6 0 1 -1.73974e-6 0 1 7.17962e-7 0 1 -3.341e-6 0 1 2.16118e-6 0 1 -1.74806e-6 0 1 3.0085e-6 0 1 -3.52599e-6 0 -1 3.03123e-6 0 -1 7.2231e-7 0 -1 5.96054e-6 0 -1 -6.99193e-6 0 -1 -3.51657e-6 0 -1 3.55093e-6 0 -1 -1.49618e-6 0 -1 1.73974e-6 0 -1 7.22326e-7 0 -1 1.68269e-6 0 -1 -7.15922e-7 0 -1 -1.67605e-6 0 -1 -3.64304e-6 0 -1 -7.18953e-7 0 -1 -5.96054e-6 0 -1 6.99188e-6 0 -1 3.54625e-6 0 -1 -2.99236e-6 0 -1 5.21921e-6 0 -1 -7.18969e-7 0 -1 1.68718e-6 0 -1 -2.18277e-6 0 -1 1.68791e-6 0 -1 -1.49012e-6 0 -1 6.4744e-6 0 -1 -6.94714e-6 0 -1 6.94937e-6 0 0 -0.9738484 0.2271992 0 -0.9738379 0.227244 -8.48449e-7 -0.9983516 0.05739498 0 -0.9983507 0.05740892 0 -0.9983535 -0.0573619 0 -0.9983516 -0.05739444 0 -0.973838 -0.2272435 0 -0.9738485 -0.2271988 0 -0.8981692 -0.4396501 0 -0.8981488 -0.4396917 0 -0.7801226 -0.6256268 0 -0.7800934 -0.6256631 -0.09042322 -0.58253 -0.8077639 0.08974665 -0.6636344 -0.7426541 0 -0.4396523 -0.898168 0 -0.4396525 -0.898168 0 -0.2271381 -0.9738626 0 -0.2276319 -0.9737473 0 8.87364e-5 -1 0 -9.54509e-5 -1 0 0.227225 -0.9738423 0 0.227225 -0.9738424 0 0.4396938 -0.8981478 2.65053e-7 0.4397766 -0.8981072 -0.08974659 0.6636354 -0.7426531 0.09042316 0.5825315 -0.8077629 0 0.7801233 -0.6256259 0 0.7800948 -0.6256616 0 0.898148 -0.4396933 0 0.8981683 -0.4396519 0 0.9738578 -0.2271586 0 0.973858 -0.227158 0 0.9983502 -0.05741941 0 0.9983537 -0.05735909 -5.80199e-7 0.9983536 0.05735951 0 0.9983502 0.05741989 -9.66607e-7 0.9738474 0.2272031 0 0.9738472 0.2272039 0 0.8982089 0.439569 -3.18064e-7 0.8981682 0.4396521 0 0.7800658 0.6256976 0 0.7800655 0.6256978 -0.09042328 0.5825344 0.8077607 0.08974671 0.6636383 0.7426505 0 0.4396935 0.8981479 0 0.439652 0.8981683 0 0.2272209 0.9738432 0 0.2272208 0.9738433 0 -9.54605e-5 1 0 8.87316e-5 1 0 -0.2276278 0.9737483 1.54673e-7 -0.2273135 0.9738216 0 -0.4396936 0.8981478 -2.65052e-7 -0.4397762 0.8981075 -0.08976358 -0.6636145 0.7426698 0.09042334 -0.5825331 0.8077617 0 -0.7800934 0.6256632 0 -0.7801227 0.6256267 -2.65053e-7 -0.8981084 0.4397745 0 -0.8981692 0.4396501 -8.48449e-7 -0.9983516 0.05739504 0 -0.9983507 0.05740922 0 -0.9738587 0.2271546 -3.79974e-7 -0.9738589 0.227154 0 -0.8981692 0.4396502 0 -0.898149 0.4396913 0 -0.7801223 0.6256271 0 -0.7801225 0.625627 0.09042334 -0.5825329 0.8077618 -0.08974677 -0.6636372 0.7426515 -3.18063e-7 -0.4396521 0.8981683 0 -0.4396522 0.8981682 0 -0.227134 0.9738636 0 -0.2276279 0.9737483 0 8.87269e-5 1 0 -9.54749e-5 1 0 0.2272208 0.9738432 0 0.227221 0.9738432 0 0.4396934 0.898148 -5.0395e-7 0.4397764 0.8981073 0.08974671 0.6636384 0.7426504 -0.09042328 0.5825343 0.8077607 0 0.7801235 0.6256256 0 0.7800657 0.6256976 0 0.898148 0.4396935 0 0.8981682 0.4396522 0 0.9738368 0.2272485 0 0.9738578 0.2271587 0 0.9983502 0.05741959 -7.41206e-7 0.9983536 0.05735957 0 0.9983537 -0.05735909 0 0.9983502 -0.05741912 1.40936e-6 0.9738579 -0.2271583 0 0.973837 -0.227248 0 0.8982086 -0.4395695 3.18064e-7 0.8981683 -0.439652 0 0.7800945 -0.6256617 0 0.7801235 -0.6256256 0.09042316 0.5825312 -0.8077629 -0.08974659 0.6636356 -0.742653 0 0.4396937 -0.8981478 0 0.4396524 -0.898168 0 0.227225 -0.9738424 0 0.227225 -0.9738423 0 -9.54749e-5 -1 0 8.87269e-5 -1 0 -0.2276318 -0.9737473 -1.54673e-7 -0.2273176 -0.9738207 0 -0.4396938 -0.8981477 2.65053e-7 -0.4397766 -0.8981072 0.08974665 -0.6636343 -0.7426542 -0.09042322 -0.5825299 -0.807764 0 -0.7800647 -0.625699 0 -0.7801224 -0.6256271 2.65053e-7 -0.8981085 -0.4397742 0 -0.8981692 -0.4396502 0 -0.9738485 -0.2271985 0 -0.973838 -0.2272439 0 -0.9983516 -0.0573945 0 -0.9983508 -0.05740875 0 0 1 0 0 -1 0 1 0 0 -1 0</float_array>
          <technique_common>
            <accessor source="#Conveyor01Frame_Conveyor_0_004-mesh-normals-array" count="192" stride="3">
              <param name="X" type="float"/>
              <param name="Y" type="float"/>
              <param name="Z" type="float"/>
            </accessor>
          </technique_common>
        </source>
        <source id="Conveyor01Frame_Conveyor_0_004-mesh-map-0">
          <float_array id="Conveyor01Frame_Conveyor_0_004-mesh-map-0-array" count="1872">0.004299998 0.5103 0.002299964 0.5136 0.000999987 0.5172 0.000999987 0.5172 5e-4 0.5211001 0.004299998 0.5103 0.004299998 0.5103 5e-4 0.5211001 0.000999987 0.5251 0.000999987 0.5251 0.002299964 0.5287 0.004299998 0.5103 0.004299998 0.5103 0.002299964 0.5287 0.004299998 0.5319 0.004299998 0.5319 0.006999969 0.5346 0.004299998 0.5103 0.006999969 0.5077 0.004299998 0.5103 0.006999969 0.5346 0.006999969 0.5346 0.01019996 0.5056 0.006999969 0.5077 0.01019996 0.5056 0.006999969 0.5346 0.01019996 0.5366 0.01019996 0.5366 0.01379996 0.5379 0.01019996 0.5056 0.01379996 0.5043 0.01019996 0.5056 0.01379996 0.5379 0.01379996 0.5379 0.01789999 0.5039 0.01379996 0.5043 0.01789999 0.5384 0.5534 0.5384 0.01789999 0.5039 0.01789999 0.5039 0.01379996 0.5379 0.01789999 0.5384 0.5534 0.5384 0.5575 0.5379 0.5534 0.5039 0.5534 0.5039 0.01789999 0.5039 0.5534 0.5384 0.5534 0.5039 0.5575 0.5379 0.5612 0.5366 0.5612 0.5366 0.5644 0.5346 0.5534 0.5039 0.5575 0.5043 0.5534 0.5039 0.5644 0.5346 0.5644 0.5346 0.5612 0.5056 0.5575 0.5043 0.5671 0.5319 0.5644 0.5077 0.5612 0.5056 0.5612 0.5056 0.5644 0.5346 0.5671 0.5319 0.5671 0.5103 0.5644 0.5077 0.5671 0.5319 0.5671 0.5319 0.5691 0.5136 0.5671 0.5103 0.5691 0.5136 0.5671 0.5319 0.5691 0.5287 0.5691 0.5287 0.5704 0.5251 0.5691 0.5136 0.5704 0.5251 0.5708 0.5211001 0.5704 0.5172 0.5704 0.5172 0.5691 0.5136 0.5704 0.5251 0.000999987 0.4813 5e-4 0.4853 0.000999987 0.4892 0.000999987 0.4892 0.002299964 0.4777 0.000999987 0.4813 0.5704 0.4813 0.5691 0.4777 0.5671 0.4745 0.5671 0.4745 0.5708 0.4853 0.5704 0.4813 0.5704 0.4892 0.5708 0.4853 0.5671 0.4745 0.5671 0.4745 0.5691 0.4929 0.5704 0.4892 0.5671 0.4961 0.5691 0.4929 0.5671 0.4745 0.5671 0.4745 0.5644 0.4988 0.5671 0.4961 0.5644 0.4988 0.5671 0.4745 0.5644 0.4718 0.5644 0.4718 0.5612 0.4698 0.5644 0.4988 0.5612 0.5008 0.5644 0.4988 0.5612 0.4698 0.5612 0.4698 0.5575 0.5021 0.5612 0.5008 0.5575 0.5021 0.5612 0.4698 0.5575 0.4685 0.5575 0.4685 0.5534 0.468 0.5575 0.5021 0.5534 0.468 0.01789999 0.5026 0.5534 0.5026 0.5534 0.5026 0.5575 0.5021 0.5534 0.468 0.01789999 0.468 0.01379996 0.5021 0.01789999 0.5026 0.01789999 0.5026 0.5534 0.468 0.01789999 0.468 0.01019996 0.5008 0.01379996 0.5021 0.01789999 0.468 0.01789999 0.468 0.006999969 0.4988 0.01019996 0.5008 0.006999969 0.4988 0.01789999 0.468 0.01379996 0.4685 0.01379996 0.4685 0.01019996 0.4698 0.006999969 0.4988 0.004299998 0.4961 0.006999969 0.4988 0.01019996 0.4698 0.01019996 0.4698 0.006999969 0.4718 0.004299998 0.4961 0.004299998 0.4961 0.006999969 0.4718 0.004299998 0.4745 0.004299998 0.4745 0.002299964 0.4777 0.004299998 0.4961 0.002299964 0.4929 0.004299998 0.4961 0.002299964 0.4777 0.002299964 0.4777 0.000999987 0.4892 0.002299964 0.4929 0.5604 0.5847 0.5611 0.5819 0.5565 0.5813 0.5565 0.5813 0.5563 0.5842 0.5604 0.5847 0.5563 0.5842 0.5565 0.5813 0.02069997 0.5813 0.02069997 0.5813 0.02079999 0.5842 0.5563 0.5842 0.01669996 0.5847 0.02079999 0.5842 0.02069997 0.5813 0.02069997 0.5813 0.01599997 0.5819 0.01669996 0.5847 0.01669996 0.5847 0.01599997 0.5819 0.01179999 0.5834 0.01179999 0.5834 0.01309996 0.586 0.01669996 0.5847 0.01309996 0.586 0.01179999 0.5834 0.008099973 0.5858 0.008099973 0.5858 0.009899973 0.588 0.01309996 0.586 0.009899973 0.588 0.008099973 0.5858 0.004899978 0.5889 0.004899978 0.5889 0.007199943 0.5907 0.009899973 0.588 0.007199943 0.5907 0.004899978 0.5889 0.002599954 0.5926 0.002599954 0.5926 0.005199968 0.5939 0.007199943 0.5907 0.005199968 0.5939 0.002599954 0.5926 0.000999987 0.5969 0.000999987 0.5969 0.003899991 0.5975 0.005199968 0.5939 0.003899991 0.5975 0.000999987 0.5969 5e-4 0.6015 5e-4 0.6015 0.003399968 0.6015 0.003899991 0.5975 0.003399968 0.6015 5e-4 0.6015 0.000999987 0.6061 0.000999987 0.6061 0.003899991 0.6054 0.003399968 0.6015 0.003899991 0.6054 0.000999987 0.6061 0.002599954 0.6103 0.002599954 0.6103 0.005199968 0.6091 0.003899991 0.6054 0.005199968 0.6091 0.002599954 0.6103 0.004899978 0.6141 0.004899978 0.6141 0.007199943 0.6123 0.005199968 0.6091 0.007199943 0.6123 0.004899978 0.6141 0.008099973 0.6172 0.008099973 0.6172 0.009899973 0.615 0.007199943 0.6123 0.009899973 0.615 0.008099973 0.6172 0.01179999 0.6196 0.01179999 0.6196 0.01309996 0.617 0.009899973 0.615 0.01309996 0.617 0.01179999 0.6196 0.01599997 0.6211 0.01599997 0.6211 0.01669996 0.6183 0.01309996 0.617 0.01669996 0.6183 0.01599997 0.6211 0.02069997 0.6216 0.02069997 0.6216 0.02079999 0.6188001 0.01669996 0.6183 0.02079999 0.6188001 0.02069997 0.6216 0.5565 0.6216 0.5565 0.6216 0.5563 0.6188001 0.02079999 0.6188001 0.5604 0.6183 0.5563 0.6188001 0.5565 0.6216 0.5565 0.6216 0.5611 0.6211 0.5604 0.6183 0.5604 0.6183 0.5611 0.6211 0.5653 0.6196 0.5653 0.6196 0.5641 0.617 0.5604 0.6183 0.5641 0.617 0.5653 0.6196 0.5691 0.6172 0.5691 0.6172 0.5673 0.615 0.5641 0.617 0.57 0.6123 0.5673 0.615 0.5691 0.6172 0.5691 0.6172 0.5722 0.6141 0.57 0.6123 0.57 0.6123 0.5722 0.6141 0.5746 0.6103 0.5746 0.6103 0.572 0.6091 0.57 0.6123 0.572 0.6091 0.5746 0.6103 0.5761 0.6061 0.5761 0.6061 0.5733 0.6054 0.572 0.6091 0.5733 0.6054 0.5761 0.6061 0.5766 0.6015 0.5766 0.6015 0.5737 0.6015 0.5733 0.6054 0.5737 0.6015 0.5766 0.6015 0.5761 0.5969 0.5761 0.5969 0.5733 0.5975 0.5737 0.6015 0.5733 0.5975 0.5761 0.5969 0.5746 0.5926 0.5746 0.5926 0.572 0.5939 0.5733 0.5975 0.572 0.5939 0.5746 0.5926 0.5722 0.5889 0.5722 0.5889 0.57 0.5907 0.572 0.5939 0.57 0.5907 0.5722 0.5889 0.5691 0.5858 0.5691 0.5858 0.5673 0.588 0.57 0.5907 0.5673 0.588 0.5691 0.5858 0.5653 0.5834 0.5653 0.5834 0.5641 0.586 0.5673 0.588 0.5641 0.586 0.5653 0.5834 0.5611 0.5819 0.5611 0.5819 0.5604 0.5847 0.5641 0.586 0.01669996 0.5431 0.02079999 0.5426 0.02069997 0.5397 0.02069997 0.5397 0.01599997 0.5402 0.01669996 0.5431 0.01669996 0.5431 0.01599997 0.5402 0.01179999 0.5418 0.01179999 0.5418 0.01309996 0.5444 0.01669996 0.5431 0.01309996 0.5444 0.01179999 0.5418 0.008099973 0.5441 0.008099973 0.5441 0.009899973 0.5464 0.01309996 0.5444 0.009899973 0.5464 0.008099973 0.5441 0.004899978 0.5473 0.004899978 0.5473 0.007199943 0.5491001 0.009899973 0.5464 0.007199943 0.5491001 0.004899978 0.5473 0.002599954 0.551 0.002599954 0.551 0.005199968 0.5523 0.007199943 0.5491001 0.005199968 0.5523 0.002599954 0.551 0.000999987 0.5553 0.000999987 0.5553 0.003899991 0.5559 0.005199968 0.5523 0.003899991 0.5559 0.000999987 0.5553 5e-4 0.5599 5e-4 0.5599 0.003399968 0.5599 0.003899991 0.5559 0.003399968 0.5599 5e-4 0.5599 0.000999987 0.5645 0.000999987 0.5645 0.003899991 0.5638 0.003399968 0.5599 0.003899991 0.5638 0.000999987 0.5645 0.002599954 0.5687 0.002599954 0.5687 0.005199968 0.5675 0.003899991 0.5638 0.005199968 0.5675 0.002599954 0.5687 0.004899978 0.5725 0.004899978 0.5725 0.007199943 0.5707 0.005199968 0.5675 0.007199943 0.5707 0.004899978 0.5725 0.008099973 0.5756 0.008099973 0.5756 0.009899973 0.5733 0.007199943 0.5707 0.009899973 0.5733 0.008099973 0.5756 0.01179999 0.578 0.01179999 0.578 0.01309996 0.5754 0.009899973 0.5733 0.01309996 0.5754 0.01179999 0.578 0.01599997 0.5795 0.01599997 0.5795 0.01669996 0.5767 0.01309996 0.5754 0.01669996 0.5767 0.01599997 0.5795 0.02069997 0.5800001 0.02069997 0.5800001 0.02079999 0.5772 0.01669996 0.5767 0.02079999 0.5772 0.02069997 0.5800001 0.5565 0.5800001 0.5565 0.5800001 0.5563 0.5772 0.02079999 0.5772 0.5604 0.5767 0.5563 0.5772 0.5565 0.5800001 0.5565 0.5800001 0.5611 0.5795 0.5604 0.5767 0.5604 0.5767 0.5611 0.5795 0.5653 0.578 0.5653 0.578 0.5641 0.5754 0.5604 0.5767 0.5641 0.5754 0.5653 0.578 0.5691 0.5756 0.5691 0.5756 0.5673 0.5733 0.5641 0.5754 0.57 0.5707 0.5673 0.5733 0.5691 0.5756 0.5691 0.5756 0.5722 0.5725 0.57 0.5707 0.57 0.5707 0.5722 0.5725 0.5746 0.5687 0.5746 0.5687 0.572 0.5675 0.57 0.5707 0.572 0.5675 0.5746 0.5687 0.5761 0.5645 0.5761 0.5645 0.5733 0.5638 0.572 0.5675 0.5733 0.5638 0.5761 0.5645 0.5766 0.5599 0.5766 0.5599 0.5737 0.5599 0.5733 0.5638 0.5737 0.5599 0.5766 0.5599 0.5761 0.5553 0.5761 0.5553 0.5733 0.5559 0.5737 0.5599 0.5733 0.5559 0.5761 0.5553 0.5746 0.551 0.5746 0.551 0.572 0.5523 0.5733 0.5559 0.572 0.5523 0.5746 0.551 0.5722 0.5473 0.5722 0.5473 0.57 0.5491001 0.572 0.5523 0.57 0.5491001 0.5722 0.5473 0.5691 0.5441 0.5691 0.5441 0.5673 0.5464 0.57 0.5491001 0.5673 0.5464 0.5691 0.5441 0.5653 0.5418 0.5653 0.5418 0.5641 0.5444 0.5673 0.5464 0.5641 0.5444 0.5653 0.5418 0.5611 0.5402 0.5611 0.5402 0.5604 0.5431 0.5641 0.5444 0.5604 0.5431 0.5611 0.5402 0.5565 0.5397 0.5565 0.5397 0.5563 0.5426 0.5604 0.5431 0.5563 0.5426 0.5565 0.5397 0.02069997 0.5397 0.02069997 0.5397 0.02079999 0.5426 0.5563 0.5426 0.00999999 0.4074 0.00999999 0.4362 0.01409995 0.4362 0.01409995 0.4362 0.01409995 0.4074 0.00999999 0.4074 0.01409995 0.4074 0.01409995 0.4362 0.5496 0.4362 0.5496 0.4362 0.5496 0.4074 0.01409995 0.4074 0.5496 0.4074 0.5496 0.4362 0.5538 0.4362 0.5538 0.4362 0.5538 0.4074 0.5496 0.4074 0.5538 0.4074 0.5538 0.4362 0.5574 0.4362 0.5574 0.4362 0.5574 0.4074 0.5538 0.4074 0.5574 0.4074 0.5574 0.4362 0.5606 0.4362 0.5606 0.4362 0.5606 0.4074 0.5574 0.4074 0.5606 0.4074 0.5606 0.4362 0.5633 0.4362 0.5633 0.4362 0.5633 0.4074 0.5606 0.4074 0.03039997 0.585 0.03039997 0.6138 0.03359997 0.6138 0.03359997 0.6138 0.03359997 0.585 0.03039997 0.585 0.03359997 0.585 0.03359997 0.6138 0.03719997 0.6138 0.03719997 0.6138 0.03719997 0.585 0.03359997 0.585 0.03719997 0.585 0.03719997 0.6138 0.04119998 0.6138 0.04119998 0.6138 0.04119998 0.585 0.03719997 0.585 0.04119998 0.585 0.04119998 0.6138 0.04509997 0.6138 0.04509997 0.6138 0.04509997 0.585 0.04119998 0.585 0.04509997 0.585 0.04509997 0.6138 0.04879999 0.6138 0.04879999 0.6138 0.04879999 0.585 0.04509997 0.585 0.04879999 0.585 0.04879999 0.6138 0.05199998 0.6138 0.05199998 0.6138 0.05199998 0.585 0.04879999 0.585 5e-4 0.4379 5e-4 0.4667 0.003199994 0.4667 0.003199994 0.4667 0.003199994 0.4379 5e-4 0.4379 0.003199994 0.4379 0.003199994 0.4667 0.006399989 0.4667 0.006399989 0.4667 0.006399989 0.4379 0.003199994 0.4379 0.006399989 0.4379 0.006399989 0.4667 0.00999999 0.4667 0.00999999 0.4667 0.00999999 0.4379 0.006399989 0.4379 0.00999999 0.4379 0.00999999 0.4667 0.01409995 0.4667 0.01409995 0.4667 0.01409995 0.4379 0.00999999 0.4379 0.01409995 0.4379 0.01409995 0.4667 0.5496 0.4667 0.5496 0.4667 0.5496 0.4379 0.01409995 0.4379 0.5496 0.4379 0.5496 0.4667 0.5538 0.4667 0.5538 0.4667 0.5538 0.4379 0.5496 0.4379 0.5538 0.4379 0.5538 0.4667 0.5574 0.4667 0.5574 0.4667 0.5574 0.4379 0.5538 0.4379 0.5574 0.4379 0.5574 0.4667 0.5606 0.4667 0.5606 0.4667 0.5606 0.4379 0.5574 0.4379 0.5606 0.4379 0.5606 0.4667 0.5633 0.4667 0.5633 0.4667 0.5633 0.4379 0.5606 0.4379 0.05199998 0.5722 0.05199998 0.5434 0.04879999 0.5434 0.04879999 0.5434 0.04879999 0.5722 0.05199998 0.5722 0.04879999 0.5722 0.04879999 0.5434 0.04509997 0.5434 0.04509997 0.5434 0.04509997 0.5722 0.04879999 0.5722 0.04509997 0.5722 0.04509997 0.5434 0.04119998 0.5434 0.04119998 0.5434 0.04119998 0.5722 0.04509997 0.5722 0.04119998 0.5722 0.04119998 0.5434 0.03719997 0.5434 0.03719997 0.5434 0.03719997 0.5722 0.04119998 0.5722 0.03719997 0.5722 0.03719997 0.5434 0.03359997 0.5434 0.03359997 0.5434 0.03359997 0.5722 0.03719997 0.5722 0.03359997 0.5722 0.03359997 0.5434 0.03039997 0.5434 0.03039997 0.5434 0.03039997 0.5722 0.03359997 0.5722 5e-4 0.4074 5e-4 0.4362 0.003199994 0.4362 0.003199994 0.4362 0.003199994 0.4074 5e-4 0.4074 0.003199994 0.4074 0.003199994 0.4362 0.006399989 0.4362 0.006399989 0.4362 0.006399989 0.4074 0.003199994 0.4074 0.006399989 0.4074 0.006399989 0.4362 0.00999999 0.4362 0.00999999 0.4362 0.00999999 0.4074 0.006399989 0.4074 0.01409995 0.3752 0.01409995 0.3464 0.00999999 0.3464 0.00999999 0.3464 0.00999999 0.3752 0.01409995 0.3752 0.00999999 0.3752 0.00999999 0.3464 0.006399989 0.3464 0.006399989 0.3464 0.006399989 0.3752 0.00999999 0.3752 0.006399989 0.3752 0.006399989 0.3464 0.003199994 0.3464 0.003199994 0.3464 0.003199994 0.3752 0.006399989 0.3752 0.003199994 0.3752 0.003199994 0.3464 5e-4 0.3464 5e-4 0.3464 5e-4 0.3752 0.003199994 0.3752 0.532 0.585 0.532 0.6138 0.5352 0.6138 0.5352 0.6138 0.5352 0.585 0.532 0.585 0.5352 0.585 0.5352 0.6138 0.5388 0.6138 0.5388 0.6138 0.5388 0.585 0.5352 0.585 0.5388 0.585 0.5388 0.6138 0.5428 0.6138 0.5428 0.6138 0.5428 0.585 0.5388 0.585 0.5428 0.585 0.5428 0.6138 0.5468 0.6138 0.5468 0.6138 0.5468 0.585 0.5428 0.585 0.5468 0.585 0.5468 0.6138 0.5504 0.6138 0.5504 0.6138 0.5504 0.585 0.5468 0.585 0.5504 0.585 0.5504 0.6138 0.5536 0.6138 0.5536 0.6138 0.5536 0.585 0.5504 0.585 0.5633 0.4057 0.5633 0.3769 0.5606 0.3769 0.5606 0.3769 0.5606 0.4057 0.5633 0.4057 0.5606 0.4057 0.5606 0.3769 0.5574 0.3769 0.5574 0.3769 0.5574 0.4057 0.5606 0.4057 0.5574 0.4057 0.5574 0.3769 0.5538 0.3769 0.5538 0.3769 0.5538 0.4057 0.5574 0.4057 0.5538 0.4057 0.5538 0.3769 0.5496 0.3769 0.5496 0.3769 0.5496 0.4057 0.5538 0.4057 0.5496 0.4057 0.5496 0.3769 0.01409995 0.3769 0.01409995 0.3769 0.01409995 0.4057 0.5496 0.4057 0.01409995 0.4057 0.01409995 0.3769 0.00999999 0.3769 0.00999999 0.3769 0.00999999 0.4057 0.01409995 0.4057 0.00999999 0.4057 0.00999999 0.3769 0.006399989 0.3769 0.006399989 0.3769 0.006399989 0.4057 0.00999999 0.4057 0.006399989 0.4057 0.006399989 0.3769 0.003199994 0.3769 0.003199994 0.3769 0.003199994 0.4057 0.006399989 0.4057 0.003199994 0.4057 0.003199994 0.3769 5e-4 0.3769 5e-4 0.3769 5e-4 0.4057 0.003199994 0.4057 0.5536 0.5722 0.5536 0.5434 0.5504 0.5434 0.5504 0.5434 0.5504 0.5722 0.5536 0.5722 0.5504 0.5722 0.5504 0.5434 0.5468 0.5434 0.5468 0.5434 0.5468 0.5722 0.5504 0.5722 0.5468 0.5722 0.5468 0.5434 0.5428 0.5434 0.5428 0.5434 0.5428 0.5722 0.5468 0.5722 0.5428 0.5722 0.5428 0.5434 0.5388 0.5434 0.5388 0.5434 0.5388 0.5722 0.5428 0.5722 0.5388 0.5722 0.5388 0.5434 0.5352 0.5434 0.5352 0.5434 0.5352 0.5722 0.5388 0.5722 0.5352 0.5722 0.5352 0.5434 0.532 0.5434 0.532 0.5434 0.532 0.5722 0.5352 0.5722 0.5633 0.3752 0.5633 0.3464 0.5606 0.3464 0.5606 0.3464 0.5606 0.3752 0.5633 0.3752 0.5606 0.3752 0.5606 0.3464 0.5574 0.3464 0.5574 0.3464 0.5574 0.3752 0.5606 0.3752 0.5574 0.3752 0.5574 0.3464 0.5538 0.3464 0.5538 0.3464 0.5538 0.3752 0.5574 0.3752 0.5538 0.3752 0.5538 0.3464 0.5496 0.3464 0.5496 0.3464 0.5496 0.3752 0.5538 0.3752 0.5496 0.3752 0.5496 0.3464 0.01409995 0.3464 0.01409995 0.3464 0.01409995 0.3752 0.5496 0.3752 0.519 0.5854 0.303 0.5854 0.303 0.5998 0.303 0.5998 0.519 0.5998 0.519 0.5854 0.3025 0.573 0.3025 0.5586 0.08649998 0.5586 0.08649998 0.5586 0.08649998 0.573 0.3025 0.573 0.519 0.6146 0.519 0.6002 0.303 0.6002 0.303 0.6002 0.303 0.6146 0.519 0.6146 0.08649998 0.5438 0.08649998 0.5582 0.3025 0.5582 0.3025 0.5582 0.3025 0.5438 0.08649998 0.5438 0.519 0.5438 0.303 0.5438 0.303 0.5582 0.303 0.5582 0.519 0.5582 0.519 0.5438 0.519 0.573 0.519 0.5586 0.303 0.5586 0.303 0.5586 0.303 0.573 0.519 0.573 0.3025 0.6146 0.3025 0.6002 0.08649998 0.6002 0.08649998 0.6002 0.08649998 0.6146 0.3025 0.6146 0.08649998 0.5854 0.08649998 0.5998 0.3025 0.5998 0.3025 0.5998 0.3025 0.5854 0.08649998 0.5854</float_array>
          <technique_common>
            <accessor source="#Conveyor01Frame_Conveyor_0_004-mesh-map-0-array" count="936" stride="2">
              <param name="S" type="float"/>
              <param name="T" type="float"/>
            </accessor>
          </technique_common>
        </source>
        <vertices id="Conveyor01Frame_Conveyor_0_004-mesh-vertices">
          <input semantic="POSITION" source="#Conveyor01Frame_Conveyor_0_004-mesh-positions"/>
        </vertices>
        <triangles material="Material_002-material" count="312">
          <input semantic="VERTEX" source="#Conveyor01Frame_Conveyor_0_004-mesh-vertices" offset="0"/>
          <input semantic="NORMAL" source="#Conveyor01Frame_Conveyor_0_004-mesh-normals" offset="1"/>
          <input semantic="TEXCOORD" source="#Conveyor01Frame_Conveyor_0_004-mesh-map-0" offset="2" set="0"/>
          <p>123 0 0 124 0 1 125 0 2 125 1 3 0 1 4 123 1 5 123 2 6 0 2 7 1 2 8 1 0 9 2 0 10 123 0 11 123 0 12 2 0 13 127 0 14 127 0 15 3 0 16 123 0 17 4 0 18 123 0 19 3 0 20 3 0 21 5 0 22 4 0 23 5 0 24 3 0 25 6 0 26 6 0 27 130 0 28 5 0 29 7 0 30 5 0 31 130 0 32 130 0 33 8 0 34 7 0 35 9 0 36 10 0 37 8 0 38 8 0 39 130 0 40 9 0 41 10 0 42 133 0 43 11 0 44 11 0 45 8 0 46 10 0 47 11 0 48 133 0 49 12 0 50 12 0 51 136 0 52 11 0 53 13 0 54 11 0 55 136 0 56 136 0 57 148 0 58 13 0 59 137 0 60 14 0 61 148 0 62 148 0 63 136 0 64 137 0 65 145 0 66 14 0 67 137 0 68 137 0 69 144 0 70 145 0 71 144 0 72 137 0 73 139 0 74 139 0 75 15 0 76 144 0 77 15 0 78 141 0 79 16 0 80 16 0 81 144 0 82 15 0 83 154 3 84 156 3 85 17 3 86 17 3 87 18 3 88 154 3 89 19 4 90 174 4 91 176 4 92 176 5 93 20 5 94 19 5 95 172 6 96 20 6 97 176 6 98 176 7 99 170 7 100 172 7 101 168 3 102 170 3 103 176 3 104 176 3 105 167 3 106 168 3 107 167 3 108 176 3 109 177 3 110 177 3 111 21 3 112 167 3 113 166 3 114 167 3 115 21 3 116 21 3 117 22 3 118 166 3 119 22 3 120 21 3 121 178 3 122 178 3 123 23 3 124 22 3 125 23 3 126 24 3 127 164 3 128 164 3 129 22 3 130 23 3 131 149 3 132 25 3 133 24 3 134 24 3 135 23 3 136 149 3 137 162 3 138 25 3 139 149 3 140 149 8 141 161 8 142 162 8 143 161 9 144 149 9 145 150 9 146 150 10 147 26 10 148 161 10 149 159 3 150 161 3 151 26 3 152 26 3 153 27 3 154 159 3 155 159 3 156 27 3 157 152 3 158 152 3 159 18 3 160 159 3 161 157 3 162 159 3 163 18 3 164 18 3 165 17 3 166 157 3 167 120 0 168 28 0 169 29 0 170 29 0 171 30 0 172 120 0 173 30 0 174 29 0 175 31 0 176 31 0 177 32 0 178 30 0 179 33 11 180 32 11 181 31 11 182 31 12 183 34 12 184 33 12 185 33 0 186 34 0 187 35 0 188 35 0 189 121 0 190 33 0 191 121 0 192 35 0 193 36 0 194 36 13 195 122 13 196 121 13 197 122 14 198 36 14 199 37 14 200 37 15 201 38 15 202 122 15 203 38 16 204 37 16 205 39 16 206 39 17 207 40 17 208 38 17 209 40 18 210 39 18 211 41 18 212 41 19 213 42 19 214 40 19 215 42 20 216 41 20 217 43 20 218 43 0 219 44 0 220 42 0 221 44 21 222 43 21 223 45 21 224 45 0 225 126 0 226 44 0 227 126 0 228 45 0 229 46 0 230 46 22 231 47 22 232 126 22 233 47 23 234 46 23 235 48 23 236 48 24 237 128 24 238 47 24 239 128 25 240 48 25 241 49 25 242 49 26 243 50 26 244 128 26 245 50 0 246 49 0 247 51 0 248 51 0 249 129 0 250 50 0 251 129 0 252 51 0 253 52 0 254 52 0 255 53 0 256 129 0 257 53 27 258 52 27 259 54 27 260 54 0 261 131 0 262 53 0 263 131 0 264 54 0 265 55 0 266 55 0 267 132 0 268 131 0 269 56 28 270 132 28 271 55 28 272 55 29 273 57 29 274 56 29 275 56 0 276 57 0 277 58 0 278 58 0 279 134 0 280 56 0 281 134 0 282 58 0 283 59 0 284 59 30 285 135 30 286 134 30 287 138 31 288 135 31 289 59 31 290 59 32 291 60 32 292 138 32 293 138 0 294 60 0 295 61 0 296 61 0 297 62 0 298 138 0 299 62 33 300 61 33 301 63 33 302 63 34 303 140 34 304 62 34 305 140 35 306 63 35 307 64 35 308 64 36 309 65 36 310 140 36 311 65 37 312 64 37 313 66 37 314 66 0 315 142 0 316 65 0 317 142 0 318 66 0 319 67 0 320 67 38 321 143 38 322 142 38 323 143 0 324 67 0 325 68 0 326 68 0 327 146 0 328 143 0 329 146 39 330 68 39 331 69 39 332 69 40 333 147 40 334 146 40 335 147 0 336 69 0 337 70 0 338 70 0 339 71 0 340 147 0 341 71 0 342 70 0 343 28 0 344 28 0 345 120 0 346 71 0 347 72 41 348 73 41 349 74 41 350 74 42 351 75 42 352 72 42 353 72 43 354 75 43 355 76 43 356 76 44 357 77 44 358 72 44 359 77 3 360 76 3 361 78 3 362 78 45 363 79 45 364 77 45 365 79 3 366 78 3 367 80 3 368 80 3 369 151 3 370 79 3 371 151 3 372 80 3 373 81 3 374 81 46 375 82 46 376 151 46 377 82 47 378 81 47 379 83 47 380 83 48 381 153 48 382 82 48 383 153 49 384 83 49 385 84 49 386 84 50 387 155 50 388 153 50 389 155 51 390 84 51 391 85 51 392 85 52 393 86 52 394 155 52 395 86 3 396 85 3 397 87 3 398 87 3 399 88 3 400 86 3 401 88 3 402 87 3 403 89 3 404 89 45 405 158 45 406 88 45 407 158 3 408 89 3 409 90 3 410 90 3 411 160 3 412 158 3 413 160 3 414 90 3 415 91 3 416 91 3 417 92 3 418 160 3 419 92 3 420 91 3 421 93 3 422 93 3 423 94 3 424 92 3 425 94 3 426 93 3 427 95 3 428 95 3 429 96 3 430 94 3 431 96 3 432 95 3 433 97 3 434 97 3 435 163 3 436 96 3 437 165 53 438 163 53 439 97 53 440 97 54 441 98 54 442 165 54 443 165 55 444 98 55 445 99 55 446 99 56 447 100 56 448 165 56 449 100 3 450 99 3 451 101 3 452 101 57 453 102 57 454 100 57 455 169 3 456 102 3 457 101 3 458 101 3 459 103 3 460 169 3 461 169 3 462 103 3 463 104 3 464 104 3 465 105 3 466 169 3 467 105 58 468 104 58 469 106 58 470 106 59 471 171 59 472 105 59 473 171 60 474 106 60 475 107 60 476 107 61 477 173 61 478 171 61 479 173 62 480 107 62 481 108 62 482 108 63 483 109 63 484 173 63 485 109 64 486 108 64 487 110 64 488 110 3 489 111 3 490 109 3 491 111 3 492 110 3 493 112 3 494 112 3 495 175 3 496 111 3 497 175 3 498 112 3 499 113 3 500 113 3 501 114 3 502 175 3 503 114 3 504 113 3 505 115 3 506 115 3 507 116 3 508 114 3 509 116 3 510 115 3 511 117 3 512 117 3 513 118 3 514 116 3 515 118 3 516 117 3 517 119 3 518 119 65 519 179 65 520 118 65 521 179 66 522 119 66 523 74 66 524 74 67 525 73 67 526 179 67 527 13 68 528 120 69 529 30 70 530 30 70 531 11 71 532 13 68 533 11 71 534 30 70 535 32 72 536 32 72 537 8 73 538 11 71 539 8 73 540 32 72 541 33 74 542 33 74 543 7 75 544 8 73 545 7 75 546 33 74 547 121 76 548 121 76 549 5 77 550 7 75 551 5 77 552 121 76 553 122 78 554 122 78 555 4 79 556 5 77 557 4 79 558 122 78 559 38 80 560 38 80 561 123 81 562 4 79 563 123 81 564 38 80 565 40 82 566 40 82 567 124 83 568 123 81 569 124 83 570 40 82 571 42 84 572 42 84 573 125 85 574 124 83 575 125 85 576 42 84 577 44 86 578 44 86 579 0 87 580 125 85 581 0 87 582 44 86 583 126 88 584 126 88 585 1 89 586 0 87 587 1 89 588 126 88 589 47 90 590 47 90 591 2 91 592 1 89 593 2 91 594 47 90 595 128 92 596 128 92 597 127 93 598 2 91 599 127 93 600 128 92 601 50 94 602 50 94 603 3 95 604 127 93 605 3 95 606 50 94 607 129 96 608 129 96 609 6 97 610 3 95 611 6 97 612 129 96 613 53 98 614 53 98 615 130 99 616 6 97 617 130 99 618 53 98 619 131 100 620 131 100 621 9 101 622 130 99 623 9 101 624 131 100 625 132 102 626 132 102 627 10 103 628 9 101 629 10 103 630 132 102 631 56 104 632 56 104 633 133 105 634 10 103 635 133 105 636 56 104 637 134 106 638 134 106 639 12 107 640 133 105 641 12 107 642 134 106 643 135 108 644 135 108 645 136 109 646 12 107 647 136 109 648 135 108 649 138 110 650 138 110 651 137 111 652 136 109 653 137 111 654 138 110 655 62 112 656 62 112 657 139 113 658 137 111 659 139 113 660 62 112 661 140 114 662 140 114 663 15 115 664 139 113 665 15 115 666 140 114 667 65 116 668 65 116 669 141 117 670 15 115 671 141 117 672 65 116 673 142 118 674 142 118 675 16 119 676 141 117 677 16 119 678 142 118 679 143 120 680 143 120 681 144 121 682 16 119 683 144 121 684 143 120 685 146 122 686 146 122 687 145 123 688 144 121 689 145 123 690 146 122 691 147 124 692 147 124 693 14 125 694 145 123 695 14 125 696 147 124 697 71 126 698 71 126 699 148 127 700 14 125 701 148 127 702 71 126 703 120 69 704 120 69 705 13 68 706 148 127 707 149 128 708 73 129 709 72 130 710 72 130 711 150 131 712 149 128 713 150 131 714 72 130 715 77 132 716 77 132 717 26 133 718 150 131 719 26 133 720 77 132 721 79 134 722 79 134 723 27 135 724 26 133 725 27 135 726 79 134 727 151 136 728 151 136 729 152 137 730 27 135 731 152 137 732 151 136 733 82 138 734 82 138 735 18 139 736 152 137 737 18 139 738 82 138 739 153 140 740 153 140 741 154 141 742 18 139 743 154 141 744 153 140 745 155 142 746 155 142 747 156 143 748 154 141 749 156 143 750 155 142 751 86 144 752 86 144 753 17 145 754 156 143 755 17 145 756 86 144 757 88 146 758 88 146 759 157 147 760 17 145 761 157 147 762 88 146 763 158 148 764 158 148 765 159 149 766 157 147 767 159 149 768 158 148 769 160 150 770 160 150 771 161 151 772 159 149 773 161 151 774 160 150 775 92 152 776 92 152 777 162 153 778 161 151 779 162 153 780 92 152 781 94 154 782 94 154 783 25 155 784 162 153 785 25 155 786 94 154 787 96 156 788 96 156 789 24 157 790 25 155 791 24 157 792 96 156 793 163 158 794 163 158 795 164 159 796 24 157 797 164 159 798 163 158 799 165 160 800 165 160 801 22 161 802 164 159 803 22 161 804 165 160 805 100 162 806 100 162 807 166 163 808 22 161 809 166 163 810 100 162 811 102 164 812 102 164 813 167 165 814 166 163 815 167 165 816 102 164 817 169 166 818 169 166 819 168 167 820 167 165 821 168 167 822 169 166 823 105 168 824 105 168 825 170 169 826 168 167 827 170 169 828 105 168 829 171 170 830 171 170 831 172 171 832 170 169 833 172 171 834 171 170 835 173 172 836 173 172 837 20 173 838 172 171 839 20 173 840 173 172 841 109 174 842 109 174 843 19 175 844 20 173 845 19 175 846 109 174 847 111 176 848 111 176 849 174 177 850 19 175 851 174 177 852 111 176 853 175 178 854 175 178 855 176 179 856 174 177 857 176 179 858 175 178 859 114 180 860 114 180 861 177 181 862 176 179 863 177 181 864 114 180 865 116 182 866 116 182 867 21 183 868 177 181 869 21 183 870 116 182 871 118 184 872 118 184 873 178 185 874 21 183 875 178 185 876 118 184 877 179 186 878 179 186 879 23 187 880 178 185 881 23 187 882 179 186 883 73 129 884 73 129 885 149 128 886 23 187 887 182 188 888 181 188 889 186 188 890 186 188 891 185 188 892 182 188 893 187 189 894 180 189 895 183 189 896 183 189 897 184 189 898 187 189 899 180 190 900 181 190 901 182 190 902 182 190 903 183 190 904 180 190 905 184 191 906 185 191 907 186 191 908 186 191 909 187 191 910 184 191 911 188 188 912 189 188 913 194 188 914 194 188 915 193 188 916 188 188 917 195 189 918 190 189 919 191 189 920 191 189 921 192 189 922 195 189 923 190 190 924 189 190 925 188 190 926 188 190 927 191 190 928 190 190 929 192 191 930 193 191 931 194 191 932 194 191 933 195 191 934 192 191 935</p>
        </triangles>
      </mesh>
    </geometry>
  </library_geometries>
  <library_visual_scenes>
    <visual_scene id="Scene" name="Scene">
      <node id="Conveyor01Frame_Conveyor_0_004" name="Conveyor01Frame_Conveyor_0.004" type="NODE">
        <matrix sid="transform">0.6153846 0 0 -1.00452e-5 0 0.9999999 1.34359e-7 -0.66505 0 -1.34359e-7 0.9999999 2.83004e-7 0 0 0 1</matrix>
        <instance_geometry url="#Conveyor01Frame_Conveyor_0_004-mesh" name="Conveyor01Frame_Conveyor_0.004">
          <bind_material>
            <technique_common>
              <instance_material symbol="Material_002-material" target="#Material_002-material">
                <bind_vertex_input semantic="UVMap" input_semantic="TEXCOORD" input_set="0"/>
              </instance_material>
            </technique_common>
          </bind_material>
        </instance_geometry>
      </node>
    </visual_scene>
  </library_visual_scenes>
  <scene>
    <instance_visual_scene url="#Scene"/>
  </scene>
</COLLADA>