<?xml version="1.0" encoding="utf-8"?>
<COLLADA xmlns="http://www.collada.org/2005/11/COLLADASchema" version="1.4.1" xmlns:xsi="http://www.w3.org/2001/XMLSchema-instance">
  <asset>
    <contributor>
      <author>Blender User</author>
      <authoring_tool>Blender 4.5.10 LTS commit date:2026-05-18, commit time:13:28, hash:6dc0b208d1b5</authoring_tool>
    </contributor>
    <created>2026-07-24T09:53:30</created>
    <modified>2026-07-24T09:53:30</modified>
    <unit name="meter" meter="1"/>
    <up_axis>Z_UP</up_axis>
  </asset>
  <library_effects>
    <effect id="Material-effect">
      <profile_COMMON>
        <technique sid="common">
          <lambert>
            <emission>
              <color sid="emission">0 0 0 1</color>
            </emission>
            <diffuse>
              <color sid="diffuse">1 1 1 1</color>
            </diffuse>
            <index_of_refraction>
              <float sid="ior">1.45</float>
            </index_of_refraction>
          </lambert>
        </technique>
      </profile_COMMON>
    </effect>
  </library_effects>
  <library_images/>
  <library_materials>
    <material id="Material-material" name="Material">
      <instance_effect url="#Material-effect"/>
    </material>
  </library_materials>
  <library_geometries>
    <geometry id="Cylinder_008-mesh" name="Cylinder.008">
      <mesh>
        <source id="Cylinder_008-mesh-positions">
          <float_array id="Cylinder_008-mesh-positions-array" count="1248">0 1 -1 0 1 1 0.1950903 0.9807853 -1 0.1950903 0.9807853 1 0.3826835 0.9238795 -1 0.3826835 0.9238795 1 0.5555703 0.8314696 -1 0.5555703 0.8314696 1 0.7071068 0.7071068 -1 0.7071068 0.7071068 1 0.8314697 0.5555702 -1 0.8314697 0.5555702 1 0.9238795 0.3826834 -1 0.9238795 0.3826834 1 0.9807853 0.1950903 -1 0.9807853 0.1950903 1 1 0 -1 1 0 1 0.9807853 -0.1950902 -1 0.9807853 -0.1950902 1 0.9238796 -0.3826833 -1 0.9238796 -0.3826833 1 0.8314697 -0.5555702 -1 0.8314697 -0.5555702 1 0.7071068 -0.7071068 -1 0.7071068 -0.7071068 1 0.5555702 -0.8314697 -1 0.5555702 -0.8314697 1 0.3826833 -0.9238796 -1 0.3826833 -0.9238796 1 0.1950901 -0.9807853 -1 0.1950901 -0.9807853 1 -3.25841e-7 -1 -1 -3.25841e-7 -1 1 -0.1950907 -0.9807852 -1 -0.1950907 -0.9807852 1 -0.3826839 -0.9238793 -1 -0.3826839 -0.9238793 1 -0.5555707 -0.8314693 -1 -0.5555707 -0.8314693 1 -0.7071073 -0.7071064 -1 -0.7071073 -0.7071064 1 -0.83147 -0.5555697 -1 -0.83147 -0.5555697 1 -0.9238799 -0.3826827 -1 -0.9238799 -0.3826827 1 -0.9807854 -0.1950894 -1 -0.9807854 -0.1950894 1 -1 9.65599e-7 -1 -1 9.65599e-7 1 -0.9807851 0.1950913 -1 -0.9807851 0.1950913 1 -0.9238791 0.3826845 -1 -0.9238791 0.3826845 1 -0.8314689 0.5555713 -1 -0.8314689 0.5555713 1 -0.7071059 0.7071077 -1 -0.7071059 0.7071077 1 -0.5555691 0.8314704 -1 -0.5555691 0.8314704 1 -0.3826821 0.9238801 -1 -0.3826821 0.9238801 1 -0.1950888 0.9807856 -1 -0.1950888 0.9807856 1 -2 -1.199999 1 -2 -1.199999 -1 2 -1.199999 1 2 -1.199999 -1 -1.6 -21.2 0.8000018 -2 -19.2 1.000002 -1.662574 -21.17538 0.8312886 -1.723607 -21.10211 0.8618051 -1.781596 -20.98201 0.8907997 -1.835114 -20.81803 0.9175587 -1.882843 -20.61421 0.9414229 -1.923607 -20.37557 0.961805 -1.956403 -20.10798 0.9782029 -1.980422 -19.81803 0.9902129 -1.995075 -19.51287 0.9975392 -1.6 -21.2 -0.7999983 -2 -19.2 -0.9999985 -1.662574 -21.17538 -0.8312851 -1.723607 -21.10211 -0.8618016 -1.781596 -20.98201 -0.8907964 -1.835114 -20.81803 -0.9175553 -1.882843 -20.61421 -0.9414196 -1.923607 -20.37557 -0.9618017 -1.956403 -20.10798 -0.9781997 -1.980422 -19.81803 -0.9902096 -1.995075 -19.51287 -0.9975361 2 -19.2 1.000002 2 -21.2 0.8000018 2 -19.51287 0.9975392 2 -19.81803 0.9902129 2 -20.10798 0.9782029 2 -20.37557 0.961805 2 -20.61421 0.9414229 2 -20.81803 0.9175587 2 -20.98201 0.8907997 2 -21.10211 0.8618051 2 -21.17538 0.8312886 2 -21.2 -0.7999983 2 -19.2 -0.9999985 2 -21.17538 -0.8312851 2 -21.10211 -0.8618016 2 -20.98201 -0.8907964 2 -20.81803 -0.9175553 2 -20.61421 -0.9414196 2 -20.37557 -0.9618017 2 -20.10798 -0.9781997 2 -19.81803 -0.9902096 2 -19.51287 -0.9975361 -1 -1.999998 0.3 -2 -0.9999979 0.3 -1.156434 -1.987686 0.3 -1.309017 -1.951054 0.3 -1.45399 -1.891004 0.3 -1.587785 -1.809015 0.3 -1.707107 -1.707105 0.3 -1.809017 -1.587783 0.3 -1.891006 -1.453988 0.3 -1.951056 -1.309015 0.3 -1.987688 -1.156432 0.3 -2 -0.9999979 0.9 -1 -1.999998 0.9 -1.987688 -1.156432 0.9 -1.951056 -1.309015 0.9 -1.891006 -1.453988 0.9 -1.809017 -1.587783 0.9 -1.707107 -1.707105 0.9 -1.587785 -1.809015 0.9 -1.45399 -1.891004 0.9 -1.309017 -1.951054 0.9 -1.156434 -1.987686 0.9 -2 1.000002 0.3 -1 2.000002 0.3 -1.987688 1.156437 0.3 -1.951056 1.309019 0.3 -1.891006 1.453993 0.3 -1.809017 1.587787 0.3 -1.707107 1.707109 0.3 -1.587785 1.809019 0.3 -1.45399 1.891009 0.3 -1.309017 1.951059 0.3 -1.156434 1.98769 0.3 -1 2.000002 0.9 -2 1.000002 0.9 -1.156434 1.98769 0.9 -1.309017 1.951059 0.9 -1.45399 1.891009 0.9 -1.587785 1.809019 0.9 -1.707107 1.707109 0.9 -1.809017 1.587787 0.9 -1.891006 1.453993 0.9 -1.951056 1.309019 0.9 -1.987688 1.156437 0.9 2 -0.9999979 0.3 1 -1.999998 0.3 1.987688 -1.156432 0.3 1.951056 -1.309015 0.3 1.891006 -1.453988 0.3 1.809017 -1.587783 0.3 1.707107 -1.707105 0.3 1.587785 -1.809015 0.3 1.45399 -1.891004 0.3 1.309017 -1.951054 0.3 1.156434 -1.987686 0.3 1 -1.999998 0.9 2 -0.9999979 0.9 1.156434 -1.987686 0.9 1.309017 -1.951054 0.9 1.45399 -1.891004 0.9 1.587785 -1.809015 0.9 1.707107 -1.707105 0.9 1.809017 -1.587783 0.9 1.891006 -1.453988 0.9 1.951056 -1.309015 0.9 1.987688 -1.156432 0.9 1 2.000002 0.3 2 1.000002 0.3 1.156434 1.98769 0.3 1.309017 1.951059 0.3 1.45399 1.891009 0.3 1.587785 1.809019 0.3 1.707107 1.707109 0.3 1.809017 1.587787 0.3 1.891006 1.453993 0.3 1.951056 1.309019 0.3 1.987688 1.156437 0.3 2 1.000002 0.9 1 2.000002 0.9 1.987688 1.156437 0.9 1.951056 1.309019 0.9 1.891006 1.453993 0.9 1.809017 1.587787 0.9 1.707107 1.707109 0.9 1.587785 1.809019 0.9 1.45399 1.891009 0.9 1.309017 1.951059 0.9 1.156434 1.98769 0.9 -0.9238791 0.3826866 0.9 -0.9238791 0.3826866 0.3 -0.8314689 0.5555734 0.9 -0.8314689 0.5555734 0.3 0.3826835 0.9238816 0.9 0.3826835 0.9238817 0.3 0.1950903 0.9807873 0.9 0.1950903 0.9807873 0.3 -0.9807851 0.1950934 0.9 -0.9807851 0.1950935 0.3 0.7071068 0.7071089 0.9 0.7071068 0.7071089 0.3 0.5555702 -0.8314676 0.9 0.5555703 -0.8314676 0.3 0.3826833 -0.9238775 0.9 0.3826833 -0.9238775 0.3 0.8314697 0.5555723 0.9 0.8314697 0.5555723 0.3 0.1950901 -0.9807832 0.9 0.1950901 -0.9807832 0.3 -0.3826839 -0.9238772 0.9 -0.3826839 -0.9238773 0.3 -1 3.06845e-6 0.9 -1 3.06845e-6 0.3 -0.3826821 0.9238822 0.9 -0.3826821 0.9238822 0.3 -0.5555707 -0.8314672 0.9 -0.5555707 -0.8314673 0.3 0.9807853 -0.1950881 0.9 0.9807853 -0.1950881 0.3 0.7071068 -0.7071047 0.9 0.7071068 -0.7071048 0.3 0.9238796 -0.3826811 0.9 0.9238796 -0.3826812 0.3 1 2.17835e-6 0.9 1 2.17835e-6 0.3 -0.7071059 0.7071098 0.9 -0.7071059 0.7071098 0.3 -0.5555691 0.8314725 0.9 -0.5555691 0.8314725 0.3 -3.25841e-7 -0.9999979 0.9 -3.25841e-7 -0.9999979 0.3 0 1.000002 0.9 0 1.000002 0.3 0.9807853 0.1950924 0.9 0.9807853 0.1950924 0.3 0.5555703 0.8314717 0.9 0.5555703 0.8314717 0.3 0.9238795 0.3826856 0.9 0.9238796 0.3826856 0.3 -0.9238799 -0.3826805 0.9 -0.9238799 -0.3826806 0.3 -0.83147 -0.5555676 0.9 -0.83147 -0.5555676 0.3 -0.9807854 -0.1950873 0.9 -0.9807854 -0.1950873 0.3 -0.7071073 -0.7071043 0.9 -0.7071073 -0.7071043 0.3 -0.1950907 -0.9807831 0.9 -0.1950907 -0.9807831 0.3 0.8314697 -0.5555681 0.9 0.8314697 -0.5555682 0.3 -0.1950888 0.9807877 0.9 -0.1950888 0.9807876 0.3 -1 -1.999998 -0.9 -2 -0.9999983 -0.9 -1.156434 -1.987687 -0.9 -1.309017 -1.951055 -0.9 -1.45399 -1.891005 -0.9 -1.587785 -1.809015 -0.9 -1.707107 -1.707105 -0.9 -1.809017 -1.587784 -0.9 -1.891006 -1.453989 -0.9 -1.951056 -1.309015 -0.9 -1.987688 -1.156433 -0.9 -2 -0.9999983 -0.3 -1 -1.999998 -0.3 -1.987688 -1.156433 -0.3 -1.951056 -1.309015 -0.3 -1.891006 -1.453989 -0.3 -1.809017 -1.587784 -0.3 -1.707107 -1.707105 -0.3 -1.587785 -1.809015 -0.3 -1.45399 -1.891005 -0.3 -1.309017 -1.951055 -0.3 -1.156434 -1.987687 -0.3 -2 1.000002 -0.9 -1 2.000002 -0.9 -1.987688 1.156436 -0.9 -1.951056 1.309019 -0.9 -1.891006 1.453992 -0.9 -1.809017 1.587787 -0.9 -1.707107 1.707108 -0.9 -1.587785 1.809019 -0.9 -1.45399 1.891008 -0.9 -1.309017 1.951058 -0.9 -1.156434 1.98769 -0.9 -1 2.000002 -0.3 -2 1.000002 -0.3 -1.156434 1.98769 -0.3 -1.309017 1.951058 -0.3 -1.45399 1.891008 -0.3 -1.587785 1.809019 -0.3 -1.707107 1.707108 -0.3 -1.809017 1.587787 -0.3 -1.891006 1.453992 -0.3 -1.951056 1.309019 -0.3 -1.987688 1.156436 -0.3 2 -0.9999983 -0.9 1 -1.999998 -0.9 1.987688 -1.156433 -0.9 1.951056 -1.309015 -0.9 1.891006 -1.453989 -0.9 1.809017 -1.587784 -0.9 1.707107 -1.707105 -0.9 1.587785 -1.809015 -0.9 1.45399 -1.891005 -0.9 1.309017 -1.951055 -0.9 1.156434 -1.987687 -0.9 1 -1.999998 -0.3 2 -0.9999983 -0.3 1.156434 -1.987687 -0.3 1.309017 -1.951055 -0.3 1.45399 -1.891005 -0.3 1.587785 -1.809015 -0.3 1.707107 -1.707105 -0.3 1.809017 -1.587784 -0.3 1.891006 -1.453989 -0.3 1.951056 -1.309015 -0.3 1.987688 -1.156433 -0.3 1 2.000002 -0.9 2 1.000002 -0.9 1.156434 1.98769 -0.9 1.309017 1.951058 -0.9 1.45399 1.891008 -0.9 1.587785 1.809019 -0.9 1.707107 1.707108 -0.9 1.809017 1.587787 -0.9 1.891006 1.453992 -0.9 1.951056 1.309019 -0.9 1.987688 1.156436 -0.9 2 1.000002 -0.3 1 2.000002 -0.3 1.987688 1.156436 -0.3 1.951056 1.309019 -0.3 1.891006 1.453992 -0.3 1.809017 1.587787 -0.3 1.707107 1.707108 -0.3 1.587785 1.809019 -0.3 1.45399 1.891008 -0.3 1.309017 1.951058 -0.3 1.156434 1.98769 -0.3 -0.9238791 0.3826861 -0.3 -0.9238791 0.3826861 -0.9 -0.8314689 0.555573 -0.3 -0.8314689 0.555573 -0.9 0.3826835 0.9238812 -0.3 0.3826835 0.9238813 -0.9 0.1950903 0.980787 -0.3 0.1950903 0.980787 -0.9 -0.9807851 0.195093 -0.3 -0.9807851 0.195093 -0.9 0.7071068 0.7071085 -0.3 0.7071068 0.7071086 -0.9 0.5555702 -0.8314679 -0.3 0.5555703 -0.8314679 -0.9 0.3826833 -0.9238779 -0.3 0.3826833 -0.9238779 -0.9 0.8314697 0.5555719 -0.3 0.8314697 0.555572 -0.9 0.1950901 -0.9807836 -0.3 0.1950901 -0.9807836 -0.9 -0.3826839 -0.9238776 -0.3 -0.3826839 -0.9238777 -0.9 -1 2.67744e-6 -0.3000001 -1 2.67744e-6 -0.9 -0.3826821 0.9238818 -0.3 -0.3826821 0.9238818 -0.9 -0.5555707 -0.8314676 -0.3 -0.5555707 -0.8314676 -0.9 0.9807853 -0.1950885 -0.3 0.9807853 -0.1950885 -0.9 0.7071068 -0.7071051 -0.3 0.7071068 -0.7071051 -0.9 0.9238796 -0.3826816 -0.3 0.9238796 -0.3826816 -0.9 1 1.78734e-6 -0.3 1 1.78734e-6 -0.9000001 -0.7071059 0.7071094 -0.3 -0.7071059 0.7071094 -0.9 -0.5555691 0.8314721 -0.3 -0.5555691 0.8314721 -0.9 -3.25841e-7 -0.9999983 -0.3 -3.25841e-7 -0.9999983 -0.9 0 1.000002 -0.3 0 1.000002 -0.9 0.9807853 0.195092 -0.3 0.9807853 0.195092 -0.9 0.5555703 0.8314713 -0.3 0.5555703 0.8314713 -0.9 0.9238795 0.3826851 -0.3 0.9238796 0.3826851 -0.9 -0.9238799 -0.382681 -0.3 -0.9238799 -0.382681 -0.9 -0.83147 -0.5555679 -0.3 -0.83147 -0.5555679 -0.9 -0.9807854 -0.1950877 -0.3 -0.9807854 -0.1950877 -0.9 -0.7071073 -0.7071046 -0.3 -0.7071073 -0.7071046 -0.9 -0.1950907 -0.9807835 -0.3 -0.1950907 -0.9807835 -0.9 0.8314697 -0.5555685 -0.3 0.8314697 -0.5555685 -0.9 -0.1950888 0.9807873 -0.3 -0.1950888 0.9807873 -0.9</float_array>
          <technique_common>
            <accessor source="#Cylinder_008-mesh-positions-array" count="416" stride="3">
              <param name="X" type="float"/>
              <param name="Y" type="float"/>
              <param name="Z" type="float"/>
            </accessor>
          </technique_common>
        </source>
        <source id="Cylinder_008-mesh-normals">
          <float_array id="Cylinder_008-mesh-normals-array" count="2472">0.09801727 0.9951847 0 0.2902846 0.9569404 0 0.4713967 0.8819213 0 0.6343933 0.7730104 0 0.7730104 0.6343934 0 0.8819214 0.4713965 0 0.9569404 0.2902847 0 0.9951847 0.09801727 0 0.9951847 -0.09801697 0 0.9569404 -0.2902847 0 0.8819214 -0.4713965 0 0.7730104 -0.6343934 0 0.6343934 -0.7730104 0 0.4713967 -0.8819213 0 0.2902843 -0.9569405 0 0.09801691 -0.9951847 0 -0.09801751 -0.9951847 0 -0.2902852 -0.9569402 0 -0.4713971 -0.8819211 0 -0.6343937 -0.7730101 0 -0.773011 -0.6343927 0 -0.8819216 -0.4713961 0 -0.9569407 -0.2902837 0 -0.9951848 -0.09801632 0 -0.9951846 0.09801816 0 -0.95694 0.2902858 0 -0.8819208 0.4713976 0 -0.7730096 0.6343944 0 -0.6343924 0.7730112 0 -0.4713954 0.8819219 0 0 0 1 -0.290283 0.9569408 0 -0.0980165 0.9951848 0 0 0 -1 0 0 1 1 0 0 0 0 -1 -1 0 0 0 1 0 -0.3661851 -0.9305421 0 -0.7683225 -0.6400629 0 -0.9005222 -0.4348101 0 -0.9506512 -0.3102619 0 -0.9736605 -0.2280029 0 -0.9857227 -0.1683769 0 -0.992573 -0.1216502 0 -0.9965862 -0.08255958 0 -0.9988493 -0.04796057 0 -0.9998762 -0.01573878 0 0 -0.7858135 -0.6184636 0 -0.38451 -0.9231209 0 -0.2346794 -0.9720728 0 -0.1610536 -0.9869456 0 -0.116291 -0.9932152 0 -0.08509802 -0.9963725 0 -0.06116569 -0.9981277 0 -0.04138571 -0.9991432 0 -0.02400118 -0.9997119 0 -0.007870078 -0.999969 0 -0.7858134 0.6184635 0 -0.38451 0.9231209 0 -0.2346785 0.9720731 0 -0.1610536 0.9869457 0 -0.116291 0.9932152 0 -0.08509802 0.9963725 0 -0.06116527 0.9981277 0 -0.04138571 0.9991433 0 -0.02400082 0.9997119 0 -0.007870078 0.9999691 0 -1 0 0 -1 0 1 0 0 0 0 1 -1 0 0 0 1 0 -0.07845932 -0.9969173 0 -0.2334453 -0.9723699 0 -0.3826835 -0.9238795 0 -0.5224984 -0.8526402 0 -0.6494475 -0.7604064 0 -0.7604064 -0.6494475 0 -0.8526402 -0.5224984 0 -0.9238795 -0.3826835 0 -0.9723699 -0.2334453 0 -0.9969173 -0.07845938 0 -0.07845932 0.9969173 0 -0.2334453 0.9723699 0 -0.3826835 0.9238795 0 -0.5224984 0.8526402 0 -0.6494475 0.7604064 0 -0.7604064 0.6494475 0 -0.8526402 0.5224984 0 -0.9238795 0.3826835 0 -0.9723699 0.2334453 0 -0.9969173 0.07845932 0 0.9969173 0.07845932 0 0.9723699 0.2334453 0 0.9238795 0.3826835 0 0.8526402 0.5224984 0 0.7604064 0.6494475 0 0.6494475 0.7604064 0 0.5224984 0.8526402 0 0.3826835 0.9238795 0 0.2334453 0.9723699 0 0.07845932 0.9969173 0 0.07845932 -0.9969173 0 0.2334453 -0.9723699 0 0.3826835 -0.9238795 0 0.5224984 -0.8526402 0 0.6494475 -0.7604064 0 0.7604064 -0.6494475 0 0.8526402 -0.5224984 0 0.9238795 -0.3826835 0 0.9723699 -0.2334453 0 0.9969173 -0.07845938 0 0 0 -1 -0.9951848 0.09801697 0 -0.7730106 0.6343932 -1.42524e-7 -0.8819214 0.4713966 0 0.9951847 -0.0980181 0 -0.9569404 -0.2902845 0 -0.9951847 -0.09801727 0 -0.7730106 -0.6343932 -1.39813e-7 0.09801679 -0.9951848 0 0.09801751 0.9951847 0 0.8819207 -0.4713977 0 -0.09801691 0.9951847 0 0.290283 -0.9569408 0 -0.6343932 -0.7730106 -1.26688e-7 0.4713971 0.8819211 0 -0.4713968 -0.8819212 0 -0.6343932 0.7730106 -1.39813e-7 0.6343923 -0.7730112 0 0.9569399 -0.2902858 0 -0.4713966 0.8819213 0 0.6343939 0.7730099 0 0.8819216 0.4713961 0 -0.09801757 -0.9951847 0 -0.8819213 -0.4713967 0 0.9951848 0.09801632 0 0 0 -1 -0.9569404 0.2902845 0 0.2902849 0.9569403 0 0.4713956 -0.8819219 0 -0.2902843 -0.9569404 0 -0.2902842 0.9569405 0 0.9569406 0.2902836 0 0.7730096 -0.6343944 0 0.7730109 0.6343927 0 0 0 1 0 -1 0 1 0 0 0 0 1 -1 0 0 0 1 0 -0.07845932 -0.9969173 0 -0.2334453 -0.9723699 0 -0.3826835 -0.9238795 0 -0.5224984 -0.8526402 0 -0.6494475 -0.7604064 0 -0.7604064 -0.6494475 0 -0.8526402 -0.5224984 0 -0.9238795 -0.3826835 0 -0.9723699 -0.2334453 0 -0.9969173 -0.07845932 0 -0.07845932 0.9969173 0 -0.2334453 0.9723699 0 -0.3826835 0.9238795 0 -0.5224984 0.8526402 0 -0.6494475 0.7604064 0 -0.7604064 0.6494475 0 -0.8526402 0.5224984 0 -0.9238795 0.3826835 0 -0.9723699 0.2334453 0 -0.9969173 0.07845932 0 0.9969173 0.07845932 0 0.9723699 0.2334453 0 0.9238795 0.3826835 0 0.8526402 0.5224984 0 0.7604064 0.6494475 0 0.6494475 0.7604064 0 0.5224984 0.8526402 0 0.3826835 0.9238795 0 0.2334453 0.9723699 0 0.07845932 0.9969173 0 0.07845932 -0.9969173 0 0.2334453 -0.9723699 0 0.3826835 -0.9238795 0 0.5224984 -0.8526402 0 0.6494475 -0.7604064 0 0.7604064 -0.6494475 0 0.8526402 -0.5224984 0 0.9238795 -0.3826835 0 0.9723699 -0.2334453 0 0.9969173 -0.07845932 0 0 0 -1 -0.9951847 0.09801697 0 -0.7730106 0.6343932 -1.42524e-7 -0.8819212 0.4713967 0 0.9951847 -0.0980181 0 -0.9569404 -0.2902845 0 -0.9951847 -0.09801727 0 -0.7730106 -0.6343932 -1.39813e-7 0.0980162 -0.9951848 0 0.09801751 0.9951847 0 0.8819208 -0.4713976 0 -0.09801691 0.9951847 0 0.290283 -0.9569408 0 -0.6343932 -0.7730106 -1.26688e-7 0.4713971 0.8819211 0 -0.4713968 -0.8819212 0 -0.6343932 0.7730106 -1.39813e-7 0.6343923 -0.7730112 0 0.95694 -0.2902858 0 -0.4713966 0.8819213 0 0.6343939 0.7730099 0 0.8819215 0.4713962 0 -0.09801697 -0.9951848 0 -0.8819214 -0.4713966 0 0.9951848 0.09801632 0 0 0 -1 -0.9569404 0.2902843 0 0.2902849 0.9569403 0 0.4713956 -0.8819219 0 -0.2902843 -0.9569404 0 -0.2902842 0.9569405 0 0.9569407 0.2902836 0 0.7730096 -0.6343944 0 0.7730109 0.6343927 0 0 0 1 0.09801727 0.9951847 0 0.2902846 0.9569404 0 0.4713967 0.8819213 0 0.6343933 0.7730104 0 0.7730104 0.6343934 0 0.8819214 0.4713965 0 0.9569404 0.2902847 0 0.9951847 0.09801727 0 0.9951847 -0.09801697 0 0.9569404 -0.2902847 0 0.8819214 -0.4713965 0 0.7730104 -0.6343934 0 0.6343934 -0.7730104 0 0.4713967 -0.8819213 0 0.2902843 -0.9569405 0 0.09801691 -0.9951847 0 -0.09801751 -0.9951847 0 -0.2902852 -0.9569402 0 -0.4713971 -0.8819211 0 -0.6343937 -0.7730101 0 -0.773011 -0.6343927 0 -0.8819216 -0.4713961 0 -0.9569407 -0.2902837 0 -0.9951848 -0.09801632 0 -0.9951846 0.09801816 0 -0.95694 0.2902858 0 -0.8819208 0.4713976 0 -0.7730096 0.6343944 0 -0.6343924 0.7730112 0 -0.4713954 0.8819219 0 0 0 1 0 0 1 0 0 1 0 0 1 0 0 1 0 0 1 0 0 1 0 0 1 0 0 1 0 0 1 0 0 1 0 0 1 0 0 1 0 0 1 0 0 1 0 0 1 0 0 1 0 0 1 0 0 1 0 0 1 0 0 1 0 0 1 0 0 1 0 0 1 0 0 1 0 0 1 0 0 1 0 0 1 0 0 1 -0.290283 0.9569408 0 -0.0980165 0.9951848 0 0 0 -1 0 0 -1 0 0 -1 0 0 -1 0 0 -1 0 0 -1 0 0 -1 0 0 -1 0 0 -1 0 0 -1 0 0 -1 0 0 -1 0 0 -1 0 0 -1 0 0 -1 0 0 -1 0 0 -1 0 0 -1 0 0 -1 0 0 -1 0 0 -1 0 0 -1 0 0 -1 0 0 -1 0 0 -1 0 0 -1 0 0 -1 0 0 -1 0 0 -1 0 0 1 1 0 0 1 0 0 1 0 0 1 0 0 1 0 0 1 0 0 1 0 0 1 0 0 1 0 0 1 0 0 1 0 0 1 0 0 1 0 0 1 0 0 1 0 0 1 0 0 1 0 0 1 0 0 1 0 0 1 0 0 1 0 0 0 0 -1 -1 0 0 0 1 0 -0.3661851 -0.9305421 0 -0.7683225 -0.6400629 0 -0.9005221 -0.4348101 0 -0.9506512 -0.3102619 0 -0.9736605 -0.2280029 0 -0.9857227 -0.1683769 0 -0.992573 -0.1216502 0 -0.9965862 -0.08255958 0 -0.9988492 -0.04796057 0 -0.9998762 -0.01573878 0 0 -0.7858134 -0.6184635 0 -0.38451 -0.9231209 0 -0.2346794 -0.9720728 0 -0.1610536 -0.9869457 0 -0.116291 -0.9932152 0 -0.08509802 -0.9963725 0 -0.06116569 -0.9981276 0 -0.04138571 -0.9991433 0 -0.02400118 -0.9997119 0 -0.007870078 -0.9999691 0 -0.7858135 0.6184636 0 -0.38451 0.9231209 0 -0.2346785 0.9720731 0 -0.1610536 0.9869456 0 -0.116291 0.9932152 0 -0.08509802 0.9963725 0 -0.06116527 0.9981277 0 -0.04138571 0.9991432 0 -0.02400082 0.9997119 0 -0.007870078 0.999969 0 -1 0 0 -1 0 1 0 0 0 0 1 0 0 1 0 0 1 0 0 1 0 0 1 0 0 1 0 0 1 0 0 1 0 0 1 0 0 1 0 0 1 0 0 1 0 0 1 0 0 1 0 0 1 0 0 1 0 0 1 0 0 1 0 0 1 0 0 1 0 0 1 0 0 1 0 0 1 0 0 1 0 0 1 0 0 1 0 0 1 0 0 1 -2.2387e-7 2.83474e-7 1 0 0 1 0 0 1 0 0 1 0 0 1 0 0 1 0 0 1 0 0 1 0 0 1 0 0 1 -1 0 0 0 1 0 -0.07845932 -0.9969173 0 -0.2334453 -0.9723699 0 -0.3826835 -0.9238795 0 -0.5224984 -0.8526402 0 -0.6494475 -0.7604064 0 -0.7604064 -0.6494475 0 -0.8526402 -0.5224984 0 -0.9238795 -0.3826835 0 -0.9723699 -0.2334453 0 -0.9969173 -0.07845938 0 -0.07845932 0.9969173 0 -0.2334453 0.9723699 0 -0.3826835 0.9238795 0 -0.5224984 0.8526402 0 -0.6494475 0.7604064 0 -0.7604064 0.6494475 0 -0.8526402 0.5224984 0 -0.9238795 0.3826835 0 -0.9723699 0.2334453 0 -0.9969173 0.07845932 0 0.9969173 0.07845932 0 0.9723699 0.2334453 0 0.9238795 0.3826835 0 0.8526402 0.5224984 0 0.7604064 0.6494475 0 0.6494475 0.7604064 0 0.5224984 0.8526402 0 0.3826835 0.9238795 0 0.2334453 0.9723699 0 0.07845932 0.9969173 0 0.07845932 -0.9969173 0 0.2334453 -0.9723699 0 0.3826835 -0.9238795 0 0.5224984 -0.8526402 0 0.6494475 -0.7604064 0 0.7604064 -0.6494475 0 0.8526402 -0.5224984 0 0.9238795 -0.3826835 0 0.9723699 -0.2334453 0 0.9969173 -0.07845938 0 0 0 -1 0 1.41737e-7 -1 0 0 -1 0 0 -1 0 0 -1 0 0 -1 0 0 -1 0 0 -1 0 0 -1 0 0 -1 0 0 -1 0 0 -1 0 0 -1 0 0 -1 0 0 -1 0 0 -1 0 0 -1 0 0 -1 0 0 -1 0 0 -1 0 0 -1 0 0 -1 0 0 -1 0 0 -1 0 0 -1 0 0 -1 0 0 -1 0 0 -1 0 -1.41737e-7 -1 0 0 -1 0 0 -1 0 0 -1 0 0 -1 0 0 -1 0 0 -1 0 0 -1 0 0 -1 0 0 -1 -0.9951848 0.09801697 0 -0.7730103 0.6343933 0 -0.8819214 0.4713964 0 0.9951847 -0.09801816 0 -0.9569403 -0.2902847 0 -0.9951847 -0.09801727 0 -0.7730103 -0.6343933 0 0.0980165 -0.9951848 0 0.09801751 0.9951847 0 0.8819207 -0.4713977 0 -0.09801691 0.9951847 0 0.2902833 -0.9569407 0 -0.6343933 -0.7730104 0 0.4713971 0.8819211 0 -0.4713967 -0.8819213 0 -0.6343933 0.7730103 0 0.6343923 -0.7730112 0 0.9569401 -0.2902858 0 -0.4713967 0.8819212 0 0.6343935 0.7730102 0 0.8819217 0.471396 0 -0.09801757 -0.9951847 0 -0.8819214 -0.4713966 0 0.9951848 0.09801632 0 0 0 -1 0 1.41737e-7 -1 0 0 -1 0 0 -1 0 0 -1 0 0 -1 0 0 -1 0 0 -1 0 0 -1 0 0 -1 0 0 -1 0 0 -1 0 0 -1 0 0 -1 0 0 -1 0 0 -1 0 0 -1 0 0 -1 0 0 -1 0 0 -1 0 0 -1 0 0 -1 0 0 -1 0 0 -1 0 0 -1 0 0 -1 0 -1.41737e-7 -1 0 0 -1 0 0 -1 -1.41737e-7 0 -1 0 0 -1 0 0 -1 1.41738e-7 0 -1 0 0 -1 0 0 -1 0 0 -1 -0.9569403 0.2902847 0 0.2902852 0.9569402 0 0.4713955 -0.881922 0 -0.2902846 -0.9569404 0 -0.2902843 0.9569405 0 0.9569407 0.2902837 0 0.7730096 -0.6343944 0 0.7730112 0.6343925 0 0 0 1 -2.23869e-7 -2.83474e-7 1 0 0 1 0 0 1 0 0 1 0 0 1 0 0 1 0 0 1 0 0 1 0 0 1 0 0 1 0 0 1 0 0 1 0 0 1 0 0 1 0 0 1 0 0 1 0 0 1 0 0 1 0 0 1 0 0 1 0 0 1 0 0 1 0 0 1 0 0 1 0 0 1 0 0 1 0 0 1 0 0 1 0 0 1 0 0 1 0 0 1 0 0 1 0 0 1 0 0 1 0 0 1 0 -1 0 1 0 0 0 0 1 0 0 1 0 0 1 0 0 1 0 0 1 0 0 1 0 0 1 0 0 1 0 0 1 0 0 1 0 0 1 0 0 1 0 0 1 0 0 1 0 0 1 0 0 1 0 0 1 0 0 1 0 0 1 0 0 1 0 0 1 0 0 1 0 0 1 0 0 1 0 0 1 0 0 1 0 0 1 0 0 1 -2.2387e-7 2.83474e-7 1 0 0 1 0 0 1 0 0 1 0 0 1 0 0 1 0 0 1 0 0 1 0 0 1 0 0 1 -1 0 0 0 1 0 -0.07845932 -0.9969173 0 -0.2334453 -0.9723699 0 -0.3826835 -0.9238795 0 -0.5224984 -0.8526402 0 -0.6494475 -0.7604064 0 -0.7604064 -0.6494475 0 -0.8526402 -0.5224984 0 -0.9238795 -0.3826835 0 -0.9723699 -0.2334453 0 -0.9969173 -0.07845932 0 -0.07845932 0.9969173 0 -0.2334453 0.9723699 0 -0.3826835 0.9238795 0 -0.5224984 0.8526402 0 -0.6494475 0.7604064 0 -0.7604064 0.6494475 0 -0.8526402 0.5224984 0 -0.9238795 0.3826835 0 -0.9723699 0.2334453 0 -0.9969173 0.07845932 0 0.9969173 0.07845932 0 0.9723699 0.2334453 0 0.9238795 0.3826835 0 0.8526402 0.5224984 0 0.7604064 0.6494475 0 0.6494475 0.7604064 0 0.5224984 0.8526402 0 0.3826835 0.9238795 0 0.2334453 0.9723699 0 0.07845932 0.9969173 0 0.07845932 -0.9969173 0 0.2334453 -0.9723699 0 0.3826835 -0.9238795 0 0.5224984 -0.8526402 0 0.6494475 -0.7604064 0 0.7604064 -0.6494475 0 0.8526402 -0.5224984 0 0.9238795 -0.3826835 0 0.9723699 -0.2334453 0 0.9969173 -0.07845932 0 0 0 -1 -2.2387e-7 2.83474e-7 -1 0 0 -1 0 0 -1 0 0 -1 0 0 -1 0 0 -1 0 0 -1 0 0 -1 0 0 -1 0 0 -1 0 0 -1 0 0 -1 0 0 -1 0 0 -1 0 0 -1 0 0 -1 0 0 -1 0 0 -1 0 0 -1 0 0 -1 0 0 -1 0 0 -1 0 0 -1 0 0 -1 0 0 -1 0 0 -1 0 0 -1 -2.2387e-7 -2.83474e-7 -1 0 0 -1 0 0 -1 0 0 -1 0 0 -1 0 0 -1 0 0 -1 0 0 -1 0 0 -1 0 0 -1 -0.9951848 0.09801697 0 -0.7730103 0.6343933 0 -0.8819214 0.4713965 0 0.9951847 -0.09801816 0 -0.9569403 -0.2902847 0 -0.9951847 -0.09801727 0 -0.7730103 -0.6343933 0 0.0980159 -0.9951848 0 0.09801751 0.9951847 0 0.8819208 -0.4713976 0 -0.09801691 0.9951847 0 0.2902833 -0.9569407 0 -0.6343933 -0.7730104 0 0.4713971 0.8819211 0 -0.4713967 -0.8819213 0 -0.6343933 0.7730103 0 0.6343923 -0.7730112 0 0.9569399 -0.2902858 0 -0.4713967 0.8819212 0 0.6343935 0.7730102 0 0.8819215 0.4713962 0 -0.09801697 -0.9951847 0 -0.8819214 -0.4713965 0 0.9951848 0.09801632 0 0 0 -1 -2.23869e-7 2.83474e-7 -1 0 0 -1 0 0 -1 0 0 -1 0 0 -1 0 0 -1 0 0 -1 0 0 -1 0 0 -1 0 0 -1 0 0 -1 0 0 -1 0 0 -1 0 0 -1 0 0 -1 0 0 -1 0 0 -1 0 0 -1 0 0 -1 0 0 -1 0 0 -1 0 0 -1 0 0 -1 0 0 -1 0 0 -1 -2.23869e-7 -2.83474e-7 -1 0 0 -1 0 0 -1 -2.83474e-7 2.23869e-7 -1 0 0 -1 0 0 -1 2.83476e-7 2.23872e-7 -1 0 0 -1 0 0 -1 0 0 -1 -0.9569403 0.2902847 0 0.2902852 0.9569402 0 0.4713955 -0.881922 0 -0.2902846 -0.9569404 0 -0.2902843 0.9569405 0 0.9569406 0.2902836 0 0.7730096 -0.6343944 0 0.7730112 0.6343925 0 0 0 1 -2.23869e-7 -2.83474e-7 1 0 0 1 0 0 1 0 0 1 0 0 1 0 0 1 0 0 1 0 0 1 0 0 1 0 0 1 0 0 1 0 0 1 0 0 1 0 0 1 0 0 1 0 0 1 0 0 1 0 0 1 0 0 1 0 0 1 0 0 1 0 0 1 0 0 1 0 0 1 0 0 1 0 0 1 0 0 1 0 0 1 0 0 1 0 0 1 0 0 1 0 0 1 0 0 1 0 0 1 0 0 1</float_array>
          <technique_common>
            <accessor source="#Cylinder_008-mesh-normals-array" count="824" stride="3">
              <param name="X" type="float"/>
              <param name="Y" type="float"/>
              <param name="Z" type="float"/>
            </accessor>
          </technique_common>
        </source>
        <source id="Cylinder_008-mesh-map-0">
          <float_array id="Cylinder_008-mesh-map-0-array" count="4944">1 1 0.96875 0.5 1 0.5 0.96875 1 0.9375 0.5 0.96875 0.5 0.9375 1 0.90625 0.5 0.9375 0.5 0.90625 1 0.875 0.5 0.90625 0.5 0.875 1 0.84375 0.5 0.875 0.5 0.84375 1 0.8125 0.5 0.84375 0.5 0.8125 1 0.78125 0.5 0.8125 0.5 0.78125 1 0.75 0.5 0.78125 0.5 0.75 1 0.71875 0.5 0.75 0.5 0.71875 1 0.6875 0.5 0.71875 0.5 0.6875 1 0.65625 0.5 0.6875 0.5 0.65625 1 0.625 0.5 0.65625 0.5 0.625 1 0.59375 0.5 0.625 0.5 0.59375 1 0.5625 0.5 0.59375 0.5 0.5625 1 0.53125 0.5 0.5625 0.5 0.53125 1 0.5 0.5 0.53125 0.5 0.5 1 0.46875 0.5 0.5 0.5 0.46875 1 0.4375 0.5 0.46875 0.5 0.4375 1 0.40625 0.5 0.4375 0.5 0.40625 1 0.375 0.5 0.40625 0.5 0.375 1 0.34375 0.5 0.375 0.5 0.34375 1 0.3125 0.5 0.34375 0.5 0.3125 1 0.28125 0.5 0.3125 0.5 0.28125 1 0.25 0.5 0.28125 0.5 0.25 1 0.21875 0.5 0.25 0.5 0.21875 1 0.1875 0.5 0.21875 0.5 0.1875 1 0.15625 0.5 0.1875 0.5 0.15625 1 0.125 0.5 0.15625 0.5 0.125 1 0.09375 0.5 0.125 0.5 0.09375 1 0.0625 0.5 0.09375 0.5 0.02826899 0.3418443 0.1581559 0.02826893 0.4717311 0.158156 0.0625 1 0.03125 0.5 0.0625 0.5 0.03125 1 0 0.5 0.03125 0.5 0.9853885 0.2968217 0.7968216 0.01461148 0.5146115 0.2031785 0.625 0.75 0.4 1 0.4 0.75 0.3762236 0.7327254 0.3753078 0.7289108 0.375 0.725 0.625 0.25 0.4 0.5 0.4 0.25 0.625 0 0.4 0.25 0.4 0 0.875 0.5 0.625 0.75 0.625 0.5 0.15 0.725 0.1460891 0.5210891 0.15 0.525 0.1460891 0.7289109 0.1422746 0.5172746 0.1460891 0.5210891 0.1422746 0.7327254 0.1386502 0.5136502 0.1422746 0.5172746 0.1386502 0.7363498 0.1353054 0.5103054 0.1386502 0.5136502 0.1353054 0.7396945 0.125 0.5073223 0.1353054 0.5103054 0.375 0.007322311 0.3853054 0.2452254 0.375 0.2426776 0.3853054 0.00477457 0.3886502 0.2472751 0.3853054 0.2452254 0.3886502 0.002724826 0.3922746 0.2487764 0.3886502 0.2472751 0.3922746 0.001223564 0.3960891 0.2496922 0.3922746 0.2487764 0.3960891 3.07798e-4 0.4 0.25 0.3960891 0.2496922 0.15 0.525 0.375 0.5210891 0.375 0.525 0.1460891 0.5210891 0.375 0.5172746 0.375 0.5210891 0.1422746 0.5172746 0.375 0.5136502 0.375 0.5172746 0.1386502 0.5136502 0.375 0.5103054 0.375 0.5136502 0.1353054 0.5103054 0.375 0.5 0.375 0.5103054 0.375 0.2573223 0.3853054 0.5 0.375 0.5 0.3853054 0.2547746 0.3886502 0.5 0.3853054 0.5 0.3886502 0.2527248 0.3922746 0.5 0.3886502 0.5 0.3922746 0.2512236 0.3960891 0.5 0.3922746 0.5 0.3960891 0.2503077 0.4 0.5 0.3960891 0.5 0.15 0.725 0.375 0.7289109 0.1460891 0.7289109 0.1460891 0.7289109 0.375 0.7327255 0.1422746 0.7327254 0.1422746 0.7327254 0.375 0.7363498 0.1386502 0.7363498 0.1386502 0.7363498 0.375 0.7396947 0.1353054 0.7396945 0.1353054 0.7396945 0.375 0.75 0.1323223 0.75 0.375 0.9926777 0.3853054 0.75 0.3853054 0.9952254 0.3853054 0.9952254 0.3886502 0.75 0.3886502 0.9972752 0.3886502 0.9972752 0.3922746 0.75 0.3922746 0.9987764 0.3922746 0.9987764 0.3960891 0.75 0.3960891 0.9996922 0.3960891 0.9996922 0.4 0.75 0.4 1 0.375 0.525 0.15 0.725 0.15 0.525 0.625 0.8125 0.375 0.9375 0.375 0.8125 0.625 0.5625 0.375 0.6875 0.375 0.5625 0.7172894 0.678427 0.7294507 0.6813775 0.6875 0.75 0.625 0.0625 0.375 0.1875 0.375 0.0625 0.625 0.3125 0.375 0.4375 0.375 0.3125 0.625 0.9375 0.375 0.9472772 0.375 0.9375 0.625 0.9472772 0.375 0.9568136 0.375 0.9472772 0.625 0.9568136 0.375 0.9658744 0.375 0.9568136 0.625 0.9658744 0.375 0.9742366 0.375 0.9658744 0.625 0.9742366 0.375 1 0.375 0.9742366 0.625 0 0.375 0.02576339 0.375 0 0.625 0.02576339 0.375 0.03412556 0.375 0.02576339 0.625 0.03412556 0.375 0.04318642 0.375 0.03412556 0.625 0.04318642 0.375 0.05272281 0.375 0.04318642 0.625 0.05272281 0.375 0.0625 0.375 0.05272281 0.375 0.3125 0.6907591 0.3687384 0.625 0.3125 0.3092409 0.3687384 0.6939379 0.3631439 0.6907591 0.3687384 0.3060622 0.3631439 0.6969582 0.3583545 0.6939379 0.3631439 0.3030419 0.3583544 0.6997455 0.3544878 0.6969582 0.3583545 0.3002545 0.3544878 0.7022314 0.3394353 0.6997455 0.3544878 0.2977686 0.3394353 0.7043545 0.3247455 0.7022314 0.3394353 0.2956455 0.3247455 0.7060627 0.3219581 0.7043545 0.3247455 0.2939374 0.3219581 0.7073137 0.3189378 0.7060627 0.3219581 0.2926864 0.3189378 0.7080768 0.3157591 0.7073137 0.3189378 0.2919232 0.3157591 0.625 0.1875 0.7080768 0.3157591 0.375 0.5625 0.6252565 0.5527229 0.625 0.5625 0.3747435 0.5527228 0.6260197 0.5431864 0.6252565 0.5527229 0.3739804 0.5431864 0.6272707 0.5341256 0.6260197 0.5431864 0.3727293 0.5341256 0.6289789 0.5257634 0.6272707 0.5341256 0.3710212 0.5257634 0.631102 0.506102 0.6289789 0.5257634 0.3688981 0.506102 0.6335878 0.4868032 0.631102 0.506102 0.3664122 0.4868032 0.6363753 0.4795203 0.6335878 0.4868032 0.3636248 0.4795203 0.6393955 0.4722287 0.6363753 0.4795203 0.3606045 0.4722287 0.6425743 0.4651079 0.6393955 0.4722287 0.3574257 0.4651079 0.625 0.4375 0.6425743 0.4651079 0.375 0.8125 0.6425743 0.7848921 0.625 0.8125 0.3574258 0.7848921 0.6393955 0.7777714 0.6425743 0.7848921 0.3606045 0.7777714 0.6363752 0.7704797 0.6393955 0.7777714 0.3636248 0.7704797 0.6335878 0.7631968 0.6363752 0.7704797 0.3664122 0.7631968 0.631102 0.7438981 0.6335878 0.7631968 0.3688981 0.7438981 0.6289789 0.7242366 0.631102 0.7438981 0.3710212 0.7242366 0.6272707 0.7158744 0.6289789 0.7242366 0.3727293 0.7158744 0.6260197 0.7068136 0.6272707 0.7158744 0.3739804 0.7068136 0.6252565 0.6972772 0.6260197 0.7068136 0.3747435 0.6972772 0.625 0.6875 0.6252565 0.6972772 0.2344644 0.6753468 0.245893 0.679833 0.1875 0.75 0.71875 0.5500001 0.75 0.5227273 0.71875 0.5227273 0.625 0.5500001 0.65625 0.5227273 0.625 0.5227273 0.65625 0.5500001 0.6875 0.5227273 0.65625 0.5227273 0.21875 0.5227273 0.25 0.5500001 0.25 0.5227273 0.78125 0.5500001 0.8125 0.5227273 0.78125 0.5227273 0.75 0.5500001 0.78125 0.5227273 0.75 0.5227273 0.84375 0.5227273 0.875 0.5500001 0.875 0.5227273 0 0.55 0.03125 0.5227273 0 0.5227273 0.46875 0.5500001 0.5 0.5227273 0.46875 0.5227273 0.15625 0.5500001 0.1875 0.5227273 0.15625 0.5227273 0.5 0.5500001 0.53125 0.5227273 0.5 0.5227273 0.03125 0.5227273 0.0625 0.5500001 0.0625 0.5227273 0.875 0.5500001 0.90625 0.5227273 0.875 0.5227273 0.40625 0.5227273 0.4375 0.5500001 0.4375 0.5227273 0.90625 0.5500001 0.9375 0.5227273 0.90625 0.5227273 0.59375 0.5227273 0.625 0.5500001 0.625 0.5227273 0.09375 0.5500001 0.125 0.5227273 0.09375 0.5227273 0.1875 0.5500001 0.21875 0.5227273 0.1875 0.5227273 0.5625 0.5227273 0.59375 0.5500001 0.59375 0.5227273 0.375 0.5227273 0.40625 0.5500001 0.40625 0.5227273 0.3125 0.5500001 0.34375 0.5227273 0.3125 0.5227273 0.96875 0.5500001 1 0.5227273 0.96875 0.5227273 0.8125 0.5227273 0.84375 0.5500001 0.84375 0.5227273 0.25 0.5500001 0.28125 0.5227273 0.25 0.5227273 0.2609615 0.5378479 0.2539243 0.535796 0.1875 0.5 0.6875 0.5500001 0.71875 0.5227273 0.6875 0.5227273 0.4375 0.5500001 0.46875 0.5227273 0.4375 0.5227273 0.0625 0.5227273 0.09375 0.5500001 0.09375 0.5227273 0.9375 0.5500001 0.96875 0.5227273 0.9375 0.5227273 0.53125 0.5500001 0.5625 0.5227273 0.53125 0.5227273 0.28125 0.5227273 0.3125 0.5500001 0.3125 0.5227273 0.125 0.5500001 0.15625 0.5227273 0.125 0.5227273 0.34375 0.5227273 0.375 0.5500001 0.375 0.5227273 0.7212643 0.545816 0.7112897 0.5516083 0.6875 0.5 0.625 0.8125 0.375 0.9375 0.375 0.8125 0.625 0.5625 0.375 0.6875 0.375 0.5625 0.7172894 0.678427 0.7294507 0.6813775 0.6875 0.75 0.625 0.0625 0.375 0.1875 0.375 0.0625 0.625 0.3125 0.375 0.4375 0.375 0.3125 0.625 0.9375 0.375 0.9472772 0.375 0.9375 0.625 0.9472772 0.375 0.9568136 0.375 0.9472772 0.625 0.9568136 0.375 0.9658744 0.375 0.9568136 0.625 0.9658744 0.375 0.9742366 0.375 0.9658744 0.625 0.9742366 0.375 1 0.375 0.9742366 0.625 0 0.375 0.02576339 0.375 0 0.625 0.02576339 0.375 0.03412556 0.375 0.02576339 0.625 0.03412556 0.375 0.04318642 0.375 0.03412556 0.625 0.04318642 0.375 0.05272281 0.375 0.04318642 0.625 0.05272281 0.375 0.0625 0.375 0.05272281 0.375 0.3125 0.6907591 0.3687384 0.625 0.3125 0.3092409 0.3687384 0.6939379 0.3631439 0.6907591 0.3687384 0.3060622 0.3631439 0.6969582 0.3583545 0.6939379 0.3631439 0.3030419 0.3583544 0.6997455 0.3544878 0.6969582 0.3583545 0.3002545 0.3544878 0.7022314 0.3394353 0.6997455 0.3544878 0.2977686 0.3394353 0.7043545 0.3247455 0.7022314 0.3394353 0.2956455 0.3247455 0.7060627 0.3219581 0.7043545 0.3247455 0.2939374 0.3219581 0.7073137 0.3189378 0.7060627 0.3219581 0.2926864 0.3189378 0.7080768 0.3157591 0.7073137 0.3189378 0.2919232 0.3157591 0.625 0.1875 0.7080768 0.3157591 0.375 0.5625 0.6252565 0.5527229 0.625 0.5625 0.3747435 0.5527228 0.6260197 0.5431864 0.6252565 0.5527229 0.3739804 0.5431864 0.6272707 0.5341256 0.6260197 0.5431864 0.3727293 0.5341256 0.6289789 0.5257634 0.6272707 0.5341256 0.3710212 0.5257634 0.631102 0.506102 0.6289789 0.5257634 0.3688981 0.506102 0.6335878 0.4868032 0.631102 0.506102 0.3664122 0.4868032 0.6363753 0.4795203 0.6335878 0.4868032 0.3636248 0.4795203 0.6393955 0.4722287 0.6363753 0.4795203 0.3606045 0.4722287 0.6425743 0.4651079 0.6393955 0.4722287 0.3574257 0.4651079 0.625 0.4375 0.6425743 0.4651079 0.375 0.8125 0.6425743 0.7848921 0.625 0.8125 0.3574258 0.7848921 0.6393955 0.7777714 0.6425743 0.7848921 0.3606045 0.7777714 0.6363752 0.7704797 0.6393955 0.7777714 0.3636248 0.7704797 0.6335878 0.7631968 0.6363752 0.7704797 0.3664122 0.7631968 0.631102 0.7438981 0.6335878 0.7631968 0.3688981 0.7438981 0.6289789 0.7242366 0.631102 0.7438981 0.3710212 0.7242366 0.6272707 0.7158744 0.6289789 0.7242366 0.3727293 0.7158744 0.6260197 0.7068136 0.6272707 0.7158744 0.3739804 0.7068136 0.6252565 0.6972772 0.6260197 0.7068136 0.3747435 0.6972772 0.625 0.6875 0.6252565 0.6972772 0.2344644 0.6753468 0.245893 0.679833 0.1875 0.75 0.71875 0.5227273 0.75 0.5500001 0.75 0.5227273 0.625 0.5500001 0.65625 0.5227273 0.625 0.5227273 0.65625 0.5500001 0.6875 0.5227273 0.65625 0.5227273 0.21875 0.5500001 0.25 0.5227273 0.21875 0.5227273 0.78125 0.5500001 0.8125 0.5227273 0.78125 0.5227273 0.75 0.5500001 0.78125 0.5227273 0.75 0.5227273 0.84375 0.5227273 0.875 0.5500001 0.875 0.5227273 0 0.5227273 0.03125 0.5500001 0.03125 0.5227273 0.46875 0.5500001 0.5 0.5227273 0.46875 0.5227273 0.15625 0.5500001 0.1875 0.5227273 0.15625 0.5227273 0.5 0.5500001 0.53125 0.5227273 0.5 0.5227273 0.03125 0.5227273 0.0625 0.5500001 0.0625 0.5227273 0.875 0.5500001 0.90625 0.5227273 0.875 0.5227273 0.40625 0.5227273 0.4375 0.5500001 0.4375 0.5227273 0.90625 0.5500001 0.9375 0.5227273 0.90625 0.5227273 0.59375 0.5227273 0.625 0.5500001 0.625 0.5227273 0.09375 0.5500001 0.125 0.5227273 0.09375 0.5227273 0.1875 0.5500001 0.21875 0.5227273 0.1875 0.5227273 0.5625 0.5227273 0.59375 0.5500001 0.59375 0.5227273 0.375 0.5227273 0.40625 0.5500001 0.40625 0.5227273 0.3125 0.5500001 0.34375 0.5227273 0.3125 0.5227273 0.96875 0.5500001 1 0.5227273 0.96875 0.5227273 0.8125 0.5500001 0.84375 0.5227273 0.8125 0.5227273 0.25 0.5500001 0.28125 0.5227273 0.25 0.5227273 0.2609615 0.5378479 0.2539243 0.535796 0.1875 0.5 0.6875 0.5500001 0.71875 0.5227273 0.6875 0.5227273 0.4375 0.5500001 0.46875 0.5227273 0.4375 0.5227273 0.0625 0.5227273 0.09375 0.5500001 0.09375 0.5227273 0.9375 0.5500001 0.96875 0.5227273 0.9375 0.5227273 0.53125 0.5500001 0.5625 0.5227273 0.53125 0.5227273 0.28125 0.5500001 0.3125 0.5227273 0.28125 0.5227273 0.125 0.5500001 0.15625 0.5227273 0.125 0.5227273 0.34375 0.5227273 0.375 0.5500001 0.375 0.5227273 0.7212643 0.545816 0.7112897 0.5516083 0.6875 0.5 1 1 0.96875 1 0.96875 0.5 0.96875 1 0.9375 1 0.9375 0.5 0.9375 1 0.90625 1 0.90625 0.5 0.90625 1 0.875 1 0.875 0.5 0.875 1 0.84375 1 0.84375 0.5 0.84375 1 0.8125 1 0.8125 0.5 0.8125 1 0.78125 1 0.78125 0.5 0.78125 1 0.75 1 0.75 0.5 0.75 1 0.71875 1 0.71875 0.5 0.71875 1 0.6875 1 0.6875 0.5 0.6875 1 0.65625 1 0.65625 0.5 0.65625 1 0.625 1 0.625 0.5 0.625 1 0.59375 1 0.59375 0.5 0.59375 1 0.5625 1 0.5625 0.5 0.5625 1 0.53125 1 0.53125 0.5 0.53125 1 0.5 1 0.5 0.5 0.5 1 0.46875 1 0.46875 0.5 0.46875 1 0.4375 1 0.4375 0.5 0.4375 1 0.40625 1 0.40625 0.5 0.40625 1 0.375 1 0.375 0.5 0.375 1 0.34375 1 0.34375 0.5 0.34375 1 0.3125 1 0.3125 0.5 0.3125 1 0.28125 1 0.28125 0.5 0.28125 1 0.25 1 0.25 0.5 0.25 1 0.21875 1 0.21875 0.5 0.21875 1 0.1875 1 0.1875 0.5 0.1875 1 0.15625 1 0.15625 0.5 0.15625 1 0.125 1 0.125 0.5 0.125 1 0.09375 1 0.09375 0.5 0.09375 1 0.0625 1 0.0625 0.5 0.341844 0.4717311 0.2968217 0.4853885 0.25 0.49 0.25 0.49 0.2031787 0.4853885 0.341844 0.4717311 0.2031787 0.4853885 0.1581563 0.4717312 0.341844 0.4717311 0.1581563 0.4717312 0.1166634 0.4495529 0.08029454 0.4197058 0.08029454 0.4197058 0.05044746 0.3833371 0.02826899 0.3418443 0.02826899 0.3418443 0.01461154 0.2968219 0.00999999 0.2500002 0.00999999 0.2500002 0.01461148 0.2031785 0.02826899 0.3418443 0.01461148 0.2031785 0.02826881 0.1581561 0.02826899 0.3418443 0.02826881 0.1581561 0.05044716 0.1166633 0.1581559 0.02826893 0.05044716 0.1166633 0.08029425 0.08029443 0.1581559 0.02826893 0.08029425 0.08029443 0.116663 0.05044734 0.1581559 0.02826893 0.1581559 0.02826893 0.2031782 0.01461154 0.2499999 0.00999999 0.2499999 0.00999999 0.2968216 0.01461148 0.341844 0.02826887 0.341844 0.02826887 0.3833369 0.05044728 0.4197056 0.08029437 0.4197056 0.08029437 0.4495527 0.1166631 0.4717311 0.158156 0.4717311 0.158156 0.4853885 0.2031783 0.49 0.25 0.49 0.25 0.4853885 0.2968217 0.4717311 0.158156 0.4853885 0.2968217 0.4717311 0.341844 0.4717311 0.158156 0.4717311 0.341844 0.4495527 0.3833369 0.4197056 0.4197056 0.4197056 0.4197056 0.3833369 0.4495527 0.341844 0.4717311 0.1581563 0.4717312 0.08029454 0.4197058 0.341844 0.4717311 0.08029454 0.4197058 0.02826899 0.3418443 0.341844 0.4717311 0.1581559 0.02826893 0.2499999 0.00999999 0.4717311 0.158156 0.2499999 0.00999999 0.341844 0.02826887 0.4717311 0.158156 0.341844 0.02826887 0.4197056 0.08029437 0.4717311 0.158156 0.4717311 0.341844 0.4197056 0.4197056 0.4717311 0.158156 0.4197056 0.4197056 0.341844 0.4717311 0.4717311 0.158156 0.02826899 0.3418443 0.02826881 0.1581561 0.1581559 0.02826893 0.341844 0.4717311 0.02826899 0.3418443 0.4717311 0.158156 0.0625 1 0.03125 1 0.03125 0.5 0.03125 1 0 1 0 0.5 0.7031787 0.4853885 0.75 0.49 0.7968217 0.4853885 0.7968217 0.4853885 0.841844 0.4717311 0.8833369 0.4495527 0.8833369 0.4495527 0.9197056 0.4197056 0.9495527 0.3833369 0.9495527 0.3833369 0.9717311 0.341844 0.8833369 0.4495527 0.9717311 0.341844 0.9853885 0.2968217 0.8833369 0.4495527 0.9853885 0.2968217 0.99 0.25 0.9853885 0.2031783 0.9853885 0.2031783 0.9717311 0.158156 0.9853885 0.2968217 0.9717311 0.158156 0.9495527 0.1166631 0.9853885 0.2968217 0.9495527 0.1166631 0.9197056 0.08029437 0.7968216 0.01461148 0.9197056 0.08029437 0.8833369 0.05044728 0.7968216 0.01461148 0.8833369 0.05044728 0.841844 0.02826887 0.7968216 0.01461148 0.7968216 0.01461148 0.75 0.00999999 0.7031782 0.01461154 0.7031782 0.01461154 0.6581559 0.02826893 0.616663 0.05044734 0.616663 0.05044734 0.5802943 0.08029443 0.5504472 0.1166633 0.5504472 0.1166633 0.5282688 0.1581561 0.5146115 0.2031785 0.5146115 0.2031785 0.51 0.2500002 0.5146116 0.2968219 0.5146116 0.2968219 0.5282691 0.3418443 0.5504475 0.3833371 0.5504475 0.3833371 0.5802946 0.4197058 0.7031787 0.4853885 0.5802946 0.4197058 0.6166634 0.4495529 0.7031787 0.4853885 0.6166634 0.4495529 0.6581563 0.4717312 0.7031787 0.4853885 0.7031787 0.4853885 0.7968217 0.4853885 0.8833369 0.4495527 0.7968216 0.01461148 0.7031782 0.01461154 0.5146115 0.2031785 0.7031782 0.01461154 0.616663 0.05044734 0.5146115 0.2031785 0.616663 0.05044734 0.5504472 0.1166633 0.5146115 0.2031785 0.5146115 0.2031785 0.5146116 0.2968219 0.7031787 0.4853885 0.5146116 0.2968219 0.5504475 0.3833371 0.7031787 0.4853885 0.7031787 0.4853885 0.8833369 0.4495527 0.9853885 0.2968217 0.9853885 0.2968217 0.9495527 0.1166631 0.7968216 0.01461148 0.7031787 0.4853885 0.9853885 0.2968217 0.5146115 0.2031785 0.625 0.75 0.625 1 0.4 1 0.375 0.725 0.375 0.525 0.3797746 0.5103054 0.375 0.525 0.3753078 0.5210891 0.3762236 0.5172746 0.3777248 0.5136502 0.375 0.525 0.3762236 0.5172746 0.3777248 0.5136502 0.3797746 0.5103054 0.375 0.525 0.3797746 0.5103054 0.3823223 0.5073223 0.3797746 0.7396946 0.375 0.725 0.3797746 0.5103054 0.3797746 0.7396946 0.3823223 0.5073223 0.3853054 0.5047746 0.3823223 0.7426776 0.3853054 0.5047746 0.3886502 0.5027249 0.3853054 0.7452254 0.3823223 0.5073223 0.3823223 0.7426776 0.3797746 0.7396946 0.3886502 0.5027249 0.3922746 0.5012236 0.3922746 0.7487764 0.3922746 0.5012236 0.3960891 0.5003078 0.3922746 0.7487764 0.3960891 0.5003078 0.4 0.5 0.4 0.75 0.4 0.5 0.625 0.5 0.4 0.75 0.625 0.5 0.625 0.75 0.4 0.75 0.4 0.75 0.3960891 0.7496922 0.3960891 0.5003078 0.3960891 0.7496922 0.3922746 0.7487764 0.3960891 0.5003078 0.3922746 0.7487764 0.3886502 0.7472752 0.3886502 0.5027249 0.3886502 0.7472752 0.3853054 0.7452254 0.3886502 0.5027249 0.3853054 0.7452254 0.3823223 0.7426776 0.3853054 0.5047746 0.3797746 0.7396946 0.3777248 0.7363498 0.375 0.725 0.3777248 0.7363498 0.3762236 0.7327254 0.375 0.725 0.625 0.25 0.625 0.5 0.4 0.5 0.625 0 0.625 0.25 0.4 0.25 0.875 0.5 0.875 0.75 0.625 0.75 0.15 0.725 0.1460891 0.7289109 0.1460891 0.5210891 0.1460891 0.7289109 0.1422746 0.7327254 0.1422746 0.5172746 0.1422746 0.7327254 0.1386502 0.7363498 0.1386502 0.5136502 0.1386502 0.7363498 0.1353054 0.7396945 0.1353054 0.5103054 0.1353054 0.7396945 0.125 0.7426776 0.125 0.5073223 0.375 0.007322311 0.3853054 0.00477457 0.3853054 0.2452254 0.3853054 0.00477457 0.3886502 0.002724826 0.3886502 0.2472751 0.3886502 0.002724826 0.3922746 0.001223564 0.3922746 0.2487764 0.3922746 0.001223564 0.3960891 3.07798e-4 0.3960891 0.2496922 0.3960891 3.07798e-4 0.4 0 0.4 0.25 0.15 0.525 0.1460891 0.5210891 0.375 0.5210891 0.1460891 0.5210891 0.1422746 0.5172746 0.375 0.5172746 0.1422746 0.5172746 0.1386502 0.5136502 0.375 0.5136502 0.1386502 0.5136502 0.1353054 0.5103054 0.375 0.5103054 0.1353054 0.5103054 0.1323223 0.5 0.375 0.5 0.375 0.2573223 0.3853054 0.2547746 0.3853054 0.5 0.3853054 0.2547746 0.3886502 0.2527248 0.3886502 0.5 0.3886502 0.2527248 0.3922746 0.2512236 0.3922746 0.5 0.3922746 0.2512236 0.3960891 0.2503077 0.3960891 0.5 0.3960891 0.2503077 0.4 0.25 0.4 0.5 0.15 0.725 0.375 0.725 0.375 0.7289109 0.1460891 0.7289109 0.375 0.7289109 0.375 0.7327255 0.1422746 0.7327254 0.375 0.7327255 0.375 0.7363498 0.1386502 0.7363498 0.375 0.7363498 0.375 0.7396947 0.1353054 0.7396945 0.375 0.7396947 0.375 0.75 0.375 0.9926777 0.375 0.75 0.3853054 0.75 0.3853054 0.9952254 0.3853054 0.75 0.3886502 0.75 0.3886502 0.9972752 0.3886502 0.75 0.3922746 0.75 0.3922746 0.9987764 0.3922746 0.75 0.3960891 0.75 0.3960891 0.9996922 0.3960891 0.75 0.4 0.75 0.375 0.525 0.375 0.725 0.15 0.725 0.625 0.8125 0.625 0.9375 0.375 0.9375 0.625 0.5625 0.625 0.6875 0.375 0.6875 0.625 0.6875 0.625 0.5625 0.6786612 0.6181002 0.625 0.6875 0.6786612 0.6181002 0.6800091 0.6311995 0.6260197 0.7068136 0.6252565 0.6972772 0.6965429 0.6651324 0.6252565 0.6972772 0.625 0.6875 0.6889479 0.6552012 0.6289789 0.7242366 0.6272707 0.7158744 0.6965429 0.6651324 0.6272707 0.7158744 0.6260197 0.7068136 0.6965429 0.6651324 0.6335878 0.7631968 0.631102 0.7438981 0.6965429 0.6651324 0.631102 0.7438981 0.6289789 0.7242366 0.6965429 0.6651324 0.6393955 0.7777714 0.6363752 0.7704797 0.6965429 0.6651324 0.6363752 0.7704797 0.6335878 0.7631968 0.6965429 0.6651324 0.6393955 0.7777714 0.6965429 0.6651324 0.6425743 0.7848921 0.6875 0.75 0.6425743 0.7848921 0.7061116 0.6729857 0.7061116 0.6729857 0.6425743 0.7848921 0.6965429 0.6651324 0.8222772 0.7492305 0.8125 0.75 0.7757681 0.668479 0.8125 0.75 0.6875 0.75 0.7419173 0.6818481 0.8408744 0.743188 0.8318136 0.7469411 0.7843898 0.6593904 0.8318136 0.7469411 0.8222772 0.7492305 0.7843898 0.6593904 0.7843898 0.6593904 0.8222772 0.7492305 0.7757681 0.668479 0.8566942 0.7316942 0.8492366 0.7380635 0.7843898 0.6593904 0.8492366 0.7380635 0.8408744 0.743188 0.7843898 0.6593904 0.868188 0.7158744 0.8630636 0.7242366 0.7843898 0.6593904 0.8630636 0.7242366 0.8566942 0.7316942 0.7843898 0.6593904 0.8742306 0.6972772 0.871941 0.7068136 0.7843898 0.6593904 0.871941 0.7068136 0.868188 0.7158744 0.7843898 0.6593904 0.8742306 0.6972772 0.7843898 0.6593904 0.7909839 0.648272 0.875 0.5625 0.875 0.6875 0.7942367 0.6043058 0.875 0.6875 0.8742306 0.6972772 0.7909839 0.648272 0.7951182 0.6353071 0.875 0.6875 0.7909839 0.648272 0.7963419 0.6206164 0.7942367 0.6043058 0.875 0.6875 0.7951182 0.6353071 0.7963419 0.6206164 0.875 0.6875 0.8125 0.75 0.7419173 0.6818481 0.754107 0.6798328 0.6252565 0.6972772 0.6889479 0.6552012 0.6965429 0.6651324 0.625 0.6875 0.6800091 0.6311995 0.6834354 0.6437146 0.625 0.6875 0.6834354 0.6437146 0.6889479 0.6552012 0.8125 0.75 0.754107 0.6798328 0.7655356 0.6753468 0.8125 0.75 0.7655356 0.6753468 0.7757681 0.668479 0.7419173 0.6818481 0.6875 0.75 0.7294507 0.6813775 0.7061116 0.6729857 0.7172894 0.678427 0.6875 0.75 0.625 0.0625 0.625 0.1875 0.375 0.1875 0.625 0.3125 0.625 0.4375 0.375 0.4375 0.625 0.9375 0.625 0.9472772 0.375 0.9472772 0.625 0.9472772 0.625 0.9568136 0.375 0.9568136 0.625 0.9568136 0.625 0.9658744 0.375 0.9658744 0.625 0.9658744 0.625 0.9742366 0.375 0.9742366 0.625 0.9742366 0.625 1 0.375 1 0.625 0 0.625 0.02576339 0.375 0.02576339 0.625 0.02576339 0.625 0.03412556 0.375 0.03412556 0.625 0.03412556 0.625 0.04318642 0.375 0.04318642 0.625 0.04318642 0.625 0.05272281 0.375 0.05272281 0.625 0.05272281 0.625 0.0625 0.375 0.0625 0.375 0.3125 0.3092409 0.3687384 0.6907591 0.3687384 0.3092409 0.3687384 0.3060622 0.3631439 0.6939379 0.3631439 0.3060622 0.3631439 0.3030419 0.3583544 0.6969582 0.3583545 0.3030419 0.3583544 0.3002545 0.3544878 0.6997455 0.3544878 0.3002545 0.3544878 0.2977686 0.3394353 0.7022314 0.3394353 0.2977686 0.3394353 0.2956455 0.3247455 0.7043545 0.3247455 0.2956455 0.3247455 0.2939374 0.3219581 0.7060627 0.3219581 0.2939374 0.3219581 0.2926864 0.3189378 0.7073137 0.3189378 0.2926864 0.3189378 0.2919232 0.3157591 0.7080768 0.3157591 0.2919232 0.3157591 0.375 0.1875 0.625 0.1875 0.375 0.5625 0.3747435 0.5527228 0.6252565 0.5527229 0.3747435 0.5527228 0.3739804 0.5431864 0.6260197 0.5431864 0.3739804 0.5431864 0.3727293 0.5341256 0.6272707 0.5341256 0.3727293 0.5341256 0.3710212 0.5257634 0.6289789 0.5257634 0.3710212 0.5257634 0.3688981 0.506102 0.631102 0.506102 0.3688981 0.506102 0.3664122 0.4868032 0.6335878 0.4868032 0.3664122 0.4868032 0.3636248 0.4795203 0.6363753 0.4795203 0.3636248 0.4795203 0.3606045 0.4722287 0.6393955 0.4722287 0.3606045 0.4722287 0.3574257 0.4651079 0.6425743 0.4651079 0.3574257 0.4651079 0.375 0.4375 0.625 0.4375 0.375 0.8125 0.3574258 0.7848921 0.6425743 0.7848921 0.3574258 0.7848921 0.3606045 0.7777714 0.6393955 0.7777714 0.3606045 0.7777714 0.3636248 0.7704797 0.6363752 0.7704797 0.3636248 0.7704797 0.3664122 0.7631968 0.6335878 0.7631968 0.3664122 0.7631968 0.3688981 0.7438981 0.631102 0.7438981 0.3688981 0.7438981 0.3710212 0.7242366 0.6289789 0.7242366 0.3710212 0.7242366 0.3727293 0.7158744 0.6272707 0.7158744 0.3727293 0.7158744 0.3739804 0.7068136 0.6260197 0.7068136 0.3739804 0.7068136 0.3747435 0.6972772 0.6252565 0.6972772 0.3747435 0.6972772 0.375 0.6875 0.625 0.6875 0.125 0.6875 0.125 0.5625 0.2057633 0.6043058 0.125 0.6875 0.2057633 0.6043058 0.2036579 0.6206164 0.1280589 0.7068136 0.1257694 0.6972771 0.2156102 0.6593902 0.1257694 0.6972771 0.125 0.6875 0.2090162 0.6482722 0.1369364 0.7242366 0.131812 0.7158744 0.2156102 0.6593902 0.131812 0.7158744 0.1280589 0.7068136 0.2156102 0.6593902 0.1507634 0.7380636 0.1433058 0.7316942 0.2156102 0.6593902 0.1433058 0.7316942 0.1369364 0.7242366 0.2156102 0.6593902 0.1681864 0.7469411 0.1591256 0.743188 0.2156102 0.6593902 0.1591256 0.743188 0.1507634 0.7380636 0.2156102 0.6593902 0.1681864 0.7469411 0.2156102 0.6593902 0.1777228 0.7492305 0.1875 0.75 0.1777228 0.7492305 0.2242318 0.668479 0.2242318 0.668479 0.1777228 0.7492305 0.2156102 0.6593902 0.3574258 0.7848921 0.3125 0.75 0.293888 0.6729855 0.3125 0.75 0.1875 0.75 0.2580827 0.6818482 0.3636248 0.7704797 0.3606045 0.7777714 0.3034569 0.6651323 0.3606045 0.7777714 0.3574258 0.7848921 0.3034569 0.6651323 0.3034569 0.6651323 0.3574258 0.7848921 0.293888 0.6729855 0.3688981 0.7438981 0.3664122 0.7631968 0.3034569 0.6651323 0.3664122 0.7631968 0.3636248 0.7704797 0.3034569 0.6651323 0.3727293 0.7158744 0.3710212 0.7242366 0.3034569 0.6651323 0.3710212 0.7242366 0.3688981 0.7438981 0.3034569 0.6651323 0.3747435 0.6972772 0.3739804 0.7068136 0.3034569 0.6651323 0.3739804 0.7068136 0.3727293 0.7158744 0.3034569 0.6651323 0.3747435 0.6972772 0.3034569 0.6651323 0.3110519 0.6552003 0.375 0.5625 0.375 0.6875 0.3213388 0.6181001 0.375 0.6875 0.3747435 0.6972772 0.3110519 0.6552003 0.3165647 0.6437146 0.375 0.6875 0.3110519 0.6552003 0.3199909 0.6311996 0.3213388 0.6181001 0.375 0.6875 0.3165647 0.6437146 0.3199909 0.6311996 0.375 0.6875 0.3125 0.75 0.2580827 0.6818482 0.2705491 0.6813775 0.1257694 0.6972771 0.2090162 0.6482722 0.2156102 0.6593902 0.125 0.6875 0.2036579 0.6206164 0.2048818 0.635307 0.125 0.6875 0.2048818 0.635307 0.2090162 0.6482722 0.3125 0.75 0.2705491 0.6813775 0.2827107 0.6784269 0.3125 0.75 0.2827107 0.6784269 0.293888 0.6729855 0.2580827 0.6818482 0.1875 0.75 0.245893 0.679833 0.2242318 0.668479 0.2344644 0.6753468 0.1875 0.75 0.71875 0.5500001 0.75 0.5500001 0.75 0.5227273 0.625 0.5500001 0.65625 0.5500001 0.65625 0.5227273 0.65625 0.5500001 0.6875 0.5500001 0.6875 0.5227273 0.21875 0.5227273 0.21875 0.5500001 0.25 0.5500001 0.78125 0.5500001 0.8125 0.5500001 0.8125 0.5227273 0.75 0.5500001 0.78125 0.5500001 0.78125 0.5227273 0.84375 0.5227273 0.84375 0.5500001 0.875 0.5500001 0 0.55 0.03125 0.5500001 0.03125 0.5227273 0.46875 0.5500001 0.5 0.5500001 0.5 0.5227273 0.15625 0.5500001 0.1875 0.5500001 0.1875 0.5227273 0.5 0.5500001 0.53125 0.5500001 0.53125 0.5227273 0.03125 0.5227273 0.03125 0.5500001 0.0625 0.5500001 0.875 0.5500001 0.90625 0.5500001 0.90625 0.5227273 0.40625 0.5227273 0.40625 0.5500001 0.4375 0.5500001 0.90625 0.5500001 0.9375 0.5500001 0.9375 0.5227273 0.59375 0.5227273 0.59375 0.5500001 0.625 0.5500001 0.09375 0.5500001 0.125 0.5500001 0.125 0.5227273 0.1875 0.5500001 0.21875 0.5500001 0.21875 0.5227273 0.5625 0.5227273 0.5625 0.5500001 0.59375 0.5500001 0.375 0.5227273 0.375 0.5500001 0.40625 0.5500001 0.3125 0.5500001 0.34375 0.5500001 0.34375 0.5227273 0.96875 0.5500001 1 0.55 1 0.5227273 0.8125 0.5227273 0.8125 0.5500001 0.84375 0.5500001 0.25 0.5500001 0.28125 0.5500001 0.28125 0.5227273 0.3747435 0.5527228 0.375 0.5625 0.313195 0.5794711 0.375 0.5625 0.3213388 0.6181001 0.3206266 0.6048217 0.375 0.5625 0.3206266 0.6048217 0.3178958 0.5917853 0.3727293 0.5341256 0.3739804 0.5431864 0.3065897 0.5684101 0.3739804 0.5431864 0.3747435 0.5527228 0.3065897 0.5684101 0.3688981 0.506102 0.3710212 0.5257634 0.3065897 0.5684101 0.3710212 0.5257634 0.3727293 0.5341256 0.3065897 0.5684101 0.3636248 0.4795203 0.3664122 0.4868032 0.3065897 0.5684101 0.3664122 0.4868032 0.3688981 0.506102 0.3065897 0.5684101 0.3574257 0.4651079 0.3606045 0.4722287 0.3065897 0.5684101 0.3606045 0.4722287 0.3636248 0.4795203 0.3065897 0.5684101 0.3574257 0.4651079 0.3065897 0.5684101 0.2982658 0.5590683 0.1875 0.5 0.3125 0.5 0.2692551 0.5413058 0.3125 0.5 0.3574257 0.4651079 0.2982658 0.5590683 0.2787357 0.5458161 0.3125 0.5 0.2887104 0.551608 0.3060622 0.3631439 0.3092409 0.3687384 0.2394888 0.541922 0.3092409 0.3687384 0.1875 0.5 0.2472433 0.5365039 0.3002545 0.3544878 0.3030419 0.3583544 0.2394888 0.541922 0.3030419 0.3583544 0.3060622 0.3631439 0.2394888 0.541922 0.2956455 0.3247455 0.2977686 0.3394353 0.2394888 0.541922 0.2977686 0.3394353 0.3002545 0.3544878 0.2394888 0.541922 0.2926864 0.3189378 0.2939374 0.3219581 0.2394888 0.541922 0.2939374 0.3219581 0.2956455 0.3247455 0.2394888 0.541922 0.2926864 0.3189378 0.2394888 0.541922 0.2919232 0.3157591 0.125 0.5625 0.2919232 0.3157591 0.2300475 0.5530794 0.2300475 0.5530794 0.2919232 0.3157591 0.2394888 0.541922 0.2113785 0.5866947 0.2057633 0.6043058 0.125 0.5625 0.2199939 0.5688683 0.2113785 0.5866947 0.125 0.5625 0.3092409 0.3687384 0.2472433 0.5365039 0.2394888 0.541922 0.3125 0.5 0.2787357 0.5458161 0.2692551 0.5413058 0.375 0.5625 0.3178958 0.5917853 0.313195 0.5794711 0.2199939 0.5688683 0.125 0.5625 0.2300475 0.5530794 0.1875 0.5 0.2692551 0.5413058 0.2609615 0.5378479 0.3747435 0.5527228 0.313195 0.5794711 0.3065897 0.5684101 0.2982658 0.5590683 0.2887104 0.551608 0.3125 0.5 0.2539243 0.535796 0.2472433 0.5365039 0.1875 0.5 0.6875 0.5500001 0.71875 0.5500001 0.71875 0.5227273 0.4375 0.5500001 0.46875 0.5500001 0.46875 0.5227273 0.0625 0.5227273 0.0625 0.5500001 0.09375 0.5500001 0.9375 0.5500001 0.96875 0.5500001 0.96875 0.5227273 0.53125 0.5500001 0.5625 0.5500001 0.5625 0.5227273 0.28125 0.5227273 0.28125 0.5500001 0.3125 0.5500001 0.125 0.5500001 0.15625 0.5500001 0.15625 0.5227273 0.34375 0.5227273 0.34375 0.5500001 0.375 0.5500001 0.7080768 0.3157591 0.875 0.5625 0.7699525 0.5530794 0.875 0.5625 0.7942367 0.6043058 0.7886217 0.5866943 0.875 0.5625 0.7886217 0.5866943 0.7800062 0.5688685 0.7060627 0.3219581 0.7073137 0.3189378 0.7605115 0.5419221 0.7073137 0.3189378 0.7080768 0.3157591 0.7605115 0.5419221 0.7022314 0.3394353 0.7043545 0.3247455 0.7605115 0.5419221 0.7043545 0.3247455 0.7060627 0.3219581 0.7605115 0.5419221 0.6969582 0.3583545 0.6997455 0.3544878 0.7605115 0.5419221 0.6997455 0.3544878 0.7022314 0.3394353 0.7605115 0.5419221 0.6907591 0.3687384 0.6939379 0.3631439 0.7605115 0.5419221 0.6939379 0.3631439 0.6969582 0.3583545 0.7605115 0.5419221 0.6907591 0.3687384 0.7605115 0.5419221 0.7527566 0.5365039 0.6875 0.5 0.8125 0.5 0.7307446 0.5413058 0.8125 0.5 0.6907591 0.3687384 0.7527566 0.5365039 0.7390385 0.5378482 0.8125 0.5 0.7460757 0.535796 0.6393955 0.4722287 0.6425743 0.4651079 0.69341 0.5684101 0.6425743 0.4651079 0.6875 0.5 0.7017341 0.5590684 0.6335878 0.4868032 0.6363753 0.4795203 0.69341 0.5684101 0.6363753 0.4795203 0.6393955 0.4722287 0.69341 0.5684101 0.6289789 0.5257634 0.631102 0.506102 0.69341 0.5684101 0.631102 0.506102 0.6335878 0.4868032 0.69341 0.5684101 0.6260197 0.5431864 0.6272707 0.5341256 0.69341 0.5684101 0.6272707 0.5341256 0.6289789 0.5257634 0.69341 0.5684101 0.6260197 0.5431864 0.69341 0.5684101 0.6252565 0.5527229 0.625 0.5625 0.6252565 0.5527229 0.6868045 0.5794706 0.6868045 0.5794706 0.6252565 0.5527229 0.69341 0.5684101 0.6793735 0.6048219 0.6786612 0.6181002 0.625 0.5625 0.6821044 0.5917852 0.6793735 0.6048219 0.625 0.5625 0.6425743 0.4651079 0.7017341 0.5590684 0.69341 0.5684101 0.8125 0.5 0.7390385 0.5378482 0.7307446 0.5413058 0.875 0.5625 0.7800062 0.5688685 0.7699525 0.5530794 0.6821044 0.5917852 0.625 0.5625 0.6868045 0.5794706 0.6875 0.5 0.7307446 0.5413058 0.7212643 0.545816 0.7080768 0.3157591 0.7699525 0.5530794 0.7605115 0.5419221 0.7527566 0.5365039 0.7460757 0.535796 0.8125 0.5 0.7112897 0.5516083 0.7017341 0.5590684 0.6875 0.5 0.625 0.8125 0.625 0.9375 0.375 0.9375 0.625 0.5625 0.625 0.6875 0.375 0.6875 0.625 0.6875 0.625 0.5625 0.6786612 0.6181002 0.625 0.6875 0.6786612 0.6181002 0.6800091 0.6311995 0.6260197 0.7068136 0.6252565 0.6972772 0.6965429 0.6651324 0.6252565 0.6972772 0.625 0.6875 0.6889479 0.6552012 0.6289789 0.7242366 0.6272707 0.7158744 0.6965429 0.6651324 0.6272707 0.7158744 0.6260197 0.7068136 0.6965429 0.6651324 0.6335878 0.7631968 0.631102 0.7438981 0.6965429 0.6651324 0.631102 0.7438981 0.6289789 0.7242366 0.6965429 0.6651324 0.6393955 0.7777714 0.6363752 0.7704797 0.6965429 0.6651324 0.6363752 0.7704797 0.6335878 0.7631968 0.6965429 0.6651324 0.6393955 0.7777714 0.6965429 0.6651324 0.6425743 0.7848921 0.6875 0.75 0.6425743 0.7848921 0.7061116 0.6729857 0.7061116 0.6729857 0.6425743 0.7848921 0.6965429 0.6651324 0.8222772 0.7492305 0.8125 0.75 0.7757681 0.668479 0.8125 0.75 0.6875 0.75 0.7419173 0.6818481 0.8408744 0.743188 0.8318136 0.7469411 0.7843898 0.6593904 0.8318136 0.7469411 0.8222772 0.7492305 0.7843898 0.6593904 0.7843898 0.6593904 0.8222772 0.7492305 0.7757681 0.668479 0.8566942 0.7316942 0.8492366 0.7380635 0.7843898 0.6593904 0.8492366 0.7380635 0.8408744 0.743188 0.7843898 0.6593904 0.868188 0.7158744 0.8630636 0.7242366 0.7843898 0.6593904 0.8630636 0.7242366 0.8566942 0.7316942 0.7843898 0.6593904 0.8742306 0.6972772 0.871941 0.7068136 0.7843898 0.6593904 0.871941 0.7068136 0.868188 0.7158744 0.7843898 0.6593904 0.8742306 0.6972772 0.7843898 0.6593904 0.7909839 0.648272 0.875 0.5625 0.875 0.6875 0.7942367 0.6043058 0.875 0.6875 0.8742306 0.6972772 0.7909839 0.648272 0.7951182 0.6353071 0.875 0.6875 0.7909839 0.648272 0.7963419 0.6206164 0.7942367 0.6043058 0.875 0.6875 0.7951182 0.6353071 0.7963419 0.6206164 0.875 0.6875 0.8125 0.75 0.7419173 0.6818481 0.754107 0.6798328 0.6252565 0.6972772 0.6889479 0.6552012 0.6965429 0.6651324 0.625 0.6875 0.6800091 0.6311995 0.6834354 0.6437146 0.625 0.6875 0.6834354 0.6437146 0.6889479 0.6552012 0.8125 0.75 0.754107 0.6798328 0.7655356 0.6753468 0.8125 0.75 0.7655356 0.6753468 0.7757681 0.668479 0.7419173 0.6818481 0.6875 0.75 0.7294507 0.6813775 0.7061116 0.6729857 0.7172894 0.678427 0.6875 0.75 0.625 0.0625 0.625 0.1875 0.375 0.1875 0.625 0.3125 0.625 0.4375 0.375 0.4375 0.625 0.9375 0.625 0.9472772 0.375 0.9472772 0.625 0.9472772 0.625 0.9568136 0.375 0.9568136 0.625 0.9568136 0.625 0.9658744 0.375 0.9658744 0.625 0.9658744 0.625 0.9742366 0.375 0.9742366 0.625 0.9742366 0.625 1 0.375 1 0.625 0 0.625 0.02576339 0.375 0.02576339 0.625 0.02576339 0.625 0.03412556 0.375 0.03412556 0.625 0.03412556 0.625 0.04318642 0.375 0.04318642 0.625 0.04318642 0.625 0.05272281 0.375 0.05272281 0.625 0.05272281 0.625 0.0625 0.375 0.0625 0.375 0.3125 0.3092409 0.3687384 0.6907591 0.3687384 0.3092409 0.3687384 0.3060622 0.3631439 0.6939379 0.3631439 0.3060622 0.3631439 0.3030419 0.3583544 0.6969582 0.3583545 0.3030419 0.3583544 0.3002545 0.3544878 0.6997455 0.3544878 0.3002545 0.3544878 0.2977686 0.3394353 0.7022314 0.3394353 0.2977686 0.3394353 0.2956455 0.3247455 0.7043545 0.3247455 0.2956455 0.3247455 0.2939374 0.3219581 0.7060627 0.3219581 0.2939374 0.3219581 0.2926864 0.3189378 0.7073137 0.3189378 0.2926864 0.3189378 0.2919232 0.3157591 0.7080768 0.3157591 0.2919232 0.3157591 0.375 0.1875 0.625 0.1875 0.375 0.5625 0.3747435 0.5527228 0.6252565 0.5527229 0.3747435 0.5527228 0.3739804 0.5431864 0.6260197 0.5431864 0.3739804 0.5431864 0.3727293 0.5341256 0.6272707 0.5341256 0.3727293 0.5341256 0.3710212 0.5257634 0.6289789 0.5257634 0.3710212 0.5257634 0.3688981 0.506102 0.631102 0.506102 0.3688981 0.506102 0.3664122 0.4868032 0.6335878 0.4868032 0.3664122 0.4868032 0.3636248 0.4795203 0.6363753 0.4795203 0.3636248 0.4795203 0.3606045 0.4722287 0.6393955 0.4722287 0.3606045 0.4722287 0.3574257 0.4651079 0.6425743 0.4651079 0.3574257 0.4651079 0.375 0.4375 0.625 0.4375 0.375 0.8125 0.3574258 0.7848921 0.6425743 0.7848921 0.3574258 0.7848921 0.3606045 0.7777714 0.6393955 0.7777714 0.3606045 0.7777714 0.3636248 0.7704797 0.6363752 0.7704797 0.3636248 0.7704797 0.3664122 0.7631968 0.6335878 0.7631968 0.3664122 0.7631968 0.3688981 0.7438981 0.631102 0.7438981 0.3688981 0.7438981 0.3710212 0.7242366 0.6289789 0.7242366 0.3710212 0.7242366 0.3727293 0.7158744 0.6272707 0.7158744 0.3727293 0.7158744 0.3739804 0.7068136 0.6260197 0.7068136 0.3739804 0.7068136 0.3747435 0.6972772 0.6252565 0.6972772 0.3747435 0.6972772 0.375 0.6875 0.625 0.6875 0.125 0.6875 0.125 0.5625 0.2057633 0.6043058 0.125 0.6875 0.2057633 0.6043058 0.2036579 0.6206164 0.1280589 0.7068136 0.1257694 0.6972771 0.2156102 0.6593902 0.1257694 0.6972771 0.125 0.6875 0.2090162 0.6482722 0.1369364 0.7242366 0.131812 0.7158744 0.2156102 0.6593902 0.131812 0.7158744 0.1280589 0.7068136 0.2156102 0.6593902 0.1507634 0.7380636 0.1433058 0.7316942 0.2156102 0.6593902 0.1433058 0.7316942 0.1369364 0.7242366 0.2156102 0.6593902 0.1681864 0.7469411 0.1591256 0.743188 0.2156102 0.6593902 0.1591256 0.743188 0.1507634 0.7380636 0.2156102 0.6593902 0.1681864 0.7469411 0.2156102 0.6593902 0.1777228 0.7492305 0.1875 0.75 0.1777228 0.7492305 0.2242318 0.668479 0.2242318 0.668479 0.1777228 0.7492305 0.2156102 0.6593902 0.3574258 0.7848921 0.3125 0.75 0.293888 0.6729855 0.3125 0.75 0.1875 0.75 0.2580827 0.6818482 0.3636248 0.7704797 0.3606045 0.7777714 0.3034569 0.6651323 0.3606045 0.7777714 0.3574258 0.7848921 0.3034569 0.6651323 0.3034569 0.6651323 0.3574258 0.7848921 0.293888 0.6729855 0.3688981 0.7438981 0.3664122 0.7631968 0.3034569 0.6651323 0.3664122 0.7631968 0.3636248 0.7704797 0.3034569 0.6651323 0.3727293 0.7158744 0.3710212 0.7242366 0.3034569 0.6651323 0.3710212 0.7242366 0.3688981 0.7438981 0.3034569 0.6651323 0.3747435 0.6972772 0.3739804 0.7068136 0.3034569 0.6651323 0.3739804 0.7068136 0.3727293 0.7158744 0.3034569 0.6651323 0.3747435 0.6972772 0.3034569 0.6651323 0.3110519 0.6552003 0.375 0.5625 0.375 0.6875 0.3213388 0.6181001 0.375 0.6875 0.3747435 0.6972772 0.3110519 0.6552003 0.3165647 0.6437146 0.375 0.6875 0.3110519 0.6552003 0.3199909 0.6311996 0.3213388 0.6181001 0.375 0.6875 0.3165647 0.6437146 0.3199909 0.6311996 0.375 0.6875 0.3125 0.75 0.2580827 0.6818482 0.2705491 0.6813775 0.1257694 0.6972771 0.2090162 0.6482722 0.2156102 0.6593902 0.125 0.6875 0.2036579 0.6206164 0.2048818 0.635307 0.125 0.6875 0.2048818 0.635307 0.2090162 0.6482722 0.3125 0.75 0.2705491 0.6813775 0.2827107 0.6784269 0.3125 0.75 0.2827107 0.6784269 0.293888 0.6729855 0.2580827 0.6818482 0.1875 0.75 0.245893 0.679833 0.2242318 0.668479 0.2344644 0.6753468 0.1875 0.75 0.71875 0.5227273 0.71875 0.5500001 0.75 0.5500001 0.625 0.5500001 0.65625 0.5500001 0.65625 0.5227273 0.65625 0.5500001 0.6875 0.5500001 0.6875 0.5227273 0.21875 0.5500001 0.25 0.5500001 0.25 0.5227273 0.78125 0.5500001 0.8125 0.5500001 0.8125 0.5227273 0.75 0.5500001 0.78125 0.5500001 0.78125 0.5227273 0.84375 0.5227273 0.84375 0.5500001 0.875 0.5500001 0 0.5227273 0 0.55 0.03125 0.5500001 0.46875 0.5500001 0.5 0.5500001 0.5 0.5227273 0.15625 0.5500001 0.1875 0.5500001 0.1875 0.5227273 0.5 0.5500001 0.53125 0.5500001 0.53125 0.5227273 0.03125 0.5227273 0.03125 0.5500001 0.0625 0.5500001 0.875 0.5500001 0.90625 0.5500001 0.90625 0.5227273 0.40625 0.5227273 0.40625 0.5500001 0.4375 0.5500001 0.90625 0.5500001 0.9375 0.5500001 0.9375 0.5227273 0.59375 0.5227273 0.59375 0.5500001 0.625 0.5500001 0.09375 0.5500001 0.125 0.5500001 0.125 0.5227273 0.1875 0.5500001 0.21875 0.5500001 0.21875 0.5227273 0.5625 0.5227273 0.5625 0.5500001 0.59375 0.5500001 0.375 0.5227273 0.375 0.5500001 0.40625 0.5500001 0.3125 0.5500001 0.34375 0.5500001 0.34375 0.5227273 0.96875 0.5500001 1 0.55 1 0.5227273 0.8125 0.5500001 0.84375 0.5500001 0.84375 0.5227273 0.25 0.5500001 0.28125 0.5500001 0.28125 0.5227273 0.3747435 0.5527228 0.375 0.5625 0.313195 0.5794711 0.375 0.5625 0.3213388 0.6181001 0.3206266 0.6048217 0.375 0.5625 0.3206266 0.6048217 0.3178958 0.5917853 0.3727293 0.5341256 0.3739804 0.5431864 0.3065897 0.5684101 0.3739804 0.5431864 0.3747435 0.5527228 0.3065897 0.5684101 0.3688981 0.506102 0.3710212 0.5257634 0.3065897 0.5684101 0.3710212 0.5257634 0.3727293 0.5341256 0.3065897 0.5684101 0.3636248 0.4795203 0.3664122 0.4868032 0.3065897 0.5684101 0.3664122 0.4868032 0.3688981 0.506102 0.3065897 0.5684101 0.3574257 0.4651079 0.3606045 0.4722287 0.3065897 0.5684101 0.3606045 0.4722287 0.3636248 0.4795203 0.3065897 0.5684101 0.3574257 0.4651079 0.3065897 0.5684101 0.2982658 0.5590683 0.1875 0.5 0.3125 0.5 0.2692551 0.5413058 0.3125 0.5 0.3574257 0.4651079 0.2982658 0.5590683 0.2787357 0.5458161 0.3125 0.5 0.2887104 0.551608 0.3060622 0.3631439 0.3092409 0.3687384 0.2394888 0.541922 0.3092409 0.3687384 0.1875 0.5 0.2472433 0.5365039 0.3002545 0.3544878 0.3030419 0.3583544 0.2394888 0.541922 0.3030419 0.3583544 0.3060622 0.3631439 0.2394888 0.541922 0.2956455 0.3247455 0.2977686 0.3394353 0.2394888 0.541922 0.2977686 0.3394353 0.3002545 0.3544878 0.2394888 0.541922 0.2926864 0.3189378 0.2939374 0.3219581 0.2394888 0.541922 0.2939374 0.3219581 0.2956455 0.3247455 0.2394888 0.541922 0.2926864 0.3189378 0.2394888 0.541922 0.2919232 0.3157591 0.125 0.5625 0.2919232 0.3157591 0.2300475 0.5530794 0.2300475 0.5530794 0.2919232 0.3157591 0.2394888 0.541922 0.2113785 0.5866947 0.2057633 0.6043058 0.125 0.5625 0.2199939 0.5688683 0.2113785 0.5866947 0.125 0.5625 0.3092409 0.3687384 0.2472433 0.5365039 0.2394888 0.541922 0.3125 0.5 0.2787357 0.5458161 0.2692551 0.5413058 0.375 0.5625 0.3178958 0.5917853 0.313195 0.5794711 0.2199939 0.5688683 0.125 0.5625 0.2300475 0.5530794 0.1875 0.5 0.2692551 0.5413058 0.2609615 0.5378479 0.3747435 0.5527228 0.313195 0.5794711 0.3065897 0.5684101 0.2982658 0.5590683 0.2887104 0.551608 0.3125 0.5 0.2539243 0.535796 0.2472433 0.5365039 0.1875 0.5 0.6875 0.5500001 0.71875 0.5500001 0.71875 0.5227273 0.4375 0.5500001 0.46875 0.5500001 0.46875 0.5227273 0.0625 0.5227273 0.0625 0.5500001 0.09375 0.5500001 0.9375 0.5500001 0.96875 0.5500001 0.96875 0.5227273 0.53125 0.5500001 0.5625 0.5500001 0.5625 0.5227273 0.28125 0.5500001 0.3125 0.5500001 0.3125 0.5227273 0.125 0.5500001 0.15625 0.5500001 0.15625 0.5227273 0.34375 0.5227273 0.34375 0.5500001 0.375 0.5500001 0.7080768 0.3157591 0.875 0.5625 0.7699525 0.5530794 0.875 0.5625 0.7942367 0.6043058 0.7886217 0.5866943 0.875 0.5625 0.7886217 0.5866943 0.7800062 0.5688685 0.7060627 0.3219581 0.7073137 0.3189378 0.7605115 0.5419221 0.7073137 0.3189378 0.7080768 0.3157591 0.7605115 0.5419221 0.7022314 0.3394353 0.7043545 0.3247455 0.7605115 0.5419221 0.7043545 0.3247455 0.7060627 0.3219581 0.7605115 0.5419221 0.6969582 0.3583545 0.6997455 0.3544878 0.7605115 0.5419221 0.6997455 0.3544878 0.7022314 0.3394353 0.7605115 0.5419221 0.6907591 0.3687384 0.6939379 0.3631439 0.7605115 0.5419221 0.6939379 0.3631439 0.6969582 0.3583545 0.7605115 0.5419221 0.6907591 0.3687384 0.7605115 0.5419221 0.7527566 0.5365039 0.6875 0.5 0.8125 0.5 0.7307446 0.5413058 0.8125 0.5 0.6907591 0.3687384 0.7527566 0.5365039 0.7390385 0.5378482 0.8125 0.5 0.7460757 0.535796 0.6393955 0.4722287 0.6425743 0.4651079 0.69341 0.5684101 0.6425743 0.4651079 0.6875 0.5 0.7017341 0.5590684 0.6335878 0.4868032 0.6363753 0.4795203 0.69341 0.5684101 0.6363753 0.4795203 0.6393955 0.4722287 0.69341 0.5684101 0.6289789 0.5257634 0.631102 0.506102 0.69341 0.5684101 0.631102 0.506102 0.6335878 0.4868032 0.69341 0.5684101 0.6260197 0.5431864 0.6272707 0.5341256 0.69341 0.5684101 0.6272707 0.5341256 0.6289789 0.5257634 0.69341 0.5684101 0.6260197 0.5431864 0.69341 0.5684101 0.6252565 0.5527229 0.625 0.5625 0.6252565 0.5527229 0.6868045 0.5794706 0.6868045 0.5794706 0.6252565 0.5527229 0.69341 0.5684101 0.6793735 0.6048219 0.6786612 0.6181002 0.625 0.5625 0.6821044 0.5917852 0.6793735 0.6048219 0.625 0.5625 0.6425743 0.4651079 0.7017341 0.5590684 0.69341 0.5684101 0.8125 0.5 0.7390385 0.5378482 0.7307446 0.5413058 0.875 0.5625 0.7800062 0.5688685 0.7699525 0.5530794 0.6821044 0.5917852 0.625 0.5625 0.6868045 0.5794706 0.6875 0.5 0.7307446 0.5413058 0.7212643 0.545816 0.7080768 0.3157591 0.7699525 0.5530794 0.7605115 0.5419221 0.7527566 0.5365039 0.7460757 0.535796 0.8125 0.5 0.7112897 0.5516083 0.7017341 0.5590684 0.6875 0.5</float_array>
          <technique_common>
            <accessor source="#Cylinder_008-mesh-map-0-array" count="2472" stride="2">
              <param name="S" type="float"/>
              <param name="T" type="float"/>
            </accessor>
          </technique_common>
        </source>
        <vertices id="Cylinder_008-mesh-vertices">
          <input semantic="POSITION" source="#Cylinder_008-mesh-positions"/>
        </vertices>
        <triangles material="Material-material" count="824">
          <input semantic="VERTEX" source="#Cylinder_008-mesh-vertices" offset="0"/>
          <input semantic="NORMAL" source="#Cylinder_008-mesh-normals" offset="1"/>
          <input semantic="TEXCOORD" source="#Cylinder_008-mesh-map-0" offset="2" set="0"/>
          <p>1 0 0 2 0 1 0 0 2 3 1 3 4 1 4 2 1 5 5 2 6 6 2 7 4 2 8 7 3 9 8 3 10 6 3 11 9 4 12 10 4 13 8 4 14 11 5 15 12 5 16 10 5 17 13 6 18 14 6 19 12 6 20 15 7 21 16 7 22 14 7 23 17 8 24 18 8 25 16 8 26 19 9 27 20 9 28 18 9 29 21 10 30 22 10 31 20 10 32 23 11 33 24 11 34 22 11 35 25 12 36 26 12 37 24 12 38 27 13 39 28 13 40 26 13 41 29 14 42 30 14 43 28 14 44 31 15 45 32 15 46 30 15 47 33 16 48 34 16 49 32 16 50 35 17 51 36 17 52 34 17 53 37 18 54 38 18 55 36 18 56 39 19 57 40 19 58 38 19 59 41 20 60 42 20 61 40 20 62 43 21 63 44 21 64 42 21 65 45 22 66 46 22 67 44 22 68 47 23 69 48 23 70 46 23 71 49 24 72 50 24 73 48 24 74 51 25 75 52 25 76 50 25 77 53 26 78 54 26 79 52 26 80 55 27 81 56 27 82 54 27 83 57 28 84 58 28 85 56 28 86 59 29 87 60 29 88 58 29 89 53 30 90 37 30 91 21 30 92 61 31 93 62 31 94 60 31 95 63 32 96 0 32 97 62 32 98 14 33 99 30 33 100 46 33 101 66 34 102 69 34 103 90 34 104 99 35 105 100 35 106 91 35 107 65 36 108 102 36 109 80 36 110 64 37 111 80 37 112 69 37 113 65 38 114 66 38 115 67 38 116 68 39 117 81 39 118 79 39 119 70 40 120 82 40 121 81 40 122 71 41 123 83 41 124 82 41 125 72 42 126 84 42 127 83 42 128 73 43 129 85 43 130 84 43 131 74 44 132 86 44 133 85 44 134 75 45 135 87 45 136 86 45 137 76 46 138 88 46 139 87 46 140 77 47 141 89 47 142 88 47 143 78 48 144 80 48 145 89 48 146 79 49 147 103 49 148 101 49 149 81 50 150 104 50 151 103 50 152 82 51 153 105 51 154 104 51 155 83 52 156 106 52 157 105 52 158 84 53 159 107 53 160 106 53 161 85 54 162 108 54 163 107 54 164 86 55 165 109 55 166 108 55 167 87 56 168 110 56 169 109 56 170 88 57 171 111 57 172 110 57 173 89 58 174 102 58 175 111 58 176 68 59 177 100 59 178 70 59 179 70 60 180 99 60 181 71 60 182 71 61 183 98 61 184 72 61 185 72 62 186 97 62 187 73 62 188 73 63 189 96 63 190 74 63 191 74 64 192 95 64 193 75 64 194 75 65 195 94 65 196 76 65 197 76 66 198 93 66 199 77 66 200 77 67 201 92 67 202 78 67 203 78 68 204 90 68 205 69 68 206 101 69 207 68 69 208 79 69 209 167 70 210 112 70 211 157 70 212 189 71 213 156 71 214 179 71 215 214 72 216 218 72 217 167 72 218 123 73 219 134 73 220 113 73 221 145 74 222 178 74 223 135 74 224 124 75 225 114 75 226 112 75 227 133 76 228 115 76 229 114 76 230 132 77 231 116 77 232 115 77 233 131 78 234 117 78 235 116 78 236 130 79 237 118 79 238 117 79 239 129 80 240 119 80 241 118 80 242 128 81 243 120 81 244 119 81 245 127 82 246 121 82 247 120 82 248 126 83 249 122 83 250 121 83 251 125 84 252 113 84 253 122 84 254 135 85 255 147 85 256 145 85 257 144 86 258 148 86 259 147 86 260 143 87 261 149 87 262 148 87 263 142 88 264 150 88 265 149 88 266 141 89 267 151 89 268 150 89 269 140 90 270 152 90 271 151 90 272 139 91 273 153 91 274 152 91 275 138 92 276 154 92 277 153 92 278 137 93 279 155 93 280 154 93 281 136 94 282 146 94 283 155 94 284 179 95 285 191 95 286 189 95 287 188 96 288 192 96 289 191 96 290 187 97 291 193 97 292 192 97 293 186 98 294 194 98 295 193 98 296 185 99 297 195 99 298 194 99 299 184 100 300 196 100 301 195 100 302 183 101 303 197 101 304 196 101 305 182 102 306 198 102 307 197 102 308 181 103 309 199 103 310 198 103 311 180 104 312 190 104 313 199 104 314 157 105 315 169 105 316 167 105 317 166 106 318 170 106 319 169 106 320 165 107 321 171 107 322 170 107 323 164 108 324 172 108 325 171 108 326 163 109 327 173 109 328 172 109 329 162 110 330 174 110 331 173 110 332 161 111 333 175 111 334 174 111 335 160 112 336 176 112 337 175 112 338 159 113 339 177 113 340 176 113 341 158 114 342 168 114 343 177 114 344 221 115 345 259 115 346 112 115 347 228 116 348 235 116 349 229 116 350 230 117 351 261 117 352 231 117 353 260 118 354 233 118 355 261 118 356 209 119 357 222 119 358 223 119 359 244 120 360 249 120 361 245 120 362 234 121 363 245 121 364 235 121 365 217 122 366 210 122 367 211 122 368 242 123 369 263 123 370 243 123 371 258 124 372 241 124 373 259 124 374 202 125 375 201 125 376 203 125 377 240 126 378 219 126 379 241 126 380 263 127 381 224 127 382 225 127 383 210 128 384 247 128 385 211 128 386 227 129 387 220 129 388 221 129 389 246 130 390 205 130 391 247 130 392 213 131 393 230 131 394 231 131 395 238 132 396 237 132 397 239 132 398 200 133 399 209 133 400 201 133 401 215 134 402 212 134 403 213 134 404 257 135 405 226 135 406 227 135 407 250 136 408 253 136 409 251 136 410 206 137 411 243 137 412 207 137 413 249 138 414 216 138 415 217 138 416 222 139 417 255 139 418 223 139 419 263 140 420 225 140 421 135 140 422 232 141 423 229 141 424 233 141 425 220 142 426 259 142 427 221 142 428 225 143 429 238 143 430 239 143 431 204 144 432 207 144 433 205 144 434 218 145 435 215 145 436 219 145 437 255 146 438 250 146 439 251 146 440 236 147 441 203 147 442 237 147 443 253 148 444 256 148 445 257 148 446 206 149 447 204 149 448 190 149 449 319 150 450 264 150 451 309 150 452 341 151 453 308 151 454 331 151 455 366 152 456 370 152 457 319 152 458 275 153 459 286 153 460 265 153 461 297 154 462 330 154 463 287 154 464 276 155 465 266 155 466 264 155 467 285 156 468 267 156 469 266 156 470 284 157 471 268 157 472 267 157 473 283 158 474 269 158 475 268 158 476 282 159 477 270 159 478 269 159 479 281 160 480 271 160 481 270 160 482 280 161 483 272 161 484 271 161 485 279 162 486 273 162 487 272 162 488 278 163 489 274 163 490 273 163 491 277 164 492 265 164 493 274 164 494 287 165 495 299 165 496 297 165 497 296 166 498 300 166 499 299 166 500 295 167 501 301 167 502 300 167 503 294 168 504 302 168 505 301 168 506 293 169 507 303 169 508 302 169 509 292 170 510 304 170 511 303 170 512 291 171 513 305 171 514 304 171 515 290 172 516 306 172 517 305 172 518 289 173 519 307 173 520 306 173 521 288 174 522 298 174 523 307 174 524 331 175 525 343 175 526 341 175 527 340 176 528 344 176 529 343 176 530 339 177 531 345 177 532 344 177 533 338 178 534 346 178 535 345 178 536 337 179 537 347 179 538 346 179 539 336 180 540 348 180 541 347 180 542 335 181 543 349 181 544 348 181 545 334 182 546 350 182 547 349 182 548 333 183 549 351 183 550 350 183 551 332 184 552 342 184 553 351 184 554 309 185 555 321 185 556 319 185 557 318 186 558 322 186 559 321 186 560 317 187 561 323 187 562 322 187 563 316 188 564 324 188 565 323 188 566 315 189 567 325 189 568 324 189 569 314 190 570 326 190 571 325 190 572 313 191 573 327 191 574 326 191 575 312 192 576 328 192 577 327 192 578 311 193 579 329 193 580 328 193 581 310 194 582 320 194 583 329 194 584 373 195 585 411 195 586 264 195 587 381 196 588 386 196 589 387 196 590 382 197 591 413 197 592 383 197 593 412 198 594 385 198 595 413 198 596 360 199 597 375 199 598 361 199 599 396 200 600 401 200 601 397 200 602 386 201 603 397 201 604 387 201 605 369 202 606 362 202 607 363 202 608 395 203 609 414 203 610 415 203 611 410 204 612 393 204 613 411 204 614 354 205 615 353 205 616 355 205 617 392 206 618 371 206 619 393 206 620 415 207 621 376 207 622 377 207 623 362 208 624 399 208 625 363 208 626 379 209 627 372 209 628 373 209 629 398 210 630 357 210 631 399 210 632 365 211 633 382 211 634 383 211 635 390 212 636 389 212 637 391 212 638 352 213 639 361 213 640 353 213 641 367 214 642 364 214 643 365 214 644 409 215 645 378 215 646 379 215 647 402 216 648 405 216 649 403 216 650 358 217 651 395 217 652 359 217 653 400 218 654 369 218 655 401 218 656 374 219 657 407 219 658 375 219 659 415 220 660 377 220 661 287 220 662 384 221 663 381 221 664 385 221 665 372 222 666 411 222 667 373 222 668 377 223 669 390 223 670 391 223 671 356 224 672 359 224 673 357 224 674 370 225 675 367 225 676 371 225 677 406 226 678 403 226 679 407 226 680 388 227 681 355 227 682 389 227 683 405 228 684 408 228 685 409 228 686 358 229 687 356 229 688 342 229 689 1 230 690 3 230 691 2 230 692 3 231 693 5 231 694 4 231 695 5 232 696 7 232 697 6 232 698 7 233 699 9 233 700 8 233 701 9 234 702 11 234 703 10 234 704 11 235 705 13 235 706 12 235 707 13 236 708 15 236 709 14 236 710 15 237 711 17 237 712 16 237 713 17 238 714 19 238 715 18 238 716 19 239 717 21 239 718 20 239 719 21 240 720 23 240 721 22 240 722 23 241 723 25 241 724 24 241 725 25 242 726 27 242 727 26 242 728 27 243 729 29 243 730 28 243 731 29 244 732 31 244 733 30 244 734 31 245 735 33 245 736 32 245 737 33 246 738 35 246 739 34 246 740 35 247 741 37 247 742 36 247 743 37 248 744 39 248 745 38 248 746 39 249 747 41 249 748 40 249 749 41 250 750 43 250 751 42 250 752 43 251 753 45 251 754 44 251 755 45 252 756 47 252 757 46 252 758 47 253 759 49 253 760 48 253 761 49 254 762 51 254 763 50 254 764 51 255 765 53 255 766 52 255 767 53 256 768 55 256 769 54 256 770 55 257 771 57 257 772 56 257 773 57 258 774 59 258 775 58 258 776 59 259 777 61 259 778 60 259 779 5 260 780 3 260 781 1 260 782 1 261 783 63 261 784 5 261 785 63 262 786 61 262 787 5 262 788 61 263 789 59 263 790 57 263 791 57 264 792 55 264 793 53 264 794 53 265 795 51 265 796 49 265 797 49 266 798 47 266 799 53 266 800 47 267 801 45 267 802 53 267 803 45 268 804 43 268 805 37 268 806 43 269 807 41 269 808 37 269 809 41 270 810 39 270 811 37 270 812 37 271 813 35 271 814 33 271 815 33 272 816 31 272 817 29 272 818 29 273 819 27 273 820 25 273 821 25 274 822 23 274 823 21 274 824 21 275 825 19 275 826 17 275 827 17 276 828 15 276 829 21 276 830 15 277 831 13 277 832 21 277 833 13 278 834 11 278 835 9 278 836 9 279 837 7 279 838 5 279 839 61 280 840 57 280 841 5 280 842 57 281 843 53 281 844 5 281 845 37 282 846 33 282 847 21 282 848 33 283 849 29 283 850 21 283 851 29 284 852 25 284 853 21 284 854 13 285 855 9 285 856 21 285 857 9 286 858 5 286 859 21 286 860 53 287 861 45 287 862 37 287 863 5 288 864 53 288 865 21 288 866 61 289 867 63 289 868 62 289 869 63 290 870 1 290 871 0 290 872 62 291 873 0 291 874 2 291 875 2 292 876 4 292 877 6 292 878 6 293 879 8 293 880 10 293 881 10 294 882 12 294 883 6 294 884 12 295 885 14 295 886 6 295 887 14 296 888 16 296 889 18 296 890 18 297 891 20 297 892 14 297 893 20 298 894 22 298 895 14 298 896 22 299 897 24 299 898 30 299 899 24 300 900 26 300 901 30 300 902 26 301 903 28 301 904 30 301 905 30 302 906 32 302 907 34 302 908 34 303 909 36 303 910 38 303 911 38 304 912 40 304 913 42 304 914 42 305 915 44 305 916 46 305 917 46 306 918 48 306 919 50 306 920 50 307 921 52 307 922 54 307 923 54 308 924 56 308 925 62 308 926 56 309 927 58 309 928 62 309 929 58 310 930 60 310 931 62 310 932 62 311 933 2 311 934 6 311 935 30 312 936 34 312 937 46 312 938 34 313 939 38 313 940 46 313 941 38 314 942 42 314 943 46 314 944 46 315 945 50 315 946 62 315 947 50 316 948 54 316 949 62 316 950 62 317 951 6 317 952 14 317 953 14 318 954 22 318 955 30 318 956 62 319 957 14 319 958 46 319 959 66 320 960 64 320 961 69 320 962 91 321 963 101 321 964 106 321 965 101 322 966 103 322 967 104 322 968 105 323 969 101 323 970 104 323 971 105 324 972 106 324 973 101 324 974 106 325 975 107 325 976 97 325 977 91 326 978 106 326 979 97 326 980 107 327 981 108 327 982 96 327 983 108 328 984 109 328 985 95 328 986 107 329 987 96 329 988 97 329 989 109 330 990 110 330 991 93 330 992 110 331 993 111 331 994 93 331 995 111 332 996 102 332 997 90 332 998 102 333 999 67 333 1000 90 333 1001 67 334 1002 66 334 1003 90 334 1004 90 335 1005 92 335 1006 111 335 1007 92 336 1008 93 336 1009 111 336 1010 93 337 1011 94 337 1012 109 337 1013 94 338 1014 95 338 1015 109 338 1016 95 339 1017 96 339 1018 108 339 1019 97 340 1020 98 340 1021 91 340 1022 98 341 1023 99 341 1024 91 341 1025 65 342 1026 67 342 1027 102 342 1028 64 343 1029 65 343 1030 80 343 1031 65 344 1032 64 344 1033 66 344 1034 68 345 1035 70 345 1036 81 345 1037 70 346 1038 71 346 1039 82 346 1040 71 347 1041 72 347 1042 83 347 1043 72 348 1044 73 348 1045 84 348 1046 73 349 1047 74 349 1048 85 349 1049 74 350 1050 75 350 1051 86 350 1052 75 351 1053 76 351 1054 87 351 1055 76 352 1056 77 352 1057 88 352 1058 77 353 1059 78 353 1060 89 353 1061 78 354 1062 69 354 1063 80 354 1064 79 355 1065 81 355 1066 103 355 1067 81 356 1068 82 356 1069 104 356 1070 82 357 1071 83 357 1072 105 357 1073 83 358 1074 84 358 1075 106 358 1076 84 359 1077 85 359 1078 107 359 1079 85 360 1080 86 360 1081 108 360 1082 86 361 1083 87 361 1084 109 361 1085 87 362 1086 88 362 1087 110 362 1088 88 363 1089 89 363 1090 111 363 1091 89 364 1092 80 364 1093 102 364 1094 68 365 1095 91 365 1096 100 365 1097 70 366 1098 100 366 1099 99 366 1100 71 367 1101 99 367 1102 98 367 1103 72 368 1104 98 368 1105 97 368 1106 73 369 1107 97 369 1108 96 369 1109 74 370 1110 96 370 1111 95 370 1112 75 371 1113 95 371 1114 94 371 1115 76 372 1116 94 372 1117 93 372 1118 77 373 1119 93 373 1120 92 373 1121 78 374 1122 92 374 1123 90 374 1124 101 375 1125 91 375 1126 68 375 1127 167 376 1128 124 376 1129 112 376 1130 189 377 1131 168 377 1132 156 377 1133 168 378 1134 189 378 1135 234 378 1136 168 379 1137 234 379 1138 228 379 1139 176 380 1140 177 380 1141 230 380 1142 177 381 1143 168 381 1144 260 381 1145 174 382 1146 175 382 1147 230 382 1148 175 383 1149 176 383 1150 230 383 1151 172 384 1152 173 384 1153 230 384 1154 173 385 1155 174 385 1156 230 385 1157 170 386 1158 171 386 1159 230 386 1160 171 387 1161 172 387 1162 230 387 1163 170 388 1164 230 388 1165 169 388 1166 167 389 1167 169 389 1168 212 389 1169 212 390 1170 169 390 1171 230 390 1172 133 391 1173 124 391 1174 226 391 1175 124 392 1176 167 392 1177 240 392 1178 131 393 1179 132 393 1180 256 393 1181 132 394 1182 133 394 1183 256 394 1184 256 395 1185 133 395 1186 226 395 1187 129 396 1188 130 396 1189 256 396 1190 130 397 1191 131 397 1192 256 397 1193 127 398 1194 128 398 1195 256 398 1196 128 399 1197 129 399 1198 256 399 1199 125 400 1200 126 400 1201 256 400 1202 126 401 1203 127 401 1204 256 401 1205 125 402 1206 256 402 1207 252 402 1208 146 403 1209 123 403 1210 222 403 1211 123 404 1212 125 404 1213 252 404 1214 250 405 1215 123 405 1216 252 405 1217 254 406 1218 222 406 1219 123 406 1220 250 407 1221 254 407 1222 123 407 1223 124 408 1224 240 408 1225 258 408 1226 177 409 1227 260 409 1228 230 409 1229 168 410 1230 228 410 1231 232 410 1232 168 411 1233 232 411 1234 260 411 1235 124 412 1236 258 412 1237 220 412 1238 124 413 1239 220 413 1240 226 413 1241 240 414 1242 167 414 1243 218 414 1244 212 415 1245 214 415 1246 167 415 1247 123 416 1248 146 416 1249 134 416 1250 145 417 1251 190 417 1252 178 417 1253 124 418 1254 133 418 1255 114 418 1256 133 419 1257 132 419 1258 115 419 1259 132 420 1260 131 420 1261 116 420 1262 131 421 1263 130 421 1264 117 421 1265 130 422 1266 129 422 1267 118 422 1268 129 423 1269 128 423 1270 119 423 1271 128 424 1272 127 424 1273 120 424 1274 127 425 1275 126 425 1276 121 425 1277 126 426 1278 125 426 1279 122 426 1280 125 427 1281 123 427 1282 113 427 1283 135 428 1284 144 428 1285 147 428 1286 144 429 1287 143 429 1288 148 429 1289 143 430 1290 142 430 1291 149 430 1292 142 431 1293 141 431 1294 150 431 1295 141 432 1296 140 432 1297 151 432 1298 140 433 1299 139 433 1300 152 433 1301 139 434 1302 138 434 1303 153 434 1304 138 435 1305 137 435 1306 154 435 1307 137 436 1308 136 436 1309 155 436 1310 136 437 1311 134 437 1312 146 437 1313 179 438 1314 188 438 1315 191 438 1316 188 439 1317 187 439 1318 192 439 1319 187 440 1320 186 440 1321 193 440 1322 186 441 1323 185 441 1324 194 441 1325 185 442 1326 184 442 1327 195 442 1328 184 443 1329 183 443 1330 196 443 1331 183 444 1332 182 444 1333 197 444 1334 182 445 1335 181 445 1336 198 445 1337 181 446 1338 180 446 1339 199 446 1340 180 447 1341 178 447 1342 190 447 1343 157 448 1344 166 448 1345 169 448 1346 166 449 1347 165 449 1348 170 449 1349 165 450 1350 164 450 1351 171 450 1352 164 451 1353 163 451 1354 172 451 1355 163 452 1356 162 452 1357 173 452 1358 162 453 1359 161 453 1360 174 453 1361 161 454 1362 160 454 1363 175 454 1364 160 455 1365 159 455 1366 176 455 1367 159 456 1368 158 456 1369 177 456 1370 158 457 1371 156 457 1372 168 457 1373 113 458 1374 134 458 1375 223 458 1376 113 459 1377 223 459 1378 255 459 1379 121 460 1380 122 460 1381 257 460 1382 122 461 1383 113 461 1384 253 461 1385 119 462 1386 120 462 1387 257 462 1388 120 463 1389 121 463 1390 257 463 1391 117 464 1392 118 464 1393 257 464 1394 118 465 1395 119 465 1396 257 465 1397 115 466 1398 116 466 1399 257 466 1400 116 467 1401 117 467 1402 257 467 1403 115 468 1404 257 468 1405 114 468 1406 112 469 1407 114 469 1408 227 469 1409 227 470 1410 114 470 1411 257 470 1412 166 471 1413 157 471 1414 213 471 1415 157 472 1416 112 472 1417 241 472 1418 164 473 1419 165 473 1420 231 473 1421 165 474 1422 166 474 1423 231 474 1424 231 475 1425 166 475 1426 213 475 1427 162 476 1428 163 476 1429 231 476 1430 163 477 1431 164 477 1432 231 477 1433 160 478 1434 161 478 1435 231 478 1436 161 479 1437 162 479 1438 231 479 1439 158 480 1440 159 480 1441 231 480 1442 159 481 1443 160 481 1444 231 481 1445 158 482 1446 231 482 1447 261 482 1448 179 483 1449 156 483 1450 235 483 1451 156 484 1452 158 484 1453 261 484 1454 233 485 1455 156 485 1456 261 485 1457 229 486 1458 235 486 1459 156 486 1460 233 487 1461 229 487 1462 156 487 1463 157 488 1464 241 488 1465 219 488 1466 122 489 1467 253 489 1468 257 489 1469 113 490 1470 255 490 1471 251 490 1472 113 491 1473 251 491 1474 253 491 1475 157 492 1476 219 492 1477 215 492 1478 157 493 1479 215 493 1480 213 493 1481 241 494 1482 112 494 1483 259 494 1484 227 495 1485 221 495 1486 112 495 1487 228 496 1488 234 496 1489 235 496 1490 230 497 1491 260 497 1492 261 497 1493 260 498 1494 232 498 1495 233 498 1496 209 499 1497 208 499 1498 222 499 1499 244 500 1500 248 500 1501 249 500 1502 234 501 1503 244 501 1504 245 501 1505 217 502 1506 216 502 1507 210 502 1508 242 503 1509 262 503 1510 263 503 1511 258 504 1512 240 504 1513 241 504 1514 202 505 1515 200 505 1516 201 505 1517 240 506 1518 218 506 1519 219 506 1520 263 507 1521 262 507 1522 224 507 1523 210 508 1524 246 508 1525 247 508 1526 227 509 1527 226 509 1528 220 509 1529 246 510 1530 204 510 1531 205 510 1532 213 511 1533 212 511 1534 230 511 1535 238 512 1536 236 512 1537 237 512 1538 200 513 1539 208 513 1540 209 513 1541 215 514 1542 214 514 1543 212 514 1544 257 515 1545 256 515 1546 226 515 1547 250 516 1548 252 516 1549 253 516 1550 206 517 1551 242 517 1552 243 517 1553 249 518 1554 248 518 1555 216 518 1556 222 519 1557 254 519 1558 255 519 1559 188 520 1560 179 520 1561 217 520 1562 179 521 1563 235 521 1564 245 521 1565 179 522 1566 245 522 1567 249 522 1568 186 523 1569 187 523 1570 211 523 1571 187 524 1572 188 524 1573 211 524 1574 184 525 1575 185 525 1576 211 525 1577 185 526 1578 186 526 1579 211 526 1580 182 527 1581 183 527 1582 211 527 1583 183 528 1584 184 528 1585 211 528 1586 180 529 1587 181 529 1588 211 529 1589 181 530 1590 182 530 1591 211 530 1592 180 531 1593 211 531 1594 247 531 1595 135 532 1596 178 532 1597 243 532 1598 178 533 1599 180 533 1600 247 533 1601 207 534 1602 178 534 1603 205 534 1604 143 535 1605 144 535 1606 237 535 1607 144 536 1608 135 536 1609 239 536 1610 141 537 1611 142 537 1612 237 537 1613 142 538 1614 143 538 1615 237 538 1616 139 539 1617 140 539 1618 237 539 1619 140 540 1620 141 540 1621 237 540 1622 137 541 1623 138 541 1624 237 541 1625 138 542 1626 139 542 1627 237 542 1628 137 543 1629 237 543 1630 136 543 1631 134 544 1632 136 544 1633 203 544 1634 203 545 1635 136 545 1636 237 545 1637 209 546 1638 223 546 1639 134 546 1640 201 547 1641 209 547 1642 134 547 1643 144 548 1644 239 548 1645 237 548 1646 178 549 1647 207 549 1648 243 549 1649 179 550 1650 249 550 1651 217 550 1652 201 551 1653 134 551 1654 203 551 1655 135 552 1656 243 552 1657 263 552 1658 188 553 1659 217 553 1660 211 553 1661 247 554 1662 205 554 1663 178 554 1664 225 555 1665 239 555 1666 135 555 1667 232 556 1668 228 556 1669 229 556 1670 220 557 1671 258 557 1672 259 557 1673 225 558 1674 224 558 1675 238 558 1676 204 559 1677 206 559 1678 207 559 1679 218 560 1680 214 560 1681 215 560 1682 255 561 1683 254 561 1684 250 561 1685 236 562 1686 202 562 1687 203 562 1688 253 563 1689 252 563 1690 256 563 1691 155 564 1692 146 564 1693 202 564 1694 146 565 1695 222 565 1696 208 565 1697 146 566 1698 208 566 1699 200 566 1700 153 567 1701 154 567 1702 236 567 1703 154 568 1704 155 568 1705 236 568 1706 151 569 1707 152 569 1708 236 569 1709 152 570 1710 153 570 1711 236 570 1712 149 571 1713 150 571 1714 236 571 1715 150 572 1716 151 572 1717 236 572 1718 147 573 1719 148 573 1720 236 573 1721 148 574 1722 149 574 1723 236 574 1724 147 575 1725 236 575 1726 238 575 1727 190 576 1728 145 576 1729 242 576 1730 145 577 1731 147 577 1732 238 577 1733 262 578 1734 145 578 1735 224 578 1736 198 579 1737 199 579 1738 210 579 1739 199 580 1740 190 580 1741 246 580 1742 196 581 1743 197 581 1744 210 581 1745 197 582 1746 198 582 1747 210 582 1748 194 583 1749 195 583 1750 210 583 1751 195 584 1752 196 584 1753 210 584 1754 192 585 1755 193 585 1756 210 585 1757 193 586 1758 194 586 1759 210 586 1760 192 587 1761 210 587 1762 191 587 1763 189 588 1764 191 588 1765 216 588 1766 216 589 1767 191 589 1768 210 589 1769 244 590 1770 234 590 1771 189 590 1772 248 591 1773 244 591 1774 189 591 1775 199 592 1776 246 592 1777 210 592 1778 145 593 1779 262 593 1780 242 593 1781 146 594 1782 200 594 1783 202 594 1784 248 595 1785 189 595 1786 216 595 1787 190 596 1788 242 596 1789 206 596 1790 155 597 1791 202 597 1792 236 597 1793 238 598 1794 224 598 1795 145 598 1796 204 599 1797 246 599 1798 190 599 1799 319 600 1800 276 600 1801 264 600 1802 341 601 1803 320 601 1804 308 601 1805 320 602 1806 341 602 1807 386 602 1808 320 603 1809 386 603 1810 380 603 1811 328 604 1812 329 604 1813 382 604 1814 329 605 1815 320 605 1816 412 605 1817 326 606 1818 327 606 1819 382 606 1820 327 607 1821 328 607 1822 382 607 1823 324 608 1824 325 608 1825 382 608 1826 325 609 1827 326 609 1828 382 609 1829 322 610 1830 323 610 1831 382 610 1832 323 611 1833 324 611 1834 382 611 1835 322 612 1836 382 612 1837 321 612 1838 319 613 1839 321 613 1840 364 613 1841 364 614 1842 321 614 1843 382 614 1844 285 615 1845 276 615 1846 378 615 1847 276 616 1848 319 616 1849 392 616 1850 283 617 1851 284 617 1852 408 617 1853 284 618 1854 285 618 1855 408 618 1856 408 619 1857 285 619 1858 378 619 1859 281 620 1860 282 620 1861 408 620 1862 282 621 1863 283 621 1864 408 621 1865 279 622 1866 280 622 1867 408 622 1868 280 623 1869 281 623 1870 408 623 1871 277 624 1872 278 624 1873 408 624 1874 278 625 1875 279 625 1876 408 625 1877 277 626 1878 408 626 1879 404 626 1880 298 627 1881 275 627 1882 374 627 1883 275 628 1884 277 628 1885 404 628 1886 402 629 1887 275 629 1888 404 629 1889 406 630 1890 374 630 1891 275 630 1892 402 631 1893 406 631 1894 275 631 1895 276 632 1896 392 632 1897 410 632 1898 329 633 1899 412 633 1900 382 633 1901 320 634 1902 380 634 1903 384 634 1904 320 635 1905 384 635 1906 412 635 1907 276 636 1908 410 636 1909 372 636 1910 276 637 1911 372 637 1912 378 637 1913 392 638 1914 319 638 1915 370 638 1916 364 639 1917 366 639 1918 319 639 1919 275 640 1920 298 640 1921 286 640 1922 297 641 1923 342 641 1924 330 641 1925 276 642 1926 285 642 1927 266 642 1928 285 643 1929 284 643 1930 267 643 1931 284 644 1932 283 644 1933 268 644 1934 283 645 1935 282 645 1936 269 645 1937 282 646 1938 281 646 1939 270 646 1940 281 647 1941 280 647 1942 271 647 1943 280 648 1944 279 648 1945 272 648 1946 279 649 1947 278 649 1948 273 649 1949 278 650 1950 277 650 1951 274 650 1952 277 651 1953 275 651 1954 265 651 1955 287 652 1956 296 652 1957 299 652 1958 296 653 1959 295 653 1960 300 653 1961 295 654 1962 294 654 1963 301 654 1964 294 655 1965 293 655 1966 302 655 1967 293 656 1968 292 656 1969 303 656 1970 292 657 1971 291 657 1972 304 657 1973 291 658 1974 290 658 1975 305 658 1976 290 659 1977 289 659 1978 306 659 1979 289 660 1980 288 660 1981 307 660 1982 288 661 1983 286 661 1984 298 661 1985 331 662 1986 340 662 1987 343 662 1988 340 663 1989 339 663 1990 344 663 1991 339 664 1992 338 664 1993 345 664 1994 338 665 1995 337 665 1996 346 665 1997 337 666 1998 336 666 1999 347 666 2000 336 667 2001 335 667 2002 348 667 2003 335 668 2004 334 668 2005 349 668 2006 334 669 2007 333 669 2008 350 669 2009 333 670 2010 332 670 2011 351 670 2012 332 671 2013 330 671 2014 342 671 2015 309 672 2016 318 672 2017 321 672 2018 318 673 2019 317 673 2020 322 673 2021 317 674 2022 316 674 2023 323 674 2024 316 675 2025 315 675 2026 324 675 2027 315 676 2028 314 676 2029 325 676 2030 314 677 2031 313 677 2032 326 677 2033 313 678 2034 312 678 2035 327 678 2036 312 679 2037 311 679 2038 328 679 2039 311 680 2040 310 680 2041 329 680 2042 310 681 2043 308 681 2044 320 681 2045 265 682 2046 286 682 2047 375 682 2048 265 683 2049 375 683 2050 407 683 2051 273 684 2052 274 684 2053 409 684 2054 274 685 2055 265 685 2056 405 685 2057 271 686 2058 272 686 2059 409 686 2060 272 687 2061 273 687 2062 409 687 2063 269 688 2064 270 688 2065 409 688 2066 270 689 2067 271 689 2068 409 689 2069 267 690 2070 268 690 2071 409 690 2072 268 691 2073 269 691 2074 409 691 2075 267 692 2076 409 692 2077 266 692 2078 264 693 2079 266 693 2080 379 693 2081 379 694 2082 266 694 2083 409 694 2084 318 695 2085 309 695 2086 365 695 2087 309 696 2088 264 696 2089 393 696 2090 316 697 2091 317 697 2092 383 697 2093 317 698 2094 318 698 2095 383 698 2096 383 699 2097 318 699 2098 365 699 2099 314 700 2100 315 700 2101 383 700 2102 315 701 2103 316 701 2104 383 701 2105 312 702 2106 313 702 2107 383 702 2108 313 703 2109 314 703 2110 383 703 2111 310 704 2112 311 704 2113 383 704 2114 311 705 2115 312 705 2116 383 705 2117 310 706 2118 383 706 2119 413 706 2120 331 707 2121 308 707 2122 387 707 2123 308 708 2124 310 708 2125 413 708 2126 385 709 2127 308 709 2128 413 709 2129 381 710 2130 387 710 2131 308 710 2132 385 711 2133 381 711 2134 308 711 2135 309 712 2136 393 712 2137 371 712 2138 274 713 2139 405 713 2140 409 713 2141 265 714 2142 407 714 2143 403 714 2144 265 715 2145 403 715 2146 405 715 2147 309 716 2148 371 716 2149 367 716 2150 309 717 2151 367 717 2152 365 717 2153 393 718 2154 264 718 2155 411 718 2156 379 719 2157 373 719 2158 264 719 2159 381 720 2160 380 720 2161 386 720 2162 382 721 2163 412 721 2164 413 721 2165 412 722 2166 384 722 2167 385 722 2168 360 723 2169 374 723 2170 375 723 2171 396 724 2172 400 724 2173 401 724 2174 386 725 2175 396 725 2176 397 725 2177 369 726 2178 368 726 2179 362 726 2180 395 727 2181 394 727 2182 414 727 2183 410 728 2184 392 728 2185 393 728 2186 354 729 2187 352 729 2188 353 729 2189 392 730 2190 370 730 2191 371 730 2192 415 731 2193 414 731 2194 376 731 2195 362 732 2196 398 732 2197 399 732 2198 379 733 2199 378 733 2200 372 733 2201 398 734 2202 356 734 2203 357 734 2204 365 735 2205 364 735 2206 382 735 2207 390 736 2208 388 736 2209 389 736 2210 352 737 2211 360 737 2212 361 737 2213 367 738 2214 366 738 2215 364 738 2216 409 739 2217 408 739 2218 378 739 2219 402 740 2220 404 740 2221 405 740 2222 358 741 2223 394 741 2224 395 741 2225 400 742 2226 368 742 2227 369 742 2228 374 743 2229 406 743 2230 407 743 2231 340 744 2232 331 744 2233 369 744 2234 331 745 2235 387 745 2236 397 745 2237 331 746 2238 397 746 2239 401 746 2240 338 747 2241 339 747 2242 363 747 2243 339 748 2244 340 748 2245 363 748 2246 336 749 2247 337 749 2248 363 749 2249 337 750 2250 338 750 2251 363 750 2252 334 751 2253 335 751 2254 363 751 2255 335 752 2256 336 752 2257 363 752 2258 332 753 2259 333 753 2260 363 753 2261 333 754 2262 334 754 2263 363 754 2264 332 755 2265 363 755 2266 399 755 2267 287 756 2268 330 756 2269 395 756 2270 330 757 2271 332 757 2272 399 757 2273 359 758 2274 330 758 2275 357 758 2276 295 759 2277 296 759 2278 389 759 2279 296 760 2280 287 760 2281 391 760 2282 293 761 2283 294 761 2284 389 761 2285 294 762 2286 295 762 2287 389 762 2288 291 763 2289 292 763 2290 389 763 2291 292 764 2292 293 764 2293 389 764 2294 289 765 2295 290 765 2296 389 765 2297 290 766 2298 291 766 2299 389 766 2300 289 767 2301 389 767 2302 288 767 2303 286 768 2304 288 768 2305 355 768 2306 355 769 2307 288 769 2308 389 769 2309 361 770 2310 375 770 2311 286 770 2312 353 771 2313 361 771 2314 286 771 2315 296 772 2316 391 772 2317 389 772 2318 330 773 2319 359 773 2320 395 773 2321 331 774 2322 401 774 2323 369 774 2324 353 775 2325 286 775 2326 355 775 2327 287 776 2328 395 776 2329 415 776 2330 340 777 2331 369 777 2332 363 777 2333 399 778 2334 357 778 2335 330 778 2336 377 779 2337 391 779 2338 287 779 2339 384 780 2340 380 780 2341 381 780 2342 372 781 2343 410 781 2344 411 781 2345 377 782 2346 376 782 2347 390 782 2348 356 783 2349 358 783 2350 359 783 2351 370 784 2352 366 784 2353 367 784 2354 406 785 2355 402 785 2356 403 785 2357 388 786 2358 354 786 2359 355 786 2360 405 787 2361 404 787 2362 408 787 2363 307 788 2364 298 788 2365 354 788 2366 298 789 2367 374 789 2368 360 789 2369 298 790 2370 360 790 2371 352 790 2372 305 791 2373 306 791 2374 388 791 2375 306 792 2376 307 792 2377 388 792 2378 303 793 2379 304 793 2380 388 793 2381 304 794 2382 305 794 2383 388 794 2384 301 795 2385 302 795 2386 388 795 2387 302 796 2388 303 796 2389 388 796 2390 299 797 2391 300 797 2392 388 797 2393 300 798 2394 301 798 2395 388 798 2396 299 799 2397 388 799 2398 390 799 2399 342 800 2400 297 800 2401 394 800 2402 297 801 2403 299 801 2404 390 801 2405 414 802 2406 297 802 2407 376 802 2408 350 803 2409 351 803 2410 362 803 2411 351 804 2412 342 804 2413 398 804 2414 348 805 2415 349 805 2416 362 805 2417 349 806 2418 350 806 2419 362 806 2420 346 807 2421 347 807 2422 362 807 2423 347 808 2424 348 808 2425 362 808 2426 344 809 2427 345 809 2428 362 809 2429 345 810 2430 346 810 2431 362 810 2432 344 811 2433 362 811 2434 343 811 2435 341 812 2436 343 812 2437 368 812 2438 368 813 2439 343 813 2440 362 813 2441 396 814 2442 386 814 2443 341 814 2444 400 815 2445 396 815 2446 341 815 2447 351 816 2448 398 816 2449 362 816 2450 297 817 2451 414 817 2452 394 817 2453 298 818 2454 352 818 2455 354 818 2456 400 819 2457 341 819 2458 368 819 2459 342 820 2460 394 820 2461 358 820 2462 307 821 2463 354 821 2464 388 821 2465 390 822 2466 376 822 2467 297 822 2468 356 823 2469 398 823 2470 342 823 2471</p>
        </triangles>
      </mesh>
    </geometry>
  </library_geometries>
  <library_visual_scenes>
    <visual_scene id="Scene" name="Scene">
      <node id="Cylinder_008" name="Cylinder.008" type="NODE">
        <matrix sid="transform">0.0025 0 0 0 0 0.0025 1.13467e-7 0 0 -5.67337e-8 0.004999999 0 0 0 0 1</matrix>
        <instance_geometry url="#Cylinder_008-mesh" name="Cylinder.008">
          <bind_material>
            <technique_common>
              <instance_material symbol="Material-material" target="#Material-material">
                <bind_vertex_input semantic="UVMap" input_semantic="TEXCOORD" input_set="0"/>
              </instance_material>
            </technique_common>
          </bind_material>
        </instance_geometry>
      </node>
    </visual_scene>
  </library_visual_scenes>
  <scene>
    <instance_visual_scene url="#Scene"/>
  </scene>
</COLLADA>