<?xml version="1.0" encoding="utf-8"?>
<COLLADA xmlns="http://www.collada.org/2005/11/COLLADASchema" version="1.4.1" xmlns:xsi="http://www.w3.org/2001/XMLSchema-instance">
  <asset>
    <contributor>
      <author>Blender User</author>
      <authoring_tool>Blender 2.83.20 commit date:2022-04-19, commit time:16:00, hash:a56e2faeb7a9</authoring_tool>
    </contributor>
    <created>2026-06-29T15:22:17</created>
    <modified>2026-06-29T15:22:17</modified>
    <unit name="meter" meter="1"/>
    <up_axis>Z_UP</up_axis>
  </asset>
  <library_effects>
    <effect id="Material-effect">
      <profile_COMMON>
        <technique sid="common">
          <lambert>
            <emission>
              <color sid="emission">0 0 0 1</color>
            </emission>
            <diffuse>
              <color sid="diffuse">1 1 1 1</color>
            </diffuse>
            <index_of_refraction>
              <float sid="ior">1.45</float>
            </index_of_refraction>
          </lambert>
        </technique>
      </profile_COMMON>
    </effect>
  </library_effects>
  <library_images/>
  <library_materials>
    <material id="Material-material" name="Material">
      <instance_effect url="#Material-effect"/>
    </material>
  </library_materials>
  <library_geometries>
    <geometry id="Cylinder_008-mesh" name="Cylinder.008">
      <mesh>
        <source id="Cylinder_008-mesh-positions">
          <float_array id="Cylinder_008-mesh-positions-array" count="1248">0 1 -1 0 1 1 0.1950903 0.9807853 -1 0.1950903 0.9807853 1 0.3826835 0.9238795 -1 0.3826835 0.9238795 1 0.5555703 0.8314696 -1 0.5555703 0.8314696 1 0.7071068 0.7071068 -1 0.7071068 0.7071068 1 0.8314697 0.5555702 -1 0.8314697 0.5555702 1 0.9238795 0.3826834 -1 0.9238795 0.3826834 1 0.9807853 0.1950903 -1 0.9807853 0.1950903 1 1 0 -1 1 0 1 0.9807853 -0.1950902 -1 0.9807853 -0.1950902 1 0.9238796 -0.3826833 -1 0.9238796 -0.3826833 1 0.8314697 -0.5555702 -1 0.8314697 -0.5555702 1 0.7071068 -0.7071068 -1 0.7071068 -0.7071068 1 0.5555702 -0.8314697 -1 0.5555702 -0.8314697 1 0.3826833 -0.9238796 -1 0.3826833 -0.9238796 1 0.1950901 -0.9807853 -1 0.1950901 -0.9807853 1 -3.25841e-7 -1 -1 -3.25841e-7 -1 1 -0.1950907 -0.9807852 -1 -0.1950907 -0.9807852 1 -0.3826839 -0.9238793 -1 -0.3826839 -0.9238793 1 -0.5555707 -0.8314693 -1 -0.5555707 -0.8314693 1 -0.7071073 -0.7071064 -1 -0.7071073 -0.7071064 1 -0.83147 -0.5555697 -1 -0.83147 -0.5555697 1 -0.9238799 -0.3826827 -1 -0.9238799 -0.3826827 1 -0.9807854 -0.1950894 -1 -0.9807854 -0.1950894 1 -1 9.65599e-7 -1 -1 9.65599e-7 1 -0.9807851 0.1950913 -1 -0.9807851 0.1950913 1 -0.9238791 0.3826845 -1 -0.9238791 0.3826845 1 -0.8314689 0.5555713 -1 -0.8314689 0.5555713 1 -0.7071059 0.7071077 -1 -0.7071059 0.7071077 1 -0.5555691 0.8314704 -1 -0.5555691 0.8314704 1 -0.3826821 0.9238801 -1 -0.3826821 0.9238801 1 -0.1950888 0.9807856 -1 -0.1950888 0.9807856 1 -2 -1.199999 1 -2 -1.199999 -1 2 -1.199999 1 2 -1.199999 -1 -1.6 -21.2 0.8000018 -2 -19.2 1.000002 -1.662574 -21.17538 0.8312886 -1.723607 -21.10211 0.8618051 -1.781596 -20.98201 0.8907997 -1.835114 -20.81803 0.9175587 -1.882843 -20.61421 0.9414229 -1.923607 -20.37557 0.961805 -1.956403 -20.10798 0.9782029 -1.980422 -19.81803 0.9902129 -1.995075 -19.51287 0.9975392 -1.6 -21.2 -0.7999983 -2 -19.2 -0.9999985 -1.662574 -21.17538 -0.8312851 -1.723607 -21.10211 -0.8618016 -1.781596 -20.98201 -0.8907964 -1.835114 -20.81803 -0.9175553 -1.882843 -20.61421 -0.9414196 -1.923607 -20.37557 -0.9618017 -1.956403 -20.10798 -0.9781997 -1.980422 -19.81803 -0.9902096 -1.995075 -19.51287 -0.9975361 2 -19.2 1.000002 2 -21.2 0.8000018 2 -19.51287 0.9975392 2 -19.81803 0.9902129 2 -20.10798 0.9782029 2 -20.37557 0.961805 2 -20.61421 0.9414229 2 -20.81803 0.9175587 2 -20.98201 0.8907997 2 -21.10211 0.8618051 2 -21.17538 0.8312886 2 -21.2 -0.7999983 2 -19.2 -0.9999985 2 -21.17538 -0.8312851 2 -21.10211 -0.8618016 2 -20.98201 -0.8907964 2 -20.81803 -0.9175553 2 -20.61421 -0.9414196 2 -20.37557 -0.9618017 2 -20.10798 -0.9781997 2 -19.81803 -0.9902096 2 -19.51287 -0.9975361 -1 -1.999998 0.3 -2 -0.9999979 0.3 -1.156434 -1.987686 0.3 -1.309017 -1.951054 0.3 -1.45399 -1.891004 0.3 -1.587785 -1.809015 0.3 -1.707107 -1.707105 0.3 -1.809017 -1.587783 0.3 -1.891006 -1.453988 0.3 -1.951056 -1.309015 0.3 -1.987688 -1.156432 0.3 -2 -0.9999979 0.9 -1 -1.999998 0.9 -1.987688 -1.156432 0.9 -1.951056 -1.309015 0.9 -1.891006 -1.453988 0.9 -1.809017 -1.587783 0.9 -1.707107 -1.707105 0.9 -1.587785 -1.809015 0.9 -1.45399 -1.891004 0.9 -1.309017 -1.951054 0.9 -1.156434 -1.987686 0.9 -2 1.000002 0.3 -1 2.000002 0.3 -1.987688 1.156437 0.3 -1.951056 1.309019 0.3 -1.891006 1.453993 0.3 -1.809017 1.587787 0.3 -1.707107 1.707109 0.3 -1.587785 1.809019 0.3 -1.45399 1.891009 0.3 -1.309017 1.951059 0.3 -1.156434 1.98769 0.3 -1 2.000002 0.9 -2 1.000002 0.9 -1.156434 1.98769 0.9 -1.309017 1.951059 0.9 -1.45399 1.891009 0.9 -1.587785 1.809019 0.9 -1.707107 1.707109 0.9 -1.809017 1.587787 0.9 -1.891006 1.453993 0.9 -1.951056 1.309019 0.9 -1.987688 1.156437 0.9 2 -0.9999979 0.3 1 -1.999998 0.3 1.987688 -1.156432 0.3 1.951056 -1.309015 0.3 1.891006 -1.453988 0.3 1.809017 -1.587783 0.3 1.707107 -1.707105 0.3 1.587785 -1.809015 0.3 1.45399 -1.891004 0.3 1.309017 -1.951054 0.3 1.156434 -1.987686 0.3 1 -1.999998 0.9 2 -0.9999979 0.9 1.156434 -1.987686 0.9 1.309017 -1.951054 0.9 1.45399 -1.891004 0.9 1.587785 -1.809015 0.9 1.707107 -1.707105 0.9 1.809017 -1.587783 0.9 1.891006 -1.453988 0.9 1.951056 -1.309015 0.9 1.987688 -1.156432 0.9 1 2.000002 0.3 2 1.000002 0.3 1.156434 1.98769 0.3 1.309017 1.951059 0.3 1.45399 1.891009 0.3 1.587785 1.809019 0.3 1.707107 1.707109 0.3 1.809017 1.587787 0.3 1.891006 1.453993 0.3 1.951056 1.309019 0.3 1.987688 1.156437 0.3 2 1.000002 0.9 1 2.000002 0.9 1.987688 1.156437 0.9 1.951056 1.309019 0.9 1.891006 1.453993 0.9 1.809017 1.587787 0.9 1.707107 1.707109 0.9 1.587785 1.809019 0.9 1.45399 1.891009 0.9 1.309017 1.951059 0.9 1.156434 1.98769 0.9 -0.9238791 0.3826866 0.9 -0.9238791 0.3826866 0.3 -0.8314689 0.5555734 0.9 -0.8314689 0.5555734 0.3 0.3826835 0.9238816 0.9 0.3826835 0.9238817 0.3 0.1950903 0.9807873 0.9 0.1950903 0.9807873 0.3 -0.9807851 0.1950934 0.9 -0.9807851 0.1950935 0.3 0.7071068 0.7071089 0.9 0.7071068 0.7071089 0.3 0.5555702 -0.8314676 0.9 0.5555703 -0.8314676 0.3 0.3826833 -0.9238775 0.9 0.3826833 -0.9238775 0.3 0.8314697 0.5555723 0.9 0.8314697 0.5555723 0.3 0.1950901 -0.9807832 0.9 0.1950901 -0.9807832 0.3 -0.3826839 -0.9238772 0.9 -0.3826839 -0.9238773 0.3 -1 3.06845e-6 0.9 -1 3.06845e-6 0.3 -0.3826821 0.9238822 0.9 -0.3826821 0.9238822 0.3 -0.5555707 -0.8314672 0.9 -0.5555707 -0.8314673 0.3 0.9807853 -0.1950881 0.9 0.9807853 -0.1950881 0.3 0.7071068 -0.7071047 0.9 0.7071068 -0.7071048 0.3 0.9238796 -0.3826811 0.9 0.9238796 -0.3826812 0.3 1 2.17835e-6 0.9 1 2.17835e-6 0.3 -0.7071059 0.7071098 0.9 -0.7071059 0.7071098 0.3 -0.5555691 0.8314725 0.9 -0.5555691 0.8314725 0.3 -3.25841e-7 -0.9999979 0.9 -3.25841e-7 -0.9999979 0.3 0 1.000002 0.9 0 1.000002 0.3 0.9807853 0.1950924 0.9 0.9807853 0.1950924 0.3 0.5555703 0.8314717 0.9 0.5555703 0.8314717 0.3 0.9238795 0.3826856 0.9 0.9238796 0.3826856 0.3 -0.9238799 -0.3826805 0.9 -0.9238799 -0.3826806 0.3 -0.83147 -0.5555676 0.9 -0.83147 -0.5555676 0.3 -0.9807854 -0.1950873 0.9 -0.9807854 -0.1950873 0.3 -0.7071073 -0.7071043 0.9 -0.7071073 -0.7071043 0.3 -0.1950907 -0.9807831 0.9 -0.1950907 -0.9807831 0.3 0.8314697 -0.5555681 0.9 0.8314697 -0.5555682 0.3 -0.1950888 0.9807877 0.9 -0.1950888 0.9807876 0.3 -1 -1.999998 -0.9 -2 -0.9999983 -0.9 -1.156434 -1.987687 -0.9 -1.309017 -1.951055 -0.9 -1.45399 -1.891005 -0.9 -1.587785 -1.809015 -0.9 -1.707107 -1.707105 -0.9 -1.809017 -1.587784 -0.9 -1.891006 -1.453989 -0.9 -1.951056 -1.309015 -0.9 -1.987688 -1.156433 -0.9 -2 -0.9999983 -0.3 -1 -1.999998 -0.3 -1.987688 -1.156433 -0.3 -1.951056 -1.309015 -0.3 -1.891006 -1.453989 -0.3 -1.809017 -1.587784 -0.3 -1.707107 -1.707105 -0.3 -1.587785 -1.809015 -0.3 -1.45399 -1.891005 -0.3 -1.309017 -1.951055 -0.3 -1.156434 -1.987687 -0.3 -2 1.000002 -0.9 -1 2.000002 -0.9 -1.987688 1.156436 -0.9 -1.951056 1.309019 -0.9 -1.891006 1.453992 -0.9 -1.809017 1.587787 -0.9 -1.707107 1.707108 -0.9 -1.587785 1.809019 -0.9 -1.45399 1.891008 -0.9 -1.309017 1.951058 -0.9 -1.156434 1.98769 -0.9 -1 2.000002 -0.3 -2 1.000002 -0.3 -1.156434 1.98769 -0.3 -1.309017 1.951058 -0.3 -1.45399 1.891008 -0.3 -1.587785 1.809019 -0.3 -1.707107 1.707108 -0.3 -1.809017 1.587787 -0.3 -1.891006 1.453992 -0.3 -1.951056 1.309019 -0.3 -1.987688 1.156436 -0.3 2 -0.9999983 -0.9 1 -1.999998 -0.9 1.987688 -1.156433 -0.9 1.951056 -1.309015 -0.9 1.891006 -1.453989 -0.9 1.809017 -1.587784 -0.9 1.707107 -1.707105 -0.9 1.587785 -1.809015 -0.9 1.45399 -1.891005 -0.9 1.309017 -1.951055 -0.9 1.156434 -1.987687 -0.9 1 -1.999998 -0.3 2 -0.9999983 -0.3 1.156434 -1.987687 -0.3 1.309017 -1.951055 -0.3 1.45399 -1.891005 -0.3 1.587785 -1.809015 -0.3 1.707107 -1.707105 -0.3 1.809017 -1.587784 -0.3 1.891006 -1.453989 -0.3 1.951056 -1.309015 -0.3 1.987688 -1.156433 -0.3 1 2.000002 -0.9 2 1.000002 -0.9 1.156434 1.98769 -0.9 1.309017 1.951058 -0.9 1.45399 1.891008 -0.9 1.587785 1.809019 -0.9 1.707107 1.707108 -0.9 1.809017 1.587787 -0.9 1.891006 1.453992 -0.9 1.951056 1.309019 -0.9 1.987688 1.156436 -0.9 2 1.000002 -0.3 1 2.000002 -0.3 1.987688 1.156436 -0.3 1.951056 1.309019 -0.3 1.891006 1.453992 -0.3 1.809017 1.587787 -0.3 1.707107 1.707108 -0.3 1.587785 1.809019 -0.3 1.45399 1.891008 -0.3 1.309017 1.951058 -0.3 1.156434 1.98769 -0.3 -0.9238791 0.3826861 -0.3 -0.9238791 0.3826861 -0.9 -0.8314689 0.555573 -0.3 -0.8314689 0.555573 -0.9 0.3826835 0.9238812 -0.3 0.3826835 0.9238813 -0.9 0.1950903 0.980787 -0.3 0.1950903 0.980787 -0.9 -0.9807851 0.195093 -0.3 -0.9807851 0.195093 -0.9 0.7071068 0.7071085 -0.3 0.7071068 0.7071086 -0.9 0.5555702 -0.8314679 -0.3 0.5555703 -0.8314679 -0.9 0.3826833 -0.9238779 -0.3 0.3826833 -0.9238779 -0.9 0.8314697 0.5555719 -0.3 0.8314697 0.555572 -0.9 0.1950901 -0.9807836 -0.3 0.1950901 -0.9807836 -0.9 -0.3826839 -0.9238776 -0.3 -0.3826839 -0.9238777 -0.9 -1 2.67744e-6 -0.3000001 -1 2.67744e-6 -0.9 -0.3826821 0.9238818 -0.3 -0.3826821 0.9238818 -0.9 -0.5555707 -0.8314676 -0.3 -0.5555707 -0.8314676 -0.9 0.9807853 -0.1950885 -0.3 0.9807853 -0.1950885 -0.9 0.7071068 -0.7071051 -0.3 0.7071068 -0.7071051 -0.9 0.9238796 -0.3826816 -0.3 0.9238796 -0.3826816 -0.9 1 1.78734e-6 -0.3 1 1.78734e-6 -0.9000001 -0.7071059 0.7071094 -0.3 -0.7071059 0.7071094 -0.9 -0.5555691 0.8314721 -0.3 -0.5555691 0.8314721 -0.9 -3.25841e-7 -0.9999983 -0.3 -3.25841e-7 -0.9999983 -0.9 0 1.000002 -0.3 0 1.000002 -0.9 0.9807853 0.195092 -0.3 0.9807853 0.195092 -0.9 0.5555703 0.8314713 -0.3 0.5555703 0.8314713 -0.9 0.9238795 0.3826851 -0.3 0.9238796 0.3826851 -0.9 -0.9238799 -0.382681 -0.3 -0.9238799 -0.382681 -0.9 -0.83147 -0.5555679 -0.3 -0.83147 -0.5555679 -0.9 -0.9807854 -0.1950877 -0.3 -0.9807854 -0.1950877 -0.9 -0.7071073 -0.7071046 -0.3 -0.7071073 -0.7071046 -0.9 -0.1950907 -0.9807835 -0.3 -0.1950907 -0.9807835 -0.9 0.8314697 -0.5555685 -0.3 0.8314697 -0.5555685 -0.9 -0.1950888 0.9807873 -0.3 -0.1950888 0.9807873 -0.9</float_array>
          <technique_common>
            <accessor source="#Cylinder_008-mesh-positions-array" count="416" stride="3">
              <param name="X" type="float"/>
              <param name="Y" type="float"/>
              <param name="Z" type="float"/>
            </accessor>
          </technique_common>
        </source>
        <source id="Cylinder_008-mesh-normals">
          <float_array id="Cylinder_008-mesh-normals-array" count="1494">0.09801727 0.9951847 0 0.2902846 0.9569405 0 0.4713967 0.8819213 0 0.6343935 0.7730103 0 0.7730106 0.6343932 0 0.8819215 0.4713966 0 0.9569404 0.2902848 0 0.9951847 0.09801727 0 0.9951848 -0.09801667 0 0.9569404 -0.2902848 0 0.8819214 -0.4713968 0 0.7730103 -0.6343936 0 0.6343934 -0.7730104 0 0.4713968 -0.8819214 0 0.2902842 -0.9569405 0 0.09801691 -0.9951848 0 -0.09801757 -0.9951848 0 -0.2902852 -0.9569402 0 -0.4713971 -0.8819211 0 -0.6343939 -0.77301 0 -0.7730109 -0.6343929 0 -0.8819217 -0.4713961 0 -0.9569407 -0.2902834 0 -0.9951849 -0.09801602 0 -0.9951847 0.09801787 0 -0.95694 0.2902858 0 -0.8819208 0.4713979 0 -0.7730096 0.6343944 0 -0.6343926 0.7730111 0 -0.4713955 0.881922 0 0 0 1 -0.290283 0.9569408 0 -0.0980165 0.9951848 0 0 0 -1 0 0 1 1 0 0 0 0 -1 -1 0 0 0 1 0 -0.3661858 -0.9305418 0 -0.7683224 -0.6400631 0 -0.9005228 -0.4348087 0 -0.9506508 -0.3102632 0 -0.9736604 -0.2280035 0 -0.9857226 -0.1683778 0 -0.9925732 -0.1216493 0 -0.9965862 -0.08255988 0 -0.9988493 -0.04796022 0 -0.9998762 -0.01573824 0 0 -0.7858393 -0.6184307 0 -0.3845173 -0.9231178 0 -0.2346721 -0.9720747 0 -0.1610512 -0.9869461 0 -0.11629 -0.9932154 0 -0.08509761 -0.9963727 0 -0.06116509 -0.9981277 0 -0.04138547 -0.9991433 0 -0.024001 -0.9997119 0 -0.007870137 -0.9999691 0 -0.7858378 0.6184328 0 -0.3844996 0.9231252 0 -0.2346894 0.9720705 0 -0.1610556 0.9869453 0 -0.1162934 0.993215 0 -0.08509838 0.9963726 0 -0.06116563 0.9981277 0 -0.04138624 0.9991433 0 -0.02400064 0.9997121 0 -0.007870078 0.9999691 0 -1 0 -5.02989e-7 0 1 -0.07845926 -0.9969174 0 -0.2334454 -0.97237 0 -0.3826838 -0.9238794 0 -0.5224986 -0.8526402 0 -0.6494476 -0.7604063 0 -0.7604054 -0.6494486 0 -0.8526407 -0.5224977 0 -0.9238803 -0.3826818 0 -0.97237 -0.2334454 0 -0.9969173 -0.07846087 0 -0.07845926 0.9969174 0 -0.2334454 0.97237 0 -0.3826838 0.9238795 0 -0.5224987 0.8526402 0 -0.6494477 0.7604063 0 -0.7604054 0.6494488 0 -0.8526407 0.5224978 0 -0.9238803 0.3826817 0 -0.97237 0.2334454 0 -0.9969173 0.07846087 0 0.9969174 0.0784583 0 0.97237 0.2334454 0 0.9238795 0.3826839 0 0.8526396 0.5224996 0 0.7604066 0.6494473 0 0.6494477 0.7604063 0 0.5224987 0.8526402 0 0.3826833 0.9238796 0 0.2334451 0.97237 0 0.07845944 0.9969174 0 0.07845926 -0.9969174 0 0.2334454 -0.97237 0 0.3826838 -0.9238795 0 0.5224987 -0.8526402 0 0.6494477 -0.7604063 0 0.7604054 -0.6494488 0 0.8526407 -0.5224978 0 0.9238803 -0.3826817 0 0.97237 -0.2334454 0 0.9969173 -0.07846087 0 -0.9951848 0.09801679 0 -0.7730109 0.6343929 -1.26688e-7 -0.8819212 0.4713969 0 0.9951847 -0.09801721 0 -0.9569404 -0.2902847 0 -0.9951848 -0.09801679 0 -0.7730109 -0.6343929 0 0.09801679 -0.9951848 0 0.09801751 0.9951847 0 0.8819208 -0.4713977 0 -0.09801691 0.9951848 0 0.290283 -0.9569408 0 -0.6343931 -0.7730107 -2.53377e-7 0.4713972 0.8819211 -2.53377e-7 -0.4713968 -0.8819212 0 -0.634393 0.7730108 0 0.6343922 -0.7730115 0 0.9569401 -0.2902856 0 -0.4713967 0.8819214 -1.70809e-7 0.6343939 0.77301 -2.53377e-7 0.8819217 0.471396 0 -0.09801757 -0.9951847 0 -0.8819214 -0.4713965 0 0.9951848 0.09801566 0 2.51495e-7 0 -1 -0.9569404 0.2902847 0 0.2902848 0.9569404 -2.53377e-7 0.4713957 -0.8819219 0 -0.2902843 -0.9569405 -2.53377e-7 -0.2902842 0.9569405 0 0.956941 0.2902826 0 0.7730095 -0.6343945 0 0.7730111 0.6343925 0 0 0 1 -0.07845926 -0.9969174 0 -0.3826838 -0.9238795 0 -0.5224987 -0.8526402 0 -0.6494477 -0.7604063 0 -0.7604054 -0.6494488 0 -0.8526407 -0.5224978 0 -0.9238803 -0.3826817 0 -0.9969173 -0.07846081 0 -0.07845926 0.9969174 0 -0.3826838 0.9238794 0 -0.5224986 0.8526402 0 -0.6494476 0.7604063 0 -0.7604054 0.6494486 0 -0.8526407 0.5224977 0 -0.9238803 0.3826818 0 0.9238794 0.3826839 0 0.8526396 0.5224996 0 0.7604067 0.6494472 0 0.6494476 0.7604063 0 0.5224986 0.8526402 0 0.3826834 0.9238796 0 0.07845944 0.9969174 0 0.07845926 -0.9969174 0 0.3826838 -0.9238794 0 0.5224986 -0.8526402 0 0.6494476 -0.7604063 0 0.7604054 -0.6494486 0 0.8526407 -0.5224977 0 0.9238803 -0.3826818 0 0.9969173 -0.07846081 0 -5.02989e-7 0 -1 -0.9951848 0.09801626 0 -0.773011 0.6343927 -1.26688e-7 -0.8819211 0.4713971 0 0.9951847 -0.09801822 0 -0.9569404 -0.2902848 0 -0.9951847 -0.09801727 0 -0.773011 -0.6343927 0 0.0980162 -0.9951849 0 0.09801751 0.9951847 0 0.8819209 -0.4713975 0 -0.09801697 0.9951848 0 0.2902831 -0.9569408 0 -0.6343931 -0.7730106 -2.53377e-7 0.4713972 0.8819211 -2.53377e-7 -0.634393 0.7730108 0 0.6343922 -0.7730113 0 -0.4713967 0.8819214 0 0.6343938 0.7730101 -1.26688e-7 0.8819215 0.4713962 0 -0.09801697 -0.9951848 0 -0.8819215 -0.4713964 -1.26688e-7 0.9951848 0.0980162 0 -0.9569404 0.2902846 -1.26688e-7 0.4713957 -0.8819219 0 -0.2902845 -0.9569405 -2.53377e-7 -0.2902842 0.9569405 0 0.9569405 0.2902845 0 0.7730111 0.6343925 0 0.2902847 0.9569404 0 0.6343932 0.7730106 0 0.7730103 0.6343936 0 0.9951847 -0.09801727 0 0.8819216 -0.4713962 0 0.7730106 -0.6343932 0 0.2902843 -0.9569405 0 -0.2902852 -0.9569402 0 -0.6343936 -0.7730103 0 -0.7730111 -0.6343926 0 -0.9569405 -0.2902839 0 -0.9951848 -0.09801661 0 -0.9951846 0.09801846 0 -0.881921 0.4713975 0 -0.6343923 0.7730113 0 -3.97511e-6 0 1 3.97512e-6 0 1 1.43703e-6 0 1 -7.77715e-7 0 1 -2.87796e-7 0 1 -0.2902831 0.9569409 0 -3.97511e-6 0 -1 3.97512e-6 0 -1 3.88857e-7 0 -1 0 0 -1 -1 0 0 -0.3661847 -0.9305422 0 -0.7683224 -0.6400631 0 -0.9005224 -0.4348096 0 -0.9506514 -0.3102612 0 -0.9736608 -0.2280015 0 -0.9857228 -0.1683767 0 -0.992573 -0.1216507 0 -0.9965862 -0.08255976 0 -0.9988492 -0.04796087 0 -0.9998762 -0.01573878 0 0 -0.7858378 -0.6184328 0 -0.3844996 -0.9231252 0 -0.2346903 -0.9720703 0 -0.1610556 -0.9869453 0 -0.1162934 -0.993215 0 -0.08509838 -0.9963726 0 -0.0611661 -0.9981277 0 -0.04138624 -0.9991433 0 -0.02400106 -0.9997119 0 -0.007870078 -0.9999691 0 -0.7858393 0.6184307 0 -0.3845173 0.9231178 0 -0.2346712 0.9720748 0 -0.1610512 0.9869461 0 -0.11629 0.9932154 0 -0.08509761 0.9963727 0 -0.06116461 0.9981277 0 -0.04138547 0.9991433 0 -0.02400064 0.9997121 0 -0.007870137 0.9999691 0 0 1 -1.39065e-7 0 1 2.81348e-7 0 1 -5.42758e-7 0 1 1.10132e-6 0 1 -9.53924e-7 0 1 1.1924e-7 0 1 -1.11252e-6 2.83474e-7 1 0 0 1 -2.38481e-7 0 1 -2.51495e-7 0 1 2.45192e-7 0 1 0 0 1 6.12981e-7 0 1 9.8077e-7 0 1 -0.07845944 -0.9969174 0 -0.2334451 -0.97237 0 -0.3826833 -0.9238796 0 -0.7604066 -0.6494473 0 -0.8526396 -0.5224996 0 -0.9238795 -0.3826839 0 -0.9969175 -0.07845836 0 -0.07845944 0.9969174 0 -0.2334451 0.97237 0 -0.3826834 0.9238796 0 -0.7604067 0.6494472 0 -0.8526396 0.5224996 0 -0.9238794 0.3826839 0 -0.9969174 0.0784583 0 0.9969173 0.07846087 0 0.9238803 0.3826818 0 0.8526407 0.5224977 0 0.7604054 0.6494486 0 0.3826838 0.9238794 0 0.2334454 0.97237 0 0.07845926 0.9969174 0 0.07845944 -0.9969174 0 0.2334451 -0.97237 0 0.3826834 -0.9238796 0 0.7604067 -0.6494472 0 0.8526396 -0.5224996 0 0.9238794 -0.3826839 0 0.9969175 -0.07845836 0 0 0 -1 0 1.41737e-7 -1 -2.71379e-7 0 -1 2.81348e-7 0 -1 -3.16591e-7 0 -1 -2.38481e-7 0 -1 -2.7533e-7 0 -1 4.76962e-7 0 -1 -2.69422e-7 0 -1 2.71379e-7 0 -1 2.69422e-7 0 -1 -1.37665e-7 0 -1 0 0 -1 1.22596e-7 0 -1 0 -1.41737e-7 -1 1.6514e-7 0 -1 0 0 -1 0 0 -1 1.41466e-7 0 -1 -3.06491e-7 0 -1 2.45193e-7 0 -1 -0.9951849 0.09801632 0 -0.7730103 0.6343937 -1.26688e-7 -0.8819217 0.4713962 0 0.9951846 -0.09801828 0 -0.9569404 -0.2902846 0 -0.9951848 -0.09801727 0 -0.7730103 -0.6343937 -1.26688e-7 0.0980165 -0.9951848 2.53379e-7 0.8819206 -0.4713981 0 0.2902833 -0.9569408 0 -0.6343933 -0.7730106 0 0.4713971 0.8819212 -2.53377e-7 -0.4713969 -0.8819213 -2.53377e-7 -0.6343936 0.7730102 -1.26688e-7 0.6343927 -0.773011 0 0.9569401 -0.2902856 0 -0.4713965 0.8819214 0 0.6343933 0.7730104 1.26688e-7 0.8819214 0.4713965 0 -0.09801757 -0.9951848 0 -0.8819214 -0.4713966 -1.26688e-7 0.9951848 0.09801626 0 -2.08597e-7 1.41737e-7 -1 0 0 -1 1.37665e-7 0 -1 2.71379e-7 0 -1 -1.49051e-7 0 -1 0 0 -1 3.16591e-7 0 -1 2.81348e-7 0 -1 0 -1.41737e-7 -1 -1.25747e-7 0 -1 -2.38481e-7 0 -1 0 0 -1 0 0 -1 0 0 -1 -2.45192e-7 0 -1 -0.9569404 0.2902847 0 0.2902852 0.9569403 0 0.4713954 -0.8819221 -2.53377e-7 -0.2902846 -0.9569404 0 -0.2902843 0.9569405 0 0.9569405 0.2902845 0 0.7730097 -0.6343942 0 0.7730111 0.6343925 0 3.16591e-7 0 1 0 -2.83474e-7 1 2.51494e-7 0 1 5.38844e-7 0 1 -5.38844e-7 0 1 0 0 1 -1.26637e-6 0 1 -5.50661e-7 0 1 2.81347e-7 0 1 2.38481e-7 0 1 5.5626e-7 0 1 0 0 1 -2.78132e-7 0 1 -1.22596e-7 0 1 -2.45193e-7 0 1 -6.08409e-7 0 1 -1.1924e-7 0 1 1.47115e-6 0 1 0 0 1 -1.73831e-7 0 1 2.69422e-7 0 1 3.16591e-7 0 1 -2.38481e-7 0 1 -2.71379e-7 0 1 -2.69422e-7 0 1 1.37665e-7 0 1 0 0 1 -2.7813e-7 2.83474e-7 1 1.25747e-7 0 1 0 0 1 0 0 1 0 0 1 1.53245e-7 0 1 0 0 1 0 0 1 2.7813e-7 0 1 2.45192e-7 0 1 -0.07845944 -0.9969174 0 -0.3826834 -0.9238796 0 -0.7604067 -0.6494472 0 -0.8526396 -0.5224996 0 -0.9238794 -0.3826839 0 -0.9969175 -0.0784583 0 -0.07845944 0.9969174 0 -0.3826833 0.9238796 0 -0.7604066 0.6494473 0 -0.8526396 0.5224996 0 -0.9238795 0.3826839 0 0.9238803 0.3826817 0 0.8526407 0.5224978 0 0.7604054 0.6494488 0 0.3826838 0.9238795 0 0.07845926 0.9969174 0 0.07845944 -0.9969174 0 0.3826833 -0.9238796 0 0.7604066 -0.6494473 0 0.8526396 -0.5224996 0 0.9238795 -0.3826839 0 0.9969174 -0.0784583 0 1.78814e-7 0 -1 -9.73454e-7 2.83474e-7 -1 5.42758e-7 0 -1 5.38843e-7 0 -1 -5.42758e-7 0 -1 -9.53924e-7 0 -1 1.10132e-6 0 -1 9.53924e-7 0 -1 -5.38844e-7 0 -1 2.38481e-7 0 -1 0 -2.83474e-7 -1 -4.86727e-7 0 -1 -3.57721e-7 0 -1 2.51495e-7 0 -1 5.65863e-7 0 -1 -1.04207e-6 0 -1 5.56259e-7 0 -1 4.90385e-7 0 -1 -0.9951847 0.09801727 0 -0.7730101 0.6343937 -1.26688e-7 -0.8819215 0.4713962 0 0.9951847 -0.09801828 0 -0.9569404 -0.2902848 0 -0.9951847 -0.09801727 0 -0.7730101 -0.6343937 -1.26688e-7 0.0980159 -0.9951849 0 0.8819206 -0.471398 0 0.2902833 -0.9569408 2.53377e-7 -0.6343933 -0.7730106 0 0.4713971 0.8819211 0 -0.6343937 0.7730102 -1.26688e-7 0.6343926 -0.773011 0 0.9569401 -0.2902857 0 -0.4713965 0.8819214 -2.53377e-7 0.6343934 0.7730104 0 0.8819214 0.4713965 0 -0.09801697 -0.9951848 0 0.9951849 0.09801626 0 -5.5626e-7 2.83474e-7 -1 1.25747e-7 0 -1 5.38844e-7 0 -1 -4.76962e-7 0 -1 0 0 -1 -5.0299e-7 0 -1 -1.10132e-6 0 -1 0 -2.83474e-7 -1 -5.02989e-7 0 -1 0 0 -1 0 2.23869e-7 -1 2.45192e-7 0 -1 7.82247e-7 2.23872e-7 -1 -9.8077e-7 0 -1 -0.9569404 0.2902847 0 0.2902852 0.9569402 0 0.4713954 -0.8819221 -2.53377e-7 -0.2902846 -0.9569404 0 -0.2902843 0.9569405 0 -1.58296e-7 0 1 -1.73831e-7 -2.83474e-7 1 0 0 1 -2.69422e-7 0 1 1.35689e-7 0 1 2.71379e-7 0 1 -2.7533e-7 0 1 1.78861e-7 0 1 0 0 1 0 0 1 0 0 1 1.19241e-7 0 1 2.45193e-7 0 1</float_array>
          <technique_common>
            <accessor source="#Cylinder_008-mesh-normals-array" count="498" stride="3">
              <param name="X" type="float"/>
              <param name="Y" type="float"/>
              <param name="Z" type="float"/>
            </accessor>
          </technique_common>
        </source>
        <source id="Cylinder_008-mesh-map-0">
          <float_array id="Cylinder_008-mesh-map-0-array" count="4944">1 1 0.96875 0.5 1 0.5 0.96875 1 0.9375 0.5 0.96875 0.5 0.9375 1 0.90625 0.5 0.9375 0.5 0.90625 1 0.875 0.5 0.90625 0.5 0.875 1 0.84375 0.5 0.875 0.5 0.84375 1 0.8125 0.5 0.84375 0.5 0.8125 1 0.78125 0.5 0.8125 0.5 0.78125 1 0.75 0.5 0.78125 0.5 0.75 1 0.71875 0.5 0.75 0.5 0.71875 1 0.6875 0.5 0.71875 0.5 0.6875 1 0.65625 0.5 0.6875 0.5 0.65625 1 0.625 0.5 0.65625 0.5 0.625 1 0.59375 0.5 0.625 0.5 0.59375 1 0.5625 0.5 0.59375 0.5 0.5625 1 0.53125 0.5 0.5625 0.5 0.53125 1 0.5 0.5 0.53125 0.5 0.5 1 0.46875 0.5 0.5 0.5 0.46875 1 0.4375 0.5 0.46875 0.5 0.4375 1 0.40625 0.5 0.4375 0.5 0.40625 1 0.375 0.5 0.40625 0.5 0.375 1 0.34375 0.5 0.375 0.5 0.34375 1 0.3125 0.5 0.34375 0.5 0.3125 1 0.28125 0.5 0.3125 0.5 0.28125 1 0.25 0.5 0.28125 0.5 0.25 1 0.21875 0.5 0.25 0.5 0.21875 1 0.1875 0.5 0.21875 0.5 0.1875 1 0.15625 0.5 0.1875 0.5 0.15625 1 0.125 0.5 0.15625 0.5 0.125 1 0.09375 0.5 0.125 0.5 0.09375 1 0.0625 0.5 0.09375 0.5 0.02826899 0.3418443 0.1581559 0.02826893 0.4717311 0.158156 0.0625 1 0.03125 0.5 0.0625 0.5 0.03125 1 0 0.5 0.03125 0.5 0.9853885 0.2968217 0.7968216 0.01461148 0.5146115 0.2031785 0.625 0.75 0.4 1 0.4 0.75 0.3762236 0.7327254 0.3753078 0.7289108 0.375 0.725 0.625 0.25 0.4 0.5 0.4 0.25 0.625 0 0.4 0.25 0.4 0 0.875 0.5 0.625 0.75 0.625 0.5 0.15 0.725 0.1460891 0.5210891 0.15 0.525 0.1460891 0.7289109 0.1422746 0.5172746 0.1460891 0.5210891 0.1422746 0.7327254 0.1386502 0.5136502 0.1422746 0.5172746 0.1386502 0.7363498 0.1353054 0.5103054 0.1386502 0.5136502 0.1353054 0.7396945 0.125 0.5073223 0.1353054 0.5103054 0.375 0.007322311 0.3853054 0.2452254 0.375 0.2426776 0.3853054 0.00477457 0.3886502 0.2472751 0.3853054 0.2452254 0.3886502 0.002724826 0.3922746 0.2487764 0.3886502 0.2472751 0.3922746 0.001223564 0.3960891 0.2496922 0.3922746 0.2487764 0.3960891 3.07798e-4 0.4 0.25 0.3960891 0.2496922 0.15 0.525 0.375 0.5210891 0.375 0.525 0.1460891 0.5210891 0.375 0.5172746 0.375 0.5210891 0.1422746 0.5172746 0.375 0.5136502 0.375 0.5172746 0.1386502 0.5136502 0.375 0.5103054 0.375 0.5136502 0.1353054 0.5103054 0.375 0.5 0.375 0.5103054 0.375 0.2573223 0.3853054 0.5 0.375 0.5 0.3853054 0.2547746 0.3886502 0.5 0.3853054 0.5 0.3886502 0.2527248 0.3922746 0.5 0.3886502 0.5 0.3922746 0.2512236 0.3960891 0.5 0.3922746 0.5 0.3960891 0.2503077 0.4 0.5 0.3960891 0.5 0.15 0.725 0.375 0.7289109 0.1460891 0.7289109 0.1460891 0.7289109 0.375 0.7327255 0.1422746 0.7327254 0.1422746 0.7327254 0.375 0.7363498 0.1386502 0.7363498 0.1386502 0.7363498 0.375 0.7396947 0.1353054 0.7396945 0.1353054 0.7396945 0.375 0.75 0.1323223 0.75 0.375 0.9926777 0.3853054 0.75 0.3853054 0.9952254 0.3853054 0.9952254 0.3886502 0.75 0.3886502 0.9972752 0.3886502 0.9972752 0.3922746 0.75 0.3922746 0.9987764 0.3922746 0.9987764 0.3960891 0.75 0.3960891 0.9996922 0.3960891 0.9996922 0.4 0.75 0.4 1 0.375 0.525 0.15 0.725 0.15 0.525 0.625 0.8125 0.375 0.9375 0.375 0.8125 0.625 0.5625 0.375 0.6875 0.375 0.5625 0.7172894 0.678427 0.7294507 0.6813775 0.6875 0.75 0.625 0.0625 0.375 0.1875 0.375 0.0625 0.625 0.3125 0.375 0.4375 0.375 0.3125 0.625 0.9375 0.375 0.9472772 0.375 0.9375 0.625 0.9472772 0.375 0.9568136 0.375 0.9472772 0.625 0.9568136 0.375 0.9658744 0.375 0.9568136 0.625 0.9658744 0.375 0.9742366 0.375 0.9658744 0.625 0.9742366 0.375 1 0.375 0.9742366 0.625 0 0.375 0.02576339 0.375 0 0.625 0.02576339 0.375 0.03412556 0.375 0.02576339 0.625 0.03412556 0.375 0.04318642 0.375 0.03412556 0.625 0.04318642 0.375 0.05272281 0.375 0.04318642 0.625 0.05272281 0.375 0.0625 0.375 0.05272281 0.375 0.3125 0.6907591 0.3687384 0.625 0.3125 0.3092409 0.3687384 0.6939379 0.3631439 0.6907591 0.3687384 0.3060622 0.3631439 0.6969582 0.3583545 0.6939379 0.3631439 0.3030419 0.3583544 0.6997455 0.3544878 0.6969582 0.3583545 0.3002545 0.3544878 0.7022314 0.3394353 0.6997455 0.3544878 0.2977686 0.3394353 0.7043545 0.3247455 0.7022314 0.3394353 0.2956455 0.3247455 0.7060627 0.3219581 0.7043545 0.3247455 0.2939374 0.3219581 0.7073137 0.3189378 0.7060627 0.3219581 0.2926864 0.3189378 0.7080768 0.3157591 0.7073137 0.3189378 0.2919232 0.3157591 0.625 0.1875 0.7080768 0.3157591 0.375 0.5625 0.6252565 0.5527229 0.625 0.5625 0.3747435 0.5527228 0.6260197 0.5431864 0.6252565 0.5527229 0.3739804 0.5431864 0.6272707 0.5341256 0.6260197 0.5431864 0.3727293 0.5341256 0.6289789 0.5257634 0.6272707 0.5341256 0.3710212 0.5257634 0.631102 0.506102 0.6289789 0.5257634 0.3688981 0.506102 0.6335878 0.4868032 0.631102 0.506102 0.3664122 0.4868032 0.6363753 0.4795203 0.6335878 0.4868032 0.3636248 0.4795203 0.6393955 0.4722287 0.6363753 0.4795203 0.3606045 0.4722287 0.6425743 0.4651079 0.6393955 0.4722287 0.3574257 0.4651079 0.625 0.4375 0.6425743 0.4651079 0.375 0.8125 0.6425743 0.7848921 0.625 0.8125 0.3574258 0.7848921 0.6393955 0.7777714 0.6425743 0.7848921 0.3606045 0.7777714 0.6363752 0.7704797 0.6393955 0.7777714 0.3636248 0.7704797 0.6335878 0.7631968 0.6363752 0.7704797 0.3664122 0.7631968 0.631102 0.7438981 0.6335878 0.7631968 0.3688981 0.7438981 0.6289789 0.7242366 0.631102 0.7438981 0.3710212 0.7242366 0.6272707 0.7158744 0.6289789 0.7242366 0.3727293 0.7158744 0.6260197 0.7068136 0.6272707 0.7158744 0.3739804 0.7068136 0.6252565 0.6972772 0.6260197 0.7068136 0.3747435 0.6972772 0.625 0.6875 0.6252565 0.6972772 0.2344644 0.6753468 0.245893 0.679833 0.1875 0.75 0.71875 0.5500001 0.75 0.5227273 0.71875 0.5227273 0.625 0.5500001 0.65625 0.5227273 0.625 0.5227273 0.65625 0.5500001 0.6875 0.5227273 0.65625 0.5227273 0.21875 0.5227273 0.25 0.5500001 0.25 0.5227273 0.78125 0.5500001 0.8125 0.5227273 0.78125 0.5227273 0.75 0.5500001 0.78125 0.5227273 0.75 0.5227273 0.84375 0.5227273 0.875 0.5500001 0.875 0.5227273 0 0.55 0.03125 0.5227273 0 0.5227273 0.46875 0.5500001 0.5 0.5227273 0.46875 0.5227273 0.15625 0.5500001 0.1875 0.5227273 0.15625 0.5227273 0.5 0.5500001 0.53125 0.5227273 0.5 0.5227273 0.03125 0.5227273 0.0625 0.5500001 0.0625 0.5227273 0.875 0.5500001 0.90625 0.5227273 0.875 0.5227273 0.40625 0.5227273 0.4375 0.5500001 0.4375 0.5227273 0.90625 0.5500001 0.9375 0.5227273 0.90625 0.5227273 0.59375 0.5227273 0.625 0.5500001 0.625 0.5227273 0.09375 0.5500001 0.125 0.5227273 0.09375 0.5227273 0.1875 0.5500001 0.21875 0.5227273 0.1875 0.5227273 0.5625 0.5227273 0.59375 0.5500001 0.59375 0.5227273 0.375 0.5227273 0.40625 0.5500001 0.40625 0.5227273 0.3125 0.5500001 0.34375 0.5227273 0.3125 0.5227273 0.96875 0.5500001 1 0.5227273 0.96875 0.5227273 0.8125 0.5227273 0.84375 0.5500001 0.84375 0.5227273 0.25 0.5500001 0.28125 0.5227273 0.25 0.5227273 0.2609615 0.5378479 0.2539243 0.535796 0.1875 0.5 0.6875 0.5500001 0.71875 0.5227273 0.6875 0.5227273 0.4375 0.5500001 0.46875 0.5227273 0.4375 0.5227273 0.0625 0.5227273 0.09375 0.5500001 0.09375 0.5227273 0.9375 0.5500001 0.96875 0.5227273 0.9375 0.5227273 0.53125 0.5500001 0.5625 0.5227273 0.53125 0.5227273 0.28125 0.5227273 0.3125 0.5500001 0.3125 0.5227273 0.125 0.5500001 0.15625 0.5227273 0.125 0.5227273 0.34375 0.5227273 0.375 0.5500001 0.375 0.5227273 0.7212643 0.545816 0.7112897 0.5516083 0.6875 0.5 0.625 0.8125 0.375 0.9375 0.375 0.8125 0.625 0.5625 0.375 0.6875 0.375 0.5625 0.7172894 0.678427 0.7294507 0.6813775 0.6875 0.75 0.625 0.0625 0.375 0.1875 0.375 0.0625 0.625 0.3125 0.375 0.4375 0.375 0.3125 0.625 0.9375 0.375 0.9472772 0.375 0.9375 0.625 0.9472772 0.375 0.9568136 0.375 0.9472772 0.625 0.9568136 0.375 0.9658744 0.375 0.9568136 0.625 0.9658744 0.375 0.9742366 0.375 0.9658744 0.625 0.9742366 0.375 1 0.375 0.9742366 0.625 0 0.375 0.02576339 0.375 0 0.625 0.02576339 0.375 0.03412556 0.375 0.02576339 0.625 0.03412556 0.375 0.04318642 0.375 0.03412556 0.625 0.04318642 0.375 0.05272281 0.375 0.04318642 0.625 0.05272281 0.375 0.0625 0.375 0.05272281 0.375 0.3125 0.6907591 0.3687384 0.625 0.3125 0.3092409 0.3687384 0.6939379 0.3631439 0.6907591 0.3687384 0.3060622 0.3631439 0.6969582 0.3583545 0.6939379 0.3631439 0.3030419 0.3583544 0.6997455 0.3544878 0.6969582 0.3583545 0.3002545 0.3544878 0.7022314 0.3394353 0.6997455 0.3544878 0.2977686 0.3394353 0.7043545 0.3247455 0.7022314 0.3394353 0.2956455 0.3247455 0.7060627 0.3219581 0.7043545 0.3247455 0.2939374 0.3219581 0.7073137 0.3189378 0.7060627 0.3219581 0.2926864 0.3189378 0.7080768 0.3157591 0.7073137 0.3189378 0.2919232 0.3157591 0.625 0.1875 0.7080768 0.3157591 0.375 0.5625 0.6252565 0.5527229 0.625 0.5625 0.3747435 0.5527228 0.6260197 0.5431864 0.6252565 0.5527229 0.3739804 0.5431864 0.6272707 0.5341256 0.6260197 0.5431864 0.3727293 0.5341256 0.6289789 0.5257634 0.6272707 0.5341256 0.3710212 0.5257634 0.631102 0.506102 0.6289789 0.5257634 0.3688981 0.506102 0.6335878 0.4868032 0.631102 0.506102 0.3664122 0.4868032 0.6363753 0.4795203 0.6335878 0.4868032 0.3636248 0.4795203 0.6393955 0.4722287 0.6363753 0.4795203 0.3606045 0.4722287 0.6425743 0.4651079 0.6393955 0.4722287 0.3574257 0.4651079 0.625 0.4375 0.6425743 0.4651079 0.375 0.8125 0.6425743 0.7848921 0.625 0.8125 0.3574258 0.7848921 0.6393955 0.7777714 0.6425743 0.7848921 0.3606045 0.7777714 0.6363752 0.7704797 0.6393955 0.7777714 0.3636248 0.7704797 0.6335878 0.7631968 0.6363752 0.7704797 0.3664122 0.7631968 0.631102 0.7438981 0.6335878 0.7631968 0.3688981 0.7438981 0.6289789 0.7242366 0.631102 0.7438981 0.3710212 0.7242366 0.6272707 0.7158744 0.6289789 0.7242366 0.3727293 0.7158744 0.6260197 0.7068136 0.6272707 0.7158744 0.3739804 0.7068136 0.6252565 0.6972772 0.6260197 0.7068136 0.3747435 0.6972772 0.625 0.6875 0.6252565 0.6972772 0.2344644 0.6753468 0.245893 0.679833 0.1875 0.75 0.71875 0.5227273 0.75 0.5500001 0.75 0.5227273 0.625 0.5500001 0.65625 0.5227273 0.625 0.5227273 0.65625 0.5500001 0.6875 0.5227273 0.65625 0.5227273 0.21875 0.5500001 0.25 0.5227273 0.21875 0.5227273 0.78125 0.5500001 0.8125 0.5227273 0.78125 0.5227273 0.75 0.5500001 0.78125 0.5227273 0.75 0.5227273 0.84375 0.5227273 0.875 0.5500001 0.875 0.5227273 0 0.5227273 0.03125 0.5500001 0.03125 0.5227273 0.46875 0.5500001 0.5 0.5227273 0.46875 0.5227273 0.15625 0.5500001 0.1875 0.5227273 0.15625 0.5227273 0.5 0.5500001 0.53125 0.5227273 0.5 0.5227273 0.03125 0.5227273 0.0625 0.5500001 0.0625 0.5227273 0.875 0.5500001 0.90625 0.5227273 0.875 0.5227273 0.40625 0.5227273 0.4375 0.5500001 0.4375 0.5227273 0.90625 0.5500001 0.9375 0.5227273 0.90625 0.5227273 0.59375 0.5227273 0.625 0.5500001 0.625 0.5227273 0.09375 0.5500001 0.125 0.5227273 0.09375 0.5227273 0.1875 0.5500001 0.21875 0.5227273 0.1875 0.5227273 0.5625 0.5227273 0.59375 0.5500001 0.59375 0.5227273 0.375 0.5227273 0.40625 0.5500001 0.40625 0.5227273 0.3125 0.5500001 0.34375 0.5227273 0.3125 0.5227273 0.96875 0.5500001 1 0.5227273 0.96875 0.5227273 0.8125 0.5500001 0.84375 0.5227273 0.8125 0.5227273 0.25 0.5500001 0.28125 0.5227273 0.25 0.5227273 0.2609615 0.5378479 0.2539243 0.535796 0.1875 0.5 0.6875 0.5500001 0.71875 0.5227273 0.6875 0.5227273 0.4375 0.5500001 0.46875 0.5227273 0.4375 0.5227273 0.0625 0.5227273 0.09375 0.5500001 0.09375 0.5227273 0.9375 0.5500001 0.96875 0.5227273 0.9375 0.5227273 0.53125 0.5500001 0.5625 0.5227273 0.53125 0.5227273 0.28125 0.5500001 0.3125 0.5227273 0.28125 0.5227273 0.125 0.5500001 0.15625 0.5227273 0.125 0.5227273 0.34375 0.5227273 0.375 0.5500001 0.375 0.5227273 0.7212643 0.545816 0.7112897 0.5516083 0.6875 0.5 1 1 0.96875 1 0.96875 0.5 0.96875 1 0.9375 1 0.9375 0.5 0.9375 1 0.90625 1 0.90625 0.5 0.90625 1 0.875 1 0.875 0.5 0.875 1 0.84375 1 0.84375 0.5 0.84375 1 0.8125 1 0.8125 0.5 0.8125 1 0.78125 1 0.78125 0.5 0.78125 1 0.75 1 0.75 0.5 0.75 1 0.71875 1 0.71875 0.5 0.71875 1 0.6875 1 0.6875 0.5 0.6875 1 0.65625 1 0.65625 0.5 0.65625 1 0.625 1 0.625 0.5 0.625 1 0.59375 1 0.59375 0.5 0.59375 1 0.5625 1 0.5625 0.5 0.5625 1 0.53125 1 0.53125 0.5 0.53125 1 0.5 1 0.5 0.5 0.5 1 0.46875 1 0.46875 0.5 0.46875 1 0.4375 1 0.4375 0.5 0.4375 1 0.40625 1 0.40625 0.5 0.40625 1 0.375 1 0.375 0.5 0.375 1 0.34375 1 0.34375 0.5 0.34375 1 0.3125 1 0.3125 0.5 0.3125 1 0.28125 1 0.28125 0.5 0.28125 1 0.25 1 0.25 0.5 0.25 1 0.21875 1 0.21875 0.5 0.21875 1 0.1875 1 0.1875 0.5 0.1875 1 0.15625 1 0.15625 0.5 0.15625 1 0.125 1 0.125 0.5 0.125 1 0.09375 1 0.09375 0.5 0.09375 1 0.0625 1 0.0625 0.5 0.341844 0.4717311 0.2968217 0.4853885 0.25 0.49 0.25 0.49 0.2031787 0.4853885 0.341844 0.4717311 0.2031787 0.4853885 0.1581563 0.4717312 0.341844 0.4717311 0.1581563 0.4717312 0.1166634 0.4495529 0.08029454 0.4197058 0.08029454 0.4197058 0.05044746 0.3833371 0.02826899 0.3418443 0.02826899 0.3418443 0.01461154 0.2968219 0.00999999 0.2500002 0.00999999 0.2500002 0.01461148 0.2031785 0.02826899 0.3418443 0.01461148 0.2031785 0.02826881 0.1581561 0.02826899 0.3418443 0.02826881 0.1581561 0.05044716 0.1166633 0.1581559 0.02826893 0.05044716 0.1166633 0.08029425 0.08029443 0.1581559 0.02826893 0.08029425 0.08029443 0.116663 0.05044734 0.1581559 0.02826893 0.1581559 0.02826893 0.2031782 0.01461154 0.2499999 0.00999999 0.2499999 0.00999999 0.2968216 0.01461148 0.341844 0.02826887 0.341844 0.02826887 0.3833369 0.05044728 0.4197056 0.08029437 0.4197056 0.08029437 0.4495527 0.1166631 0.4717311 0.158156 0.4717311 0.158156 0.4853885 0.2031783 0.49 0.25 0.49 0.25 0.4853885 0.2968217 0.4717311 0.158156 0.4853885 0.2968217 0.4717311 0.341844 0.4717311 0.158156 0.4717311 0.341844 0.4495527 0.3833369 0.4197056 0.4197056 0.4197056 0.4197056 0.3833369 0.4495527 0.341844 0.4717311 0.1581563 0.4717312 0.08029454 0.4197058 0.341844 0.4717311 0.08029454 0.4197058 0.02826899 0.3418443 0.341844 0.4717311 0.1581559 0.02826893 0.2499999 0.00999999 0.4717311 0.158156 0.2499999 0.00999999 0.341844 0.02826887 0.4717311 0.158156 0.341844 0.02826887 0.4197056 0.08029437 0.4717311 0.158156 0.4717311 0.341844 0.4197056 0.4197056 0.4717311 0.158156 0.4197056 0.4197056 0.341844 0.4717311 0.4717311 0.158156 0.02826899 0.3418443 0.02826881 0.1581561 0.1581559 0.02826893 0.341844 0.4717311 0.02826899 0.3418443 0.4717311 0.158156 0.0625 1 0.03125 1 0.03125 0.5 0.03125 1 0 1 0 0.5 0.7031787 0.4853885 0.75 0.49 0.7968217 0.4853885 0.7968217 0.4853885 0.841844 0.4717311 0.8833369 0.4495527 0.8833369 0.4495527 0.9197056 0.4197056 0.9495527 0.3833369 0.9495527 0.3833369 0.9717311 0.341844 0.8833369 0.4495527 0.9717311 0.341844 0.9853885 0.2968217 0.8833369 0.4495527 0.9853885 0.2968217 0.99 0.25 0.9853885 0.2031783 0.9853885 0.2031783 0.9717311 0.158156 0.9853885 0.2968217 0.9717311 0.158156 0.9495527 0.1166631 0.9853885 0.2968217 0.9495527 0.1166631 0.9197056 0.08029437 0.7968216 0.01461148 0.9197056 0.08029437 0.8833369 0.05044728 0.7968216 0.01461148 0.8833369 0.05044728 0.841844 0.02826887 0.7968216 0.01461148 0.7968216 0.01461148 0.75 0.00999999 0.7031782 0.01461154 0.7031782 0.01461154 0.6581559 0.02826893 0.616663 0.05044734 0.616663 0.05044734 0.5802943 0.08029443 0.5504472 0.1166633 0.5504472 0.1166633 0.5282688 0.1581561 0.5146115 0.2031785 0.5146115 0.2031785 0.51 0.2500002 0.5146116 0.2968219 0.5146116 0.2968219 0.5282691 0.3418443 0.5504475 0.3833371 0.5504475 0.3833371 0.5802946 0.4197058 0.7031787 0.4853885 0.5802946 0.4197058 0.6166634 0.4495529 0.7031787 0.4853885 0.6166634 0.4495529 0.6581563 0.4717312 0.7031787 0.4853885 0.7031787 0.4853885 0.7968217 0.4853885 0.8833369 0.4495527 0.7968216 0.01461148 0.7031782 0.01461154 0.5146115 0.2031785 0.7031782 0.01461154 0.616663 0.05044734 0.5146115 0.2031785 0.616663 0.05044734 0.5504472 0.1166633 0.5146115 0.2031785 0.5146115 0.2031785 0.5146116 0.2968219 0.7031787 0.4853885 0.5146116 0.2968219 0.5504475 0.3833371 0.7031787 0.4853885 0.7031787 0.4853885 0.8833369 0.4495527 0.9853885 0.2968217 0.9853885 0.2968217 0.9495527 0.1166631 0.7968216 0.01461148 0.7031787 0.4853885 0.9853885 0.2968217 0.5146115 0.2031785 0.625 0.75 0.625 1 0.4 1 0.375 0.725 0.375 0.525 0.3797746 0.5103054 0.375 0.525 0.3753078 0.5210891 0.3762236 0.5172746 0.3777248 0.5136502 0.375 0.525 0.3762236 0.5172746 0.3777248 0.5136502 0.3797746 0.5103054 0.375 0.525 0.3797746 0.5103054 0.3823223 0.5073223 0.3797746 0.7396946 0.375 0.725 0.3797746 0.5103054 0.3797746 0.7396946 0.3823223 0.5073223 0.3853054 0.5047746 0.3823223 0.7426776 0.3853054 0.5047746 0.3886502 0.5027249 0.3853054 0.7452254 0.3823223 0.5073223 0.3823223 0.7426776 0.3797746 0.7396946 0.3886502 0.5027249 0.3922746 0.5012236 0.3922746 0.7487764 0.3922746 0.5012236 0.3960891 0.5003078 0.3922746 0.7487764 0.3960891 0.5003078 0.4 0.5 0.4 0.75 0.4 0.5 0.625 0.5 0.4 0.75 0.625 0.5 0.625 0.75 0.4 0.75 0.4 0.75 0.3960891 0.7496922 0.3960891 0.5003078 0.3960891 0.7496922 0.3922746 0.7487764 0.3960891 0.5003078 0.3922746 0.7487764 0.3886502 0.7472752 0.3886502 0.5027249 0.3886502 0.7472752 0.3853054 0.7452254 0.3886502 0.5027249 0.3853054 0.7452254 0.3823223 0.7426776 0.3853054 0.5047746 0.3797746 0.7396946 0.3777248 0.7363498 0.375 0.725 0.3777248 0.7363498 0.3762236 0.7327254 0.375 0.725 0.625 0.25 0.625 0.5 0.4 0.5 0.625 0 0.625 0.25 0.4 0.25 0.875 0.5 0.875 0.75 0.625 0.75 0.15 0.725 0.1460891 0.7289109 0.1460891 0.5210891 0.1460891 0.7289109 0.1422746 0.7327254 0.1422746 0.5172746 0.1422746 0.7327254 0.1386502 0.7363498 0.1386502 0.5136502 0.1386502 0.7363498 0.1353054 0.7396945 0.1353054 0.5103054 0.1353054 0.7396945 0.125 0.7426776 0.125 0.5073223 0.375 0.007322311 0.3853054 0.00477457 0.3853054 0.2452254 0.3853054 0.00477457 0.3886502 0.002724826 0.3886502 0.2472751 0.3886502 0.002724826 0.3922746 0.001223564 0.3922746 0.2487764 0.3922746 0.001223564 0.3960891 3.07798e-4 0.3960891 0.2496922 0.3960891 3.07798e-4 0.4 0 0.4 0.25 0.15 0.525 0.1460891 0.5210891 0.375 0.5210891 0.1460891 0.5210891 0.1422746 0.5172746 0.375 0.5172746 0.1422746 0.5172746 0.1386502 0.5136502 0.375 0.5136502 0.1386502 0.5136502 0.1353054 0.5103054 0.375 0.5103054 0.1353054 0.5103054 0.1323223 0.5 0.375 0.5 0.375 0.2573223 0.3853054 0.2547746 0.3853054 0.5 0.3853054 0.2547746 0.3886502 0.2527248 0.3886502 0.5 0.3886502 0.2527248 0.3922746 0.2512236 0.3922746 0.5 0.3922746 0.2512236 0.3960891 0.2503077 0.3960891 0.5 0.3960891 0.2503077 0.4 0.25 0.4 0.5 0.15 0.725 0.375 0.725 0.375 0.7289109 0.1460891 0.7289109 0.375 0.7289109 0.375 0.7327255 0.1422746 0.7327254 0.375 0.7327255 0.375 0.7363498 0.1386502 0.7363498 0.375 0.7363498 0.375 0.7396947 0.1353054 0.7396945 0.375 0.7396947 0.375 0.75 0.375 0.9926777 0.375 0.75 0.3853054 0.75 0.3853054 0.9952254 0.3853054 0.75 0.3886502 0.75 0.3886502 0.9972752 0.3886502 0.75 0.3922746 0.75 0.3922746 0.9987764 0.3922746 0.75 0.3960891 0.75 0.3960891 0.9996922 0.3960891 0.75 0.4 0.75 0.375 0.525 0.375 0.725 0.15 0.725 0.625 0.8125 0.625 0.9375 0.375 0.9375 0.625 0.5625 0.625 0.6875 0.375 0.6875 0.625 0.6875 0.625 0.5625 0.6786612 0.6181002 0.625 0.6875 0.6786612 0.6181002 0.6800091 0.6311995 0.6260197 0.7068136 0.6252565 0.6972772 0.6965429 0.6651324 0.6252565 0.6972772 0.625 0.6875 0.6889479 0.6552012 0.6289789 0.7242366 0.6272707 0.7158744 0.6965429 0.6651324 0.6272707 0.7158744 0.6260197 0.7068136 0.6965429 0.6651324 0.6335878 0.7631968 0.631102 0.7438981 0.6965429 0.6651324 0.631102 0.7438981 0.6289789 0.7242366 0.6965429 0.6651324 0.6393955 0.7777714 0.6363752 0.7704797 0.6965429 0.6651324 0.6363752 0.7704797 0.6335878 0.7631968 0.6965429 0.6651324 0.6393955 0.7777714 0.6965429 0.6651324 0.6425743 0.7848921 0.6875 0.75 0.6425743 0.7848921 0.7061116 0.6729857 0.7061116 0.6729857 0.6425743 0.7848921 0.6965429 0.6651324 0.8222772 0.7492305 0.8125 0.75 0.7757681 0.668479 0.8125 0.75 0.6875 0.75 0.7419173 0.6818481 0.8408744 0.743188 0.8318136 0.7469411 0.7843898 0.6593904 0.8318136 0.7469411 0.8222772 0.7492305 0.7843898 0.6593904 0.7843898 0.6593904 0.8222772 0.7492305 0.7757681 0.668479 0.8566942 0.7316942 0.8492366 0.7380635 0.7843898 0.6593904 0.8492366 0.7380635 0.8408744 0.743188 0.7843898 0.6593904 0.868188 0.7158744 0.8630636 0.7242366 0.7843898 0.6593904 0.8630636 0.7242366 0.8566942 0.7316942 0.7843898 0.6593904 0.8742306 0.6972772 0.871941 0.7068136 0.7843898 0.6593904 0.871941 0.7068136 0.868188 0.7158744 0.7843898 0.6593904 0.8742306 0.6972772 0.7843898 0.6593904 0.7909839 0.648272 0.875 0.5625 0.875 0.6875 0.7942367 0.6043058 0.875 0.6875 0.8742306 0.6972772 0.7909839 0.648272 0.7951182 0.6353071 0.875 0.6875 0.7909839 0.648272 0.7963419 0.6206164 0.7942367 0.6043058 0.875 0.6875 0.7951182 0.6353071 0.7963419 0.6206164 0.875 0.6875 0.8125 0.75 0.7419173 0.6818481 0.754107 0.6798328 0.6252565 0.6972772 0.6889479 0.6552012 0.6965429 0.6651324 0.625 0.6875 0.6800091 0.6311995 0.6834354 0.6437146 0.625 0.6875 0.6834354 0.6437146 0.6889479 0.6552012 0.8125 0.75 0.754107 0.6798328 0.7655356 0.6753468 0.8125 0.75 0.7655356 0.6753468 0.7757681 0.668479 0.7419173 0.6818481 0.6875 0.75 0.7294507 0.6813775 0.7061116 0.6729857 0.7172894 0.678427 0.6875 0.75 0.625 0.0625 0.625 0.1875 0.375 0.1875 0.625 0.3125 0.625 0.4375 0.375 0.4375 0.625 0.9375 0.625 0.9472772 0.375 0.9472772 0.625 0.9472772 0.625 0.9568136 0.375 0.9568136 0.625 0.9568136 0.625 0.9658744 0.375 0.9658744 0.625 0.9658744 0.625 0.9742366 0.375 0.9742366 0.625 0.9742366 0.625 1 0.375 1 0.625 0 0.625 0.02576339 0.375 0.02576339 0.625 0.02576339 0.625 0.03412556 0.375 0.03412556 0.625 0.03412556 0.625 0.04318642 0.375 0.04318642 0.625 0.04318642 0.625 0.05272281 0.375 0.05272281 0.625 0.05272281 0.625 0.0625 0.375 0.0625 0.375 0.3125 0.3092409 0.3687384 0.6907591 0.3687384 0.3092409 0.3687384 0.3060622 0.3631439 0.6939379 0.3631439 0.3060622 0.3631439 0.3030419 0.3583544 0.6969582 0.3583545 0.3030419 0.3583544 0.3002545 0.3544878 0.6997455 0.3544878 0.3002545 0.3544878 0.2977686 0.3394353 0.7022314 0.3394353 0.2977686 0.3394353 0.2956455 0.3247455 0.7043545 0.3247455 0.2956455 0.3247455 0.2939374 0.3219581 0.7060627 0.3219581 0.2939374 0.3219581 0.2926864 0.3189378 0.7073137 0.3189378 0.2926864 0.3189378 0.2919232 0.3157591 0.7080768 0.3157591 0.2919232 0.3157591 0.375 0.1875 0.625 0.1875 0.375 0.5625 0.3747435 0.5527228 0.6252565 0.5527229 0.3747435 0.5527228 0.3739804 0.5431864 0.6260197 0.5431864 0.3739804 0.5431864 0.3727293 0.5341256 0.6272707 0.5341256 0.3727293 0.5341256 0.3710212 0.5257634 0.6289789 0.5257634 0.3710212 0.5257634 0.3688981 0.506102 0.631102 0.506102 0.3688981 0.506102 0.3664122 0.4868032 0.6335878 0.4868032 0.3664122 0.4868032 0.3636248 0.4795203 0.6363753 0.4795203 0.3636248 0.4795203 0.3606045 0.4722287 0.6393955 0.4722287 0.3606045 0.4722287 0.3574257 0.4651079 0.6425743 0.4651079 0.3574257 0.4651079 0.375 0.4375 0.625 0.4375 0.375 0.8125 0.3574258 0.7848921 0.6425743 0.7848921 0.3574258 0.7848921 0.3606045 0.7777714 0.6393955 0.7777714 0.3606045 0.7777714 0.3636248 0.7704797 0.6363752 0.7704797 0.3636248 0.7704797 0.3664122 0.7631968 0.6335878 0.7631968 0.3664122 0.7631968 0.3688981 0.7438981 0.631102 0.7438981 0.3688981 0.7438981 0.3710212 0.7242366 0.6289789 0.7242366 0.3710212 0.7242366 0.3727293 0.7158744 0.6272707 0.7158744 0.3727293 0.7158744 0.3739804 0.7068136 0.6260197 0.7068136 0.3739804 0.7068136 0.3747435 0.6972772 0.6252565 0.6972772 0.3747435 0.6972772 0.375 0.6875 0.625 0.6875 0.125 0.6875 0.125 0.5625 0.2057633 0.6043058 0.125 0.6875 0.2057633 0.6043058 0.2036579 0.6206164 0.1280589 0.7068136 0.1257694 0.6972771 0.2156102 0.6593902 0.1257694 0.6972771 0.125 0.6875 0.2090162 0.6482722 0.1369364 0.7242366 0.131812 0.7158744 0.2156102 0.6593902 0.131812 0.7158744 0.1280589 0.7068136 0.2156102 0.6593902 0.1507634 0.7380636 0.1433058 0.7316942 0.2156102 0.6593902 0.1433058 0.7316942 0.1369364 0.7242366 0.2156102 0.6593902 0.1681864 0.7469411 0.1591256 0.743188 0.2156102 0.6593902 0.1591256 0.743188 0.1507634 0.7380636 0.2156102 0.6593902 0.1681864 0.7469411 0.2156102 0.6593902 0.1777228 0.7492305 0.1875 0.75 0.1777228 0.7492305 0.2242318 0.668479 0.2242318 0.668479 0.1777228 0.7492305 0.2156102 0.6593902 0.3574258 0.7848921 0.3125 0.75 0.293888 0.6729855 0.3125 0.75 0.1875 0.75 0.2580827 0.6818482 0.3636248 0.7704797 0.3606045 0.7777714 0.3034569 0.6651323 0.3606045 0.7777714 0.3574258 0.7848921 0.3034569 0.6651323 0.3034569 0.6651323 0.3574258 0.7848921 0.293888 0.6729855 0.3688981 0.7438981 0.3664122 0.7631968 0.3034569 0.6651323 0.3664122 0.7631968 0.3636248 0.7704797 0.3034569 0.6651323 0.3727293 0.7158744 0.3710212 0.7242366 0.3034569 0.6651323 0.3710212 0.7242366 0.3688981 0.7438981 0.3034569 0.6651323 0.3747435 0.6972772 0.3739804 0.7068136 0.3034569 0.6651323 0.3739804 0.7068136 0.3727293 0.7158744 0.3034569 0.6651323 0.3747435 0.6972772 0.3034569 0.6651323 0.3110519 0.6552003 0.375 0.5625 0.375 0.6875 0.3213388 0.6181001 0.375 0.6875 0.3747435 0.6972772 0.3110519 0.6552003 0.3165647 0.6437146 0.375 0.6875 0.3110519 0.6552003 0.3199909 0.6311996 0.3213388 0.6181001 0.375 0.6875 0.3165647 0.6437146 0.3199909 0.6311996 0.375 0.6875 0.3125 0.75 0.2580827 0.6818482 0.2705491 0.6813775 0.1257694 0.6972771 0.2090162 0.6482722 0.2156102 0.6593902 0.125 0.6875 0.2036579 0.6206164 0.2048818 0.635307 0.125 0.6875 0.2048818 0.635307 0.2090162 0.6482722 0.3125 0.75 0.2705491 0.6813775 0.2827107 0.6784269 0.3125 0.75 0.2827107 0.6784269 0.293888 0.6729855 0.2580827 0.6818482 0.1875 0.75 0.245893 0.679833 0.2242318 0.668479 0.2344644 0.6753468 0.1875 0.75 0.71875 0.5500001 0.75 0.5500001 0.75 0.5227273 0.625 0.5500001 0.65625 0.5500001 0.65625 0.5227273 0.65625 0.5500001 0.6875 0.5500001 0.6875 0.5227273 0.21875 0.5227273 0.21875 0.5500001 0.25 0.5500001 0.78125 0.5500001 0.8125 0.5500001 0.8125 0.5227273 0.75 0.5500001 0.78125 0.5500001 0.78125 0.5227273 0.84375 0.5227273 0.84375 0.5500001 0.875 0.5500001 0 0.55 0.03125 0.5500001 0.03125 0.5227273 0.46875 0.5500001 0.5 0.5500001 0.5 0.5227273 0.15625 0.5500001 0.1875 0.5500001 0.1875 0.5227273 0.5 0.5500001 0.53125 0.5500001 0.53125 0.5227273 0.03125 0.5227273 0.03125 0.5500001 0.0625 0.5500001 0.875 0.5500001 0.90625 0.5500001 0.90625 0.5227273 0.40625 0.5227273 0.40625 0.5500001 0.4375 0.5500001 0.90625 0.5500001 0.9375 0.5500001 0.9375 0.5227273 0.59375 0.5227273 0.59375 0.5500001 0.625 0.5500001 0.09375 0.5500001 0.125 0.5500001 0.125 0.5227273 0.1875 0.5500001 0.21875 0.5500001 0.21875 0.5227273 0.5625 0.5227273 0.5625 0.5500001 0.59375 0.5500001 0.375 0.5227273 0.375 0.5500001 0.40625 0.5500001 0.3125 0.5500001 0.34375 0.5500001 0.34375 0.5227273 0.96875 0.5500001 1 0.55 1 0.5227273 0.8125 0.5227273 0.8125 0.5500001 0.84375 0.5500001 0.25 0.5500001 0.28125 0.5500001 0.28125 0.5227273 0.3747435 0.5527228 0.375 0.5625 0.313195 0.5794711 0.375 0.5625 0.3213388 0.6181001 0.3206266 0.6048217 0.375 0.5625 0.3206266 0.6048217 0.3178958 0.5917853 0.3727293 0.5341256 0.3739804 0.5431864 0.3065897 0.5684101 0.3739804 0.5431864 0.3747435 0.5527228 0.3065897 0.5684101 0.3688981 0.506102 0.3710212 0.5257634 0.3065897 0.5684101 0.3710212 0.5257634 0.3727293 0.5341256 0.3065897 0.5684101 0.3636248 0.4795203 0.3664122 0.4868032 0.3065897 0.5684101 0.3664122 0.4868032 0.3688981 0.506102 0.3065897 0.5684101 0.3574257 0.4651079 0.3606045 0.4722287 0.3065897 0.5684101 0.3606045 0.4722287 0.3636248 0.4795203 0.3065897 0.5684101 0.3574257 0.4651079 0.3065897 0.5684101 0.2982658 0.5590683 0.1875 0.5 0.3125 0.5 0.2692551 0.5413058 0.3125 0.5 0.3574257 0.4651079 0.2982658 0.5590683 0.2787357 0.5458161 0.3125 0.5 0.2887104 0.551608 0.3060622 0.3631439 0.3092409 0.3687384 0.2394888 0.541922 0.3092409 0.3687384 0.1875 0.5 0.2472433 0.5365039 0.3002545 0.3544878 0.3030419 0.3583544 0.2394888 0.541922 0.3030419 0.3583544 0.3060622 0.3631439 0.2394888 0.541922 0.2956455 0.3247455 0.2977686 0.3394353 0.2394888 0.541922 0.2977686 0.3394353 0.3002545 0.3544878 0.2394888 0.541922 0.2926864 0.3189378 0.2939374 0.3219581 0.2394888 0.541922 0.2939374 0.3219581 0.2956455 0.3247455 0.2394888 0.541922 0.2926864 0.3189378 0.2394888 0.541922 0.2919232 0.3157591 0.125 0.5625 0.2919232 0.3157591 0.2300475 0.5530794 0.2300475 0.5530794 0.2919232 0.3157591 0.2394888 0.541922 0.2113785 0.5866947 0.2057633 0.6043058 0.125 0.5625 0.2199939 0.5688683 0.2113785 0.5866947 0.125 0.5625 0.3092409 0.3687384 0.2472433 0.5365039 0.2394888 0.541922 0.3125 0.5 0.2787357 0.5458161 0.2692551 0.5413058 0.375 0.5625 0.3178958 0.5917853 0.313195 0.5794711 0.2199939 0.5688683 0.125 0.5625 0.2300475 0.5530794 0.1875 0.5 0.2692551 0.5413058 0.2609615 0.5378479 0.3747435 0.5527228 0.313195 0.5794711 0.3065897 0.5684101 0.2982658 0.5590683 0.2887104 0.551608 0.3125 0.5 0.2539243 0.535796 0.2472433 0.5365039 0.1875 0.5 0.6875 0.5500001 0.71875 0.5500001 0.71875 0.5227273 0.4375 0.5500001 0.46875 0.5500001 0.46875 0.5227273 0.0625 0.5227273 0.0625 0.5500001 0.09375 0.5500001 0.9375 0.5500001 0.96875 0.5500001 0.96875 0.5227273 0.53125 0.5500001 0.5625 0.5500001 0.5625 0.5227273 0.28125 0.5227273 0.28125 0.5500001 0.3125 0.5500001 0.125 0.5500001 0.15625 0.5500001 0.15625 0.5227273 0.34375 0.5227273 0.34375 0.5500001 0.375 0.5500001 0.7080768 0.3157591 0.875 0.5625 0.7699525 0.5530794 0.875 0.5625 0.7942367 0.6043058 0.7886217 0.5866943 0.875 0.5625 0.7886217 0.5866943 0.7800062 0.5688685 0.7060627 0.3219581 0.7073137 0.3189378 0.7605115 0.5419221 0.7073137 0.3189378 0.7080768 0.3157591 0.7605115 0.5419221 0.7022314 0.3394353 0.7043545 0.3247455 0.7605115 0.5419221 0.7043545 0.3247455 0.7060627 0.3219581 0.7605115 0.5419221 0.6969582 0.3583545 0.6997455 0.3544878 0.7605115 0.5419221 0.6997455 0.3544878 0.7022314 0.3394353 0.7605115 0.5419221 0.6907591 0.3687384 0.6939379 0.3631439 0.7605115 0.5419221 0.6939379 0.3631439 0.6969582 0.3583545 0.7605115 0.5419221 0.6907591 0.3687384 0.7605115 0.5419221 0.7527566 0.5365039 0.6875 0.5 0.8125 0.5 0.7307446 0.5413058 0.8125 0.5 0.6907591 0.3687384 0.7527566 0.5365039 0.7390385 0.5378482 0.8125 0.5 0.7460757 0.535796 0.6393955 0.4722287 0.6425743 0.4651079 0.69341 0.5684101 0.6425743 0.4651079 0.6875 0.5 0.7017341 0.5590684 0.6335878 0.4868032 0.6363753 0.4795203 0.69341 0.5684101 0.6363753 0.4795203 0.6393955 0.4722287 0.69341 0.5684101 0.6289789 0.5257634 0.631102 0.506102 0.69341 0.5684101 0.631102 0.506102 0.6335878 0.4868032 0.69341 0.5684101 0.6260197 0.5431864 0.6272707 0.5341256 0.69341 0.5684101 0.6272707 0.5341256 0.6289789 0.5257634 0.69341 0.5684101 0.6260197 0.5431864 0.69341 0.5684101 0.6252565 0.5527229 0.625 0.5625 0.6252565 0.5527229 0.6868045 0.5794706 0.6868045 0.5794706 0.6252565 0.5527229 0.69341 0.5684101 0.6793735 0.6048219 0.6786612 0.6181002 0.625 0.5625 0.6821044 0.5917852 0.6793735 0.6048219 0.625 0.5625 0.6425743 0.4651079 0.7017341 0.5590684 0.69341 0.5684101 0.8125 0.5 0.7390385 0.5378482 0.7307446 0.5413058 0.875 0.5625 0.7800062 0.5688685 0.7699525 0.5530794 0.6821044 0.5917852 0.625 0.5625 0.6868045 0.5794706 0.6875 0.5 0.7307446 0.5413058 0.7212643 0.545816 0.7080768 0.3157591 0.7699525 0.5530794 0.7605115 0.5419221 0.7527566 0.5365039 0.7460757 0.535796 0.8125 0.5 0.7112897 0.5516083 0.7017341 0.5590684 0.6875 0.5 0.625 0.8125 0.625 0.9375 0.375 0.9375 0.625 0.5625 0.625 0.6875 0.375 0.6875 0.625 0.6875 0.625 0.5625 0.6786612 0.6181002 0.625 0.6875 0.6786612 0.6181002 0.6800091 0.6311995 0.6260197 0.7068136 0.6252565 0.6972772 0.6965429 0.6651324 0.6252565 0.6972772 0.625 0.6875 0.6889479 0.6552012 0.6289789 0.7242366 0.6272707 0.7158744 0.6965429 0.6651324 0.6272707 0.7158744 0.6260197 0.7068136 0.6965429 0.6651324 0.6335878 0.7631968 0.631102 0.7438981 0.6965429 0.6651324 0.631102 0.7438981 0.6289789 0.7242366 0.6965429 0.6651324 0.6393955 0.7777714 0.6363752 0.7704797 0.6965429 0.6651324 0.6363752 0.7704797 0.6335878 0.7631968 0.6965429 0.6651324 0.6393955 0.7777714 0.6965429 0.6651324 0.6425743 0.7848921 0.6875 0.75 0.6425743 0.7848921 0.7061116 0.6729857 0.7061116 0.6729857 0.6425743 0.7848921 0.6965429 0.6651324 0.8222772 0.7492305 0.8125 0.75 0.7757681 0.668479 0.8125 0.75 0.6875 0.75 0.7419173 0.6818481 0.8408744 0.743188 0.8318136 0.7469411 0.7843898 0.6593904 0.8318136 0.7469411 0.8222772 0.7492305 0.7843898 0.6593904 0.7843898 0.6593904 0.8222772 0.7492305 0.7757681 0.668479 0.8566942 0.7316942 0.8492366 0.7380635 0.7843898 0.6593904 0.8492366 0.7380635 0.8408744 0.743188 0.7843898 0.6593904 0.868188 0.7158744 0.8630636 0.7242366 0.7843898 0.6593904 0.8630636 0.7242366 0.8566942 0.7316942 0.7843898 0.6593904 0.8742306 0.6972772 0.871941 0.7068136 0.7843898 0.6593904 0.871941 0.7068136 0.868188 0.7158744 0.7843898 0.6593904 0.8742306 0.6972772 0.7843898 0.6593904 0.7909839 0.648272 0.875 0.5625 0.875 0.6875 0.7942367 0.6043058 0.875 0.6875 0.8742306 0.6972772 0.7909839 0.648272 0.7951182 0.6353071 0.875 0.6875 0.7909839 0.648272 0.7963419 0.6206164 0.7942367 0.6043058 0.875 0.6875 0.7951182 0.6353071 0.7963419 0.6206164 0.875 0.6875 0.8125 0.75 0.7419173 0.6818481 0.754107 0.6798328 0.6252565 0.6972772 0.6889479 0.6552012 0.6965429 0.6651324 0.625 0.6875 0.6800091 0.6311995 0.6834354 0.6437146 0.625 0.6875 0.6834354 0.6437146 0.6889479 0.6552012 0.8125 0.75 0.754107 0.6798328 0.7655356 0.6753468 0.8125 0.75 0.7655356 0.6753468 0.7757681 0.668479 0.7419173 0.6818481 0.6875 0.75 0.7294507 0.6813775 0.7061116 0.6729857 0.7172894 0.678427 0.6875 0.75 0.625 0.0625 0.625 0.1875 0.375 0.1875 0.625 0.3125 0.625 0.4375 0.375 0.4375 0.625 0.9375 0.625 0.9472772 0.375 0.9472772 0.625 0.9472772 0.625 0.9568136 0.375 0.9568136 0.625 0.9568136 0.625 0.9658744 0.375 0.9658744 0.625 0.9658744 0.625 0.9742366 0.375 0.9742366 0.625 0.9742366 0.625 1 0.375 1 0.625 0 0.625 0.02576339 0.375 0.02576339 0.625 0.02576339 0.625 0.03412556 0.375 0.03412556 0.625 0.03412556 0.625 0.04318642 0.375 0.04318642 0.625 0.04318642 0.625 0.05272281 0.375 0.05272281 0.625 0.05272281 0.625 0.0625 0.375 0.0625 0.375 0.3125 0.3092409 0.3687384 0.6907591 0.3687384 0.3092409 0.3687384 0.3060622 0.3631439 0.6939379 0.3631439 0.3060622 0.3631439 0.3030419 0.3583544 0.6969582 0.3583545 0.3030419 0.3583544 0.3002545 0.3544878 0.6997455 0.3544878 0.3002545 0.3544878 0.2977686 0.3394353 0.7022314 0.3394353 0.2977686 0.3394353 0.2956455 0.3247455 0.7043545 0.3247455 0.2956455 0.3247455 0.2939374 0.3219581 0.7060627 0.3219581 0.2939374 0.3219581 0.2926864 0.3189378 0.7073137 0.3189378 0.2926864 0.3189378 0.2919232 0.3157591 0.7080768 0.3157591 0.2919232 0.3157591 0.375 0.1875 0.625 0.1875 0.375 0.5625 0.3747435 0.5527228 0.6252565 0.5527229 0.3747435 0.5527228 0.3739804 0.5431864 0.6260197 0.5431864 0.3739804 0.5431864 0.3727293 0.5341256 0.6272707 0.5341256 0.3727293 0.5341256 0.3710212 0.5257634 0.6289789 0.5257634 0.3710212 0.5257634 0.3688981 0.506102 0.631102 0.506102 0.3688981 0.506102 0.3664122 0.4868032 0.6335878 0.4868032 0.3664122 0.4868032 0.3636248 0.4795203 0.6363753 0.4795203 0.3636248 0.4795203 0.3606045 0.4722287 0.6393955 0.4722287 0.3606045 0.4722287 0.3574257 0.4651079 0.6425743 0.4651079 0.3574257 0.4651079 0.375 0.4375 0.625 0.4375 0.375 0.8125 0.3574258 0.7848921 0.6425743 0.7848921 0.3574258 0.7848921 0.3606045 0.7777714 0.6393955 0.7777714 0.3606045 0.7777714 0.3636248 0.7704797 0.6363752 0.7704797 0.3636248 0.7704797 0.3664122 0.7631968 0.6335878 0.7631968 0.3664122 0.7631968 0.3688981 0.7438981 0.631102 0.7438981 0.3688981 0.7438981 0.3710212 0.7242366 0.6289789 0.7242366 0.3710212 0.7242366 0.3727293 0.7158744 0.6272707 0.7158744 0.3727293 0.7158744 0.3739804 0.7068136 0.6260197 0.7068136 0.3739804 0.7068136 0.3747435 0.6972772 0.6252565 0.6972772 0.3747435 0.6972772 0.375 0.6875 0.625 0.6875 0.125 0.6875 0.125 0.5625 0.2057633 0.6043058 0.125 0.6875 0.2057633 0.6043058 0.2036579 0.6206164 0.1280589 0.7068136 0.1257694 0.6972771 0.2156102 0.6593902 0.1257694 0.6972771 0.125 0.6875 0.2090162 0.6482722 0.1369364 0.7242366 0.131812 0.7158744 0.2156102 0.6593902 0.131812 0.7158744 0.1280589 0.7068136 0.2156102 0.6593902 0.1507634 0.7380636 0.1433058 0.7316942 0.2156102 0.6593902 0.1433058 0.7316942 0.1369364 0.7242366 0.2156102 0.6593902 0.1681864 0.7469411 0.1591256 0.743188 0.2156102 0.6593902 0.1591256 0.743188 0.1507634 0.7380636 0.2156102 0.6593902 0.1681864 0.7469411 0.2156102 0.6593902 0.1777228 0.7492305 0.1875 0.75 0.1777228 0.7492305 0.2242318 0.668479 0.2242318 0.668479 0.1777228 0.7492305 0.2156102 0.6593902 0.3574258 0.7848921 0.3125 0.75 0.293888 0.6729855 0.3125 0.75 0.1875 0.75 0.2580827 0.6818482 0.3636248 0.7704797 0.3606045 0.7777714 0.3034569 0.6651323 0.3606045 0.7777714 0.3574258 0.7848921 0.3034569 0.6651323 0.3034569 0.6651323 0.3574258 0.7848921 0.293888 0.6729855 0.3688981 0.7438981 0.3664122 0.7631968 0.3034569 0.6651323 0.3664122 0.7631968 0.3636248 0.7704797 0.3034569 0.6651323 0.3727293 0.7158744 0.3710212 0.7242366 0.3034569 0.6651323 0.3710212 0.7242366 0.3688981 0.7438981 0.3034569 0.6651323 0.3747435 0.6972772 0.3739804 0.7068136 0.3034569 0.6651323 0.3739804 0.7068136 0.3727293 0.7158744 0.3034569 0.6651323 0.3747435 0.6972772 0.3034569 0.6651323 0.3110519 0.6552003 0.375 0.5625 0.375 0.6875 0.3213388 0.6181001 0.375 0.6875 0.3747435 0.6972772 0.3110519 0.6552003 0.3165647 0.6437146 0.375 0.6875 0.3110519 0.6552003 0.3199909 0.6311996 0.3213388 0.6181001 0.375 0.6875 0.3165647 0.6437146 0.3199909 0.6311996 0.375 0.6875 0.3125 0.75 0.2580827 0.6818482 0.2705491 0.6813775 0.1257694 0.6972771 0.2090162 0.6482722 0.2156102 0.6593902 0.125 0.6875 0.2036579 0.6206164 0.2048818 0.635307 0.125 0.6875 0.2048818 0.635307 0.2090162 0.6482722 0.3125 0.75 0.2705491 0.6813775 0.2827107 0.6784269 0.3125 0.75 0.2827107 0.6784269 0.293888 0.6729855 0.2580827 0.6818482 0.1875 0.75 0.245893 0.679833 0.2242318 0.668479 0.2344644 0.6753468 0.1875 0.75 0.71875 0.5227273 0.71875 0.5500001 0.75 0.5500001 0.625 0.5500001 0.65625 0.5500001 0.65625 0.5227273 0.65625 0.5500001 0.6875 0.5500001 0.6875 0.5227273 0.21875 0.5500001 0.25 0.5500001 0.25 0.5227273 0.78125 0.5500001 0.8125 0.5500001 0.8125 0.5227273 0.75 0.5500001 0.78125 0.5500001 0.78125 0.5227273 0.84375 0.5227273 0.84375 0.5500001 0.875 0.5500001 0 0.5227273 0 0.55 0.03125 0.5500001 0.46875 0.5500001 0.5 0.5500001 0.5 0.5227273 0.15625 0.5500001 0.1875 0.5500001 0.1875 0.5227273 0.5 0.5500001 0.53125 0.5500001 0.53125 0.5227273 0.03125 0.5227273 0.03125 0.5500001 0.0625 0.5500001 0.875 0.5500001 0.90625 0.5500001 0.90625 0.5227273 0.40625 0.5227273 0.40625 0.5500001 0.4375 0.5500001 0.90625 0.5500001 0.9375 0.5500001 0.9375 0.5227273 0.59375 0.5227273 0.59375 0.5500001 0.625 0.5500001 0.09375 0.5500001 0.125 0.5500001 0.125 0.5227273 0.1875 0.5500001 0.21875 0.5500001 0.21875 0.5227273 0.5625 0.5227273 0.5625 0.5500001 0.59375 0.5500001 0.375 0.5227273 0.375 0.5500001 0.40625 0.5500001 0.3125 0.5500001 0.34375 0.5500001 0.34375 0.5227273 0.96875 0.5500001 1 0.55 1 0.5227273 0.8125 0.5500001 0.84375 0.5500001 0.84375 0.5227273 0.25 0.5500001 0.28125 0.5500001 0.28125 0.5227273 0.3747435 0.5527228 0.375 0.5625 0.313195 0.5794711 0.375 0.5625 0.3213388 0.6181001 0.3206266 0.6048217 0.375 0.5625 0.3206266 0.6048217 0.3178958 0.5917853 0.3727293 0.5341256 0.3739804 0.5431864 0.3065897 0.5684101 0.3739804 0.5431864 0.3747435 0.5527228 0.3065897 0.5684101 0.3688981 0.506102 0.3710212 0.5257634 0.3065897 0.5684101 0.3710212 0.5257634 0.3727293 0.5341256 0.3065897 0.5684101 0.3636248 0.4795203 0.3664122 0.4868032 0.3065897 0.5684101 0.3664122 0.4868032 0.3688981 0.506102 0.3065897 0.5684101 0.3574257 0.4651079 0.3606045 0.4722287 0.3065897 0.5684101 0.3606045 0.4722287 0.3636248 0.4795203 0.3065897 0.5684101 0.3574257 0.4651079 0.3065897 0.5684101 0.2982658 0.5590683 0.1875 0.5 0.3125 0.5 0.2692551 0.5413058 0.3125 0.5 0.3574257 0.4651079 0.2982658 0.5590683 0.2787357 0.5458161 0.3125 0.5 0.2887104 0.551608 0.3060622 0.3631439 0.3092409 0.3687384 0.2394888 0.541922 0.3092409 0.3687384 0.1875 0.5 0.2472433 0.5365039 0.3002545 0.3544878 0.3030419 0.3583544 0.2394888 0.541922 0.3030419 0.3583544 0.3060622 0.3631439 0.2394888 0.541922 0.2956455 0.3247455 0.2977686 0.3394353 0.2394888 0.541922 0.2977686 0.3394353 0.3002545 0.3544878 0.2394888 0.541922 0.2926864 0.3189378 0.2939374 0.3219581 0.2394888 0.541922 0.2939374 0.3219581 0.2956455 0.3247455 0.2394888 0.541922 0.2926864 0.3189378 0.2394888 0.541922 0.2919232 0.3157591 0.125 0.5625 0.2919232 0.3157591 0.2300475 0.5530794 0.2300475 0.5530794 0.2919232 0.3157591 0.2394888 0.541922 0.2113785 0.5866947 0.2057633 0.6043058 0.125 0.5625 0.2199939 0.5688683 0.2113785 0.5866947 0.125 0.5625 0.3092409 0.3687384 0.2472433 0.5365039 0.2394888 0.541922 0.3125 0.5 0.2787357 0.5458161 0.2692551 0.5413058 0.375 0.5625 0.3178958 0.5917853 0.313195 0.5794711 0.2199939 0.5688683 0.125 0.5625 0.2300475 0.5530794 0.1875 0.5 0.2692551 0.5413058 0.2609615 0.5378479 0.3747435 0.5527228 0.313195 0.5794711 0.3065897 0.5684101 0.2982658 0.5590683 0.2887104 0.551608 0.3125 0.5 0.2539243 0.535796 0.2472433 0.5365039 0.1875 0.5 0.6875 0.5500001 0.71875 0.5500001 0.71875 0.5227273 0.4375 0.5500001 0.46875 0.5500001 0.46875 0.5227273 0.0625 0.5227273 0.0625 0.5500001 0.09375 0.5500001 0.9375 0.5500001 0.96875 0.5500001 0.96875 0.5227273 0.53125 0.5500001 0.5625 0.5500001 0.5625 0.5227273 0.28125 0.5500001 0.3125 0.5500001 0.3125 0.5227273 0.125 0.5500001 0.15625 0.5500001 0.15625 0.5227273 0.34375 0.5227273 0.34375 0.5500001 0.375 0.5500001 0.7080768 0.3157591 0.875 0.5625 0.7699525 0.5530794 0.875 0.5625 0.7942367 0.6043058 0.7886217 0.5866943 0.875 0.5625 0.7886217 0.5866943 0.7800062 0.5688685 0.7060627 0.3219581 0.7073137 0.3189378 0.7605115 0.5419221 0.7073137 0.3189378 0.7080768 0.3157591 0.7605115 0.5419221 0.7022314 0.3394353 0.7043545 0.3247455 0.7605115 0.5419221 0.7043545 0.3247455 0.7060627 0.3219581 0.7605115 0.5419221 0.6969582 0.3583545 0.6997455 0.3544878 0.7605115 0.5419221 0.6997455 0.3544878 0.7022314 0.3394353 0.7605115 0.5419221 0.6907591 0.3687384 0.6939379 0.3631439 0.7605115 0.5419221 0.6939379 0.3631439 0.6969582 0.3583545 0.7605115 0.5419221 0.6907591 0.3687384 0.7605115 0.5419221 0.7527566 0.5365039 0.6875 0.5 0.8125 0.5 0.7307446 0.5413058 0.8125 0.5 0.6907591 0.3687384 0.7527566 0.5365039 0.7390385 0.5378482 0.8125 0.5 0.7460757 0.535796 0.6393955 0.4722287 0.6425743 0.4651079 0.69341 0.5684101 0.6425743 0.4651079 0.6875 0.5 0.7017341 0.5590684 0.6335878 0.4868032 0.6363753 0.4795203 0.69341 0.5684101 0.6363753 0.4795203 0.6393955 0.4722287 0.69341 0.5684101 0.6289789 0.5257634 0.631102 0.506102 0.69341 0.5684101 0.631102 0.506102 0.6335878 0.4868032 0.69341 0.5684101 0.6260197 0.5431864 0.6272707 0.5341256 0.69341 0.5684101 0.6272707 0.5341256 0.6289789 0.5257634 0.69341 0.5684101 0.6260197 0.5431864 0.69341 0.5684101 0.6252565 0.5527229 0.625 0.5625 0.6252565 0.5527229 0.6868045 0.5794706 0.6868045 0.5794706 0.6252565 0.5527229 0.69341 0.5684101 0.6793735 0.6048219 0.6786612 0.6181002 0.625 0.5625 0.6821044 0.5917852 0.6793735 0.6048219 0.625 0.5625 0.6425743 0.4651079 0.7017341 0.5590684 0.69341 0.5684101 0.8125 0.5 0.7390385 0.5378482 0.7307446 0.5413058 0.875 0.5625 0.7800062 0.5688685 0.7699525 0.5530794 0.6821044 0.5917852 0.625 0.5625 0.6868045 0.5794706 0.6875 0.5 0.7307446 0.5413058 0.7212643 0.545816 0.7080768 0.3157591 0.7699525 0.5530794 0.7605115 0.5419221 0.7527566 0.5365039 0.7460757 0.535796 0.8125 0.5 0.7112897 0.5516083 0.7017341 0.5590684 0.6875 0.5</float_array>
          <technique_common>
            <accessor source="#Cylinder_008-mesh-map-0-array" count="2472" stride="2">
              <param name="S" type="float"/>
              <param name="T" type="float"/>
            </accessor>
          </technique_common>
        </source>
        <vertices id="Cylinder_008-mesh-vertices">
          <input semantic="POSITION" source="#Cylinder_008-mesh-positions"/>
        </vertices>
        <triangles material="Material-material" count="824">
          <input semantic="VERTEX" source="#Cylinder_008-mesh-vertices" offset="0"/>
          <input semantic="NORMAL" source="#Cylinder_008-mesh-normals" offset="1"/>
          <input semantic="TEXCOORD" source="#Cylinder_008-mesh-map-0" offset="2" set="0"/>
          <p>1 0 0 2 0 1 0 0 2 3 1 3 4 1 4 2 1 5 5 2 6 6 2 7 4 2 8 7 3 9 8 3 10 6 3 11 9 4 12 10 4 13 8 4 14 11 5 15 12 5 16 10 5 17 13 6 18 14 6 19 12 6 20 15 7 21 16 7 22 14 7 23 17 8 24 18 8 25 16 8 26 19 9 27 20 9 28 18 9 29 21 10 30 22 10 31 20 10 32 23 11 33 24 11 34 22 11 35 25 12 36 26 12 37 24 12 38 27 13 39 28 13 40 26 13 41 29 14 42 30 14 43 28 14 44 31 15 45 32 15 46 30 15 47 33 16 48 34 16 49 32 16 50 35 17 51 36 17 52 34 17 53 37 18 54 38 18 55 36 18 56 39 19 57 40 19 58 38 19 59 41 20 60 42 20 61 40 20 62 43 21 63 44 21 64 42 21 65 45 22 66 46 22 67 44 22 68 47 23 69 48 23 70 46 23 71 49 24 72 50 24 73 48 24 74 51 25 75 52 25 76 50 25 77 53 26 78 54 26 79 52 26 80 55 27 81 56 27 82 54 27 83 57 28 84 58 28 85 56 28 86 59 29 87 60 29 88 58 29 89 53 30 90 37 30 91 21 30 92 61 31 93 62 31 94 60 31 95 63 32 96 0 32 97 62 32 98 14 33 99 30 33 100 46 33 101 66 34 102 69 34 103 90 34 104 99 35 105 100 35 106 91 35 107 65 36 108 102 36 109 80 36 110 64 37 111 80 37 112 69 37 113 65 38 114 66 38 115 67 38 116 68 39 117 81 39 118 79 39 119 70 40 120 82 40 121 81 40 122 71 41 123 83 41 124 82 41 125 72 42 126 84 42 127 83 42 128 73 43 129 85 43 130 84 43 131 74 44 132 86 44 133 85 44 134 75 45 135 87 45 136 86 45 137 76 46 138 88 46 139 87 46 140 77 47 141 89 47 142 88 47 143 78 48 144 80 48 145 89 48 146 79 49 147 103 49 148 101 49 149 81 50 150 104 50 151 103 50 152 82 51 153 105 51 154 104 51 155 83 52 156 106 52 157 105 52 158 84 53 159 107 53 160 106 53 161 85 54 162 108 54 163 107 54 164 86 55 165 109 55 166 108 55 167 87 56 168 110 56 169 109 56 170 88 57 171 111 57 172 110 57 173 89 58 174 102 58 175 111 58 176 68 59 177 100 59 178 70 59 179 70 60 180 99 60 181 71 60 182 71 61 183 98 61 184 72 61 185 72 62 186 97 62 187 73 62 188 73 63 189 96 63 190 74 63 191 74 64 192 95 64 193 75 64 194 75 65 195 94 65 196 76 65 197 76 66 198 93 66 199 77 66 200 77 67 201 92 67 202 78 67 203 78 68 204 90 68 205 69 68 206 101 69 207 68 69 208 79 69 209 167 69 210 112 69 211 157 69 212 189 35 213 156 35 214 179 35 215 214 70 216 218 70 217 167 70 218 123 37 219 134 37 220 113 37 221 145 38 222 178 38 223 135 38 224 124 71 225 114 71 226 112 71 227 133 72 228 115 72 229 114 72 230 132 73 231 116 73 232 115 73 233 131 74 234 117 74 235 116 74 236 130 75 237 118 75 238 117 75 239 129 76 240 119 76 241 118 76 242 128 77 243 120 77 244 119 77 245 127 78 246 121 78 247 120 78 248 126 79 249 122 79 250 121 79 251 125 80 252 113 80 253 122 80 254 135 81 255 147 81 256 145 81 257 144 82 258 148 82 259 147 82 260 143 83 261 149 83 262 148 83 263 142 84 264 150 84 265 149 84 266 141 85 267 151 85 268 150 85 269 140 86 270 152 86 271 151 86 272 139 87 273 153 87 274 152 87 275 138 88 276 154 88 277 153 88 278 137 89 279 155 89 280 154 89 281 136 90 282 146 90 283 155 90 284 179 91 285 191 91 286 189 91 287 188 92 288 192 92 289 191 92 290 187 93 291 193 93 292 192 93 293 186 94 294 194 94 295 193 94 296 185 95 297 195 95 298 194 95 299 184 96 300 196 96 301 195 96 302 183 97 303 197 97 304 196 97 305 182 98 306 198 98 307 197 98 308 181 99 309 199 99 310 198 99 311 180 100 312 190 100 313 199 100 314 157 101 315 169 101 316 167 101 317 166 102 318 170 102 319 169 102 320 165 103 321 171 103 322 170 103 323 164 104 324 172 104 325 171 104 326 163 105 327 173 105 328 172 105 329 162 106 330 174 106 331 173 106 332 161 107 333 175 107 334 174 107 335 160 108 336 176 108 337 175 108 338 159 109 339 177 109 340 176 109 341 158 110 342 168 110 343 177 110 344 221 33 345 259 33 346 112 33 347 228 111 348 235 111 349 229 111 350 230 112 351 261 112 352 231 112 353 260 113 354 233 113 355 261 113 356 209 114 357 222 114 358 223 114 359 244 115 360 249 115 361 245 115 362 234 116 363 245 116 364 235 116 365 217 117 366 210 117 367 211 117 368 242 118 369 263 118 370 243 118 371 258 119 372 241 119 373 259 119 374 202 120 375 201 120 376 203 120 377 240 121 378 219 121 379 241 121 380 263 122 381 224 122 382 225 122 383 210 123 384 247 123 385 211 123 386 227 124 387 220 124 388 221 124 389 246 125 390 205 125 391 247 125 392 213 126 393 230 126 394 231 126 395 238 127 396 237 127 397 239 127 398 200 128 399 209 128 400 201 128 401 215 129 402 212 129 403 213 129 404 257 130 405 226 130 406 227 130 407 250 131 408 253 131 409 251 131 410 206 132 411 243 132 412 207 132 413 249 133 414 216 133 415 217 133 416 222 134 417 255 134 418 223 134 419 263 135 420 225 135 421 135 135 422 232 136 423 229 136 424 233 136 425 220 137 426 259 137 427 221 137 428 225 138 429 238 138 430 239 138 431 204 139 432 207 139 433 205 139 434 218 140 435 215 140 436 219 140 437 255 141 438 250 141 439 251 141 440 236 142 441 203 142 442 237 142 443 253 143 444 256 143 445 257 143 446 206 144 447 204 144 448 190 144 449 319 69 450 264 69 451 309 69 452 341 35 453 308 35 454 331 35 455 366 144 456 370 144 457 319 144 458 275 37 459 286 37 460 265 37 461 297 38 462 330 38 463 287 38 464 276 145 465 266 145 466 264 145 467 285 72 468 267 72 469 266 72 470 284 146 471 268 146 472 267 146 473 283 147 474 269 147 475 268 147 476 282 148 477 270 148 478 269 148 479 281 149 480 271 149 481 270 149 482 280 150 483 272 150 484 271 150 485 279 151 486 273 151 487 272 151 488 278 79 489 274 79 490 273 79 491 277 152 492 265 152 493 274 152 494 287 153 495 299 153 496 297 153 497 296 82 498 300 82 499 299 82 500 295 154 501 301 154 502 300 154 503 294 155 504 302 155 505 301 155 506 293 156 507 303 156 508 302 156 509 292 157 510 304 157 511 303 157 512 291 158 513 305 158 514 304 158 515 290 159 516 306 159 517 305 159 518 289 89 519 307 89 520 306 89 521 288 90 522 298 90 523 307 90 524 331 91 525 343 91 526 341 91 527 340 92 528 344 92 529 343 92 530 339 160 531 345 160 532 344 160 533 338 161 534 346 161 535 345 161 536 337 162 537 347 162 538 346 162 539 336 163 540 348 163 541 347 163 542 335 164 543 349 164 544 348 164 545 334 165 546 350 165 547 349 165 548 333 99 549 351 99 550 350 99 551 332 166 552 342 166 553 351 166 554 309 167 555 321 167 556 319 167 557 318 102 558 322 102 559 321 102 560 317 168 561 323 168 562 322 168 563 316 169 564 324 169 565 323 169 566 315 170 567 325 170 568 324 170 569 314 171 570 326 171 571 325 171 572 313 172 573 327 172 574 326 172 575 312 173 576 328 173 577 327 173 578 311 109 579 329 109 580 328 109 581 310 174 582 320 174 583 329 174 584 373 175 585 411 175 586 264 175 587 381 176 588 386 176 589 387 176 590 382 177 591 413 177 592 383 177 593 412 178 594 385 178 595 413 178 596 360 179 597 375 179 598 361 179 599 396 180 600 401 180 601 397 180 602 386 181 603 397 181 604 387 181 605 369 182 606 362 182 607 363 182 608 395 183 609 414 183 610 415 183 611 410 184 612 393 184 613 411 184 614 354 185 615 353 185 616 355 185 617 392 186 618 371 186 619 393 186 620 415 187 621 376 187 622 377 187 623 362 188 624 399 188 625 363 188 626 379 189 627 372 189 628 373 189 629 398 125 630 357 125 631 399 125 632 365 190 633 382 190 634 383 190 635 390 191 636 389 191 637 391 191 638 352 128 639 361 128 640 353 128 641 367 192 642 364 192 643 365 192 644 409 193 645 378 193 646 379 193 647 402 194 648 405 194 649 403 194 650 358 195 651 395 195 652 359 195 653 400 196 654 369 196 655 401 196 656 374 197 657 407 197 658 375 197 659 415 33 660 377 33 661 287 33 662 384 198 663 381 198 664 385 198 665 372 137 666 411 137 667 373 137 668 377 199 669 390 199 670 391 199 671 356 200 672 359 200 673 357 200 674 370 201 675 367 201 676 371 201 677 406 202 678 403 202 679 407 202 680 388 142 681 355 142 682 389 142 683 405 203 684 408 203 685 409 203 686 358 144 687 356 144 688 342 144 689 1 0 690 3 0 691 2 0 692 3 204 693 5 204 694 4 204 695 5 2 696 7 2 697 6 2 698 7 205 699 9 205 700 8 205 701 9 206 702 11 206 703 10 206 704 11 5 705 13 5 706 12 5 707 13 6 708 15 6 709 14 6 710 15 7 711 17 7 712 16 7 713 17 207 714 19 207 715 18 207 716 19 9 717 21 9 718 20 9 719 21 208 720 23 208 721 22 208 722 23 209 723 25 209 724 24 209 725 25 12 726 27 12 727 26 12 728 27 13 729 29 13 730 28 13 731 29 210 732 31 210 733 30 210 734 31 15 735 33 15 736 32 15 737 33 16 738 35 16 739 34 16 740 35 211 741 37 211 742 36 211 743 37 18 744 39 18 745 38 18 746 39 212 747 41 212 748 40 212 749 41 213 750 43 213 751 42 213 752 43 21 753 45 21 754 44 21 755 45 214 756 47 214 757 46 214 758 47 215 759 49 215 760 48 215 761 49 216 762 51 216 763 50 216 764 51 25 765 53 25 766 52 25 767 53 217 768 55 217 769 54 217 770 55 27 771 57 27 772 56 27 773 57 218 774 59 218 775 58 218 776 59 29 777 61 29 778 60 29 779 5 144 780 3 144 781 1 144 782 1 144 783 63 144 784 5 144 785 63 144 786 61 144 787 5 144 788 61 144 789 59 144 790 57 144 791 57 144 792 55 144 793 53 144 794 53 219 795 51 219 796 49 219 797 49 144 798 47 144 799 53 144 800 47 144 801 45 144 802 53 144 803 45 144 804 43 144 805 37 144 806 43 144 807 41 144 808 37 144 809 41 144 810 39 144 811 37 144 812 37 144 813 35 144 814 33 144 815 33 144 816 31 144 817 29 144 818 29 144 819 27 144 820 25 144 821 25 144 822 23 144 823 21 144 824 21 220 825 19 220 826 17 220 827 17 144 828 15 144 829 21 144 830 15 144 831 13 144 832 21 144 833 13 144 834 11 144 835 9 144 836 9 144 837 7 144 838 5 144 839 61 144 840 57 144 841 5 144 842 57 144 843 53 144 844 5 144 845 37 144 846 33 144 847 21 144 848 33 144 849 29 144 850 21 144 851 29 144 852 25 144 853 21 144 854 13 221 855 9 221 856 21 221 857 9 222 858 5 222 859 21 222 860 53 223 861 45 223 862 37 223 863 5 144 864 53 144 865 21 144 866 61 224 867 63 224 868 62 224 869 63 32 870 1 32 871 0 32 872 62 33 873 0 33 874 2 33 875 2 33 876 4 33 877 6 33 878 6 33 879 8 33 880 10 33 881 10 33 882 12 33 883 6 33 884 12 33 885 14 33 886 6 33 887 14 33 888 16 33 889 18 33 890 18 33 891 20 33 892 14 33 893 20 33 894 22 33 895 14 33 896 22 33 897 24 33 898 30 33 899 24 33 900 26 33 901 30 33 902 26 33 903 28 33 904 30 33 905 30 33 906 32 33 907 34 33 908 34 33 909 36 33 910 38 33 911 38 33 912 40 33 913 42 33 914 42 33 915 44 33 916 46 33 917 46 225 918 48 225 919 50 225 920 50 226 921 52 226 922 54 226 923 54 33 924 56 33 925 62 33 926 56 33 927 58 33 928 62 33 929 58 33 930 60 33 931 62 33 932 62 33 933 2 33 934 6 33 935 30 33 936 34 33 937 46 33 938 34 33 939 38 33 940 46 33 941 38 33 942 42 33 943 46 33 944 46 227 945 50 227 946 62 227 947 50 33 948 54 33 949 62 33 950 62 33 951 6 33 952 14 33 953 14 33 954 22 33 955 30 33 956 62 228 957 14 228 958 46 228 959 66 34 960 64 34 961 69 34 962 91 35 963 101 35 964 106 35 965 101 35 966 103 35 967 104 35 968 105 35 969 101 35 970 104 35 971 105 35 972 106 35 973 101 35 974 106 35 975 107 35 976 97 35 977 91 35 978 106 35 979 97 35 980 107 35 981 108 35 982 96 35 983 108 35 984 109 35 985 95 35 986 107 35 987 96 35 988 97 35 989 109 35 990 110 35 991 93 35 992 110 35 993 111 35 994 93 35 995 111 35 996 102 35 997 90 35 998 102 35 999 67 35 1000 90 35 1001 67 35 1002 66 35 1003 90 35 1004 90 35 1005 92 35 1006 111 35 1007 92 35 1008 93 35 1009 111 35 1010 93 35 1011 94 35 1012 109 35 1013 94 35 1014 95 35 1015 109 35 1016 95 35 1017 96 35 1018 108 35 1019 97 35 1020 98 35 1021 91 35 1022 98 35 1023 99 35 1024 91 35 1025 65 36 1026 67 36 1027 102 36 1028 64 229 1029 65 229 1030 80 229 1031 65 38 1032 64 38 1033 66 38 1034 68 230 1035 70 230 1036 81 230 1037 70 231 1038 71 231 1039 82 231 1040 71 232 1041 72 232 1042 83 232 1043 72 233 1044 73 233 1045 84 233 1046 73 234 1047 74 234 1048 85 234 1049 74 235 1050 75 235 1051 86 235 1052 75 236 1053 76 236 1054 87 236 1055 76 237 1056 77 237 1057 88 237 1058 77 238 1059 78 238 1060 89 238 1061 78 239 1062 69 239 1063 80 239 1064 79 240 1065 81 240 1066 103 240 1067 81 241 1068 82 241 1069 104 241 1070 82 242 1071 83 242 1072 105 242 1073 83 243 1074 84 243 1075 106 243 1076 84 244 1077 85 244 1078 107 244 1079 85 245 1080 86 245 1081 108 245 1082 86 246 1083 87 246 1084 109 246 1085 87 247 1086 88 247 1087 110 247 1088 88 248 1089 89 248 1090 111 248 1091 89 249 1092 80 249 1093 102 249 1094 68 250 1095 91 250 1096 100 250 1097 70 251 1098 100 251 1099 99 251 1100 71 252 1101 99 252 1102 98 252 1103 72 253 1104 98 253 1105 97 253 1106 73 254 1107 97 254 1108 96 254 1109 74 255 1110 96 255 1111 95 255 1112 75 256 1113 95 256 1114 94 256 1115 76 257 1116 94 257 1117 93 257 1118 77 258 1119 93 258 1120 92 258 1121 78 259 1122 92 259 1123 90 259 1124 101 69 1125 91 69 1126 68 69 1127 167 69 1128 124 69 1129 112 69 1130 189 35 1131 168 35 1132 156 35 1133 168 260 1134 189 260 1135 234 260 1136 168 261 1137 234 261 1138 228 261 1139 176 262 1140 177 262 1141 230 262 1142 177 144 1143 168 144 1144 260 144 1145 174 263 1146 175 263 1147 230 263 1148 175 144 1149 176 144 1150 230 144 1151 172 144 1152 173 144 1153 230 144 1154 173 144 1155 174 144 1156 230 144 1157 170 264 1158 171 264 1159 230 264 1160 171 144 1161 172 144 1162 230 144 1163 170 144 1164 230 144 1165 169 144 1166 167 144 1167 169 144 1168 212 144 1169 212 265 1170 169 265 1171 230 265 1172 133 144 1173 124 144 1174 226 144 1175 124 144 1176 167 144 1177 240 144 1178 131 144 1179 132 144 1180 256 144 1181 132 144 1182 133 144 1183 256 144 1184 256 265 1185 133 265 1186 226 265 1187 129 144 1188 130 144 1189 256 144 1190 130 144 1191 131 144 1192 256 144 1193 127 144 1194 128 144 1195 256 144 1196 128 144 1197 129 144 1198 256 144 1199 125 144 1200 126 144 1201 256 144 1202 126 144 1203 127 144 1204 256 144 1205 125 266 1206 256 266 1207 252 266 1208 146 260 1209 123 260 1210 222 260 1211 123 144 1212 125 144 1213 252 144 1214 250 144 1215 123 144 1216 252 144 1217 254 267 1218 222 267 1219 123 267 1220 250 144 1221 254 144 1222 123 144 1223 124 268 1224 240 268 1225 258 268 1226 177 269 1227 260 269 1228 230 269 1229 168 270 1230 228 270 1231 232 270 1232 168 271 1233 232 271 1234 260 271 1235 124 272 1236 258 272 1237 220 272 1238 124 273 1239 220 273 1240 226 273 1241 240 144 1242 167 144 1243 218 144 1244 212 274 1245 214 274 1246 167 274 1247 123 37 1248 146 37 1249 134 37 1250 145 38 1251 190 38 1252 178 38 1253 124 275 1254 133 275 1255 114 275 1256 133 276 1257 132 276 1258 115 276 1259 132 277 1260 131 277 1261 116 277 1262 131 147 1263 130 147 1264 117 147 1265 130 148 1266 129 148 1267 118 148 1268 129 278 1269 128 278 1270 119 278 1271 128 279 1272 127 279 1273 120 279 1274 127 280 1275 126 280 1276 121 280 1277 126 79 1278 125 79 1279 122 79 1280 125 281 1281 123 281 1282 113 281 1283 135 282 1284 144 282 1285 147 282 1286 144 283 1287 143 283 1288 148 283 1289 143 284 1290 142 284 1291 149 284 1292 142 155 1293 141 155 1294 150 155 1295 141 156 1296 140 156 1297 151 156 1298 140 285 1299 139 285 1300 152 285 1301 139 286 1302 138 286 1303 153 286 1304 138 287 1305 137 287 1306 154 287 1307 137 89 1308 136 89 1309 155 89 1310 136 288 1311 134 288 1312 146 288 1313 179 289 1314 188 289 1315 191 289 1316 188 92 1317 187 92 1318 192 92 1319 187 290 1320 186 290 1321 193 290 1322 186 291 1323 185 291 1324 194 291 1325 185 292 1326 184 292 1327 195 292 1328 184 163 1329 183 163 1330 196 163 1331 183 164 1332 182 164 1333 197 164 1334 182 293 1335 181 293 1336 198 293 1337 181 294 1338 180 294 1339 199 294 1340 180 295 1341 178 295 1342 190 295 1343 157 296 1344 166 296 1345 169 296 1346 166 297 1347 165 297 1348 170 297 1349 165 298 1350 164 298 1351 171 298 1352 164 169 1353 163 169 1354 172 169 1355 163 170 1356 162 170 1357 173 170 1358 162 299 1359 161 299 1360 174 299 1361 161 300 1362 160 300 1363 175 300 1364 160 301 1365 159 301 1366 176 301 1367 159 109 1368 158 109 1369 177 109 1370 158 302 1371 156 302 1372 168 302 1373 113 303 1374 134 303 1375 223 303 1376 113 304 1377 223 304 1378 255 304 1379 121 33 1380 122 33 1381 257 33 1382 122 33 1383 113 33 1384 253 33 1385 119 33 1386 120 33 1387 257 33 1388 120 33 1389 121 33 1390 257 33 1391 117 33 1392 118 33 1393 257 33 1394 118 33 1395 119 33 1396 257 33 1397 115 33 1398 116 33 1399 257 33 1400 116 305 1401 117 305 1402 257 305 1403 115 306 1404 257 306 1405 114 306 1406 112 307 1407 114 307 1408 227 307 1409 227 308 1410 114 308 1411 257 308 1412 166 33 1413 157 33 1414 213 33 1415 157 33 1416 112 33 1417 241 33 1418 164 309 1419 165 309 1420 231 309 1421 165 33 1422 166 33 1423 231 33 1424 231 310 1425 166 310 1426 213 310 1427 162 311 1428 163 311 1429 231 311 1430 163 312 1431 164 312 1432 231 312 1433 160 33 1434 161 33 1435 231 33 1436 161 313 1437 162 313 1438 231 313 1439 158 33 1440 159 33 1441 231 33 1442 159 314 1443 160 314 1444 231 314 1445 158 315 1446 231 315 1447 261 315 1448 179 33 1449 156 33 1450 235 33 1451 156 33 1452 158 33 1453 261 33 1454 233 316 1455 156 316 1456 261 316 1457 229 317 1458 235 317 1459 156 317 1460 233 33 1461 229 33 1462 156 33 1463 157 318 1464 241 318 1465 219 318 1466 122 33 1467 253 33 1468 257 33 1469 113 319 1470 255 319 1471 251 319 1472 113 320 1473 251 320 1474 253 320 1475 157 321 1476 219 321 1477 215 321 1478 157 322 1479 215 322 1480 213 322 1481 241 33 1482 112 33 1483 259 33 1484 227 323 1485 221 323 1486 112 323 1487 228 324 1488 234 324 1489 235 324 1490 230 325 1491 260 325 1492 261 325 1493 260 326 1494 232 326 1495 233 326 1496 209 327 1497 208 327 1498 222 327 1499 244 328 1500 248 328 1501 249 328 1502 234 329 1503 244 329 1504 245 329 1505 217 330 1506 216 330 1507 210 330 1508 242 331 1509 262 331 1510 263 331 1511 258 184 1512 240 184 1513 241 184 1514 202 332 1515 200 332 1516 201 332 1517 240 186 1518 218 186 1519 219 186 1520 263 333 1521 262 333 1522 224 333 1523 210 334 1524 246 334 1525 247 334 1526 227 335 1527 226 335 1528 220 335 1529 246 336 1530 204 336 1531 205 336 1532 213 337 1533 212 337 1534 230 337 1535 238 338 1536 236 338 1537 237 338 1538 200 339 1539 208 339 1540 209 339 1541 215 340 1542 214 340 1543 212 340 1544 257 341 1545 256 341 1546 226 341 1547 250 342 1548 252 342 1549 253 342 1550 206 343 1551 242 343 1552 243 343 1553 249 344 1554 248 344 1555 216 344 1556 222 345 1557 254 345 1558 255 345 1559 188 33 1560 179 33 1561 217 33 1562 179 346 1563 235 346 1564 245 346 1565 179 347 1566 245 347 1567 249 347 1568 186 348 1569 187 348 1570 211 348 1571 187 33 1572 188 33 1573 211 33 1574 184 33 1575 185 33 1576 211 33 1577 185 33 1578 186 33 1579 211 33 1580 182 349 1581 183 349 1582 211 349 1583 183 33 1584 184 33 1585 211 33 1586 180 33 1587 181 33 1588 211 33 1589 181 309 1590 182 309 1591 211 309 1592 180 350 1593 211 350 1594 247 350 1595 135 351 1596 178 351 1597 243 351 1598 178 352 1599 180 352 1600 247 352 1601 207 33 1602 178 33 1603 205 33 1604 143 353 1605 144 353 1606 237 353 1607 144 33 1608 135 33 1609 239 33 1610 141 305 1611 142 305 1612 237 305 1613 142 33 1614 143 33 1615 237 33 1616 139 33 1617 140 33 1618 237 33 1619 140 313 1620 141 313 1621 237 313 1622 137 348 1623 138 348 1624 237 348 1625 138 33 1626 139 33 1627 237 33 1628 137 33 1629 237 33 1630 136 33 1631 134 33 1632 136 33 1633 203 33 1634 203 33 1635 136 33 1636 237 33 1637 209 354 1638 223 354 1639 134 354 1640 201 355 1641 209 355 1642 134 355 1643 144 356 1644 239 356 1645 237 356 1646 178 357 1647 207 357 1648 243 357 1649 179 33 1650 249 33 1651 217 33 1652 201 33 1653 134 33 1654 203 33 1655 135 358 1656 243 358 1657 263 358 1658 188 359 1659 217 359 1660 211 359 1661 247 33 1662 205 33 1663 178 33 1664 225 360 1665 239 360 1666 135 360 1667 232 361 1668 228 361 1669 229 361 1670 220 362 1671 258 362 1672 259 362 1673 225 363 1674 224 363 1675 238 363 1676 204 364 1677 206 364 1678 207 364 1679 218 365 1680 214 365 1681 215 365 1682 255 366 1683 254 366 1684 250 366 1685 236 367 1686 202 367 1687 203 367 1688 253 368 1689 252 368 1690 256 368 1691 155 369 1692 146 369 1693 202 369 1694 146 370 1695 222 370 1696 208 370 1697 146 371 1698 208 371 1699 200 371 1700 153 144 1701 154 144 1702 236 144 1703 154 144 1704 155 144 1705 236 144 1706 151 372 1707 152 372 1708 236 372 1709 152 144 1710 153 144 1711 236 144 1712 149 263 1713 150 263 1714 236 263 1715 150 373 1716 151 373 1717 236 373 1718 147 144 1719 148 144 1720 236 144 1721 148 144 1722 149 144 1723 236 144 1724 147 374 1725 236 374 1726 238 374 1727 190 144 1728 145 144 1729 242 144 1730 145 375 1731 147 375 1732 238 375 1733 262 144 1734 145 144 1735 224 144 1736 198 144 1737 199 144 1738 210 144 1739 199 144 1740 190 144 1741 246 144 1742 196 144 1743 197 144 1744 210 144 1745 197 264 1746 198 264 1747 210 264 1748 194 144 1749 195 144 1750 210 144 1751 195 144 1752 196 144 1753 210 144 1754 192 376 1755 193 376 1756 210 376 1757 193 144 1758 194 144 1759 210 144 1760 192 377 1761 210 377 1762 191 377 1763 189 144 1764 191 144 1765 216 144 1766 216 378 1767 191 378 1768 210 378 1769 244 379 1770 234 379 1771 189 379 1772 248 144 1773 244 144 1774 189 144 1775 199 380 1776 246 380 1777 210 380 1778 145 381 1779 262 381 1780 242 381 1781 146 382 1782 200 382 1783 202 382 1784 248 383 1785 189 383 1786 216 383 1787 190 384 1788 242 384 1789 206 384 1790 155 385 1791 202 385 1792 236 385 1793 238 386 1794 224 386 1795 145 386 1796 204 144 1797 246 144 1798 190 144 1799 319 69 1800 276 69 1801 264 69 1802 341 35 1803 320 35 1804 308 35 1805 320 387 1806 341 387 1807 386 387 1808 320 388 1809 386 388 1810 380 388 1811 328 144 1812 329 144 1813 382 144 1814 329 144 1815 320 144 1816 412 144 1817 326 144 1818 327 144 1819 382 144 1820 327 144 1821 328 144 1822 382 144 1823 324 144 1824 325 144 1825 382 144 1826 325 389 1827 326 389 1828 382 389 1829 322 144 1830 323 144 1831 382 144 1832 323 144 1833 324 144 1834 382 144 1835 322 144 1836 382 144 1837 321 144 1838 319 390 1839 321 390 1840 364 390 1841 364 391 1842 321 391 1843 382 391 1844 285 144 1845 276 144 1846 378 144 1847 276 144 1848 319 144 1849 392 144 1850 283 144 1851 284 144 1852 408 144 1853 284 377 1854 285 377 1855 408 377 1856 408 144 1857 285 144 1858 378 144 1859 281 144 1860 282 144 1861 408 144 1862 282 392 1863 283 392 1864 408 392 1865 279 144 1866 280 144 1867 408 144 1868 280 393 1869 281 393 1870 408 393 1871 277 144 1872 278 144 1873 408 144 1874 278 394 1875 279 394 1876 408 394 1877 277 144 1878 408 144 1879 404 144 1880 298 395 1881 275 395 1882 374 395 1883 275 144 1884 277 144 1885 404 144 1886 402 382 1887 275 382 1888 404 382 1889 406 396 1890 374 396 1891 275 396 1892 402 397 1893 406 397 1894 275 397 1895 276 398 1896 392 398 1897 410 398 1898 329 399 1899 412 399 1900 382 399 1901 320 400 1902 380 400 1903 384 400 1904 320 401 1905 384 401 1906 412 401 1907 276 402 1908 410 402 1909 372 402 1910 276 403 1911 372 403 1912 378 403 1913 392 404 1914 319 404 1915 370 404 1916 364 405 1917 366 405 1918 319 405 1919 275 37 1920 298 37 1921 286 37 1922 297 38 1923 342 38 1924 330 38 1925 276 406 1926 285 406 1927 266 406 1928 285 276 1929 284 276 1930 267 276 1931 284 407 1932 283 407 1933 268 407 1934 283 74 1935 282 74 1936 269 74 1937 282 75 1938 281 75 1939 270 75 1940 281 408 1941 280 408 1942 271 408 1943 280 409 1944 279 409 1945 272 409 1946 279 410 1947 278 410 1948 273 410 1949 278 79 1950 277 79 1951 274 79 1952 277 411 1953 275 411 1954 265 411 1955 287 412 1956 296 412 1957 299 412 1958 296 283 1959 295 283 1960 300 283 1961 295 413 1962 294 413 1963 301 413 1964 294 84 1965 293 84 1966 302 84 1967 293 85 1968 292 85 1969 303 85 1970 292 414 1971 291 414 1972 304 414 1973 291 415 1974 290 415 1975 305 415 1976 290 416 1977 289 416 1978 306 416 1979 289 89 1980 288 89 1981 307 89 1982 288 288 1983 286 288 1984 298 288 1985 331 289 1986 340 289 1987 343 289 1988 340 92 1989 339 92 1990 344 92 1991 339 417 1992 338 417 1993 345 417 1994 338 418 1995 337 418 1996 346 418 1997 337 419 1998 336 419 1999 347 419 2000 336 96 2001 335 96 2002 348 96 2003 335 97 2004 334 97 2005 349 97 2006 334 420 2007 333 420 2008 350 420 2009 333 294 2010 332 294 2011 351 294 2012 332 421 2013 330 421 2014 342 421 2015 309 422 2016 318 422 2017 321 422 2018 318 297 2019 317 297 2020 322 297 2021 317 423 2022 316 423 2023 323 423 2024 316 104 2025 315 104 2026 324 104 2027 315 105 2028 314 105 2029 325 105 2030 314 424 2031 313 424 2032 326 424 2033 313 425 2034 312 425 2035 327 425 2036 312 426 2037 311 426 2038 328 426 2039 311 109 2040 310 109 2041 329 109 2042 310 427 2043 308 427 2044 320 427 2045 265 428 2046 286 428 2047 375 428 2048 265 429 2049 375 429 2050 407 429 2051 273 33 2052 274 33 2053 409 33 2054 274 352 2055 265 352 2056 405 352 2057 271 430 2058 272 430 2059 409 430 2060 272 33 2061 273 33 2062 409 33 2063 269 33 2064 270 33 2065 409 33 2066 270 431 2067 271 431 2068 409 431 2069 267 33 2070 268 33 2071 409 33 2072 268 432 2073 269 432 2074 409 432 2075 267 33 2076 409 33 2077 266 33 2078 264 33 2079 266 33 2080 379 33 2081 379 433 2082 266 433 2083 409 433 2084 318 33 2085 309 33 2086 365 33 2087 309 33 2088 264 33 2089 393 33 2090 316 434 2091 317 434 2092 383 434 2093 317 33 2094 318 33 2095 383 33 2096 383 435 2097 318 435 2098 365 435 2099 314 33 2100 315 33 2101 383 33 2102 315 33 2103 316 33 2104 383 33 2105 312 432 2106 313 432 2107 383 432 2108 313 436 2109 314 436 2110 383 436 2111 310 33 2112 311 33 2113 383 33 2114 311 33 2115 312 33 2116 383 33 2117 310 437 2118 383 437 2119 413 437 2120 331 33 2121 308 33 2122 387 33 2123 308 33 2124 310 33 2125 413 33 2126 385 33 2127 308 33 2128 413 33 2129 381 438 2130 387 438 2131 308 438 2132 385 33 2133 381 33 2134 308 33 2135 309 439 2136 393 439 2137 371 439 2138 274 440 2139 405 440 2140 409 440 2141 265 441 2142 407 441 2143 403 441 2144 265 33 2145 403 33 2146 405 33 2147 309 442 2148 371 442 2149 367 442 2150 309 443 2151 367 443 2152 365 443 2153 393 444 2154 264 444 2155 411 444 2156 379 445 2157 373 445 2158 264 445 2159 381 446 2160 380 446 2161 386 446 2162 382 447 2163 412 447 2164 413 447 2165 412 448 2166 384 448 2167 385 448 2168 360 449 2169 374 449 2170 375 449 2171 396 450 2172 400 450 2173 401 450 2174 386 451 2175 396 451 2176 397 451 2177 369 452 2178 368 452 2179 362 452 2180 395 453 2181 394 453 2182 414 453 2183 410 119 2184 392 119 2185 393 119 2186 354 454 2187 352 454 2188 353 454 2189 392 121 2190 370 121 2191 371 121 2192 415 455 2193 414 455 2194 376 455 2195 362 456 2196 398 456 2197 399 456 2198 379 457 2199 378 457 2200 372 457 2201 398 336 2202 356 336 2203 357 336 2204 365 458 2205 364 458 2206 382 458 2207 390 459 2208 388 459 2209 389 459 2210 352 460 2211 360 460 2212 361 460 2213 367 461 2214 366 461 2215 364 461 2216 409 462 2217 408 462 2218 378 462 2219 402 463 2220 404 463 2221 405 463 2222 358 464 2223 394 464 2224 395 464 2225 400 133 2226 368 133 2227 369 133 2228 374 465 2229 406 465 2230 407 465 2231 340 33 2232 331 33 2233 369 33 2234 331 466 2235 387 466 2236 397 466 2237 331 467 2238 397 467 2239 401 467 2240 338 33 2241 339 33 2242 363 33 2243 339 33 2244 340 33 2245 363 33 2246 336 33 2247 337 33 2248 363 33 2249 337 432 2250 338 432 2251 363 432 2252 334 33 2253 335 33 2254 363 33 2255 335 468 2256 336 468 2257 363 468 2258 332 33 2259 333 33 2260 363 33 2261 333 434 2262 334 434 2263 363 434 2264 332 469 2265 363 469 2266 399 469 2267 287 470 2268 330 470 2269 395 470 2270 330 33 2271 332 33 2272 399 33 2273 359 471 2274 330 471 2275 357 471 2276 295 33 2277 296 33 2278 389 33 2279 296 33 2280 287 33 2281 391 33 2282 293 33 2283 294 33 2284 389 33 2285 294 472 2286 295 472 2287 389 472 2288 291 431 2289 292 431 2290 389 431 2291 292 33 2292 293 33 2293 389 33 2294 289 33 2295 290 33 2296 389 33 2297 290 33 2298 291 33 2299 389 33 2300 289 33 2301 389 33 2302 288 33 2303 286 33 2304 288 33 2305 355 33 2306 355 33 2307 288 33 2308 389 33 2309 361 473 2310 375 473 2311 286 473 2312 353 474 2313 361 474 2314 286 474 2315 296 475 2316 391 475 2317 389 475 2318 330 476 2319 359 476 2320 395 476 2321 331 33 2322 401 33 2323 369 33 2324 353 477 2325 286 477 2326 355 477 2327 287 478 2328 395 478 2329 415 478 2330 340 33 2331 369 33 2332 363 33 2333 399 33 2334 357 33 2335 330 33 2336 377 479 2337 391 479 2338 287 479 2339 384 480 2340 380 480 2341 381 480 2342 372 481 2343 410 481 2344 411 481 2345 377 482 2346 376 482 2347 390 482 2348 356 483 2349 358 483 2350 359 483 2351 370 484 2352 366 484 2353 367 484 2354 406 141 2355 402 141 2356 403 141 2357 388 367 2358 354 367 2359 355 367 2360 405 368 2361 404 368 2362 408 368 2363 307 485 2364 298 485 2365 354 485 2366 298 486 2367 374 486 2368 360 486 2369 298 487 2370 360 487 2371 352 487 2372 305 144 2373 306 144 2374 388 144 2375 306 144 2376 307 144 2377 388 144 2378 303 488 2379 304 488 2380 388 488 2381 304 489 2382 305 489 2383 388 489 2384 301 144 2385 302 144 2386 388 144 2387 302 393 2388 303 393 2389 388 393 2390 299 144 2391 300 144 2392 388 144 2393 300 144 2394 301 144 2395 388 144 2396 299 144 2397 388 144 2398 390 144 2399 342 144 2400 297 144 2401 394 144 2402 297 144 2403 299 144 2404 390 144 2405 414 144 2406 297 144 2407 376 144 2408 350 144 2409 351 144 2410 362 144 2411 351 144 2412 342 144 2413 398 144 2414 348 490 2415 349 490 2416 362 490 2417 349 491 2418 350 491 2419 362 491 2420 346 144 2421 347 144 2422 362 144 2423 347 144 2424 348 144 2425 362 144 2426 344 144 2427 345 144 2428 362 144 2429 345 144 2430 346 144 2431 362 144 2432 344 144 2433 362 144 2434 343 144 2435 341 144 2436 343 144 2437 368 144 2438 368 144 2439 343 144 2440 362 144 2441 396 144 2442 386 144 2443 341 144 2444 400 144 2445 396 144 2446 341 144 2447 351 492 2448 398 492 2449 362 492 2450 297 493 2451 414 493 2452 394 493 2453 298 494 2454 352 494 2455 354 494 2456 400 144 2457 341 144 2458 368 144 2459 342 495 2460 394 495 2461 358 495 2462 307 496 2463 354 496 2464 388 496 2465 390 497 2466 376 497 2467 297 497 2468 356 144 2469 398 144 2470 342 144 2471</p>
        </triangles>
      </mesh>
    </geometry>
  </library_geometries>
  <library_visual_scenes>
    <visual_scene id="Scene" name="Scene">
      <node id="Cylinder_008" name="Cylinder.008" type="NODE">
        <matrix sid="transform">0.0025 0 0 0 0 0.0025 1.13467e-7 0 0 -5.67337e-8 0.004999999 0 0 0 0 1</matrix>
        <instance_geometry url="#Cylinder_008-mesh" name="Cylinder.008">
          <bind_material>
            <technique_common>
              <instance_material symbol="Material-material" target="#Material-material">
                <bind_vertex_input semantic="UVMap" input_semantic="TEXCOORD" input_set="0"/>
              </instance_material>
            </technique_common>
          </bind_material>
        </instance_geometry>
      </node>
    </visual_scene>
  </library_visual_scenes>
  <scene>
    <instance_visual_scene url="#Scene"/>
  </scene>
</COLLADA>