<?xml version="1.0" encoding="utf-8"?>
<COLLADA xmlns="http://www.collada.org/2005/11/COLLADASchema" version="1.4.1" xmlns:xsi="http://www.w3.org/2001/XMLSchema-instance">
  <asset>
    <contributor>
      <author>Blender User</author>
      <authoring_tool>Blender 2.83.20 commit date:2022-04-19, commit time:16:00, hash:a56e2faeb7a9</authoring_tool>
    </contributor>
    <created>2026-07-03T14:06:06</created>
    <modified>2026-07-03T14:06:06</modified>
    <unit name="meter" meter="1"/>
    <up_axis>Z_UP</up_axis>
  </asset>
  <library_effects>
    <effect id="blinn1_001-effect">
      <profile_COMMON>
        <newparam sid="blinn1_albedo_jpg-surface">
          <surface type="2D">
            <init_from>blinn1_albedo_jpg</init_from>
          </surface>
        </newparam>
        <newparam sid="blinn1_albedo_jpg-sampler">
          <sampler2D>
            <source>blinn1_albedo_jpg-surface</source>
          </sampler2D>
        </newparam>
        <technique sid="common">
          <lambert>
            <emission>
              <color sid="emission">0 0 0 1</color>
            </emission>
            <diffuse>
              <texture texture="blinn1_albedo_jpg-sampler" texcoord="meshId0-tex0"/>
            </diffuse>
            <index_of_refraction>
              <float sid="ior">1.45</float>
            </index_of_refraction>
          </lambert>
        </technique>
      </profile_COMMON>
    </effect>
  </library_effects>
  <library_images>
    <image id="blinn1_albedo_jpg" name="blinn1_albedo_jpg">
      <init_from>blinn1_albedo.jpg</init_from>
    </image>
  </library_images>
  <library_materials>
    <material id="blinn1_001-material" name="blinn1.001">
      <instance_effect url="#blinn1_001-effect"/>
    </material>
  </library_materials>
  <library_geometries>
    <geometry id="meshId0_name_002-mesh" name="meshId0_name.002">
      <mesh>
        <source id="meshId0_name_002-mesh-positions">
          <float_array id="meshId0_name_002-mesh-positions-array" count="453">0 0 0 0 0 -7.619237 9.019138 0 -7.619237 9.019138 0 0 0 11.45651 -61.2313 7.705348 11.45651 -61.2313 9.019138 0 -46.9696 0 0 -46.9696 0 0 -50.65585 9.019138 0 -50.65585 9.019138 11.45651 -7.619237 9.019138 0 -7.619237 0 0 -7.619237 0 11.45651 -7.619237 7.705348 0 -61.2313 0 0 -61.2313 9.019138 0 -50.65585 9.019141 11.45651 -50.65585 9.019139 11.45651 -46.9696 9.019138 0 -46.9696 9.019137 11.45651 -43.28335 0 11.45651 -43.28336 0 0 -43.28336 9.019138 0 -43.28336 0 0 -53.84106 9.019138 0 -53.84106 9.019138 0 -53.84106 9.019138 11.45651 -53.84106 0 0 -60 9.019138 0 -60 9.019138 11.45651 -60 9.019138 0 -60 9.019138 11.45651 0 9.019138 0 0 9.019138 0 -7.619237 9.019138 11.45651 -7.619237 9.019137 11.45651 -43.28335 9.019138 0 -43.28336 0 0 -43.28336 9.019138 0 -43.28336 9.019138 11.45651 -60 7.705348 11.45651 -61.2313 9.019138 0 -60 7.705348 0 -61.2313 9.019138 0 -60 0 0 -61.2313 7.705348 0 -61.2313 -9.019138 0 0 -9.019138 0 -7.619237 -7.705348 11.45651 -61.2313 -9.019138 0 -46.9696 -9.019138 0 -50.65585 -9.019138 11.45651 -7.619237 -9.019138 0 -7.619237 -7.705348 0 -61.2313 -9.019138 0 -50.65585 -9.019138 0 -46.9696 -9.019139 11.45651 -46.9696 -9.019141 11.45651 -50.65585 -9.019137 11.45651 -43.28335 -9.019138 0 -43.28336 -9.019138 0 -53.84106 -9.019138 11.45651 -53.84106 -9.019138 0 -53.84106 -9.019138 0 -60 -9.019138 11.45651 -60 -9.019138 0 -60 -9.019138 11.45651 0 -9.019138 11.45651 -7.619237 -9.019138 0 -7.619237 -9.019138 0 0 -9.019138 0 -43.28336 -9.019137 11.45651 -43.28335 -9.019138 0 -43.28336 -7.705348 11.45651 -61.2313 -9.019138 11.45651 -60 -7.705348 0 -61.2313 -9.019138 0 -60 -7.705348 0 -61.2313 0 0 7.619237 -9.019138 0 7.619237 0 11.45651 61.2313 -7.705348 11.45651 61.2313 -9.019138 0 46.9696 0 0 46.9696 0 0 50.65585 -9.019138 0 50.65585 -9.019138 11.45651 7.619237 -9.019138 0 7.619237 0 0 7.619237 0 11.45651 7.619237 -7.705348 0 61.2313 0 0 61.2313 -9.019138 0 50.65585 -9.019141 11.45651 50.65585 -9.019139 11.45651 46.9696 -9.019138 0 46.9696 -9.019137 11.45651 43.28335 0 11.45651 43.28336 0 0 43.28336 -9.019138 0 43.28336 0 0 53.84106 -9.019138 0 53.84106 -9.019138 0 53.84106 -9.019138 11.45651 53.84106 0 0 60 -9.019138 0 60 -9.019138 11.45651 60 -9.019138 0 60 -9.019138 0 7.619237 -9.019138 11.45651 7.619237 -9.019137 11.45651 43.28335 -9.019138 0 43.28336 0 0 43.28336 -9.019138 0 43.28336 -9.019138 11.45651 60 -7.705348 11.45651 61.2313 -9.019138 0 60 -7.705348 0 61.2313 -9.019138 0 60 0 0 61.2313 -7.705348 0 61.2313 9.019138 0 7.619237 7.705348 11.45651 61.2313 9.019138 0 46.9696 9.019138 0 50.65585 9.019138 11.45651 7.619237 9.019138 0 7.619237 7.705348 0 61.2313 9.019138 0 50.65585 9.019138 0 46.9696 9.019139 11.45651 46.9696 9.019141 11.45651 50.65585 9.019137 11.45651 43.28335 9.019138 0 43.28336 9.019138 0 53.84106 9.019138 11.45651 53.84106 9.019138 0 53.84106 9.019138 0 60 9.019138 11.45651 60 9.019138 0 60 9.019138 11.45651 7.619237 9.019138 0 7.619237 9.019138 0 43.28336 9.019137 11.45651 43.28335 9.019138 0 43.28336 7.705348 11.45651 61.2313 9.019138 11.45651 60 7.705348 0 61.2313 9.019138 0 60 7.705348 0 61.2313</float_array>
          <technique_common>
            <accessor source="#meshId0_name_002-mesh-positions-array" count="151" stride="3">
              <param name="X" type="float"/>
              <param name="Y" type="float"/>
              <param name="Z" type="float"/>
            </accessor>
          </technique_common>
        </source>
        <source id="meshId0_name_002-mesh-normals">
          <float_array id="meshId0_name_002-mesh-normals-array" count="117">0 -1 0 0 0 -1 1 -1.84114e-7 0 1 -1.80656e-7 5.17422e-7 -5.90694e-7 -3.32972e-7 1 0 0 1 1 0 -8.98219e-7 1 0 0 1 -1.80657e-7 0 1 1.84113e-7 5.17422e-7 0.6838307 0 -0.7296408 -1 -1.80656e-7 0 -1 -1.80656e-7 5.17422e-7 5.90694e-7 -3.32972e-7 1 -1 0 -8.98219e-7 -1 0 0 -1 -1.80657e-7 0 -1 1.80656e-7 5.17422e-7 -0.6838307 0 -0.7296408 -1 -1.84114e-7 0 -1 -1.80656e-7 -5.17422e-7 5.90694e-7 -3.32972e-7 -1 -1 0 8.98219e-7 -1 1.84113e-7 -5.17422e-7 -0.6838307 0 0.7296408 1 -1.80656e-7 0 1 -1.80656e-7 -5.17422e-7 -5.90694e-7 -3.32972e-7 -1 1 0 8.98219e-7 1 1.80656e-7 -5.17422e-7 0.6838307 0 0.7296408 0 1 0 0 1 0 0 1 0 0 1 0 0 1 0 0 1 0 0 1 4.76837e-7 0 1 0</float_array>
          <technique_common>
            <accessor source="#meshId0_name_002-mesh-normals-array" count="39" stride="3">
              <param name="X" type="float"/>
              <param name="Y" type="float"/>
              <param name="Z" type="float"/>
            </accessor>
          </technique_common>
        </source>
        <source id="meshId0_name_002-mesh-map-0">
          <float_array id="meshId0_name_002-mesh-map-0-array" count="960">0.07665497 0.811961 0.03832697 0.811961 0.03832697 0.780718 0.03832697 0.780718 0.07665497 0.780718 0.07665497 0.811961 0.410479 0.804508 0.394814 0.804508 0.394814 0.767524 0.394814 0.767524 0.410479 0.767524 0.410479 0.804508 0.732803 0.730971 0.732803 0.767955 0.684117 0.767955 0.684117 0.767955 0.684117 0.730971 0.732803 0.730971 0.12282 0.827924 0.09007596 0.827924 0.09007596 0.780946 0.09007596 0.780946 0.12282 0.780946 0.12282 0.827924 0.737693 0.548481 0.737693 0.533365 0.786378 0.533365 0.786378 0.533365 0.786378 0.548481 0.737693 0.548481 0.737693 0.563596 0.786378 0.563596 0.786378 0.60058 0.786378 0.60058 0.737693 0.60058 0.737693 0.563596 0.424015 0.804508 0.410479 0.804508 0.410479 0.767524 0.410479 0.767524 0.424015 0.767524 0.424015 0.804508 0.786378 0.520304 0.786378 0.533365 0.737693 0.533365 0.737693 0.533365 0.737693 0.520304 0.786378 0.520304 0.450188 0.804508 0.424015 0.804508 0.424015 0.767524 0.424015 0.767524 0.450188 0.767524 0.450188 0.804508 0.737693 0.495049 0.786378 0.495049 0.786378 0.520304 0.786378 0.520304 0.737693 0.520304 0.737693 0.495049 0.732802 0.495049 0.732802 0.526292 0.684117 0.526292 0.684117 0.526292 0.684117 0.495049 0.732802 0.495049 0.737693 0.563596 0.737693 0.548481 0.786378 0.548481 0.786378 0.548481 0.786378 0.563596 0.737693 0.563596 0.379149 0.804508 0.379149 0.767524 0.394814 0.767524 0.394814 0.767524 0.394814 0.804508 0.379149 0.804508 0.09007596 0.827924 0.08242398 0.827924 0.08242398 0.780946 0.08242398 0.780946 0.09007596 0.780946 0.09007596 0.827924 0.45542 0.799121 0.450188 0.804508 0.450188 0.767524 0.450188 0.767524 0.45542 0.767524 0.45542 0.799121 0.03832697 0.780718 0.03832697 0.811961 0 0.811961 0 0.811961 0 0.780718 0.03832697 0.780718 0.394814 0.767524 0.394814 0.730541 0.410479 0.730541 0.410479 0.730541 0.410479 0.767524 0.394814 0.767524 0.684117 0.693988 0.732803 0.693988 0.732803 0.730971 0.732803 0.730971 0.684117 0.730971 0.684117 0.693988 0.155564 0.780946 0.155564 0.827924 0.12282 0.827924 0.12282 0.827924 0.12282 0.780946 0.155564 0.780946 0.786378 0.667794 0.737693 0.667794 0.737693 0.652679 0.737693 0.652679 0.786378 0.652679 0.786378 0.667794 0.786378 0.60058 0.786378 0.637563 0.737693 0.637563 0.737693 0.637563 0.737693 0.60058 0.786378 0.60058 0.410479 0.767524 0.410479 0.730541 0.424015 0.730541 0.424015 0.730541 0.424015 0.767524 0.410479 0.767524 0.737693 0.667794 0.786378 0.667794 0.786378 0.680855 0.786378 0.680855 0.737693 0.680855 0.737693 0.667794 0.424015 0.767524 0.424015 0.730541 0.450188 0.730541 0.450188 0.730541 0.450188 0.767524 0.424015 0.767524 0.786378 0.680855 0.786378 0.70611 0.737693 0.70611 0.737693 0.70611 0.737693 0.680855 0.786378 0.680855 0.684117 0.662745 0.732803 0.662745 0.732803 0.693988 0.732803 0.693988 0.684117 0.693988 0.684117 0.662745 0.786378 0.652679 0.737693 0.652679 0.737693 0.637563 0.737693 0.637563 0.786378 0.637563 0.786378 0.652679 0.394814 0.767524 0.379149 0.767524 0.379149 0.730541 0.379149 0.730541 0.394814 0.730541 0.394814 0.767524 0.1632159 0.780946 0.1632159 0.827923 0.155564 0.827924 0.155564 0.827924 0.155564 0.780946 0.1632159 0.780946 0.450188 0.767524 0.450188 0.730541 0.45542 0.735928 0.45542 0.735928 0.45542 0.767524 0.450188 0.767524 0 0.811961 0.03832697 0.811961 0.03832697 0.843204 0.03832697 0.843204 0 0.843204 0 0.811961 0.328055 0.80084 0.31239 0.80084 0.312391 0.763857 0.312391 0.763857 0.328055 0.763857 0.328055 0.80084 0.732802 0.594518 0.732802 0.631502 0.684117 0.631502 0.684117 0.631502 0.684117 0.594518 0.732802 0.594518 0.831664 0.693494 0.79892 0.693495 0.79892 0.646517 0.79892 0.646517 0.831664 0.646517 0.831664 0.693494 0.1634899 0.730971 0.1791549 0.731012 0.179023 0.77799 0.179023 0.77799 0.163358 0.777948 0.1634899 0.730971 0.147826 0.730929 0.147693 0.777907 0.1093659 0.777806 0.1093659 0.777806 0.109498 0.730828 0.147826 0.730929 0.341591 0.80084 0.328055 0.80084 0.328055 0.763857 0.328055 0.763857 0.341591 0.763857 0.341591 0.80084 0.192558 0.778025 0.179023 0.77799 0.1791549 0.731012 0.1791549 0.731012 0.192691 0.731047 0.192558 0.778025 0.367764 0.80084 0.341591 0.80084 0.341591 0.763857 0.341591 0.763857 0.367764 0.763857 0.367764 0.80084 0.218864 0.731116 0.218731 0.778094 0.192558 0.778025 0.192558 0.778025 0.192691 0.731047 0.218864 0.731116 0.732802 0.631502 0.732803 0.662745 0.684117 0.662745 0.684117 0.662745 0.684117 0.631502 0.732802 0.631502 0.147826 0.730929 0.1634899 0.730971 0.163358 0.777948 0.163358 0.777948 0.147693 0.777907 0.147826 0.730929 0.296725 0.80084 0.296725 0.763857 0.312391 0.763857 0.312391 0.763857 0.31239 0.80084 0.296725 0.80084 0.79892 0.693495 0.791268 0.693495 0.791268 0.646517 0.791268 0.646517 0.79892 0.646517 0.79892 0.693495 0.372997 0.795453 0.367764 0.80084 0.367764 0.763857 0.367764 0.763857 0.372997 0.763857 0.372997 0.795453 0.03832697 0.843204 0.03832697 0.811961 0.07665497 0.811961 0.07665497 0.811961 0.07665497 0.843204 0.03832697 0.843204 0.312391 0.763857 0.312391 0.726873 0.328055 0.726873 0.328055 0.726873 0.328055 0.763857 0.312391 0.763857 0.684117 0.557535 0.732802 0.557535 0.732802 0.594518 0.732802 0.594518 0.684117 0.594518 0.684117 0.557535 0.864409 0.646517 0.864409 0.693495 0.831664 0.693494 0.831664 0.693494 0.831664 0.646517 0.864409 0.646517 0.03970795 0.777623 0.03984099 0.730645 0.05550599 0.730686 0.05550599 0.730686 0.05537295 0.777664 0.03970795 0.777623 0.1093659 0.777806 0.071038 0.777706 0.07117098 0.730728 0.07117098 0.730728 0.109498 0.730828 0.1093659 0.777806 0.328055 0.763857 0.328055 0.726873 0.341591 0.726873 0.341591 0.726873 0.341591 0.763857 0.328055 0.763857 0.03984099 0.730645 0.03970795 0.777623 0.02617299 0.777588 0.02617299 0.777588 0.02630496 0.73061 0.03984099 0.730645 0.341591 0.763857 0.341591 0.726873 0.367764 0.726873 0.367764 0.726873 0.367764 0.763857 0.341591 0.763857 0.02617299 0.777588 0 0.777519 1.33e-4 0.730541 1.33e-4 0.730541 0.02630496 0.73061 0.02617299 0.777588 0.684117 0.526292 0.732802 0.526292 0.732802 0.557535 0.732802 0.557535 0.684117 0.557535 0.684117 0.526292 0.05537295 0.777664 0.05550599 0.730686 0.07117098 0.730728 0.07117098 0.730728 0.071038 0.777706 0.05537295 0.777664 0.312391 0.763857 0.296725 0.763857 0.296726 0.726873 0.296726 0.726873 0.312391 0.726873 0.312391 0.763857 0.87206 0.646517 0.87206 0.693495 0.864409 0.693495 0.864409 0.693495 0.864409 0.646517 0.87206 0.646517 0.367764 0.763857 0.367764 0.726873 0.372997 0.732261 0.372997 0.732261 0.372997 0.763857 0.367764 0.763857 0.1093659 0.777806 0.147693 0.777907 0.79892 0.693495 0.791268 0.693495 0.79892 0.693495 0.192558 0.778025 0.071038 0.777706 0.87206 0.693495 0.02617299 0.777588 0.864409 0.693495 0.864409 0.693495 0.071038 0.777706 0.87206 0.693495 0 0 0.864409 0.693495 0.732803 0.730971 0.732802 0.526292 0.732803 0.767955 0.732803 0.662745 0.732802 0.631502 0.732802 0.594518 0.786378 0.60058 0.786378 0.563596 0.09007596 0.827924 0.09007596 0.827924 0.786378 0.563596 0.786378 0.548481 0.786378 0.667794 0.786378 0.652679 0.155564 0.827924 0.79892 0.693495 0.831664 0.693494 0.1093659 0.777806 0.831664 0.693494 0.864409 0.693495 0.1093659 0.777806 0.864409 0.693495 0.071038 0.777706 0.1093659 0.777806 0.147693 0.777907 0.163358 0.777948 0.79892 0.693495 0.163358 0.777948 0.179023 0.77799 0.79892 0.693495 0.192558 0.778025 0.218731 0.778094 0.791268 0.693495 0.179023 0.77799 0.192558 0.778025 0.79892 0.693495 0.03970795 0.777623 0.05537295 0.777664 0.02617299 0.777588 0.05537295 0.777664 0.071038 0.777706 0.02617299 0.777588 0.87206 0.693495 0.864409 0.693495 0 0.777519 0.87206 0.693495 0 0.777519 0.02617299 0.777588 0.864409 0.693495 0 0.777519 0.864409 0.693495 0.87206 0.693495 0 0 0 0 0.732803 0.730971 0.732803 0.693988 0.732802 0.557535 0.732802 0.526292 0.732802 0.495049 0.732803 0.767955 0.732803 0.730971 0.732802 0.557535 0.732802 0.526292 0.732802 0.557535 0.732803 0.693988 0.732802 0.594518 0.732803 0.693988 0.732803 0.662745 0.732802 0.594518 0.732802 0.631502 0.732802 0.631502 0.732802 0.594518 0.09007596 0.827924 0.12282 0.827924 0.786378 0.60058 0.12282 0.827924 0.155564 0.827924 0.786378 0.60058 0.155564 0.827924 0.786378 0.637563 0.786378 0.60058 0.786378 0.548481 0.786378 0.533365 0.09007596 0.827924 0.786378 0.533365 0.786378 0.520304 0.09007596 0.827924 0.786378 0.520304 0.786378 0.495049 0.09007596 0.827924 0.786378 0.563596 0.786378 0.563596 0.786378 0.548481 0.786378 0.652679 0.786378 0.637563 0.786378 0.637563 0.786378 0.637563 0.155564 0.827924 0.786378 0.652679 0.155564 0.827924 0.786378 0.70611 0.786378 0.680855 0.786378 0.680855 0.786378 0.667794 0.155564 0.827924</float_array>
          <technique_common>
            <accessor source="#meshId0_name_002-mesh-map-0-array" count="480" stride="2">
              <param name="S" type="float"/>
              <param name="T" type="float"/>
            </accessor>
          </technique_common>
        </source>
        <vertices id="meshId0_name_002-mesh-vertices">
          <input semantic="POSITION" source="#meshId0_name_002-mesh-positions"/>
        </vertices>
        <triangles material="blinn1_001-material" count="160">
          <input semantic="VERTEX" source="#meshId0_name_002-mesh-vertices" offset="0"/>
          <input semantic="NORMAL" source="#meshId0_name_002-mesh-normals" offset="1"/>
          <input semantic="TEXCOORD" source="#meshId0_name_002-mesh-map-0" offset="2" set="0"/>
          <p>3 0 0 0 0 1 1 0 2 1 0 3 2 0 4 3 0 5 9 0 6 6 0 7 7 0 8 7 0 9 8 0 10 9 0 11 13 1 12 10 1 13 11 1 14 11 1 15 12 1 16 13 1 17 4 1 18 5 1 19 14 1 20 14 1 21 15 1 22 4 1 23 19 2 24 16 2 25 17 2 26 17 3 27 18 3 28 19 3 29 23 4 30 20 4 31 21 4 32 21 5 33 22 5 34 23 5 35 25 0 36 9 0 37 8 0 38 8 0 39 24 0 40 25 0 41 27 6 42 17 6 43 16 6 44 16 7 45 26 7 46 27 7 47 29 0 48 25 0 49 24 0 50 24 0 51 28 0 52 29 0 53 31 7 54 30 7 55 27 7 56 27 7 57 26 7 58 31 7 59 35 7 60 32 7 61 33 7 62 33 7 63 34 7 64 35 7 65 37 8 66 19 8 67 18 8 68 18 9 69 36 9 70 37 9 71 39 0 72 38 0 73 7 0 74 7 0 75 6 0 76 39 0 77 41 10 78 40 10 79 42 10 80 42 10 81 43 10 82 41 10 83 46 0 84 44 0 85 28 0 86 28 0 87 45 0 88 46 0 89 1 0 90 0 0 91 47 0 92 47 0 93 48 0 94 1 0 95 7 0 96 50 0 97 51 0 98 51 0 99 8 0 100 7 0 101 53 1 102 52 1 103 13 1 104 13 1 105 12 1 106 53 1 107 54 1 108 49 1 109 4 1 110 4 1 111 15 1 112 54 1 113 58 11 114 55 11 115 56 11 116 56 12 117 57 12 118 58 12 119 21 13 120 59 13 121 60 13 122 60 5 123 22 5 124 21 5 125 8 0 126 51 0 127 61 0 128 61 0 129 24 0 130 8 0 131 55 14 132 58 14 133 62 14 134 62 15 135 63 15 136 55 15 137 24 0 138 61 0 139 64 0 140 64 0 141 28 0 142 24 0 143 62 15 144 65 15 145 66 15 146 66 15 147 63 15 148 62 15 149 70 15 150 67 15 151 68 15 152 68 15 153 69 15 154 70 15 155 57 16 156 56 16 157 71 16 158 71 17 159 72 17 160 57 17 161 7 0 162 38 0 163 73 0 164 73 0 165 50 0 166 7 0 167 77 18 168 75 18 169 74 18 170 74 18 171 76 18 172 77 18 173 28 0 174 64 0 175 78 0 176 78 0 177 45 0 178 28 0 179 47 0 180 0 0 181 79 0 182 79 0 183 80 0 184 47 0 185 86 0 186 83 0 187 84 0 188 84 0 189 85 0 190 86 0 191 90 5 192 87 5 193 88 5 194 88 5 195 89 5 196 90 5 197 81 5 198 82 5 199 91 5 200 91 5 201 92 5 202 81 5 203 96 19 204 93 19 205 94 19 206 94 20 207 95 20 208 96 20 209 100 21 210 97 21 211 98 21 212 98 1 213 99 1 214 100 1 215 102 0 216 86 0 217 85 0 218 85 0 219 101 0 220 102 0 221 104 22 222 94 22 223 93 22 224 93 15 225 103 15 226 104 15 227 106 0 228 102 0 229 101 0 230 101 0 231 105 0 232 106 0 233 108 15 234 107 15 235 104 15 236 104 15 237 103 15 238 108 15 239 110 15 240 67 15 241 70 15 242 70 15 243 109 15 244 110 15 245 112 16 246 96 16 247 95 16 248 95 23 249 111 23 250 112 23 251 114 0 252 113 0 253 84 0 254 84 0 255 83 0 256 114 0 257 116 24 258 115 24 259 117 24 260 117 24 261 118 24 262 116 24 263 121 0 264 119 0 265 105 0 266 105 0 267 120 0 268 121 0 269 79 0 270 0 0 271 3 0 272 3 0 273 122 0 274 79 0 275 84 0 276 124 0 277 125 0 278 125 0 279 85 0 280 84 0 281 127 5 282 126 5 283 90 5 284 90 5 285 89 5 286 127 5 287 128 5 288 123 5 289 81 5 290 81 5 291 92 5 292 128 5 293 132 25 294 129 25 295 130 25 296 130 26 297 131 26 298 132 26 299 98 27 300 133 27 301 134 27 302 134 1 303 99 1 304 98 1 305 85 0 306 125 0 307 135 0 308 135 0 309 101 0 310 85 0 311 129 28 312 132 28 313 136 28 314 136 7 315 137 7 316 129 7 317 101 0 318 135 0 319 138 0 320 138 0 321 105 0 322 101 0 323 136 7 324 139 7 325 140 7 326 140 7 327 137 7 328 136 7 329 33 7 330 32 7 331 141 7 332 141 7 333 142 7 334 33 7 335 131 8 336 130 8 337 143 8 338 143 29 339 144 29 340 131 29 341 84 0 342 113 0 343 145 0 344 145 0 345 124 0 346 84 0 347 149 30 348 147 30 349 146 30 350 146 30 351 148 30 352 149 30 353 105 0 354 138 0 355 150 0 356 150 0 357 120 0 358 105 0 359 98 31 360 97 31 361 82 31 362 115 32 363 116 32 364 104 32 365 144 5 366 147 5 367 136 5 368 123 5 369 146 5 370 133 5 371 147 33 372 144 33 373 146 33 374 13 32 375 32 32 376 10 32 377 67 32 378 110 32 379 90 32 380 21 34 381 20 34 382 5 34 383 5 35 384 20 35 385 18 35 386 58 32 387 57 32 388 49 32 389 82 32 390 81 32 391 98 32 392 81 32 393 123 32 394 98 32 395 123 36 396 133 36 397 98 36 398 111 32 399 95 32 400 116 32 401 95 32 402 94 32 403 116 32 404 104 5 405 107 5 406 115 5 407 94 32 408 104 32 409 116 32 410 132 37 411 131 37 412 136 37 413 131 32 414 144 32 415 136 32 416 147 5 417 146 5 418 139 5 419 147 5 420 139 5 421 136 5 422 123 5 423 139 5 424 146 5 425 147 5 426 133 5 427 144 5 428 13 32 429 52 32 430 141 32 431 32 5 432 35 5 433 10 5 434 13 32 435 141 32 436 32 32 437 126 32 438 68 32 439 90 32 440 68 32 441 67 32 442 90 32 443 110 5 444 87 5 445 90 5 446 5 32 447 4 32 448 21 32 449 4 32 450 49 32 451 21 32 452 49 38 453 59 38 454 21 38 455 18 32 456 17 32 457 5 32 458 17 32 459 27 32 460 5 32 461 27 32 462 30 32 463 5 32 464 20 5 465 36 5 466 18 5 467 57 5 468 72 5 469 59 5 470 59 32 471 49 32 472 57 32 473 49 32 474 65 32 475 62 32 476 62 32 477 58 32 478 49 32 479</p>
        </triangles>
      </mesh>
    </geometry>
  </library_geometries>
  <library_visual_scenes>
    <visual_scene id="Scene" name="Scene">
      <node id="pallet_low_002" name="pallet_low.002" type="NODE">
        <matrix sid="transform">-4.72375e-10 2.8213e-9 0.008982334 0 -3.22064e-10 -0.009999999 2.53419e-9 0 0.01080668 -2.98023e-10 3.9263e-10 0 0 0 0 1</matrix>
        <instance_geometry url="#meshId0_name_002-mesh" name="pallet_low.002">
          <bind_material>
            <technique_common>
              <instance_material symbol="blinn1_001-material" target="#blinn1_001-material">
                <bind_vertex_input semantic="meshId0-tex0" input_semantic="TEXCOORD" input_set="0"/>
              </instance_material>
            </technique_common>
          </bind_material>
        </instance_geometry>
      </node>
    </visual_scene>
  </library_visual_scenes>
  <scene>
    <instance_visual_scene url="#Scene"/>
  </scene>
</COLLADA>