<?xml version="1.0" encoding="utf-8"?>
<COLLADA xmlns="http://www.collada.org/2005/11/COLLADASchema" version="1.4.1" xmlns:xsi="http://www.w3.org/2001/XMLSchema-instance">
  <asset>
    <contributor>
      <author>Blender User</author>
      <authoring_tool>Blender 2.83.20 commit date:2022-04-19, commit time:16:00, hash:a56e2faeb7a9</authoring_tool>
    </contributor>
    <created>2026-07-03T14:06:14</created>
    <modified>2026-07-03T14:06:14</modified>
    <unit name="meter" meter="1"/>
    <up_axis>Z_UP</up_axis>
  </asset>
  <library_effects>
    <effect id="blinn1_001-effect">
      <profile_COMMON>
        <newparam sid="blinn1_albedo_jpg-surface">
          <surface type="2D">
            <init_from>blinn1_albedo_jpg</init_from>
          </surface>
        </newparam>
        <newparam sid="blinn1_albedo_jpg-sampler">
          <sampler2D>
            <source>blinn1_albedo_jpg-surface</source>
          </sampler2D>
        </newparam>
        <technique sid="common">
          <lambert>
            <emission>
              <color sid="emission">0 0 0 1</color>
            </emission>
            <diffuse>
              <texture texture="blinn1_albedo_jpg-sampler" texcoord="meshId0-tex0"/>
            </diffuse>
            <index_of_refraction>
              <float sid="ior">1.45</float>
            </index_of_refraction>
          </lambert>
        </technique>
      </profile_COMMON>
    </effect>
  </library_effects>
  <library_images>
    <image id="blinn1_albedo_jpg" name="blinn1_albedo_jpg">
      <init_from>blinn1_albedo.jpg</init_from>
    </image>
  </library_images>
  <library_materials>
    <material id="blinn1_001-material" name="blinn1.001">
      <instance_effect url="#blinn1_001-effect"/>
    </material>
  </library_materials>
  <library_geometries>
    <geometry id="meshId0_name_005-mesh" name="meshId0_name.005">
      <mesh>
        <source id="meshId0_name_005-mesh-positions">
          <float_array id="meshId0_name_005-mesh-positions-array" count="885">-50.89446 0 0 -50 0 7.619237 -50.89446 0 5.943206 -50.89445 11.45651 0 -50.89445 11.45651 -5.943206 -50.89445 11.45651 -51.96453 -50.89445 11.45651 -48.2783 -50 0 -46.9696 -50 0 -50.65585 -43.42131 0 -50.65585 -43.42131 0 -46.9696 -43.42131 0 0 -50 0 0 -50 0 -7.619237 -43.42131 0 -7.619237 -38.86674 2.190167 -7.619237 -38.86674 2.190167 0 -38.86674 0 0 -38.86674 0 -7.619237 -50.89445 2.190167 -5.943206 -50.89445 2.190167 0 -50 11.45651 -43.28336 -50 2.190167 -43.28336 -43.42131 2.190167 -43.28335 -43.42131 11.45651 -43.28335 -50.89445 2.190167 -48.2783 -50.89445 2.190167 -51.96453 -50.89445 0 -51.96454 -50.89445 0 -48.2783 -38.86674 0 -7.619237 -38.86674 0 0 -38.86674 11.45651 -43.28335 -38.86674 2.190167 -43.28335 -44.24449 11.45651 -61.2313 -39.8965 11.45651 -61.2313 -39.8965 2.190167 -61.2313 -44.24449 2.190167 -61.2313 -38.86675 0 -50.65585 -38.86674 0 -53.84106 -38.86674 2.190167 -53.84106 -38.86675 2.190167 -50.65585 -43.42131 0 -53.84106 -38.86674 0 -53.84106 -38.86675 0 -50.65585 -50 0 -53.84106 -50.89445 0 -55.14976 -50.89445 2.190167 -55.14975 -50.89445 11.45651 -55.14975 -38.86674 0 -60 -38.86674 2.190167 -60 -43.42131 0 -60 -38.86674 0 -60 -49.0548 0 -58.01751 -46.8992 0 -59.63922 -38.86674 11.45651 -7.619237 -38.86674 11.45651 0 -43.42131 2.190167 -7.619237 -50 2.190167 -7.619237 -50 11.45651 -7.619237 -43.42131 11.45651 -7.619237 -50.89445 0 0 -50.89445 0 -5.943206 -43.42131 11.45651 -7.619237 -38.86674 11.45651 -7.619237 -38.86674 2.190167 -7.619237 -39.8965 0 -61.2313 -44.24449 0 -61.2313 -38.86674 11.45651 -53.84106 -38.86675 11.45651 -50.65585 -38.86674 11.45651 -60 -43.42131 0 -8.628038 -50 0 -8.628038 -50 0 -42.27455 -43.42131 0 -42.27455 -50 0 -8.628038 -50 1.398797 -8.628038 -50 1.398797 -42.27455 -50 0 -42.27455 -43.42131 1.398797 -8.628038 -43.42131 1.398797 -42.27455 -50 1.398797 -42.27455 -50 1.398797 -8.628038 -38.86674 1.398797 -8.628038 -38.86674 1.398797 -42.27455 -38.86674 1.398797 -8.628038 -38.86674 0 -8.628038 -38.86674 0 -42.27455 -38.86674 1.398797 -42.27455 -38.86674 0 -8.628038 -38.86674 0 -42.27455 -43.42131 2.190167 -7.619237 -38.86674 2.190167 -7.619237 -50 2.190167 -7.619237 -50 0 -7.619237 -50 2.190167 -7.619237 -43.42131 0 -43.28335 -50 0 -43.28336 -50 0 -43.28336 -50 2.190167 -43.28336 -43.42131 2.190167 -43.28335 -50 2.190167 -43.28336 -38.86674 2.190167 -43.28335 -38.86674 2.190167 -43.28335 -38.86674 0 -43.28335 -38.86674 0 -43.28335 -50 11.45651 -7.619237 -50.89445 11.45651 -5.943206 -50 2.190167 -7.619237 -50.89445 2.190167 -5.943206 -50.89445 0 0 -50.89445 0 -5.943206 -50 0 -7.619237 -50.89445 0 -5.943206 -38.86674 0 -46.9696 -38.86674 0 -46.9696 -38.86674 2.190167 -46.9696 -38.86674 11.45651 -46.9696 -50.89445 11.45651 -44.59205 -50.89445 2.190167 -44.59205 -50.89445 0 -44.59205 -43.42131 0 -43.28335 -38.86674 11.45651 -43.28335 -50.89445 0 -48.2783 -50.89445 0 -51.96454 -38.86674 2.190167 -60 -39.8965 2.190167 -61.2313 -39.8965 11.45651 -61.2313 -38.86674 11.45651 -60 -50.89445 0 -55.14976 -44.24449 0 -61.2313 -39.8965 0 -61.2313 -38.86674 0 -60 -38.86674 0 -60 -39.8965 0 -61.2313 -50.89445 11.45651 -44.59205 -50 11.45651 -43.28336 -50.89445 2.190167 -44.59205 -50 2.190167 -43.28336 -50.89445 0 -44.59205 -50.89445 0 -44.59205 -50 0 -43.28336 -49.04027 11.45651 -61.2313 -50.89445 11.45651 -59.37711 -49.04027 2.190167 -61.2313 -50.89445 2.190167 -59.37711 -49.03595 0 -61.2313 -50.89445 0 -59.37279 -50.89445 0 -59.37279 -49.03595 0 -61.2313 -49.04027 11.45651 -61.2313 -49.04027 2.190167 -61.2313 -50.89445 11.45651 -59.37711 -50.89445 2.190167 -59.37711 -49.03595 0 -61.2313 -50.89445 0 -59.37279 -50.89445 11.45651 5.943206 -50.89445 11.45651 48.2783 -50.89445 11.45651 51.96453 -50 0 46.9696 -43.42131 0 46.9696 -43.42131 0 50.65585 -50 0 50.65585 -43.42131 0 7.619237 -50 0 7.619237 -38.86674 2.190167 7.619237 -38.86674 0 7.619237 -50.89445 2.190167 5.943206 -43.42131 11.45651 43.28335 -43.42131 2.190167 43.28335 -50 2.190167 43.28336 -50 11.45651 43.28336 -50.89445 2.190167 48.2783 -50.89445 0 48.2783 -50.89445 0 51.96454 -50.89445 2.190167 51.96453 -38.86674 0 7.619237 -38.86674 11.45651 43.28335 -38.86674 2.190167 43.28335 -44.24449 11.45651 61.2313 -44.24449 2.190167 61.2313 -39.8965 2.190167 61.2313 -39.8965 11.45651 61.2313 -38.86675 0 50.65585 -38.86675 2.190167 50.65585 -38.86674 2.190167 53.84106 -38.86674 0 53.84106 -38.86675 0 50.65585 -38.86674 0 53.84106 -43.42131 0 53.84106 -50 0 53.84106 -50.89445 0 55.14976 -50.89445 2.190167 55.14975 -50.89445 11.45651 55.14975 -38.86674 2.190167 60 -38.86674 0 60 -38.86674 0 60 -43.42131 0 60 -46.8992 0 59.63922 -49.0548 0 58.01751 -38.86674 11.45651 7.619237 -43.42131 2.190167 7.619237 -43.42131 11.45651 7.619237 -47.97589 11.45651 7.619237 -50 11.45651 7.619237 -50 2.190167 7.619237 -50.89445 0 5.943206 -38.86674 2.190167 7.619237 -38.86674 11.45651 7.619237 -44.24449 0 61.2313 -39.8965 0 61.2313 -38.86675 11.45651 50.65585 -38.86674 11.45651 53.84106 -38.86674 11.45651 60 -43.42131 0 8.628038 -43.42131 0 42.27455 -50 0 42.27455 -50 0 8.628038 -50 0 8.628038 -50 0 42.27455 -50 1.398797 42.27455 -50 1.398797 8.628038 -43.42131 1.398797 8.628038 -50 1.398797 8.628038 -50 1.398797 42.27455 -43.42131 1.398797 42.27455 -38.86674 1.398797 42.27455 -38.86674 1.398797 8.628038 -38.86674 1.398797 8.628038 -38.86674 1.398797 42.27455 -38.86674 0 42.27455 -38.86674 0 8.628038 -38.86674 0 8.628038 -38.86674 0 42.27455 -38.86674 2.190167 7.619237 -43.42131 2.190167 7.619237 -50 2.190167 7.619237 -50 2.190167 7.619237 -50 0 7.619237 -43.42131 0 43.28335 -50 0 43.28336 -50 0 43.28336 -50 2.190167 43.28336 -50 2.190167 43.28336 -43.42131 2.190167 43.28335 -38.86674 2.190167 43.28335 -38.86674 2.190167 43.28335 -38.86674 0 43.28335 -38.86674 0 43.28335 -50 11.45651 7.619237 -50.89445 11.45651 5.943206 -50 2.190167 7.619237 -50.89445 2.190167 5.943206 -50 0 7.619237 -50.89445 0 5.943206 -38.86674 0 46.9696 -38.86674 0 46.9696 -38.86674 2.190167 46.9696 -38.86674 2.190167 46.9696 -38.86674 11.45651 46.9696 -50.89445 11.45651 44.59205 -50.89445 2.190167 44.59205 -50.89445 0 44.59205 -38.86674 11.45651 43.28335 -50.89445 0 51.96454 -50.89445 0 48.2783 -38.86674 2.190167 60 -38.86674 11.45651 60 -39.8965 11.45651 61.2313 -39.8965 2.190167 61.2313 -50.89445 0 55.14976 -39.8965 0 61.2313 -44.24449 0 61.2313 -38.86674 0 60 -39.8965 0 61.2313 -50 11.45651 43.28336 -50.89445 11.45651 44.59205 -50 2.190167 43.28336 -50.89445 2.190167 44.59205 -50.89445 0 44.59205 -50 0 43.28336 -50.89445 0 44.59205 -50.89445 11.45651 59.37711 -49.04027 11.45651 61.2313 -50.89445 2.190167 59.37711 -49.04027 2.190167 61.2313 -50.89445 0 59.37279 -49.03595 0 61.2313 -49.03595 0 61.2313 -50.89445 0 59.37279 -49.04027 11.45651 61.2313 -49.04027 2.190167 61.2313 -50.89445 11.45651 59.37711 -50.89445 2.190167 59.37711 -49.03595 0 61.2313 -50.89445 0 59.37279</float_array>
          <technique_common>
            <accessor source="#meshId0_name_005-mesh-positions-array" count="295" stride="3">
              <param name="X" type="float"/>
              <param name="Y" type="float"/>
              <param name="Z" type="float"/>
            </accessor>
          </technique_common>
        </source>
        <source id="meshId0_name_005-mesh-normals">
          <float_array id="meshId0_name_005-mesh-normals-array" count="210">0 -1 0 1 0 0 -1 0 0 -1.00123e-6 0 1 0 0 1 0 0 -1 1 0 1.19763e-6 1 0 1.19763e-6 -1 -4.37454e-6 0 -1 4.37457e-6 0 -1 0 0 1 0 1.19763e-6 1 0 1.19763e-6 0 0.9452004 -0.326491 0 0.9452004 0.326491 0 0.7867884 -0.617223 0 0.7867884 0.617223 1 0 3.7814e-6 1 0 3.78139e-6 -0.8822271 0 -0.4708241 -0.8822271 0 -0.470824 -0.8822271 0 -0.4708243 1 0 -1.03485e-6 1 0 -1.03485e-6 1 0 -1.03485e-6 1 0 -1.03485e-6 0.7670959 0 -0.6415326 0.7670993 0 -0.6415286 0.7670981 0 -0.6415297 0.7670946 0 -0.641534 -0.8255896 0 0.564271 -0.8255903 0 0.56427 -0.8255889 0 0.5642721 -0.7071073 0 -0.7071064 -0.7071098 0 -0.7071039 -0.7071064 -0.001394867 -0.7071058 -0.7071059 -0.001396119 -0.7071063 -1 -4.79612e-7 0 -1 2.38757e-6 0 1 0 0 -1 0 0 -1.00123e-6 0 -1 -1 1.04473e-6 0 1 0 -1.19763e-6 1 0 -1.19763e-6 -1 -3.16548e-6 0 -1 3.1655e-6 0 1 0 -1.19763e-6 1 0 -1.19763e-6 1 0 -3.78139e-6 1 0 -3.78139e-6 -0.8822271 0 0.4708241 -0.8822271 0 0.470824 -0.8822271 0 0.4708243 1 0 1.03485e-6 1 0 1.03485e-6 1 0 1.03485e-6 1 0 1.03485e-6 0.7670959 0 0.6415326 0.7670993 0 0.6415286 0.7670981 0 0.6415297 0.7670946 0 0.641534 -0.8255896 0 -0.564271 -0.8255903 0 -0.56427 -0.8255889 0 -0.5642721 -0.7071073 0 0.7071064 -0.7071098 0 0.7071039 -0.7071064 -0.001394867 0.7071058 -0.7071059 -0.001396894 0.7071063 -1 3.2995e-6 0</float_array>
          <technique_common>
            <accessor source="#meshId0_name_005-mesh-normals-array" count="70" stride="3">
              <param name="X" type="float"/>
              <param name="Y" type="float"/>
              <param name="Z" type="float"/>
            </accessor>
          </technique_common>
        </source>
        <source id="meshId0_name_005-mesh-map-0">
          <float_array id="meshId0_name_005-mesh-map-0-array" count="1746">0.292585 0.723891 0.285463 0.727558 0.260207 0.727559 0.060606 0.696914 0.060606 0.72389 0.04494094 0.72389 0.04494094 0.72389 0.04494094 0.696914 0.060606 0.696914 0.227828 0.696914 0.260207 0.696914 0.260207 0.723891 0.260207 0.723891 0.227828 0.723891 0.227828 0.696914 0.630542 0.641292 0.639849 0.641292 0.639849 0.672535 0.639849 0.672535 0.630542 0.672535 0.630542 0.641292 0.286018 0.552128 0.286018 0.514131 0.311274 0.514131 0.311274 0.514131 0.311274 0.552128 0.286018 0.552128 0.522499 0.864031 0.494543 0.864031 0.494542 0.826034 0.494542 0.826034 0.522499 0.826034 0.522499 0.864031 0.103986 0.50515 0.103986 0.514131 0.08832097 0.514131 0.08832097 0.514131 0.08832097 0.50515 0.103986 0.50515 0.227828 0.696914 0.227828 0.678238 0.260207 0.678238 0.260207 0.678238 0.260207 0.696914 0.227828 0.696914 0.541854 0.826034 0.541854 0.864031 0.522499 0.864031 0.522499 0.864031 0.522499 0.826034 0.541854 0.826034 0.02529996 0.514129 0.02529799 0.552127 0.006820976 0.552127 0.006820976 0.552127 0.006822943 0.514128 0.02529996 0.514129 0.63985 0.464818 0.630542 0.464818 0.630542 0.451756 0.630542 0.451756 0.63985 0.451757 0.63985 0.464818 0.04494094 0.678238 0.04494094 0.696914 0.03140497 0.696914 0.03140497 0.696914 0.03140497 0.678238 0.04494094 0.678238 0.04494094 0.696914 0.04494094 0.72389 0.03140497 0.72389 0.03140497 0.72389 0.03140497 0.696914 0.04494094 0.696914 0.07478499 0.514131 0.07478398 0.50515 0.08832097 0.50515 0.08832097 0.50515 0.08832097 0.514131 0.07478499 0.514131 0.63985 0.451757 0.630542 0.451756 0.630542 0.426501 0.630542 0.426501 0.63985 0.426501 0.63985 0.451757 0.03140497 0.678238 0.03140497 0.696914 0.005232989 0.696914 0.005232989 0.696914 0.005232989 0.678238 0.03140497 0.678238 0.03140497 0.696914 0.03140497 0.72389 0.01365697 0.720014 0.03140497 0.696914 0.01365697 0.720014 0.006765961 0.711175 0.006765961 0.711175 0.005232989 0.696914 0.03140497 0.696914 0.639849 0.641292 0.679227 0.641292 0.679227 0.672535 0.679227 0.672535 0.639849 0.672535 0.639849 0.641292 0.254622 0.730541 0.254622 0.768538 0.226665 0.768538 0.254622 0.730541 0.226665 0.768538 0.226665 0.730541 0.286018 0.50515 0.311274 0.50515 0.311274 0.514131 0.311274 0.514131 0.286018 0.514131 0.286018 0.50515 0.08832097 0.552129 0.08832097 0.514131 0.103986 0.514131 0.103986 0.514131 0.103986 0.552128 0.08832097 0.552129 0.273977 0.768538 0.254622 0.768538 0.254622 0.730541 0.254622 0.730541 0.273977 0.730541 0.273977 0.768538 0.02529996 0.514129 0.006822943 0.514128 0.006823956 0.505147 0.006823956 0.505147 0.02530199 0.505148 0.02529996 0.514129 0.63985 0.464818 0.63985 0.451757 0.679228 0.451757 0.679228 0.451757 0.679228 0.464818 0.63985 0.464818 0.07478499 0.514131 0.08832097 0.514131 0.08832097 0.552129 0.08832097 0.552129 0.07478499 0.552128 0.07478499 0.514131 0.63985 0.451757 0.63985 0.426501 0.679228 0.426501 0.679228 0.426501 0.679228 0.451757 0.63985 0.451757 0.080558 0.696914 0.223541 0.696914 0.223541 0.723891 0.223541 0.723891 0.080558 0.72389 0.080558 0.696914 0.130674 0.50515 0.273657 0.50515 0.273657 0.510886 0.273657 0.510886 0.130674 0.510886 0.130674 0.50515 0.886124 0.709093 0.886124 0.73607 0.743141 0.736069 0.743141 0.736069 0.743141 0.709093 0.886124 0.709093 0.743141 0.736069 0.886124 0.73607 0.886124 0.754746 0.886124 0.754746 0.743141 0.754746 0.743141 0.736069 0.636487 0.499186 0.636486 0.637155 0.630542 0.637155 0.630542 0.637155 0.630542 0.499186 0.636487 0.499186 0.080558 0.678238 0.223541 0.678238 0.223541 0.696914 0.223541 0.696914 0.080558 0.696914 0.080558 0.678238 0.223541 0.696914 0.223541 0.678238 0.227828 0.678238 0.227828 0.678238 0.227828 0.696914 0.223541 0.696914 0.630542 0.637155 0.636486 0.637155 0.639849 0.641292 0.639849 0.641292 0.630542 0.641292 0.630542 0.637155 0.886124 0.754746 0.886124 0.73607 0.891573 0.73607 0.891573 0.73607 0.891573 0.754746 0.886124 0.754746 0.891573 0.709093 0.891573 0.73607 0.886124 0.73607 0.886124 0.73607 0.886124 0.709093 0.891573 0.709093 0.273657 0.510886 0.273657 0.50515 0.277944 0.50515 0.277944 0.50515 0.277944 0.514131 0.273657 0.510886 0.223541 0.723891 0.223541 0.696914 0.227828 0.696914 0.227828 0.696914 0.227828 0.723891 0.223541 0.723891 0.07627099 0.72389 0.07627099 0.696914 0.080558 0.696914 0.080558 0.696914 0.080558 0.72389 0.07627099 0.72389 0.126387 0.514131 0.126387 0.50515 0.130674 0.50515 0.130674 0.50515 0.130674 0.510886 0.126387 0.514131 0.737693 0.709093 0.743141 0.709093 0.743141 0.736069 0.743141 0.736069 0.737693 0.736069 0.737693 0.709093 0.737693 0.754746 0.737693 0.736069 0.743141 0.736069 0.743141 0.736069 0.743141 0.754746 0.737693 0.754746 0.630542 0.495049 0.63985 0.495049 0.636487 0.499186 0.636487 0.499186 0.630542 0.499186 0.630542 0.495049 0.07627099 0.696914 0.07627099 0.678238 0.080558 0.678238 0.080558 0.678238 0.080558 0.696914 0.07627099 0.696914 0.277944 0.552128 0.277944 0.514131 0.286018 0.514131 0.286018 0.514131 0.286018 0.552128 0.277944 0.552128 0.227828 0.723891 0.260207 0.723891 0.260207 0.727559 0.260207 0.727559 0.234951 0.727559 0.227828 0.723891 0.277944 0.514131 0.277944 0.50515 0.286018 0.50515 0.286018 0.50515 0.286018 0.514131 0.277944 0.514131 0.060606 0.678238 0.060606 0.696914 0.04494094 0.696914 0.04494094 0.696914 0.04494094 0.678238 0.060606 0.678238 0.63985 0.479933 0.630542 0.479933 0.630542 0.464818 0.630542 0.464818 0.63985 0.464818 0.63985 0.479933 0.679228 0.479933 0.63985 0.479933 0.63985 0.464818 0.63985 0.464818 0.679228 0.464818 0.679228 0.479933 0.103986 0.552128 0.103986 0.514131 0.119651 0.514131 0.119651 0.514131 0.119651 0.552128 0.103986 0.552128 0.103986 0.50515 0.119651 0.50515 0.119651 0.514131 0.119651 0.514131 0.103986 0.514131 0.103986 0.50515 0.060606 0.696914 0.07627099 0.696914 0.07627099 0.72389 0.07627099 0.72389 0.060606 0.72389 0.060606 0.696914 0.060606 0.678238 0.07627099 0.678238 0.07627099 0.696914 0.07627099 0.696914 0.060606 0.696914 0.060606 0.678238 0.63985 0.479933 0.63985 0.495049 0.630542 0.495049 0.630542 0.495049 0.630542 0.479933 0.63985 0.479933 0.679228 0.479933 0.679227 0.495049 0.63985 0.495049 0.63985 0.495049 0.63985 0.479933 0.679228 0.479933 0.04494094 0.72389 0.060606 0.72389 0.05504494 0.727558 0.05504494 0.727558 0.03937995 0.727558 0.04494094 0.72389 0 0.552127 2e-6 0.514128 0.006822943 0.514128 0.006822943 0.514128 0.006820976 0.552127 0 0.552127 0.03140497 0.72389 0.04494094 0.72389 0.03937995 0.727558 0.03937995 0.727558 0.02584397 0.727558 0.03140497 0.72389 0.005232989 0.678238 0.005232989 0.696914 0 0.70029 0 0.70029 0 0.68246 0.005232989 0.678238 2e-6 0.514128 3e-6 0.505147 0.006823956 0.505147 0.006823956 0.505147 0.006822943 0.514128 2e-6 0.514128 0.126387 0.514131 0.126387 0.552128 0.119651 0.552128 0.119651 0.552128 0.119651 0.514131 0.126387 0.514131 0.060606 0.72389 0.07627099 0.72389 0.07071 0.727558 0.07071 0.727558 0.05504494 0.727558 0.060606 0.72389 0.126387 0.50515 0.126387 0.514131 0.119651 0.514131 0.119651 0.514131 0.119651 0.50515 0.126387 0.50515 0.05682098 0.552127 0.04567795 0.552126 0.04567897 0.514132 0.04567897 0.514132 0.056822 0.514132 0.05682098 0.552127 0.056822 0.514132 0.04567897 0.514132 0.04566496 0.505151 0.04566496 0.505151 0.05683696 0.505152 0.056822 0.514132 0.006765961 0.711175 0.01365697 0.720014 0.007897973 0.727558 0.007897973 0.727558 0 0.719937 0.006765961 0.711175 0.04567897 0.514132 0.04567795 0.552126 0.02529799 0.552127 0.02529799 0.552127 0.02529996 0.514129 0.04567897 0.514132 0.07478499 0.552128 0.05682098 0.552127 0.056822 0.514132 0.056822 0.514132 0.07478499 0.514131 0.07478499 0.552128 0.04567897 0.514132 0.02529996 0.514129 0.02530199 0.505148 0.02530199 0.505148 0.04566496 0.505151 0.04567897 0.514132 0.07478499 0.514131 0.056822 0.514132 0.05683696 0.505152 0.05683696 0.505152 0.07478398 0.50515 0.07478499 0.514131 0.006765961 0.711175 0 0.719937 0 0.70029 0 0.70029 0.005232989 0.696914 0.006765961 0.711175 0.01365697 0.720014 0.03140497 0.72389 0.02584397 0.727558 0.02584397 0.727558 0.007897973 0.727558 0.01365697 0.720014 0.475473 0.723891 0.459808 0.723891 0.459808 0.696915 0.459808 0.696915 0.475473 0.696915 0.475473 0.723891 0.260207 0.723891 0.260207 0.696914 0.292585 0.696914 0.292585 0.696914 0.292585 0.723891 0.260207 0.723891 0.639849 0.672535 0.639849 0.703778 0.630542 0.703778 0.630542 0.703778 0.630542 0.672535 0.639849 0.672535 0.311274 0.514131 0.33653 0.514131 0.33653 0.552128 0.33653 0.552128 0.311274 0.552128 0.311274 0.514131 0.494542 0.823052 0.494543 0.796075 0.533921 0.796075 0.533921 0.796075 0.53392 0.823052 0.494542 0.823052 0.534226 0.514131 0.518561 0.514131 0.518561 0.50515 0.518561 0.50515 0.534227 0.50515 0.534226 0.514131 0.260207 0.678238 0.292585 0.678238 0.292585 0.696914 0.292585 0.696914 0.260207 0.696914 0.260207 0.678238 0.494543 0.796075 0.494543 0.777399 0.533921 0.777399 0.533921 0.777399 0.533921 0.796075 0.494543 0.796075 0.615726 0.552127 0.597249 0.552128 0.597247 0.51413 0.597247 0.51413 0.615724 0.514129 0.615726 0.552127 0.630542 0.893313 0.630542 0.880252 0.639849 0.880252 0.639849 0.880252 0.639849 0.893313 0.630542 0.893313 0.489008 0.696915 0.475473 0.696915 0.475473 0.678238 0.475473 0.678238 0.489009 0.678238 0.489008 0.696915 0.489008 0.723891 0.475473 0.723891 0.475473 0.696915 0.475473 0.696915 0.489008 0.696915 0.489008 0.723891 0.534227 0.50515 0.547763 0.50515 0.547762 0.514131 0.547762 0.514131 0.534226 0.514131 0.534227 0.50515 0.630542 0.918568 0.630542 0.893313 0.639849 0.893313 0.639849 0.893313 0.639849 0.918568 0.630542 0.918568 0.515181 0.696915 0.489008 0.696915 0.489009 0.678238 0.489009 0.678238 0.515181 0.678238 0.515181 0.696915 0.506757 0.720015 0.489008 0.723891 0.489008 0.696915 0.506757 0.720015 0.489008 0.696915 0.515181 0.696915 0.515181 0.696915 0.513648 0.711176 0.506757 0.720015 0.679227 0.672535 0.679227 0.703778 0.639849 0.703778 0.639849 0.703778 0.639849 0.672535 0.679227 0.672535 0.342059 0.893383 0.342059 0.866406 0.381437 0.866406 0.342059 0.893383 0.381437 0.866406 0.381437 0.885083 0.381437 0.885083 0.381437 0.893383 0.342059 0.893383 0.311274 0.514131 0.311274 0.50515 0.33653 0.50515 0.33653 0.50515 0.33653 0.514131 0.311274 0.514131 0.518561 0.514131 0.534226 0.514131 0.534226 0.552129 0.534226 0.552129 0.518561 0.552129 0.518561 0.514131 0.381437 0.866406 0.342059 0.866406 0.342059 0.84773 0.342059 0.84773 0.381437 0.84773 0.381437 0.866406 0.615723 0.505148 0.615724 0.514129 0.597247 0.51413 0.597247 0.51413 0.597246 0.505149 0.615723 0.505148 0.679227 0.893313 0.639849 0.893313 0.639849 0.880252 0.639849 0.880252 0.679227 0.880252 0.679227 0.893313 0.534226 0.552129 0.534226 0.514131 0.547762 0.514131 0.547762 0.514131 0.547762 0.552129 0.534226 0.552129 0.679227 0.918568 0.639849 0.918568 0.639849 0.893313 0.639849 0.893313 0.679227 0.893313 0.679227 0.918568 0.296872 0.723891 0.296872 0.696914 0.439856 0.696915 0.439856 0.696915 0.439856 0.723891 0.296872 0.723891 0.34889 0.510886 0.34889 0.50515 0.491873 0.50515 0.491873 0.50515 0.491873 0.510886 0.34889 0.510886 0.8728 0.500307 0.8728 0.638276 0.844843 0.638276 0.844843 0.638276 0.844844 0.500307 0.8728 0.500307 0.892155 0.638276 0.8728 0.638276 0.8728 0.500307 0.8728 0.500307 0.892155 0.500307 0.892155 0.638276 0.630542 0.707915 0.636486 0.707915 0.636486 0.845884 0.636486 0.845884 0.630542 0.845884 0.630542 0.707915 0.296872 0.696914 0.296872 0.678238 0.439856 0.678238 0.439856 0.678238 0.439856 0.696915 0.296872 0.696914 0.292585 0.678238 0.296872 0.678238 0.296872 0.696914 0.296872 0.696914 0.292585 0.696914 0.292585 0.678238 0.639849 0.703778 0.636486 0.707915 0.630542 0.707915 0.630542 0.707915 0.630542 0.703778 0.639849 0.703778 0.8728 0.643534 0.8728 0.638276 0.892155 0.638276 0.892155 0.638276 0.892155 0.643534 0.8728 0.643534 0.8728 0.638276 0.8728 0.643534 0.844843 0.643534 0.844843 0.643534 0.844843 0.638276 0.8728 0.638276 0.344603 0.50515 0.34889 0.50515 0.34889 0.510886 0.34889 0.510886 0.344603 0.514131 0.344603 0.50515 0.292585 0.696914 0.296872 0.696914 0.296872 0.723891 0.296872 0.723891 0.292585 0.723891 0.292585 0.696914 0.439856 0.696915 0.444143 0.696915 0.444143 0.723891 0.444143 0.723891 0.439856 0.723891 0.439856 0.696915 0.491873 0.50515 0.49616 0.50515 0.49616 0.514131 0.49616 0.514131 0.491873 0.510886 0.491873 0.50515 0.8728 0.500307 0.844844 0.500307 0.844844 0.49505 0.844844 0.49505 0.8728 0.49505 0.8728 0.500307 0.8728 0.500307 0.8728 0.49505 0.892155 0.49505 0.892155 0.49505 0.892155 0.500307 0.8728 0.500307 0.636486 0.845884 0.639849 0.850021 0.630542 0.850021 0.630542 0.850021 0.630542 0.845884 0.636486 0.845884 0.439856 0.678238 0.444143 0.678238 0.444143 0.696915 0.444143 0.696915 0.439856 0.696915 0.439856 0.678238 0.33653 0.514131 0.344603 0.514131 0.344603 0.552128 0.344603 0.552128 0.33653 0.552128 0.33653 0.514131 0.260207 0.727559 0.260207 0.723891 0.292585 0.723891 0.33653 0.50515 0.344603 0.50515 0.344603 0.514131 0.344603 0.514131 0.33653 0.514131 0.33653 0.50515 0.475473 0.696915 0.459808 0.696915 0.459808 0.678238 0.459808 0.678238 0.475473 0.678238 0.475473 0.696915 0.630542 0.880252 0.630542 0.865136 0.639849 0.865136 0.639849 0.865136 0.639849 0.880252 0.630542 0.880252 0.639849 0.880252 0.639849 0.865136 0.679227 0.865136 0.679227 0.865136 0.679227 0.880252 0.639849 0.880252 0.502896 0.514131 0.518561 0.514131 0.518561 0.552129 0.518561 0.552129 0.502896 0.552129 0.502896 0.514131 0.502896 0.514131 0.502896 0.50515 0.518561 0.50515 0.518561 0.50515 0.518561 0.514131 0.502896 0.514131 0.444143 0.723891 0.444143 0.696915 0.459808 0.696915 0.459808 0.696915 0.459808 0.723891 0.444143 0.723891 0.444143 0.696915 0.444143 0.678238 0.459808 0.678238 0.459808 0.678238 0.459808 0.696915 0.444143 0.696915 0.630542 0.850021 0.639849 0.850021 0.639849 0.865136 0.639849 0.865136 0.630542 0.865136 0.630542 0.850021 0.639849 0.850021 0.679227 0.850021 0.679227 0.865136 0.679227 0.865136 0.639849 0.865136 0.639849 0.850021 0.465369 0.727559 0.459808 0.723891 0.475473 0.723891 0.475473 0.723891 0.481034 0.727559 0.465369 0.727559 0.615724 0.514129 0.622545 0.514128 0.622547 0.552127 0.622547 0.552127 0.615726 0.552127 0.615724 0.514129 0.481034 0.727559 0.475473 0.723891 0.489008 0.723891 0.489008 0.723891 0.49457 0.727559 0.481034 0.727559 0.520414 0.70029 0.515181 0.696915 0.515181 0.678238 0.515181 0.678238 0.520414 0.682461 0.520414 0.70029 0.615723 0.505148 0.622545 0.505147 0.622545 0.514128 0.622545 0.514128 0.615724 0.514129 0.615723 0.505148 0.502896 0.552129 0.49616 0.552129 0.49616 0.514131 0.49616 0.514131 0.502896 0.514131 0.502896 0.552129 0.449704 0.727559 0.444143 0.723891 0.459808 0.723891 0.459808 0.723891 0.465369 0.727559 0.449704 0.727559 0.502896 0.514131 0.49616 0.514131 0.49616 0.50515 0.49616 0.50515 0.502896 0.50515 0.502896 0.514131 0.576868 0.514132 0.576869 0.552127 0.565726 0.552127 0.565726 0.552127 0.565726 0.514132 0.576868 0.514132 0.576882 0.505151 0.576868 0.514132 0.565726 0.514132 0.565726 0.514132 0.565711 0.505152 0.576882 0.505151 0.512516 0.727559 0.506757 0.720015 0.513648 0.711176 0.513648 0.711176 0.520414 0.719938 0.512516 0.727559 0.597249 0.552128 0.576869 0.552127 0.576868 0.514132 0.576868 0.514132 0.597247 0.51413 0.597249 0.552128 0.565726 0.514132 0.565726 0.552127 0.547762 0.552129 0.547762 0.552129 0.547762 0.514131 0.565726 0.514132 0.597246 0.505149 0.597247 0.51413 0.576868 0.514132 0.576868 0.514132 0.576882 0.505151 0.597246 0.505149 0.565711 0.505152 0.565726 0.514132 0.547762 0.514131 0.547762 0.514131 0.547763 0.50515 0.565711 0.505152 0.520414 0.70029 0.520414 0.719938 0.513648 0.711176 0.513648 0.711176 0.515181 0.696915 0.520414 0.70029 0.49457 0.727559 0.489008 0.723891 0.506757 0.720015 0.506757 0.720015 0.512516 0.727559 0.49457 0.727559</float_array>
          <technique_common>
            <accessor source="#meshId0_name_005-mesh-map-0-array" count="873" stride="2">
              <param name="S" type="float"/>
              <param name="T" type="float"/>
            </accessor>
          </technique_common>
        </source>
        <vertices id="meshId0_name_005-mesh-vertices">
          <input semantic="POSITION" source="#meshId0_name_005-mesh-positions"/>
        </vertices>
        <triangles material="blinn1_001-material" count="291">
          <input semantic="VERTEX" source="#meshId0_name_005-mesh-vertices" offset="0"/>
          <input semantic="NORMAL" source="#meshId0_name_005-mesh-normals" offset="1"/>
          <input semantic="TEXCOORD" source="#meshId0_name_005-mesh-map-0" offset="2" set="0"/>
          <p>1 0 0 2 0 1 0 0 2 10 0 3 7 0 4 8 0 5 8 0 6 9 0 7 10 0 8 14 0 9 11 0 10 12 0 11 12 0 12 13 0 13 14 0 14 18 1 15 15 1 16 16 1 17 16 1 18 17 1 19 18 1 20 4 2 21 19 2 22 20 2 23 20 2 24 3 2 25 4 2 26 24 3 27 21 3 28 22 3 29 22 4 30 23 4 31 24 4 32 28 2 33 25 2 34 26 2 35 26 2 36 27 2 37 28 2 38 14 0 39 29 0 40 30 0 41 30 0 42 11 0 43 14 0 44 32 4 45 31 4 46 24 4 47 24 4 48 23 4 49 32 4 50 36 5 51 33 5 52 34 5 53 34 5 54 35 5 55 36 5 56 40 6 57 37 6 58 38 6 59 38 7 60 39 7 61 40 7 62 43 0 63 9 0 64 41 0 65 41 0 66 42 0 67 43 0 68 9 0 69 8 0 70 44 0 71 44 0 72 41 0 73 9 0 74 46 8 75 45 8 76 27 8 77 27 9 78 26 9 79 46 9 80 39 1 81 38 1 82 48 1 83 48 1 84 49 1 85 39 1 86 42 0 87 41 0 88 50 0 89 50 0 90 51 0 91 42 0 92 41 0 93 44 0 94 52 0 95 41 0 96 52 0 97 53 0 98 53 0 99 50 0 100 41 0 101 15 1 102 54 1 103 55 1 104 55 1 105 16 1 106 15 1 107 59 5 108 56 5 109 57 5 110 59 5 111 57 5 112 58 5 113 61 10 114 60 10 115 20 10 116 20 2 117 19 2 118 61 2 119 5 2 120 26 2 121 25 2 122 25 2 123 6 2 124 5 2 125 64 5 126 56 5 127 62 5 128 62 5 129 63 5 130 64 5 131 36 5 132 35 5 133 65 5 134 65 5 135 66 5 136 36 5 137 40 11 138 39 11 139 67 11 140 67 12 141 68 12 142 40 12 143 46 2 144 26 2 145 5 2 146 5 2 147 47 2 148 46 2 149 39 1 150 49 1 151 69 1 152 69 1 153 67 1 154 39 1 155 73 0 156 70 0 157 71 0 158 71 0 159 72 0 160 73 0 161 77 2 162 74 2 163 75 2 164 75 2 165 76 2 166 77 2 167 81 13 168 78 13 169 79 14 170 79 14 171 80 14 172 81 13 173 79 14 174 78 13 175 82 13 176 82 13 177 83 14 178 79 14 179 87 1 180 84 1 181 85 1 182 85 1 183 86 1 184 87 1 185 89 0 186 88 0 187 70 0 188 70 0 189 73 0 190 89 0 191 70 0 192 88 0 193 29 0 194 29 0 195 14 0 196 70 0 197 85 1 198 84 1 199 15 1 200 15 1 201 18 1 202 85 1 203 82 13 204 78 13 205 90 15 206 90 15 207 91 15 208 82 13 209 92 15 210 90 15 211 78 13 212 78 13 213 81 13 214 92 15 215 75 2 216 74 2 217 93 2 218 93 2 219 94 2 220 75 2 221 71 0 222 70 0 223 14 0 224 14 0 225 13 0 226 71 0 227 96 0 228 95 0 229 73 0 230 73 0 231 72 0 232 96 0 233 98 2 234 97 2 235 77 2 236 77 2 237 76 2 238 98 2 239 100 16 240 80 14 241 79 14 242 79 14 243 99 16 244 100 16 245 101 16 246 99 16 247 79 14 248 79 14 249 83 14 250 101 16 251 103 17 252 102 17 253 87 17 254 87 18 255 86 18 256 103 18 257 95 0 258 104 0 259 89 0 260 89 0 261 73 0 262 95 0 263 105 19 264 107 19 265 108 19 266 108 19 267 106 19 268 105 19 269 13 0 270 12 0 271 109 0 272 109 0 273 110 0 274 13 0 275 107 20 276 111 20 277 112 20 278 112 21 279 108 21 280 107 21 281 113 0 282 10 0 283 9 0 284 9 0 285 43 0 286 113 0 287 115 22 288 114 22 289 37 22 290 37 22 291 40 22 292 115 22 293 116 23 294 115 23 295 40 23 296 40 24 297 68 24 298 116 24 299 6 2 300 25 2 301 118 2 302 118 2 303 117 2 304 6 2 305 28 2 306 119 2 307 118 2 308 118 2 309 25 2 310 28 2 311 10 0 312 120 0 313 96 0 314 96 0 315 7 0 316 10 0 317 113 0 318 104 0 319 120 0 320 120 0 321 10 0 322 113 0 323 115 25 324 102 25 325 103 25 326 103 25 327 114 25 328 115 25 329 116 24 330 121 24 331 102 24 332 102 23 333 115 23 334 116 23 335 8 0 336 7 0 337 122 0 338 122 0 339 123 0 340 8 0 341 127 26 342 124 26 343 125 26 344 125 27 345 126 27 346 127 27 347 44 0 348 8 0 349 123 0 350 123 0 351 128 0 352 44 0 353 131 0 354 50 0 355 129 0 356 129 0 357 130 0 358 131 0 359 124 28 360 132 28 361 133 28 362 133 29 363 125 29 364 124 29 365 137 30 366 135 30 367 134 30 368 134 30 369 136 30 370 137 30 371 7 0 372 96 0 373 138 0 374 138 0 375 122 0 376 7 0 377 140 31 378 137 31 379 136 31 380 136 32 381 139 32 382 140 32 383 142 33 384 141 33 385 143 33 386 143 34 387 144 34 388 142 34 389 144 35 390 143 35 391 145 35 392 145 36 393 146 36 394 144 36 395 53 0 396 52 0 397 147 0 398 147 0 399 148 0 400 53 0 401 150 5 402 149 5 403 33 5 404 33 5 405 36 5 406 150 5 407 47 2 408 151 2 409 152 2 410 152 2 411 46 2 412 47 2 413 150 5 414 36 5 415 66 5 416 66 5 417 153 5 418 150 5 419 46 37 420 152 37 421 154 37 422 154 38 423 45 38 424 46 38 425 53 0 426 148 0 427 129 0 428 129 0 429 50 0 430 53 0 431 52 0 432 44 0 433 128 0 434 128 0 435 147 0 436 52 0 437 161 0 438 158 0 439 159 0 440 159 0 441 160 0 442 161 0 443 12 0 444 11 0 445 162 0 446 162 0 447 163 0 448 12 0 449 16 1 450 164 1 451 165 1 452 165 39 453 17 39 454 16 39 455 20 2 456 166 2 457 155 2 458 155 40 459 3 40 460 20 40 461 170 5 462 167 5 463 168 5 464 168 41 465 169 41 466 170 41 467 174 2 468 171 2 469 172 2 470 172 42 471 173 42 472 174 42 473 30 0 474 175 0 475 162 0 476 162 0 477 11 0 478 30 0 479 167 5 480 176 5 481 177 5 482 177 5 483 168 5 484 167 5 485 181 4 486 178 4 487 179 4 488 179 4 489 180 4 490 181 4 491 185 43 492 182 43 493 183 43 494 183 44 495 184 44 496 185 44 497 188 0 498 160 0 499 186 0 500 186 0 501 187 0 502 188 0 503 189 0 504 161 0 505 160 0 506 160 0 507 188 0 508 189 0 509 173 45 510 190 45 511 191 45 512 191 46 513 174 46 514 173 46 515 194 1 516 185 1 517 184 1 518 184 1 519 193 1 520 194 1 521 196 0 522 188 0 523 187 0 524 187 0 525 195 0 526 196 0 527 198 0 528 189 0 529 188 0 530 198 0 531 188 0 532 196 0 533 196 0 534 197 0 535 198 0 536 55 1 537 199 1 538 164 1 539 164 39 540 16 39 541 55 39 542 204 4 543 200 4 544 201 4 545 204 4 546 201 4 547 202 4 548 202 4 549 203 4 550 204 4 551 20 2 552 60 2 553 205 2 554 205 2 555 166 2 556 20 2 557 171 2 558 174 2 559 157 2 560 157 2 561 156 2 562 171 2 563 201 4 564 200 4 565 206 4 566 206 4 567 207 4 568 201 4 569 209 4 570 180 4 571 179 4 572 179 4 573 208 4 574 209 4 575 211 47 576 184 47 577 183 47 578 183 48 579 210 48 580 211 48 581 157 2 582 174 2 583 191 2 584 191 2 585 192 2 586 157 2 587 212 1 588 193 1 589 184 1 590 184 1 591 211 1 592 212 1 593 216 0 594 213 0 595 214 0 596 214 0 597 215 0 598 216 0 599 220 2 600 217 2 601 218 2 602 218 2 603 219 2 604 220 2 605 224 13 606 221 14 607 222 14 608 222 14 609 223 13 610 224 13 611 226 14 612 221 14 613 224 13 614 224 13 615 225 13 616 226 14 617 230 1 618 227 1 619 228 1 620 228 1 621 229 1 622 230 1 623 213 0 624 231 0 625 232 0 626 232 0 627 214 0 628 213 0 629 175 0 630 231 0 631 213 0 632 213 0 633 162 0 634 175 0 635 164 1 636 227 1 637 230 1 638 230 1 639 165 1 640 164 1 641 234 16 642 221 14 643 226 14 644 226 14 645 233 16 646 234 16 647 221 14 648 234 16 649 235 16 650 235 16 651 222 14 652 221 14 653 237 2 654 217 2 655 220 2 656 220 2 657 236 2 658 237 2 659 162 0 660 213 0 661 216 0 662 216 0 663 163 0 664 162 0 665 214 0 666 238 0 667 239 0 668 239 0 669 215 0 670 214 0 671 218 2 672 240 2 673 241 2 674 241 2 675 219 2 676 218 2 677 224 13 678 223 13 679 242 15 680 242 15 681 243 15 682 224 13 683 224 13 684 243 15 685 244 15 686 244 15 687 225 13 688 224 13 689 228 49 690 245 49 691 246 49 692 246 50 693 229 50 694 228 50 695 232 0 696 247 0 697 238 0 698 238 0 699 214 0 700 232 0 701 251 51 702 250 51 703 248 51 704 248 51 705 249 51 706 251 51 707 109 0 708 12 0 709 163 0 710 253 52 711 252 52 712 250 52 713 250 53 714 251 53 715 253 53 716 160 0 717 159 0 718 254 0 719 254 0 720 186 0 721 160 0 722 182 54 723 255 54 724 256 54 725 256 54 726 183 54 727 182 54 728 183 55 729 257 55 730 258 55 731 258 56 732 210 56 733 183 56 734 260 2 735 171 2 736 156 2 737 156 2 738 259 2 739 260 2 740 260 2 741 261 2 742 172 2 743 172 2 744 171 2 745 260 2 746 239 0 747 238 0 748 159 0 749 159 0 750 158 0 751 239 0 752 238 0 753 247 0 754 254 0 755 254 0 756 159 0 757 238 0 758 246 57 759 245 57 760 256 57 761 256 57 762 255 57 763 246 57 764 245 56 765 262 56 766 258 56 767 258 55 768 257 55 769 245 55 770 264 0 771 158 0 772 161 0 773 161 0 774 263 0 775 264 0 776 268 58 777 265 58 778 266 58 779 266 59 780 267 59 781 268 59 782 263 0 783 161 0 784 189 0 785 189 0 786 269 0 787 263 0 788 271 0 789 196 0 790 195 0 791 195 0 792 270 0 793 271 0 794 273 60 795 272 60 796 265 60 797 265 61 798 268 61 799 273 61 800 275 62 801 274 62 802 276 62 803 276 62 804 277 62 805 275 62 806 278 0 807 239 0 808 158 0 809 158 0 810 264 0 811 278 0 812 277 63 813 276 63 814 279 63 815 279 64 816 280 64 817 277 64 818 284 65 819 282 65 820 281 65 821 281 66 822 283 66 823 284 66 824 286 67 825 284 67 826 283 67 827 283 68 828 285 68 829 286 68 830 288 0 831 198 0 832 197 0 833 197 0 834 287 0 835 288 0 836 178 4 837 289 4 838 290 4 839 290 4 840 179 4 841 178 4 842 292 2 843 291 2 844 192 2 845 192 2 846 191 2 847 292 2 848 208 4 849 179 4 850 290 4 851 290 4 852 293 4 853 208 4 854 294 2 855 292 2 856 191 2 857 191 69 858 190 69 859 294 69 860 271 0 861 287 0 862 197 0 863 197 0 864 196 0 865 271 0 866 269 0 867 189 0 868 198 0 869 198 0 870 288 0 871 269 0 872</p>
        </triangles>
      </mesh>
    </geometry>
  </library_geometries>
  <library_visual_scenes>
    <visual_scene id="Scene" name="Scene">
      <node id="pallet_low_005" name="pallet_low.005" type="NODE">
        <matrix sid="transform">-4.72375e-10 2.8213e-9 0.008982334 0 -3.22064e-10 -0.009999999 2.53419e-9 0 0.01080668 -2.98023e-10 3.9263e-10 0 0 0 0 1</matrix>
        <instance_geometry url="#meshId0_name_005-mesh" name="pallet_low.005">
          <bind_material>
            <technique_common>
              <instance_material symbol="blinn1_001-material" target="#blinn1_001-material">
                <bind_vertex_input semantic="meshId0-tex0" input_semantic="TEXCOORD" input_set="0"/>
              </instance_material>
            </technique_common>
          </bind_material>
        </instance_geometry>
      </node>
    </visual_scene>
  </library_visual_scenes>
  <scene>
    <instance_visual_scene url="#Scene"/>
  </scene>
</COLLADA>