<?xml version="1.0" encoding="utf-8"?>
<COLLADA xmlns="http://www.collada.org/2005/11/COLLADASchema" version="1.4.1" xmlns:xsi="http://www.w3.org/2001/XMLSchema-instance">
  <asset>
    <contributor>
      <author>Blender User</author>
      <authoring_tool>Blender 2.83.20 commit date:2022-04-19, commit time:16:00, hash:a56e2faeb7a9</authoring_tool>
    </contributor>
    <created>2026-07-03T14:05:50</created>
    <modified>2026-07-03T14:05:50</modified>
    <unit name="meter" meter="1"/>
    <up_axis>Z_UP</up_axis>
  </asset>
  <library_effects>
    <effect id="blinn1_001-effect">
      <profile_COMMON>
        <newparam sid="blinn1_albedo_jpg-surface">
          <surface type="2D">
            <init_from>blinn1_albedo_jpg</init_from>
          </surface>
        </newparam>
        <newparam sid="blinn1_albedo_jpg-sampler">
          <sampler2D>
            <source>blinn1_albedo_jpg-surface</source>
          </sampler2D>
        </newparam>
        <technique sid="common">
          <lambert>
            <emission>
              <color sid="emission">0 0 0 1</color>
            </emission>
            <diffuse>
              <texture texture="blinn1_albedo_jpg-sampler" texcoord="meshId0-tex0"/>
            </diffuse>
            <index_of_refraction>
              <float sid="ior">1.45</float>
            </index_of_refraction>
          </lambert>
        </technique>
      </profile_COMMON>
    </effect>
  </library_effects>
  <library_images>
    <image id="blinn1_albedo_jpg" name="blinn1_albedo_jpg">
      <init_from>blinn1_albedo.jpg</init_from>
    </image>
  </library_images>
  <library_materials>
    <material id="blinn1_001-material" name="blinn1.001">
      <instance_effect url="#blinn1_001-effect"/>
    </material>
  </library_materials>
  <library_geometries>
    <geometry id="meshId0_name_003-mesh" name="meshId0_name.003">
      <mesh>
        <source id="meshId0_name_003-mesh-positions">
          <float_array id="meshId0_name_003-mesh-positions-array" count="885">50.89446 11.45651 0 50.89446 11.45651 -5.943206 50.89446 11.45651 -48.2783 50.89446 11.45651 -51.96453 50 0 -46.9696 43.42132 0 -46.9696 43.42132 0 -50.65585 50 0 -50.65585 43.42132 0 0 43.42132 0 -7.619237 50 0 -7.619237 50 0 0 38.86675 2.190167 -7.619237 38.86675 0 -7.619237 38.86675 0 0 38.86675 2.190167 0 50.89446 2.190167 -5.943206 50.89446 2.190167 0 43.42132 11.45651 -43.28335 43.42132 2.190167 -43.28335 50 2.190167 -43.28336 50 11.45651 -43.28336 50.89446 2.190167 -48.2783 50.89446 0 -48.2783 50.89446 0 -51.96454 50.89446 2.190167 -51.96453 38.86675 0 -7.619237 38.86675 0 0 38.86674 11.45651 -43.28335 38.86674 2.190167 -43.28335 44.2445 11.45651 -61.2313 44.2445 2.190167 -61.2313 39.8965 2.190167 -61.2313 39.8965 11.45651 -61.2313 38.86675 0 -50.65585 38.86675 2.190167 -50.65585 38.86675 2.190167 -53.84106 38.86675 0 -53.84106 38.86675 0 -50.65585 38.86675 0 -53.84106 43.42132 0 -53.84106 50 0 -53.84106 50.89446 0 -55.14976 50.89446 2.190167 -55.14975 50.89446 11.45651 -55.14975 38.86675 2.190167 -60 38.86675 0 -60 38.86675 0 -60 43.42132 0 -60 46.89921 0 -59.63922 49.05481 0 -58.01751 38.86675 11.45651 -7.619237 38.86675 11.45651 0 43.42132 2.190167 -7.619237 43.42132 11.45651 -7.619237 47.97589 11.45651 -7.619237 50 11.45651 -7.619237 50 2.190167 -7.619237 50.89446 0 0 50.89446 0 -5.943206 38.86675 2.190167 -7.619237 38.86675 11.45651 -7.619237 44.2445 0 -61.2313 39.8965 0 -61.2313 38.86675 11.45651 -50.65585 38.86675 11.45651 -53.84106 38.86675 11.45651 -60 43.42132 0 -8.628038 43.42132 0 -42.27455 50 0 -42.27455 50 0 -8.628038 50 0 -8.628038 50 0 -42.27455 50 1.398797 -42.27455 50 1.398797 -8.628038 43.42132 1.398797 -8.628038 50 1.398797 -8.628038 50 1.398797 -42.27455 43.42132 1.398797 -42.27455 38.86675 1.398797 -42.27455 38.86675 1.398797 -8.628038 38.86675 1.398797 -8.628038 38.86675 1.398797 -42.27455 38.86675 0 -42.27455 38.86675 0 -8.628038 38.86675 0 -8.628038 38.86675 0 -42.27455 38.86675 2.190167 -7.619237 43.42132 2.190167 -7.619237 50 2.190167 -7.619237 50 2.190167 -7.619237 50 0 -7.619237 43.42132 0 -43.28335 50 0 -43.28336 50 0 -43.28336 50 2.190167 -43.28336 50 2.190167 -43.28336 43.42132 2.190167 -43.28335 38.86674 2.190167 -43.28335 38.86674 2.190167 -43.28335 38.86674 0 -43.28335 38.86674 0 -43.28335 50 11.45651 -7.619237 50.89446 11.45651 -5.943206 50 2.190167 -7.619237 50.89446 2.190167 -5.943206 50.89446 0 -5.943206 50.89446 0 0 50 0 -7.619237 50.89446 0 -5.943206 38.86675 0 -46.9696 38.86675 0 -46.9696 38.86675 2.190167 -46.9696 38.86675 11.45651 -46.9696 50.89446 11.45651 -44.59205 50.89446 2.190167 -44.59205 50.89446 0 -44.59205 38.86674 11.45651 -43.28335 50.89446 0 -51.96454 50.89446 0 -48.2783 38.86675 2.190167 -60 38.86675 11.45651 -60 39.8965 11.45651 -61.2313 39.8965 2.190167 -61.2313 50.89446 0 -55.14976 39.8965 0 -61.2313 44.2445 0 -61.2313 38.86675 0 -60 39.8965 0 -61.2313 50 11.45651 -43.28336 50.89446 11.45651 -44.59205 50 2.190167 -43.28336 50.89446 2.190167 -44.59205 50.89446 0 -44.59205 50 0 -43.28336 50.89446 0 -44.59205 50.89446 11.45651 -59.37711 49.04027 11.45651 -61.2313 50.89446 2.190167 -59.37711 49.04027 2.190167 -61.2313 50.89446 0 -59.37279 49.03595 0 -61.2313 49.03595 0 -61.2313 50.89446 0 -59.37279 49.04027 11.45651 -61.2313 49.04027 2.190167 -61.2313 50.89446 11.45651 -59.37711 50.89446 2.190167 -59.37711 49.03595 0 -61.2313 50.89446 0 -59.37279 50.89446 11.45651 5.943206 50.89446 11.45651 51.96453 50.89446 11.45651 48.2783 50 0 46.9696 50 0 50.65585 43.42132 0 50.65585 43.42132 0 46.9696 50 0 7.619237 43.42132 0 7.619237 38.86675 2.190167 7.619237 38.86675 0 7.619237 50.89446 2.190167 5.943206 50 11.45651 43.28336 50 2.190167 43.28336 43.42132 2.190167 43.28335 43.42132 11.45651 43.28335 50.89446 2.190167 48.2783 50.89446 2.190167 51.96453 50.89446 0 51.96454 50.89446 0 48.2783 38.86675 0 7.619237 38.86674 11.45651 43.28335 38.86674 2.190167 43.28335 44.2445 11.45651 61.2313 39.8965 11.45651 61.2313 39.8965 2.190167 61.2313 44.2445 2.190167 61.2313 38.86675 0 50.65585 38.86675 0 53.84106 38.86675 2.190167 53.84106 38.86675 2.190167 50.65585 43.42132 0 53.84106 38.86675 0 53.84106 38.86675 0 50.65585 50 0 53.84106 50.89446 0 55.14976 50.89446 2.190167 55.14975 50.89446 11.45651 55.14975 38.86675 0 60 38.86675 2.190167 60 43.42132 0 60 38.86675 0 60 49.05481 0 58.01751 46.89921 0 59.63922 38.86675 11.45651 7.619237 43.42132 2.190167 7.619237 50 2.190167 7.619237 50 11.45651 7.619237 43.42132 11.45651 7.619237 50.89446 0 5.943206 43.42132 11.45651 7.619237 38.86675 11.45651 7.619237 38.86675 2.190167 7.619237 39.8965 0 61.2313 44.2445 0 61.2313 38.86675 11.45651 53.84106 38.86675 11.45651 50.65585 38.86675 11.45651 60 43.42132 0 8.628038 50 0 8.628038 50 0 42.27455 43.42132 0 42.27455 50 0 8.628038 50 1.398797 8.628038 50 1.398797 42.27455 50 0 42.27455 43.42132 1.398797 8.628038 43.42132 1.398797 42.27455 50 1.398797 42.27455 50 1.398797 8.628038 43.42132 1.398797 8.628038 38.86675 1.398797 8.628038 38.86675 1.398797 42.27455 38.86675 1.398797 8.628038 38.86675 0 8.628038 38.86675 0 42.27455 38.86675 1.398797 42.27455 38.86675 0 8.628038 38.86675 0 42.27455 43.42132 2.190167 7.619237 38.86675 2.190167 7.619237 50 2.190167 7.619237 50 0 7.619237 50 2.190167 7.619237 43.42132 0 43.28335 50 0 43.28336 50 0 43.28336 50 2.190167 43.28336 43.42132 2.190167 43.28335 50 2.190167 43.28336 38.86674 2.190167 43.28335 38.86674 2.190167 43.28335 38.86674 0 43.28335 38.86674 0 43.28335 50 11.45651 7.619237 50.89446 11.45651 5.943206 50 2.190167 7.619237 50.89446 2.190167 5.943206 50.89446 0 5.943206 50 0 7.619237 50.89446 0 5.943206 43.42132 0 50.65585 38.86675 0 46.9696 38.86675 0 46.9696 38.86675 2.190167 46.9696 38.86675 11.45651 46.9696 50.89446 11.45651 44.59205 50.89446 2.190167 44.59205 50.89446 0 44.59205 43.42132 0 43.28335 50 0 43.28336 38.86674 0 43.28335 38.86674 11.45651 43.28335 50.89446 0 48.2783 50.89446 0 51.96454 38.86675 2.190167 60 39.8965 2.190167 61.2313 39.8965 11.45651 61.2313 38.86675 11.45651 60 50.89446 0 55.14976 44.2445 0 61.2313 39.8965 0 61.2313 38.86675 0 60 39.8965 0 61.2313 50.89446 11.45651 44.59205 50 11.45651 43.28336 50.89446 2.190167 44.59205 50 2.190167 43.28336 50.89446 0 44.59205 50.89446 0 44.59205 50 0 43.28336 49.04027 11.45651 61.2313 50.89446 11.45651 59.37711 49.04027 2.190167 61.2313 50.89446 2.190167 59.37711 49.03595 0 61.2313 50.89446 0 59.37279 50.89446 0 59.37279 49.03595 0 61.2313 49.04027 11.45651 61.2313 49.04027 2.190167 61.2313 50.89446 11.45651 59.37711 50.89446 2.190167 59.37711 49.03595 0 61.2313 50.89446 0 59.37279</float_array>
          <technique_common>
            <accessor source="#meshId0_name_003-mesh-positions-array" count="295" stride="3">
              <param name="X" type="float"/>
              <param name="Y" type="float"/>
              <param name="Z" type="float"/>
            </accessor>
          </technique_common>
        </source>
        <source id="meshId0_name_003-mesh-normals">
          <float_array id="meshId0_name_003-mesh-normals-array" count="237">0 -1 0 -1 0 0 1 0 0 0 0 1 1.00123e-6 0 1 1 1.04473e-6 0 0 0 -1 -1 0 1.19763e-6 -1 0 1.19763e-6 1 1.20906e-6 0 1 -1.20906e-6 0 -1 0 1.19763e-6 -1 0 1.19763e-6 0 0.9452004 0.326491 0 0.9452004 -0.326491 0 0.7867884 -0.617223 0 0.7867884 0.617223 -1 0 3.78142e-6 -1 0 3.78141e-6 0.8822271 0 -0.4708241 0.8822272 0 -0.470824 0.8822271 0 -0.4708241 -1 0 -1.03485e-6 -1 0 -1.03485e-6 -1 0 -1.03484e-6 -1 0 -1.03485e-6 -1 0 -1.03485e-6 -0.7670959 0 -0.6415326 -0.7670992 0 -0.6415286 -0.7670981 0 -0.6415298 -0.7670946 0 -0.6415341 0.825591 0 0.5642692 0.8255884 0 0.5642731 0.8255903 0 0.5642701 0.8255889 0 0.5642722 0.7071097 0 -0.7071039 0.7071072 0 -0.7071064 0.7071064 -0.00139749 -0.7071058 0.7071059 -0.001396894 -0.7071063 1 3.29951e-6 0 1.00123e-6 0 -1 -1 0 -1.19763e-6 -1 0 -1.19763e-6 -1 0 -1.19763e-6 -1 0 -1.19763e-6 -1 0 -3.7814e-6 -1 0 -3.78141e-6 0.8822271 0 0.4708241 0.8822272 0 0.470824 0.8822271 0 0.4708241 -1 0 1.03485e-6 -1 0 1.03485e-6 -1 0 1.03484e-6 -1 0 1.03485e-6 -1 0 1.03485e-6 -0.7670959 0 0.6415326 -0.7670992 0 0.6415286 -0.7670981 0 0.6415298 -0.7670946 0 0.6415341 0.825591 0 -0.5642692 0.8255884 0 -0.5642731 0.8255903 0 -0.5642701 0.8255889 0 -0.5642722 0.7071097 0 0.7071039 0.7071072 0 0.7071064 0.7071064 -0.00139749 0.7071058 0.7071059 -0.001396119 0.7071063 1 -4.76392e-7 0 1 2.38757e-6 0 0 1 0 0 1 0 0 1 0 0 1 -1.27998e-6 0 1 -1.29231e-7 0 1 0 0 1 0 0 1 6.88308e-7 0 1 -2.21542e-7 0 -1 8.40266e-7</float_array>
          <technique_common>
            <accessor source="#meshId0_name_003-mesh-normals-array" count="79" stride="3">
              <param name="X" type="float"/>
              <param name="Y" type="float"/>
              <param name="Z" type="float"/>
            </accessor>
          </technique_common>
        </source>
        <source id="meshId0_name_003-mesh-map-0">
          <float_array id="meshId0_name_003-mesh-map-0-array" count="2082">0.04494094 0.629603 0.060606 0.629603 0.060606 0.656579 0.060606 0.656579 0.04494094 0.656579 0.04494094 0.629603 0.260207 0.629603 0.260207 0.656579 0.227828 0.656579 0.227828 0.656579 0.227828 0.629603 0.260207 0.629603 0.878879 0.246034 0.878879 0.277277 0.869572 0.277277 0.869572 0.277277 0.869572 0.246034 0.878879 0.246034 0.311274 0.613968 0.286018 0.613968 0.286018 0.575971 0.286018 0.575971 0.311274 0.575971 0.311274 0.613968 0.296725 0.893383 0.296725 0.866407 0.336104 0.866407 0.336104 0.866407 0.336104 0.893383 0.296725 0.893383 0.08832097 0.613969 0.103986 0.613969 0.103986 0.62295 0.103986 0.62295 0.08832097 0.62295 0.08832097 0.613969 0.260207 0.675255 0.227828 0.675255 0.227828 0.656579 0.227828 0.656579 0.260207 0.656579 0.260207 0.675255 0.296725 0.866407 0.296726 0.84773 0.336104 0.84773 0.336104 0.84773 0.336104 0.866407 0.296725 0.866407 0.006820976 0.575973 0.02529799 0.575972 0.02529996 0.61397 0.02529996 0.61397 0.006822943 0.613971 0.006820976 0.575973 0.869572 0.466812 0.869572 0.453751 0.878879 0.453751 0.878879 0.453751 0.878879 0.466812 0.869572 0.466812 0.03140497 0.656579 0.04494094 0.656579 0.04494094 0.675255 0.04494094 0.675255 0.03140497 0.675255 0.03140497 0.656579 0.03140497 0.629603 0.04494094 0.629603 0.04494094 0.656579 0.04494094 0.656579 0.03140497 0.656579 0.03140497 0.629603 0.08832097 0.62295 0.07478398 0.62295 0.074786 0.613969 0.074786 0.613969 0.08832097 0.613969 0.08832097 0.62295 0.869572 0.492067 0.869572 0.466812 0.878879 0.466812 0.878879 0.466812 0.878879 0.492067 0.869572 0.492067 0.005231976 0.656579 0.03140497 0.656579 0.03140497 0.675255 0.03140497 0.675255 0.005231976 0.675255 0.005231976 0.656579 0.01365697 0.633479 0.03140497 0.629603 0.03140497 0.656579 0.01365697 0.633479 0.03140497 0.656579 0.005231976 0.656579 0.005231976 0.656579 0.006765961 0.642318 0.01365697 0.633479 0.918257 0.246034 0.918257 0.277277 0.878879 0.277277 0.878879 0.277277 0.878879 0.246034 0.918257 0.246034 0.251393 0.893383 0.251392 0.866407 0.29077 0.866407 0.251393 0.893383 0.29077 0.866407 0.29077 0.885083 0.29077 0.885083 0.29077 0.893383 0.251393 0.893383 0.311274 0.613968 0.311274 0.622949 0.286018 0.622949 0.286018 0.622949 0.286018 0.613968 0.311274 0.613968 0.103986 0.613969 0.08832097 0.613969 0.08832097 0.575971 0.08832097 0.575971 0.103986 0.575971 0.103986 0.613969 0.29077 0.866407 0.251392 0.866407 0.251392 0.84773 0.251392 0.84773 0.29077 0.84773 0.29077 0.866407 0.006823956 0.622952 0.006822943 0.613971 0.02529996 0.61397 0.02529996 0.61397 0.02530199 0.622951 0.006823956 0.622952 0.918257 0.466812 0.878879 0.466812 0.878879 0.453751 0.878879 0.453751 0.918257 0.453751 0.918257 0.466812 0.08832097 0.575971 0.08832097 0.613969 0.074786 0.613969 0.074786 0.613969 0.07478499 0.575971 0.08832097 0.575971 0.918257 0.492067 0.878879 0.492067 0.878879 0.466812 0.878879 0.466812 0.918257 0.466812 0.918257 0.492067 0.223541 0.629603 0.223541 0.656579 0.080558 0.656579 0.080558 0.656579 0.080558 0.629603 0.223541 0.629603 0.273657 0.617213 0.273658 0.622949 0.130674 0.622949 0.130674 0.622949 0.130674 0.617214 0.273657 0.617213 0.819225 0.500306 0.819225 0.638276 0.791268 0.638276 0.791268 0.638276 0.791268 0.500306 0.819225 0.500306 0.83858 0.638276 0.819225 0.638276 0.819225 0.500306 0.819225 0.500306 0.83858 0.500306 0.83858 0.638276 0.869572 0.281413 0.875516 0.281413 0.875516 0.419383 0.875516 0.419383 0.869572 0.419383 0.869572 0.281413 0.223541 0.656579 0.223541 0.675255 0.080558 0.675255 0.080558 0.675255 0.080558 0.656579 0.223541 0.656579 0.227828 0.675255 0.223541 0.675255 0.223541 0.656579 0.223541 0.656579 0.227828 0.656579 0.227828 0.675255 0.878879 0.277277 0.875516 0.281413 0.869572 0.281413 0.869572 0.281413 0.869572 0.277277 0.878879 0.277277 0.819225 0.643533 0.819225 0.638276 0.83858 0.638276 0.83858 0.638276 0.83858 0.643533 0.819225 0.643533 0.819225 0.638276 0.819225 0.643533 0.791268 0.643533 0.791268 0.643533 0.791268 0.638276 0.819225 0.638276 0.277944 0.622949 0.273658 0.622949 0.273657 0.617213 0.273657 0.617213 0.277944 0.613968 0.277944 0.622949 0.227828 0.656579 0.223541 0.656579 0.223541 0.629603 0.223541 0.629603 0.227828 0.629603 0.227828 0.656579 0.080558 0.656579 0.07627099 0.656579 0.07627099 0.629603 0.07627099 0.629603 0.080558 0.629603 0.080558 0.656579 0.130674 0.622949 0.126387 0.622949 0.126387 0.613969 0.126387 0.613969 0.130674 0.617214 0.130674 0.622949 0.819225 0.500306 0.791268 0.500306 0.791268 0.495049 0.791268 0.495049 0.819225 0.495049 0.819225 0.500306 0.819225 0.500306 0.819225 0.495049 0.83858 0.495049 0.83858 0.495049 0.83858 0.500306 0.819225 0.500306 0.875516 0.419383 0.878879 0.423519 0.869572 0.423519 0.869572 0.423519 0.869572 0.419383 0.875516 0.419383 0.080558 0.675255 0.07627099 0.675255 0.07627099 0.656579 0.07627099 0.656579 0.080558 0.656579 0.080558 0.675255 0.286018 0.613968 0.277944 0.613968 0.277944 0.575971 0.277944 0.575971 0.286018 0.575971 0.286018 0.613968 0.260207 0.625935 0.260207 0.629603 0.227828 0.629603 0.227828 0.629603 0.234951 0.625935 0.260207 0.625935 0.286018 0.622949 0.277944 0.622949 0.277944 0.613968 0.277944 0.613968 0.286018 0.613968 0.286018 0.622949 0.04494094 0.656579 0.060606 0.656579 0.060606 0.675255 0.060606 0.675255 0.04494094 0.675255 0.04494094 0.656579 0.869572 0.453751 0.869572 0.438635 0.878879 0.438635 0.878879 0.438635 0.878879 0.453751 0.869572 0.453751 0.878879 0.453751 0.878879 0.438635 0.918257 0.438635 0.918257 0.438635 0.918257 0.453751 0.878879 0.453751 0.119651 0.613969 0.103986 0.613969 0.103986 0.575971 0.103986 0.575971 0.119651 0.575971 0.119651 0.613969 0.119651 0.613969 0.119651 0.62295 0.103986 0.62295 0.103986 0.62295 0.103986 0.613969 0.119651 0.613969 0.07627099 0.629603 0.07627099 0.656579 0.060606 0.656579 0.060606 0.656579 0.060606 0.629603 0.07627099 0.629603 0.07627099 0.656579 0.07627099 0.675255 0.060606 0.675255 0.060606 0.675255 0.060606 0.656579 0.07627099 0.656579 0.869572 0.423519 0.878879 0.423519 0.878879 0.438635 0.878879 0.438635 0.869572 0.438635 0.869572 0.423519 0.878879 0.423519 0.918257 0.423519 0.918257 0.438635 0.918257 0.438635 0.878879 0.438635 0.878879 0.423519 0.05504494 0.625935 0.060606 0.629603 0.04494094 0.629603 0.04494094 0.629603 0.03937995 0.625935 0.05504494 0.625935 0.006822943 0.613971 2e-6 0.613972 0 0.575973 0 0.575973 0.006820976 0.575973 0.006822943 0.613971 0.03937995 0.625935 0.04494094 0.629603 0.03140497 0.629603 0.03140497 0.629603 0.02584397 0.625935 0.03937995 0.625935 0 0.653204 0.005231976 0.656579 0.005231976 0.675255 0.005231976 0.675255 0 0.671033 0 0.653204 0.006823956 0.622952 3e-6 0.622953 2e-6 0.613972 2e-6 0.613972 0.006822943 0.613971 0.006823956 0.622952 0.119651 0.575971 0.126387 0.575971 0.126387 0.613969 0.126387 0.613969 0.119651 0.613969 0.119651 0.575971 0.07071 0.625935 0.07627099 0.629603 0.060606 0.629603 0.060606 0.629603 0.05504494 0.625935 0.07071 0.625935 0.119651 0.613969 0.126387 0.613969 0.126387 0.622949 0.126387 0.622949 0.119651 0.62295 0.119651 0.613969 0.04567897 0.613968 0.04567795 0.575973 0.05682098 0.575973 0.05682098 0.575973 0.056822 0.613967 0.04567897 0.613968 0.04566496 0.622949 0.04567897 0.613968 0.056822 0.613967 0.056822 0.613967 0.05683696 0.622948 0.04566496 0.622949 0.007897973 0.625935 0.01365697 0.633479 0.006765961 0.642318 0.006765961 0.642318 0 0.633556 0.007897973 0.625935 0.02529799 0.575972 0.04567795 0.575973 0.04567897 0.613968 0.04567897 0.613968 0.02529996 0.61397 0.02529799 0.575972 0.056822 0.613967 0.05682098 0.575973 0.07478499 0.575971 0.07478499 0.575971 0.074786 0.613969 0.056822 0.613967 0.02530199 0.622951 0.02529996 0.61397 0.04567897 0.613968 0.04567897 0.613968 0.04566496 0.622949 0.02530199 0.622951 0.05683696 0.622948 0.056822 0.613967 0.074786 0.613969 0.074786 0.613969 0.07478398 0.62295 0.05683696 0.622948 0 0.653204 0 0.633556 0.006765961 0.642318 0.006765961 0.642318 0.005231976 0.656579 0 0.653204 0.02584397 0.625935 0.03140497 0.629603 0.01365697 0.633479 0.01365697 0.633479 0.007897973 0.625935 0.02584397 0.625935 0.459808 0.656579 0.459808 0.629603 0.475473 0.629603 0.475473 0.629603 0.475473 0.65658 0.459808 0.656579 0.292586 0.656579 0.260207 0.656579 0.260207 0.629603 0.260207 0.629603 0.292586 0.629603 0.292586 0.656579 0.869572 0.2147909 0.878879 0.21479 0.878879 0.246034 0.878879 0.246034 0.869572 0.246034 0.869572 0.2147909 0.33653 0.575971 0.33653 0.613968 0.311274 0.613968 0.311274 0.613968 0.311274 0.575971 0.33653 0.575971 0.646118 0.03890997 0.618178 0.03797399 0.619545 0 0.619545 0 0.647485 9.36e-4 0.646118 0.03890997 0.518562 0.62295 0.518561 0.613969 0.534226 0.613969 0.534226 0.613969 0.534227 0.62295 0.518562 0.62295 0.292586 0.656579 0.292586 0.675256 0.260207 0.675255 0.260207 0.675255 0.260207 0.656579 0.292586 0.656579 0.666828 0.001583993 0.665461 0.03955894 0.646118 0.03890997 0.646118 0.03890997 0.647485 9.36e-4 0.666828 0.001583993 0.597247 0.61397 0.597249 0.575972 0.615726 0.575972 0.615726 0.575972 0.615724 0.613971 0.597247 0.61397 0.878878 0.03831595 0.869571 0.03831595 0.869571 0.02525496 0.869571 0.02525496 0.878878 0.02525496 0.878878 0.03831595 0.475473 0.675256 0.475473 0.65658 0.489009 0.65658 0.489009 0.65658 0.489009 0.675256 0.475473 0.675256 0.475473 0.65658 0.475473 0.629603 0.489009 0.629603 0.489009 0.629603 0.489009 0.65658 0.475473 0.65658 0.547762 0.613969 0.547763 0.622949 0.534227 0.62295 0.534227 0.62295 0.534226 0.613969 0.547762 0.613969 0.878878 0.02525496 0.869571 0.02525496 0.86957 0 0.86957 0 0.878878 0 0.878878 0.02525496 0.489009 0.675256 0.489009 0.65658 0.515182 0.65658 0.515182 0.65658 0.515181 0.675256 0.489009 0.675256 0.489009 0.65658 0.489009 0.629603 0.506757 0.633479 0.489009 0.65658 0.506757 0.633479 0.513648 0.642318 0.513648 0.642318 0.515182 0.65658 0.489009 0.65658 0.878879 0.21479 0.918257 0.21479 0.918257 0.246034 0.918257 0.246034 0.878879 0.246034 0.878879 0.21479 0.646135 0.217773 0.646135 0.25577 0.618178 0.25577 0.646135 0.217773 0.618178 0.25577 0.618178 0.217773 0.33653 0.622949 0.311274 0.622949 0.311274 0.613968 0.311274 0.613968 0.33653 0.613968 0.33653 0.622949 0.534226 0.575971 0.534226 0.613969 0.518561 0.613969 0.518561 0.613969 0.518561 0.575971 0.534226 0.575971 0.66549 0.25577 0.646135 0.25577 0.646135 0.217773 0.646135 0.217773 0.66549 0.217773 0.66549 0.25577 0.597247 0.61397 0.615724 0.613971 0.615724 0.622952 0.615724 0.622952 0.597246 0.622951 0.597247 0.61397 0.878878 0.03831595 0.878878 0.02525496 0.918256 0.02525496 0.918256 0.02525496 0.918256 0.03831595 0.878878 0.03831595 0.547762 0.613969 0.534226 0.613969 0.534226 0.575971 0.534226 0.575971 0.547762 0.575971 0.547762 0.613969 0.878878 0.02525496 0.878878 0 0.918256 0 0.918256 0 0.918256 0.02525496 0.878878 0.02525496 0.439856 0.656579 0.296872 0.656579 0.296873 0.629603 0.296873 0.629603 0.439856 0.629603 0.439856 0.656579 0.491873 0.622949 0.34889 0.622949 0.34889 0.617213 0.34889 0.617213 0.491873 0.617213 0.491873 0.622949 0.574824 0.769159 0.546867 0.769159 0.546867 0.63119 0.546867 0.63119 0.574824 0.63119 0.574824 0.769159 0.546867 0.63119 0.546867 0.769159 0.527512 0.769159 0.527512 0.769159 0.527512 0.63119 0.546867 0.63119 0.875515 0.07268399 0.875516 0.210654 0.869572 0.210654 0.869572 0.210654 0.869571 0.07268399 0.875515 0.07268399 0.439856 0.675256 0.296872 0.675256 0.296872 0.656579 0.296872 0.656579 0.439856 0.656579 0.439856 0.675256 0.296872 0.656579 0.296872 0.675256 0.292586 0.675256 0.292586 0.675256 0.292586 0.656579 0.296872 0.656579 0.869572 0.210654 0.875516 0.210654 0.878879 0.21479 0.878879 0.21479 0.869572 0.2147909 0.869572 0.210654 0.527512 0.769159 0.546867 0.769159 0.546867 0.774417 0.546867 0.774417 0.527512 0.774417 0.527512 0.769159 0.574824 0.774417 0.546867 0.774417 0.546867 0.769159 0.546867 0.769159 0.574824 0.769159 0.574824 0.774417 0.34889 0.617213 0.34889 0.622949 0.344603 0.622949 0.344603 0.622949 0.344603 0.613968 0.34889 0.617213 0.296873 0.629603 0.296872 0.656579 0.292586 0.656579 0.292586 0.656579 0.292586 0.629603 0.296873 0.629603 0.444143 0.629603 0.444143 0.65658 0.439856 0.656579 0.439856 0.656579 0.439856 0.629603 0.444143 0.629603 0.49616 0.613968 0.49616 0.622949 0.491873 0.622949 0.491873 0.622949 0.491873 0.617213 0.49616 0.613968 0.574824 0.625932 0.574824 0.63119 0.546867 0.63119 0.546867 0.63119 0.546867 0.625932 0.574824 0.625932 0.527512 0.625932 0.546867 0.625932 0.546867 0.63119 0.546867 0.63119 0.527512 0.63119 0.527512 0.625932 0.869571 0.06854796 0.878878 0.06854796 0.875515 0.07268399 0.875515 0.07268399 0.869571 0.07268399 0.869571 0.06854796 0.444143 0.65658 0.444143 0.675256 0.439856 0.675256 0.439856 0.675256 0.439856 0.656579 0.444143 0.65658 0.344603 0.575971 0.344603 0.613968 0.33653 0.613968 0.33653 0.613968 0.33653 0.575971 0.344603 0.575971 0.292586 0.629603 0.260207 0.629603 0.260207 0.625935 0.260207 0.625935 0.285463 0.625935 0.292586 0.629603 0.344603 0.613968 0.344603 0.622949 0.33653 0.622949 0.33653 0.622949 0.33653 0.613968 0.344603 0.613968 0.459808 0.675256 0.459808 0.656579 0.475473 0.65658 0.475473 0.65658 0.475473 0.675256 0.459808 0.675256 0.878878 0.05343198 0.869571 0.05343198 0.869571 0.03831595 0.869571 0.03831595 0.878878 0.03831595 0.878878 0.05343198 0.918256 0.05343198 0.878878 0.05343198 0.878878 0.03831595 0.878878 0.03831595 0.918256 0.03831595 0.918256 0.05343198 0.518561 0.575971 0.518561 0.613969 0.502896 0.613968 0.502896 0.613968 0.502896 0.575971 0.518561 0.575971 0.518562 0.62295 0.502897 0.622949 0.502896 0.613968 0.502896 0.613968 0.518561 0.613969 0.518562 0.62295 0.459808 0.656579 0.444143 0.65658 0.444143 0.629603 0.444143 0.629603 0.459808 0.629603 0.459808 0.656579 0.459808 0.675256 0.444143 0.675256 0.444143 0.65658 0.444143 0.65658 0.459808 0.656579 0.459808 0.675256 0.878878 0.05343198 0.878878 0.06854796 0.869571 0.06854796 0.869571 0.06854796 0.869571 0.05343198 0.878878 0.05343198 0.918256 0.05343198 0.918256 0.06854796 0.878878 0.06854796 0.878878 0.06854796 0.878878 0.05343198 0.918256 0.05343198 0.475473 0.629603 0.459808 0.629603 0.465369 0.625935 0.465369 0.625935 0.481034 0.625935 0.475473 0.629603 0.622547 0.575973 0.622546 0.613971 0.615724 0.613971 0.615724 0.613971 0.615726 0.575972 0.622547 0.575973 0.489009 0.629603 0.475473 0.629603 0.481034 0.625935 0.481034 0.625935 0.49457 0.625936 0.489009 0.629603 0.515181 0.675256 0.515182 0.65658 0.520414 0.653204 0.520414 0.653204 0.520414 0.671033 0.515181 0.675256 0.622546 0.613971 0.622545 0.622952 0.615724 0.622952 0.615724 0.622952 0.615724 0.613971 0.622546 0.613971 0.49616 0.613968 0.49616 0.575971 0.502896 0.575971 0.502896 0.575971 0.502896 0.613968 0.49616 0.613968 0.459808 0.629603 0.444143 0.629603 0.449704 0.625935 0.449704 0.625935 0.465369 0.625935 0.459808 0.629603 0.49616 0.622949 0.49616 0.613968 0.502896 0.613968 0.502896 0.613968 0.502897 0.622949 0.49616 0.622949 0.565727 0.575973 0.576869 0.575973 0.576868 0.613967 0.576868 0.613967 0.565726 0.613967 0.565727 0.575973 0.565726 0.613967 0.576868 0.613967 0.576883 0.622948 0.576883 0.622948 0.565711 0.622948 0.565726 0.613967 0.513648 0.642318 0.506757 0.633479 0.512516 0.625935 0.512516 0.625935 0.520414 0.633556 0.513648 0.642318 0.576868 0.613967 0.576869 0.575973 0.597249 0.575972 0.597249 0.575972 0.597247 0.61397 0.576868 0.613967 0.547762 0.575971 0.565727 0.575973 0.565726 0.613967 0.565726 0.613967 0.547762 0.613969 0.547762 0.575971 0.576868 0.613967 0.597247 0.61397 0.597246 0.622951 0.597246 0.622951 0.576883 0.622948 0.576868 0.613967 0.547762 0.613969 0.565726 0.613967 0.565711 0.622948 0.565711 0.622948 0.547763 0.622949 0.547762 0.613969 0.513648 0.642318 0.520414 0.633556 0.520414 0.653204 0.520414 0.653204 0.515182 0.65658 0.513648 0.642318 0.506757 0.633479 0.489009 0.629603 0.49457 0.625936 0.49457 0.625936 0.512516 0.625935 0.506757 0.633479 0.597249 0.575972 0.576869 0.575973 0.646118 0.03890997 0.615726 0.575972 0.918256 0.05343198 0.918256 0.03831595 0.49616 0.575971 0.547762 0.575971 0.534226 0.575971 0.576869 0.575973 0.576869 0.575973 0.565727 0.575973 0.618178 0.03797399 0.565727 0.575973 0.49616 0.575971 0.918257 0.277277 0.29077 0.866407 0.29077 0.893383 0.286018 0.575971 0.277944 0.575971 0.286018 0.575971 0.646135 0.217773 0.646135 0.217773 0.66549 0.217773 0.646135 0.217773 0.618178 0.217773 0.29077 0.885083 0 0 0 0 0 0 0.918257 0.438635 0.119651 0.575971 0.103986 0.575971 0.119651 0.575971 0.918257 0.423519 0.296725 0.866407 0.02529799 0.575972 0.006820976 0.575973 0.04567795 0.575973 0.02529799 0.575972 0 0 0 0 0.618178 0.03797399 0.646118 0.03890997 0.576869 0.575973 0.646118 0.03890997 0.665461 0.03955894 0.615726 0.575972 0.597249 0.575972 0.646118 0.03890997 0.615726 0.575972 0.918256 0.03831595 0.918256 0.02525496 0.615726 0.575972 0.918256 0.02525496 0.918256 0 0.615726 0.575972 0.615726 0.575972 0.665461 0.03955894 0.918256 0.06854796 0.615726 0.575972 0.918256 0.06854796 0.918256 0.05343198 0.518561 0.575971 0.502896 0.575971 0.502896 0.575971 0.49616 0.575971 0.565727 0.575973 0.547762 0.575971 0.534226 0.575971 0.518561 0.575971 0.49616 0.575971 0.518561 0.575971 0.502896 0.575971 0.49616 0.575971 0.576869 0.575973 0.618178 0.03797399 0.576869 0.575973 0.618178 0.03797399 0.576869 0.575973 0.565727 0.575973 0.29077 0.866407 0.29077 0.885083 0.29077 0.893383 0.918257 0.277277 0.918257 0.246034 0.918257 0.21479 0.918257 0.277277 0.918257 0.21479 0.29077 0.84773 0.918257 0.277277 0.29077 0.84773 0.29077 0.866407 0.33653 0.575971 0.311274 0.575971 0.286018 0.575971 0.286018 0.575971 0.33653 0.575971 0.286018 0.575971 0.646135 0.217773 0.618178 0.217773 0.646135 0.217773 0.29077 0.866407 0 0 0.66549 0.217773 0.29077 0.866407 0.66549 0.217773 0.646135 0.217773 0.618178 0.217773 0.29077 0.893383 0.29077 0.885083 0.29077 0.885083 0.29077 0.866407 0.646135 0.217773 0 0 0 0 0 0 0 0 0 0 0 0 0.103986 0.575971 0.08832097 0.575971 0.918257 0.453751 0.08832097 0.575971 0.07478499 0.575971 0.918257 0.466812 0.918257 0.453751 0.08832097 0.575971 0.918257 0.466812 0.07478499 0.575971 0.05682098 0.575973 0.918257 0.492067 0.918257 0.492067 0.918257 0.466812 0.07478499 0.575971 0.918257 0.438635 0.918257 0.423519 0.119651 0.575971 0.918257 0.453751 0.918257 0.438635 0.103986 0.575971 0.296725 0.866407 0.296725 0.893383 0.119651 0.575971 0.918257 0.423519 0.296726 0.84773 0.296725 0.866407 0.006820976 0.575973 0 0.575973 0.006820976 0.575973 0.02529799 0.575972 0.006820976 0.575973 0.006820976 0.575973 0.02529799 0.575972 0.04567795 0.575973 0 0 0 0 0 0 0 0 0 0 0 0 0 0 0 0 0 0 0.02529799 0.575972 0 0 0 0 0.02529799 0.575972</float_array>
          <technique_common>
            <accessor source="#meshId0_name_003-mesh-map-0-array" count="1041" stride="2">
              <param name="S" type="float"/>
              <param name="T" type="float"/>
            </accessor>
          </technique_common>
        </source>
        <vertices id="meshId0_name_003-mesh-vertices">
          <input semantic="POSITION" source="#meshId0_name_003-mesh-positions"/>
        </vertices>
        <lines count="1">
          <input semantic="VERTEX" source="#meshId0_name_003-mesh-vertices" offset="0"/>
          <p>137 33</p>
        </lines>
        <triangles material="blinn1_001-material" count="347">
          <input semantic="VERTEX" source="#meshId0_name_003-mesh-vertices" offset="0"/>
          <input semantic="NORMAL" source="#meshId0_name_003-mesh-normals" offset="1"/>
          <input semantic="TEXCOORD" source="#meshId0_name_003-mesh-map-0" offset="2" set="0"/>
          <p>7 0 0 4 0 1 5 0 2 5 0 3 6 0 4 7 0 5 11 0 6 8 0 7 9 0 8 9 0 9 10 0 10 11 0 11 15 1 12 12 1 13 13 1 14 13 1 15 14 1 16 15 1 17 17 2 18 16 2 19 1 2 20 1 2 21 0 2 22 17 2 23 21 3 24 18 3 25 19 3 26 19 4 27 20 4 28 21 4 29 25 2 30 22 2 31 23 2 32 23 5 33 24 5 34 25 5 35 27 0 36 26 0 37 9 0 38 9 0 39 8 0 40 27 0 41 18 3 42 28 3 43 29 3 44 29 3 45 19 3 46 18 3 47 33 6 48 30 6 49 31 6 50 31 6 51 32 6 52 33 6 53 37 7 54 34 7 55 35 7 56 35 8 57 36 8 58 37 8 59 40 0 60 6 0 61 38 0 62 38 0 63 39 0 64 40 0 65 41 0 66 7 0 67 6 0 68 6 0 69 40 0 70 41 0 71 24 9 72 42 9 73 43 9 74 43 10 75 25 10 76 24 10 77 46 1 78 37 1 79 36 1 80 36 1 81 45 1 82 46 1 83 48 0 84 40 0 85 39 0 86 39 0 87 47 0 88 48 0 89 50 0 90 41 0 91 40 0 92 50 0 93 40 0 94 48 0 95 48 0 96 49 0 97 50 0 98 52 1 99 51 1 100 12 1 101 12 1 102 15 1 103 52 1 104 57 6 105 53 6 106 54 6 107 57 6 108 54 6 109 55 6 110 55 6 111 56 6 112 57 6 113 17 2 114 58 2 115 59 2 116 59 2 117 16 2 118 17 2 119 22 2 120 25 2 121 3 2 122 3 2 123 2 2 124 22 2 125 54 6 126 53 6 127 60 6 128 60 6 129 61 6 130 54 6 131 63 6 132 32 6 133 31 6 134 31 6 135 62 6 136 63 6 137 65 11 138 36 11 139 35 11 140 35 12 141 64 12 142 65 12 143 3 2 144 25 2 145 43 2 146 43 2 147 44 2 148 3 2 149 66 1 150 45 1 151 36 1 152 36 1 153 65 1 154 66 1 155 70 0 156 67 0 157 68 0 158 68 0 159 69 0 160 70 0 161 74 2 162 71 2 163 72 2 164 72 2 165 73 2 166 74 2 167 78 13 168 75 14 169 76 14 170 76 14 171 77 13 172 78 13 173 80 14 174 75 14 175 78 13 176 78 13 177 79 13 178 80 14 179 84 1 180 81 1 181 82 1 182 82 1 183 83 1 184 84 1 185 67 0 186 85 0 187 86 0 188 86 0 189 68 0 190 67 0 191 26 0 192 85 0 193 67 0 194 67 0 195 9 0 196 26 0 197 12 1 198 81 1 199 84 1 200 84 1 201 13 1 202 12 1 203 88 15 204 75 14 205 80 14 206 80 14 207 87 15 208 88 15 209 75 14 210 88 15 211 89 15 212 89 15 213 76 14 214 75 14 215 91 2 216 71 2 217 74 2 218 74 2 219 90 2 220 91 2 221 9 0 222 67 0 223 70 0 224 70 0 225 10 0 226 9 0 227 68 0 228 92 0 229 93 0 230 93 0 231 69 0 232 68 0 233 72 2 234 94 2 235 95 2 236 95 2 237 73 2 238 72 2 239 78 13 240 77 13 241 96 16 242 96 16 243 97 16 244 78 13 245 78 13 246 97 16 247 98 16 248 98 16 249 79 13 250 78 13 251 82 17 252 99 17 253 100 17 254 100 18 255 83 18 256 82 18 257 86 0 258 101 0 259 92 0 260 92 0 261 68 0 262 86 0 263 105 19 264 104 19 265 102 19 266 102 20 267 103 20 268 105 20 269 107 0 270 11 0 271 10 0 272 10 0 273 106 0 274 107 0 275 109 21 276 108 21 277 104 21 278 104 21 279 105 21 280 109 21 281 6 0 282 5 0 283 110 0 284 110 0 285 38 0 286 6 0 287 34 22 288 111 22 289 112 22 290 112 22 291 35 22 292 34 22 293 35 23 294 112 23 295 113 23 296 113 24 297 64 24 298 35 24 299 115 2 300 22 2 301 2 2 302 2 2 303 114 2 304 115 2 305 115 2 306 116 2 307 23 2 308 23 2 309 22 2 310 115 2 311 93 0 312 92 0 313 5 0 314 5 0 315 4 0 316 93 0 317 92 0 318 101 0 319 110 0 320 110 0 321 5 0 322 92 0 323 100 22 324 99 22 325 112 22 326 112 25 327 111 25 328 100 25 329 99 24 330 117 24 331 113 24 332 113 26 333 112 26 334 99 26 335 119 0 336 4 0 337 7 0 338 7 0 339 118 0 340 119 0 341 123 27 342 120 27 343 121 27 344 121 28 345 122 28 346 123 28 347 118 0 348 7 0 349 41 0 350 41 0 351 124 0 352 118 0 353 126 0 354 48 0 355 47 0 356 47 0 357 125 0 358 126 0 359 128 29 360 127 29 361 120 29 362 120 30 363 123 30 364 128 30 365 130 31 366 129 31 367 131 31 368 131 32 369 132 32 370 130 32 371 133 0 372 93 0 373 4 0 374 4 0 375 119 0 376 133 0 377 132 33 378 131 33 379 134 33 380 134 34 381 135 34 382 132 34 383 139 35 384 137 35 385 136 35 386 136 36 387 138 36 388 139 36 389 141 37 390 139 37 391 138 37 392 138 38 393 140 38 394 141 38 395 143 0 396 50 0 397 49 0 398 49 0 399 142 0 400 143 0 401 30 6 402 144 6 403 145 6 404 145 6 405 31 6 406 30 6 407 147 2 408 146 2 409 44 2 410 44 2 411 43 2 412 147 2 413 62 6 414 31 6 415 145 6 416 145 6 417 148 6 418 62 6 419 149 2 420 147 2 421 43 2 422 43 39 423 42 39 424 149 39 425 126 0 426 142 0 427 49 0 428 49 0 429 48 0 430 126 0 431 124 0 432 41 0 433 50 0 434 50 0 435 143 0 436 124 0 437 156 0 438 153 0 439 154 0 440 154 0 441 155 0 442 156 0 443 158 0 444 8 0 445 11 0 446 11 0 447 157 0 448 158 0 449 160 1 450 159 1 451 15 1 452 15 1 453 14 1 454 160 1 455 150 2 456 161 2 457 17 2 458 17 2 459 0 2 460 150 2 461 165 40 462 162 40 463 163 40 464 163 6 465 164 6 466 165 6 467 169 2 468 166 2 469 167 2 470 167 2 471 168 2 472 169 2 473 158 0 474 170 0 475 27 0 476 27 0 477 8 0 478 158 0 479 172 6 480 171 6 481 165 6 482 165 6 483 164 6 484 172 6 485 176 3 486 173 3 487 174 3 488 174 3 489 175 3 490 176 3 491 180 41 492 177 41 493 178 41 494 178 42 495 179 42 496 180 42 497 183 0 498 155 0 499 181 0 500 181 0 501 182 0 502 183 0 503 155 0 504 154 0 505 184 0 506 184 0 507 181 0 508 155 0 509 186 2 510 185 2 511 168 2 512 168 2 513 167 2 514 186 2 515 179 1 516 178 1 517 188 1 518 188 1 519 189 1 520 179 1 521 182 0 522 181 0 523 190 0 524 190 0 525 191 0 526 182 0 527 181 0 528 184 0 529 192 0 530 181 0 531 192 0 532 193 0 533 193 0 534 190 0 535 181 0 536 159 1 537 194 1 538 52 1 539 52 1 540 15 1 541 159 1 542 198 3 543 195 3 544 196 3 545 198 3 546 196 3 547 197 3 548 199 2 549 58 2 550 17 2 551 17 2 552 161 2 553 199 2 554 151 2 555 167 2 556 166 2 557 166 2 558 152 2 559 151 2 560 202 3 561 195 3 562 200 3 563 200 3 564 201 3 565 202 3 566 176 3 567 175 3 568 203 3 569 203 3 570 204 3 571 176 3 572 180 43 573 179 43 574 205 43 575 205 44 576 206 44 577 180 44 578 186 2 579 167 2 580 151 2 581 151 2 582 187 2 583 186 2 584 179 1 585 189 1 586 207 1 587 207 1 588 205 1 589 179 1 590 211 0 591 208 0 592 209 0 593 209 0 594 210 0 595 211 0 596 215 2 597 212 2 598 213 2 599 213 2 600 214 2 601 215 2 602 219 13 603 216 13 604 217 14 605 217 14 606 218 14 607 219 13 608 217 14 609 220 13 610 221 13 611 221 13 612 222 14 613 217 14 614 226 1 615 223 1 616 224 1 617 224 1 618 225 1 619 226 1 620 228 0 621 227 0 622 208 0 623 208 0 624 211 0 625 228 0 626 208 0 627 227 0 628 170 0 629 170 0 630 158 0 631 208 0 632 224 1 633 223 1 634 159 1 635 159 1 636 160 1 637 224 1 638 221 13 639 220 13 640 229 16 641 229 16 642 230 16 643 221 13 644 231 16 645 229 16 646 216 13 647 216 13 648 219 13 649 231 16 650 213 2 651 212 2 652 232 2 653 232 2 654 233 2 655 213 2 656 209 0 657 208 0 658 158 0 659 158 0 660 157 0 661 209 0 662 235 0 663 234 0 664 211 0 665 211 0 666 210 0 667 235 0 668 237 2 669 236 2 670 215 2 671 215 2 672 214 2 673 237 2 674 239 15 675 218 14 676 217 14 677 217 14 678 238 15 679 239 15 680 240 15 681 238 15 682 217 14 683 217 14 684 222 14 685 240 15 686 242 45 687 241 45 688 226 45 689 226 46 690 225 46 691 242 46 692 234 0 693 243 0 694 228 0 695 228 0 696 211 0 697 234 0 698 244 47 699 246 47 700 247 47 701 247 48 702 245 48 703 244 48 704 157 0 705 11 0 706 107 0 707 107 0 708 248 0 709 157 0 710 246 49 711 249 49 712 250 49 713 250 49 714 247 49 715 246 49 716 252 0 717 156 0 718 251 0 719 251 0 720 183 0 721 252 0 722 254 50 723 253 50 724 177 50 725 177 50 726 180 50 727 254 50 728 255 51 729 254 51 730 180 51 731 180 52 732 206 52 733 255 52 734 152 2 735 166 2 736 257 2 737 257 2 738 256 2 739 152 2 740 169 2 741 258 2 742 257 2 743 257 2 744 166 2 745 169 2 746 156 0 747 259 0 748 260 0 749 260 0 750 153 0 751 156 0 752 252 0 753 261 0 754 259 0 755 259 0 756 156 0 757 252 0 758 254 50 759 241 50 760 242 50 761 242 53 762 253 53 763 254 53 764 255 52 765 262 52 766 241 52 767 241 54 768 254 54 769 255 54 770 154 0 771 153 0 772 263 0 773 263 0 774 264 0 775 154 0 776 268 55 777 265 55 778 266 55 779 266 56 780 267 56 781 268 56 782 184 0 783 154 0 784 264 0 785 264 0 786 269 0 787 184 0 788 191 0 789 190 0 790 270 0 791 270 0 792 271 0 793 191 0 794 265 57 795 272 57 796 273 57 797 273 58 798 266 58 799 265 58 800 277 59 801 275 59 802 274 59 803 274 60 804 276 60 805 277 60 806 153 0 807 260 0 808 278 0 809 278 0 810 263 0 811 153 0 812 280 61 813 277 61 814 276 61 815 276 62 816 279 62 817 280 62 818 282 63 819 281 63 820 283 63 821 283 64 822 284 64 823 282 64 824 284 65 825 283 65 826 285 65 827 285 66 828 286 66 829 284 66 830 193 0 831 192 0 832 287 0 833 287 0 834 288 0 835 193 0 836 290 3 837 289 3 838 173 3 839 173 3 840 176 3 841 290 3 842 187 2 843 291 2 844 292 2 845 292 2 846 186 2 847 187 2 848 290 3 849 176 3 850 204 3 851 204 3 852 293 3 853 290 3 854 186 67 855 292 67 856 294 67 857 294 68 858 185 68 859 186 68 860 193 0 861 288 0 862 270 0 863 270 0 864 190 0 865 193 0 866 192 0 867 184 0 868 269 0 869 269 0 870 287 0 871 192 0 872 173 69 873 289 69 874 165 69 875 174 70 876 255 70 877 206 70 878 275 69 879 187 69 880 151 69 881 289 3 882 281 3 883 282 3 884 162 3 885 291 3 886 275 3 887 51 3 888 54 3 889 56 3 890 1 3 891 102 3 892 103 3 893 198 3 894 200 3 895 201 3 896 198 71 897 197 71 898 55 71 899 56 0 900 0 0 901 197 0 902 113 69 903 114 69 904 2 69 905 114 72 906 117 72 907 18 72 908 30 3 909 122 3 910 144 3 911 30 0 912 137 0 913 136 0 914 162 73 915 165 73 916 289 73 917 165 74 918 171 74 919 174 74 920 173 69 921 165 69 922 174 69 923 206 69 924 205 69 925 174 69 926 205 69 927 207 69 928 174 69 929 174 3 930 171 3 931 262 3 932 174 75 933 262 75 934 255 75 935 152 3 936 256 3 937 274 3 938 275 69 939 291 69 940 187 69 941 151 69 942 152 69 943 275 69 944 152 69 945 274 69 946 275 69 947 289 3 948 162 3 949 281 3 950 162 69 951 281 69 952 291 69 953 54 6 954 55 6 955 56 6 956 51 3 957 52 3 958 194 3 959 51 3 960 194 3 961 61 3 962 51 3 963 61 3 964 54 3 965 150 3 966 0 3 967 1 3 968 103 3 969 150 3 970 1 3 971 198 3 972 197 3 973 200 3 974 54 69 975 51 69 976 201 69 977 54 69 978 201 69 979 198 69 980 197 69 981 56 69 982 55 69 983 55 69 984 54 69 985 198 69 986 1 0 987 0 0 988 56 0 989 0 0 990 150 0 991 197 0 992 2 69 993 3 69 994 64 69 995 3 69 996 44 69 997 65 69 998 64 69 999 3 69 1000 65 69 1001 44 69 1002 146 69 1003 66 69 1004 66 69 1005 65 69 1006 44 69 1007 113 76 1008 117 76 1009 114 76 1010 64 69 1011 113 69 1012 2 69 1013 18 77 1014 21 77 1015 114 77 1016 117 3 1017 28 3 1018 18 3 1019 33 3 1020 121 3 1021 122 3 1022 30 3 1023 33 3 1024 122 3 1025 30 3 1026 144 3 1027 137 3 1028 121 3 1029 66 3 1030 122 3 1031 137 3 1032 146 3 1033 136 3 1034 136 78 1035 121 78 1036 30 78 1037 121 0 1038 122 0 1039 30 0 1040</p>
        </triangles>
      </mesh>
    </geometry>
  </library_geometries>
  <library_visual_scenes>
    <visual_scene id="Scene" name="Scene">
      <node id="pallet_low_003" name="pallet_low.003" type="NODE">
        <matrix sid="transform">-4.72375e-10 2.8213e-9 0.008982334 0 -3.22064e-10 -0.009999999 2.53419e-9 0 0.01080668 -2.98023e-10 3.9263e-10 0 0 0 0 1</matrix>
        <instance_geometry url="#meshId0_name_003-mesh" name="pallet_low.003">
          <bind_material>
            <technique_common>
              <instance_material symbol="blinn1_001-material" target="#blinn1_001-material">
                <bind_vertex_input semantic="meshId0-tex0" input_semantic="TEXCOORD" input_set="0"/>
              </instance_material>
            </technique_common>
          </bind_material>
        </instance_geometry>
      </node>
    </visual_scene>
  </library_visual_scenes>
  <scene>
    <instance_visual_scene url="#Scene"/>
  </scene>
</COLLADA>