<?xml version="1.0" encoding="utf-8"?>
<COLLADA xmlns="http://www.collada.org/2005/11/COLLADASchema" version="1.4.1" xmlns:xsi="http://www.w3.org/2001/XMLSchema-instance">
  <asset>
    <contributor>
      <author>Blender User</author>
      <authoring_tool>Blender 2.83.20 commit date:2022-04-19, commit time:16:00, hash:a56e2faeb7a9</authoring_tool>
    </contributor>
    <created>2026-06-23T14:12:40</created>
    <modified>2026-06-23T14:12:40</modified>
    <unit name="meter" meter="1"/>
    <up_axis>Z_UP</up_axis>
  </asset>
  <library_effects>
    <effect id="Material-effect">
      <profile_COMMON>
        <newparam sid="checker_bake-surface">
          <surface type="2D">
            <init_from>checker_bake</init_from>
          </surface>
        </newparam>
        <newparam sid="checker_bake-sampler">
          <sampler2D>
            <source>checker_bake-surface</source>
          </sampler2D>
        </newparam>
        <technique sid="common">
          <lambert>
            <emission>
              <color sid="emission">0 0 0 1</color>
            </emission>
            <diffuse>
              <texture texture="checker_bake-sampler" texcoord="UVMap"/>
            </diffuse>
            <index_of_refraction>
              <float sid="ior">1.45</float>
            </index_of_refraction>
          </lambert>
        </technique>
      </profile_COMMON>
    </effect>
  </library_effects>
  <library_images>
    <image id="checker_bake" name="checker_bake">
      <init_from>checker_bake.png</init_from>
    </image>
  </library_images>
  <library_materials>
    <material id="Material-material" name="Material">
      <instance_effect url="#Material-effect"/>
    </material>
  </library_materials>
  <library_geometries>
    <geometry id="Cylinder_015-mesh" name="Cylinder.015">
      <mesh>
        <source id="Cylinder_015-mesh-positions">
          <float_array id="Cylinder_015-mesh-positions-array" count="192">0 1 -1 0 1 1 0.1950903 0.9807853 -1 0.1950903 0.9807853 1 0.3826835 0.9238795 -1 0.3826835 0.9238795 1 0.5555703 0.8314696 -1 0.5555703 0.8314696 1 0.7071068 0.7071068 -1 0.7071068 0.7071068 1 0.8314697 0.5555702 -1 0.8314697 0.5555702 1 0.9238795 0.3826834 -1 0.9238795 0.3826834 1 0.9807853 0.1950903 -1 0.9807853 0.1950903 1 1 0 -1 1 0 1 0.9807853 -0.1950902 -1 0.9807853 -0.1950902 1 0.9238796 -0.3826833 -1 0.9238796 -0.3826833 1 0.8314697 -0.5555702 -1 0.8314697 -0.5555702 1 0.7071068 -0.7071068 -1 0.7071068 -0.7071068 1 0.5555702 -0.8314697 -1 0.5555702 -0.8314697 1 0.3826833 -0.9238796 -1 0.3826833 -0.9238796 1 0.1950901 -0.9807853 -1 0.1950901 -0.9807853 1 -3.25841e-7 -1 -1 -3.25841e-7 -1 1 -0.1950907 -0.9807852 -1 -0.1950907 -0.9807852 1 -0.3826839 -0.9238793 -1 -0.3826839 -0.9238793 1 -0.5555707 -0.8314693 -1 -0.5555707 -0.8314693 1 -0.7071073 -0.7071064 -1 -0.7071073 -0.7071064 1 -0.83147 -0.5555697 -1 -0.83147 -0.5555697 1 -0.9238799 -0.3826827 -1 -0.9238799 -0.3826827 1 -0.9807854 -0.1950894 -1 -0.9807854 -0.1950894 1 -1 9.65599e-7 -1 -1 9.65599e-7 1 -0.9807851 0.1950913 -1 -0.9807851 0.1950913 1 -0.9238791 0.3826845 -1 -0.9238791 0.3826845 1 -0.8314689 0.5555713 -1 -0.8314689 0.5555713 1 -0.7071059 0.7071077 -1 -0.7071059 0.7071077 1 -0.5555691 0.8314704 -1 -0.5555691 0.8314704 1 -0.3826821 0.9238801 -1 -0.3826821 0.9238801 1 -0.1950888 0.9807856 -1 -0.1950888 0.9807856 1</float_array>
          <technique_common>
            <accessor source="#Cylinder_015-mesh-positions-array" count="64" stride="3">
              <param name="X" type="float"/>
              <param name="Y" type="float"/>
              <param name="Z" type="float"/>
            </accessor>
          </technique_common>
        </source>
        <source id="Cylinder_015-mesh-normals">
          <float_array id="Cylinder_015-mesh-normals-array" count="180">0.09801727 0.9951847 0 0.2902846 0.9569405 0 0.4713967 0.8819213 0 0.6343935 0.7730103 0 0.7730106 0.6343932 0 0.8819215 0.4713966 0 0.9569404 0.2902848 0 0.9951847 0.09801727 0 0.9951848 -0.09801667 0 0.9569404 -0.2902848 0 0.8819214 -0.4713968 0 0.7730103 -0.6343936 0 0.6343934 -0.7730104 0 0.4713968 -0.8819214 0 0.2902842 -0.9569405 0 0.09801691 -0.9951848 0 -0.09801757 -0.9951848 0 -0.2902852 -0.9569402 0 -0.4713971 -0.8819211 0 -0.6343939 -0.77301 0 -0.7730109 -0.6343929 0 -0.8819217 -0.4713961 0 -0.9569407 -0.2902834 0 -0.9951849 -0.09801602 0 -0.9951847 0.09801787 0 -0.95694 0.2902858 0 -0.8819208 0.4713979 0 -0.7730096 0.6343944 0 -0.6343926 0.7730111 0 -0.4713955 0.881922 0 0 0 1 -0.290283 0.9569408 0 -0.0980165 0.9951848 0 0 0 -1 0.2902847 0.9569404 0 0.6343932 0.7730106 0 0.7730103 0.6343936 0 0.9951847 -0.09801727 0 0.8819216 -0.4713962 0 0.7730106 -0.6343932 0 0.2902843 -0.9569405 0 -0.2902852 -0.9569402 0 -0.6343936 -0.7730103 0 -0.7730111 -0.6343926 0 -0.9569405 -0.2902839 0 -0.9951848 -0.09801661 0 -0.9951846 0.09801846 0 -0.881921 0.4713975 0 -0.6343923 0.7730113 0 0 0 1 -3.97511e-6 0 1 3.97512e-6 0 1 1.43703e-6 0 1 -7.77715e-7 0 1 -2.87796e-7 0 1 -0.2902831 0.9569409 0 -3.97511e-6 0 -1 3.97512e-6 0 -1 3.88857e-7 0 -1 0 0 -1</float_array>
          <technique_common>
            <accessor source="#Cylinder_015-mesh-normals-array" count="60" stride="3">
              <param name="X" type="float"/>
              <param name="Y" type="float"/>
              <param name="Z" type="float"/>
            </accessor>
          </technique_common>
        </source>
        <source id="Cylinder_015-mesh-map-0">
          <float_array id="Cylinder_015-mesh-map-0-array" count="744">0.3188651 0.9373937 1.20846e-4 0.9686375 1.2073e-4 0.937395 0.3188652 0.9686362 1.20962e-4 0.9998801 1.20846e-4 0.9686375 0.3188607 1.19314e-4 1.17362e-4 0.03136134 1.17246e-4 1.18837e-4 0.3188608 0.03136175 1.17478e-4 0.06260389 1.17362e-4 0.03136134 0.318861 0.06260424 1.17594e-4 0.09384644 1.17478e-4 0.06260389 0.3188611 0.09384673 1.1771e-4 0.1250889 1.17594e-4 0.09384644 0.3188613 0.1250892 1.17826e-4 0.1563315 1.1771e-4 0.1250889 0.3188614 0.1563317 1.17943e-4 0.187574 1.17826e-4 0.1563315 0.3188616 0.1875742 1.18059e-4 0.2188166 1.17943e-4 0.187574 0.3188617 0.2188166 1.18175e-4 0.2500591 1.18059e-4 0.2188166 0.3188619 0.2500591 1.18291e-4 0.2813017 1.18175e-4 0.2500591 0.318862 0.2813016 1.18407e-4 0.3125442 1.18291e-4 0.2813017 0.3188621 0.3125441 1.18523e-4 0.3437868 1.18407e-4 0.3125442 0.3188623 0.3437866 1.1864e-4 0.3750293 1.18523e-4 0.3437868 0.3188624 0.3750291 1.18756e-4 0.4062719 1.1864e-4 0.3750293 0.3188626 0.4062716 1.18872e-4 0.4375144 1.18756e-4 0.4062719 0.3188627 0.4375141 1.18988e-4 0.468757 1.18872e-4 0.4375144 0.3188629 0.4687566 1.19104e-4 0.4999995 1.18988e-4 0.468757 0.318863 0.4999991 1.1922e-4 0.5312421 1.19104e-4 0.4999995 0.3188632 0.5312415 1.19336e-4 0.5624846 1.1922e-4 0.5312421 0.3188633 0.562484 1.19453e-4 0.5937272 1.19336e-4 0.5624846 0.3188635 0.5937265 1.19569e-4 0.6249697 1.19453e-4 0.5937272 0.3188636 0.624969 1.19685e-4 0.6562123 1.19569e-4 0.6249697 0.3188638 0.6562115 1.19801e-4 0.6874548 1.19685e-4 0.6562123 0.3188639 0.687454 1.19917e-4 0.7186974 1.19801e-4 0.6874548 0.3188641 0.7186965 1.20033e-4 0.7499399 1.19917e-4 0.7186974 0.3188642 0.749939 1.20149e-4 0.7811825 1.20033e-4 0.7499399 0.3188644 0.7811815 1.20266e-4 0.812425 1.20149e-4 0.7811825 0.3188645 0.812424 1.20382e-4 0.8436676 1.20266e-4 0.812425 0.3188647 0.8436664 1.20498e-4 0.8749101 1.20382e-4 0.8436676 0.3191052 0.4605529 0.4933311 0.3175691 0.6363147 0.4917952 0.3188648 0.8749089 1.20614e-4 0.9061527 1.20498e-4 0.8749101 0.318865 0.9061514 1.2073e-4 0.937395 1.20614e-4 0.9061527 0.6363147 0.1743459 0.4620887 0.3173294 0.3191053 0.1431032 0.3188651 0.9373937 0.3188652 0.9686362 1.20846e-4 0.9686375 0.3188652 0.9686362 0.3188654 0.9998787 1.20962e-4 0.9998801 0.3188607 1.19314e-4 0.3188608 0.03136175 1.17362e-4 0.03136134 0.3188608 0.03136175 0.318861 0.06260424 1.17478e-4 0.06260389 0.318861 0.06260424 0.3188611 0.09384673 1.17594e-4 0.09384644 0.3188611 0.09384673 0.3188613 0.1250892 1.1771e-4 0.1250889 0.3188613 0.1250892 0.3188614 0.1563317 1.17826e-4 0.1563315 0.3188614 0.1563317 0.3188616 0.1875742 1.17943e-4 0.187574 0.3188616 0.1875742 0.3188617 0.2188166 1.18059e-4 0.2188166 0.3188617 0.2188166 0.3188619 0.2500591 1.18175e-4 0.2500591 0.3188619 0.2500591 0.318862 0.2813016 1.18291e-4 0.2813017 0.318862 0.2813016 0.3188621 0.3125441 1.18407e-4 0.3125442 0.3188621 0.3125441 0.3188623 0.3437866 1.18523e-4 0.3437868 0.3188623 0.3437866 0.3188624 0.3750291 1.1864e-4 0.3750293 0.3188624 0.3750291 0.3188626 0.4062716 1.18756e-4 0.4062719 0.3188626 0.4062716 0.3188627 0.4375141 1.18872e-4 0.4375144 0.3188627 0.4375141 0.3188629 0.4687566 1.18988e-4 0.468757 0.3188629 0.4687566 0.318863 0.4999991 1.19104e-4 0.4999995 0.318863 0.4999991 0.3188632 0.5312415 1.1922e-4 0.5312421 0.3188632 0.5312415 0.3188633 0.562484 1.19336e-4 0.5624846 0.3188633 0.562484 0.3188635 0.5937265 1.19453e-4 0.5937272 0.3188635 0.5937265 0.3188636 0.624969 1.19569e-4 0.6249697 0.3188636 0.624969 0.3188638 0.6562115 1.19685e-4 0.6562123 0.3188638 0.6562115 0.3188639 0.687454 1.19801e-4 0.6874548 0.3188639 0.687454 0.3188641 0.7186965 1.19917e-4 0.7186974 0.3188641 0.7186965 0.3188642 0.749939 1.20033e-4 0.7499399 0.3188642 0.749939 0.3188644 0.7811815 1.20149e-4 0.7811825 0.3188644 0.7811815 0.3188645 0.812424 1.20266e-4 0.812425 0.3188645 0.812424 0.3188647 0.8436664 1.20382e-4 0.8436676 0.3188647 0.8436664 0.3188648 0.8749089 1.20498e-4 0.8749101 0.4620888 0.6347786 0.4314467 0.6286835 0.4025825 0.6167277 0.4025825 0.6167277 0.3766056 0.5993705 0.4620888 0.6347786 0.3766056 0.5993705 0.3545138 0.5772788 0.4620888 0.6347786 0.3545138 0.5772788 0.3371566 0.551302 0.3252004 0.5224375 0.3252004 0.5224375 0.3191053 0.4917954 0.3191052 0.4605529 0.3191052 0.4605529 0.3252002 0.4299112 0.3371562 0.4010466 0.3371562 0.4010466 0.3545136 0.3750694 0.3191052 0.4605529 0.3545136 0.3750694 0.3766052 0.3529776 0.3191052 0.4605529 0.3766052 0.3529776 0.4025823 0.3356203 0.4933311 0.3175691 0.4025823 0.3356203 0.4314466 0.3236643 0.4933311 0.3175691 0.4314466 0.3236643 0.4620885 0.3175692 0.4933311 0.3175691 0.4933311 0.3175691 0.5239731 0.3236642 0.5528375 0.3356202 0.5528375 0.3356202 0.5788144 0.3529774 0.6009063 0.3750693 0.6009063 0.3750693 0.6182633 0.4010458 0.6302195 0.4299106 0.6302195 0.4299106 0.6363147 0.4605527 0.6363147 0.4917952 0.6363147 0.4917952 0.6302195 0.5224373 0.6182637 0.5513014 0.6182637 0.5513014 0.6009062 0.5772786 0.6363147 0.4917952 0.6009062 0.5772786 0.5788146 0.5993703 0.6363147 0.4917952 0.5788146 0.5993703 0.5528378 0.6167274 0.5239733 0.6286835 0.5239733 0.6286835 0.4933312 0.6347787 0.4620888 0.6347786 0.3545138 0.5772788 0.3252004 0.5224375 0.4620888 0.6347786 0.3252004 0.5224375 0.3191052 0.4605529 0.4620888 0.6347786 0.4933311 0.3175691 0.5528375 0.3356202 0.6363147 0.4917952 0.5528375 0.3356202 0.6009063 0.3750693 0.6363147 0.4917952 0.6009063 0.3750693 0.6302195 0.4299106 0.6363147 0.4917952 0.5788146 0.5993703 0.5239733 0.6286835 0.6363147 0.4917952 0.5239733 0.6286835 0.4620888 0.6347786 0.6363147 0.4917952 0.3191052 0.4605529 0.3766052 0.3529776 0.4933311 0.3175691 0.4620888 0.6347786 0.3191052 0.4605529 0.6363147 0.4917952 0.3188648 0.8749089 0.318865 0.9061514 1.20614e-4 0.9061527 0.318865 0.9061514 0.3188651 0.9373937 1.2073e-4 0.937395 0.4933315 1.19942e-4 0.5239732 0.006214916 0.5528375 0.01817095 0.5528375 0.01817095 0.5788144 0.03552818 0.6009063 0.05762004 0.6009063 0.05762004 0.6182637 0.0835973 0.6302196 0.1124615 0.6302196 0.1124615 0.6363147 0.1431034 0.6009063 0.05762004 0.6363147 0.1431034 0.6363147 0.1743459 0.6009063 0.05762004 0.6363147 0.1743459 0.6302196 0.204988 0.6182637 0.233852 0.6182637 0.233852 0.6009063 0.2598292 0.6363147 0.1743459 0.6009063 0.2598292 0.5788146 0.281921 0.6363147 0.1743459 0.5788146 0.281921 0.5528373 0.2992784 0.4620887 0.3173294 0.5528373 0.2992784 0.5239731 0.3112344 0.4620887 0.3173294 0.5239731 0.3112344 0.4933313 0.3173294 0.4620887 0.3173294 0.4620887 0.3173294 0.4314469 0.3112344 0.4025823 0.2992783 0.4025823 0.2992783 0.3766054 0.281921 0.3545135 0.2598292 0.3545135 0.2598292 0.3371561 0.2338519 0.3252003 0.2049878 0.3252003 0.2049878 0.3191052 0.1743459 0.3191053 0.1431032 0.3191053 0.1431032 0.3252003 0.1124614 0.3371564 0.08359688 0.3371564 0.08359688 0.3545137 0.05761998 0.3766056 0.03552806 0.3766056 0.03552806 0.4025827 0.01817077 0.4933315 1.19942e-4 0.4025827 0.01817077 0.431447 0.006214857 0.4933315 1.19942e-4 0.431447 0.006214857 0.4620886 1.19893e-4 0.4933315 1.19942e-4 0.4933315 1.19942e-4 0.5528375 0.01817095 0.6009063 0.05762004 0.4620887 0.3173294 0.4025823 0.2992783 0.3191053 0.1431032 0.4025823 0.2992783 0.3545135 0.2598292 0.3191053 0.1431032 0.3545135 0.2598292 0.3252003 0.2049878 0.3191053 0.1431032 0.3191053 0.1431032 0.3371564 0.08359688 0.4933315 1.19942e-4 0.3371564 0.08359688 0.3766056 0.03552806 0.4933315 1.19942e-4 0.4933315 1.19942e-4 0.6009063 0.05762004 0.6363147 0.1743459 0.6363147 0.1743459 0.5788146 0.281921 0.4620887 0.3173294 0.4933315 1.19942e-4 0.6363147 0.1743459 0.3191053 0.1431032</float_array>
          <technique_common>
            <accessor source="#Cylinder_015-mesh-map-0-array" count="372" stride="2">
              <param name="S" type="float"/>
              <param name="T" type="float"/>
            </accessor>
          </technique_common>
        </source>
        <vertices id="Cylinder_015-mesh-vertices">
          <input semantic="POSITION" source="#Cylinder_015-mesh-positions"/>
        </vertices>
        <triangles material="Material-material" count="124">
          <input semantic="VERTEX" source="#Cylinder_015-mesh-vertices" offset="0"/>
          <input semantic="NORMAL" source="#Cylinder_015-mesh-normals" offset="1"/>
          <input semantic="TEXCOORD" source="#Cylinder_015-mesh-map-0" offset="2" set="0"/>
          <p>1 0 0 2 0 1 0 0 2 3 1 3 4 1 4 2 1 5 5 2 6 6 2 7 4 2 8 7 3 9 8 3 10 6 3 11 9 4 12 10 4 13 8 4 14 11 5 15 12 5 16 10 5 17 13 6 18 14 6 19 12 6 20 15 7 21 16 7 22 14 7 23 17 8 24 18 8 25 16 8 26 19 9 27 20 9 28 18 9 29 21 10 30 22 10 31 20 10 32 23 11 33 24 11 34 22 11 35 25 12 36 26 12 37 24 12 38 27 13 39 28 13 40 26 13 41 29 14 42 30 14 43 28 14 44 31 15 45 32 15 46 30 15 47 33 16 48 34 16 49 32 16 50 35 17 51 36 17 52 34 17 53 37 18 54 38 18 55 36 18 56 39 19 57 40 19 58 38 19 59 41 20 60 42 20 61 40 20 62 43 21 63 44 21 64 42 21 65 45 22 66 46 22 67 44 22 68 47 23 69 48 23 70 46 23 71 49 24 72 50 24 73 48 24 74 51 25 75 52 25 76 50 25 77 53 26 78 54 26 79 52 26 80 55 27 81 56 27 82 54 27 83 57 28 84 58 28 85 56 28 86 59 29 87 60 29 88 58 29 89 53 30 90 37 30 91 21 30 92 61 31 93 62 31 94 60 31 95 63 32 96 0 32 97 62 32 98 14 33 99 30 33 100 46 33 101 1 0 102 3 0 103 2 0 104 3 34 105 5 34 106 4 34 107 5 2 108 7 2 109 6 2 110 7 35 111 9 35 112 8 35 113 9 36 114 11 36 115 10 36 116 11 5 117 13 5 118 12 5 119 13 6 120 15 6 121 14 6 122 15 7 123 17 7 124 16 7 125 17 37 126 19 37 127 18 37 128 19 9 129 21 9 130 20 9 131 21 38 132 23 38 133 22 38 134 23 39 135 25 39 136 24 39 137 25 12 138 27 12 139 26 12 140 27 13 141 29 13 142 28 13 143 29 40 144 31 40 145 30 40 146 31 15 147 33 15 148 32 15 149 33 16 150 35 16 151 34 16 152 35 41 153 37 41 154 36 41 155 37 18 156 39 18 157 38 18 158 39 42 159 41 42 160 40 42 161 41 43 162 43 43 163 42 43 164 43 21 165 45 21 166 44 21 167 45 44 168 47 44 169 46 44 170 47 45 171 49 45 172 48 45 173 49 46 174 51 46 175 50 46 176 51 25 177 53 25 178 52 25 179 53 47 180 55 47 181 54 47 182 55 27 183 57 27 184 56 27 185 57 48 186 59 48 187 58 48 188 59 29 189 61 29 190 60 29 191 5 49 192 3 49 193 1 49 194 1 49 195 63 49 196 5 49 197 63 49 198 61 49 199 5 49 200 61 49 201 59 49 202 57 49 203 57 49 204 55 49 205 53 49 206 53 50 207 51 50 208 49 50 209 49 49 210 47 49 211 53 49 212 47 49 213 45 49 214 53 49 215 45 49 216 43 49 217 37 49 218 43 49 219 41 49 220 37 49 221 41 49 222 39 49 223 37 49 224 37 49 225 35 49 226 33 49 227 33 49 228 31 49 229 29 49 230 29 49 231 27 49 232 25 49 233 25 49 234 23 49 235 21 49 236 21 51 237 19 51 238 17 51 239 17 49 240 15 49 241 21 49 242 15 49 243 13 49 244 21 49 245 13 49 246 11 49 247 9 49 248 9 49 249 7 49 250 5 49 251 61 49 252 57 49 253 5 49 254 57 49 255 53 49 256 5 49 257 37 49 258 33 49 259 21 49 260 33 49 261 29 49 262 21 49 263 29 49 264 25 49 265 21 49 266 13 52 267 9 52 268 21 52 269 9 53 270 5 53 271 21 53 272 53 54 273 45 54 274 37 54 275 5 49 276 53 49 277 21 49 278 61 55 279 63 55 280 62 55 281 63 32 282 1 32 283 0 32 284 62 33 285 0 33 286 2 33 287 2 33 288 4 33 289 6 33 290 6 33 291 8 33 292 10 33 293 10 33 294 12 33 295 6 33 296 12 33 297 14 33 298 6 33 299 14 33 300 16 33 301 18 33 302 18 33 303 20 33 304 14 33 305 20 33 306 22 33 307 14 33 308 22 33 309 24 33 310 30 33 311 24 33 312 26 33 313 30 33 314 26 33 315 28 33 316 30 33 317 30 33 318 32 33 319 34 33 320 34 33 321 36 33 322 38 33 323 38 33 324 40 33 325 42 33 326 42 33 327 44 33 328 46 33 329 46 56 330 48 56 331 50 56 332 50 57 333 52 57 334 54 57 335 54 33 336 56 33 337 62 33 338 56 33 339 58 33 340 62 33 341 58 33 342 60 33 343 62 33 344 62 33 345 2 33 346 6 33 347 30 33 348 34 33 349 46 33 350 34 33 351 38 33 352 46 33 353 38 33 354 42 33 355 46 33 356 46 58 357 50 58 358 62 58 359 50 33 360 54 33 361 62 33 362 62 33 363 6 33 364 14 33 365 14 33 366 22 33 367 30 33 368 62 59 369 14 59 370 46 59 371</p>
        </triangles>
      </mesh>
    </geometry>
  </library_geometries>
  <library_visual_scenes>
    <visual_scene id="Scene" name="Scene">
      <node id="Cylinder_008" name="Cylinder.008" type="NODE">
        <matrix sid="transform">0.075 0 0 0 0 -0.075 2.18557e-9 0 0 -3.27835e-9 -0.05 0 0 0 0 1</matrix>
        <instance_geometry url="#Cylinder_015-mesh" name="Cylinder.008">
          <bind_material>
            <technique_common>
              <instance_material symbol="Material-material" target="#Material-material">
                <bind_vertex_input semantic="UVMap" input_semantic="TEXCOORD" input_set="0"/>
              </instance_material>
            </technique_common>
          </bind_material>
        </instance_geometry>
      </node>
    </visual_scene>
  </library_visual_scenes>
  <scene>
    <instance_visual_scene url="#Scene"/>
  </scene>
</COLLADA>