<?xml version="1.0" encoding="utf-8"?>
<COLLADA xmlns="http://www.collada.org/2005/11/COLLADASchema" version="1.4.1" xmlns:xsi="http://www.w3.org/2001/XMLSchema-instance">
  <asset>
    <contributor>
      <author>Blender User</author>
      <authoring_tool>Blender 4.5.10 LTS commit date:2026-05-18, commit time:13:28, hash:6dc0b208d1b5</authoring_tool>
    </contributor>
    <created>2026-06-18T09:05:46</created>
    <modified>2026-06-18T09:05:46</modified>
    <unit name="meter" meter="1"/>
    <up_axis>Z_UP</up_axis>
  </asset>
  <library_effects>
    <effect id="Material_007-effect">
      <profile_COMMON>
        <technique sid="common">
          <lambert>
            <emission>
              <color sid="emission">0 0 0 1</color>
            </emission>
            <diffuse>
              <color sid="diffuse">0.3 0.3 0.3 1</color>
            </diffuse>
            <index_of_refraction>
              <float sid="ior">1.5</float>
            </index_of_refraction>
          </lambert>
        </technique>
      </profile_COMMON>
    </effect>
  </library_effects>
  <library_images/>
  <library_materials>
    <material id="Material_007-material" name="Material.007">
      <instance_effect url="#Material_007-effect"/>
    </material>
  </library_materials>
  <library_geometries>
    <geometry id="Cylinder_013-mesh" name="Cylinder.013">
      <mesh>
        <source id="Cylinder_013-mesh-positions">
          <float_array id="Cylinder_013-mesh-positions-array" count="102">0 0.00999999 -0.00999999 0 0.00999999 0.00999999 0.00195086 0.009807825 -0.00999999 0.00195086 0.009807825 0.00999999 0.003826797 0.009238779 -0.00999999 0.003826797 0.009238779 0.00999999 0.005555689 0.008314669 -0.00999999 0.005555689 0.008314669 0.00999999 0.007071018 0.007071018 -0.00999999 0.007071018 0.007071018 0.00999999 0.008314669 0.005555689 -0.00999999 0.008314669 0.005555689 0.00999999 0.009238779 0.003826797 -0.00999999 0.009238779 0.003826797 0.00999999 0.009807825 0.00195086 -0.00999999 0.009807825 0.00195086 0.00999999 0.00999999 0 -0.00999999 0.00999999 0 0.00999999 0.009807825 -0.00195086 -0.00999999 0.009807825 -0.00195086 0.00999999 0.009238779 -0.003826797 -0.00999999 0.009238779 -0.003826797 0.00999999 0.008314669 -0.005555689 -0.00999999 0.008314669 -0.005555689 0.00999999 0.007071018 -0.007071018 -0.00999999 0.007071018 -0.007071018 0.00999999 0.005555689 -0.008314669 -0.00999999 0.005555689 -0.008314669 0.00999999 0.003826797 -0.009238779 -0.00999999 0.003826797 -0.009238779 0.00999999 0.00195086 -0.009807825 -0.00999999 0.00195086 -0.009807825 0.00999999 0 -0.00999999 -0.00999999 0 -0.00999999 0.00999999</float_array>
          <technique_common>
            <accessor source="#Cylinder_013-mesh-positions-array" count="34" stride="3">
              <param name="X" type="float"/>
              <param name="Y" type="float"/>
              <param name="Z" type="float"/>
            </accessor>
          </technique_common>
        </source>
        <source id="Cylinder_013-mesh-normals">
          <float_array id="Cylinder_013-mesh-normals-array" count="192">0.09801733 0.9951847 0 0.2902848 0.9569404 0 0.4713964 0.8819214 0 0.6343934 0.7730103 0 0.7730104 0.6343933 0 0.8819214 0.4713965 0 0.9569404 0.2902848 0 0.9951847 0.09801739 0 0.9951847 -0.09801691 0 0.9569402 -0.2902848 0 0.8819214 -0.4713965 0 0.7730104 -0.6343933 0 0.6343933 -0.7730104 0 0.4713969 -0.8819212 0 0.2902842 -0.9569405 0 0.09801685 -0.9951847 0 -1 1.62921e-7 0 0 0 1 0 0 1 0 0 1 0 0 1 0 0 1 0 0 1 0 0 1 0 0 1 0 0 1 0 0 1 0 0 1 0 0 1 0 0 1 0 0 -1 0 0 1 0 0 1 0.09801733 0.9951847 0 0.2902848 0.9569404 0 0.4713964 0.8819214 0 0.6343934 0.7730103 0 0.7730104 0.6343933 0 0.8819214 0.4713965 0 0.9569404 0.2902848 0 0.9951847 0.09801739 0 0.9951847 -0.09801691 0 0.9569402 -0.2902848 0 0.8819214 -0.4713965 0 0.7730104 -0.6343933 0 0.6343933 -0.7730104 0 0.4713969 -0.8819212 0 0.2902842 -0.9569405 0 0.09801685 -0.9951847 0 -1 1.62921e-7 0 0 0 -1 0 0 -1 0 0 -1 0 0 -1 0 0 -1 0 0 -1 0 0 -1 0 0 -1 0 0 -1 0 0 -1 0 0 -1 0 0 -1 0 0 -1 0 0 -1</float_array>
          <technique_common>
            <accessor source="#Cylinder_013-mesh-normals-array" count="64" stride="3">
              <param name="X" type="float"/>
              <param name="Y" type="float"/>
              <param name="Z" type="float"/>
            </accessor>
          </technique_common>
        </source>
        <source id="Cylinder_013-mesh-map-0">
          <float_array id="Cylinder_013-mesh-map-0-array" count="384">1 1 0.96875 0.5 1 0.5 0.96875 1 0.9375 0.5 0.96875 0.5 0.9375 1 0.90625 0.5 0.9375 0.5 0.90625 1 0.875 0.5 0.90625 0.5 0.875 1 0.84375 0.5 0.875 0.5 0.84375 1 0.8125 0.5 0.84375 0.5 0.8125 1 0.78125 0.5 0.8125 0.5 0.78125 1 0.75 0.5 0.78125 0.5 0.75 1 0.71875 0.5 0.75 0.5 0.71875 1 0.6875 0.5 0.71875 0.5 0.6875 1 0.65625 0.5 0.6875 0.5 0.65625 1 0.625 0.5 0.65625 0.5 0.625 1 0.59375 0.5 0.625 0.5 0.59375 1 0.5625 0.5 0.59375 0.5 0.5625 1 0.53125 0.5 0.5625 0.5 0.53125 1 0.5 0.5 0.53125 0.5 0.5 0.5 1 1 1 0.5 0 0 0 0 0 0 0 0 0 0 0 0 0 0 0 0 0 0 0 0 0 0 0 0 0 0 0 0 0 0 0 0 0 0 0 0 0 0 0 0 0 0 0 0 0 0 0 0 0 0 0 0 0 0 0 0 0 0 0 0 0 0 0 0 0 0 0 0 0 0 0 0 0 0 0 0 0 0 0.84375 0.5 0.71875 0.5 0.59375 0.5 0 0 0 0 0 0 0 0 0 0 0 0 1 1 0.96875 1 0.96875 0.5 0.96875 1 0.9375 1 0.9375 0.5 0.9375 1 0.90625 1 0.90625 0.5 0.90625 1 0.875 1 0.875 0.5 0.875 1 0.84375 1 0.84375 0.5 0.84375 1 0.8125 1 0.8125 0.5 0.8125 1 0.78125 1 0.78125 0.5 0.78125 1 0.75 1 0.75 0.5 0.75 1 0.71875 1 0.71875 0.5 0.71875 1 0.6875 1 0.6875 0.5 0.6875 1 0.65625 1 0.65625 0.5 0.65625 1 0.625 1 0.625 0.5 0.625 1 0.59375 1 0.59375 0.5 0.59375 1 0.5625 1 0.5625 0.5 0.5625 1 0.53125 1 0.53125 0.5 0.53125 1 0.5 1 0.5 0.5 0.5 0.5 0.5 1 1 1 0.5 0.5 1 0.5 0.96875 0.5 0.96875 0.5 0.9375 0.5 0.84375 0.5 0.9375 0.5 0.90625 0.5 0.84375 0.5 0.90625 0.5 0.875 0.5 0.84375 0.5 0.84375 0.5 0.8125 0.5 0.71875 0.5 0.8125 0.5 0.78125 0.5 0.71875 0.5 0.78125 0.5 0.75 0.5 0.71875 0.5 0.71875 0.5 0.6875 0.5 0.59375 0.5 0.6875 0.5 0.65625 0.5 0.59375 0.5 0.65625 0.5 0.625 0.5 0.59375 0.5 0.59375 0.5 0.5625 0.5 0.53125 0.5 0.53125 0.5 0.5 0.5 0.96875 0.5 0.59375 0.5 0.53125 0.5 0.96875 0.5 0.96875 0.5 0.84375 0.5 0.59375 0.5</float_array>
          <technique_common>
            <accessor source="#Cylinder_013-mesh-map-0-array" count="192" stride="2">
              <param name="S" type="float"/>
              <param name="T" type="float"/>
            </accessor>
          </technique_common>
        </source>
        <vertices id="Cylinder_013-mesh-vertices">
          <input semantic="POSITION" source="#Cylinder_013-mesh-positions"/>
        </vertices>
        <triangles material="Material_007-material" count="64">
          <input semantic="VERTEX" source="#Cylinder_013-mesh-vertices" offset="0"/>
          <input semantic="NORMAL" source="#Cylinder_013-mesh-normals" offset="1"/>
          <input semantic="TEXCOORD" source="#Cylinder_013-mesh-map-0" offset="2" set="0"/>
          <p>1 0 0 2 0 1 0 0 2 3 1 3 4 1 4 2 1 5 5 2 6 6 2 7 4 2 8 7 3 9 8 3 10 6 3 11 9 4 12 10 4 13 8 4 14 11 5 15 12 5 16 10 5 17 13 6 18 14 6 19 12 6 20 15 7 21 16 7 22 14 7 23 17 8 24 18 8 25 16 8 26 19 9 27 20 9 28 18 9 29 21 10 30 22 10 31 20 10 32 23 11 33 24 11 34 22 11 35 25 12 36 26 12 37 24 12 38 27 13 39 28 13 40 26 13 41 29 14 42 30 14 43 28 14 44 31 15 45 32 15 46 30 15 47 32 16 48 1 16 49 0 16 50 3 17 51 1 17 52 33 17 53 9 18 54 7 18 55 5 18 56 3 19 57 33 19 58 9 19 59 21 20 60 17 20 61 15 20 62 33 21 63 13 21 64 9 21 65 31 22 66 29 22 67 27 22 68 15 23 69 13 23 70 33 23 71 15 24 72 33 24 73 25 24 74 25 25 75 23 25 76 21 25 77 13 26 78 11 26 79 9 26 80 15 27 81 25 27 82 21 27 83 31 28 84 27 28 85 25 28 86 33 29 87 31 29 88 25 29 89 10 30 90 18 30 91 26 30 92 3 31 93 9 31 94 5 31 95 21 32 96 19 32 97 17 32 98 1 33 99 3 33 100 2 33 101 3 34 102 5 34 103 4 34 104 5 35 105 7 35 106 6 35 107 7 36 108 9 36 109 8 36 110 9 37 111 11 37 112 10 37 113 11 38 114 13 38 115 12 38 116 13 39 117 15 39 118 14 39 119 15 40 120 17 40 121 16 40 122 17 41 123 19 41 124 18 41 125 19 42 126 21 42 127 20 42 128 21 43 129 23 43 130 22 43 131 23 44 132 25 44 133 24 44 134 25 45 135 27 45 136 26 45 137 27 46 138 29 46 139 28 46 140 29 47 141 31 47 142 30 47 143 31 48 144 33 48 145 32 48 146 32 49 147 33 49 148 1 49 149 32 50 150 0 50 151 2 50 152 2 51 153 4 51 154 10 51 155 4 52 156 6 52 157 10 52 158 6 53 159 8 53 160 10 53 161 10 54 162 12 54 163 18 54 164 12 55 165 14 55 166 18 55 167 14 56 168 16 56 169 18 56 170 18 57 171 20 57 172 26 57 173 20 58 174 22 58 175 26 58 176 22 59 177 24 59 178 26 59 179 26 60 180 28 60 181 30 60 182 30 61 183 32 61 184 2 61 185 26 62 186 30 62 187 2 62 188 2 63 189 10 63 190 26 63 191</p>
        </triangles>
      </mesh>
    </geometry>
  </library_geometries>
  <library_visual_scenes>
    <visual_scene id="Scene" name="Scene">
      <node id="Cylinder_013" name="Cylinder.013" type="NODE">
        <matrix sid="transform">8.999999 0 0 0.35 0 0 -2.5 0 0 9.000002 0 0 0 0 0 1</matrix>
        <instance_geometry url="#Cylinder_013-mesh" name="Cylinder.013">
          <bind_material>
            <technique_common>
              <instance_material symbol="Material_007-material" target="#Material_007-material">
                <bind_vertex_input semantic="UVMap" input_semantic="TEXCOORD" input_set="0"/>
              </instance_material>
            </technique_common>
          </bind_material>
        </instance_geometry>
      </node>
    </visual_scene>
  </library_visual_scenes>
  <scene>
    <instance_visual_scene url="#Scene"/>
  </scene>
</COLLADA>