<?xml version="1.0" encoding="utf-8"?>
<COLLADA xmlns="http://www.collada.org/2005/11/COLLADASchema" version="1.4.1" xmlns:xsi="http://www.w3.org/2001/XMLSchema-instance">
  <asset>
    <contributor>
      <author>Blender User</author>
      <authoring_tool>Blender 2.83.20 commit date:2022-04-19, commit time:16:00, hash:a56e2faeb7a9</authoring_tool>
    </contributor>
    <created>2026-07-08T17:33:47</created>
    <modified>2026-07-08T17:33:47</modified>
    <unit name="meter" meter="1"/>
    <up_axis>Z_UP</up_axis>
  </asset>
  <library_effects>
    <effect id="Material_007-effect">
      <profile_COMMON>
        <newparam sid="Floor_Roughness_jpeg-surface">
          <surface type="2D">
            <init_from>Floor_Roughness_jpeg</init_from>
          </surface>
        </newparam>
        <newparam sid="Floor_Roughness_jpeg-sampler">
          <sampler2D>
            <source>Floor_Roughness_jpeg-surface</source>
          </sampler2D>
        </newparam>
        <technique sid="common">
          <lambert>
            <emission>
              <color sid="emission">0 0 0 1</color>
            </emission>
            <diffuse>
              <texture texture="Floor_Roughness_jpeg-sampler" texcoord="UVMap"/>
            </diffuse>
            <index_of_refraction>
              <float sid="ior">1.45</float>
            </index_of_refraction>
          </lambert>
        </technique>
      </profile_COMMON>
    </effect>
  </library_effects>
  <library_images>
    <image id="Floor_Roughness_jpeg" name="Floor_Roughness_jpeg">
      <init_from>Floor_Roughness.jpeg</init_from>
    </image>
  </library_images>
  <library_materials>
    <material id="Material_007-material" name="Material.007">
      <instance_effect url="#Material_007-effect"/>
    </material>
  </library_materials>
  <library_geometries>
    <geometry id="Cube_019-mesh" name="Cube.019">
      <mesh>
        <source id="Cube_019-mesh-positions">
          <float_array id="Cube_019-mesh-positions-array" count="144">-0.5 -1 -1 -1 -0.5 -1 -0.6545085 -0.9755282 -1 -0.7938926 -0.9045085 -1 -0.9045085 -0.7938926 -1 -0.9755282 -0.6545085 -1 -1 -0.5 1 -0.5 -1 1 -0.9755282 -0.6545085 1 -0.9045085 -0.7938926 1 -0.7938926 -0.9045085 1 -0.6545085 -0.9755282 1 -1 0.5 -1 -0.5 1 -1 -0.9755282 0.6545085 -1 -0.9045085 0.7938926 -1 -0.7938926 0.9045085 -1 -0.6545085 0.9755282 -1 -0.5 1 1 -1 0.5 1 -0.6545085 0.9755282 1 -0.7938926 0.9045085 1 -0.9045085 0.7938926 1 -0.9755282 0.6545085 1 1 -0.5 -1 0.5 -1 -1 0.9755282 -0.6545085 -1 0.9045085 -0.7938926 -1 0.7938926 -0.9045085 -1 0.6545085 -0.9755282 -1 0.5 -1 1 1 -0.5 1 0.6545085 -0.9755282 1 0.7938926 -0.9045085 1 0.9045085 -0.7938926 1 0.9755282 -0.6545085 1 0.5 1 -1 1 0.5 -1 0.6545085 0.9755282 -1 0.7938926 0.9045085 -1 0.9045085 0.7938926 -1 0.9755282 0.6545085 -1 1 0.5 1 0.5 1 1 0.9755282 0.6545085 1 0.9045085 0.7938926 1 0.7938926 0.9045085 1 0.6545085 0.9755282 1</float_array>
          <technique_common>
            <accessor source="#Cube_019-mesh-positions-array" count="48" stride="3">
              <param name="X" type="float"/>
              <param name="Y" type="float"/>
              <param name="Z" type="float"/>
            </accessor>
          </technique_common>
        </source>
        <source id="Cube_019-mesh-normals">
          <float_array id="Cube_019-mesh-normals-array" count="78">0 -1 0 1 0 0 0 0 1 -1 0 0 0 1 0 -0.1564345 -0.9876883 0 -0.4539905 -0.8910065 0 -0.7071068 -0.7071068 0 -0.8910065 -0.4539905 0 -0.9876883 -0.1564345 0 -0.1564345 0.9876883 0 -0.4539905 0.8910065 0 -0.7071068 0.7071068 0 -0.8910065 0.4539905 0 -0.9876883 0.1564345 0 0.9876883 0.1564345 0 0.8910065 0.4539905 0 0.7071068 0.7071068 0 0.4539905 0.8910065 0 0.1564345 0.9876883 0 0.1564345 -0.9876883 0 0.4539905 -0.8910065 0 0.7071068 -0.7071068 0 0.8910065 -0.4539905 0 0.9876883 -0.1564345 0 0 0 -1</float_array>
          <technique_common>
            <accessor source="#Cube_019-mesh-normals-array" count="26" stride="3">
              <param name="X" type="float"/>
              <param name="Y" type="float"/>
              <param name="Z" type="float"/>
            </accessor>
          </technique_common>
        </source>
        <source id="Cube_019-mesh-map-0">
          <float_array id="Cube_019-mesh-map-0-array" count="552">0.75 5 0.25 0 0.75 0 0.75 5 0.25 0 0.75 0 0.625 0.6875 0.875 0.5625 0.8125 0.75 0.25 5 0.75 0 0.25 0 0.25 5 0.75 0 0.25 0 0.25 5 0.171226 0.2489804 0.25 0 0.392435 3.582314 0.1189569 0.2460212 0.171226 0.2489804 0.3517813 3.579355 0.1143479 0.2414122 0.1189569 0.2460212 0.3563903 3.574746 0.1578502 0.2356045 0.1143479 0.2414122 0.4058108 3.568938 0.25 0 0.1578502 0.2356045 0.25 0 0.1727457 5 0.25 5 0.1727457 0 0.1030536 5 0.1727457 5 0.1030536 0 0 5 0.1030536 5 0.8969463 0 0.8272542 5 0.8969463 5 0.8272542 0 0.75 5 0.8272542 5 0.75 0 0.7608559 3.514395 0.75 5 0.6754832 0.1810621 0.8102764 3.508588 0.7608559 3.514395 0.7189854 0.1752545 0.8148853 3.503979 0.8102764 3.508588 0.7143765 0.1706455 0.7742317 3.50102 0.8148853 3.503979 0.6621074 0.1676863 0.75 5 0.7742317 3.50102 0.75 0 0.8272542 5 0.75 5 0.8272542 0 0.8969463 5 0.8272542 5 0.8969463 0 1 5 0.8969463 5 0.1030536 0 0.1727457 5 0.1030536 5 0.1727457 0 0.25 5 0.1727457 5 0.125 0.6875 0.375 0.5625 0.3125 0.75 0.75 5 0.25 5 0.25 0 0.75 5 0.25 5 0.25 0 0.625 0.6875 0.625 0.5625 0.6875 0.5 0.625 0.5625 0.7608559 3.514395 0.6875 0.5 0.7608559 3.514395 0.8102764 3.508588 0.8148853 3.503979 0.8148853 3.503979 0.7742317 3.50102 0.6875 0.5 0.6875 0.5 0.8125 0.5 0.875 0.5625 0.8125 0.5 0.8318135 0.503059 0.875 0.5625 0.8318135 0.503059 0.8492366 0.5119365 0.8630636 0.5257635 0.8630636 0.5257635 0.871941 0.5431864 0.875 0.5625 0.875 0.5625 0.875 0.6875 0.8125 0.75 0.875 0.6875 0.4058108 3.568938 0.8125 0.75 0.4058108 3.568938 0.3563903 3.574746 0.3517813 3.579355 0.3517813 3.579355 0.392435 3.582314 0.8125 0.75 0.8125 0.75 0.6875 0.75 0.625 0.6875 0.6875 0.75 0.6681864 0.7469411 0.625 0.6875 0.6681864 0.7469411 0.6507634 0.7380636 0.6369364 0.7242366 0.6369364 0.7242366 0.628059 0.7068136 0.625 0.6875 0.7608559 3.514395 0.8148853 3.503979 0.6875 0.5 0.625 0.6875 0.6875 0.5 0.875 0.5625 0.8318135 0.503059 0.8630636 0.5257635 0.875 0.5625 0.4058108 3.568938 0.3517813 3.579355 0.8125 0.75 0.6681864 0.7469411 0.6369364 0.7242366 0.625 0.6875 0.25 5 0.75 5 0.75 0 0.25 5 0.75 5 0.75 0 0.25 5 0.392435 3.582314 0.171226 0.2489804 0.392435 3.582314 0.3517813 3.579355 0.1189569 0.2460212 0.3517813 3.579355 0.3563903 3.574746 0.1143479 0.2414122 0.3563903 3.574746 0.4058108 3.568938 0.1578502 0.2356045 0.4058108 3.568938 0.25 5 0.25 0 0.25 0 0.1727457 0 0.1727457 5 0.1727457 0 0.1030536 0 0.1030536 5 0.1030536 0 0 0 0 5 0.8969463 0 0.8272542 0 0.8272542 5 0.8272542 0 0.75 0 0.75 5 0.75 0 0.6754832 0.1810621 0.7608559 3.514395 0.6754832 0.1810621 0.7189854 0.1752545 0.8102764 3.508588 0.7189854 0.1752545 0.7143765 0.1706455 0.8148853 3.503979 0.7143765 0.1706455 0.6621074 0.1676863 0.7742317 3.50102 0.6621074 0.1676863 0.75 0 0.75 5 0.75 0 0.8272542 0 0.8272542 5 0.8272542 0 0.8969463 0 0.8969463 5 0.8969463 0 1 0 1 5 0.1030536 0 0.1727457 0 0.1727457 5 0.1727457 0 0.25 0 0.25 5 0.125 0.6875 0.125 0.5625 0.1875 0.5 0.125 0.5625 0.1280589 0.5431864 0.1875 0.5 0.1280589 0.5431864 0.1369364 0.5257635 0.1507634 0.5119365 0.1507634 0.5119365 0.1681864 0.503059 0.1875 0.5 0.1875 0.5 0.3125 0.5 0.375 0.5625 0.3125 0.5 0.6621074 0.1676863 0.375 0.5625 0.6621074 0.1676863 0.7143765 0.1706455 0.7189854 0.1752545 0.7189854 0.1752545 0.6754832 0.1810621 0.375 0.5625 0.375 0.5625 0.375 0.6875 0.3125 0.75 0.375 0.6875 0.371941 0.7068136 0.3125 0.75 0.371941 0.7068136 0.3630635 0.7242366 0.3492366 0.7380635 0.3492366 0.7380635 0.3318136 0.7469411 0.3125 0.75 0.3125 0.75 0.1875 0.75 0.125 0.6875 0.1875 0.75 0.171226 0.2489804 0.125 0.6875 0.171226 0.2489804 0.1189569 0.2460212 0.1143479 0.2414122 0.1143479 0.2414122 0.1578502 0.2356045 0.125 0.6875 0.1280589 0.5431864 0.1507634 0.5119365 0.1875 0.5 0.125 0.6875 0.1875 0.5 0.375 0.5625 0.6621074 0.1676863 0.7189854 0.1752545 0.375 0.5625 0.371941 0.7068136 0.3492366 0.7380635 0.3125 0.75 0.171226 0.2489804 0.1143479 0.2414122 0.125 0.6875</float_array>
          <technique_common>
            <accessor source="#Cube_019-mesh-map-0-array" count="276" stride="2">
              <param name="S" type="float"/>
              <param name="T" type="float"/>
            </accessor>
          </technique_common>
        </source>
        <vertices id="Cube_019-mesh-vertices">
          <input semantic="POSITION" source="#Cube_019-mesh-positions"/>
        </vertices>
        <triangles material="Material_007-material" count="92">
          <input semantic="VERTEX" source="#Cube_019-mesh-vertices" offset="0"/>
          <input semantic="NORMAL" source="#Cube_019-mesh-normals" offset="1"/>
          <input semantic="TEXCOORD" source="#Cube_019-mesh-map-0" offset="2" set="0"/>
          <p>30 0 0 0 0 1 25 0 2 42 1 3 24 1 4 37 1 5 31 2 6 19 2 7 7 2 8 6 3 9 12 3 10 1 3 11 18 4 12 36 4 13 13 4 14 7 5 15 2 5 16 0 5 17 11 6 18 3 6 19 2 6 20 10 7 21 4 7 22 3 7 23 9 8 24 5 8 25 4 8 26 8 9 27 1 9 28 5 9 29 13 10 30 20 10 31 18 10 32 17 11 33 21 11 34 20 11 35 16 12 36 22 12 37 21 12 38 15 13 39 23 13 40 22 13 41 14 14 42 19 14 43 23 14 44 37 15 45 44 15 46 42 15 47 41 16 48 45 16 49 44 16 50 40 17 51 46 17 52 45 17 53 39 18 54 47 18 55 46 18 56 38 19 57 43 19 58 47 19 59 25 20 60 32 20 61 30 20 62 29 21 63 33 21 64 32 21 65 28 22 66 34 22 67 33 22 68 27 23 69 35 23 70 34 23 71 26 24 72 31 24 73 35 24 74 1 25 75 37 25 76 25 25 77 30 0 78 7 0 79 0 0 80 42 1 81 31 1 82 24 1 83 31 2 84 42 2 85 43 2 86 42 2 87 44 2 88 43 2 89 44 2 90 45 2 91 46 2 92 46 2 93 47 2 94 43 2 95 43 2 96 18 2 97 19 2 98 18 2 99 20 2 100 19 2 101 20 2 102 21 2 103 22 2 104 22 2 105 23 2 106 19 2 107 19 2 108 6 2 109 7 2 110 6 2 111 8 2 112 7 2 113 8 2 114 9 2 115 10 2 116 10 2 117 11 2 118 7 2 119 7 2 120 30 2 121 31 2 122 30 2 123 32 2 124 31 2 125 32 2 126 33 2 127 34 2 128 34 2 129 35 2 130 31 2 131 44 2 132 46 2 133 43 2 134 31 2 135 43 2 136 19 2 137 20 2 138 22 2 139 19 2 140 8 2 141 10 2 142 7 2 143 32 2 144 34 2 145 31 2 146 6 3 147 19 3 148 12 3 149 18 4 150 43 4 151 36 4 152 7 5 153 11 5 154 2 5 155 11 6 156 10 6 157 3 6 158 10 7 159 9 7 160 4 7 161 9 8 162 8 8 163 5 8 164 8 9 165 6 9 166 1 9 167 13 10 168 17 10 169 20 10 170 17 11 171 16 11 172 21 11 173 16 12 174 15 12 175 22 12 176 15 13 177 14 13 178 23 13 179 14 14 180 12 14 181 19 14 182 37 15 183 41 15 184 44 15 185 41 16 186 40 16 187 45 16 188 40 17 189 39 17 190 46 17 191 39 18 192 38 18 193 47 18 194 38 19 195 36 19 196 43 19 197 25 20 198 29 20 199 32 20 200 29 21 201 28 21 202 33 21 203 28 22 204 27 22 205 34 22 206 27 23 207 26 23 208 35 23 209 26 24 210 24 24 211 31 24 212 1 25 213 12 25 214 13 25 215 12 25 216 14 25 217 13 25 218 14 25 219 15 25 220 16 25 221 16 25 222 17 25 223 13 25 224 13 25 225 36 25 226 37 25 227 36 25 228 38 25 229 37 25 230 38 25 231 39 25 232 40 25 233 40 25 234 41 25 235 37 25 236 37 25 237 24 25 238 25 25 239 24 25 240 26 25 241 25 25 242 26 25 243 27 25 244 28 25 245 28 25 246 29 25 247 25 25 248 25 25 249 0 25 250 1 25 251 0 25 252 2 25 253 1 25 254 2 25 255 3 25 256 4 25 257 4 25 258 5 25 259 1 25 260 14 25 261 16 25 262 13 25 263 1 25 264 13 25 265 37 25 266 38 25 267 40 25 268 37 25 269 26 25 270 28 25 271 25 25 272 2 25 273 4 25 274 1 25 275</p>
        </triangles>
      </mesh>
    </geometry>
  </library_geometries>
  <library_visual_scenes>
    <visual_scene id="Scene" name="Scene">
      <node id="Cube_008" name="Cube.008" type="NODE">
        <matrix sid="transform">0.2 0 0 0 0 0 -2.05 0 0 0.2 0 0 0 0 0 1</matrix>
        <instance_geometry url="#Cube_019-mesh" name="Cube.008">
          <bind_material>
            <technique_common>
              <instance_material symbol="Material_007-material" target="#Material_007-material">
                <bind_vertex_input semantic="UVMap" input_semantic="TEXCOORD" input_set="0"/>
              </instance_material>
            </technique_common>
          </bind_material>
        </instance_geometry>
      </node>
    </visual_scene>
  </library_visual_scenes>
  <scene>
    <instance_visual_scene url="#Scene"/>
  </scene>
</COLLADA>