<?xml version="1.0" encoding="utf-8"?>
<COLLADA xmlns="http://www.collada.org/2005/11/COLLADASchema" version="1.4.1" xmlns:xsi="http://www.w3.org/2001/XMLSchema-instance">
  <asset>
    <contributor>
      <author>Blender User</author>
      <authoring_tool>Blender 2.83.20 commit date:2022-04-19, commit time:16:00, hash:a56e2faeb7a9</authoring_tool>
    </contributor>
    <created>2026-07-09T15:25:27</created>
    <modified>2026-07-09T15:25:27</modified>
    <unit name="meter" meter="1"/>
    <up_axis>Z_UP</up_axis>
  </asset>
  <library_effects>
    <effect id="Material-effect">
      <profile_COMMON>
        <newparam sid="BaseColor_frame_png-surface">
          <surface type="2D">
            <init_from>BaseColor_frame_png</init_from>
          </surface>
        </newparam>
        <newparam sid="BaseColor_frame_png-sampler">
          <sampler2D>
            <source>BaseColor_frame_png-surface</source>
          </sampler2D>
        </newparam>
        <technique sid="common">
          <lambert>
            <emission>
              <color sid="emission">0 0 0 1</color>
            </emission>
            <diffuse>
              <texture texture="BaseColor_frame_png-sampler" texcoord="UVMap"/>
            </diffuse>
            <index_of_refraction>
              <float sid="ior">1.45</float>
            </index_of_refraction>
          </lambert>
        </technique>
      </profile_COMMON>
    </effect>
    <effect id="Material_006-effect">
      <profile_COMMON>
        <newparam sid="Wall_-_복사본_jpeg-surface">
          <surface type="2D">
            <init_from>Wall_-_복사본_jpeg</init_from>
          </surface>
        </newparam>
        <newparam sid="Wall_-_복사본_jpeg-sampler">
          <sampler2D>
            <source>Wall_-_복사본_jpeg-surface</source>
          </sampler2D>
        </newparam>
        <technique sid="common">
          <lambert>
            <emission>
              <color sid="emission">0 0 0 1</color>
            </emission>
            <diffuse>
              <texture texture="Wall_-_복사본_jpeg-sampler" texcoord="UVMap"/>
            </diffuse>
            <index_of_refraction>
              <float sid="ior">1.45</float>
            </index_of_refraction>
          </lambert>
        </technique>
      </profile_COMMON>
    </effect>
  </library_effects>
  <library_images>
    <image id="BaseColor_frame_png" name="BaseColor_frame_png">
      <init_from>BaseColor_frame.png</init_from>
    </image>
    <image id="Wall_-_복사본_jpeg" name="Wall_-_복사본_jpeg">
      <init_from>Wall%20-%20%EB%B3%B5%EC%82%AC%EB%B3%B8.jpeg</init_from>
    </image>
  </library_images>
  <library_materials>
    <material id="Material-material" name="Material">
      <instance_effect url="#Material-effect"/>
    </material>
    <material id="Material_006-material" name="Material.006">
      <instance_effect url="#Material_006-effect"/>
    </material>
  </library_materials>
  <library_geometries>
    <geometry id="Cube_034-mesh" name="Cube.034">
      <mesh>
        <source id="Cube_034-mesh-positions">
          <float_array id="Cube_034-mesh-positions-array" count="1344">-0.8 -1 -1 -1 -0.8 -1 -0.8618034 -0.9902113 -1 -0.917557 -0.9618033 -1 -0.9618033 -0.917557 -1 -0.9902113 -0.8618034 -1 -1 -0.8 1 -0.8 -1 1 -0.9902113 -0.8618034 1 -0.9618033 -0.917557 1 -0.917557 -0.9618033 1 -0.8618034 -0.9902113 1 -1 0.8 -1 -0.8 1 -1 -0.9902113 0.8618034 -1 -0.9618033 0.917557 -1 -0.917557 0.9618033 -1 -0.8618034 0.9902113 -1 -0.8 1 1 -1 0.8 1 -0.8618034 0.9902113 1 -0.917557 0.9618033 1 -0.9618033 0.917557 1 -0.9902113 0.8618034 1 1 -0.8 -1 0.8 -1 -1 0.9902113 -0.8618034 -1 0.9618033 -0.917557 -1 0.917557 -0.9618033 -1 0.8618034 -0.9902113 -1 0.8 -1 1 1 -0.8 1 0.8618034 -0.9902113 1 0.917557 -0.9618033 1 0.9618033 -0.917557 1 0.9902113 -0.8618034 1 0.8 1 -1 1 0.8 -1 0.8618034 0.9902113 -1 0.917557 0.9618033 -1 0.9618033 0.917557 -1 0.9902113 0.8618034 -1 1 0.8 1 0.8 1 1 0.9902113 0.8618034 1 0.9618033 0.917557 1 0.917557 0.9618033 1 0.8618034 0.9902113 1 -0.6666666 -159.04 -1.055901 -0.6666666 -159.04 1.055901 -0.6666666 0.9599991 -1.055901 -0.6666666 0.9599991 1.055901 0.6666666 -159.04 -1.055901 0.6666666 -159.04 1.055901 0.6666666 0.9599991 -1.055901 0.6666666 0.9599991 1.055901 0.6666666 -159.04 0.9937888 -0.6666666 -159.04 0.9937888 -0.6666666 0.9599991 -0.9937887 0.6666666 0.9599991 -0.9937887 0.6666666 -159.04 -0.9937887 -0.6666666 -159.04 -0.9937887 -0.6666666 0.9599991 0.9937887 0.6666666 0.9599991 0.9937887 -0.8 -159.04 0.006211221 -1 -159.04 0.004968941 -0.8618033 -159.04 0.006150364 -0.917557 -159.04 0.005973935 -0.9618033 -159.04 0.005699098 -0.9902112 -159.04 0.005352854 -1 0.9599991 0.004968941 -0.8 0.9599991 0.006211161 -0.9902112 0.9599991 0.005352795 -0.9618033 0.9599991 0.005699098 -0.917557 0.9599991 0.005973875 -0.8618033 0.9599991 0.006150364 -1 -159.04 -0.004968881 -0.8 -159.04 -0.006211102 -0.9902112 -159.04 -0.005352735 -0.9618033 -159.04 -0.005699038 -0.917557 -159.04 -0.005973875 -0.8618033 -159.04 -0.006150305 -0.8 0.9599991 -0.006211161 -1 0.9599991 -0.004968941 -0.8618033 0.9599991 -0.006150364 -0.917557 0.9599991 -0.005973875 -0.9618033 0.9599991 -0.005699098 -0.9902112 0.9599991 -0.005352795 1 -159.04 0.004968941 0.8 -159.04 0.006211221 0.9902112 -159.04 0.005352854 0.9618033 -159.04 0.005699098 0.917557 -159.04 0.005973935 0.8618033 -159.04 0.006150364 0.8 0.9599991 0.006211161 1 0.9599991 0.004968941 0.8618033 0.9599991 0.006150364 0.917557 0.9599991 0.005973875 0.9618033 0.9599991 0.005699098 0.9902112 0.9599991 0.005352795 0.8 -159.04 -0.006211102 1 -159.04 -0.004968881 0.8618033 -159.04 -0.006150305 0.917557 -159.04 -0.005973875 0.9618033 -159.04 -0.005699038 0.9902112 -159.04 -0.005352735 1 0.9599991 -0.004968941 0.8 0.9599991 -0.006211161 0.9902112 0.9599991 -0.005352795 0.9618033 0.9599991 -0.005699098 0.917557 0.9599991 -0.005973875 0.8618033 0.9599991 -0.006150364 -0.8 -159.04 -0.4906831 -1 -159.04 -0.4919254 -0.8618033 -159.04 -0.4907439 -0.917557 -159.04 -0.4909204 -0.9618033 -159.04 -0.4911952 -0.9902112 -159.04 -0.4915415 -1 0.9599991 -0.4919254 -0.8 0.9599991 -0.4906831 -0.9902112 0.9599991 -0.4915415 -0.9618033 0.9599991 -0.4911952 -0.917557 0.9599991 -0.4909204 -0.8618033 0.9599991 -0.4907439 -1 -159.04 -0.5018633 -0.8 -159.04 -0.5031055 -0.9902112 -159.04 -0.5022471 -0.9618033 -159.04 -0.5025934 -0.917557 -159.04 -0.5028682 -0.8618033 -159.04 -0.5030447 -0.8 0.9599991 -0.5031055 -1 0.9599991 -0.5018633 -0.8618033 0.9599991 -0.5030447 -0.917557 0.9599991 -0.5028683 -0.9618033 0.9599991 -0.5025935 -0.9902112 0.9599991 -0.5022472 1 -159.04 -0.4919254 0.8 -159.04 -0.4906831 0.9902112 -159.04 -0.4915415 0.9618033 -159.04 -0.4911952 0.917557 -159.04 -0.4909204 0.8618033 -159.04 -0.4907439 0.8 0.9599991 -0.4906831 1 0.9599991 -0.4919254 0.8618033 0.9599991 -0.4907439 0.917557 0.9599991 -0.4909204 0.9618033 0.9599991 -0.4911952 0.9902112 0.9599991 -0.4915415 0.8 -159.04 -0.5031055 1 -159.04 -0.5018633 0.8618033 -159.04 -0.5030447 0.917557 -159.04 -0.5028682 0.9618033 -159.04 -0.5025934 0.9902112 -159.04 -0.5022471 1 0.9599991 -0.5018633 0.8 0.9599991 -0.5031055 0.9902112 0.9599991 -0.5022472 0.9618033 0.9599991 -0.5025935 0.917557 0.9599991 -0.5028683 0.8618033 0.9599991 -0.5030447 -0.8 -159.04 0.5031056 -1 -159.04 0.5018634 -0.8618033 -159.04 0.5030448 -0.917557 -159.04 0.5028684 -0.9618033 -159.04 0.5025935 -0.9902112 -159.04 0.5022472 -1 0.9599991 0.5018633 -0.8 0.9599991 0.5031055 -0.9902112 0.9599991 0.5022472 -0.9618033 0.9599991 0.5025935 -0.917557 0.9599991 0.5028683 -0.8618033 0.9599991 0.5030447 -1 -159.04 0.4919255 -0.8 -159.04 0.4906832 -0.9902112 -159.04 0.4915416 -0.9618033 -159.04 0.4911953 -0.917557 -159.04 0.4909205 -0.8618033 -159.04 0.490744 -0.8 0.9599991 0.4906832 -1 0.9599991 0.4919254 -0.8618033 0.9599991 0.490744 -0.917557 0.9599991 0.4909204 -0.9618033 0.9599991 0.4911953 -0.9902112 0.9599991 0.4915416 1 -159.04 0.5018634 0.8 -159.04 0.5031056 0.9902112 -159.04 0.5022472 0.9618033 -159.04 0.5025935 0.917557 -159.04 0.5028684 0.8618033 -159.04 0.5030448 0.8 0.9599991 0.5031055 1 0.9599991 0.5018633 0.8618033 0.9599991 0.5030447 0.917557 0.9599991 0.5028683 0.9618033 0.9599991 0.5025935 0.9902112 0.9599991 0.5022472 0.8 -159.04 0.4906832 1 -159.04 0.4919255 0.8618033 -159.04 0.490744 0.917557 -159.04 0.4909205 0.9618033 -159.04 0.4911953 0.9902112 -159.04 0.4915416 1 0.9599991 0.4919254 0.8 0.9599991 0.4906832 0.9902112 0.9599991 0.4915416 0.9618033 0.9599991 0.4911953 0.917557 0.9599991 0.4909204 0.8618033 0.9599991 0.490744 -0.8 -159.04 -0.9875775 -1 -159.04 -0.9888198 -0.8618033 -159.04 -0.9876383 -0.917557 -159.04 -0.9878148 -0.9618033 -159.04 -0.9880896 -0.9902112 -159.04 -0.9884359 -1 0.9599915 -0.9888198 -0.8 0.9599915 -0.9875776 -0.9902112 0.9599915 -0.9884359 -0.9618033 0.9599915 -0.9880896 -0.917557 0.9599915 -0.9878148 -0.8618033 0.9599915 -0.9876384 -1 -159.04 -0.9987577 -0.8 -159.04 -0.9999999 -0.9902112 -159.04 -0.9991415 -0.9618033 -159.04 -0.9994878 -0.917557 -159.04 -0.9997627 -0.8618033 -159.04 -0.9999391 -0.8 0.9599915 -1 -1 0.9599915 -0.9987577 -0.8618033 0.9599915 -0.9999392 -0.917557 0.9599915 -0.9997627 -0.9618033 0.9599915 -0.9994879 -0.9902112 0.9599915 -0.9991416 1 -159.04 -0.9888198 0.8 -159.04 -0.9875775 0.9902112 -159.04 -0.9884359 0.9618033 -159.04 -0.9880896 0.917557 -159.04 -0.9878148 0.8618033 -159.04 -0.9876383 0.8 0.9599915 -0.9875776 1 0.9599915 -0.9888198 0.8618033 0.9599915 -0.9876384 0.917557 0.9599915 -0.9878148 0.9618033 0.9599915 -0.9880896 0.9902112 0.9599915 -0.9884359 0.8 -159.04 -0.9999999 1 -159.04 -0.9987577 0.8618033 -159.04 -0.9999391 0.917557 -159.04 -0.9997627 0.9618033 -159.04 -0.9994878 0.9902112 -159.04 -0.9991415 1 0.9599915 -0.9987577 0.8 0.9599915 -1 0.9902112 0.9599915 -0.9991416 0.9618033 0.9599915 -0.9994879 0.917557 0.9599915 -0.9997627 0.8618033 0.9599915 -0.9999392 -0.8 -159.04 1 -1 -159.04 0.9987577 -0.8618033 -159.04 0.9999392 -0.917557 -159.04 0.9997627 -0.9618033 -159.04 0.9994879 -0.9902112 -159.04 0.9991416 -1 0.9600067 0.9987577 -0.8 0.9600067 0.9999999 -0.9902112 0.9600067 0.9991415 -0.9618033 0.9600067 0.9994878 -0.917557 0.9600067 0.9997627 -0.8618033 0.9600067 0.9999391 -1 -159.04 0.9888198 -0.8 -159.04 0.9875776 -0.9902112 -159.04 0.9884359 -0.9618033 -159.04 0.9880896 -0.917557 -159.04 0.9878148 -0.8618033 -159.04 0.9876384 -0.8 0.9600067 0.9875775 -1 0.9600067 0.9888198 -0.8618033 0.9600067 0.9876383 -0.917557 0.9600067 0.9878148 -0.9618033 0.9600067 0.9880896 -0.9902112 0.9600067 0.9884359 1 -159.04 0.9987577 0.8 -159.04 1 0.9902112 -159.04 0.9991416 0.9618033 -159.04 0.9994879 0.917557 -159.04 0.9997627 0.8618033 -159.04 0.9999392 0.8 0.9600067 0.9999999 1 0.9600067 0.9987577 0.8618033 0.9600067 0.9999391 0.917557 0.9600067 0.9997627 0.9618033 0.9600067 0.9994878 0.9902112 0.9600067 0.9991415 0.8 -159.04 0.9875776 1 -159.04 0.9888198 0.8618033 -159.04 0.9876384 0.917557 -159.04 0.9878148 0.9618033 -159.04 0.9880896 0.9902112 -159.04 0.9884359 1 0.9600067 0.9888198 0.8 0.9600067 0.9875775 0.9902112 0.9600067 0.9884359 0.9618033 0.9600067 0.9880896 0.917557 0.9600067 0.9878148 0.8618033 0.9600067 0.9876383 -0.8 -104.04 -1 -1 -103.84 -1 -0.8618033 -104.0302 -1 -0.917557 -104.0018 -1 -0.9618033 -103.9576 -1 -0.9902112 -103.9018 -1 -1 -103.84 1 -0.8 -104.04 1 -0.9902112 -103.9018 1 -0.9618033 -103.9576 1 -0.917557 -104.0018 1 -0.8618033 -104.0302 1 -1 -102.24 -1 -0.8 -102.04 -1 -0.9902112 -102.1782 -1 -0.9618033 -102.1224 -1 -0.917557 -102.0782 -1 -0.8618033 -102.0498 -1 -0.8 -102.04 1 -1 -102.24 1 -0.8618033 -102.0498 1 -0.917557 -102.0782 1 -0.9618033 -102.1224 1 -0.9902112 -102.1782 1 1 -103.84 -1 0.8 -104.04 -1 0.9902112 -103.9018 -1 0.9618033 -103.9576 -1 0.917557 -104.0018 -1 0.8618033 -104.0302 -1 0.8 -104.04 1 1 -103.84 1 0.8618033 -104.0302 1 0.917557 -104.0018 1 0.9618033 -103.9576 1 0.9902112 -103.9018 1 0.8 -102.04 -1 1 -102.24 -1 0.8618033 -102.0498 -1 0.917557 -102.0782 -1 0.9618033 -102.1224 -1 0.9902112 -102.1782 -1 1 -102.24 1 0.8 -102.04 1 0.9902112 -102.1782 1 0.9618033 -102.1224 1 0.917557 -102.0782 1 0.8618033 -102.0498 1 -0.8 -128.04 -0.9999999 -1 -127.84 -0.9999999 -0.8618033 -128.0302 -0.9999999 -0.917557 -128.0018 -0.9999999 -0.9618033 -127.9576 -0.9999999 -0.9902112 -127.9018 -0.9999999 -1 -127.84 1 -0.8 -128.04 1 -0.9902112 -127.9018 1 -0.9618033 -127.9576 1 -0.917557 -128.0018 1 -0.8618033 -128.0302 1 -1 -126.24 -0.9999999 -0.8 -126.04 -0.9999999 -0.9902112 -126.1782 -0.9999999 -0.9618033 -126.1224 -0.9999999 -0.917557 -126.0782 -0.9999999 -0.8618033 -126.0498 -0.9999999 -0.8 -126.04 1 -1 -126.24 1 -0.8618033 -126.0498 1 -0.917557 -126.0782 1 -0.9618033 -126.1224 1 -0.9902112 -126.1782 1 1 -127.84 -0.9999999 0.8 -128.04 -0.9999999 0.9902112 -127.9018 -0.9999999 0.9618033 -127.9576 -0.9999999 0.917557 -128.0018 -0.9999999 0.8618033 -128.0302 -0.9999999 0.8 -128.04 1 1 -127.84 1 0.8618033 -128.0302 1 0.917557 -128.0018 1 0.9618033 -127.9576 1 0.9902112 -127.9018 1 0.8 -126.04 -0.9999999 1 -126.24 -0.9999999 0.8618033 -126.0498 -0.9999999 0.917557 -126.0782 -0.9999999 0.9618033 -126.1224 -0.9999999 0.9902112 -126.1782 -0.9999999 1 -126.24 1 0.8 -126.04 1 0.9902112 -126.1782 1 0.9618033 -126.1224 1 0.917557 -126.0782 1 0.8618033 -126.0498 1 -0.8 -159.08 -0.9999999 -1 -158.88 -0.9999999 -0.8618033 -159.0702 -0.9999999 -0.917557 -159.0418 -0.9999999 -0.9618033 -158.9975 -0.9999999 -0.9902112 -158.9418 -0.9999999 -1 -158.88 1 -0.8 -159.08 1 -0.9902112 -158.9418 1 -0.9618033 -158.9975 1 -0.917557 -159.0418 1 -0.8618033 -159.0702 1 -1 -157.28 -0.9999999 -0.8 -157.08 -0.9999999 -0.9902112 -157.2182 -0.9999999 -0.9618033 -157.1624 -0.9999999 -0.917557 -157.1182 -0.9999999 -0.8618033 -157.0898 -0.9999999 -0.8 -157.08 1 -1 -157.28 1 -0.8618033 -157.0898 1 -0.917557 -157.1182 1 -0.9618033 -157.1624 1 -0.9902112 -157.2182 1 1 -158.88 -0.9999999 0.8 -159.08 -0.9999999 0.9902112 -158.9418 -0.9999999 0.9618033 -158.9975 -0.9999999 0.917557 -159.0418 -0.9999999 0.8618033 -159.0702 -0.9999999 0.8 -159.08 1 1 -158.88 1 0.8618033 -159.0702 1 0.917557 -159.0418 1 0.9618033 -158.9975 1 0.9902112 -158.9418 1 0.8 -157.08 -0.9999999 1 -157.28 -0.9999999 0.8618033 -157.0898 -0.9999999 0.917557 -157.1182 -0.9999999 0.9618033 -157.1624 -0.9999999 0.9902112 -157.2182 -0.9999999 1 -157.28 1 0.8 -157.08 1 0.9902112 -157.2182 1 0.9618033 -157.1624 1 0.917557 -157.1182 1 0.8618033 -157.0898 1</float_array>
          <technique_common>
            <accessor source="#Cube_034-mesh-positions-array" count="448" stride="3">
              <param name="X" type="float"/>
              <param name="Y" type="float"/>
              <param name="Z" type="float"/>
            </accessor>
          </technique_common>
        </source>
        <source id="Cube_034-mesh-normals">
          <float_array id="Cube_034-mesh-normals-array" count="891">0 -1 0 1 0 0 0 0 1 -1 0 0 0 1 0 -0.1564354 -0.9876883 0 -0.4539912 -0.8910062 0 -0.7071068 -0.7071068 0 -0.8910064 -0.4539909 0 -0.9876883 -0.1564354 0 -0.1564354 0.9876883 0 -0.4539912 0.8910062 0 -0.7071068 0.7071068 0 -0.8910064 0.4539909 0 -0.9876883 0.1564354 0 0.9876883 0.1564354 0 0.8910064 0.4539909 0 0.7071068 0.7071068 0 0.4539905 0.8910066 0 0.1564354 0.9876883 0 0.1564354 -0.9876883 0 0.4539912 -0.8910062 0 0.7071068 -0.7071068 0 0.8910064 -0.4539909 0 0.9876883 -0.1564354 0 0 0 -1 1 0 0 -1 0 0 0 0 -1 0 0 1 0 0 -1 -9.83761e-4 0 0.9999995 -0.003164708 0 0.999995 -0.006211042 0 0.9999808 -0.0121892 0 0.9999257 -0.03918546 0 0.999232 -9.83761e-4 0 -0.9999996 -0.003164708 0 -0.999995 -0.006211042 0 -0.9999808 -0.0121892 0 -0.9999257 -0.03918546 0 -0.999232 0.03918546 0 -0.999232 0.01218914 0 -0.9999257 0.006211042 0 -0.9999808 0.003164708 0 -0.999995 9.83749e-4 0 -0.9999996 9.83761e-4 0 0.9999996 0.003164708 0 0.999995 0.006211042 0 0.9999808 0.0121892 0 0.9999257 0.03918546 0 0.999232 0 0 1 0 0 -1 -9.84484e-4 0 0.9999995 -0.00316441 0 0.999995 -0.006211638 0 0.9999808 -0.01218861 0 0.9999257 -0.03918361 0 0.9992321 -9.82941e-4 0 -0.9999996 -0.00316441 0 -0.999995 -0.006211638 0 -0.9999808 -0.01218521 0 -0.9999259 -0.03918361 0 -0.9992321 0.03918361 0 -0.9992321 0.01219195 0 -0.9999257 0.006213784 0 -0.9999807 0.00316441 0 -0.999995 9.84484e-4 0 -0.9999996 9.84484e-4 0 0.9999996 0.003166139 0 0.999995 0.006211638 0 0.9999808 0.01218861 0 0.9999257 0.03918361 0 0.9992321 0 0 1 0 0 -1 -9.82941e-4 0 0.9999995 -0.00316441 0 0.999995 -0.006209492 0 0.9999808 -0.01219528 0 0.9999257 -0.03918361 0 0.9992321 -9.82941e-4 0 -0.9999996 -0.00316441 0 -0.999995 -0.01219195 0 -0.9999257 -0.03918361 0 -0.9992321 0.01218861 0 -0.9999257 0.006209492 0 -0.9999808 9.84484e-4 0 -0.9999996 9.82941e-4 0 0.9999996 0.00316441 0 0.999995 0.006209492 0 0.9999808 0.01219528 0 0.9999257 0.03918361 0 0.9992321 0 0 1 0 0 -1 -9.84484e-4 0 0.9999995 -0.00316441 0 0.999995 -0.006207346 0 0.9999808 -0.01219195 0 0.9999257 -0.03919333 0 0.9992317 -9.84484e-4 0 -0.9999996 -0.00316441 0 -0.999995 -0.006207346 0 -0.9999808 -0.01219195 0 -0.9999257 -0.03919333 0 -0.9992316 0.03919333 0 -0.9992316 0.01218521 0 -0.9999259 0.006207346 0 -0.9999808 0.00316441 0 -0.999995 9.84484e-4 0 0.9999996 0.006211638 0 0.9999808 0.01219195 0 0.9999257 0.03919333 0 0.9992316 -0.006207346 0 0.9999808 -0.006207346 0 -0.9999808 -0.03919333 0 -0.9992317 0.03919333 0 -0.9992317 0.006207346 0 -0.9999808 0.006211638 0 0.9999808 0.03919333 0 0.9992317 -0.1564317 -0.9876888 0 -0.4540404 -0.8909811 0 -0.7070791 -0.7071344 0 -0.8910129 -0.4539782 0 -0.9876862 -0.1564484 0 -0.1564317 0.9876888 0 -0.4540404 0.8909811 0 -0.7070791 0.7071344 0 -0.8910129 0.4539782 0 -0.9876862 0.1564484 0 0.9876862 0.1564484 0 0.8910129 0.4539782 0 0.7070791 0.7071344 0 0.4540411 0.8909807 0 0.1564317 0.9876888 0 0.1564317 -0.9876888 0 0.4540404 -0.8909811 0 0.7070791 -0.7071344 0 0.8910129 -0.4539782 0 0.9876862 -0.1564484 0 -0.1565507 -0.98767 0 -0.4538468 -0.8910799 0 -0.7071402 -0.7070735 0 0.1565507 -0.98767 0 0.4538468 -0.8910799 0 0.7071402 -0.7070735 0 -0.1565507 0.98767 0 -0.4538468 0.8910799 0 -0.7071402 0.7070735 0 0.7071402 0.7070735 0 0.4538475 0.8910794 0 0.1565507 0.98767 0 -3.72529e-7 0 1 1.65568e-7 0 1 -0.4539905 -0.8910066 0 -0.4539905 0.8910066 0 0.4539912 0.8910062 0 0.4539905 -0.8910066 0 3.72529e-7 0 -1 -1.65568e-7 0 -1 0 0 1 1 0 0 -1 0 0 0 0 -1 -9.83749e-4 0 0.9999996 -0.003164708 0 0.999995 -0.006211042 0 0.9999808 -0.01218914 0 0.9999257 -0.03918546 0 0.999232 -9.83749e-4 0 -0.9999995 -0.003164708 0 -0.999995 -0.006211042 0 -0.9999808 -0.01218914 0 -0.9999257 -0.03918546 0 -0.999232 0.03918546 0 -0.999232 0.0121892 0 -0.9999257 0.006211042 0 -0.9999808 0.003164708 0 -0.999995 9.83761e-4 0 -0.9999995 9.83749e-4 0 0.9999995 0.003164708 0 0.999995 0.006211042 0 0.9999808 0.01218914 0 0.9999257 0.03918546 0 0.999232 0 0 1 1 0 0 -1 0 0 -9.82941e-4 0 0.9999996 -0.003166139 0 0.999995 -0.006209492 0 0.9999808 -0.01219195 0 0.9999257 -0.03918361 0 0.9992321 -9.84484e-4 0 -0.9999995 -0.00316441 0 -0.999995 -0.006213784 0 -0.9999807 -0.01219195 0 -0.9999257 -0.03918361 0 -0.9992321 0.03918361 0 -0.9992321 0.01218521 0 -0.9999259 0.006211638 0 -0.9999808 0.00316441 0 -0.999995 9.82941e-4 0 -0.9999995 9.82941e-4 0 0.9999995 0.00316441 0 0.999995 0.006209492 0 0.9999808 0.01219195 0 0.9999257 0.03918361 0 0.9992321 -1 0 0 0 0 -1 -9.84484e-4 0 0.9999996 -0.00316441 0 0.999995 -0.006209492 0 0.9999808 -0.01218521 0 0.9999259 -9.84484e-4 0 -0.9999995 -0.00316441 0 -0.999995 -0.006209492 0 -0.9999808 -0.01218861 0 -0.9999257 0.03918361 0 -0.9992321 0.01219195 0 -0.9999257 0.00316441 0 -0.999995 9.82941e-4 0 -0.9999995 9.84484e-4 0 0.9999995 0.006209492 0 0.9999808 0.01218521 0 0.9999259 0 0 1 0 0 -1 -0.00316441 0 0.999995 -0.006211638 0 0.9999808 -0.03919333 0 0.9992316 -9.84484e-4 0 -0.9999995 -0.00316441 0 -0.999995 -0.006211638 0 -0.9999808 -0.01218521 0 -0.9999259 -0.03919333 0 -0.9992317 0.03919333 0 -0.9992317 0.01219195 0 -0.9999257 0.006211638 0 -0.9999808 0.00316441 0 -0.999995 9.84484e-4 0 -0.9999995 9.84484e-4 0 0.9999995 0.00316441 0 0.999995 0.006207346 0 0.9999808 0.01218521 0 0.9999259 0.03919333 0 0.9992317 -0.006211638 0 0.9999808 -0.03919333 0 0.9992317 -0.006211638 0 -0.9999808 0.006211638 0 -0.9999808 0.006207346 0 0.9999808 0 0 1 -1.53911e-6 0 1 0 0 1 4.24535e-6 0 1 4.24362e-6 0 1 1.53668e-6 0 1 -4.24419e-6 0 1 -8.29705e-7 0 1 -4.69501e-7 0 1 -0.4540411 -0.8909807 0 -0.4540411 0.8909807 0 0.4540404 0.8909811 0 0.4540411 -0.8909807 0 0 0 -1 1.53911e-6 0 -1 0 0 -1 -4.24535e-6 0 -1 -4.24362e-6 0 -1 -1.53668e-6 0 -1 4.24419e-6 0 -1 8.29705e-7 0 -1 4.69501e-7 0 -1 -0.1565507 -0.98767 0 -0.4538475 -0.8910794 0 -0.7071402 -0.7070735 0 -0.1564317 0.9876888 0 -0.7070792 0.7071344 0 0.7070792 0.7071344 0 0.1564317 0.9876888 0 0.1565507 -0.98767 0 0.4538475 -0.8910794 0 0.7071402 -0.7070735 0 -1.86265e-7 0 -1 2.86487e-6 0 -1 6.16128e-6 0 -1 -1.53789e-6 0 -1 0 0 -1 -4.46174e-6 0 -1 -8.29881e-7 0 -1 -0.1565507 0.98767 0 -0.4538475 0.8910794 0 -0.7071402 0.7070735 0 0.7071402 0.7070735 0 0.4538468 0.8910799 0 0.1565507 0.98767 0 -1.86267e-7 0 -1 2.86382e-6 0 -1 0 0 -1 -4.46429e-6 0 -1</float_array>
          <technique_common>
            <accessor source="#Cube_034-mesh-normals-array" count="297" stride="3">
              <param name="X" type="float"/>
              <param name="Y" type="float"/>
              <param name="Z" type="float"/>
            </accessor>
          </technique_common>
        </source>
        <source id="Cube_034-mesh-map-0">
          <float_array id="Cube_034-mesh-map-0-array" count="5112">0.9 1 0.09999996 0 0.9 0 0.9 1 0.09999996 0 0.9 0 0.7206897 0.09999996 0.2793104 0.1 0.3234483 0 0.09999996 1 0.9 0 0.1 0 0.09999996 1 0.9 0 0.1 0 0.1 1 0.1493352 0.001631438 0.09999996 0 0.1493352 0.6682981 0.1266492 0.006366074 0.1493352 0.001631438 0.1266492 0.6730328 0.1233943 0.01374047 0.1266492 0.006366074 0.1233943 0.6804072 0.1398891 0.02303272 0.1233943 0.01374047 0.1398891 0.6896995 0.1 0 0.1398891 0.02303272 0.1 0 0.06909829 1 0.09999996 1 0.06909835 0 0.04122149 1 0.06909829 1 0.04122149 0 0 1 0.04122149 1 0.9587785 0 0.9309017 1 0.9587785 1 0.9309017 0 0.9 1 0.9309017 1 0.9 0 0.8601109 0.9769672 0.9 1 0.8601109 0.3103005 0.8766057 0.9862595 0.8601109 0.9769672 0.8766057 0.3195928 0.8733508 0.9936339 0.8766057 0.9862595 0.8733508 0.3269672 0.8506648 0.9983686 0.8733508 0.9936339 0.8506648 0.3317019 0.9 1 0.8506648 0.9983686 0.9 0 0.9309017 1 0.9 1 0.9309017 0 0.9587785 1 0.9309017 1 0.9587785 0 1 1 0.9587785 1 0.04122149 0 0.06909835 1 0.04122149 1 0.06909829 0 0.1 1 0.06909835 1 0.2793104 0.09999996 0.7206897 0.1 0.6765517 0 0.2941179 0 0 5 0 0 0.382353 0.25 0.375 0.5 0.375 0.25 9.705883 0 10 5 10 0 0.382353 0.75 0.375 1 0.375 0.75 0.375 0.5 0.125 0.75 0.125 0.5 0.875 0.5 0.625 0.75 0.625 0.5 0.3780488 0.3625 0.6219513 0.3875 0.6219514 0.3625 0.6176471 0.25 0.625 0.5 0.6176471 0.5 0.6176471 0.75 0.625 1 0.6176471 1 0.2941179 0 0 5 0.2941173 5 9.705883 0 10 5 9.705883 5 0.3780487 0.8625 0.6219513 0.8875 0.6219512 0.8625 0.9 1 0.09999996 0 0.9 0 0.9 1 0.09999996 0 0.9 0 0.71226 0.04122149 0.7185294 0.06909829 0.8766057 0.9862595 0.09999996 1 0.9 0 0.1 0 0.09999996 1 0.9 0 0.1 0 0.1 1 0.1493352 0.001631438 0.09999996 0 0.1493352 0.6682981 0.1266492 0.006366074 0.1493352 0.001631438 0.1266492 0.6730328 0.1233943 0.01374047 0.1266492 0.006366074 0.1233943 0.6804072 0.1398891 0.02303272 0.1233943 0.01374047 0.1398891 0.6896995 0.1 0 0.1398891 0.02303272 0.1 0 0.06909829 1 0.09999996 1 0.06909835 0 0.04122149 1 0.06909829 1 0.04122149 0 0 1 0.04122149 1 0.9587785 0 0.9309017 1 0.9587785 1 0.9309017 0 0.9 1 0.9309017 1 0.9 0 0.8601109 0.9769672 0.9 1 0.8601109 0.3103005 0.8766057 0.9862595 0.8601109 0.9769672 0.8766057 0.3195928 0.8733508 0.9936339 0.8766057 0.9862595 0.8733508 0.3269672 0.8506648 0.9983686 0.8733508 0.9936339 0.8506648 0.3317019 0.9 1 0.8506648 0.9983686 0.9 0 0.9309017 1 0.9 1 0.9309017 0 0.9587785 1 0.9309017 1 0.9587785 0 1 1 0.9587785 1 0.04122149 0 0.06909835 1 0.04122149 1 0.06909829 0 0.1 1 0.06909835 1 0.1233943 0.01374047 0.1398891 0.02303272 0.28774 0.9587785 0.9 1 0.09999996 0 0.9 0 0.9 1 0.09999996 0 0.9 0 0.71226 0.04122149 0.7185294 0.06909829 0.8766057 0.9862595 0.09999996 1 0.9 0 0.1 0 0.09999996 1 0.9 0 0.1 0 0.1 1 0.1493352 0.001631438 0.09999996 0 0.1493352 0.6682981 0.1266492 0.006366074 0.1493352 0.001631438 0.1266492 0.6730328 0.1233943 0.01374047 0.1266492 0.006366074 0.1233943 0.6804072 0.1398891 0.02303272 0.1233943 0.01374047 0.1398891 0.6896995 0.1 0 0.1398891 0.02303272 0.1 0 0.06909829 1 0.09999996 1 0.06909835 0 0.04122149 1 0.06909829 1 0.04122149 0 0 1 0.04122149 1 0.9587785 0 0.9309017 1 0.9587785 1 0.9309017 0 0.9 1 0.9309017 1 0.9 0 0.8601109 0.9769672 0.9 1 0.8601109 0.3103005 0.8766057 0.9862595 0.8601109 0.9769672 0.8766057 0.3195928 0.8733508 0.9936339 0.8766057 0.9862595 0.8733508 0.3269672 0.8506648 0.9983686 0.8733508 0.9936339 0.8506648 0.3317019 0.9 1 0.8506648 0.9983686 0.9 0 0.9309017 1 0.9 1 0.9309017 0 0.9587785 1 0.9309017 1 0.9587785 0 1 1 0.9587785 1 0.04122149 0 0.06909835 1 0.04122149 1 0.06909829 0 0.1 1 0.06909835 1 0.1233943 0.01374047 0.1398891 0.02303272 0.28774 0.9587785 0.9 1 0.09999996 0 0.9 0 0.9 1 0.09999996 0 0.9 0 0.71226 0.04122149 0.7185294 0.06909829 0.8766057 0.9862595 0.09999996 1 0.9 0 0.1 0 0.09999996 1 0.9 0 0.1 0 0.1 1 0.1493352 0.001631438 0.09999996 0 0.1493352 0.6682981 0.1266492 0.006366074 0.1493352 0.001631438 0.1266492 0.6730328 0.1233943 0.01374047 0.1266492 0.006366074 0.1233943 0.6804072 0.1398891 0.02303272 0.1233943 0.01374047 0.1398891 0.6896995 0.1 0 0.1398891 0.02303272 0.1 0 0.06909829 1 0.09999996 1 0.06909835 0 0.04122149 1 0.06909829 1 0.04122149 0 0 1 0.04122149 1 0.9587785 0 0.9309017 1 0.9587785 1 0.9309017 0 0.9 1 0.9309017 1 0.9 0 0.8601109 0.9769672 0.9 1 0.8601109 0.3103005 0.8766057 0.9862595 0.8601109 0.9769672 0.8766057 0.3195928 0.8733508 0.9936339 0.8766057 0.9862595 0.8733508 0.3269672 0.8506648 0.9983686 0.8733508 0.9936339 0.8506648 0.3317019 0.9 1 0.8506648 0.9983686 0.9 0 0.9309017 1 0.9 1 0.9309017 0 0.9587785 1 0.9309017 1 0.9587785 0 1 1 0.9587785 1 0.04122149 0 0.06909835 1 0.04122149 1 0.06909829 0 0.1 1 0.06909835 1 0.1233943 0.01374047 0.1398891 0.02303272 0.28774 0.9587785 0.9 1 0.09999996 0 0.9 0 0.9 1 0.09999996 0 0.9 0 0.71226 0.04122149 0.7185294 0.06909829 0.8766057 0.9862595 0.09999996 1 0.9 0 0.1 0 0.09999996 1 0.9 0 0.1 0 0.1 1 0.1493352 0.001631438 0.09999996 0 0.1493352 0.6682981 0.1266492 0.006366074 0.1493352 0.001631438 0.1266492 0.6730328 0.1233943 0.01374047 0.1266492 0.006366074 0.1233943 0.6804072 0.1398891 0.02303272 0.1233943 0.01374047 0.1398891 0.6896995 0.1 0 0.1398891 0.02303272 0.1 0 0.06909829 1 0.09999996 1 0.06909835 0 0.04122149 1 0.06909829 1 0.04122149 0 0 1 0.04122149 1 0.9587785 0 0.9309017 1 0.9587785 1 0.9309017 0 0.9 1 0.9309017 1 0.9 0 0.8601109 0.9769672 0.9 1 0.8601109 0.3103005 0.8766057 0.9862595 0.8601109 0.9769672 0.8766057 0.3195928 0.8733508 0.9936339 0.8766057 0.9862595 0.8733508 0.3269672 0.8506648 0.9983686 0.8733508 0.9936339 0.8506648 0.3317019 0.9 1 0.8506648 0.9983686 0.9 0 0.9309017 1 0.9 1 0.9309017 0 0.9587785 1 0.9309017 1 0.9587785 0 1 1 0.9587785 1 0.04122149 0 0.06909835 1 0.04122149 1 0.06909829 0 0.1 1 0.06909835 1 0.1233943 0.01374047 0.1398891 0.02303272 0.28774 0.9587785 0.9 1 0.09999996 0 0.9 0 0.9 1 0.09999996 0 0.9 0 0.71226 0.04122149 0.7185294 0.06909829 0.8766057 0.9862595 0.09999996 1 0.9 0 0.1 0 0.09999996 1 0.9 0 0.1 0 0.1 1 0.1493352 0.001631438 0.09999996 0 0.1493352 0.6682981 0.1266492 0.006366074 0.1493352 0.001631438 0.1266492 0.6730328 0.1233943 0.01374047 0.1266492 0.006366074 0.1233943 0.6804072 0.1398891 0.02303272 0.1233943 0.01374047 0.1398891 0.6896995 0.1 0 0.1398891 0.02303272 0.1 0 0.06909829 1 0.09999996 1 0.06909835 0 0.04122149 1 0.06909829 1 0.04122149 0 0 1 0.04122149 1 0.9587785 0 0.9309017 1 0.9587785 1 0.9309017 0 0.9 1 0.9309017 1 0.9 0 0.8601109 0.9769672 0.9 1 0.8601109 0.3103005 0.8766057 0.9862595 0.8601109 0.9769672 0.8766057 0.3195928 0.8733508 0.9936339 0.8766057 0.9862595 0.8733508 0.3269672 0.8506648 0.9983686 0.8733508 0.9936339 0.8506648 0.3317019 0.9 1 0.8506648 0.9983686 0.9 0 0.9309017 1 0.9 1 0.9309017 0 0.9587785 1 0.9309017 1 0.9587785 0 1 1 0.9587785 1 0.04122149 0 0.06909835 1 0.04122149 1 0.06909829 0 0.1 1 0.06909835 1 0.1233943 0.01374047 0.1398891 0.02303272 0.28774 0.9587785 0.9 1 0.09999996 0 0.9 0 0.9 1 0.09999996 0 0.9 0 0.7206897 0.09999996 0.2793104 0.1 0.3234483 0 0.09999996 1 0.9 0 0.1 0 0.09999996 1 0.9 0 0.1 0 0.1 1 0.1493352 0.001631438 0.09999996 0 0.1493352 0.6682981 0.1266492 0.006366074 0.1493352 0.001631438 0.1266492 0.6730328 0.1233943 0.01374047 0.1266492 0.006366074 0.1233943 0.6804072 0.1398891 0.02303272 0.1233943 0.01374047 0.1398891 0.6896995 0.1 0 0.1398891 0.02303272 0.1 0 0.06909829 1 0.09999996 1 0.06909835 0 0.04122149 1 0.06909829 1 0.04122149 0 0 1 0.04122149 1 0.9587785 0 0.9309017 1 0.9587785 1 0.9309017 0 0.9 1 0.9309017 1 0.9 0 0.8601109 0.9769672 0.9 1 0.8601109 0.3103005 0.8766057 0.9862595 0.8601109 0.9769672 0.8766057 0.3195928 0.8733508 0.9936339 0.8766057 0.9862595 0.8733508 0.3269672 0.8506648 0.9983686 0.8733508 0.9936339 0.8506648 0.3317019 0.9 1 0.8506648 0.9983686 0.9 0 0.9309017 1 0.9 1 0.9309017 0 0.9587785 1 0.9309017 1 0.9587785 0 1 1 0.9587785 1 0.04122149 0 0.06909835 1 0.04122149 1 0.06909829 0 0.1 1 0.06909835 1 0.2793104 0.09999996 0.7206897 0.1 0.6765517 0 0.9 1 0.09999996 0 0.9 0 0.9 1 0.09999996 0 0.9 0 0.7206897 0.09999996 0.2793104 0.1 0.3234483 0 0.09999996 1 0.9 0 0.1 0 0.09999996 1 0.9 0 0.1 0 0.1 1 0.1493352 0.001631438 0.09999996 0 0.1493352 0.6682981 0.1266492 0.006366074 0.1493352 0.001631438 0.1266492 0.6730328 0.1233943 0.01374047 0.1266492 0.006366074 0.1233943 0.6804072 0.1398891 0.02303272 0.1233943 0.01374047 0.1398891 0.6896995 0.1 0 0.1398891 0.02303272 0.1 0 0.06909829 1 0.09999996 1 0.06909835 0 0.04122149 1 0.06909829 1 0.04122149 0 0 1 0.04122149 1 0.9587785 0 0.9309017 1 0.9587785 1 0.9309017 0 0.9 1 0.9309017 1 0.9 0 0.8601109 0.9769672 0.9 1 0.8601109 0.3103005 0.8766057 0.9862595 0.8601109 0.9769672 0.8766057 0.3195928 0.8733508 0.9936339 0.8766057 0.9862595 0.8733508 0.3269672 0.8506648 0.9983686 0.8733508 0.9936339 0.8506648 0.3317019 0.9 1 0.8506648 0.9983686 0.9 0 0.9309017 1 0.9 1 0.9309017 0 0.9587785 1 0.9309017 1 0.9587785 0 1 1 0.9587785 1 0.04122149 0 0.06909835 1 0.04122149 1 0.06909829 0 0.1 1 0.06909835 1 0.2793104 0.09999996 0.7206897 0.1 0.6765517 0 0.9 1 0.09999996 0 0.9 0 0.9 1 0.09999996 0 0.9 0 0.7206897 0.09999996 0.2793104 0.1 0.3234483 0 0.09999996 1 0.9 0 0.1 0 0.09999996 1 0.9 0 0.1 0 0.1 1 0.1493352 0.001631438 0.09999996 0 0.1493352 0.6682981 0.1266492 0.006366074 0.1493352 0.001631438 0.1266492 0.6730328 0.1233943 0.01374047 0.1266492 0.006366074 0.1233943 0.6804072 0.1398891 0.02303272 0.1233943 0.01374047 0.1398891 0.6896995 0.1 0 0.1398891 0.02303272 0.1 0 0.06909829 1 0.09999996 1 0.06909835 0 0.04122149 1 0.06909829 1 0.04122149 0 0 1 0.04122149 1 0.9587785 0 0.9309017 1 0.9587785 1 0.9309017 0 0.9 1 0.9309017 1 0.9 0 0.8601109 0.9769672 0.9 1 0.8601109 0.3103005 0.8766057 0.9862595 0.8601109 0.9769672 0.8766057 0.3195928 0.8733508 0.9936339 0.8766057 0.9862595 0.8733508 0.3269672 0.8506648 0.9983686 0.8733508 0.9936339 0.8506648 0.3317019 0.9 1 0.8506648 0.9983686 0.9 0 0.9309017 1 0.9 1 0.9309017 0 0.9587785 1 0.9309017 1 0.9587785 0 1 1 0.9587785 1 0.04122149 0 0.06909835 1 0.04122149 1 0.06909829 0 0.1 1 0.06909835 1 0.2793104 0.09999996 0.7206897 0.1 0.6765517 0 0.9 1 0.1 1 0.09999996 0 0.9 1 0.1 1 0.09999996 0 0.7206897 0.09999996 0.7206897 0.9 0.6765517 1 0.7206897 0.9 0.8601109 0.9769672 0.6765517 1 0.8601109 0.9769672 0.8766057 0.9862595 0.8733508 0.9936339 0.8733508 0.9936339 0.8506648 0.9983686 0.6765517 1 0.6765517 1 0.3234483 1 0.7206897 0.09999996 0.3234483 1 0.3098089 0.9951056 0.2793104 0.9 0.7206897 0.09999996 0.3234483 1 0.2793104 0.9 0.3098089 0.9951056 0.2975047 0.9809017 0.28774 0.9587785 0.28774 0.9587785 0.2814706 0.9309017 0.3098089 0.9951056 0.2814706 0.9309017 0.2793104 0.9 0.3098089 0.9951056 0.2793104 0.9 0.2793104 0.1 0.7206897 0.09999996 0.2793104 0.1 0.1398891 0.6896995 0.1266492 0.6730328 0.1398891 0.6896995 0.1233943 0.6804072 0.1266492 0.6730328 0.1266492 0.6730328 0.1493352 0.6682981 0.3234483 0 0.3234483 0 0.6765517 0 0.7206897 0.09999996 0.6765517 0 0.6901911 0.004894375 0.7206897 0.09999996 0.6901911 0.004894375 0.7024953 0.01909834 0.71226 0.04122149 0.71226 0.04122149 0.7185294 0.06909829 0.6901911 0.004894375 0.7185294 0.06909829 0.7206897 0.09999996 0.6901911 0.004894375 0.8601109 0.9769672 0.8733508 0.9936339 0.6765517 1 0.2793104 0.1 0.1266492 0.6730328 0.3234483 0 0.09999996 1 0.9 1 0.9 0 0.09999996 1 0.9 1 0.9 0 0.1 1 0.1493352 0.6682981 0.1493352 0.001631438 0.1493352 0.6682981 0.1266492 0.6730328 0.1266492 0.006366074 0.1266492 0.6730328 0.1233943 0.6804072 0.1233943 0.01374047 0.1233943 0.6804072 0.1398891 0.6896995 0.1398891 0.02303272 0.1398891 0.6896995 0.09999996 1 0.1 0 0.1 0 0.06909835 0 0.06909829 1 0.06909835 0 0.04122149 0 0.04122149 1 0.04122149 0 0 0 0 1 0.9587785 0 0.9309017 0 0.9309017 1 0.9309017 0 0.9 0 0.9 1 0.9 0 0.8601109 0.3103005 0.8601109 0.9769672 0.8601109 0.3103005 0.8766057 0.3195928 0.8766057 0.9862595 0.8766057 0.3195928 0.8733508 0.3269672 0.8733508 0.9936339 0.8733508 0.3269672 0.8506648 0.3317019 0.8506648 0.9983686 0.8506648 0.3317019 0.9 0 0.9 1 0.9 0 0.9309017 0 0.9309017 1 0.9309017 0 0.9587785 0 0.9587785 1 0.9587785 0 1 0 1 1 0.04122149 0 0.06909829 0 0.06909835 1 0.06909829 0 0.09999996 0 0.1 1 0.2793104 0.09999996 0.2793104 0.9 0.3234483 1 0.2793104 0.9 0.2814706 0.9309017 0.3234483 1 0.2814706 0.9309017 0.28774 0.9587785 0.2975047 0.9809017 0.2975047 0.9809017 0.3098089 0.9951056 0.3234483 1 0.3234483 1 0.6765517 1 0.2793104 0.09999996 0.6765517 1 0.8506648 0.3317019 0.7206897 0.9 0.2793104 0.09999996 0.6765517 1 0.7206897 0.9 0.8506648 0.3317019 0.8733508 0.3269672 0.8766057 0.3195928 0.8766057 0.3195928 0.8601109 0.3103005 0.8506648 0.3317019 0.8601109 0.3103005 0.7206897 0.9 0.8506648 0.3317019 0.7206897 0.9 0.7206897 0.1 0.2793104 0.09999996 0.7206897 0.1 0.7185294 0.06909829 0.7024953 0.01909834 0.7185294 0.06909829 0.71226 0.04122149 0.7024953 0.01909834 0.7024953 0.01909834 0.6901911 0.004894375 0.6765517 0 0.6765517 0 0.3234483 0 0.2793104 0.09999996 0.3234483 0 0.1493352 0.001631438 0.2793104 0.09999996 0.1493352 0.001631438 0.1266492 0.006366074 0.1233943 0.01374047 0.1233943 0.01374047 0.1398891 0.02303272 0.1493352 0.001631438 0.1398891 0.02303272 0.2793104 0.09999996 0.1493352 0.001631438 0.2814706 0.9309017 0.2975047 0.9809017 0.3234483 1 0.7206897 0.1 0.7024953 0.01909834 0.6765517 0 0.2941179 0 0.2941179 5 0 5 0.382353 0.25 0.382353 0.5 0.375 0.5 9.705883 0 9.705883 5 10 5 0.382353 0.75 0.382353 1 0.375 1 0.375 0.5 0.375 0.75 0.125 0.75 0.875 0.5 0.875 0.75 0.625 0.75 0.3780488 0.3625 0.3780488 0.3875 0.6219513 0.3875 0.6176471 0.25 0.625 0.25 0.625 0.5 0.6176471 0.75 0.625 0.75 0.625 1 0.2941179 0 0 0 0 5 9.705883 0 10 0 10 5 0.3780487 0.8625 0.3780487 0.8874999 0.6219513 0.8875 0.9 1 0.1 1 0.09999996 0 0.9 1 0.1 1 0.09999996 0 0.7206897 0.09999996 0.7206897 0.9 0.8601109 0.9769672 0.8601109 0.9769672 0.8766057 0.9862595 0.7185294 0.06909829 0.8766057 0.9862595 0.8733508 0.9936339 0.71226 0.04122149 0.8601109 0.9769672 0.7185294 0.06909829 0.7206897 0.09999996 0.8733508 0.9936339 0.8506648 0.9983686 0.6901911 0.004894375 0.8506648 0.9983686 0.6765517 1 0.6901911 0.004894375 0.8733508 0.9936339 0.6901911 0.004894375 0.7024953 0.01909834 0.6765517 1 0.3234483 1 0.3234483 0 0.3234483 1 0.3098089 0.9951056 0.1493352 0.6682981 0.1493352 0.6682981 0.3098089 0.9951056 0.1266492 0.6730328 0.3098089 0.9951056 0.2975047 0.9809017 0.1266492 0.6730328 0.2975047 0.9809017 0.28774 0.9587785 0.1266492 0.6730328 0.28774 0.9587785 0.2814706 0.9309017 0.1398891 0.6896995 0.2814706 0.9309017 0.2793104 0.9 0.1398891 0.6896995 0.2793104 0.9 0.2793104 0.1 0.1398891 0.6896995 0.1398891 0.6896995 0.1233943 0.6804072 0.28774 0.9587785 0.1233943 0.6804072 0.1266492 0.6730328 0.28774 0.9587785 0.1493352 0.6682981 0.3234483 0 0.3234483 1 0.3234483 0 0.6765517 0 0.6765517 1 0.6765517 0 0.6901911 0.004894375 0.6765517 1 0.7024953 0.01909834 0.71226 0.04122149 0.8733508 0.9936339 0.09999996 1 0.9 1 0.9 0 0.09999996 1 0.9 1 0.9 0 0.1 1 0.1493352 0.6682981 0.1493352 0.001631438 0.1493352 0.6682981 0.1266492 0.6730328 0.1266492 0.006366074 0.1266492 0.6730328 0.1233943 0.6804072 0.1233943 0.01374047 0.1233943 0.6804072 0.1398891 0.6896995 0.1398891 0.02303272 0.1398891 0.6896995 0.09999996 1 0.1 0 0.1 0 0.06909835 0 0.06909829 1 0.06909835 0 0.04122149 0 0.04122149 1 0.04122149 0 0 0 0 1 0.9587785 0 0.9309017 0 0.9309017 1 0.9309017 0 0.9 0 0.9 1 0.9 0 0.8601109 0.3103005 0.8601109 0.9769672 0.8601109 0.3103005 0.8766057 0.3195928 0.8766057 0.9862595 0.8766057 0.3195928 0.8733508 0.3269672 0.8733508 0.9936339 0.8733508 0.3269672 0.8506648 0.3317019 0.8506648 0.9983686 0.8506648 0.3317019 0.9 0 0.9 1 0.9 0 0.9309017 0 0.9309017 1 0.9309017 0 0.9587785 0 0.9587785 1 0.9587785 0 1 0 1 1 0.04122149 0 0.06909829 0 0.06909835 1 0.06909829 0 0.09999996 0 0.1 1 0.2793104 0.09999996 0.2793104 0.9 0.2814706 0.9309017 0.2814706 0.9309017 0.28774 0.9587785 0.1398891 0.02303272 0.28774 0.9587785 0.2975047 0.9809017 0.1233943 0.01374047 0.2814706 0.9309017 0.1398891 0.02303272 0.2793104 0.09999996 0.2975047 0.9809017 0.3098089 0.9951056 0.1493352 0.001631438 0.3098089 0.9951056 0.3234483 1 0.1493352 0.001631438 0.2975047 0.9809017 0.1493352 0.001631438 0.1266492 0.006366074 0.3234483 1 0.6765517 1 0.6765517 0 0.6765517 1 0.8506648 0.3317019 0.6901911 0.004894375 0.6901911 0.004894375 0.8506648 0.3317019 0.7024953 0.01909834 0.8506648 0.3317019 0.8733508 0.3269672 0.7024953 0.01909834 0.8733508 0.3269672 0.8766057 0.3195928 0.7024953 0.01909834 0.8766057 0.3195928 0.8601109 0.3103005 0.7185294 0.06909829 0.8601109 0.3103005 0.7206897 0.9 0.7185294 0.06909829 0.7206897 0.9 0.7206897 0.1 0.7185294 0.06909829 0.7185294 0.06909829 0.71226 0.04122149 0.8766057 0.3195928 0.71226 0.04122149 0.7024953 0.01909834 0.8766057 0.3195928 0.6901911 0.004894375 0.6765517 0 0.6765517 1 0.6765517 0 0.3234483 0 0.3234483 1 0.3234483 0 0.1493352 0.001631438 0.3234483 1 0.1266492 0.006366074 0.1233943 0.01374047 0.2975047 0.9809017 0.9 1 0.1 1 0.09999996 0 0.9 1 0.1 1 0.09999996 0 0.7206897 0.09999996 0.7206897 0.9 0.8601109 0.9769672 0.8601109 0.9769672 0.8766057 0.9862595 0.7185294 0.06909829 0.8766057 0.9862595 0.8733508 0.9936339 0.71226 0.04122149 0.8601109 0.9769672 0.7185294 0.06909829 0.7206897 0.09999996 0.8733508 0.9936339 0.8506648 0.9983686 0.6901911 0.004894375 0.8506648 0.9983686 0.6765517 1 0.6901911 0.004894375 0.8733508 0.9936339 0.6901911 0.004894375 0.7024953 0.01909834 0.6765517 1 0.3234483 1 0.3234483 0 0.3234483 1 0.3098089 0.9951056 0.1493352 0.6682981 0.1493352 0.6682981 0.3098089 0.9951056 0.1266492 0.6730328 0.3098089 0.9951056 0.2975047 0.9809017 0.1266492 0.6730328 0.2975047 0.9809017 0.28774 0.9587785 0.1266492 0.6730328 0.28774 0.9587785 0.2814706 0.9309017 0.1398891 0.6896995 0.2814706 0.9309017 0.2793104 0.9 0.1398891 0.6896995 0.2793104 0.9 0.2793104 0.1 0.1398891 0.6896995 0.1398891 0.6896995 0.1233943 0.6804072 0.28774 0.9587785 0.1233943 0.6804072 0.1266492 0.6730328 0.28774 0.9587785 0.1493352 0.6682981 0.3234483 0 0.3234483 1 0.3234483 0 0.6765517 0 0.6765517 1 0.6765517 0 0.6901911 0.004894375 0.6765517 1 0.7024953 0.01909834 0.71226 0.04122149 0.8733508 0.9936339 0.09999996 1 0.9 1 0.9 0 0.09999996 1 0.9 1 0.9 0 0.1 1 0.1493352 0.6682981 0.1493352 0.001631438 0.1493352 0.6682981 0.1266492 0.6730328 0.1266492 0.006366074 0.1266492 0.6730328 0.1233943 0.6804072 0.1233943 0.01374047 0.1233943 0.6804072 0.1398891 0.6896995 0.1398891 0.02303272 0.1398891 0.6896995 0.09999996 1 0.1 0 0.1 0 0.06909835 0 0.06909829 1 0.06909835 0 0.04122149 0 0.04122149 1 0.04122149 0 0 0 0 1 0.9587785 0 0.9309017 0 0.9309017 1 0.9309017 0 0.9 0 0.9 1 0.9 0 0.8601109 0.3103005 0.8601109 0.9769672 0.8601109 0.3103005 0.8766057 0.3195928 0.8766057 0.9862595 0.8766057 0.3195928 0.8733508 0.3269672 0.8733508 0.9936339 0.8733508 0.3269672 0.8506648 0.3317019 0.8506648 0.9983686 0.8506648 0.3317019 0.9 0 0.9 1 0.9 0 0.9309017 0 0.9309017 1 0.9309017 0 0.9587785 0 0.9587785 1 0.9587785 0 1 0 1 1 0.04122149 0 0.06909829 0 0.06909835 1 0.06909829 0 0.09999996 0 0.1 1 0.2793104 0.09999996 0.2793104 0.9 0.2814706 0.9309017 0.2814706 0.9309017 0.28774 0.9587785 0.1398891 0.02303272 0.28774 0.9587785 0.2975047 0.9809017 0.1233943 0.01374047 0.2814706 0.9309017 0.1398891 0.02303272 0.2793104 0.09999996 0.2975047 0.9809017 0.3098089 0.9951056 0.1493352 0.001631438 0.3098089 0.9951056 0.3234483 1 0.1493352 0.001631438 0.2975047 0.9809017 0.1493352 0.001631438 0.1266492 0.006366074 0.3234483 1 0.6765517 1 0.6765517 0 0.6765517 1 0.8506648 0.3317019 0.6901911 0.004894375 0.6901911 0.004894375 0.8506648 0.3317019 0.7024953 0.01909834 0.8506648 0.3317019 0.8733508 0.3269672 0.7024953 0.01909834 0.8733508 0.3269672 0.8766057 0.3195928 0.7024953 0.01909834 0.8766057 0.3195928 0.8601109 0.3103005 0.7185294 0.06909829 0.8601109 0.3103005 0.7206897 0.9 0.7185294 0.06909829 0.7206897 0.9 0.7206897 0.1 0.7185294 0.06909829 0.7185294 0.06909829 0.71226 0.04122149 0.8766057 0.3195928 0.71226 0.04122149 0.7024953 0.01909834 0.8766057 0.3195928 0.6901911 0.004894375 0.6765517 0 0.6765517 1 0.6765517 0 0.3234483 0 0.3234483 1 0.3234483 0 0.1493352 0.001631438 0.3234483 1 0.1266492 0.006366074 0.1233943 0.01374047 0.2975047 0.9809017 0.9 1 0.1 1 0.09999996 0 0.9 1 0.1 1 0.09999996 0 0.7206897 0.09999996 0.7206897 0.9 0.8601109 0.9769672 0.8601109 0.9769672 0.8766057 0.9862595 0.7185294 0.06909829 0.8766057 0.9862595 0.8733508 0.9936339 0.71226 0.04122149 0.8601109 0.9769672 0.7185294 0.06909829 0.7206897 0.09999996 0.8733508 0.9936339 0.8506648 0.9983686 0.6901911 0.004894375 0.8506648 0.9983686 0.6765517 1 0.6901911 0.004894375 0.8733508 0.9936339 0.6901911 0.004894375 0.7024953 0.01909834 0.6765517 1 0.3234483 1 0.3234483 0 0.3234483 1 0.3098089 0.9951056 0.1493352 0.6682981 0.1493352 0.6682981 0.3098089 0.9951056 0.1266492 0.6730328 0.3098089 0.9951056 0.2975047 0.9809017 0.1266492 0.6730328 0.2975047 0.9809017 0.28774 0.9587785 0.1266492 0.6730328 0.28774 0.9587785 0.2814706 0.9309017 0.1398891 0.6896995 0.2814706 0.9309017 0.2793104 0.9 0.1398891 0.6896995 0.2793104 0.9 0.2793104 0.1 0.1398891 0.6896995 0.1398891 0.6896995 0.1233943 0.6804072 0.28774 0.9587785 0.1233943 0.6804072 0.1266492 0.6730328 0.28774 0.9587785 0.1493352 0.6682981 0.3234483 0 0.3234483 1 0.3234483 0 0.6765517 0 0.6765517 1 0.6765517 0 0.6901911 0.004894375 0.6765517 1 0.7024953 0.01909834 0.71226 0.04122149 0.8733508 0.9936339 0.09999996 1 0.9 1 0.9 0 0.09999996 1 0.9 1 0.9 0 0.1 1 0.1493352 0.6682981 0.1493352 0.001631438 0.1493352 0.6682981 0.1266492 0.6730328 0.1266492 0.006366074 0.1266492 0.6730328 0.1233943 0.6804072 0.1233943 0.01374047 0.1233943 0.6804072 0.1398891 0.6896995 0.1398891 0.02303272 0.1398891 0.6896995 0.09999996 1 0.1 0 0.1 0 0.06909835 0 0.06909829 1 0.06909835 0 0.04122149 0 0.04122149 1 0.04122149 0 0 0 0 1 0.9587785 0 0.9309017 0 0.9309017 1 0.9309017 0 0.9 0 0.9 1 0.9 0 0.8601109 0.3103005 0.8601109 0.9769672 0.8601109 0.3103005 0.8766057 0.3195928 0.8766057 0.9862595 0.8766057 0.3195928 0.8733508 0.3269672 0.8733508 0.9936339 0.8733508 0.3269672 0.8506648 0.3317019 0.8506648 0.9983686 0.8506648 0.3317019 0.9 0 0.9 1 0.9 0 0.9309017 0 0.9309017 1 0.9309017 0 0.9587785 0 0.9587785 1 0.9587785 0 1 0 1 1 0.04122149 0 0.06909829 0 0.06909835 1 0.06909829 0 0.09999996 0 0.1 1 0.2793104 0.09999996 0.2793104 0.9 0.2814706 0.9309017 0.2814706 0.9309017 0.28774 0.9587785 0.1398891 0.02303272 0.28774 0.9587785 0.2975047 0.9809017 0.1233943 0.01374047 0.2814706 0.9309017 0.1398891 0.02303272 0.2793104 0.09999996 0.2975047 0.9809017 0.3098089 0.9951056 0.1493352 0.001631438 0.3098089 0.9951056 0.3234483 1 0.1493352 0.001631438 0.2975047 0.9809017 0.1493352 0.001631438 0.1266492 0.006366074 0.3234483 1 0.6765517 1 0.6765517 0 0.6765517 1 0.8506648 0.3317019 0.6901911 0.004894375 0.6901911 0.004894375 0.8506648 0.3317019 0.7024953 0.01909834 0.8506648 0.3317019 0.8733508 0.3269672 0.7024953 0.01909834 0.8733508 0.3269672 0.8766057 0.3195928 0.7024953 0.01909834 0.8766057 0.3195928 0.8601109 0.3103005 0.7185294 0.06909829 0.8601109 0.3103005 0.7206897 0.9 0.7185294 0.06909829 0.7206897 0.9 0.7206897 0.1 0.7185294 0.06909829 0.7185294 0.06909829 0.71226 0.04122149 0.8766057 0.3195928 0.71226 0.04122149 0.7024953 0.01909834 0.8766057 0.3195928 0.6901911 0.004894375 0.6765517 0 0.6765517 1 0.6765517 0 0.3234483 0 0.3234483 1 0.3234483 0 0.1493352 0.001631438 0.3234483 1 0.1266492 0.006366074 0.1233943 0.01374047 0.2975047 0.9809017 0.9 1 0.1 1 0.09999996 0 0.9 1 0.1 1 0.09999996 0 0.7206897 0.09999996 0.7206897 0.9 0.8601109 0.9769672 0.8601109 0.9769672 0.8766057 0.9862595 0.7185294 0.06909829 0.8766057 0.9862595 0.8733508 0.9936339 0.71226 0.04122149 0.8601109 0.9769672 0.7185294 0.06909829 0.7206897 0.09999996 0.8733508 0.9936339 0.8506648 0.9983686 0.6901911 0.004894375 0.8506648 0.9983686 0.6765517 1 0.6901911 0.004894375 0.8733508 0.9936339 0.6901911 0.004894375 0.7024953 0.01909834 0.6765517 1 0.3234483 1 0.3234483 0 0.3234483 1 0.3098089 0.9951056 0.1493352 0.6682981 0.1493352 0.6682981 0.3098089 0.9951056 0.1266492 0.6730328 0.3098089 0.9951056 0.2975047 0.9809017 0.1266492 0.6730328 0.2975047 0.9809017 0.28774 0.9587785 0.1266492 0.6730328 0.28774 0.9587785 0.2814706 0.9309017 0.1398891 0.6896995 0.2814706 0.9309017 0.2793104 0.9 0.1398891 0.6896995 0.2793104 0.9 0.2793104 0.1 0.1398891 0.6896995 0.1398891 0.6896995 0.1233943 0.6804072 0.28774 0.9587785 0.1233943 0.6804072 0.1266492 0.6730328 0.28774 0.9587785 0.1493352 0.6682981 0.3234483 0 0.3234483 1 0.3234483 0 0.6765517 0 0.6765517 1 0.6765517 0 0.6901911 0.004894375 0.6765517 1 0.7024953 0.01909834 0.71226 0.04122149 0.8733508 0.9936339 0.09999996 1 0.9 1 0.9 0 0.09999996 1 0.9 1 0.9 0 0.1 1 0.1493352 0.6682981 0.1493352 0.001631438 0.1493352 0.6682981 0.1266492 0.6730328 0.1266492 0.006366074 0.1266492 0.6730328 0.1233943 0.6804072 0.1233943 0.01374047 0.1233943 0.6804072 0.1398891 0.6896995 0.1398891 0.02303272 0.1398891 0.6896995 0.09999996 1 0.1 0 0.1 0 0.06909835 0 0.06909829 1 0.06909835 0 0.04122149 0 0.04122149 1 0.04122149 0 0 0 0 1 0.9587785 0 0.9309017 0 0.9309017 1 0.9309017 0 0.9 0 0.9 1 0.9 0 0.8601109 0.3103005 0.8601109 0.9769672 0.8601109 0.3103005 0.8766057 0.3195928 0.8766057 0.9862595 0.8766057 0.3195928 0.8733508 0.3269672 0.8733508 0.9936339 0.8733508 0.3269672 0.8506648 0.3317019 0.8506648 0.9983686 0.8506648 0.3317019 0.9 0 0.9 1 0.9 0 0.9309017 0 0.9309017 1 0.9309017 0 0.9587785 0 0.9587785 1 0.9587785 0 1 0 1 1 0.04122149 0 0.06909829 0 0.06909835 1 0.06909829 0 0.09999996 0 0.1 1 0.2793104 0.09999996 0.2793104 0.9 0.2814706 0.9309017 0.2814706 0.9309017 0.28774 0.9587785 0.1398891 0.02303272 0.28774 0.9587785 0.2975047 0.9809017 0.1233943 0.01374047 0.2814706 0.9309017 0.1398891 0.02303272 0.2793104 0.09999996 0.2975047 0.9809017 0.3098089 0.9951056 0.1493352 0.001631438 0.3098089 0.9951056 0.3234483 1 0.1493352 0.001631438 0.2975047 0.9809017 0.1493352 0.001631438 0.1266492 0.006366074 0.3234483 1 0.6765517 1 0.6765517 0 0.6765517 1 0.8506648 0.3317019 0.6901911 0.004894375 0.6901911 0.004894375 0.8506648 0.3317019 0.7024953 0.01909834 0.8506648 0.3317019 0.8733508 0.3269672 0.7024953 0.01909834 0.8733508 0.3269672 0.8766057 0.3195928 0.7024953 0.01909834 0.8766057 0.3195928 0.8601109 0.3103005 0.7185294 0.06909829 0.8601109 0.3103005 0.7206897 0.9 0.7185294 0.06909829 0.7206897 0.9 0.7206897 0.1 0.7185294 0.06909829 0.7185294 0.06909829 0.71226 0.04122149 0.8766057 0.3195928 0.71226 0.04122149 0.7024953 0.01909834 0.8766057 0.3195928 0.6901911 0.004894375 0.6765517 0 0.6765517 1 0.6765517 0 0.3234483 0 0.3234483 1 0.3234483 0 0.1493352 0.001631438 0.3234483 1 0.1266492 0.006366074 0.1233943 0.01374047 0.2975047 0.9809017 0.9 1 0.1 1 0.09999996 0 0.9 1 0.1 1 0.09999996 0 0.7206897 0.09999996 0.7206897 0.9 0.8601109 0.9769672 0.8601109 0.9769672 0.8766057 0.9862595 0.7185294 0.06909829 0.8766057 0.9862595 0.8733508 0.9936339 0.71226 0.04122149 0.8601109 0.9769672 0.7185294 0.06909829 0.7206897 0.09999996 0.8733508 0.9936339 0.8506648 0.9983686 0.6901911 0.004894375 0.8506648 0.9983686 0.6765517 1 0.6901911 0.004894375 0.8733508 0.9936339 0.6901911 0.004894375 0.7024953 0.01909834 0.6765517 1 0.3234483 1 0.3234483 0 0.3234483 1 0.3098089 0.9951056 0.1493352 0.6682981 0.1493352 0.6682981 0.3098089 0.9951056 0.1266492 0.6730328 0.3098089 0.9951056 0.2975047 0.9809017 0.1266492 0.6730328 0.2975047 0.9809017 0.28774 0.9587785 0.1266492 0.6730328 0.28774 0.9587785 0.2814706 0.9309017 0.1398891 0.6896995 0.2814706 0.9309017 0.2793104 0.9 0.1398891 0.6896995 0.2793104 0.9 0.2793104 0.1 0.1398891 0.6896995 0.1398891 0.6896995 0.1233943 0.6804072 0.28774 0.9587785 0.1233943 0.6804072 0.1266492 0.6730328 0.28774 0.9587785 0.1493352 0.6682981 0.3234483 0 0.3234483 1 0.3234483 0 0.6765517 0 0.6765517 1 0.6765517 0 0.6901911 0.004894375 0.6765517 1 0.7024953 0.01909834 0.71226 0.04122149 0.8733508 0.9936339 0.09999996 1 0.9 1 0.9 0 0.09999996 1 0.9 1 0.9 0 0.1 1 0.1493352 0.6682981 0.1493352 0.001631438 0.1493352 0.6682981 0.1266492 0.6730328 0.1266492 0.006366074 0.1266492 0.6730328 0.1233943 0.6804072 0.1233943 0.01374047 0.1233943 0.6804072 0.1398891 0.6896995 0.1398891 0.02303272 0.1398891 0.6896995 0.09999996 1 0.1 0 0.1 0 0.06909835 0 0.06909829 1 0.06909835 0 0.04122149 0 0.04122149 1 0.04122149 0 0 0 0 1 0.9587785 0 0.9309017 0 0.9309017 1 0.9309017 0 0.9 0 0.9 1 0.9 0 0.8601109 0.3103005 0.8601109 0.9769672 0.8601109 0.3103005 0.8766057 0.3195928 0.8766057 0.9862595 0.8766057 0.3195928 0.8733508 0.3269672 0.8733508 0.9936339 0.8733508 0.3269672 0.8506648 0.3317019 0.8506648 0.9983686 0.8506648 0.3317019 0.9 0 0.9 1 0.9 0 0.9309017 0 0.9309017 1 0.9309017 0 0.9587785 0 0.9587785 1 0.9587785 0 1 0 1 1 0.04122149 0 0.06909829 0 0.06909835 1 0.06909829 0 0.09999996 0 0.1 1 0.2793104 0.09999996 0.2793104 0.9 0.2814706 0.9309017 0.2814706 0.9309017 0.28774 0.9587785 0.1398891 0.02303272 0.28774 0.9587785 0.2975047 0.9809017 0.1233943 0.01374047 0.2814706 0.9309017 0.1398891 0.02303272 0.2793104 0.09999996 0.2975047 0.9809017 0.3098089 0.9951056 0.1493352 0.001631438 0.3098089 0.9951056 0.3234483 1 0.1493352 0.001631438 0.2975047 0.9809017 0.1493352 0.001631438 0.1266492 0.006366074 0.3234483 1 0.6765517 1 0.6765517 0 0.6765517 1 0.8506648 0.3317019 0.6901911 0.004894375 0.6901911 0.004894375 0.8506648 0.3317019 0.7024953 0.01909834 0.8506648 0.3317019 0.8733508 0.3269672 0.7024953 0.01909834 0.8733508 0.3269672 0.8766057 0.3195928 0.7024953 0.01909834 0.8766057 0.3195928 0.8601109 0.3103005 0.7185294 0.06909829 0.8601109 0.3103005 0.7206897 0.9 0.7185294 0.06909829 0.7206897 0.9 0.7206897 0.1 0.7185294 0.06909829 0.7185294 0.06909829 0.71226 0.04122149 0.8766057 0.3195928 0.71226 0.04122149 0.7024953 0.01909834 0.8766057 0.3195928 0.6901911 0.004894375 0.6765517 0 0.6765517 1 0.6765517 0 0.3234483 0 0.3234483 1 0.3234483 0 0.1493352 0.001631438 0.3234483 1 0.1266492 0.006366074 0.1233943 0.01374047 0.2975047 0.9809017 0.9 1 0.1 1 0.09999996 0 0.9 1 0.1 1 0.09999996 0 0.7206897 0.09999996 0.7206897 0.9 0.6765517 1 0.7206897 0.9 0.8601109 0.9769672 0.6765517 1 0.8601109 0.9769672 0.8766057 0.9862595 0.8733508 0.9936339 0.8733508 0.9936339 0.8506648 0.9983686 0.6765517 1 0.6765517 1 0.3234483 1 0.7206897 0.09999996 0.3234483 1 0.3098089 0.9951056 0.2793104 0.9 0.7206897 0.09999996 0.3234483 1 0.2793104 0.9 0.3098089 0.9951056 0.2975047 0.9809017 0.2793104 0.9 0.2975047 0.9809017 0.28774 0.9587785 0.2793104 0.9 0.28774 0.9587785 0.2814706 0.9309017 0.2793104 0.9 0.2793104 0.9 0.2793104 0.1 0.7206897 0.09999996 0.2793104 0.1 0.1398891 0.6896995 0.1266492 0.6730328 0.1398891 0.6896995 0.1233943 0.6804072 0.1266492 0.6730328 0.1266492 0.6730328 0.1493352 0.6682981 0.3234483 0 0.3234483 0 0.6765517 0 0.7206897 0.09999996 0.6765517 0 0.6901911 0.004894375 0.7206897 0.09999996 0.6901911 0.004894375 0.7024953 0.01909834 0.7206897 0.09999996 0.7024953 0.01909834 0.71226 0.04122149 0.7206897 0.09999996 0.71226 0.04122149 0.7185294 0.06909829 0.7206897 0.09999996 0.8601109 0.9769672 0.8733508 0.9936339 0.6765517 1 0.2793104 0.1 0.1266492 0.6730328 0.3234483 0 0.09999996 1 0.9 1 0.9 0 0.09999996 1 0.9 1 0.9 0 0.1 1 0.1493352 0.6682981 0.1493352 0.001631438 0.1493352 0.6682981 0.1266492 0.6730328 0.1266492 0.006366074 0.1266492 0.6730328 0.1233943 0.6804072 0.1233943 0.01374047 0.1233943 0.6804072 0.1398891 0.6896995 0.1398891 0.02303272 0.1398891 0.6896995 0.09999996 1 0.1 0 0.1 0 0.06909835 0 0.06909829 1 0.06909835 0 0.04122149 0 0.04122149 1 0.04122149 0 0 0 0 1 0.9587785 0 0.9309017 0 0.9309017 1 0.9309017 0 0.9 0 0.9 1 0.9 0 0.8601109 0.3103005 0.8601109 0.9769672 0.8601109 0.3103005 0.8766057 0.3195928 0.8766057 0.9862595 0.8766057 0.3195928 0.8733508 0.3269672 0.8733508 0.9936339 0.8733508 0.3269672 0.8506648 0.3317019 0.8506648 0.9983686 0.8506648 0.3317019 0.9 0 0.9 1 0.9 0 0.9309017 0 0.9309017 1 0.9309017 0 0.9587785 0 0.9587785 1 0.9587785 0 1 0 1 1 0.04122149 0 0.06909829 0 0.06909835 1 0.06909829 0 0.09999996 0 0.1 1 0.2793104 0.09999996 0.2793104 0.9 0.3234483 1 0.2793104 0.9 0.2814706 0.9309017 0.3234483 1 0.2814706 0.9309017 0.28774 0.9587785 0.2975047 0.9809017 0.2975047 0.9809017 0.3098089 0.9951056 0.3234483 1 0.3234483 1 0.6765517 1 0.2793104 0.09999996 0.6765517 1 0.8506648 0.3317019 0.7206897 0.9 0.2793104 0.09999996 0.6765517 1 0.7206897 0.9 0.8506648 0.3317019 0.8733508 0.3269672 0.7206897 0.9 0.8733508 0.3269672 0.8766057 0.3195928 0.7206897 0.9 0.8766057 0.3195928 0.8601109 0.3103005 0.7206897 0.9 0.7206897 0.9 0.7206897 0.1 0.2793104 0.09999996 0.7206897 0.1 0.7185294 0.06909829 0.7024953 0.01909834 0.7185294 0.06909829 0.71226 0.04122149 0.7024953 0.01909834 0.7024953 0.01909834 0.6901911 0.004894375 0.6765517 0 0.6765517 0 0.3234483 0 0.2793104 0.09999996 0.3234483 0 0.1493352 0.001631438 0.2793104 0.09999996 0.1493352 0.001631438 0.1266492 0.006366074 0.2793104 0.09999996 0.1266492 0.006366074 0.1233943 0.01374047 0.2793104 0.09999996 0.1233943 0.01374047 0.1398891 0.02303272 0.2793104 0.09999996 0.2814706 0.9309017 0.2975047 0.9809017 0.3234483 1 0.7206897 0.1 0.7024953 0.01909834 0.6765517 0 0.9 1 0.1 1 0.09999996 0 0.9 1 0.1 1 0.09999996 0 0.7206897 0.09999996 0.7206897 0.9 0.6765517 1 0.7206897 0.9 0.8601109 0.9769672 0.6765517 1 0.8601109 0.9769672 0.8766057 0.9862595 0.8733508 0.9936339 0.8733508 0.9936339 0.8506648 0.9983686 0.6765517 1 0.6765517 1 0.3234483 1 0.7206897 0.09999996 0.3234483 1 0.3098089 0.9951056 0.2793104 0.9 0.7206897 0.09999996 0.3234483 1 0.2793104 0.9 0.3098089 0.9951056 0.2975047 0.9809017 0.2793104 0.9 0.2975047 0.9809017 0.28774 0.9587785 0.2793104 0.9 0.28774 0.9587785 0.2814706 0.9309017 0.2793104 0.9 0.2793104 0.9 0.2793104 0.1 0.7206897 0.09999996 0.2793104 0.1 0.1398891 0.6896995 0.1493352 0.6682981 0.1493352 0.6682981 0.1398891 0.6896995 0.1233943 0.6804072 0.1233943 0.6804072 0.1266492 0.6730328 0.1493352 0.6682981 0.1493352 0.6682981 0.3234483 0 0.2793104 0.1 0.3234483 0 0.6765517 0 0.7206897 0.09999996 0.6765517 0 0.6901911 0.004894375 0.7206897 0.09999996 0.6901911 0.004894375 0.7024953 0.01909834 0.71226 0.04122149 0.71226 0.04122149 0.7185294 0.06909829 0.6901911 0.004894375 0.7185294 0.06909829 0.7206897 0.09999996 0.6901911 0.004894375 0.8601109 0.9769672 0.8733508 0.9936339 0.6765517 1 0.09999996 1 0.9 1 0.9 0 0.09999996 1 0.9 1 0.9 0 0.1 1 0.1493352 0.6682981 0.1493352 0.001631438 0.1493352 0.6682981 0.1266492 0.6730328 0.1266492 0.006366074 0.1266492 0.6730328 0.1233943 0.6804072 0.1233943 0.01374047 0.1233943 0.6804072 0.1398891 0.6896995 0.1398891 0.02303272 0.1398891 0.6896995 0.09999996 1 0.1 0 0.1 0 0.06909835 0 0.06909829 1 0.06909835 0 0.04122149 0 0.04122149 1 0.04122149 0 0 0 0 1 0.9587785 0 0.9309017 0 0.9309017 1 0.9309017 0 0.9 0 0.9 1 0.9 0 0.8601109 0.3103005 0.8601109 0.9769672 0.8601109 0.3103005 0.8766057 0.3195928 0.8766057 0.9862595 0.8766057 0.3195928 0.8733508 0.3269672 0.8733508 0.9936339 0.8733508 0.3269672 0.8506648 0.3317019 0.8506648 0.9983686 0.8506648 0.3317019 0.9 0 0.9 1 0.9 0 0.9309017 0 0.9309017 1 0.9309017 0 0.9587785 0 0.9587785 1 0.9587785 0 1 0 1 1 0.04122149 0 0.06909829 0 0.06909835 1 0.06909829 0 0.09999996 0 0.1 1 0.2793104 0.09999996 0.2793104 0.9 0.3234483 1 0.2793104 0.9 0.2814706 0.9309017 0.3234483 1 0.2814706 0.9309017 0.28774 0.9587785 0.2975047 0.9809017 0.2975047 0.9809017 0.3098089 0.9951056 0.3234483 1 0.3234483 1 0.6765517 1 0.2793104 0.09999996 0.6765517 1 0.8506648 0.3317019 0.7206897 0.9 0.2793104 0.09999996 0.6765517 1 0.7206897 0.9 0.8506648 0.3317019 0.8733508 0.3269672 0.7206897 0.9 0.8733508 0.3269672 0.8766057 0.3195928 0.7206897 0.9 0.8766057 0.3195928 0.8601109 0.3103005 0.7206897 0.9 0.7206897 0.9 0.7206897 0.1 0.2793104 0.09999996 0.7206897 0.1 0.7185294 0.06909829 0.6901911 0.004894375 0.6901911 0.004894375 0.7185294 0.06909829 0.71226 0.04122149 0.71226 0.04122149 0.7024953 0.01909834 0.6901911 0.004894375 0.6901911 0.004894375 0.6765517 0 0.7206897 0.1 0.6765517 0 0.3234483 0 0.2793104 0.09999996 0.3234483 0 0.1493352 0.001631438 0.2793104 0.09999996 0.1493352 0.001631438 0.1266492 0.006366074 0.1233943 0.01374047 0.1233943 0.01374047 0.1398891 0.02303272 0.1493352 0.001631438 0.1398891 0.02303272 0.2793104 0.09999996 0.1493352 0.001631438 0.2814706 0.9309017 0.2975047 0.9809017 0.3234483 1 0.9 1 0.1 1 0.09999996 0 0.9 1 0.1 1 0.09999996 0 0.7206897 0.09999996 0.7206897 0.9 0.6765517 1 0.7206897 0.9 0.8601109 0.9769672 0.6765517 1 0.8601109 0.9769672 0.8766057 0.9862595 0.8506648 0.9983686 0.8766057 0.9862595 0.8733508 0.9936339 0.8506648 0.9983686 0.8506648 0.9983686 0.6765517 1 0.8601109 0.9769672 0.6765517 1 0.3234483 1 0.7206897 0.09999996 0.3234483 1 0.3098089 0.9951056 0.2793104 0.9 0.7206897 0.09999996 0.3234483 1 0.2793104 0.9 0.3098089 0.9951056 0.2975047 0.9809017 0.28774 0.9587785 0.28774 0.9587785 0.2814706 0.9309017 0.3098089 0.9951056 0.2814706 0.9309017 0.2793104 0.9 0.3098089 0.9951056 0.2793104 0.9 0.2793104 0.1 0.7206897 0.09999996 0.2793104 0.1 0.1398891 0.6896995 0.1493352 0.6682981 0.1493352 0.6682981 0.1398891 0.6896995 0.1233943 0.6804072 0.1233943 0.6804072 0.1266492 0.6730328 0.1493352 0.6682981 0.1493352 0.6682981 0.3234483 0 0.2793104 0.1 0.3234483 0 0.6765517 0 0.7206897 0.09999996 0.6765517 0 0.6901911 0.004894375 0.7206897 0.09999996 0.6901911 0.004894375 0.7024953 0.01909834 0.71226 0.04122149 0.71226 0.04122149 0.7185294 0.06909829 0.6901911 0.004894375 0.7185294 0.06909829 0.7206897 0.09999996 0.6901911 0.004894375 0.09999996 1 0.9 1 0.9 0 0.09999996 1 0.9 1 0.9 0 0.1 1 0.1493352 0.6682981 0.1493352 0.001631438 0.1493352 0.6682981 0.1266492 0.6730328 0.1266492 0.006366074 0.1266492 0.6730328 0.1233943 0.6804072 0.1233943 0.01374047 0.1233943 0.6804072 0.1398891 0.6896995 0.1398891 0.02303272 0.1398891 0.6896995 0.09999996 1 0.1 0 0.1 0 0.06909835 0 0.06909829 1 0.06909835 0 0.04122149 0 0.04122149 1 0.04122149 0 0 0 0 1 0.9587785 0 0.9309017 0 0.9309017 1 0.9309017 0 0.9 0 0.9 1 0.9 0 0.8601109 0.3103005 0.8601109 0.9769672 0.8601109 0.3103005 0.8766057 0.3195928 0.8766057 0.9862595 0.8766057 0.3195928 0.8733508 0.3269672 0.8733508 0.9936339 0.8733508 0.3269672 0.8506648 0.3317019 0.8506648 0.9983686 0.8506648 0.3317019 0.9 0 0.9 1 0.9 0 0.9309017 0 0.9309017 1 0.9309017 0 0.9587785 0 0.9587785 1 0.9587785 0 1 0 1 1 0.04122149 0 0.06909829 0 0.06909835 1 0.06909829 0 0.09999996 0 0.1 1 0.2793104 0.09999996 0.2793104 0.9 0.3234483 1 0.2793104 0.9 0.2814706 0.9309017 0.3234483 1 0.2814706 0.9309017 0.28774 0.9587785 0.3098089 0.9951056 0.28774 0.9587785 0.2975047 0.9809017 0.3098089 0.9951056 0.3098089 0.9951056 0.3234483 1 0.2814706 0.9309017 0.3234483 1 0.6765517 1 0.2793104 0.09999996 0.6765517 1 0.8506648 0.3317019 0.7206897 0.9 0.2793104 0.09999996 0.6765517 1 0.7206897 0.9 0.8506648 0.3317019 0.8733508 0.3269672 0.8766057 0.3195928 0.8766057 0.3195928 0.8601109 0.3103005 0.8506648 0.3317019 0.8601109 0.3103005 0.7206897 0.9 0.8506648 0.3317019 0.7206897 0.9 0.7206897 0.1 0.2793104 0.09999996 0.7206897 0.1 0.7185294 0.06909829 0.6901911 0.004894375 0.6901911 0.004894375 0.7185294 0.06909829 0.71226 0.04122149 0.71226 0.04122149 0.7024953 0.01909834 0.6901911 0.004894375 0.6901911 0.004894375 0.6765517 0 0.7206897 0.1 0.6765517 0 0.3234483 0 0.2793104 0.09999996 0.3234483 0 0.1493352 0.001631438 0.2793104 0.09999996 0.1493352 0.001631438 0.1266492 0.006366074 0.1233943 0.01374047 0.1233943 0.01374047 0.1398891 0.02303272 0.1493352 0.001631438 0.1398891 0.02303272 0.2793104 0.09999996 0.1493352 0.001631438</float_array>
          <technique_common>
            <accessor source="#Cube_034-mesh-map-0-array" count="2556" stride="2">
              <param name="S" type="float"/>
              <param name="T" type="float"/>
            </accessor>
          </technique_common>
        </source>
        <vertices id="Cube_034-mesh-vertices">
          <input semantic="POSITION" source="#Cube_034-mesh-positions"/>
        </vertices>
        <triangles material="Material-material" count="828">
          <input semantic="VERTEX" source="#Cube_034-mesh-vertices" offset="0"/>
          <input semantic="NORMAL" source="#Cube_034-mesh-normals" offset="1"/>
          <input semantic="TEXCOORD" source="#Cube_034-mesh-map-0" offset="2" set="0"/>
          <p>30 0 0 0 0 1 25 0 2 42 1 3 24 1 4 37 1 5 31 2 6 6 2 7 7 2 8 6 3 9 12 3 10 1 3 11 18 4 12 36 4 13 13 4 14 7 5 15 2 5 16 0 5 17 11 6 18 3 6 19 2 6 20 10 7 21 4 7 22 3 7 23 9 8 24 5 8 25 4 8 26 8 9 27 1 9 28 5 9 29 13 10 30 20 10 31 18 10 32 17 11 33 21 11 34 20 11 35 16 12 36 22 12 37 21 12 38 15 13 39 23 13 40 22 13 41 14 14 42 19 14 43 23 14 44 37 15 45 44 15 46 42 15 47 41 16 48 45 16 49 44 16 50 40 17 51 46 17 52 45 17 53 39 18 54 47 18 55 46 18 56 38 19 57 43 19 58 47 19 59 25 20 60 32 20 61 30 20 62 29 21 63 33 21 64 32 21 65 28 22 66 34 22 67 33 22 68 27 23 69 35 23 70 34 23 71 26 24 72 31 24 73 35 24 74 1 25 75 24 25 76 25 25 77 94 29 114 64 29 115 89 29 116 106 1 117 88 1 118 101 1 119 98 4 120 99 4 121 109 4 122 70 3 123 76 3 124 65 3 125 82 30 126 100 30 127 77 30 128 71 31 129 66 31 130 64 31 131 75 32 132 67 32 133 66 32 134 74 33 135 68 33 136 67 33 137 73 34 138 69 34 139 68 34 140 72 35 141 65 35 142 69 35 143 77 36 144 84 36 145 82 36 146 81 37 147 85 37 148 84 37 149 80 38 150 86 38 151 85 38 152 79 39 153 87 39 154 86 39 155 78 40 156 83 40 157 87 40 158 101 41 159 108 41 160 106 41 161 105 42 162 109 42 163 108 42 164 104 43 165 110 43 166 109 43 167 103 44 168 111 44 169 110 44 170 102 45 171 107 45 172 111 45 173 89 46 174 96 46 175 94 46 176 93 47 177 97 47 178 96 47 179 92 48 180 98 48 181 97 48 182 91 49 183 99 49 184 98 49 185 90 50 186 95 50 187 99 50 188 68 0 189 69 0 190 79 0 191 142 51 192 112 51 193 137 51 194 154 1 195 136 1 196 149 1 197 146 4 198 147 4 199 157 4 200 118 3 201 124 3 202 113 3 203 130 52 204 148 52 205 125 52 206 119 53 207 114 53 208 112 53 209 123 54 210 115 54 211 114 54 212 122 55 213 116 55 214 115 55 215 121 56 216 117 56 217 116 56 218 120 57 219 113 57 220 117 57 221 125 58 222 132 58 223 130 58 224 129 59 225 133 59 226 132 59 227 128 60 228 134 60 229 133 60 230 127 61 231 135 61 232 134 61 233 126 62 234 131 62 235 135 62 236 149 63 237 156 63 238 154 63 239 153 64 240 157 64 241 156 64 242 152 65 243 158 65 244 157 65 245 151 66 246 159 66 247 158 66 248 150 67 249 155 67 250 159 67 251 137 68 252 144 68 253 142 68 254 141 69 255 145 69 256 144 69 257 140 70 258 146 70 259 145 70 260 139 71 261 147 71 262 146 71 263 138 72 264 143 72 265 147 72 266 116 0 267 117 0 268 127 0 269 190 73 270 160 73 271 185 73 272 202 1 273 184 1 274 197 1 275 194 4 276 195 4 277 205 4 278 166 3 279 172 3 280 161 3 281 178 74 282 196 74 283 173 74 284 167 75 285 162 75 286 160 75 287 171 76 288 163 76 289 162 76 290 170 77 291 164 77 292 163 77 293 169 78 294 165 78 295 164 78 296 168 79 297 161 79 298 165 79 299 173 80 300 180 80 301 178 80 302 177 81 303 181 81 304 180 81 305 176 60 306 182 60 307 181 60 308 175 82 309 183 82 310 182 82 311 174 83 312 179 83 313 183 83 314 197 63 315 204 63 316 202 63 317 201 84 318 205 84 319 204 84 320 200 85 321 206 85 322 205 85 323 199 66 324 207 66 325 206 66 326 198 86 327 203 86 328 207 86 329 185 87 330 192 87 331 190 87 332 189 88 333 193 88 334 192 88 335 188 89 336 194 89 337 193 89 338 187 90 339 195 90 340 194 90 341 186 91 342 191 91 343 195 91 344 164 0 345 165 0 346 175 0 347 238 92 348 208 92 349 233 92 350 250 1 351 232 1 352 245 1 353 242 4 354 243 4 355 253 4 356 214 3 357 220 3 358 209 3 359 226 93 360 244 93 361 221 93 362 215 94 363 210 94 364 208 94 365 219 95 366 211 95 367 210 95 368 218 96 369 212 96 370 211 96 371 217 97 372 213 97 373 212 97 374 216 98 375 209 98 376 213 98 377 221 99 378 228 99 379 226 99 380 225 100 381 229 100 382 228 100 383 224 101 384 230 101 385 229 101 386 223 102 387 231 102 388 230 102 389 222 103 390 227 103 391 231 103 392 245 104 393 252 104 394 250 104 395 249 105 396 253 105 397 252 105 398 248 106 399 254 106 400 253 106 401 247 107 402 255 107 403 254 107 404 246 67 405 251 67 406 255 67 407 233 108 408 240 108 409 238 108 410 237 88 411 241 88 412 240 88 413 236 109 414 242 109 415 241 109 416 235 110 417 243 110 418 242 110 419 234 111 420 239 111 421 243 111 422 212 0 423 213 0 424 223 0 425 286 92 426 256 92 427 281 92 428 298 1 429 280 1 430 293 1 431 290 4 432 291 4 433 301 4 434 262 3 435 268 3 436 257 3 437 274 93 438 292 93 439 269 93 440 263 94 441 258 94 442 256 94 443 267 95 444 259 95 445 258 95 446 266 112 447 260 112 448 259 112 449 265 97 450 261 97 451 260 97 452 264 98 453 257 98 454 261 98 455 269 99 456 276 99 457 274 99 458 273 100 459 277 100 460 276 100 461 272 113 462 278 113 463 277 113 464 271 102 465 279 102 466 278 102 467 270 114 468 275 114 469 279 114 470 293 115 471 300 115 472 298 115 473 297 105 474 301 105 475 300 105 476 296 116 477 302 116 478 301 116 479 295 107 480 303 107 481 302 107 482 294 67 483 299 67 484 303 67 485 281 108 486 288 108 487 286 108 488 285 88 489 289 88 490 288 88 491 284 117 492 290 117 493 289 117 494 283 110 495 291 110 496 290 110 497 282 118 498 287 118 499 291 118 500 260 0 501 261 0 502 271 0 503 334 0 504 304 0 505 329 0 506 346 1 507 328 1 508 341 1 509 335 2 510 310 2 511 311 2 512 310 3 513 316 3 514 305 3 515 322 4 516 340 4 517 317 4 518 311 119 519 306 119 520 304 119 521 315 120 522 307 120 523 306 120 524 314 121 525 308 121 526 307 121 527 313 122 528 309 122 529 308 122 530 312 123 531 305 123 532 309 123 533 317 124 534 324 124 535 322 124 536 321 125 537 325 125 538 324 125 539 320 126 540 326 126 541 325 126 542 319 127 543 327 127 544 326 127 545 318 128 546 323 128 547 327 128 548 341 129 549 348 129 550 346 129 551 345 130 552 349 130 553 348 130 554 344 131 555 350 131 556 349 131 557 343 132 558 351 132 559 350 132 560 342 133 561 347 133 562 351 133 563 329 134 564 336 134 565 334 134 566 333 135 567 337 135 568 336 135 569 332 136 570 338 136 571 337 136 572 331 137 573 339 137 574 338 137 575 330 138 576 335 138 577 339 138 578 305 25 579 328 25 580 329 25 581 382 0 582 352 0 583 377 0 584 394 1 585 376 1 586 389 1 587 383 2 588 358 2 589 359 2 590 358 3 591 364 3 592 353 3 593 370 4 594 388 4 595 365 4 596 359 139 597 354 139 598 352 139 599 363 140 600 355 140 601 354 140 602 362 141 603 356 141 604 355 141 605 361 122 606 357 122 607 356 122 608 360 123 609 353 123 610 357 123 611 365 124 612 372 124 613 370 124 614 369 125 615 373 125 616 372 125 617 368 126 618 374 126 619 373 126 620 367 127 621 375 127 622 374 127 623 366 128 624 371 128 625 375 128 626 389 129 627 396 129 628 394 129 629 393 130 630 397 130 631 396 130 632 392 131 633 398 131 634 397 131 635 391 132 636 399 132 637 398 132 638 390 133 639 395 133 640 399 133 641 377 142 642 384 142 643 382 142 644 381 143 645 385 143 646 384 143 647 380 144 648 386 144 649 385 144 650 379 137 651 387 137 652 386 137 653 378 138 654 383 138 655 387 138 656 353 25 657 376 25 658 377 25 659 430 0 660 400 0 661 425 0 662 442 1 663 424 1 664 437 1 665 431 2 666 406 2 667 407 2 668 406 3 669 412 3 670 401 3 671 418 4 672 436 4 673 413 4 674 407 139 675 402 139 676 400 139 677 411 140 678 403 140 679 402 140 680 410 141 681 404 141 682 403 141 683 409 122 684 405 122 685 404 122 686 408 123 687 401 123 688 405 123 689 413 145 690 420 145 691 418 145 692 417 146 693 421 146 694 420 146 695 416 147 696 422 147 697 421 147 698 415 127 699 423 127 700 422 127 701 414 128 702 419 128 703 423 128 704 437 129 705 444 129 706 442 129 707 441 130 708 445 130 709 444 130 710 440 148 711 446 148 712 445 148 713 439 149 714 447 149 715 446 149 716 438 150 717 443 150 718 447 150 719 425 142 720 432 142 721 430 142 722 429 143 723 433 143 724 432 143 725 428 144 726 434 144 727 433 144 728 427 137 729 435 137 730 434 137 731 426 138 732 431 138 733 435 138 734 401 25 735 424 25 736 425 25 737 30 0 738 7 0 739 0 0 740 42 1 741 31 1 742 24 1 743 31 151 744 42 151 745 43 151 746 42 2 747 44 2 748 43 2 749 44 2 750 45 2 751 46 2 752 46 2 753 47 2 754 43 2 755 43 2 756 18 2 757 31 2 758 18 2 759 20 2 760 19 2 761 31 152 762 18 152 763 19 152 764 20 2 765 21 2 766 22 2 767 22 2 768 23 2 769 20 2 770 23 2 771 19 2 772 20 2 773 19 2 774 6 2 775 31 2 776 6 2 777 8 2 778 10 2 779 8 2 780 9 2 781 10 2 782 10 2 783 11 2 784 7 2 785 7 2 786 30 2 787 31 2 788 30 2 789 32 2 790 31 2 791 32 2 792 33 2 793 34 2 794 34 2 795 35 2 796 32 2 797 35 2 798 31 2 799 32 2 800 44 2 801 46 2 802 43 2 803 6 2 804 10 2 805 7 2 806 6 3 807 19 3 808 12 3 809 18 4 810 43 4 811 36 4 812 7 5 813 11 5 814 2 5 815 11 153 816 10 153 817 3 153 818 10 7 819 9 7 820 4 7 821 9 8 822 8 8 823 5 8 824 8 9 825 6 9 826 1 9 827 13 10 828 17 10 829 20 10 830 17 154 831 16 154 832 21 154 833 16 12 834 15 12 835 22 12 836 15 13 837 14 13 838 23 13 839 14 14 840 12 14 841 19 14 842 37 15 843 41 15 844 44 15 845 41 16 846 40 16 847 45 16 848 40 17 849 39 17 850 46 17 851 39 155 852 38 155 853 47 155 854 38 19 855 36 19 856 43 19 857 25 20 858 29 20 859 32 20 860 29 156 861 28 156 862 33 156 863 28 22 864 27 22 865 34 22 866 27 23 867 26 23 868 35 23 869 26 24 870 24 24 871 31 24 872 1 157 873 12 157 874 13 157 875 12 25 876 14 25 877 13 25 878 14 25 879 15 25 880 16 25 881 16 25 882 17 25 883 13 25 884 13 25 885 36 25 886 1 25 887 36 25 888 38 25 889 37 25 890 1 158 891 36 158 892 37 158 893 38 25 894 39 25 895 40 25 896 40 25 897 41 25 898 38 25 899 41 25 900 37 25 901 38 25 902 37 25 903 24 25 904 1 25 905 24 25 906 26 25 907 28 25 908 26 25 909 27 25 910 28 25 911 28 25 912 29 25 913 25 25 914 25 25 915 0 25 916 1 25 917 0 25 918 2 25 919 1 25 920 2 25 921 3 25 922 4 25 923 4 25 924 5 25 925 2 25 926 5 25 927 1 25 928 2 25 929 14 25 930 16 25 931 13 25 932 24 25 933 28 25 934 25 25 935 94 159 972 71 159 973 64 159 974 106 160 975 95 160 976 88 160 977 95 4 978 106 4 979 108 4 980 108 4 981 109 4 982 99 4 983 109 4 984 110 4 985 98 4 986 108 4 987 99 4 988 95 4 989 110 4 990 111 4 991 96 4 992 111 4 993 107 4 994 96 4 995 110 4 996 96 4 997 97 4 998 107 4 999 82 4 1000 71 4 1001 82 4 1002 84 4 1003 75 4 1004 75 4 1005 84 4 1006 74 4 1007 84 4 1008 85 4 1009 74 4 1010 85 4 1011 86 4 1012 74 4 1013 86 4 1014 87 4 1015 72 4 1016 87 4 1017 83 4 1018 72 4 1019 83 4 1020 70 4 1021 72 4 1022 72 4 1023 73 4 1024 86 4 1025 73 4 1026 74 4 1027 86 4 1028 75 4 1029 71 4 1030 82 4 1031 71 4 1032 94 4 1033 107 4 1034 94 4 1035 96 4 1036 107 4 1037 97 4 1038 98 4 1039 110 4 1040 70 161 1041 83 161 1042 76 161 1043 82 162 1044 107 162 1045 100 162 1046 71 163 1047 75 163 1048 66 163 1049 75 164 1050 74 164 1051 67 164 1052 74 165 1053 73 165 1054 68 165 1055 73 166 1056 72 166 1057 69 166 1058 72 167 1059 70 167 1060 65 167 1061 77 168 1062 81 168 1063 84 168 1064 81 169 1065 80 169 1066 85 169 1067 80 170 1068 79 170 1069 86 170 1070 79 171 1071 78 171 1072 87 171 1073 78 172 1074 76 172 1075 83 172 1076 101 173 1077 105 173 1078 108 173 1079 105 174 1080 104 174 1081 109 174 1082 104 175 1083 103 175 1084 110 175 1085 103 176 1086 102 176 1087 111 176 1088 102 177 1089 100 177 1090 107 177 1091 89 178 1092 93 178 1093 96 178 1094 93 179 1095 92 179 1096 97 179 1097 92 180 1098 91 180 1099 98 180 1100 91 181 1101 90 181 1102 99 181 1103 90 182 1104 88 182 1105 95 182 1106 65 0 1107 76 0 1108 78 0 1109 78 0 1110 79 0 1111 69 0 1112 79 0 1113 80 0 1114 68 0 1115 78 0 1116 69 0 1117 65 0 1118 80 0 1119 81 0 1120 66 0 1121 81 0 1122 77 0 1123 66 0 1124 80 0 1125 66 0 1126 67 0 1127 77 0 1128 100 0 1129 89 0 1130 100 0 1131 102 0 1132 93 0 1133 93 0 1134 102 0 1135 92 0 1136 102 0 1137 103 0 1138 92 0 1139 103 0 1140 104 0 1141 92 0 1142 104 0 1143 105 0 1144 90 0 1145 105 0 1146 101 0 1147 90 0 1148 101 0 1149 88 0 1150 90 0 1151 90 0 1152 91 0 1153 104 0 1154 91 0 1155 92 0 1156 104 0 1157 93 0 1158 89 0 1159 100 0 1160 89 0 1161 64 0 1162 77 0 1163 64 0 1164 66 0 1165 77 0 1166 67 0 1167 68 0 1168 80 0 1169 142 183 1170 119 183 1171 112 183 1172 154 184 1173 143 184 1174 136 184 1175 143 4 1176 154 4 1177 156 4 1178 156 4 1179 157 4 1180 147 4 1181 157 4 1182 158 4 1183 146 4 1184 156 4 1185 147 4 1186 143 4 1187 158 4 1188 159 4 1189 144 4 1190 159 4 1191 155 4 1192 144 4 1193 158 4 1194 144 4 1195 145 4 1196 155 4 1197 130 4 1198 119 4 1199 130 4 1200 132 4 1201 123 4 1202 123 4 1203 132 4 1204 122 4 1205 132 4 1206 133 4 1207 122 4 1208 133 4 1209 134 4 1210 122 4 1211 134 4 1212 135 4 1213 120 4 1214 135 4 1215 131 4 1216 120 4 1217 131 4 1218 118 4 1219 120 4 1220 120 4 1221 121 4 1222 134 4 1223 121 4 1224 122 4 1225 134 4 1226 123 4 1227 119 4 1228 130 4 1229 119 4 1230 142 4 1231 155 4 1232 142 4 1233 144 4 1234 155 4 1235 145 4 1236 146 4 1237 158 4 1238 118 185 1239 131 185 1240 124 185 1241 130 93 1242 155 93 1243 148 93 1244 119 186 1245 123 186 1246 114 186 1247 123 187 1248 122 187 1249 115 187 1250 122 188 1251 121 188 1252 116 188 1253 121 189 1254 120 189 1255 117 189 1256 120 190 1257 118 190 1258 113 190 1259 125 191 1260 129 191 1261 132 191 1262 129 192 1263 128 192 1264 133 192 1265 128 193 1266 127 193 1267 134 193 1268 127 194 1269 126 194 1270 135 194 1271 126 195 1272 124 195 1273 131 195 1274 149 196 1275 153 196 1276 156 196 1277 153 197 1278 152 197 1279 157 197 1280 152 198 1281 151 198 1282 158 198 1283 151 199 1284 150 199 1285 159 199 1286 150 200 1287 148 200 1288 155 200 1289 137 201 1290 141 201 1291 144 201 1292 141 202 1293 140 202 1294 145 202 1295 140 203 1296 139 203 1297 146 203 1298 139 204 1299 138 204 1300 147 204 1301 138 205 1302 136 205 1303 143 205 1304 113 0 1305 124 0 1306 126 0 1307 126 0 1308 127 0 1309 117 0 1310 127 0 1311 128 0 1312 116 0 1313 126 0 1314 117 0 1315 113 0 1316 128 0 1317 129 0 1318 114 0 1319 129 0 1320 125 0 1321 114 0 1322 128 0 1323 114 0 1324 115 0 1325 125 0 1326 148 0 1327 137 0 1328 148 0 1329 150 0 1330 141 0 1331 141 0 1332 150 0 1333 140 0 1334 150 0 1335 151 0 1336 140 0 1337 151 0 1338 152 0 1339 140 0 1340 152 0 1341 153 0 1342 138 0 1343 153 0 1344 149 0 1345 138 0 1346 149 0 1347 136 0 1348 138 0 1349 138 0 1350 139 0 1351 152 0 1352 139 0 1353 140 0 1354 152 0 1355 141 0 1356 137 0 1357 148 0 1358 137 0 1359 112 0 1360 125 0 1361 112 0 1362 114 0 1363 125 0 1364 115 0 1365 116 0 1366 128 0 1367 190 92 1368 167 92 1369 160 92 1370 202 184 1371 191 184 1372 184 184 1373 191 4 1374 202 4 1375 204 4 1376 204 4 1377 205 4 1378 195 4 1379 205 4 1380 206 4 1381 194 4 1382 204 4 1383 195 4 1384 191 4 1385 206 4 1386 207 4 1387 192 4 1388 207 4 1389 203 4 1390 192 4 1391 206 4 1392 192 4 1393 193 4 1394 203 4 1395 178 4 1396 167 4 1397 178 4 1398 180 4 1399 171 4 1400 171 4 1401 180 4 1402 170 4 1403 180 4 1404 181 4 1405 170 4 1406 181 4 1407 182 4 1408 170 4 1409 182 4 1410 183 4 1411 168 4 1412 183 4 1413 179 4 1414 168 4 1415 179 4 1416 166 4 1417 168 4 1418 168 4 1419 169 4 1420 182 4 1421 169 4 1422 170 4 1423 182 4 1424 171 4 1425 167 4 1426 178 4 1427 167 4 1428 190 4 1429 203 4 1430 190 4 1431 192 4 1432 203 4 1433 193 4 1434 194 4 1435 206 4 1436 166 206 1437 179 206 1438 172 206 1439 178 207 1440 203 207 1441 196 207 1442 167 208 1443 171 208 1444 162 208 1445 171 209 1446 170 209 1447 163 209 1448 170 210 1449 169 210 1450 164 210 1451 169 211 1452 168 211 1453 165 211 1454 168 190 1455 166 190 1456 161 190 1457 173 212 1458 177 212 1459 180 212 1460 177 213 1461 176 213 1462 181 213 1463 176 214 1464 175 214 1465 182 214 1466 175 215 1467 174 215 1468 183 215 1469 174 195 1470 172 195 1471 179 195 1472 197 216 1473 201 216 1474 204 216 1475 201 217 1476 200 217 1477 205 217 1478 200 198 1479 199 198 1480 206 198 1481 199 218 1482 198 218 1483 207 218 1484 198 219 1485 196 219 1486 203 219 1487 185 220 1488 189 220 1489 192 220 1490 189 202 1491 188 202 1492 193 202 1493 188 221 1494 187 221 1495 194 221 1496 187 222 1497 186 222 1498 195 222 1499 186 205 1500 184 205 1501 191 205 1502 161 0 1503 172 0 1504 174 0 1505 174 0 1506 175 0 1507 165 0 1508 175 0 1509 176 0 1510 164 0 1511 174 0 1512 165 0 1513 161 0 1514 176 0 1515 177 0 1516 162 0 1517 177 0 1518 173 0 1519 162 0 1520 176 0 1521 162 0 1522 163 0 1523 173 0 1524 196 0 1525 185 0 1526 196 0 1527 198 0 1528 189 0 1529 189 0 1530 198 0 1531 188 0 1532 198 0 1533 199 0 1534 188 0 1535 199 0 1536 200 0 1537 188 0 1538 200 0 1539 201 0 1540 186 0 1541 201 0 1542 197 0 1543 186 0 1544 197 0 1545 184 0 1546 186 0 1547 186 0 1548 187 0 1549 200 0 1550 187 0 1551 188 0 1552 200 0 1553 189 0 1554 185 0 1555 196 0 1556 185 0 1557 160 0 1558 173 0 1559 160 0 1560 162 0 1561 173 0 1562 163 0 1563 164 0 1564 176 0 1565 238 223 1566 215 223 1567 208 223 1568 250 1 1569 239 1 1570 232 1 1571 239 4 1572 250 4 1573 252 4 1574 252 4 1575 253 4 1576 243 4 1577 253 4 1578 254 4 1579 242 4 1580 252 4 1581 243 4 1582 239 4 1583 254 4 1584 255 4 1585 240 4 1586 255 4 1587 251 4 1588 240 4 1589 254 4 1590 240 4 1591 241 4 1592 251 4 1593 226 4 1594 215 4 1595 226 4 1596 228 4 1597 219 4 1598 219 4 1599 228 4 1600 218 4 1601 228 4 1602 229 4 1603 218 4 1604 229 4 1605 230 4 1606 218 4 1607 230 4 1608 231 4 1609 216 4 1610 231 4 1611 227 4 1612 216 4 1613 227 4 1614 214 4 1615 216 4 1616 216 4 1617 217 4 1618 230 4 1619 217 4 1620 218 4 1621 230 4 1622 219 4 1623 215 4 1624 226 4 1625 215 4 1626 238 4 1627 251 4 1628 238 4 1629 240 4 1630 251 4 1631 241 4 1632 242 4 1633 254 4 1634 214 3 1635 227 3 1636 220 3 1637 226 224 1638 251 224 1639 244 224 1640 215 208 1641 219 208 1642 210 208 1643 219 225 1644 218 225 1645 211 225 1646 218 226 1647 217 226 1648 212 226 1649 217 211 1650 216 211 1651 213 211 1652 216 227 1653 214 227 1654 209 227 1655 221 228 1656 225 228 1657 228 228 1658 225 229 1659 224 229 1660 229 229 1661 224 230 1662 223 230 1663 230 230 1664 223 231 1665 222 231 1666 231 231 1667 222 232 1668 220 232 1669 227 232 1670 245 233 1671 249 233 1672 252 233 1673 249 234 1674 248 234 1675 253 234 1676 248 235 1677 247 235 1678 254 235 1679 247 236 1680 246 236 1681 255 236 1682 246 237 1683 244 237 1684 251 237 1685 233 238 1686 237 238 1687 240 238 1688 237 239 1689 236 239 1690 241 239 1691 236 240 1692 235 240 1693 242 240 1694 235 241 1695 234 241 1696 243 241 1697 234 242 1698 232 242 1699 239 242 1700 209 0 1701 220 0 1702 222 0 1703 222 0 1704 223 0 1705 213 0 1706 223 0 1707 224 0 1708 212 0 1709 222 0 1710 213 0 1711 209 0 1712 224 0 1713 225 0 1714 210 0 1715 225 0 1716 221 0 1717 210 0 1718 224 0 1719 210 0 1720 211 0 1721 221 0 1722 244 0 1723 233 0 1724 244 0 1725 246 0 1726 237 0 1727 237 0 1728 246 0 1729 236 0 1730 246 0 1731 247 0 1732 236 0 1733 247 0 1734 248 0 1735 236 0 1736 248 0 1737 249 0 1738 234 0 1739 249 0 1740 245 0 1741 234 0 1742 245 0 1743 232 0 1744 234 0 1745 234 0 1746 235 0 1747 248 0 1748 235 0 1749 236 0 1750 248 0 1751 237 0 1752 233 0 1753 244 0 1754 233 0 1755 208 0 1756 221 0 1757 208 0 1758 210 0 1759 221 0 1760 211 0 1761 212 0 1762 224 0 1763 286 92 1764 263 92 1765 256 92 1766 298 1 1767 287 1 1768 280 1 1769 287 4 1770 298 4 1771 300 4 1772 300 4 1773 301 4 1774 291 4 1775 301 4 1776 302 4 1777 290 4 1778 300 4 1779 291 4 1780 287 4 1781 302 4 1782 303 4 1783 288 4 1784 303 4 1785 299 4 1786 288 4 1787 302 4 1788 288 4 1789 289 4 1790 299 4 1791 274 4 1792 263 4 1793 274 4 1794 276 4 1795 267 4 1796 267 4 1797 276 4 1798 266 4 1799 276 4 1800 277 4 1801 266 4 1802 277 4 1803 278 4 1804 266 4 1805 278 4 1806 279 4 1807 264 4 1808 279 4 1809 275 4 1810 264 4 1811 275 4 1812 262 4 1813 264 4 1814 264 4 1815 265 4 1816 278 4 1817 265 4 1818 266 4 1819 278 4 1820 267 4 1821 263 4 1822 274 4 1823 263 4 1824 286 4 1825 299 4 1826 286 4 1827 288 4 1828 299 4 1829 289 4 1830 290 4 1831 302 4 1832 262 3 1833 275 3 1834 268 3 1835 274 93 1836 299 93 1837 292 93 1838 263 208 1839 267 208 1840 258 208 1841 267 225 1842 266 225 1843 259 225 1844 266 243 1845 265 243 1846 260 243 1847 265 211 1848 264 211 1849 261 211 1850 264 244 1851 262 244 1852 257 244 1853 269 228 1854 273 228 1855 276 228 1856 273 229 1857 272 229 1858 277 229 1859 272 245 1860 271 245 1861 278 245 1862 271 231 1863 270 231 1864 279 231 1865 270 232 1866 268 232 1867 275 232 1868 293 233 1869 297 233 1870 300 233 1871 297 234 1872 296 234 1873 301 234 1874 296 246 1875 295 246 1876 302 246 1877 295 236 1878 294 236 1879 303 236 1880 294 237 1881 292 237 1882 299 237 1883 281 238 1884 285 238 1885 288 238 1886 285 239 1887 284 239 1888 289 239 1889 284 247 1890 283 247 1891 290 247 1892 283 241 1893 282 241 1894 291 241 1895 282 242 1896 280 242 1897 287 242 1898 257 0 1899 268 0 1900 270 0 1901 270 0 1902 271 0 1903 261 0 1904 271 0 1905 272 0 1906 260 0 1907 270 0 1908 261 0 1909 257 0 1910 272 0 1911 273 0 1912 258 0 1913 273 0 1914 269 0 1915 258 0 1916 272 0 1917 258 0 1918 259 0 1919 269 0 1920 292 0 1921 281 0 1922 292 0 1923 294 0 1924 285 0 1925 285 0 1926 294 0 1927 284 0 1928 294 0 1929 295 0 1930 284 0 1931 295 0 1932 296 0 1933 284 0 1934 296 0 1935 297 0 1936 282 0 1937 297 0 1938 293 0 1939 282 0 1940 293 0 1941 280 0 1942 282 0 1943 282 0 1944 283 0 1945 296 0 1946 283 0 1947 284 0 1948 296 0 1949 285 0 1950 281 0 1951 292 0 1952 281 0 1953 256 0 1954 269 0 1955 256 0 1956 258 0 1957 269 0 1958 259 0 1959 260 0 1960 272 0 1961 334 0 1962 311 0 1963 304 0 1964 346 1 1965 335 1 1966 328 1 1967 335 248 1968 346 248 1969 347 248 1970 346 2 1971 348 2 1972 347 2 1973 348 2 1974 349 2 1975 350 2 1976 350 249 1977 351 249 1978 347 249 1979 347 2 1980 322 2 1981 335 2 1982 322 2 1983 324 2 1984 323 2 1985 335 250 1986 322 250 1987 323 250 1988 324 2 1989 325 2 1990 323 2 1991 325 251 1992 326 251 1993 323 251 1994 326 2 1995 327 2 1996 323 2 1997 323 2 1998 310 2 1999 335 2 2000 310 252 2001 312 252 2002 314 252 2003 312 2 2004 313 2 2005 314 2 2006 314 253 2007 315 253 2008 311 253 2009 311 2 2010 334 2 2011 335 2 2012 334 2 2013 336 2 2014 335 2 2015 336 2 2016 337 2 2017 335 2 2018 337 254 2019 338 254 2020 335 254 2021 338 2 2022 339 2 2023 335 2 2024 348 255 2025 350 255 2026 347 255 2027 310 256 2028 314 256 2029 311 256 2030 310 3 2031 323 3 2032 316 3 2033 322 4 2034 347 4 2035 340 4 2036 311 119 2037 315 119 2038 306 119 2039 315 257 2040 314 257 2041 307 257 2042 314 121 2043 313 121 2044 308 121 2045 313 122 2046 312 122 2047 309 122 2048 312 123 2049 310 123 2050 305 123 2051 317 124 2052 321 124 2053 324 124 2054 321 258 2055 320 258 2056 325 258 2057 320 126 2058 319 126 2059 326 126 2060 319 127 2061 318 127 2062 327 127 2063 318 128 2064 316 128 2065 323 128 2066 341 129 2067 345 129 2068 348 129 2069 345 130 2070 344 130 2071 349 130 2072 344 131 2073 343 131 2074 350 131 2075 343 259 2076 342 259 2077 351 259 2078 342 133 2079 340 133 2080 347 133 2081 329 134 2082 333 134 2083 336 134 2084 333 260 2085 332 260 2086 337 260 2087 332 136 2088 331 136 2089 338 136 2090 331 137 2091 330 137 2092 339 137 2093 330 138 2094 328 138 2095 335 138 2096 305 261 2097 316 261 2098 317 261 2099 316 25 2100 318 25 2101 317 25 2102 318 25 2103 319 25 2104 320 25 2105 320 262 2106 321 262 2107 317 262 2108 317 25 2109 340 25 2110 305 25 2111 340 25 2112 342 25 2113 341 25 2114 305 263 2115 340 263 2116 341 263 2117 342 25 2118 343 25 2119 341 25 2120 343 264 2121 344 264 2122 341 264 2123 344 25 2124 345 25 2125 341 25 2126 341 25 2127 328 25 2128 305 25 2129 328 265 2130 330 265 2131 332 265 2132 330 25 2133 331 25 2134 332 25 2135 332 266 2136 333 266 2137 329 266 2138 329 25 2139 304 25 2140 305 25 2141 304 25 2142 306 25 2143 305 25 2144 306 25 2145 307 25 2146 305 25 2147 307 267 2148 308 267 2149 305 267 2150 308 25 2151 309 25 2152 305 25 2153 318 268 2154 320 268 2155 317 268 2156 328 269 2157 332 269 2158 329 269 2159 382 0 2160 359 0 2161 352 0 2162 394 1 2163 383 1 2164 376 1 2165 383 2 2166 394 2 2167 395 2 2168 394 2 2169 396 2 2170 395 2 2171 396 2 2172 397 2 2173 398 2 2174 398 2 2175 399 2 2176 395 2 2177 395 2 2178 370 2 2179 383 2 2180 370 2 2181 372 2 2182 371 2 2183 383 2 2184 370 2 2185 371 2 2186 372 2 2187 373 2 2188 371 2 2189 373 2 2190 374 2 2191 371 2 2192 374 2 2193 375 2 2194 371 2 2195 371 2 2196 358 2 2197 383 2 2198 358 2 2199 360 2 2200 363 2 2201 363 2 2202 360 2 2203 361 2 2204 361 2 2205 362 2 2206 363 2 2207 363 2 2208 359 2 2209 358 2 2210 359 2 2211 382 2 2212 383 2 2213 382 2 2214 384 2 2215 383 2 2216 384 2 2217 385 2 2218 386 2 2219 386 2 2220 387 2 2221 384 2 2222 387 2 2223 383 2 2224 384 2 2225 396 2 2226 398 2 2227 395 2 2228 358 3 2229 371 3 2230 364 3 2231 370 4 2232 395 4 2233 388 4 2234 359 270 2235 363 270 2236 354 270 2237 363 271 2238 362 271 2239 355 271 2240 362 272 2241 361 272 2242 356 272 2243 361 122 2244 360 122 2245 357 122 2246 360 123 2247 358 123 2248 353 123 2249 365 273 2250 369 273 2251 372 273 2252 369 258 2253 368 258 2254 373 258 2255 368 274 2256 367 274 2257 374 274 2258 367 127 2259 366 127 2260 375 127 2261 366 128 2262 364 128 2263 371 128 2264 389 129 2265 393 129 2266 396 129 2267 393 130 2268 392 130 2269 397 130 2270 392 275 2271 391 275 2272 398 275 2273 391 259 2274 390 259 2275 399 259 2276 390 276 2277 388 276 2278 395 276 2279 377 277 2280 381 277 2281 384 277 2282 381 278 2283 380 278 2284 385 278 2285 380 279 2286 379 279 2287 386 279 2288 379 137 2289 378 137 2290 387 137 2291 378 138 2292 376 138 2293 383 138 2294 353 280 2295 364 280 2296 365 280 2297 364 281 2298 366 281 2299 365 281 2300 366 282 2301 367 282 2302 368 282 2303 368 283 2304 369 283 2305 365 283 2306 365 25 2307 388 25 2308 353 25 2309 388 25 2310 390 25 2311 389 25 2312 353 284 2313 388 284 2314 389 284 2315 390 285 2316 391 285 2317 389 285 2318 391 25 2319 392 25 2320 389 25 2321 392 25 2322 393 25 2323 389 25 2324 389 25 2325 376 25 2326 353 25 2327 376 285 2328 378 285 2329 381 285 2330 381 25 2331 378 25 2332 379 25 2333 379 25 2334 380 25 2335 381 25 2336 381 25 2337 377 25 2338 376 25 2339 377 25 2340 352 25 2341 353 25 2342 352 25 2343 354 25 2344 353 25 2345 354 25 2346 355 25 2347 356 25 2348 356 25 2349 357 25 2350 354 25 2351 357 25 2352 353 25 2353 354 25 2354 366 286 2355 368 286 2356 365 286 2357 430 0 2358 407 0 2359 400 0 2360 442 1 2361 431 1 2362 424 1 2363 431 2 2364 442 2 2365 443 2 2366 442 2 2367 444 2 2368 443 2 2369 444 2 2370 445 2 2371 447 2 2372 445 2 2373 446 2 2374 447 2 2375 447 2 2376 443 2 2377 444 2 2378 443 2 2379 418 2 2380 431 2 2381 418 2 2382 420 2 2383 419 2 2384 431 2 2385 418 2 2386 419 2 2387 420 2 2388 421 2 2389 422 2 2390 422 2 2391 423 2 2392 420 2 2393 423 2 2394 419 2 2395 420 2 2396 419 2 2397 406 2 2398 431 2 2399 406 2 2400 408 2 2401 411 2 2402 411 2 2403 408 2 2404 409 2 2405 409 2 2406 410 2 2407 411 2 2408 411 2 2409 407 2 2410 406 2 2411 407 2 2412 430 2 2413 431 2 2414 430 2 2415 432 2 2416 431 2 2417 432 2 2418 433 2 2419 434 2 2420 434 2 2421 435 2 2422 432 2 2423 435 2 2424 431 2 2425 432 2 2426 406 3 2427 419 3 2428 412 3 2429 418 4 2430 443 4 2431 436 4 2432 407 270 2433 411 270 2434 402 270 2435 411 271 2436 410 271 2437 403 271 2438 410 272 2439 409 272 2440 404 272 2441 409 122 2442 408 122 2443 405 122 2444 408 123 2445 406 123 2446 401 123 2447 413 287 2448 417 287 2449 420 287 2450 417 288 2451 416 288 2452 421 288 2453 416 289 2454 415 289 2455 422 289 2456 415 127 2457 414 127 2458 423 127 2459 414 128 2460 412 128 2461 419 128 2462 437 129 2463 441 129 2464 444 129 2465 441 130 2466 440 130 2467 445 130 2468 440 290 2469 439 290 2470 446 290 2471 439 291 2472 438 291 2473 447 291 2474 438 292 2475 436 292 2476 443 292 2477 425 277 2478 429 277 2479 432 277 2480 429 278 2481 428 278 2482 433 278 2483 428 279 2484 427 279 2485 434 279 2486 427 137 2487 426 137 2488 435 137 2489 426 138 2490 424 138 2491 431 138 2492 401 293 2493 412 293 2494 413 293 2495 412 294 2496 414 294 2497 413 294 2498 414 25 2499 415 25 2500 417 25 2501 415 25 2502 416 25 2503 417 25 2504 417 25 2505 413 25 2506 414 25 2507 413 25 2508 436 25 2509 401 25 2510 436 25 2511 438 25 2512 437 25 2513 401 295 2514 436 295 2515 437 295 2516 438 25 2517 439 25 2518 440 25 2519 440 25 2520 441 25 2521 438 25 2522 441 25 2523 437 25 2524 438 25 2525 437 25 2526 424 25 2527 401 25 2528 424 296 2529 426 296 2530 429 296 2531 429 25 2532 426 25 2533 427 25 2534 427 25 2535 428 25 2536 429 25 2537 429 25 2538 425 25 2539 424 25 2540 425 25 2541 400 25 2542 401 25 2543 400 25 2544 402 25 2545 401 25 2546 402 25 2547 403 25 2548 404 25 2549 404 25 2550 405 25 2551 402 25 2552 405 25 2553 401 25 2554 402 25 2555</p>
        </triangles>
        <triangles material="Material_006-material" count="24">
          <input semantic="VERTEX" source="#Cube_034-mesh-vertices" offset="0"/>
          <input semantic="NORMAL" source="#Cube_034-mesh-normals" offset="1"/>
          <input semantic="TEXCOORD" source="#Cube_034-mesh-map-0" offset="2" set="0"/>
          <p>61 3 78 50 3 79 48 3 80 58 4 81 54 4 82 50 4 83 59 1 84 52 1 85 54 1 86 60 0 87 48 0 88 52 0 89 54 25 90 48 25 91 50 25 92 51 2 93 53 2 94 55 2 95 61 2 96 59 2 97 58 2 98 62 4 99 55 4 100 63 4 101 56 0 102 49 0 103 57 0 104 63 26 105 53 26 106 56 26 107 57 27 108 51 27 109 62 27 110 56 28 111 62 28 112 63 28 113 61 3 936 58 3 937 50 3 938 58 4 939 59 4 940 54 4 941 59 1 942 60 1 943 52 1 944 60 0 945 61 0 946 48 0 947 54 25 948 52 25 949 48 25 950 51 2 951 49 2 952 53 2 953 61 2 954 60 2 955 59 2 956 62 4 957 51 4 958 55 4 959 56 0 960 53 0 961 49 0 962 63 1 963 55 1 964 53 1 965 57 3 966 49 3 967 51 3 968 56 28 969 57 28 970 62 28 971</p>
        </triangles>
      </mesh>
    </geometry>
  </library_geometries>
  <library_visual_scenes>
    <visual_scene id="Scene" name="Scene">
      <node id="Cube_030" name="Cube.030" type="NODE">
        <matrix sid="transform">0.15 0 0 0 0 -0.025 1.75938e-7 -1.976 0 -1.09278e-9 -4.025 0 0 0 0 1</matrix>
        <instance_geometry url="#Cube_034-mesh" name="Cube.030">
          <bind_material>
            <technique_common>
              <instance_material symbol="Material-material" target="#Material-material">
                <bind_vertex_input semantic="UVMap" input_semantic="TEXCOORD" input_set="0"/>
              </instance_material>
              <instance_material symbol="Material_006-material" target="#Material_006-material">
                <bind_vertex_input semantic="UVMap" input_semantic="TEXCOORD" input_set="0"/>
              </instance_material>
            </technique_common>
          </bind_material>
        </instance_geometry>
      </node>
    </visual_scene>
  </library_visual_scenes>
  <scene>
    <instance_visual_scene url="#Scene"/>
  </scene>
</COLLADA>