<?xml version="1.0" encoding="utf-8"?>
<COLLADA xmlns="http://www.collada.org/2005/11/COLLADASchema" version="1.4.1" xmlns:xsi="http://www.w3.org/2001/XMLSchema-instance">
  <asset>
    <contributor>
      <author>Blender User</author>
      <authoring_tool>Blender 2.83.20 commit date:2022-04-19, commit time:16:00, hash:a56e2faeb7a9</authoring_tool>
    </contributor>
    <created>2026-07-08T18:04:42</created>
    <modified>2026-07-08T18:04:42</modified>
    <unit name="meter" meter="1"/>
    <up_axis>Z_UP</up_axis>
  </asset>
  <library_effects>
    <effect id="Material_002-effect">
      <profile_COMMON>
        <newparam sid="BaseColor_-_복사본_png-surface">
          <surface type="2D">
            <init_from>BaseColor_-_복사본_png</init_from>
          </surface>
        </newparam>
        <newparam sid="BaseColor_-_복사본_png-sampler">
          <sampler2D>
            <source>BaseColor_-_복사본_png-surface</source>
          </sampler2D>
        </newparam>
        <technique sid="common">
          <lambert>
            <emission>
              <color sid="emission">0 0 0 1</color>
            </emission>
            <diffuse>
              <texture texture="BaseColor_-_복사본_png-sampler" texcoord="UVMap"/>
            </diffuse>
            <index_of_refraction>
              <float sid="ior">1.45</float>
            </index_of_refraction>
          </lambert>
        </technique>
      </profile_COMMON>
    </effect>
    <effect id="Material_003-effect">
      <profile_COMMON>
        <technique sid="common">
          <lambert>
            <emission>
              <color sid="emission">0 0 0 1</color>
            </emission>
            <diffuse>
              <color sid="diffuse">0.6655135 0.09397312 2.00641e-4 1</color>
            </diffuse>
            <reflectivity>
              <float sid="specular">1</float>
            </reflectivity>
            <index_of_refraction>
              <float sid="ior">1.45</float>
            </index_of_refraction>
          </lambert>
        </technique>
      </profile_COMMON>
    </effect>
  </library_effects>
  <library_images>
    <image id="BaseColor_-_복사본_png" name="BaseColor_-_복사본_png">
      <init_from>BaseColor%20-%20%EB%B3%B5%EC%82%AC%EB%B3%B8.png</init_from>
    </image>
  </library_images>
  <library_materials>
    <material id="Material_002-material" name="Material.002">
      <instance_effect url="#Material_002-effect"/>
    </material>
    <material id="Material_003-material" name="Material.003">
      <instance_effect url="#Material_003-effect"/>
    </material>
  </library_materials>
  <library_geometries>
    <geometry id="Cube_015-mesh" name="Cube.015">
      <mesh>
        <source id="Cube_015-mesh-positions">
          <float_array id="Cube_015-mesh-positions-array" count="192">-1.003931 -1 -1.724667 -1.003931 -1 -1.724667 -1.003931 -1 0.2753334 -1.003931 1 -1.724667 -1.003931 1 -1.724667 -1.003931 1 0.2753334 0.9960693 -1 -1.724667 0.9960693 -1 -1.724667 0.9960693 -1 0.2753334 0.9960693 1 -1.724667 0.9960693 1 -1.724667 0.9960693 1 0.2753334 0.9529978 1 -1.724667 0.9529978 1 -1.724667 0.9529978 1 0.2753334 0.9529978 1 0.2753334 0.9529978 -1 -1.724667 0.9529978 -1 -1.724667 0.9529978 -1 0.2753334 0.9529978 -1 0.2753334 0.9529978 1 1.276775 0.9960693 1 1.276775 0.9960693 -1 1.276775 0.9529978 -1 1.276775 -0.9451363 1 -1.724667 -0.9451363 1 -1.724667 -0.9451363 -1 0.2753334 -0.9451363 -1 0.2753334 -0.9451363 1 0.2753334 -0.9451363 1 0.2753334 -0.9451363 -1 -1.724667 -0.9451363 -1 -1.724667 -1.003931 -1 1.138752 -1.003931 1 1.138752 -0.9451363 -1 1.138752 -0.9451363 1 1.138752 -1.003931 -1 -1.724667 -1.003931 -1 0.2753334 -1.003931 1 -1.724667 -1.003931 1 0.2753334 0.9960693 -1 -1.724667 0.9960693 -1 0.2753334 0.9960693 1 -1.724667 0.9960693 1 0.2753334 0.9529978 1 0.2753334 0.9529978 -1 0.2753334 0.9529978 1 1.276775 0.9529978 1 1.276775 0.9960693 1 1.276775 0.9960693 1 1.276775 0.9960693 -1 1.276775 0.9960693 -1 1.276775 0.9529978 -1 1.276775 0.9529978 -1 1.276775 -0.9451363 -1 0.2753334 -0.9451363 1 0.2753334 -1.003931 -1 1.138752 -1.003931 -1 1.138752 -1.003931 1 1.138752 -1.003931 1 1.138752 -0.9451363 -1 1.138752 -0.9451363 -1 1.138752 -0.9451363 1 1.138752 -0.9451363 1 1.138752</float_array>
          <technique_common>
            <accessor source="#Cube_015-mesh-positions-array" count="64" stride="3">
              <param name="X" type="float"/>
              <param name="Y" type="float"/>
              <param name="Z" type="float"/>
            </accessor>
          </technique_common>
        </source>
        <source id="Cube_015-mesh-normals">
          <float_array id="Cube_015-mesh-normals-array" count="18">0 1 0 0 -1 0 0 0 -1 0 0 1 -1 0 0 1 0 0</float_array>
          <technique_common>
            <accessor source="#Cube_015-mesh-normals-array" count="6" stride="3">
              <param name="X" type="float"/>
              <param name="Y" type="float"/>
              <param name="Z" type="float"/>
            </accessor>
          </technique_common>
        </source>
        <source id="Cube_015-mesh-map-0">
          <float_array id="Cube_015-mesh-map-0-array" count="264">0.375 0.494616 0.625 0.494616 0.625 0.5 0.375 0.494616 0.625 0.5 0.375 0.5 0.375 0.9926507 0.625 0.9926507 0.625 1 0.375 0.9926507 0.625 1 0.375 1 0.3696161 0.5 0.375 0.5 0.375 0.75 0.3696161 0.5 0.375 0.75 0.3696161 0.75 0.625 0.5 0.625 0.494616 0.625 0.494616 0.625 0.5 0.625 0.494616 0.625 0.5 0.1323493 0.5 0.3696161 0.5 0.3696161 0.75 0.1323493 0.5 0.3696161 0.75 0.1323493 0.75 0.375 0.75 0.625 0.75 0.625 0.755384 0.375 0.75 0.625 0.755384 0.375 0.755384 0.375 0.2573493 0.625 0.2573493 0.625 0.494616 0.375 0.2573493 0.625 0.494616 0.375 0.494616 0.625 0.755384 0.625 0.75 0.625 0.75 0.625 0.755384 0.625 0.75 0.625 0.755384 0.375 0.25 0.625 0.25 0.625 0.2573493 0.375 0.25 0.625 0.2573493 0.375 0.2573493 0.125 0.5 0.1323493 0.5 0.1323493 0.75 0.125 0.5 0.1323493 0.75 0.125 0.75 0.6303839 0.5 0.8676507 0.5 0.8676507 0.75 0.6303839 0.5 0.8676507 0.75 0.6303839 0.75 0.375 0.755384 0.625 0.755384 0.625 0.9926507 0.375 0.755384 0.625 0.9926507 0.375 0.9926507 0.625 0.2573493 0.625 0.25 0.625 0.25 0.625 0.2573493 0.625 0.25 0.625 0.2573493 0.625 1 0.625 0.9926507 0.625 0.9926507 0.625 1 0.625 0.9926507 0.625 1 0.375 0 0.625 0 0.625 0.25 0.375 0 0.625 0.25 0.375 0.25 0.375 0.5 0.625 0.5 0.625 0.75 0.375 0.5 0.625 0.75 0.375 0.75 0.8676507 0.75 0.8676507 0.5 0.8676507 0.5 0.8676507 0.75 0.8676507 0.5 0.8676507 0.75 0.625 0.5 0.6303839 0.5 0.6303839 0.75 0.625 0.5 0.6303839 0.75 0.625 0.75 0.6303839 0.5 0.6303839 0.75 0.6303839 0.75 0.6303839 0.5 0.6303839 0.75 0.6303839 0.5 0.625 0.75 0.625 0.5 0.625 0.5 0.625 0.75 0.625 0.5 0.625 0.75 0.8676507 0.5 0.875 0.5 0.875 0.75 0.8676507 0.5 0.875 0.75 0.8676507 0.75 0.625 0.25 0.625 0 0.625 0 0.625 0.25 0.625 0 0.625 0.25</float_array>
          <technique_common>
            <accessor source="#Cube_015-mesh-map-0-array" count="132" stride="2">
              <param name="S" type="float"/>
              <param name="T" type="float"/>
            </accessor>
          </technique_common>
        </source>
        <vertices id="Cube_015-mesh-vertices">
          <input semantic="POSITION" source="#Cube_015-mesh-positions"/>
        </vertices>
        <triangles material="Material_002-material" count="28">
          <input semantic="VERTEX" source="#Cube_015-mesh-vertices" offset="0"/>
          <input semantic="NORMAL" source="#Cube_015-mesh-normals" offset="1"/>
          <input semantic="TEXCOORD" source="#Cube_015-mesh-map-0" offset="2" set="0"/>
          <p>12 0 0 14 0 1 11 0 2 12 0 3 11 0 4 9 0 5 30 1 6 26 1 7 2 1 8 30 1 9 2 1 10 0 1 11 13 2 12 10 2 13 7 2 14 13 2 15 7 2 16 17 2 17 11 0 18 14 0 19 20 0 20 11 0 21 20 0 22 21 0 23 25 2 24 13 2 25 17 2 26 25 2 27 17 2 28 31 2 29 6 1 30 8 1 31 18 1 32 6 1 33 18 1 34 16 1 35 24 0 36 28 0 37 14 0 38 24 0 39 14 0 40 12 0 41 18 1 42 8 1 43 22 1 44 18 1 45 22 1 46 23 1 47 3 0 48 5 0 49 28 0 50 3 0 51 28 0 52 24 0 53 4 2 54 25 2 55 31 2 56 4 2 57 31 2 58 1 2 59 15 3 60 29 3 61 27 3 62 15 3 63 27 3 64 19 3 65 16 1 66 18 1 67 26 1 68 16 1 69 26 1 70 30 1 71 28 0 72 5 0 73 33 0 74 28 0 75 33 0 76 35 0 77 2 1 78 26 1 79 34 1 80 2 1 81 34 1 82 32 1 83</p>
        </triangles>
        <triangles material="Material_003-material" count="16">
          <input semantic="VERTEX" source="#Cube_015-mesh-vertices" offset="0"/>
          <input semantic="NORMAL" source="#Cube_015-mesh-normals" offset="1"/>
          <input semantic="TEXCOORD" source="#Cube_015-mesh-map-0" offset="2" set="0"/>
          <p>36 4 84 37 4 85 39 4 86 36 4 87 39 4 88 38 4 89 42 5 90 43 5 91 41 5 92 42 5 93 41 5 94 40 5 95 54 5 96 55 5 97 63 5 98 54 5 99 63 5 100 61 5 101 48 3 102 46 3 103 52 3 104 48 3 105 52 3 106 50 3 107 44 4 108 45 4 109 53 4 110 44 4 111 53 4 112 47 4 113 41 5 114 43 5 115 49 5 116 41 5 117 49 5 118 51 5 119 62 3 120 58 3 121 56 3 122 62 3 123 56 3 124 60 3 125 39 4 126 37 4 127 57 4 128 39 4 129 57 4 130 59 4 131</p>
        </triangles>
      </mesh>
    </geometry>
  </library_geometries>
  <library_visual_scenes>
    <visual_scene id="Scene" name="Scene">
      <node id="Cube_005" name="Cube.005" type="NODE">
        <matrix sid="transform">0.6 0 0 0 0 0 -0.03 0 0 0.6 0 0 0 0 0 1</matrix>
        <instance_geometry url="#Cube_015-mesh" name="Cube.005">
          <bind_material>
            <technique_common>
              <instance_material symbol="Material_002-material" target="#Material_002-material">
                <bind_vertex_input semantic="UVMap" input_semantic="TEXCOORD" input_set="0"/>
              </instance_material>
              <instance_material symbol="Material_003-material" target="#Material_003-material">
                <bind_vertex_input semantic="UVMap" input_semantic="TEXCOORD" input_set="0"/>
              </instance_material>
            </technique_common>
          </bind_material>
        </instance_geometry>
      </node>
    </visual_scene>
  </library_visual_scenes>
  <scene>
    <instance_visual_scene url="#Scene"/>
  </scene>
</COLLADA>