<?xml version="1.0" encoding="utf-8"?>
<COLLADA xmlns="http://www.collada.org/2005/11/COLLADASchema" version="1.4.1" xmlns:xsi="http://www.w3.org/2001/XMLSchema-instance">
  <asset>
    <contributor>
      <author>Blender User</author>
      <authoring_tool>Blender 4.4.0 commit date:2025-03-17, commit time:17:00, hash:05377985c527</authoring_tool>
    </contributor>
    <created>2026-07-07T16:41:33</created>
    <modified>2026-07-07T16:41:33</modified>
    <unit name="meter" meter="1"/>
    <up_axis>Z_UP</up_axis>
  </asset>
  <library_effects>
    <effect id="Wood09-basecolor-effect">
      <profile_COMMON>
        <newparam sid="Wood09-basecolor_-_복사본__2__jpeg-surface">
          <surface type="2D">
            <init_from>Wood09-basecolor_-_복사본__2__jpeg</init_from>
          </surface>
        </newparam>
        <newparam sid="Wood09-basecolor_-_복사본__2__jpeg-sampler">
          <sampler2D>
            <source>Wood09-basecolor_-_복사본__2__jpeg-surface</source>
          </sampler2D>
        </newparam>
        <technique sid="common">
          <lambert>
            <emission>
              <color sid="emission">0 0 0 1</color>
            </emission>
            <diffuse>
              <texture texture="Wood09-basecolor_-_복사본__2__jpeg-sampler" texcoord="UVMap"/>
            </diffuse>
            <index_of_refraction>
              <float sid="ior">1.5</float>
            </index_of_refraction>
          </lambert>
        </technique>
      </profile_COMMON>
    </effect>
    <effect id="Terrazo03-basecolor_002-effect">
      <profile_COMMON>
        <newparam sid="Marble012_2K-JPG_Roughness_-_복사본_jpg-surface">
          <surface type="2D">
            <init_from>Marble012_2K-JPG_Roughness_-_복사본_jpg</init_from>
          </surface>
        </newparam>
        <newparam sid="Marble012_2K-JPG_Roughness_-_복사본_jpg-sampler">
          <sampler2D>
            <source>Marble012_2K-JPG_Roughness_-_복사본_jpg-surface</source>
          </sampler2D>
        </newparam>
        <technique sid="common">
          <lambert>
            <emission>
              <color sid="emission">0 0 0 1</color>
            </emission>
            <diffuse>
              <texture texture="Marble012_2K-JPG_Roughness_-_복사본_jpg-sampler" texcoord="UVMap"/>
            </diffuse>
            <index_of_refraction>
              <float sid="ior">1.5</float>
            </index_of_refraction>
          </lambert>
        </technique>
      </profile_COMMON>
    </effect>
    <effect id="Terrazo03-basecolor-effect">
      <profile_COMMON>
        <newparam sid="Marble012_2K-JPG_Roughness_-_복사본_jpg-surface">
          <surface type="2D">
            <init_from>Marble012_2K-JPG_Roughness_-_복사본_jpg</init_from>
          </surface>
        </newparam>
        <newparam sid="Marble012_2K-JPG_Roughness_-_복사본_jpg-sampler">
          <sampler2D>
            <source>Marble012_2K-JPG_Roughness_-_복사본_jpg-surface</source>
          </sampler2D>
        </newparam>
        <technique sid="common">
          <lambert>
            <emission>
              <color sid="emission">0 0 0 1</color>
            </emission>
            <diffuse>
              <texture texture="Marble012_2K-JPG_Roughness_-_복사본_jpg-sampler" texcoord="UVMap"/>
            </diffuse>
            <index_of_refraction>
              <float sid="ior">1.5</float>
            </index_of_refraction>
          </lambert>
        </technique>
      </profile_COMMON>
    </effect>
    <effect id="Wood09-basecolor_002-effect">
      <profile_COMMON>
        <newparam sid="Wood09-basecolor_-_복사본__2__jpeg-surface">
          <surface type="2D">
            <init_from>Wood09-basecolor_-_복사본__2__jpeg</init_from>
          </surface>
        </newparam>
        <newparam sid="Wood09-basecolor_-_복사본__2__jpeg-sampler">
          <sampler2D>
            <source>Wood09-basecolor_-_복사본__2__jpeg-surface</source>
          </sampler2D>
        </newparam>
        <technique sid="common">
          <lambert>
            <emission>
              <color sid="emission">0 0 0 1</color>
            </emission>
            <diffuse>
              <texture texture="Wood09-basecolor_-_복사본__2__jpeg-sampler" texcoord="UVMap"/>
            </diffuse>
            <index_of_refraction>
              <float sid="ior">1.5</float>
            </index_of_refraction>
          </lambert>
        </technique>
      </profile_COMMON>
    </effect>
  </library_effects>
  <library_images>
    <image id="Marble012_2K-JPG_Roughness_-_복사본_jpg" name="Marble012_2K-JPG_Roughness_-_복사본_jpg">
      <init_from>Marble012_2K-JPG_Roughness%20-%20%EB%B3%B5%EC%82%AC%EB%B3%B8.jpg</init_from>
    </image>
    <image id="Wood09-basecolor_-_복사본__2__jpeg" name="Wood09-basecolor_-_복사본__2__jpeg">
      <init_from>Wood09-basecolor%20-%20%EB%B3%B5%EC%82%AC%EB%B3%B8%20(2).jpeg</init_from>
    </image>
  </library_images>
  <library_materials>
    <material id="Wood09-basecolor-material" name="Wood09-basecolor">
      <instance_effect url="#Wood09-basecolor-effect"/>
    </material>
    <material id="Terrazo03-basecolor_002-material" name="Terrazo03-basecolor.002">
      <instance_effect url="#Terrazo03-basecolor_002-effect"/>
    </material>
    <material id="Terrazo03-basecolor-material" name="Terrazo03-basecolor">
      <instance_effect url="#Terrazo03-basecolor-effect"/>
    </material>
    <material id="Wood09-basecolor_002-material" name="Wood09-basecolor.002">
      <instance_effect url="#Wood09-basecolor_002-effect"/>
    </material>
  </library_materials>
  <library_geometries>
    <geometry id="Cube_015-mesh" name="Cube.015">
      <mesh>
        <source id="Cube_015-mesh-positions">
          <float_array id="Cube_015-mesh-positions-array" count="96">-1 0 -1 -1 0 1 -1 2 -1 -1 2 1 1 0 -1 1 0 1 1 2 -1 1 2 1 -1 1.891892 51.99999 -1 2 51.99999 -1 1.891892 0.9999966 -1 2 0.9999966 1 1.891892 51.99999 1 2 51.99999 1 1.891892 0.9999966 1 2 0.9999966 -1 0 0.9999973 -1 0 1.999997 -1 1.891892 0.9999951 -1 1.891892 1.999995 1 0 0.9999973 1 0 1.999997 1 1.891892 0.9999951 1 1.891892 1.999995 -0.375 1.675676 52 -0.375 1.891892 52 -0.375 1.675676 1.999998 -0.375 1.891892 1.999998 0.375 1.675676 52 0.375 1.891892 52 0.375 1.675676 1.999998 0.375 1.891892 1.999998</float_array>
          <technique_common>
            <accessor source="#Cube_015-mesh-positions-array" count="32" stride="3">
              <param name="X" type="float"/>
              <param name="Y" type="float"/>
              <param name="Z" type="float"/>
            </accessor>
          </technique_common>
        </source>
        <source id="Cube_015-mesh-normals">
          <float_array id="Cube_015-mesh-normals-array" count="144">-1 0 0 0 1 0 1 0 0 0 -1 0 0 0 -1 0 0 1 -1 0 0 0 -5.51343e-7 -1 1 0 0 0 0 1 0 -1 0 0 1 0 -1 0 0 0 1 0 1 0 0 0 -1 0 0 -1.13419e-6 -1 0 1.07118e-6 1 -1 0 0 0 -5.51343e-7 -1 1 0 0 0 0 1 0 -1 0 0 1 0 -1 0 0 0 1 0 1 0 0 0 -1 0 0 0 -1 0 0 1 -1 0 0 0 -5.51343e-7 -1 1 0 0 0 0 1 0 -1 0 0 1 0 -1 0 0 0 1 0 1 0 0 0 -1 0 0 -1.13419e-6 -1 0 1.07118e-6 1 -1 0 0 0 -5.51343e-7 -1 1 0 0 0 0 1 0 -1 0 0 1 0</float_array>
          <technique_common>
            <accessor source="#Cube_015-mesh-normals-array" count="48" stride="3">
              <param name="X" type="float"/>
              <param name="Y" type="float"/>
              <param name="Z" type="float"/>
            </accessor>
          </technique_common>
        </source>
        <source id="Cube_015-mesh-map-0">
          <float_array id="Cube_015-mesh-map-0-array" count="288">0.625 0 0.375 0.25 0.375 0 0.625 0.25 0.375 0.5 0.375 0.25 0.625 0.5 0.375 0.75 0.375 0.5 0.625 0.75 0.375 1 0.375 0.75 0.375 0.5 0.125 0.75 0.125 0.5 0.875 0.5 0.625 0.75 0.625 0.5 0.625 0 0.375 0.25 0.375 0 0.625 0.25 0.375 0.5 0.375 0.25 0.625 0.5 0.375 0.75 0.375 0.5 0.625 0.75 0.375 1 0.375 0.75 0.375 0.5 0.125 0.75 0.125 0.5 0.875 0.5 0.625 0.75 0.625 0.5 0.375 0 0.625 0.25 0.375 0.25 0.625 0.25 0.375 0.5 0.375 0.25 0.625 0.5 0.375 0.75 0.375 0.5 0.625 0.75 0.375 1 0.375 0.75 0.375 0.5 0.125 0.75 0.125 0.5 0.875 0.5 0.625 0.75 0.625 0.5 0.625 0 0.375 0.25 0.375 0 0.625 0.25 0.375 0.5 0.375 0.25 0.625 0.5 0.375 0.75 0.375 0.5 0.625 0.75 0.375 1 0.375 0.75 0.375 0.5 0.125 0.75 0.125 0.5 0.875 0.5 0.625 0.75 0.625 0.5 0.625 0 0.625 0.25 0.375 0.25 0.625 0.25 0.625 0.5 0.375 0.5 0.625 0.5 0.625 0.75 0.375 0.75 0.625 0.75 0.625 1 0.375 1 0.375 0.5 0.375 0.75 0.125 0.75 0.875 0.5 0.875 0.75 0.625 0.75 0.625 0 0.625 0.25 0.375 0.25 0.625 0.25 0.625 0.5 0.375 0.5 0.625 0.5 0.625 0.75 0.375 0.75 0.625 0.75 0.625 1 0.375 1 0.375 0.5 0.375 0.75 0.125 0.75 0.875 0.5 0.875 0.75 0.625 0.75 0.375 0 0.625 0 0.625 0.25 0.625 0.25 0.625 0.5 0.375 0.5 0.625 0.5 0.625 0.75 0.375 0.75 0.625 0.75 0.625 1 0.375 1 0.375 0.5 0.375 0.75 0.125 0.75 0.875 0.5 0.875 0.75 0.625 0.75 0.625 0 0.625 0.25 0.375 0.25 0.625 0.25 0.625 0.5 0.375 0.5 0.625 0.5 0.625 0.75 0.375 0.75 0.625 0.75 0.625 1 0.375 1 0.375 0.5 0.375 0.75 0.125 0.75 0.875 0.5 0.875 0.75 0.625 0.75</float_array>
          <technique_common>
            <accessor source="#Cube_015-mesh-map-0-array" count="144" stride="2">
              <param name="S" type="float"/>
              <param name="T" type="float"/>
            </accessor>
          </technique_common>
        </source>
        <vertices id="Cube_015-mesh-vertices">
          <input semantic="POSITION" source="#Cube_015-mesh-positions"/>
        </vertices>
        <triangles material="Wood09-basecolor-material" count="12">
          <input semantic="VERTEX" source="#Cube_015-mesh-vertices" offset="0"/>
          <input semantic="NORMAL" source="#Cube_015-mesh-normals" offset="1"/>
          <input semantic="TEXCOORD" source="#Cube_015-mesh-map-0" offset="2" set="0"/>
          <p>1 0 0 2 0 1 0 0 2 3 1 3 6 1 4 2 1 5 7 2 6 4 2 7 6 2 8 5 3 9 0 3 10 4 3 11 6 4 12 0 4 13 2 4 14 3 5 15 5 5 16 7 5 17 1 24 72 3 24 73 2 24 74 3 25 75 7 25 76 6 25 77 7 26 78 5 26 79 4 26 80 5 27 81 1 27 82 0 27 83 6 28 84 4 28 85 0 28 86 3 29 87 1 29 88 5 29 89</p>
        </triangles>
        <triangles material="Terrazo03-basecolor_002-material" count="12">
          <input semantic="VERTEX" source="#Cube_015-mesh-vertices" offset="0"/>
          <input semantic="NORMAL" source="#Cube_015-mesh-normals" offset="1"/>
          <input semantic="TEXCOORD" source="#Cube_015-mesh-map-0" offset="2" set="0"/>
          <p>9 6 18 10 6 19 8 6 20 11 7 21 14 7 22 10 7 23 15 8 24 12 8 25 14 8 26 13 9 27 8 9 28 12 9 29 14 10 30 8 10 31 10 10 32 11 11 33 13 11 34 15 11 35 9 30 90 11 30 91 10 30 92 11 31 93 15 31 94 14 31 95 15 32 96 13 32 97 12 32 98 13 33 99 9 33 100 8 33 101 14 34 102 12 34 103 8 34 104 11 35 105 9 35 106 13 35 107</p>
        </triangles>
        <triangles material="Terrazo03-basecolor-material" count="12">
          <input semantic="VERTEX" source="#Cube_015-mesh-vertices" offset="0"/>
          <input semantic="NORMAL" source="#Cube_015-mesh-normals" offset="1"/>
          <input semantic="TEXCOORD" source="#Cube_015-mesh-map-0" offset="2" set="0"/>
          <p>16 12 36 19 12 37 18 12 38 19 13 39 22 13 40 18 13 41 23 14 42 20 14 43 22 14 44 21 15 45 16 15 46 20 15 47 22 16 48 16 16 49 18 16 50 19 17 51 21 17 52 23 17 53 16 36 108 17 36 109 19 36 110 19 37 111 23 37 112 22 37 113 23 38 114 21 38 115 20 38 116 21 39 117 17 39 118 16 39 119 22 40 120 20 40 121 16 40 122 19 41 123 17 41 124 21 41 125</p>
        </triangles>
        <triangles material="Wood09-basecolor_002-material" count="12">
          <input semantic="VERTEX" source="#Cube_015-mesh-vertices" offset="0"/>
          <input semantic="NORMAL" source="#Cube_015-mesh-normals" offset="1"/>
          <input semantic="TEXCOORD" source="#Cube_015-mesh-map-0" offset="2" set="0"/>
          <p>25 18 54 26 18 55 24 18 56 27 19 57 30 19 58 26 19 59 31 20 60 28 20 61 30 20 62 29 21 63 24 21 64 28 21 65 30 22 66 24 22 67 26 22 68 27 23 69 29 23 70 31 23 71 25 42 126 27 42 127 26 42 128 27 43 129 31 43 130 30 43 131 31 44 132 29 44 133 28 44 134 29 45 135 25 45 136 24 45 137 30 46 138 28 46 139 24 46 140 27 47 141 25 47 142 29 47 143</p>
        </triangles>
      </mesh>
    </geometry>
  </library_geometries>
  <library_visual_scenes>
    <visual_scene id="Scene" name="Scene">
      <node id="Cube_005" name="Cube.005" type="NODE">
        <matrix sid="transform">0.4 0 0 0 0 -0.4625 2.18557e-9 0 0 -2.02165e-8 -0.05 0 0 0 0 1</matrix>
        <instance_geometry url="#Cube_015-mesh" name="Cube.005">
          <bind_material>
            <technique_common>
              <instance_material symbol="Wood09-basecolor-material" target="#Wood09-basecolor-material">
                <bind_vertex_input semantic="UVMap" input_semantic="TEXCOORD" input_set="0"/>
              </instance_material>
              <instance_material symbol="Terrazo03-basecolor_002-material" target="#Terrazo03-basecolor_002-material">
                <bind_vertex_input semantic="UVMap" input_semantic="TEXCOORD" input_set="0"/>
              </instance_material>
              <instance_material symbol="Terrazo03-basecolor-material" target="#Terrazo03-basecolor-material">
                <bind_vertex_input semantic="UVMap" input_semantic="TEXCOORD" input_set="0"/>
              </instance_material>
              <instance_material symbol="Wood09-basecolor_002-material" target="#Wood09-basecolor_002-material">
                <bind_vertex_input semantic="UVMap" input_semantic="TEXCOORD" input_set="0"/>
              </instance_material>
            </technique_common>
          </bind_material>
        </instance_geometry>
      </node>
    </visual_scene>
  </library_visual_scenes>
  <scene>
    <instance_visual_scene url="#Scene"/>
  </scene>
</COLLADA>