<?xml version="1.0" encoding="utf-8"?>
<COLLADA xmlns="http://www.collada.org/2005/11/COLLADASchema" version="1.4.1" xmlns:xsi="http://www.w3.org/2001/XMLSchema-instance">
  <asset>
    <contributor>
      <author>Blender User</author>
      <authoring_tool>Blender 4.4.0 commit date:2025-03-17, commit time:17:00, hash:05377985c527</authoring_tool>
    </contributor>
    <created>2026-07-07T16:42:45</created>
    <modified>2026-07-07T16:42:45</modified>
    <unit name="meter" meter="1"/>
    <up_axis>Z_UP</up_axis>
  </asset>
  <library_effects>
    <effect id="Plastic03-basecolor-effect">
      <profile_COMMON>
        <newparam sid="Plastic03-basecolor_jpeg-surface">
          <surface type="2D">
            <init_from>Plastic03-basecolor_jpeg</init_from>
          </surface>
        </newparam>
        <newparam sid="Plastic03-basecolor_jpeg-sampler">
          <sampler2D>
            <source>Plastic03-basecolor_jpeg-surface</source>
          </sampler2D>
        </newparam>
        <technique sid="common">
          <lambert>
            <emission>
              <color sid="emission">0 0 0 1</color>
            </emission>
            <diffuse>
              <texture texture="Plastic03-basecolor_jpeg-sampler" texcoord="ID662"/>
            </diffuse>
            <index_of_refraction>
              <float sid="ior">1.5</float>
            </index_of_refraction>
          </lambert>
        </technique>
      </profile_COMMON>
    </effect>
    <effect id="Plastic03-basecolor_002-effect">
      <profile_COMMON>
        <newparam sid="Plastic03-basecolor_jpeg-surface">
          <surface type="2D">
            <init_from>Plastic03-basecolor_jpeg</init_from>
          </surface>
        </newparam>
        <newparam sid="Plastic03-basecolor_jpeg-sampler">
          <sampler2D>
            <source>Plastic03-basecolor_jpeg-surface</source>
          </sampler2D>
        </newparam>
        <technique sid="common">
          <lambert>
            <emission>
              <color sid="emission">0 0 0 1</color>
            </emission>
            <diffuse>
              <texture texture="Plastic03-basecolor_jpeg-sampler" texcoord="ID662"/>
            </diffuse>
            <index_of_refraction>
              <float sid="ior">1.5</float>
            </index_of_refraction>
          </lambert>
        </technique>
      </profile_COMMON>
    </effect>
  </library_effects>
  <library_images>
    <image id="Plastic03-basecolor_jpeg" name="Plastic03-basecolor_jpeg">
      <init_from>Plastic03-basecolor.jpeg</init_from>
    </image>
  </library_images>
  <library_materials>
    <material id="Plastic03-basecolor-material" name="Plastic03-basecolor">
      <instance_effect url="#Plastic03-basecolor-effect"/>
    </material>
    <material id="Plastic03-basecolor_002-material" name="Plastic03-basecolor.002">
      <instance_effect url="#Plastic03-basecolor_002-effect"/>
    </material>
  </library_materials>
  <library_geometries>
    <geometry id="ID2504_004-mesh" name="ID2504.004">
      <mesh>
        <source id="ID2504_004-mesh-positions">
          <float_array id="ID2504_004-mesh-positions-array" count="348">48 0.28125 -0.21875 -3.8147e-6 -0.09374994 -0.21875 -3.8147e-6 0.28125 -0.21875 48 -0.09374994 -0.21875 -3.8147e-6 0.28125 0.21875 -3.8147e-6 -0.09374994 -0.21875 -3.8147e-6 -0.46875 0.21875 -3.8147e-6 0.28125 -0.21875 48 -0.09374994 -0.21875 48 0.28125 0.21875 48 -0.46875 0.21875 48 0.28125 -0.21875 48 -0.46875 0.21875 -3.8147e-6 -0.09374994 -0.21875 48 -0.09374994 -0.21875 -3.8147e-6 -0.46875 0.21875 22.26345 4.031252 -30.15625 22.26345 3.281252 -30.15625 22.26345 4.031252 -34.15625 22.26345 3.281252 -34.15625 47.99999 3.325194 -30.15625 47.99999 3.281261 -30.15626 48 4.031261 -30.15626 47.99999 4.031261 -33.92195 47.99999 4.031261 -34.15626 47.99999 3.281261 -30.39056 48 3.281261 -34.15626 47.99999 3.987329 -34.15626 47.99999 0.281261 -28.65625 23.19109 0.2812579 -30.15625 47.99999 0.281261 -30.15625 23.19109 0.2812579 -28.65625 47.88821 1.031255 -30.15625 23.19109 0.2812579 -30.15625 23.19109 1.031258 -30.15625 47.88821 0.2812496 -30.15625 47.88821 0.2812496 -28.65625 23.19109 1.031258 -28.65625 23.19109 0.2812579 -28.65625 47.88821 1.031261 -28.65625 23.19109 1.031258 -28.65625 47.99999 1.03125 -30.15625 23.19109 1.031258 -30.15625 47.99999 1.03125 -28.65625 46.6141 1.031262 0.84375 46.6141 0.2812616 -28.65625 46.6141 0.2812616 0.84375 46.6141 1.031262 -28.65625 47.99999 0.2812575 0.84375 46.6141 0.2812616 -28.65625 47.99999 0.2812575 -28.65625 46.6141 0.2812616 0.84375 47.99999 1.031261 -28.65625 47.99999 0.2812594 0.84375 47.99999 0.2812613 -28.65625 47.99999 1.031261 0.84375 22.26345 3.281249 -30.15625 -1.90735e-6 4.031243 -30.15625 -1.90735e-6 3.281243 -30.15625 22.26345 4.031249 -30.15625 -1.90735e-6 4.031243 -30.15625 22.26345 4.031249 -34.15625 -1.90735e-6 4.031243 -34.15625 22.26345 4.031249 -30.15625 -1.90735e-6 4.031243 -30.15625 -1.90735e-6 3.281243 -34.15625 -1.90735e-6 3.281243 -30.15625 -1.90735e-6 4.031243 -34.15625 22.26345 3.281249 -30.15625 -1.90735e-6 3.281243 -34.15625 22.26345 3.281249 -34.15625 -1.90735e-6 3.281243 -30.15625 22.26345 4.031249 -34.15625 22.26345 3.281249 -30.15625 22.26345 3.281249 -34.15625 22.26345 4.031249 -30.15625 22.26345 4.031249 -34.15625 -1.90735e-6 3.281243 -34.15625 -1.90735e-6 4.031243 -34.15625 22.26345 3.281249 -34.15625 21.3358 1.031246 -30.15625 0.9276419 0.2812462 -30.15625 0.9276419 1.031246 -30.15625 21.3358 0.2812462 -30.15625 0.9276419 1.031246 -28.65625 21.3358 1.031246 -30.15625 0.9276419 1.031246 -30.15625 21.3358 1.031246 -28.65625 21.3358 0.2812462 -28.65625 0.9276419 0.2812462 -30.15625 21.3358 0.2812462 -30.15625 0.9276419 0.2812462 -28.65625 21.3358 0.2812462 -28.65625 0.9276419 1.031246 -28.65625 0.9276419 0.2812462 -28.65625 21.3358 1.031246 -28.65625 0.9276471 0.2812386 0.8437519 3.33786e-6 0.2812386 -30.15625 0.9276471 0.2812386 -30.15625 3.33786e-6 0.2812386 0.8437519 3.33786e-6 1.031239 0.8437519 3.33786e-6 0.2812386 -30.15625 3.33786e-6 0.2812386 0.8437519 3.33786e-6 1.031239 -30.15625 0.9276471 1.031239 -30.15625 3.33786e-6 0.2812386 -30.15625 3.33786e-6 1.031239 -30.15625 0.9276471 0.2812386 -30.15625 0.9276471 1.031239 -30.15625 0.9276471 0.2812386 0.8437519 0.9276471 0.2812386 -30.15625 0.9276471 1.031239 0.8437519 3.33786e-6 1.031239 0.8437519 0.9276471 1.031239 -30.15625 3.33786e-6 1.031239 -30.15625 0.9276471 1.031239 0.8437519</float_array>
          <technique_common>
            <accessor source="#ID2504_004-mesh-positions-array" count="116" stride="3">
              <param name="X" type="float"/>
              <param name="Y" type="float"/>
              <param name="Z" type="float"/>
            </accessor>
          </technique_common>
        </source>
        <source id="ID2504_004-mesh-normals">
          <float_array id="ID2504_004-mesh-normals-array" count="120">0 0 -1 -1 0 0 1 0 0 0 -0.7592566 -0.6507915 0 -0.7592566 -0.6507914 0 0 1 2.09925e-7 8.10411e-6 1 -3.33504e-7 1 0 -3.33497e-7 1 0 3.33497e-7 -1 0 3.33497e-7 -1 0 -3.95256e-7 0 -1 -2.09924e-7 0 -1 1 0 -1.01303e-6 1.27335e-7 -1 0 1.27335e-7 -1 0 2.05944e-7 0 -1 3.36357e-7 1 0 3.36357e-7 1 0 -2.05021e-7 0 1 -3.01056e-6 -1 0 -3.01057e-6 -1 0 3.44065e-7 1 0 -2.57015e-7 1 0 2.57015e-7 -1 0 0 1 0 0 -1 0 2.10864e-7 -1.30246e-4 1 -3.33497e-7 1 0 3.33497e-7 -1 0 -4.21739e-7 0 -1 1 -1.35068e-6 -1.01301e-6 1 0 1.01301e-6 1 1.35068e-6 1.01301e-6 -0.03021705 -0.9995434 0 -4.82407e-6 0 -1 3.67002e-6 0 -1 -2.30093e-6 0 -1 0 0.7059012 -0.7083104 -0.4758249 0.879256 -0.022354</float_array>
          <technique_common>
            <accessor source="#ID2504_004-mesh-normals-array" count="40" stride="3">
              <param name="X" type="float"/>
              <param name="Y" type="float"/>
              <param name="Z" type="float"/>
            </accessor>
          </technique_common>
        </source>
        <source id="ID2504_004-mesh-map-0">
          <float_array id="ID2504_004-mesh-map-0-array" count="498">2.300426 2.572043 2.315793 4.538995 2.300426 4.538995 2.315793 4.538995 2.300426 2.572043 2.315793 2.572043 2.319404 4.56233 2.315793 4.538995 2.339405 4.538995 2.315793 4.538995 2.319404 4.56233 2.305792 4.550663 2.315793 2.572043 2.319404 2.548708 2.339405 2.572043 2.319404 2.548708 2.315793 2.572043 2.305792 2.560376 2.339405 2.572043 2.315793 4.538995 2.315793 2.572043 2.315793 4.538995 2.339405 2.572043 2.339405 4.538995 2.215148 -1.100871 2.217511 -5.050504 2.255488 -1.100871 2.255488 -1.100871 2.217511 -5.050504 2.255488 -5.050504 2.470635 -1.100871 2.458033 -5.050504 2.470635 -5.050504 2.255488 -1.100871 2.255488 -5.050504 2.458033 -5.050504 2.215148 -1.060531 2 -1.100871 2.215148 -1.100871 2 -1.100871 2.215148 -1.060531 2 -1.060531 2 -1.100871 2 -5.050504 2.202546 -5.050504 2.202546 -5.050504 2.215148 -1.100871 2 -1.100871 1.95966 -1.100871 1.962023 -5.050504 2 -1.100871 2 -1.100871 1.962023 -5.050504 2 -5.050504 0 0 0 0 0 0 1.22538 -6.52974 1.163913 -3.743224 1.163913 -6.52974 1.163913 -3.743224 1.22538 -6.52974 1.22538 -3.743224 1.133179 -6.52974 1.163913 -3.743224 1.133179 -3.743224 1.163913 -3.743224 1.133179 -6.52974 1.163913 -6.52974 1.22538 -6.52974 1.256114 -3.743224 1.22538 -3.743224 1.256114 -3.743224 1.22538 -6.52974 1.256114 -6.52974 1.256114 -3.743224 1.317581 -6.52974 1.317581 -3.743224 1.317581 -6.52974 1.256114 -3.743224 1.256114 -6.52974 1.163913 -6.52974 1.256114 -6.52974 1.22538 -6.52974 1.256114 -3.743224 1.22538 -6.52974 1.256114 -6.52974 5.777923 1.372769 5.808657 0.22538 5.808657 1.372769 5.808657 0.22538 5.777923 1.372769 5.777923 0.22538 5.890613 1.372769 5.808657 0.22538 5.890613 0.22538 5.808657 0.22538 5.890613 1.372769 5.808657 1.372769 5.921347 0.22538 5.890613 1.372769 5.890613 0.22538 5.890613 1.372769 5.921347 0.22538 5.921347 1.372769 5.777923 0.22538 5.808657 0.22538 5.808657 0.22538 5.921347 0.22538 5.777923 1.372769 5.921347 1.372769 2.215148 -0.9750369 2.255488 1.606734 2.215148 1.606734 2.255488 1.606734 2.215148 -0.9750369 2.255488 -0.9750369 2.255488 1.606734 2.470635 -0.9750369 2.470635 1.606734 2.470635 -0.9750369 2.255488 1.606734 2.255488 -0.9750369 2.215148 1.647074 2 1.606734 2.215148 1.606734 2 1.606734 2.215148 1.647074 2 1.647074 2.215148 -0.9750369 2 1.606734 2 -0.9750369 2 1.606734 2.215148 -0.9750369 2.215148 1.606734 2 -1.015377 2.215148 -0.9750369 2 -0.9750369 2.215148 -0.9750369 2 -1.015377 2.215148 -1.015377 1.95966 -0.9750369 2 1.606734 1.95966 1.606734 2 1.606734 1.95966 -0.9750369 2 -0.9750369 1.133179 -5.904823 1.163913 -4.101783 1.133179 -4.101783 1.163913 -4.101783 1.133179 -5.904823 1.163913 -5.904823 1.256114 -4.101783 1.317581 -5.904823 1.317581 -4.101783 1.317581 -5.904823 1.256114 -4.101783 1.256114 -5.904823 1.22538 -5.904823 1.163913 -4.101783 1.163913 -5.904823 1.163913 -4.101783 1.22538 -5.904823 1.22538 -4.101783 1.22538 -5.904823 1.256114 -4.101783 1.22538 -4.101783 1.256114 -4.101783 1.22538 -5.904823 1.256114 -5.904823 8.961417 3.388383 8.87946 2.11806 8.961417 2.11806 8.87946 2.11806 8.961417 3.388383 8.87946 3.388383 8.848727 3.388383 8.87946 2.11806 8.87946 3.388383 8.87946 2.11806 8.848727 3.388383 8.848727 2.11806 8.961417 2.087326 8.87946 2.11806 8.87946 2.087326 8.87946 2.11806 8.961417 2.087326 8.961417 2.11806 8.99215 2.11806 8.961417 3.388383 8.961417 2.11806 8.961417 3.388383 8.99215 2.11806 8.99215 3.388383 9.074107 3.388383 8.99215 2.11806 9.074107 2.11806 8.99215 2.11806 9.074107 3.388383 8.99215 3.388383 2.215148 -1.100871 2.215148 -5.050504 2.217511 -5.050504 2.470635 -1.100871 2.255488 -1.100871 2.458033 -5.050504 2.202546 -5.050504 2.215148 -5.050504 2.215148 -1.100871 1.95966 -1.100871 1.95966 -5.050504 1.962023 -5.050504 0 0 0 0 0 0 0 0 0 0 0 0 0 0 0 0 0 0 0 0 0 0 0 0 0 0 0 0 0 0 1.163913 -6.52974 1.317581 -6.52974 1.256114 -6.52974 1.256114 -3.743224 1.317581 -3.743224 1.22538 -6.52974 5.777923 0.22538 5.890613 0.22538 5.808657 0.22538 0 0 5.921347 0.22538 5.890613 0.22538 0 0 5.890613 0.22538 5.808657 0.22538 5.890613 0.22538 0 0 5.808657 0.22538 5.921347 0.22538 5.808657 0.22538 5.777923 1.372769</float_array>
          <technique_common>
            <accessor source="#ID2504_004-mesh-map-0-array" count="249" stride="2">
              <param name="S" type="float"/>
              <param name="T" type="float"/>
            </accessor>
          </technique_common>
        </source>
        <vertices id="ID2504_004-mesh-vertices">
          <input semantic="POSITION" source="#ID2504_004-mesh-positions"/>
        </vertices>
        <triangles material="Plastic03-basecolor-material" count="71">
          <input semantic="VERTEX" source="#ID2504_004-mesh-vertices" offset="0"/>
          <input semantic="NORMAL" source="#ID2504_004-mesh-normals" offset="1"/>
          <input semantic="TEXCOORD" source="#ID2504_004-mesh-map-0" offset="2" set="0"/>
          <p>0 0 0 1 0 1 2 0 2 1 0 3 0 0 4 3 0 5 4 1 6 5 1 7 6 1 8 5 1 9 4 1 10 7 1 11 8 2 12 9 2 13 10 2 14 9 2 15 8 2 16 11 2 17 12 3 18 13 3 19 14 3 20 13 4 21 12 4 22 15 4 23 17 5 24 20 5 25 16 5 26 16 6 27 20 6 28 22 6 29 18 7 30 23 7 31 24 7 32 16 8 33 22 8 34 23 8 35 16 1 36 19 1 37 17 1 38 19 1 39 16 1 40 18 1 41 19 9 42 26 9 43 25 9 44 25 10 45 17 10 46 19 10 47 18 11 48 27 11 49 19 11 50 19 12 51 27 12 52 26 12 53 26 13 54 27 13 55 23 13 56 28 14 57 29 14 58 30 14 59 29 15 60 28 15 61 31 15 62 32 0 63 33 0 64 34 0 65 33 16 66 32 16 67 35 16 68 36 5 69 37 5 70 38 5 71 37 5 72 36 5 73 39 5 74 40 17 75 41 17 76 42 17 77 41 18 78 40 18 79 43 18 80 30 2 81 43 2 82 28 2 83 40 19 84 28 19 85 43 19 86 44 1 87 45 1 88 46 1 89 45 1 90 44 1 91 47 1 92 48 20 93 49 20 94 50 20 95 49 21 96 48 21 97 51 21 98 52 2 99 53 2 100 54 2 101 53 2 102 52 2 103 55 2 104 47 5 105 49 5 106 45 5 107 52 22 108 44 22 109 55 22 110 80 0 147 81 0 148 82 0 149 81 0 150 80 0 151 83 0 152 84 25 153 85 25 154 86 25 155 85 25 156 84 25 157 87 25 158 88 26 159 89 26 160 90 26 161 89 26 162 88 26 163 91 26 164 92 5 165 93 5 166 94 5 167 93 5 168 92 5 169 95 5 170 96 26 171 97 26 172 98 26 173 97 26 174 96 26 175 99 26 176 100 1 177 101 1 178 102 1 179 101 1 180 100 1 181 103 1 182 104 0 183 105 0 184 106 0 185 105 0 186 104 0 187 107 0 188 108 2 189 109 2 190 110 2 191 109 2 192 108 2 193 111 2 194 112 25 195 113 25 196 114 25 197 113 25 198 112 25 199 115 25 200 17 27 201 21 27 202 20 27 203 18 28 204 16 28 205 23 28 206 25 29 207 21 29 208 17 29 209 18 30 210 24 30 211 27 30 212 27 2 213 24 2 214 23 2 215 23 31 216 22 31 217 25 31 218 22 32 219 20 32 220 25 32 221 20 2 222 21 2 223 25 2 224 25 33 225 26 33 226 23 33 227 30 2 228 41 2 229 43 2 230 40 34 231 42 34 232 28 34 233 47 35 234 50 35 235 49 35 236 47 36 237 52 36 238 54 36 239 47 37 240 54 37 241 45 37 242 54 38 243 50 38 244 45 38 245 52 39 246 45 39 247 44 39 248</p>
        </triangles>
        <triangles material="Plastic03-basecolor_002-material" count="12">
          <input semantic="VERTEX" source="#ID2504_004-mesh-vertices" offset="0"/>
          <input semantic="NORMAL" source="#ID2504_004-mesh-normals" offset="1"/>
          <input semantic="TEXCOORD" source="#ID2504_004-mesh-map-0" offset="2" set="0"/>
          <p>56 5 111 57 5 112 58 5 113 57 5 114 56 5 115 59 5 116 60 23 117 61 23 118 62 23 119 61 23 120 60 23 121 63 23 122 64 1 123 65 1 124 66 1 125 65 1 126 64 1 127 67 1 128 68 24 129 69 24 130 70 24 131 69 24 132 68 24 133 71 24 134 72 2 135 73 2 136 74 2 137 73 2 138 72 2 139 75 2 140 76 0 141 77 0 142 78 0 143 77 0 144 76 0 145 79 0 146</p>
        </triangles>
      </mesh>
    </geometry>
  </library_geometries>
  <library_visual_scenes>
    <visual_scene id="Scene" name="Scene">
      <node id="instance_214_005" name="instance_214.005" type="NODE">
        <matrix sid="transform">1.69201e-8 -0.025 0 0.2032641 0 0 -0.025 -0.8539062 0.0539 7.84791e-9 0 -2.325293 0 0 0 1</matrix>
        <instance_geometry url="#ID2504_004-mesh" name="instance_214.005">
          <bind_material>
            <technique_common>
              <instance_material symbol="Plastic03-basecolor-material" target="#Plastic03-basecolor-material">
                <bind_vertex_input semantic="ID662" input_semantic="TEXCOORD" input_set="0"/>
              </instance_material>
              <instance_material symbol="Plastic03-basecolor_002-material" target="#Plastic03-basecolor_002-material">
                <bind_vertex_input semantic="ID662" input_semantic="TEXCOORD" input_set="0"/>
              </instance_material>
            </technique_common>
          </bind_material>
        </instance_geometry>
      </node>
    </visual_scene>
  </library_visual_scenes>
  <scene>
    <instance_visual_scene url="#Scene"/>
  </scene>
</COLLADA>