<?xml version="1.0" encoding="utf-8"?>
<COLLADA xmlns="http://www.collada.org/2005/11/COLLADASchema" version="1.4.1" xmlns:xsi="http://www.w3.org/2001/XMLSchema-instance">
  <asset>
    <contributor>
      <author>Blender User</author>
      <authoring_tool>Blender 4.4.0 commit date:2025-03-17, commit time:17:00, hash:05377985c527</authoring_tool>
    </contributor>
    <created>2026-07-07T16:42:06</created>
    <modified>2026-07-07T16:42:06</modified>
    <unit name="meter" meter="1"/>
    <up_axis>Z_UP</up_axis>
  </asset>
  <library_effects>
    <effect id="Terrazo03-basecolor-effect">
      <profile_COMMON>
        <newparam sid="Marble012_2K-JPG_Roughness_-_복사본_jpg-surface">
          <surface type="2D">
            <init_from>Marble012_2K-JPG_Roughness_-_복사본_jpg</init_from>
          </surface>
        </newparam>
        <newparam sid="Marble012_2K-JPG_Roughness_-_복사본_jpg-sampler">
          <sampler2D>
            <source>Marble012_2K-JPG_Roughness_-_복사본_jpg-surface</source>
          </sampler2D>
        </newparam>
        <technique sid="common">
          <lambert>
            <emission>
              <color sid="emission">0 0 0 1</color>
            </emission>
            <diffuse>
              <texture texture="Marble012_2K-JPG_Roughness_-_복사본_jpg-sampler" texcoord="ID2271"/>
            </diffuse>
            <index_of_refraction>
              <float sid="ior">1.5</float>
            </index_of_refraction>
          </lambert>
        </technique>
      </profile_COMMON>
    </effect>
    <effect id="material-effect">
      <profile_COMMON>
        <technique sid="common">
          <lambert>
            <emission>
              <color sid="emission">0 0 0 1</color>
            </emission>
            <diffuse>
              <color sid="diffuse">1 1 1 1</color>
            </diffuse>
            <index_of_refraction>
              <float sid="ior">1.5</float>
            </index_of_refraction>
          </lambert>
        </technique>
      </profile_COMMON>
    </effect>
    <effect id="Terrazo03-basecolor_002-effect">
      <profile_COMMON>
        <newparam sid="Marble012_2K-JPG_Roughness_-_복사본_jpg-surface">
          <surface type="2D">
            <init_from>Marble012_2K-JPG_Roughness_-_복사본_jpg</init_from>
          </surface>
        </newparam>
        <newparam sid="Marble012_2K-JPG_Roughness_-_복사본_jpg-sampler">
          <sampler2D>
            <source>Marble012_2K-JPG_Roughness_-_복사본_jpg-surface</source>
          </sampler2D>
        </newparam>
        <technique sid="common">
          <lambert>
            <emission>
              <color sid="emission">0 0 0 1</color>
            </emission>
            <diffuse>
              <texture texture="Marble012_2K-JPG_Roughness_-_복사본_jpg-sampler" texcoord="ID2271"/>
            </diffuse>
            <index_of_refraction>
              <float sid="ior">1.5</float>
            </index_of_refraction>
          </lambert>
        </technique>
      </profile_COMMON>
    </effect>
  </library_effects>
  <library_images>
    <image id="Marble012_2K-JPG_Roughness_-_복사본_jpg" name="Marble012_2K-JPG_Roughness_-_복사본_jpg">
      <init_from>Marble012_2K-JPG_Roughness%20-%20%EB%B3%B5%EC%82%AC%EB%B3%B8.jpg</init_from>
    </image>
  </library_images>
  <library_materials>
    <material id="Terrazo03-basecolor-material" name="Terrazo03-basecolor">
      <instance_effect url="#Terrazo03-basecolor-effect"/>
    </material>
    <material id="material-material" name="material">
      <instance_effect url="#material-effect"/>
    </material>
    <material id="Terrazo03-basecolor_002-material" name="Terrazo03-basecolor.002">
      <instance_effect url="#Terrazo03-basecolor_002-effect"/>
    </material>
  </library_materials>
  <library_geometries>
    <geometry id="ID2321_003-mesh" name="ID2321.003">
      <mesh>
        <source id="ID2321_003-mesh-positions">
          <float_array id="ID2321_003-mesh-positions-array" count="369">-45.01172 14.90068 3.48893 -45.01172 14.40068 0.16893 -45.01172 14.40068 2.48893 -45.01172 -8.599324 0.1689262 -45.01172 -7.849321 -0.62857 -45.01172 -8.599322 -1.25357 -45.01172 15.40068 -0.62857 -45.01172 15.40068 3.48893 -45.01172 -7.849321 -1.25357 -24.3059 11.05986 -0.62857 6.282459 11.05986 -0.62857 6.282459 -7.821 -0.62857 -24.3059 -7.821 -0.62857 -44.76172 -8.599322 0.16893 -45.01172 -8.349324 0.6039276 -45.01173 14.40068 0.6039276 -24.3059 -6.695999 0.60393 6.282459 -6.695999 0.60393 6.282459 11.05986 0.60393 -24.3059 11.05986 0.60393 10.47627 15.40068 -0.62857 10.47627 14.04017 -0.62857 10.47627 13.13952 -0.62857 10.47628 3.304361 -0.62857 10.47628 -7.84833 -0.62857 9.728274 -7.848892 -0.62857 9.728274 -7.849325 -0.62857 10.47628 -8.599326 0.1675972 10.47628 -8.599341 -1.25357 10.47628 -8.599326 0.16893 10.47627 14.40068 2.03714 10.47627 14.40068 0.60393 10.47627 14.40068 2.48893 10.47627 14.77919 3.245952 10.47627 14.90068 3.48893 10.47627 15.02216 3.48893 10.47627 15.40068 3.48893 10.47627 15.40068 0.3878766 10.47628 -8.35041 0.6020428 9.728274 -8.350406 0.6020492 9.728274 -8.349341 0.60393 9.728274 -8.339387 0.60393 10.47628 -8.32585 0.6039282 10.47628 -8.073723 0.60393 10.47627 13.38386 0.60393 10.47627 12.69583 0.60393 -45.01172 -7.849321 -1.25357 -45.01172 -8.224322 -1.69107 -45.01172 -8.599322 -1.25357 -45.01172 -7.849321 -1.69107 -45.01172 -7.849321 -1.25357 -45.01172 -7.849321 -1.69107 -45.01172 -8.599322 -1.25357 -45.01172 -7.849321 -1.25357 10.47628 -7.849325 -1.686245 9.728274 -7.84934 -1.69107 10.47628 -7.857599 -1.253574 10.47628 -7.857599 -1.253571 10.47628 -8.599326 -1.25357 -92.76173 -8.349346 0.6038956 -93.01173 14.40065 0.1688956 -93.01173 -8.599346 0.1688956 -92.76173 14.40065 0.6038956 -45.01173 14.40066 2.488895 -45.01172 14.40066 0.6038933 -45.01173 14.40066 0.1688956 -92.76173 14.40065 0.6038956 -93.01173 14.40065 2.488895 -93.01173 14.40065 0.1688956 -93.01173 14.90065 3.488895 -93.01173 14.40065 0.1688956 -93.01173 14.40065 2.488895 -93.01173 -8.599346 0.1688956 -93.01173 -7.849345 -0.6286044 -93.01173 -8.599346 -1.253604 -93.01173 15.40065 -0.6286044 -93.01173 15.40065 3.488895 -93.01173 -7.849345 -1.253604 -45.01172 -8.34934 0.6038933 -45.26173 -8.59934 0.1688956 -45.01173 -8.59934 0.1688956 -92.76173 -8.599346 0.1688956 -93.01173 -8.599346 0.1688956 -92.76173 -8.349346 0.6038956 -45.01172 -8.34934 0.6038933 -92.76173 14.40065 0.6038956 -92.76173 -8.349346 0.6038956 -45.01172 14.40066 0.6038933 -45.01173 14.40066 0.1688956 -45.01172 -8.34934 0.6038933 -45.01173 -8.59934 0.1688956 -45.01172 14.40066 0.6038933 -45.01173 -7.849339 -1.253604 -45.01173 -8.59934 0.1688956 -45.01173 -8.59934 -1.253604 -45.01173 -7.849339 -0.6286044 -45.01173 14.40066 0.1688956 -45.01173 15.40066 -0.6286044 -45.01173 14.40066 2.488895 -45.01173 14.90066 3.488895 -45.01173 15.40066 3.488895 -45.01173 14.90066 3.488895 -93.01173 14.40065 2.488895 -45.01173 14.40066 2.488895 -93.01173 14.90065 3.488895 -45.01173 15.40066 -0.6286044 -93.01173 -7.849345 -0.6286044 -93.01173 15.40065 -0.6286044 -45.01173 -7.849339 -0.6286044 -45.01172 -8.599336 0.1688957 -93.01173 -8.599346 -1.253604 -45.01173 -8.59934 -1.253604 -93.01173 -8.599346 0.1688956 -45.26173 -8.59934 0.1688956 -92.76173 -8.599346 0.1688956 -45.01173 14.90066 3.488895 -93.01173 15.40065 3.488895 -93.01173 14.90065 3.488895 -45.01173 15.40066 3.488895 -93.01173 15.40065 3.488895 -45.01173 15.40066 -0.6286044 -93.01173 15.40065 -0.6286044 -45.01173 15.40066 3.488895</float_array>
          <technique_common>
            <accessor source="#ID2321_003-mesh-positions-array" count="123" stride="3">
              <param name="X" type="float"/>
              <param name="Y" type="float"/>
              <param name="Z" type="float"/>
            </accessor>
          </technique_common>
        </source>
        <source id="ID2321_003-mesh-normals">
          <float_array id="ID2321_003-mesh-normals-array" count="267">-1 1.31541e-5 0 -1 0 -2.68169e-6 -1 0 -4.62736e-6 -1 0 0 0 0 -1 0 0 -1 0 0 -1 0 0 -1 0 0 -1 -3.43741e-7 -1 1.08359e-5 0 -1 -1.48861e-6 -1 3.72342e-7 0 -1 0 -1.75389e-5 0 -1 0 0 -1 0 0 -0.8944262 0.4472156 0 -0.8944271 0.447214 0 0 1 0 1 0 0 -0.8670133 0.4982852 -9.56972e-7 -0.8675678 0.4973192 0 -0.8670147 0.4982826 0 0 1 0 -8.96583e-7 1 0 4.47347e-7 1 0 0 1 0 0 1 1 0 0 1 7.86741e-7 2.79256e-7 -1.11329e-5 0.999999 -0.001444876 1.49158e-4 0.9998173 0.0191195 0 0 -1 0 -8.03594e-7 -1 1 -5.39189e-6 0 -1 -3.47821e-5 3.65631e-5 -0.867014 0 0.4982839 -0.867014 0 0.498284 0 1 0 1.19833e-7 -1 0 0 -1 0 1.19209e-7 -1 0 -1 2.14535e-5 0 -1 -1.64128e-5 0 0 -0.8670128 0.498286 0 -0.8670129 0.498286 1.27378e-7 -0.8670139 0.4982838 0 0 1 0 0 1 1 0 -1.75389e-5 1 0 -1.75389e-5 1 -1.6276e-5 0 1 1.31541e-5 0 1 -1.19268e-5 0 0 -0.8944273 0.4472137 0 -0.8944273 0.4472137 1.19209e-7 -1 2.68169e-6 1.98682e-7 -1 0 -4.78704e-5 0.999491 0.03190219 3.27001e-5 0.999491 0.03190219 4.78461e-5 0.999491 0.03190219 -4.7552e-5 -1 0 4.80863e-5 -1 0 4.79658e-5 -1 0 0 1 0 -1.19209e-7 1 0 0 0 -1 0 0 -1 0 0 -1 0 -1 0 0 -1 0 0 -0.8944297 0.4472087 -1.29357e-7 -0.8669484 0.4983979 -2.94971e-7 -0.8699876 0.4930736 2.33576e-6 4.82915e-6 1 -2.31121e-6 -7.0923e-6 1 0 0 1 0 0 1 1 -3.32706e-7 0 1 -1.23013e-6 0 1 4.69122e-7 0 1 3.72551e-7 3.39114e-6 3.48438e-7 1 0 -1.49596e-4 -1 0 1 5.55855e-4 0 1 3.06898e-5 5.53382e-6 1 3.89557e-6 -4.68089e-6 -0.9999992 0.00136137 0 -1 3.55385e-4 -1.86772e-4 1 -2.70408e-4 4.21041e-5</float_array>
          <technique_common>
            <accessor source="#ID2321_003-mesh-normals-array" count="89" stride="3">
              <param name="X" type="float"/>
              <param name="Y" type="float"/>
              <param name="Z" type="float"/>
            </accessor>
          </technique_common>
        </source>
        <source id="ID2321_003-mesh-map-0">
          <float_array id="ID2321_003-mesh-map-0-array" count="786">10.22339 3.057156 9.786844 2.99141 10.0919 2.99141 9.786844 -0.03287261 9.68198 0.06574523 9.599798 -0.03287261 9.68198 0.06574523 9.786844 -0.03287261 9.786844 2.99141 9.68198 0.06574523 9.786844 2.99141 9.68198 3.122901 9.68198 3.122901 9.786844 2.99141 10.22339 3.057156 9.68198 3.122901 10.22339 3.057156 10.22339 3.122901 9.599798 0.06574523 9.599798 -0.03287261 9.68198 0.06574523 10.12477 3.122901 7.402153 2.552124 10.12477 0.06574523 7.402153 2.552124 0.469271 3.122901 0.4692713 2.944008 3.380073 2.552124 0.4692713 2.944008 0.4692714 2.82558 3.380073 2.552124 0.4692718 1.532352 3.380073 0.06946933 3.380073 0.06946933 0.4692718 1.532352 0.4692717 0.06587809 7.402153 0.06946933 0.4692717 0.06574523 10.12477 0.06574523 7.402153 0.06946933 10.12477 0.06574523 7.402153 2.552124 3.380073 0.06946933 0.4692718 0.06580221 7.402153 0.06946933 10.22339 -0.253017 19.8789 -0.253017 19.8789 -0.06614691 19.8789 -0.06614691 10.22339 -0.06597167 10.22339 -0.253017 10.25626 0 10.19029 2.99141 10.19029 -0.03287261 10.19029 2.99141 10.25626 0 10.25626 2.99141 10.25626 2.99141 19.87889 2.99141 19.87889 3.179864 10.25626 2.99141 10.22339 3.23927 10.22339 2.934212 10.22339 3.23927 19.87889 3.179864 19.87889 3.23927 10.22339 3.23927 19.87889 3.23927 19.8789 3.35056 19.8789 3.35056 10.22339 3.386281 10.22339 3.23927 10.22339 3.057156 19.8789 3.073131 10.22339 3.122901 10.22339 3.122901 19.8789 3.073131 19.87889 3.122901 10.22339 3.664313 19.87889 3.53066 19.87889 3.664313 10.22339 3.122901 19.87889 3.122901 19.87889 3.53066 10.25626 -0.06597167 19.8789 -0.06597167 19.87889 -2.86203e-4 10.25626 -0.06597167 19.87889 -2.86211e-4 10.22339 -0.06597167 19.87889 -2.85235e-4 10.25626 0 10.22339 -0.06597167 10.25626 0 12.94601 0.2173961 10.25626 2.99141 19.87889 0 12.94601 0.2173961 10.25626 0 19.87889 0.001306772 16.96809 0.2173961 12.94601 0.2173961 16.96809 0.2173961 19.87889 0.03623902 16.96809 2.552124 12.94601 2.552124 19.87889 2.99141 10.25626 2.99141 12.94601 2.552124 10.25626 2.99141 12.94601 0.2173961 16.96809 2.552124 19.87889 2.857708 12.94601 2.552124 16.96809 2.552124 19.87889 0.03623914 19.87889 2.767239 19.8789 3.35056 19.87889 3.23927 19.87889 3.122901 0.4692718 1.532352 0.4692721 2.82558 19.87889 2.767239 0 0 0 0 0 0 0 0 0 0 0 0 0 0 0 0 0 0 0 0 0 0 0 0 0 0 0 0 0 0 0 0 0 0 0 0 19.87889 -2.86203e-4 19.8789 -0.06614691 19.8789 -0.253017 0 0 0 0 0.4692717 0.06587809 19.87889 0.003086924 19.87889 0.03623902 19.8789 -0.06597167 0 0 19.87889 -2.86203e-4 0 0 0 0 -0.06597167 2.99141 -0.06597167 -0.03287261 -0.06597167 2.99141 0 0 0 2.99141 6.278674 3.23927 6.245802 2.99141 6.278674 2.934212 6.245802 2.99141 6.278674 3.23927 0 2.99141 0 2.99141 -0.03287261 3.23927 -0.03287261 2.934212 -0.03287261 3.23927 0 2.99141 6.278674 3.23927 0.370577 3.057156 -0.06597167 2.99141 0.2390864 2.99141 -0.06597167 -0.03287261 -0.1708354 0.06574523 -0.253017 -0.03287261 -0.1708354 0.06574523 -0.06597167 -0.03287261 -0.06597167 2.99141 -0.1708354 0.06574523 -0.06597167 2.99141 -0.1708354 3.122901 -0.1708354 3.122901 -0.06597167 2.99141 0.370577 3.057156 -0.1708354 3.122901 0.370577 3.057156 0.370577 3.122901 -0.253017 0.06574523 -0.253017 -0.03287261 -0.1708354 0.06574523 6.245802 0 6.245802 -0.06597167 6.278674 -0.06597167 6.245802 -0.06597167 6.245802 0 0 -0.06597167 0 -0.06597167 6.245802 0 -0.03287261 -0.06597167 -0.03287261 -0.06597167 6.245802 0 0 0 6.245802 0 0 2.99141 0 0 0 2.99141 6.245802 0 6.245802 2.99141 6.311773 2.99141 6.245802 0 6.311773 -0.03287261 6.245802 0 6.311773 2.99141 6.245802 2.99141 6.498819 0.06574523 6.311773 -0.03287261 6.498819 -0.03287261 6.311773 -0.03287261 6.498819 0.06574523 6.416637 0.06574523 6.311773 -0.03287261 6.416637 0.06574523 6.311773 2.99141 6.311773 2.99141 6.416637 0.06574523 6.416637 3.122901 6.311773 2.99141 6.416637 3.122901 6.006715 2.99141 6.006715 2.99141 6.416637 3.122901 5.875225 3.057156 5.875225 3.057156 6.416637 3.122901 5.875225 3.122901 6.278674 3.386281 -0.03287261 3.23927 6.278674 3.23927 -0.03287261 3.23927 6.278674 3.386281 -0.03287261 3.386281 14.06949 3.122901 20.38104 0.06574523 20.38104 3.122901 20.38104 0.06574523 14.06949 3.122901 14.06949 0.06574523 6.278674 -0.06597167 -0.03287261 -0.253017 6.278674 -0.253017 -0.03287261 -0.253017 6.278674 -0.06597167 -0.03287261 -0.06597167 -0.03287261 -0.06597167 6.278674 -0.06597167 6.245802 -0.06597167 -0.03287261 -0.06597167 6.245802 -0.06597167 0 -0.06597167 6.278674 3.057156 -0.03287261 3.122901 -0.03287261 3.057156 -0.03287261 3.122901 6.278674 3.057156 6.278674 3.122901 -0.03287261 3.122901 6.278674 3.664313 -0.03287261 3.664313 6.278674 3.664313 -0.03287261 3.122901 6.278674 3.122901 7.402153 2.552124 10.12477 3.122901 0.469271 3.122901 3.380073 2.552124 7.402153 2.552124 0.4692713 2.944008 3.380073 2.552124 0.4692721 2.82558 0.4692718 1.532352 7.402153 0.06946933 0.4692718 0.06580221 0.4692717 0.06574523 3.380073 0.06946933 0.4692717 0.06587809 0.4692718 0.06580221 19.8789 -0.06614691 19.8789 -0.06597167 10.22339 -0.06597167 10.22339 3.23927 10.25626 2.99141 19.87889 3.179864 19.8789 3.35056 19.8789 3.386281 10.22339 3.386281 10.22339 3.057156 19.8789 3.057156 19.8789 3.073131 10.22339 3.664313 10.22339 3.122901 19.87889 3.53066 10.25626 -0.06597167 19.87889 -2.86211e-4 19.87889 -2.86211e-4 19.87889 -2.85235e-4 19.87889 0 10.25626 0 19.87889 0 19.87889 0.001306772 12.94601 0.2173961 19.87889 0.001306772 19.87889 0.003086924 16.96809 0.2173961 16.96809 0.2173961 19.87889 0.003086924 19.87889 0.03623902 12.94601 2.552124 19.87889 2.857708 19.87889 2.99141 16.96809 2.552124 19.87889 2.767239 19.87889 2.857708 19.87889 3.179864 19.87889 2.99141 19.87889 3.53066 19.87889 3.53066 19.87889 3.122901 19.87889 3.179864 19.87889 3.122901 19.8789 3.073131 19.8789 3.35056 19.87889 3.179864 19.87889 3.122901 19.87889 3.23927 19.8789 3.073131 19.8789 3.057156 19.8789 3.35056 0.4692713 2.944008 19.87889 3.664313 19.87889 2.99141 19.87889 3.664313 19.87889 3.53066 19.87889 2.99141 19.87889 2.99141 19.87889 2.857708 0.4692713 2.944008 19.87889 2.767239 19.87889 0.03623914 0.4692718 1.532352 19.87889 0.03623914 0.4692717 0.06587809 0.4692718 1.532352 19.87889 2.857708 19.87889 2.767239 0.4692721 2.82558 0.4692721 2.82558 0.4692713 2.944008 19.87889 2.857708 0 0 0 0 0 0 0 0 0 0 0 0 19.87889 -2.86203e-4 19.8789 -0.06597167 19.8789 -0.06614691 19.87889 0.03623914 19.87889 0.003086924 0.4692717 0.06587809 19.87889 0.003086924 0 0 0.4692717 0.06587809 0 0 0 0 0 0 19.8789 -0.06614691 19.8789 -0.06597167 19.87889 0.03623902 19.8789 -0.06597167 19.87889 -2.86203e-4 19.87889 0.003086924 0 0 19.8789 -0.06614691 0.4692717 0.06587809 19.87889 0.03623902 0.4692717 0.06587809 19.8789 -0.06614691 0 0 19.87889 0.003086924 19.87889 -2.86203e-4</float_array>
          <technique_common>
            <accessor source="#ID2321_003-mesh-map-0-array" count="393" stride="2">
              <param name="S" type="float"/>
              <param name="T" type="float"/>
            </accessor>
          </technique_common>
        </source>
        <vertices id="ID2321_003-mesh-vertices">
          <input semantic="POSITION" source="#ID2321_003-mesh-positions"/>
        </vertices>
        <triangles material="Terrazo03-basecolor-material" count="85">
          <input semantic="VERTEX" source="#ID2321_003-mesh-vertices" offset="0"/>
          <input semantic="NORMAL" source="#ID2321_003-mesh-normals" offset="1"/>
          <input semantic="TEXCOORD" source="#ID2321_003-mesh-map-0" offset="2" set="0"/>
          <p>0 0 0 1 0 1 2 0 2 3 1 3 4 1 4 5 1 5 4 2 6 3 2 7 1 2 8 4 3 9 1 3 10 6 3 11 6 3 12 1 3 13 0 3 14 6 3 15 0 3 16 7 3 17 8 3 18 5 3 19 4 3 20 6 4 21 9 4 22 4 4 23 9 5 24 20 5 25 21 5 26 10 6 27 21 6 28 22 6 29 10 7 30 23 7 31 11 7 32 11 4 33 23 4 34 24 4 35 12 8 36 26 8 37 4 8 38 12 4 39 4 4 40 9 4 41 11 4 42 25 4 43 12 4 44 5 9 45 28 9 46 27 9 47 27 10 48 3 10 49 5 10 50 14 11 51 1 11 52 3 11 53 1 12 54 14 12 55 15 12 56 15 13 57 31 13 58 30 13 59 15 3 60 2 3 61 1 3 62 2 14 63 30 14 64 32 14 65 2 15 66 32 15 67 33 15 68 33 16 69 0 16 70 2 16 71 0 17 72 35 17 73 7 17 74 7 17 75 35 17 76 36 17 77 6 18 78 37 18 79 20 18 80 7 18 81 36 18 82 37 18 83 13 19 84 29 19 85 38 19 86 13 20 87 39 20 88 3 20 89 39 21 90 14 21 91 3 21 92 14 22 93 16 22 94 15 22 95 40 23 96 16 23 97 14 23 98 41 17 99 17 17 100 16 17 101 17 17 102 43 17 103 18 17 104 19 24 105 31 24 106 15 24 107 19 25 108 15 25 109 16 25 110 18 17 111 44 17 112 19 17 113 18 26 114 43 26 115 45 26 116 33 27 117 32 27 118 36 27 119 23 28 120 22 28 121 45 28 122 46 3 123 47 3 124 48 3 125 47 3 126 46 3 127 49 3 128 38 33 141 27 33 142 28 33 143 58 27 144 57 27 145 24 27 146 42 34 147 43 34 148 29 34 149 58 27 150 38 27 151 28 27 152 9 65 273 6 65 274 20 65 275 10 4 276 9 4 277 21 4 278 10 4 279 22 4 280 23 4 281 12 66 282 25 66 283 26 66 284 11 67 285 24 67 286 25 67 287 27 68 288 29 68 289 3 68 290 2 69 291 15 69 292 30 69 293 33 70 294 34 70 295 0 70 296 0 17 297 34 17 298 35 17 299 6 18 300 7 18 301 37 18 302 13 71 303 38 71 304 39 71 305 39 72 306 40 72 307 14 72 308 40 17 309 41 17 310 16 17 311 41 73 312 42 73 313 17 73 314 17 74 315 42 74 316 43 74 317 19 75 318 44 75 319 31 75 320 18 76 321 45 76 322 44 76 323 30 77 324 31 77 325 37 77 326 37 78 327 36 78 328 30 78 329 36 27 330 35 27 331 33 27 332 30 27 333 36 27 334 32 27 335 35 27 336 34 27 337 33 27 338 21 27 339 20 27 340 31 27 341 20 79 342 37 79 343 31 79 344 31 27 345 44 27 346 21 27 347 45 80 348 43 80 349 23 80 350 43 27 351 24 27 352 23 27 353 44 27 354 45 27 355 22 27 356 22 27 357 21 27 358 44 27 359 38 83 366 29 83 367 27 83 368 43 84 369 42 84 370 24 84 371 42 85 372 58 85 373 24 85 374 57 3 375 28 3 376 58 3 377 27 86 378 29 86 379 43 86 380 29 87 381 38 87 382 42 87 383 58 3 384 27 3 385 24 3 386 43 3 387 24 3 388 27 3 389 58 88 390 42 88 391 38 88 392</p>
        </triangles>
        <triangles material="material-material" count="6">
          <input semantic="VERTEX" source="#ID2321_003-mesh-vertices" offset="0"/>
          <input semantic="NORMAL" source="#ID2321_003-mesh-normals" offset="1"/>
          <input semantic="TEXCOORD" source="#ID2321_003-mesh-map-0" offset="2" set="0"/>
          <p>55 29 129 50 29 130 54 29 131 50 30 132 56 30 133 54 30 134 53 31 135 57 31 136 52 31 137 52 32 138 57 32 139 58 32 140 55 81 360 51 81 361 50 81 362 53 82 363 56 82 364 57 82 365</p>
        </triangles>
        <triangles material="Terrazo03-basecolor_002-material" count="40">
          <input semantic="VERTEX" source="#ID2321_003-mesh-vertices" offset="0"/>
          <input semantic="NORMAL" source="#ID2321_003-mesh-normals" offset="1"/>
          <input semantic="TEXCOORD" source="#ID2321_003-mesh-map-0" offset="2" set="0"/>
          <p>59 35 153 60 35 154 61 35 155 60 36 156 59 36 157 62 36 158 63 37 159 64 37 160 65 37 161 64 38 162 63 38 163 66 38 164 66 39 165 67 39 166 68 39 167 67 40 168 66 40 169 63 40 170 69 3 171 70 3 172 71 3 173 72 41 174 73 41 175 74 41 176 73 3 177 72 3 178 70 3 179 73 3 180 70 3 181 75 3 182 75 42 183 70 42 184 69 42 185 75 3 186 69 3 187 76 3 188 77 3 189 74 3 190 73 3 191 78 43 192 79 43 193 80 43 194 79 44 195 78 44 196 81 44 197 81 43 198 78 43 199 82 43 200 82 45 201 78 45 202 83 45 203 84 46 204 85 46 205 86 46 206 85 47 207 84 47 208 87 47 209 88 48 210 89 48 211 90 48 212 89 49 213 88 49 214 91 49 215 92 27 216 93 27 217 94 27 218 93 50 219 92 50 220 95 50 221 93 27 222 95 27 223 96 27 224 96 27 225 95 27 226 97 27 227 96 51 228 97 51 229 98 51 230 98 52 231 97 52 232 99 52 233 99 27 234 97 27 235 100 27 236 101 53 237 102 53 238 103 53 239 102 54 240 101 54 241 104 54 242 105 4 243 106 4 244 107 4 245 106 4 246 105 4 247 108 4 248 109 55 249 110 55 250 111 55 251 110 56 252 109 56 253 112 56 254 112 57 255 109 58 256 113 59 257 112 60 258 113 61 259 114 62 260 115 17 261 116 17 262 117 17 263 116 17 264 115 17 265 118 17 266 119 63 267 120 63 268 121 63 269 120 64 270 119 64 271 122 64 272</p>
        </triangles>
      </mesh>
    </geometry>
  </library_geometries>
  <library_visual_scenes>
    <visual_scene id="Scene" name="Scene">
      <node id="group_17_004" name="group_17.004" type="NODE">
        <matrix sid="transform">7.84791e-9 -0.025 0 0 0 0 -0.025 -0.890715 0.025 7.84791e-9 0 0 0 0 0 1</matrix>
        <instance_geometry url="#ID2321_003-mesh" name="group_17.004">
          <bind_material>
            <technique_common>
              <instance_material symbol="Terrazo03-basecolor-material" target="#Terrazo03-basecolor-material">
                <bind_vertex_input semantic="ID2271" input_semantic="TEXCOORD" input_set="0"/>
              </instance_material>
              <instance_material symbol="material-material" target="#material-material">
                <bind_vertex_input semantic="ID2271" input_semantic="TEXCOORD" input_set="0"/>
              </instance_material>
              <instance_material symbol="Terrazo03-basecolor_002-material" target="#Terrazo03-basecolor_002-material">
                <bind_vertex_input semantic="ID2271" input_semantic="TEXCOORD" input_set="0"/>
              </instance_material>
            </technique_common>
          </bind_material>
        </instance_geometry>
      </node>
    </visual_scene>
  </library_visual_scenes>
  <scene>
    <instance_visual_scene url="#Scene"/>
  </scene>
</COLLADA>