<?xml version="1.0" encoding="utf-8"?>
<COLLADA xmlns="http://www.collada.org/2005/11/COLLADASchema" version="1.4.1" xmlns:xsi="http://www.w3.org/2001/XMLSchema-instance">
  <asset>
    <contributor>
      <author>Blender User</author>
      <authoring_tool>Blender 2.83.20 commit date:2022-04-19, commit time:16:00, hash:a56e2faeb7a9</authoring_tool>
    </contributor>
    <created>2026-06-23T13:34:34</created>
    <modified>2026-06-23T13:34:34</modified>
    <unit name="meter" meter="1"/>
    <up_axis>Z_UP</up_axis>
  </asset>
  <library_effects>
    <effect id="Material_008-effect">
      <profile_COMMON>
        <technique sid="common">
          <lambert>
            <emission>
              <color sid="emission">0 0 0 1</color>
            </emission>
            <diffuse>
              <color sid="diffuse">0.5028865 1 1 1</color>
            </diffuse>
            <index_of_refraction>
              <float sid="ior">1.45</float>
            </index_of_refraction>
          </lambert>
        </technique>
      </profile_COMMON>
    </effect>
  </library_effects>
  <library_images/>
  <library_materials>
    <material id="Material_008-material" name="Material.008">
      <instance_effect url="#Material_008-effect"/>
    </material>
  </library_materials>
  <library_geometries>
    <geometry id="Cube_048-mesh" name="Cube.048">
      <mesh>
        <source id="Cube_048-mesh-positions">
          <float_array id="Cube_048-mesh-positions-array" count="264">-1 -0.9336133 -1 -1 -1 -0.9336133 -1 -0.9439985 -0.9991827 -1 -0.9541279 -0.9967508 -1 -0.9637522 -0.9927643 -1 -0.9726344 -0.9873213 -1 -0.9805558 -0.9805558 -1 -0.9873213 -0.9726344 -1 -0.9927643 -0.9637522 -1 -0.9967508 -0.9541279 -1 -0.9991827 -0.9439985 -1 -1 0.9336133 -1 -0.9336133 1 -1 -0.9991827 0.9439985 -1 -0.9967508 0.9541279 -1 -0.9927643 0.9637522 -1 -0.9873213 0.9726344 -1 -0.9805558 0.9805558 -1 -0.9726344 0.9873213 -1 -0.9637522 0.9927643 -1 -0.9541279 0.9967508 -1 -0.9439985 0.9991827 -1 1 -0.9336133 -1 0.9336133 -1 -1 0.9991827 -0.9439985 -1 0.9967508 -0.9541279 -1 0.9927643 -0.9637522 -1 0.9873213 -0.9726344 -1 0.9805558 -0.9805558 -1 0.9726344 -0.9873213 -1 0.9637522 -0.9927643 -1 0.9541279 -0.9967508 -1 0.9439985 -0.9991827 -1 0.9336133 1 -1 1 0.9336133 -1 0.9439985 0.9991827 -1 0.9541279 0.9967508 -1 0.9637522 0.9927643 -1 0.9726344 0.9873213 -1 0.9805558 0.9805558 -1 0.9873213 0.9726344 -1 0.9927643 0.9637522 -1 0.9967508 0.9541279 -1 0.9991827 0.9439985 1 -1 -0.9336133 1 -0.9336133 -1 1 -0.9991827 -0.9439985 1 -0.9967508 -0.9541279 1 -0.9927643 -0.9637522 1 -0.9873213 -0.9726344 1 -0.9805558 -0.9805558 1 -0.9726344 -0.9873213 1 -0.9637522 -0.9927643 1 -0.9541279 -0.9967508 1 -0.9439985 -0.9991827 1 -0.9336133 1 1 -1 0.9336133 1 -0.9439985 0.9991827 1 -0.9541279 0.9967508 1 -0.9637522 0.9927643 1 -0.9726344 0.9873213 1 -0.9805558 0.9805558 1 -0.9873213 0.9726344 1 -0.9927643 0.9637522 1 -0.9967508 0.9541279 1 -0.9991827 0.9439985 1 0.9336133 -1 1 1 -0.9336133 1 0.9439985 -0.9991827 1 0.9541279 -0.9967508 1 0.9637522 -0.9927643 1 0.9726344 -0.9873213 1 0.9805558 -0.9805558 1 0.9873213 -0.9726344 1 0.9927643 -0.9637522 1 0.9967508 -0.9541279 1 0.9991827 -0.9439985 1 1 0.9336133 1 0.9336133 1 1 0.9991827 0.9439985 1 0.9967508 0.9541279 1 0.9927643 0.9637522 1 0.9873213 0.9726344 1 0.9805558 0.9805558 1 0.9726344 0.9873213 1 0.9637522 0.9927643 1 0.9541279 0.9967508 1 0.9439985 0.9991827</float_array>
          <technique_common>
            <accessor source="#Cube_048-mesh-positions-array" count="88" stride="3">
              <param name="X" type="float"/>
              <param name="Y" type="float"/>
              <param name="Z" type="float"/>
            </accessor>
          </technique_common>
        </source>
        <source id="Cube_048-mesh-normals">
          <float_array id="Cube_048-mesh-normals-array" count="186">0 -1 0 1 0 0 0 0 1 -1 0 0 0 1 0 0 0.07845616 -0.9969176 0 0.2334457 -0.9723699 0 0.3826872 -0.9238781 0 0.5225013 -0.8526385 0 0.6494494 -0.7604049 0 0.7604049 -0.6494494 0 0.8526375 -0.5225029 0 0.9238809 -0.3826803 0 0.9723699 -0.2334457 0 0.9969176 -0.07845616 0 0.07845616 0.9969176 0 0.2334457 0.9723699 0 0.3826872 0.9238781 0 0.5225013 0.8526385 0 0.6494494 0.7604049 0 0.7604049 0.6494494 0 0.8526375 0.5225029 0 0.9238809 0.3826803 0 0.9723699 0.2334457 0 0.9969176 0.07845616 0 -0.07845616 -0.9969176 0 -0.2334457 -0.9723699 0 -0.3826872 -0.9238781 0 -0.5225013 -0.8526385 0 -0.6494494 -0.7604049 0 -0.7604049 -0.6494494 0 -0.8526375 -0.5225029 0 -0.9238809 -0.3826803 0 -0.9723699 -0.2334457 0 -0.9969176 -0.07845616 0 -0.07845616 0.9969176 0 -0.2334457 0.9723699 0 -0.3826872 0.9238781 0 -0.5225013 0.8526385 0 -0.6494494 0.7604049 0 -0.7604049 0.6494494 0 -0.8526375 0.5225029 0 -0.9238809 0.3826803 0 -0.9723699 0.2334457 0 -0.9969176 0.07845616 0 0 -1 0 0.3826832 -0.9238798 0 0.5224962 -0.8526417 0 0.8526426 -0.5224946 0 0.9238769 -0.38269 0 0.3826832 0.9238798 0 0.5224962 0.8526417 0 0.8526426 0.5224946 0 0.9238769 0.38269 0 -0.3826832 -0.9238798 0 -0.5224962 -0.8526417 0 -0.8526426 -0.5224946 0 -0.9238769 -0.38269 0 -0.3826832 0.9238798 0 -0.5224962 0.8526417 0 -0.8526426 0.5224946 0 -0.9238769 0.38269</float_array>
          <technique_common>
            <accessor source="#Cube_048-mesh-normals-array" count="62" stride="3">
              <param name="X" type="float"/>
              <param name="Y" type="float"/>
              <param name="Z" type="float"/>
            </accessor>
          </technique_common>
        </source>
        <source id="Cube_048-mesh-map-0">
          <float_array id="Cube_048-mesh-map-0-array" count="1032">0.6167016 0.75 0.3832983 1 0.3832983 0.75 0.3832983 0.75 0.3765848 0.7465793 0.375 0.7417017 0.875 0.5082983 0.625 0.7417017 0.625 0.5082983 0.3832983 0.25 0.3765848 0.2465793 0.375 0.2417016 0.6167016 0.25 0.3832983 0.5 0.3832983 0.25 0.125 0.5082983 0.375 0.5070002 0.375 0.5082983 0.125 0.5070002 0.375 0.505734 0.375 0.5070002 0.125 0.505734 0.375 0.504531 0.375 0.505734 0.125 0.504531 0.375 0.5034207 0.375 0.504531 0.125 0.5034207 0.375 0.5 0.375 0.5034207 0.375 0.25 0.3784207 0.5 0.375 0.5 0.3784207 0.25 0.379531 0.5 0.3784207 0.5 0.379531 0.25 0.380734 0.5 0.379531 0.5 0.380734 0.25 0.3820002 0.5 0.380734 0.5 0.3820002 0.25 0.3832983 0.5 0.3820002 0.5 0.625 0.5082983 0.875 0.5070002 0.875 0.5082983 0.625 0.5070002 0.875 0.505734 0.875 0.5070002 0.625 0.505734 0.875 0.504531 0.875 0.505734 0.625 0.504531 0.875 0.5034207 0.875 0.504531 0.625 0.5034207 0.875 0.5 0.875 0.5034207 0.625 0.5 0.6215794 0.25 0.625 0.25 0.6215794 0.5 0.6204691 0.25 0.6215794 0.25 0.6204691 0.5 0.619266 0.25 0.6204691 0.25 0.619266 0.5 0.6179999 0.25 0.619266 0.25 0.6179999 0.5 0.6167016 0.25 0.6179999 0.25 0.375 0.7417017 0.125 0.7429998 0.125 0.7417017 0.375 0.7429998 0.125 0.744266 0.125 0.7429998 0.375 0.744266 0.125 0.745469 0.125 0.744266 0.375 0.745469 0.125 0.7465793 0.125 0.745469 0.375 0.7465793 0.125 0.75 0.125 0.7465793 0.375 0.75 0.3784207 1 0.375 1 0.3784207 0.75 0.379531 1 0.3784207 1 0.379531 0.75 0.380734 1 0.379531 1 0.380734 0.75 0.3820002 1 0.380734 1 0.3820002 0.75 0.3832983 1 0.3820002 1 0.875 0.7417017 0.625 0.7429998 0.625 0.7417017 0.875 0.7429998 0.625 0.744266 0.625 0.7429998 0.875 0.744266 0.6250001 0.745469 0.625 0.744266 0.875 0.745469 0.625 0.7465793 0.6250001 0.745469 0.875 0.7465793 0.625 0.75 0.625 0.7465793 0.625 1 0.6215794 0.75 0.625 0.75 0.6215794 1 0.6204691 0.75 0.6215794 0.75 0.6204691 1 0.619266 0.75 0.6204691 0.75 0.619266 1 0.6179999 0.75 0.619266 0.75 0.6179999 1 0.6167016 0.75 0.6179999 0.75 0.375 0.5082983 0.125 0.7417017 0.125 0.5082983 0.6167016 0.75 0.6167016 1 0.3832983 1 0.375 0.7417017 0.375 0.5082983 0.3832983 0.5 0.375 0.5082983 0.3751022 0.5070002 0.3820002 0.5001022 0.3751022 0.5070002 0.3754062 0.505734 0.3759045 0.504531 0.3759045 0.504531 0.3765848 0.5034207 0.3774305 0.5024305 0.3774305 0.5024305 0.3784207 0.5015848 0.3795309 0.5009045 0.3795309 0.5009045 0.380734 0.5004062 0.3820002 0.5001022 0.3820002 0.5001022 0.3832983 0.5 0.375 0.5082983 0.3832983 0.5 0.6167016 0.5 0.375 0.7417017 0.6167016 0.5 0.6179997 0.5001022 0.619266 0.5004062 0.619266 0.5004062 0.620469 0.5009045 0.6167016 0.5 0.620469 0.5009045 0.6215794 0.5015848 0.6167016 0.5 0.6215794 0.5015848 0.6225695 0.5024305 0.6245939 0.505734 0.6225695 0.5024305 0.6234152 0.5034207 0.6245939 0.505734 0.6234152 0.5034207 0.6240955 0.504531 0.6245939 0.505734 0.6245939 0.505734 0.6248978 0.5070002 0.625 0.5082983 0.625 0.5082983 0.625 0.7417017 0.6167016 0.5 0.625 0.7417017 0.6248978 0.7429997 0.6167016 0.75 0.6167016 0.5 0.625 0.7417017 0.375 0.7417017 0.6248978 0.7429997 0.6245939 0.744266 0.6240956 0.745469 0.6240956 0.745469 0.6234152 0.7465792 0.6225695 0.7475695 0.6225695 0.7475695 0.6215794 0.7484152 0.620469 0.7490956 0.620469 0.7490956 0.619266 0.7495939 0.6179997 0.7498978 0.6179997 0.7498978 0.6167016 0.75 0.6248978 0.7429997 0.6167016 0.75 0.3832983 0.75 0.625 0.7417017 0.3832983 0.75 0.3820002 0.7498978 0.380734 0.7495939 0.380734 0.7495939 0.379531 0.7490955 0.3784207 0.7484151 0.3784207 0.7484151 0.3774305 0.7475695 0.380734 0.7495939 0.3774305 0.7475695 0.3765848 0.7465793 0.380734 0.7495939 0.3765848 0.7465793 0.3759045 0.745469 0.375 0.7417017 0.3759045 0.745469 0.3754062 0.744266 0.375 0.7417017 0.3754062 0.744266 0.3751022 0.7429998 0.375 0.7417017 0.3751022 0.5070002 0.3759045 0.504531 0.3795309 0.5009045 0.3759045 0.504531 0.3774305 0.5024305 0.3795309 0.5009045 0.3795309 0.5009045 0.3820002 0.5001022 0.3751022 0.5070002 0.6245939 0.505734 0.625 0.5082983 0.6167016 0.5 0.6248978 0.7429997 0.6240956 0.745469 0.6225695 0.7475695 0.6225695 0.7475695 0.620469 0.7490956 0.6179997 0.7498978 0.3832983 0.75 0.380734 0.7495939 0.3765848 0.7465793 0.6167016 0.5 0.6215794 0.5015848 0.6245939 0.505734 0.375 0.7417017 0.625 0.7417017 0.3832983 0.75 0.6248978 0.7429997 0.6225695 0.7475695 0.6179997 0.7498978 0.875 0.5082983 0.875 0.7417017 0.625 0.7417017 0.375 0.2417016 0.375 0.008298337 0.3832983 0 0.375 0.008298337 0.3751022 0.007000148 0.3820002 1.02162e-4 0.3751022 0.007000148 0.3754062 0.005733966 0.3759045 0.004530966 0.3759045 0.004530966 0.3765848 0.00342065 0.3774305 0.002430498 0.3774305 0.002430498 0.3784207 0.001584827 0.3795309 9.04463e-4 0.3795309 9.04463e-4 0.380734 4.06146e-4 0.3820002 1.02162e-4 0.3820002 1.02162e-4 0.3832983 0 0.375 0.008298337 0.3832983 0 0.6167016 0 0.375 0.2417016 0.6167016 0 0.6179997 1.02162e-4 0.619266 4.06146e-4 0.619266 4.06146e-4 0.620469 9.04463e-4 0.6167016 0 0.620469 9.04463e-4 0.6215794 0.001584827 0.6167016 0 0.6215794 0.001584827 0.6225695 0.002430498 0.6245939 0.005733966 0.6225695 0.002430498 0.6234152 0.00342065 0.6245939 0.005733966 0.6234152 0.00342065 0.6240955 0.004530966 0.6245939 0.005733966 0.6245939 0.005733966 0.6248978 0.007000148 0.625 0.008298337 0.625 0.008298337 0.625 0.2417016 0.6167016 0 0.625 0.2417016 0.6248978 0.2429998 0.6167016 0.25 0.6167016 0 0.625 0.2417016 0.375 0.2417016 0.6248978 0.2429998 0.6245939 0.244266 0.6240956 0.245469 0.6240956 0.245469 0.6234152 0.2465793 0.6225695 0.2475695 0.6225695 0.2475695 0.6215794 0.2484151 0.620469 0.2490955 0.620469 0.2490955 0.619266 0.2495938 0.6179997 0.2498978 0.6179997 0.2498978 0.6167016 0.25 0.6248978 0.2429998 0.6167016 0.25 0.3832983 0.25 0.625 0.2417016 0.3832983 0.25 0.3820002 0.2498978 0.380734 0.2495938 0.380734 0.2495938 0.379531 0.2490955 0.3784207 0.2484151 0.3784207 0.2484151 0.3774305 0.2475695 0.380734 0.2495938 0.3774305 0.2475695 0.3765848 0.2465793 0.380734 0.2495938 0.3765848 0.2465793 0.3759045 0.245469 0.375 0.2417016 0.3759045 0.245469 0.3754062 0.244266 0.375 0.2417016 0.3754062 0.244266 0.3751022 0.2429998 0.375 0.2417016 0.3751022 0.007000148 0.3759045 0.004530966 0.3795309 9.04463e-4 0.3759045 0.004530966 0.3774305 0.002430498 0.3795309 9.04463e-4 0.3795309 9.04463e-4 0.3820002 1.02162e-4 0.3751022 0.007000148 0.6245939 0.005733966 0.625 0.008298337 0.6167016 0 0.6248978 0.2429998 0.6240956 0.245469 0.6225695 0.2475695 0.6225695 0.2475695 0.620469 0.2490955 0.6179997 0.2498978 0.3832983 0.25 0.380734 0.2495938 0.3765848 0.2465793 0.6167016 0 0.6215794 0.001584827 0.6245939 0.005733966 0.375 0.2417016 0.625 0.2417016 0.3832983 0.25 0.6248978 0.2429998 0.6225695 0.2475695 0.6179997 0.2498978 0.6167016 0.25 0.6167016 0.5 0.3832983 0.5 0.125 0.5082983 0.125 0.5070002 0.375 0.5070002 0.125 0.5070002 0.125 0.505734 0.375 0.505734 0.125 0.505734 0.125 0.504531 0.375 0.504531 0.125 0.504531 0.125 0.5034207 0.375 0.5034207 0.125 0.5034207 0.125 0.5 0.375 0.5 0.375 0.25 0.3784207 0.25 0.3784207 0.5 0.3784207 0.25 0.379531 0.25 0.379531 0.5 0.379531 0.25 0.380734 0.25 0.380734 0.5 0.380734 0.25 0.3820002 0.25 0.3820002 0.5 0.3820002 0.25 0.3832983 0.25 0.3832983 0.5 0.625 0.5082983 0.625 0.5070002 0.875 0.5070002 0.625 0.5070002 0.625 0.505734 0.875 0.505734 0.625 0.505734 0.625 0.504531 0.875 0.504531 0.625 0.504531 0.625 0.5034207 0.875 0.5034207 0.625 0.5034207 0.625 0.5 0.875 0.5 0.625 0.5 0.6215794 0.5 0.6215794 0.25 0.6215794 0.5 0.6204691 0.5 0.6204691 0.25 0.6204691 0.5 0.619266 0.5 0.619266 0.25 0.619266 0.5 0.6179999 0.5 0.6179999 0.25 0.6179999 0.5 0.6167016 0.5 0.6167016 0.25 0.375 0.7417017 0.375 0.7429998 0.125 0.7429998 0.375 0.7429998 0.375 0.744266 0.125 0.744266 0.375 0.744266 0.375 0.745469 0.125 0.745469 0.375 0.745469 0.375 0.7465793 0.125 0.7465793 0.375 0.7465793 0.375 0.75 0.125 0.75 0.375 0.75 0.3784207 0.75 0.3784207 1 0.3784207 0.75 0.379531 0.75 0.379531 1 0.379531 0.75 0.380734 0.75 0.380734 1 0.380734 0.75 0.3820002 0.75 0.3820002 1 0.3820002 0.75 0.3832983 0.75 0.3832983 1 0.875 0.7417017 0.875 0.7429998 0.625 0.7429998 0.875 0.7429998 0.875 0.744266 0.625 0.744266 0.875 0.744266 0.875 0.745469 0.6250001 0.745469 0.875 0.745469 0.875 0.7465793 0.625 0.7465793 0.875 0.7465793 0.875 0.75 0.625 0.75 0.625 1 0.6215794 1 0.6215794 0.75 0.6215794 1 0.6204691 1 0.6204691 0.75 0.6204691 1 0.619266 1 0.619266 0.75 0.619266 1 0.6179999 1 0.6179999 0.75 0.6179999 1 0.6167016 1 0.6167016 0.75 0.375 0.5082983 0.375 0.7417017 0.125 0.7417017</float_array>
          <technique_common>
            <accessor source="#Cube_048-mesh-map-0-array" count="516" stride="2">
              <param name="S" type="float"/>
              <param name="T" type="float"/>
            </accessor>
          </technique_common>
        </source>
        <vertices id="Cube_048-mesh-vertices">
          <input semantic="POSITION" source="#Cube_048-mesh-positions"/>
        </vertices>
        <triangles material="Material_008-material" count="172">
          <input semantic="VERTEX" source="#Cube_048-mesh-vertices" offset="0"/>
          <input semantic="NORMAL" source="#Cube_048-mesh-normals" offset="1"/>
          <input semantic="TEXCOORD" source="#Cube_048-mesh-map-0" offset="2" set="0"/>
          <p>56 0 0 1 0 1 44 0 2 44 1 3 51 1 4 45 1 5 33 2 6 55 2 7 78 2 8 22 3 9 29 3 10 23 3 11 34 4 12 67 4 13 22 4 14 23 5 15 68 5 16 66 5 17 32 6 18 69 6 19 68 6 20 31 7 21 70 7 22 69 7 23 30 8 24 71 8 25 70 8 26 29 9 27 72 9 28 71 9 29 28 10 30 73 10 31 72 10 32 27 11 33 74 11 34 73 11 35 26 12 36 75 12 37 74 12 38 25 13 39 76 13 40 75 13 41 24 14 42 67 14 43 76 14 44 78 15 45 35 15 46 33 15 47 87 16 48 36 16 49 35 16 50 86 17 51 37 17 52 36 17 53 85 18 54 38 18 55 37 18 56 84 19 57 39 19 58 38 19 59 83 20 60 40 20 61 39 20 62 82 21 63 41 21 64 40 21 65 81 22 66 42 22 67 41 22 68 80 23 69 43 23 70 42 23 71 79 24 72 34 24 73 43 24 74 45 25 75 2 25 76 0 25 77 54 26 78 3 26 79 2 26 80 53 27 81 4 27 82 3 27 83 52 28 84 5 28 85 4 28 86 51 29 87 6 29 88 5 29 89 50 30 90 7 30 91 6 30 92 49 31 93 8 31 94 7 31 95 48 32 96 9 32 97 8 32 98 47 33 99 10 33 100 9 33 101 46 34 102 1 34 103 10 34 104 12 35 105 57 35 106 55 35 107 21 36 108 58 36 109 57 36 110 20 37 111 59 37 112 58 37 113 19 38 114 60 38 115 59 38 116 18 39 117 61 39 118 60 39 119 17 40 120 62 40 121 61 40 122 16 41 123 63 41 124 62 41 125 15 42 126 64 42 127 63 42 128 14 43 129 65 43 130 64 43 131 13 44 132 56 44 133 65 44 134 66 45 135 0 45 136 23 45 137 56 0 138 11 0 139 1 0 140 45 1 141 66 1 142 67 1 143 66 1 144 68 1 145 76 1 146 68 1 147 69 1 148 70 1 149 70 1 150 71 1 151 72 1 152 72 1 153 73 1 154 74 1 155 74 1 156 75 1 157 76 1 158 76 1 159 67 1 160 66 1 161 67 1 162 77 1 163 45 1 164 77 1 165 79 1 166 80 1 167 80 1 168 81 1 169 77 1 170 81 1 171 82 1 172 77 1 173 82 1 174 83 1 175 86 1 176 83 1 177 84 1 178 86 1 179 84 1 180 85 1 181 86 1 182 86 1 183 87 1 184 78 1 185 78 1 186 55 1 187 77 1 188 55 1 189 57 1 190 56 1 191 77 1 192 55 1 193 45 1 194 57 1 195 58 1 196 59 1 197 59 1 198 60 1 199 61 1 200 61 1 201 62 1 202 63 1 203 63 1 204 64 1 205 65 1 206 65 1 207 56 1 208 57 1 209 56 1 210 44 1 211 55 1 212 44 1 213 46 1 214 47 1 215 47 1 216 48 1 217 49 1 218 49 1 219 50 1 220 47 1 221 50 1 222 51 1 223 47 1 224 51 1 225 52 1 226 45 1 227 52 1 228 53 1 229 45 1 230 53 1 231 54 1 232 45 1 233 68 1 234 70 1 235 74 1 236 70 1 237 72 1 238 74 1 239 74 1 240 76 1 241 68 1 242 86 1 243 78 1 244 77 1 245 57 1 246 59 1 247 61 1 248 61 1 249 63 1 250 65 1 251 44 1 252 47 1 253 51 1 254 77 1 255 82 1 256 86 1 257 45 1 258 55 1 259 44 1 260 57 1 261 61 1 262 65 1 263 33 2 264 12 2 265 55 2 266 23 3 267 0 3 268 1 3 269 0 3 270 2 3 271 10 3 272 2 3 273 3 3 274 4 3 275 4 3 276 5 3 277 6 3 278 6 3 279 7 3 280 8 3 281 8 3 282 9 3 283 10 3 284 10 3 285 1 3 286 0 3 287 1 3 288 11 3 289 23 3 290 11 3 291 13 3 292 14 3 293 14 3 294 15 3 295 11 3 296 15 3 297 16 3 298 11 3 299 16 3 300 17 3 301 20 3 302 17 3 303 18 3 304 20 3 305 18 3 306 19 3 307 20 3 308 20 3 309 21 3 310 12 3 311 12 3 312 33 3 313 11 3 314 33 3 315 35 3 316 34 3 317 11 3 318 33 3 319 23 3 320 35 3 321 36 3 322 37 3 323 37 3 324 38 3 325 39 3 326 39 3 327 40 3 328 41 3 329 41 3 330 42 3 331 43 3 332 43 3 333 34 3 334 35 3 335 34 3 336 22 3 337 33 3 338 22 3 339 24 3 340 25 3 341 25 3 342 26 3 343 27 3 344 27 3 345 28 3 346 25 3 347 28 3 348 29 3 349 25 3 350 29 3 351 30 3 352 23 3 353 30 3 354 31 3 355 23 3 356 31 3 357 32 3 358 23 3 359 2 3 360 4 3 361 8 3 362 4 3 363 6 3 364 8 3 365 8 3 366 10 3 367 2 3 368 20 3 369 12 3 370 11 3 371 35 3 372 37 3 373 39 3 374 39 3 375 41 3 376 43 3 377 22 3 378 25 3 379 29 3 380 11 3 381 16 3 382 20 3 383 23 3 384 33 3 385 22 3 386 35 3 387 39 3 388 43 3 389 34 4 390 77 4 391 67 4 392 23 5 393 32 5 394 68 5 395 32 6 396 31 6 397 69 6 398 31 46 399 30 46 400 70 46 401 30 47 402 29 47 403 71 47 404 29 9 405 28 9 406 72 9 407 28 10 408 27 10 409 73 10 410 27 48 411 26 48 412 74 48 413 26 49 414 25 49 415 75 49 416 25 13 417 24 13 418 76 13 419 24 14 420 22 14 421 67 14 422 78 15 423 87 15 424 35 15 425 87 16 426 86 16 427 36 16 428 86 50 429 85 50 430 37 50 431 85 51 432 84 51 433 38 51 434 84 19 435 83 19 436 39 19 437 83 20 438 82 20 439 40 20 440 82 52 441 81 52 442 41 52 443 81 53 444 80 53 445 42 53 446 80 23 447 79 23 448 43 23 449 79 24 450 77 24 451 34 24 452 45 25 453 54 25 454 2 25 455 54 26 456 53 26 457 3 26 458 53 54 459 52 54 460 4 54 461 52 55 462 51 55 463 5 55 464 51 29 465 50 29 466 6 29 467 50 30 468 49 30 469 7 30 470 49 56 471 48 56 472 8 56 473 48 57 474 47 57 475 9 57 476 47 33 477 46 33 478 10 33 479 46 34 480 44 34 481 1 34 482 12 35 483 21 35 484 57 35 485 21 36 486 20 36 487 58 36 488 20 58 489 19 58 490 59 58 491 19 59 492 18 59 493 60 59 494 18 39 495 17 39 496 61 39 497 17 40 498 16 40 499 62 40 500 16 60 501 15 60 502 63 60 503 15 61 504 14 61 505 64 61 506 14 43 507 13 43 508 65 43 509 13 44 510 11 44 511 56 44 512 66 45 513 45 45 514 0 45 515</p>
        </triangles>
      </mesh>
    </geometry>
  </library_geometries>
  <library_visual_scenes>
    <visual_scene id="Scene" name="Scene">
      <node id="Cube_031" name="Cube.031" type="NODE">
        <matrix sid="transform">0.04145188 0 0.05591929 -0.12 0.02795964 0 -0.08290377 -0.85 0 0.15 0 0 0 0 0 1</matrix>
        <instance_geometry url="#Cube_048-mesh" name="Cube.031">
          <bind_material>
            <technique_common>
              <instance_material symbol="Material_008-material" target="#Material_008-material">
                <bind_vertex_input semantic="UVMap" input_semantic="TEXCOORD" input_set="0"/>
              </instance_material>
            </technique_common>
          </bind_material>
        </instance_geometry>
      </node>
    </visual_scene>
  </library_visual_scenes>
  <scene>
    <instance_visual_scene url="#Scene"/>
  </scene>
</COLLADA>