<?xml version="1.0" encoding="utf-8"?>
<COLLADA xmlns="http://www.collada.org/2005/11/COLLADASchema" version="1.4.1" xmlns:xsi="http://www.w3.org/2001/XMLSchema-instance">
  <asset>
    <contributor>
      <author>Blender User</author>
      <authoring_tool>Blender 2.83.20 commit date:2022-04-19, commit time:16:00, hash:a56e2faeb7a9</authoring_tool>
    </contributor>
    <created>2026-06-23T13:08:02</created>
    <modified>2026-06-23T13:08:02</modified>
    <unit name="meter" meter="1"/>
    <up_axis>Z_UP</up_axis>
  </asset>
  <library_effects>
    <effect id="Material_004-effect">
      <profile_COMMON>
        <technique sid="common">
          <lambert>
            <emission>
              <color sid="emission">0 0 0 1</color>
            </emission>
            <diffuse>
              <color sid="diffuse">0 0 0 1</color>
            </diffuse>
            <index_of_refraction>
              <float sid="ior">1.45</float>
            </index_of_refraction>
          </lambert>
        </technique>
      </profile_COMMON>
    </effect>
  </library_effects>
  <library_images/>
  <library_materials>
    <material id="Material_004-material" name="Material.004">
      <instance_effect url="#Material_004-effect"/>
    </material>
  </library_materials>
  <library_geometries>
    <geometry id="Cube_042-mesh" name="Cube.042">
      <mesh>
        <source id="Cube_042-mesh-positions">
          <float_array id="Cube_042-mesh-positions-array" count="504">-1 -1 -1 -1 -1 1 -1 1 -1 -1 1 1 0.9984836 -0.7342275 -1 0.7327111 -1 -1 0.9975758 -0.7561749 -1 0.9948588 -0.7779722 -1 0.990351 -0.7994709 -1 0.9840834 -0.8205237 -1 0.9760985 -0.8409872 -1 0.9664511 -0.8607212 -1 0.9552069 -0.8795913 -1 0.942443 -0.8974683 -1 0.9282463 -0.9142304 -1 0.912714 -0.9297627 -1 0.8959519 -0.9439594 -1 0.8780749 -0.9567233 -1 0.8592048 -0.9679675 -1 0.8394708 -0.9776149 -1 0.8190073 -0.9855998 -1 0.7979544 -0.9918674 -1 0.7764558 -0.9963752 -1 0.7546585 -0.9990922 -1 0.7327111 -1 1 0.9984836 -0.7342275 1 0.7546585 -0.9990922 1 0.7764558 -0.9963752 1 0.7979544 -0.9918674 1 0.8190073 -0.9855998 1 0.8394708 -0.9776149 1 0.8592048 -0.9679675 1 0.8780749 -0.9567233 1 0.8959519 -0.9439594 1 0.912714 -0.9297627 1 0.9282463 -0.9142304 1 0.942443 -0.8974683 1 0.9552069 -0.8795913 1 0.9664511 -0.8607212 1 0.9760985 -0.8409872 1 0.9840834 -0.8205237 1 0.990351 -0.7994709 1 0.9948588 -0.7779722 1 0.9975758 -0.7561749 1 0.7327111 1 -1 0.9984836 0.7342275 -1 0.7546585 0.9990922 -1 0.7764558 0.9963752 -1 0.7979544 0.9918674 -1 0.8190073 0.9855998 -1 0.8394708 0.9776149 -1 0.8592048 0.9679675 -1 0.8780749 0.9567233 -1 0.8959519 0.9439594 -1 0.912714 0.9297627 -1 0.9282463 0.9142304 -1 0.942443 0.8974683 -1 0.9552069 0.8795913 -1 0.9664511 0.8607212 -1 0.9760985 0.8409872 -1 0.9840834 0.8205237 -1 0.990351 0.7994709 -1 0.9948588 0.7779722 -1 0.9975758 0.7561749 -1 0.9984836 0.7342275 1 0.7327111 1 1 0.9975758 0.7561749 1 0.9948588 0.7779722 1 0.990351 0.7994709 1 0.9840834 0.8205237 1 0.9760985 0.8409872 1 0.9664511 0.8607212 1 0.9552069 0.8795913 1 0.942443 0.8974683 1 0.9282463 0.9142304 1 0.912714 0.9297627 1 0.8959519 0.9439594 1 0.8780749 0.9567233 1 0.8592048 0.9679675 1 0.8394708 0.9776149 1 0.8190073 0.9855998 1 0.7979544 0.9918674 1 0.7764558 0.9963752 1 0.7546585 0.9990922 1 -0.9292917 -0.9292917 -1 -0.9422651 -0.9422651 0.9422651 -0.9292917 0.9292917 -1 -0.9422651 0.9422651 0.9422651 0.898505 -0.7321615 -1 0.7306451 -0.9000214 -1 0.8979176 -0.7479196 -1 0.896223 -0.7615136 -1 0.8934121 -0.7749248 -1 0.8895035 -0.7880551 -1 0.8845216 -0.8008187 -1 0.8785059 -0.8131276 -1 0.8714916 -0.8248991 -1 0.8635312 -0.8360499 -1 0.8546754 -0.8465037 -1 0.8449873 -0.8561918 -1 0.8345335 -0.8650476 -1 0.8233827 -0.873008 -1 0.8116112 -0.8800223 -1 0.7993023 -0.886038 -1 0.7865387 -0.8910198 -1 0.7734084 -0.8949285 -1 0.7599972 -0.8977394 -1 0.7464032 -0.899434 -1 0.7312432 -0.9288461 0.9297525 0.9273297 -0.7327596 0.9297525 0.7487471 -0.9277216 0.9302103 0.7646696 -0.9257371 0.9302103 0.7803758 -0.9224439 0.9302103 0.7957553 -0.917864 0.9302103 0.810704 -0.9120306 0.9302103 0.8251218 -0.9049834 0.9302103 0.8389044 -0.8967697 0.9302103 0.8519656 -0.8874452 0.9302103 0.8642109 -0.8770725 0.9302103 0.8755561 -0.8657273 0.9302103 0.8859288 -0.853482 0.9302103 0.8952533 -0.8404208 0.9302103 0.9034669 -0.8266382 0.9302103 0.9105142 -0.8122204 0.9302103 0.9163475 -0.7972717 0.9302103 0.9209275 -0.7818922 0.9302103 0.9242207 -0.766186 0.9302103 0.9262052 -0.7502635 0.9302103 0.7306451 0.9000214 -1 0.898505 0.7321615 -1 0.7464032 0.899434 -1 0.7599972 0.8977394 -1 0.7734084 0.8949285 -1 0.7865387 0.8910198 -1 0.7993023 0.886038 -1 0.8116112 0.8800223 -1 0.8233827 0.873008 -1 0.8345335 0.8650476 -1 0.8449873 0.8561918 -1 0.8546754 0.8465037 -1 0.8635312 0.8360499 -1 0.8714916 0.8248991 -1 0.8785059 0.8131276 -1 0.8845216 0.8008187 -1 0.8895035 0.7880551 -1 0.8934121 0.7749248 -1 0.896223 0.7615136 -1 0.8979176 0.7479196 -1 0.9273297 0.7327596 0.9297525 0.7312432 0.9288461 0.9297525 0.9262052 0.7502635 0.9302103 0.9242207 0.766186 0.9302103 0.9209275 0.7818922 0.9302103 0.9163475 0.7972717 0.9302103 0.9105142 0.8122204 0.9302103 0.9034669 0.8266382 0.9302103 0.8952533 0.8404208 0.9302103 0.8859288 0.853482 0.9302103 0.8755561 0.8657273 0.9302103 0.8642109 0.8770725 0.9302103 0.8519656 0.8874452 0.9302103 0.8389044 0.8967697 0.9302103 0.8251218 0.9049834 0.9302103 0.810704 0.9120306 0.9302103 0.7957553 0.917864 0.9302103 0.7803758 0.9224439 0.9302103 0.7646696 0.9257371 0.9302103 0.7487471 0.9277216 0.9302103</float_array>
          <technique_common>
            <accessor source="#Cube_042-mesh-positions-array" count="168" stride="3">
              <param name="X" type="float"/>
              <param name="Y" type="float"/>
              <param name="Z" type="float"/>
            </accessor>
          </technique_common>
        </source>
        <source id="Cube_042-mesh-normals">
          <float_array id="Cube_042-mesh-normals-array" count="510">-1 0 0 0 -1 0 0 0 1 1 0 0 0 1 0 0.9991458 0.04132634 0 0.9923208 0.1236917 0 0.978717 0.205215 0 0.9584282 0.2853341 0 0.9315906 0.3635092 0 0.8983895 0.4391996 0 0.8590551 0.5118833 0 0.8138484 0.5810773 0 0.7630857 0.6462973 0 0.7071068 0.7071068 0 0.6462973 0.7630857 0 0.5810785 0.8138475 0 0.511884 0.8590546 0 0.4391986 0.8983901 0 0.3635082 0.931591 0 0.2853333 0.9584284 0 0.2052145 0.978717 0 0.123692 0.9923207 0 0.04132622 0.9991458 0 0.04132646 -0.9991458 0 0.1236914 -0.9923208 0 0.2052156 -0.9787168 0 0.2853348 -0.9584279 0 0.3635101 -0.9315903 0 0.4391964 -0.8983911 0 0.5118864 -0.8590531 0 0.581076 -0.8138494 0 0.6462973 -0.7630857 0 0.7071068 -0.7071068 0 0.7630857 -0.6462973 0 0.8138484 -0.5810773 0 0.8590527 -0.5118873 0 0.8983917 -0.4391953 0 0.9315906 -0.3635092 0 0.9584282 -0.2853341 0 0.978717 -0.205215 0 0.9923208 -0.1236917 0 0.9991458 -0.04132634 0 0.9999778 0 0.006679356 -0.01762866 0.999733 0.01493847 0 0 -1 -0.9998885 0 0.01493531 -0.007968485 -0.9999463 0.006625831 -0.9991944 -0.03725057 0.01493662 -0.9922138 -0.1236773 0.01469123 -0.9786257 -0.2051246 0.01469135 -0.9583018 -0.2853803 0.01469075 -0.9314864 -0.3634794 0.0146901 -0.8983434 -0.4390484 0.01469081 -0.8589301 -0.5118823 0.01469045 -0.8137955 -0.5809657 0.01468992 -0.7629577 -0.6462815 0.01468986 -0.7070288 -0.7070323 0.01469016 -0.6462808 -0.7629584 0.01469022 -0.5809683 -0.8137938 0.01468974 -0.5118768 -0.8589333 0.01469004 -0.4390888 -0.8983237 0.01469027 -0.3634845 -0.9314845 0.01469051 -0.2853806 -0.9583017 0.01469016 -0.2051889 -0.9786121 0.01469093 -0.1236668 -0.9922151 0.01469135 -0.06448632 -0.9978104 0.01470118 -0.03724265 0.9991946 0.01493668 -0.1236667 0.9922151 0.01469123 -0.2051171 0.9786273 0.01469141 -0.2853785 0.9583024 0.01469087 -0.3634871 0.9314835 0.01469004 -0.4390487 0.8983432 0.01469075 -0.5118768 0.8589333 0.01469033 -0.5809683 0.8137938 0.01468992 -0.6462885 0.7629519 0.01469004 -0.7070326 0.7070285 0.01468998 -0.7629578 0.6462816 0.01468986 -0.8137918 0.5809708 0.0146898 -0.8589301 0.5118823 0.0146901 -0.8983251 0.4390859 0.01469027 -0.9314864 0.3634794 0.01469057 -0.9583019 0.2853803 0.01469004 -0.9786139 0.2051806 0.01469105 -0.9922147 0.1236697 0.01469141 -0.9978113 0.06447178 0.01470124 -8.42965e-7 0 -1 -8.11974e-7 0 -1 0.8983917 0.4391953 0 0.8590527 0.5118873 0 0.581076 0.8138494 0 0.5118864 0.8590531 0 0.4391964 0.8983911 0 0.3635101 0.9315903 0 0.2853348 0.9584279 0 0.2052156 0.9787168 0 0.1236914 0.9923208 0 0.04132646 0.9991458 0 0.04132622 -0.9991458 0 0.123692 -0.9923207 0 0.2052145 -0.978717 0 0.2853333 -0.9584284 0 0.3635082 -0.931591 0 0.4391986 -0.8983901 0 0.511884 -0.8590546 0 0.5810785 -0.8138475 0 0.8590551 -0.5118833 0 0.8983895 -0.4391996 0 0.9999778 0 0.006679356 -0.007968485 0.9999463 0.006625831 0.02792686 0.02792942 -0.9992198 -8.29661e-7 0 -1 0.02792686 -0.02792942 -0.9992198 1.20492e-5 0 -1 0.02792799 -0.02792912 -0.9992197 8.75006e-5 0 -1 8.76808e-5 0 -1 8.74432e-5 0 -1 -1.46224e-5 0 -1 -0.007476627 0 -0.9999721 -0.007476687 0 -0.9999721 0.02792799 0.02792912 -0.9992197 -8.74661e-5 0 -1 2.45443e-7 0 -1 1.10038e-5 0 -1 -1.17639e-6 0 -1 -9.17557e-6 0 -1 6.3732e-6 0 -1 -0.9998885 0 0.01493531 -0.01762866 -0.999733 0.01493847 -0.9978113 -0.06447178 0.01470124 -0.9922129 -0.1236848 0.01469141 -0.9786139 -0.2051806 0.01469105 -0.9583324 -0.2852779 0.01468992 -0.9314522 -0.3635672 0.01469063 -0.8983251 -0.4390859 0.01469027 -0.8589598 -0.5118322 0.01469004 -0.8137969 -0.5809638 0.01468974 -0.7629327 -0.6463111 0.01469004 -0.7070332 -0.7070277 0.0146901 -0.6463165 -0.7629282 0.01468998 -0.5809575 -0.8138014 0.01468986 -0.5118319 -0.85896 0.01469045 -0.4390487 -0.8983432 0.01469075 -0.3635623 -0.9314541 0.0146901 -0.2852755 -0.958333 0.01469087 -0.2051171 -0.9786273 0.01469141 -0.1236891 -0.9922122 0.01469123 -0.03724265 -0.9991946 0.01493668 -0.06448632 0.9978104 0.01470118 -0.1236891 0.9922122 0.01469147 -0.2051889 0.9786121 0.01469093 -0.285278 0.9583323 0.0146901 -0.3635592 0.9314553 0.01469057 -0.4390888 0.8983237 0.01469027 -0.5118319 0.85896 0.0146901 -0.5809575 0.8138014 0.01468968 -0.6463075 0.7629356 0.01469004 -0.7070288 0.7070323 0.01469022 -0.7629327 0.6463111 0.01468998 -0.8138011 0.5809578 0.0146898 -0.8589598 0.5118322 0.01469039 -0.8983434 0.4390484 0.01469081 -0.9314522 0.3635672 0.01469004 -0.9583323 0.2852779 0.01469075 -0.9786257 0.2051246 0.01469135 -0.9922117 0.1236937 0.01469123 -0.9991944 0.03725057 0.01493662 1.81421e-6 0 -1 1.62853e-6 0 -1</float_array>
          <technique_common>
            <accessor source="#Cube_042-mesh-normals-array" count="170" stride="3">
              <param name="X" type="float"/>
              <param name="Y" type="float"/>
              <param name="Z" type="float"/>
            </accessor>
          </technique_common>
        </source>
        <source id="Cube_042-mesh-map-0">
          <float_array id="Cube_042-mesh-map-0-array" count="1992">0.625 0 0.375 0.25 0.375 0 0.625 0.7832216 0.375 1 0.375 0.7832216 0.6253389 0.5250661 0.6292722 0.4937908 0.6582216 0.5 0.625 0.5332216 0.375 0.7167784 0.375 0.5332216 0.625 0.25 0.375 0.4667785 0.375 0.25 0.375 0.5332216 0.6250379 0.5304781 0.625 0.5332216 0.3749622 0.5304781 0.625151 0.5277535 0.6250379 0.5304781 0.374849 0.5277535 0.6253389 0.5250661 0.625151 0.5277535 0.3746612 0.5250661 0.6256 0.5224346 0.6253389 0.5250661 0.3744 0.5224346 0.6259328 0.5198766 0.6256 0.5224346 0.3740673 0.5198766 0.6263347 0.5174099 0.6259328 0.5198766 0.3736653 0.5174098 0.6268032 0.5150511 0.6263347 0.5174099 0.3731968 0.5150511 0.6273351 0.5128164 0.6268032 0.5150511 0.372665 0.5128164 0.6279266 0.5107212 0.6273351 0.5128164 0.3720735 0.5107212 0.6285738 0.4957791 0.6279266 0.5107212 0.3714263 0.495779 0.6292722 0.4937908 0.6285738 0.4957791 0.3707278 0.4937908 0.6300171 0.4917691 0.6292722 0.4937908 0.369983 0.4917691 0.6308033 0.4897282 0.6300171 0.4917691 0.3691967 0.4897281 0.6316256 0.4876817 0.6308033 0.4897282 0.3683745 0.4876816 0.6324782 0.4856436 0.6316256 0.4876817 0.3675218 0.4856437 0.6333554 0.4836281 0.6324782 0.4856436 0.3666446 0.4836281 0.6342512 0.4816488 0.6333554 0.4836281 0.3657488 0.4816488 0.6351594 0.4797191 0.6342512 0.4816488 0.3648406 0.4797191 0.625 0.4667785 0.6351594 0.4797191 0.375 0.7832216 0.6351594 0.770281 0.625 0.7832216 0.3648406 0.770281 0.6342512 0.7683513 0.6351594 0.770281 0.3657488 0.7683513 0.6333554 0.7663719 0.6342512 0.7683513 0.3666446 0.7663719 0.6324782 0.7643563 0.6333554 0.7663719 0.3675218 0.7643563 0.6316255 0.7623184 0.6324782 0.7643563 0.3683745 0.7623183 0.6308033 0.7602719 0.6316255 0.7623184 0.3691967 0.7602719 0.6300171 0.7582309 0.6308033 0.7602719 0.369983 0.7582309 0.6292722 0.7562093 0.6300171 0.7582309 0.3707278 0.7562093 0.6285738 0.7542209 0.6292722 0.7562093 0.3714263 0.7542209 0.6279266 0.7392788 0.6285738 0.7542209 0.3720735 0.7392788 0.6273351 0.7371836 0.6279266 0.7392788 0.372665 0.7371836 0.6268032 0.734949 0.6273351 0.7371836 0.3731968 0.7349489 0.6263347 0.7325902 0.6268032 0.734949 0.3736653 0.7325902 0.6259327 0.7301234 0.6263347 0.7325902 0.3740673 0.7301234 0.6256 0.7275655 0.6259327 0.7301234 0.3744 0.7275655 0.6253389 0.7249339 0.6256 0.7275655 0.3746612 0.7249339 0.625151 0.7222465 0.6253389 0.7249339 0.374849 0.7222465 0.6250378 0.7195218 0.625151 0.7222465 0.3749622 0.7195219 0.625 0.7167784 0.6250378 0.7195218 0.375 0.25 0.625 0 0.375 0 0.375 1 0.625 0.7832216 0.375 0.7832216 0.6316255 0.7623184 0.6351594 0.770281 0.625151 0.7222465 0.375 0.7167784 0.625 0.5332216 0.375 0.5332216 0.375 0.25 0.625 0.4667785 0.625 0.25 0.625 0.5332216 0.3749622 0.5304781 0.375 0.5332216 0.625151 0.5277535 0.3749622 0.5304781 0.6250379 0.5304781 0.625151 0.5277535 0.3746612 0.5250661 0.374849 0.5277535 0.6256 0.5224346 0.3746612 0.5250661 0.6253389 0.5250661 0.6259328 0.5198766 0.3744 0.5224346 0.6256 0.5224346 0.6259328 0.5198766 0.3736653 0.5174098 0.3740673 0.5198766 0.6268032 0.5150511 0.3736653 0.5174098 0.6263347 0.5174099 0.6273351 0.5128164 0.3731968 0.5150511 0.6268032 0.5150511 0.6279266 0.5107212 0.372665 0.5128164 0.6273351 0.5128164 0.6285738 0.4957791 0.3720735 0.5107212 0.6279266 0.5107212 0.6292722 0.4937908 0.3714263 0.495779 0.6285738 0.4957791 0.6300171 0.4917691 0.3707278 0.4937908 0.6292722 0.4937908 0.6308033 0.4897282 0.369983 0.4917691 0.6300171 0.4917691 0.6316256 0.4876817 0.3691967 0.4897281 0.6308033 0.4897282 0.6324782 0.4856436 0.3683745 0.4876816 0.6316256 0.4876817 0.6333554 0.4836281 0.3675218 0.4856437 0.6324782 0.4856436 0.6342512 0.4816488 0.3666446 0.4836281 0.6333554 0.4836281 0.6351594 0.4797191 0.3657488 0.4816488 0.6342512 0.4816488 0.625 0.4667785 0.3648406 0.4797191 0.6351594 0.4797191 0.625 0.7832216 0.3648406 0.770281 0.375 0.7832216 0.6342512 0.7683513 0.3648406 0.770281 0.6351594 0.770281 0.6342512 0.7683513 0.3666446 0.7663719 0.3657488 0.7683513 0.6324782 0.7643563 0.3666446 0.7663719 0.6333554 0.7663719 0.6316255 0.7623184 0.3675218 0.7643563 0.6324782 0.7643563 0.6316255 0.7623184 0.3691967 0.7602719 0.3683745 0.7623183 0.6300171 0.7582309 0.3691967 0.7602719 0.6308033 0.7602719 0.6292722 0.7562093 0.369983 0.7582309 0.6300171 0.7582309 0.6285738 0.7542209 0.3707278 0.7562093 0.6292722 0.7562093 0.6279266 0.7392788 0.3714263 0.7542209 0.6285738 0.7542209 0.6273351 0.7371836 0.3720735 0.7392788 0.6279266 0.7392788 0.6268032 0.734949 0.372665 0.7371836 0.6273351 0.7371836 0.6263347 0.7325902 0.3731968 0.7349489 0.6268032 0.734949 0.6259327 0.7301234 0.3736653 0.7325902 0.6263347 0.7325902 0.6256 0.7275655 0.3740673 0.7301234 0.6259327 0.7301234 0.6253389 0.7249339 0.3744 0.7275655 0.6256 0.7275655 0.625151 0.7222465 0.3746612 0.7249339 0.6253389 0.7249339 0.6250378 0.7195218 0.374849 0.7222465 0.625151 0.7222465 0.625 0.7167784 0.3749622 0.7195219 0.6250378 0.7195218 0.375 0.25 0.375 0 0.375 0 0.375 0.5332216 0.3749622 0.5304781 0.3749622 0.5304781 0.374849 0.5277535 0.3749622 0.5304781 0.374849 0.5277535 0.374849 0.5277535 0.3746612 0.5250661 0.3746612 0.5250661 0.3746612 0.5250661 0.3744 0.5224346 0.3744 0.5224346 0.3740673 0.5198766 0.3744 0.5224346 0.3740673 0.5198766 0.3740673 0.5198766 0.3736653 0.5174098 0.3736653 0.5174098 0.3731968 0.5150511 0.3736653 0.5174098 0.3731968 0.5150511 0.3731968 0.5150511 0.372665 0.5128164 0.372665 0.5128164 0.3720735 0.5107212 0.372665 0.5128164 0.3720735 0.5107212 0.3720735 0.5107212 0.3714263 0.495779 0.3714263 0.495779 0.3714263 0.495779 0.3707278 0.4937908 0.3707278 0.4937908 0.369983 0.4917691 0.3707278 0.4937908 0.369983 0.4917691 0.369983 0.4917691 0.3691967 0.4897281 0.3691967 0.4897281 0.3683745 0.4876816 0.3691967 0.4897281 0.3683745 0.4876816 0.3683745 0.4876816 0.3675218 0.4856437 0.3675218 0.4856437 0.3675218 0.4856437 0.3666446 0.4836281 0.3666446 0.4836281 0.3657488 0.4816488 0.3666446 0.4836281 0.3657488 0.4816488 0.3657488 0.4816488 0.3648406 0.4797191 0.3648406 0.4797191 0.375 0.4667785 0.3648406 0.4797191 0.375 0.4667785 0.375 0.7832216 0.3648406 0.770281 0.3648406 0.770281 0.3657488 0.7683513 0.3648406 0.770281 0.3657488 0.7683513 0.3657488 0.7683513 0.3666446 0.7663719 0.3666446 0.7663719 0.3675218 0.7643563 0.3666446 0.7663719 0.3675218 0.7643563 0.3683745 0.7623183 0.3675218 0.7643563 0.3683745 0.7623183 0.3683745 0.7623183 0.3691967 0.7602719 0.3691967 0.7602719 0.369983 0.7582309 0.3691967 0.7602719 0.369983 0.7582309 0.369983 0.7582309 0.3707278 0.7562093 0.3707278 0.7562093 0.3714263 0.7542209 0.3707278 0.7562093 0.3714263 0.7542209 0.3714263 0.7542209 0.3720735 0.7392788 0.3720735 0.7392788 0.3720735 0.7392788 0.372665 0.7371836 0.372665 0.7371836 0.3731968 0.7349489 0.372665 0.7371836 0.3731968 0.7349489 0.3731968 0.7349489 0.3736653 0.7325902 0.3736653 0.7325902 0.3740673 0.7301234 0.3736653 0.7325902 0.3740673 0.7301234 0.3740673 0.7301234 0.3744 0.7275655 0.3744 0.7275655 0.3746612 0.7249339 0.3744 0.7275655 0.3746612 0.7249339 0.374849 0.7222465 0.3746612 0.7249339 0.374849 0.7222465 0.374849 0.7222465 0.3749622 0.7195219 0.3749622 0.7195219 0.375 0.7167784 0.3749622 0.7195219 0.375 0.7167784 0.375 0.4667785 0.375 0.25 0.375 0.25 0.375 0.7167784 0.375 0.5332216 0.375 0.5332216 0.375 0.7832216 0.375 1 0.375 0.7832216 0.625 0 0.625 0.25 0.375 0.25 0.625 0.7832216 0.625 1 0.375 1 0.625 0.7167784 0.625 0.5332216 0.6582216 0.5 0.625 0.5332216 0.6250379 0.5304781 0.6582216 0.5 0.6250379 0.5304781 0.625151 0.5277535 0.6253389 0.5250661 0.6253389 0.5250661 0.6256 0.5224346 0.6259328 0.5198766 0.6259328 0.5198766 0.6263347 0.5174099 0.6253389 0.5250661 0.6263347 0.5174099 0.6268032 0.5150511 0.6253389 0.5250661 0.6268032 0.5150511 0.6273351 0.5128164 0.6292722 0.4937908 0.6273351 0.5128164 0.6279266 0.5107212 0.6292722 0.4937908 0.6279266 0.5107212 0.6285738 0.4957791 0.6292722 0.4937908 0.6292722 0.4937908 0.6300171 0.4917691 0.6308033 0.4897282 0.6308033 0.4897282 0.6316256 0.4876817 0.6292722 0.4937908 0.6316256 0.4876817 0.6324782 0.4856436 0.6292722 0.4937908 0.6324782 0.4856436 0.6333554 0.4836281 0.6342512 0.4816488 0.6342512 0.4816488 0.6351594 0.4797191 0.6582216 0.5 0.6582216 0.5 0.875 0.5 0.875 0.75 0.875 0.75 0.6582216 0.75 0.6582216 0.5 0.6582216 0.75 0.6351594 0.770281 0.6263347 0.7325902 0.6582216 0.5 0.6582216 0.75 0.625 0.7167784 0.6351594 0.770281 0.6342512 0.7683513 0.6333554 0.7663719 0.6333554 0.7663719 0.6324782 0.7643563 0.6316255 0.7623184 0.6316255 0.7623184 0.6308033 0.7602719 0.6300171 0.7582309 0.6300171 0.7582309 0.6292722 0.7562093 0.6316255 0.7623184 0.6292722 0.7562093 0.6285738 0.7542209 0.6316255 0.7623184 0.6285738 0.7542209 0.6279266 0.7392788 0.6273351 0.7371836 0.6273351 0.7371836 0.6268032 0.734949 0.6263347 0.7325902 0.6263347 0.7325902 0.6259327 0.7301234 0.6256 0.7275655 0.6256 0.7275655 0.6253389 0.7249339 0.6263347 0.7325902 0.6253389 0.7249339 0.625151 0.7222465 0.6263347 0.7325902 0.625151 0.7222465 0.6250378 0.7195218 0.625 0.7167784 0.6250379 0.5304781 0.6253389 0.5250661 0.6582216 0.5 0.6324782 0.4856436 0.6342512 0.4816488 0.6292722 0.4937908 0.6342512 0.4816488 0.6582216 0.5 0.6292722 0.4937908 0.6351594 0.770281 0.6333554 0.7663719 0.6316255 0.7623184 0.6285738 0.7542209 0.6273351 0.7371836 0.6316255 0.7623184 0.6273351 0.7371836 0.6263347 0.7325902 0.6316255 0.7623184 0.625151 0.7222465 0.625 0.7167784 0.6263347 0.7325902 0.6263347 0.7325902 0.625 0.7167784 0.6582216 0.75 0.6253389 0.5250661 0.6268032 0.5150511 0.6292722 0.4937908 0.6351594 0.770281 0.6316255 0.7623184 0.6263347 0.7325902 0.625 0.5332216 0.625 0.7167784 0.375 0.7167784 0.625 0.25 0.625 0.4667785 0.375 0.4667785 0.375 0.5332216 0.3749622 0.5304781 0.6250379 0.5304781 0.3749622 0.5304781 0.374849 0.5277535 0.625151 0.5277535 0.374849 0.5277535 0.3746612 0.5250661 0.6253389 0.5250661 0.3746612 0.5250661 0.3744 0.5224346 0.6256 0.5224346 0.3744 0.5224346 0.3740673 0.5198766 0.6259328 0.5198766 0.3740673 0.5198766 0.3736653 0.5174098 0.6263347 0.5174099 0.3736653 0.5174098 0.3731968 0.5150511 0.6268032 0.5150511 0.3731968 0.5150511 0.372665 0.5128164 0.6273351 0.5128164 0.372665 0.5128164 0.3720735 0.5107212 0.6279266 0.5107212 0.3720735 0.5107212 0.3714263 0.495779 0.6285738 0.4957791 0.3714263 0.495779 0.3707278 0.4937908 0.6292722 0.4937908 0.3707278 0.4937908 0.369983 0.4917691 0.6300171 0.4917691 0.369983 0.4917691 0.3691967 0.4897281 0.6308033 0.4897282 0.3691967 0.4897281 0.3683745 0.4876816 0.6316256 0.4876817 0.3683745 0.4876816 0.3675218 0.4856437 0.6324782 0.4856436 0.3675218 0.4856437 0.3666446 0.4836281 0.6333554 0.4836281 0.3666446 0.4836281 0.3657488 0.4816488 0.6342512 0.4816488 0.3657488 0.4816488 0.3648406 0.4797191 0.6351594 0.4797191 0.3648406 0.4797191 0.375 0.4667785 0.625 0.4667785 0.375 0.7832216 0.3648406 0.770281 0.6351594 0.770281 0.3648406 0.770281 0.3657488 0.7683513 0.6342512 0.7683513 0.3657488 0.7683513 0.3666446 0.7663719 0.6333554 0.7663719 0.3666446 0.7663719 0.3675218 0.7643563 0.6324782 0.7643563 0.3675218 0.7643563 0.3683745 0.7623183 0.6316255 0.7623184 0.3683745 0.7623183 0.3691967 0.7602719 0.6308033 0.7602719 0.3691967 0.7602719 0.369983 0.7582309 0.6300171 0.7582309 0.369983 0.7582309 0.3707278 0.7562093 0.6292722 0.7562093 0.3707278 0.7562093 0.3714263 0.7542209 0.6285738 0.7542209 0.3714263 0.7542209 0.3720735 0.7392788 0.6279266 0.7392788 0.3720735 0.7392788 0.372665 0.7371836 0.6273351 0.7371836 0.372665 0.7371836 0.3731968 0.7349489 0.6268032 0.734949 0.3731968 0.7349489 0.3736653 0.7325902 0.6263347 0.7325902 0.3736653 0.7325902 0.3740673 0.7301234 0.6259327 0.7301234 0.3740673 0.7301234 0.3744 0.7275655 0.6256 0.7275655 0.3744 0.7275655 0.3746612 0.7249339 0.6253389 0.7249339 0.3746612 0.7249339 0.374849 0.7222465 0.625151 0.7222465 0.374849 0.7222465 0.3749622 0.7195219 0.6250378 0.7195218 0.3749622 0.7195219 0.375 0.7167784 0.625 0.7167784 0.375 0.25 0.625 0.25 0.625 0 0.375 1 0.625 1 0.625 0.7832216 0.6250379 0.5304781 0.625 0.5332216 0.6582216 0.5 0.625 0.5332216 0.625 0.7167784 0.6582216 0.5 0.625 0.7167784 0.6250378 0.7195218 0.6582216 0.75 0.6250378 0.7195218 0.625151 0.7222465 0.6351594 0.770281 0.6582216 0.75 0.6250378 0.7195218 0.6351594 0.770281 0.625151 0.7222465 0.6253389 0.7249339 0.6256 0.7275655 0.6256 0.7275655 0.6259327 0.7301234 0.6263347 0.7325902 0.6263347 0.7325902 0.6268032 0.734949 0.6285738 0.7542209 0.6268032 0.734949 0.6273351 0.7371836 0.6285738 0.7542209 0.6273351 0.7371836 0.6279266 0.7392788 0.6285738 0.7542209 0.6285738 0.7542209 0.6292722 0.7562093 0.6300171 0.7582309 0.6300171 0.7582309 0.6308033 0.7602719 0.6316255 0.7623184 0.6316255 0.7623184 0.6324782 0.7643563 0.6351594 0.770281 0.6324782 0.7643563 0.6333554 0.7663719 0.6351594 0.770281 0.6333554 0.7663719 0.6342512 0.7683513 0.6351594 0.770281 0.6582216 0.75 0.875 0.75 0.6582216 0.5 0.875 0.75 0.875 0.5 0.6582216 0.5 0.6582216 0.5 0.6351594 0.4797191 0.6250379 0.5304781 0.6351594 0.4797191 0.6342512 0.4816488 0.6268032 0.5150511 0.6342512 0.4816488 0.6333554 0.4836281 0.6324782 0.4856436 0.6324782 0.4856436 0.6316256 0.4876817 0.6308033 0.4897282 0.6308033 0.4897282 0.6300171 0.4917691 0.6324782 0.4856436 0.6300171 0.4917691 0.6292722 0.4937908 0.6324782 0.4856436 0.6292722 0.4937908 0.6285738 0.4957791 0.6279266 0.5107212 0.6279266 0.5107212 0.6273351 0.5128164 0.6268032 0.5150511 0.6268032 0.5150511 0.6263347 0.5174099 0.6259328 0.5198766 0.6259328 0.5198766 0.6256 0.5224346 0.6268032 0.5150511 0.6256 0.5224346 0.6253389 0.5250661 0.6268032 0.5150511 0.6253389 0.5250661 0.625151 0.5277535 0.6250379 0.5304781 0.6582216 0.5 0.625 0.7167784 0.6582216 0.75 0.625151 0.7222465 0.6256 0.7275655 0.6285738 0.7542209 0.6256 0.7275655 0.6263347 0.7325902 0.6285738 0.7542209 0.6285738 0.7542209 0.6300171 0.7582309 0.6316255 0.7623184 0.6351594 0.4797191 0.6268032 0.5150511 0.6253389 0.5250661 0.6342512 0.4816488 0.6324782 0.4856436 0.6268032 0.5150511 0.6292722 0.4937908 0.6279266 0.5107212 0.6324782 0.4856436 0.6279266 0.5107212 0.6268032 0.5150511 0.6324782 0.4856436 0.6253389 0.5250661 0.6250379 0.5304781 0.6351594 0.4797191 0.6285738 0.7542209 0.6316255 0.7623184 0.625151 0.7222465 0.375 0.7167784 0.625 0.7167784 0.625 0.5332216 0.375 0.25 0.375 0.4667785 0.625 0.4667785 0.625 0.5332216 0.6250379 0.5304781 0.3749622 0.5304781 0.625151 0.5277535 0.374849 0.5277535 0.3749622 0.5304781 0.625151 0.5277535 0.6253389 0.5250661 0.3746612 0.5250661 0.6256 0.5224346 0.3744 0.5224346 0.3746612 0.5250661 0.6259328 0.5198766 0.3740673 0.5198766 0.3744 0.5224346 0.6259328 0.5198766 0.6263347 0.5174099 0.3736653 0.5174098 0.6268032 0.5150511 0.3731968 0.5150511 0.3736653 0.5174098 0.6273351 0.5128164 0.372665 0.5128164 0.3731968 0.5150511 0.6279266 0.5107212 0.3720735 0.5107212 0.372665 0.5128164 0.6285738 0.4957791 0.3714263 0.495779 0.3720735 0.5107212 0.6292722 0.4937908 0.3707278 0.4937908 0.3714263 0.495779 0.6300171 0.4917691 0.369983 0.4917691 0.3707278 0.4937908 0.6308033 0.4897282 0.3691967 0.4897281 0.369983 0.4917691 0.6316256 0.4876817 0.3683745 0.4876816 0.3691967 0.4897281 0.6324782 0.4856436 0.3675218 0.4856437 0.3683745 0.4876816 0.6333554 0.4836281 0.3666446 0.4836281 0.3675218 0.4856437 0.6342512 0.4816488 0.3657488 0.4816488 0.3666446 0.4836281 0.6351594 0.4797191 0.3648406 0.4797191 0.3657488 0.4816488 0.625 0.4667785 0.375 0.4667785 0.3648406 0.4797191 0.625 0.7832216 0.6351594 0.770281 0.3648406 0.770281 0.6342512 0.7683513 0.3657488 0.7683513 0.3648406 0.770281 0.6342512 0.7683513 0.6333554 0.7663719 0.3666446 0.7663719 0.6324782 0.7643563 0.3675218 0.7643563 0.3666446 0.7663719 0.6316255 0.7623184 0.3683745 0.7623183 0.3675218 0.7643563 0.6316255 0.7623184 0.6308033 0.7602719 0.3691967 0.7602719 0.6300171 0.7582309 0.369983 0.7582309 0.3691967 0.7602719 0.6292722 0.7562093 0.3707278 0.7562093 0.369983 0.7582309 0.6285738 0.7542209 0.3714263 0.7542209 0.3707278 0.7562093 0.6279266 0.7392788 0.3720735 0.7392788 0.3714263 0.7542209 0.6273351 0.7371836 0.372665 0.7371836 0.3720735 0.7392788 0.6268032 0.734949 0.3731968 0.7349489 0.372665 0.7371836 0.6263347 0.7325902 0.3736653 0.7325902 0.3731968 0.7349489 0.6259327 0.7301234 0.3740673 0.7301234 0.3736653 0.7325902 0.6256 0.7275655 0.3744 0.7275655 0.3740673 0.7301234 0.6253389 0.7249339 0.3746612 0.7249339 0.3744 0.7275655 0.625151 0.7222465 0.374849 0.7222465 0.3746612 0.7249339 0.6250378 0.7195218 0.3749622 0.7195219 0.374849 0.7222465 0.625 0.7167784 0.375 0.7167784 0.3749622 0.7195219 0.375 0.25 0.375 0.25 0.375 0 0.375 0.5332216 0.375 0.5332216 0.3749622 0.5304781 0.374849 0.5277535 0.3749622 0.5304781 0.3749622 0.5304781 0.374849 0.5277535 0.374849 0.5277535 0.3746612 0.5250661 0.3746612 0.5250661 0.3746612 0.5250661 0.3744 0.5224346 0.3740673 0.5198766 0.3744 0.5224346 0.3744 0.5224346 0.3740673 0.5198766 0.3740673 0.5198766 0.3736653 0.5174098 0.3731968 0.5150511 0.3736653 0.5174098 0.3736653 0.5174098 0.3731968 0.5150511 0.3731968 0.5150511 0.372665 0.5128164 0.3720735 0.5107212 0.372665 0.5128164 0.372665 0.5128164 0.3720735 0.5107212 0.3720735 0.5107212 0.3714263 0.495779 0.3714263 0.495779 0.3714263 0.495779 0.3707278 0.4937908 0.369983 0.4917691 0.3707278 0.4937908 0.3707278 0.4937908 0.369983 0.4917691 0.369983 0.4917691 0.3691967 0.4897281 0.3683745 0.4876816 0.3691967 0.4897281 0.3691967 0.4897281 0.3683745 0.4876816 0.3683745 0.4876816 0.3675218 0.4856437 0.3675218 0.4856437 0.3675218 0.4856437 0.3666446 0.4836281 0.3657488 0.4816488 0.3666446 0.4836281 0.3666446 0.4836281 0.3657488 0.4816488 0.3657488 0.4816488 0.3648406 0.4797191 0.375 0.4667785 0.3648406 0.4797191 0.3648406 0.4797191 0.375 0.7832216 0.375 0.7832216 0.3648406 0.770281 0.3657488 0.7683513 0.3648406 0.770281 0.3648406 0.770281 0.3657488 0.7683513 0.3657488 0.7683513 0.3666446 0.7663719 0.3675218 0.7643563 0.3666446 0.7663719 0.3666446 0.7663719 0.3683745 0.7623183 0.3675218 0.7643563 0.3675218 0.7643563 0.3683745 0.7623183 0.3683745 0.7623183 0.3691967 0.7602719 0.369983 0.7582309 0.3691967 0.7602719 0.3691967 0.7602719 0.369983 0.7582309 0.369983 0.7582309 0.3707278 0.7562093 0.3714263 0.7542209 0.3707278 0.7562093 0.3707278 0.7562093 0.3714263 0.7542209 0.3714263 0.7542209 0.3720735 0.7392788 0.3720735 0.7392788 0.3720735 0.7392788 0.372665 0.7371836 0.3731968 0.7349489 0.372665 0.7371836 0.372665 0.7371836 0.3731968 0.7349489 0.3731968 0.7349489 0.3736653 0.7325902 0.3740673 0.7301234 0.3736653 0.7325902 0.3736653 0.7325902 0.3740673 0.7301234 0.3740673 0.7301234 0.3744 0.7275655 0.3746612 0.7249339 0.3744 0.7275655 0.3744 0.7275655 0.374849 0.7222465 0.3746612 0.7249339 0.3746612 0.7249339 0.374849 0.7222465 0.374849 0.7222465 0.3749622 0.7195219 0.375 0.7167784 0.3749622 0.7195219 0.3749622 0.7195219 0.375 0.4667785 0.375 0.4667785 0.375 0.25 0.375 0.7167784 0.375 0.7167784 0.375 0.5332216 0.375 0.7832216 0.375 1 0.375 1</float_array>
          <technique_common>
            <accessor source="#Cube_042-mesh-map-0-array" count="996" stride="2">
              <param name="S" type="float"/>
              <param name="T" type="float"/>
            </accessor>
          </technique_common>
        </source>
        <vertices id="Cube_042-mesh-vertices">
          <input semantic="POSITION" source="#Cube_042-mesh-positions"/>
        </vertices>
        <triangles material="Material_004-material" count="332">
          <input semantic="VERTEX" source="#Cube_042-mesh-vertices" offset="0"/>
          <input semantic="NORMAL" source="#Cube_042-mesh-normals" offset="1"/>
          <input semantic="TEXCOORD" source="#Cube_042-mesh-map-0" offset="2" set="0"/>
          <p>1 0 0 2 0 1 0 0 2 24 1 3 0 1 4 5 1 5 68 2 6 76 2 7 65 2 8 64 3 9 4 3 10 45 3 11 3 4 12 44 4 13 2 4 14 45 5 15 66 5 16 64 5 17 63 6 18 67 6 19 66 6 20 62 7 21 68 7 22 67 7 23 61 8 24 69 8 25 68 8 26 60 9 27 70 9 28 69 9 29 59 10 30 71 10 31 70 10 32 58 11 33 72 11 34 71 11 35 57 12 36 73 12 37 72 12 38 56 13 39 74 13 40 73 13 41 55 14 42 75 14 43 74 14 44 54 15 45 76 15 46 75 15 47 53 16 48 77 16 49 76 16 50 52 17 51 78 17 52 77 17 53 51 18 54 79 18 55 78 18 56 50 19 57 80 19 58 79 19 59 49 20 60 81 20 61 80 20 62 48 21 63 82 21 64 81 21 65 47 22 66 83 22 67 82 22 68 46 23 69 65 23 70 83 23 71 5 24 72 26 24 73 24 24 74 23 25 75 27 25 76 26 25 77 22 26 78 28 26 79 27 26 80 21 27 81 29 27 82 28 27 83 20 28 84 30 28 85 29 28 86 19 29 87 31 29 88 30 29 89 18 30 90 32 30 91 31 30 92 17 31 93 33 31 94 32 31 95 16 32 96 34 32 97 33 32 98 15 33 99 35 33 100 34 33 101 14 34 102 36 34 103 35 34 104 13 35 105 37 35 106 36 35 107 12 36 108 38 36 109 37 36 110 11 37 111 39 37 112 38 37 113 10 38 114 40 38 115 39 38 116 9 39 117 41 39 118 40 39 119 8 40 120 42 40 121 41 40 122 7 41 123 43 41 124 42 41 125 6 42 126 25 42 127 43 42 128 86 43 129 85 43 130 84 43 131 84 44 132 108 44 133 89 44 134 114 45 135 110 45 136 126 45 137 88 46 138 148 46 139 129 46 140 86 47 141 149 47 142 87 47 143 148 48 144 147 48 145 129 48 146 151 49 147 147 49 148 150 49 149 151 50 150 145 50 151 146 50 152 153 51 153 145 51 154 152 51 155 154 52 156 144 52 157 153 52 158 154 53 159 142 53 160 143 53 161 156 54 162 142 54 163 155 54 164 157 55 165 141 55 166 156 55 167 158 56 168 140 56 169 157 56 170 159 57 171 139 57 172 158 57 173 160 58 174 138 58 175 159 58 176 161 59 177 137 59 178 160 59 179 162 60 180 136 60 181 161 60 182 163 61 183 135 61 184 162 61 185 164 62 186 134 62 187 163 62 188 165 63 189 133 63 190 164 63 191 166 64 192 132 64 193 165 64 194 167 65 195 131 65 196 166 65 197 149 66 198 130 66 199 167 66 200 108 67 201 107 67 202 89 67 203 111 68 204 107 68 205 110 68 206 111 69 207 105 69 208 106 69 209 113 70 210 105 70 211 112 70 212 114 71 213 104 71 214 113 71 215 114 72 216 102 72 217 103 72 218 116 73 219 102 73 220 115 73 221 117 74 222 101 74 223 116 74 224 118 75 225 100 75 226 117 75 227 119 76 228 99 76 229 118 76 230 120 77 231 98 77 232 119 77 233 121 78 234 97 78 235 120 78 236 122 79 237 96 79 238 121 79 239 123 80 240 95 80 241 122 80 242 124 81 243 94 81 244 123 81 245 125 82 246 93 82 247 124 82 248 126 83 249 92 83 250 125 83 251 127 84 252 91 84 253 126 84 254 109 85 255 90 85 256 127 85 257 2 86 258 84 86 259 0 86 260 45 45 261 147 45 262 63 45 263 62 45 264 147 45 265 146 45 266 62 45 267 145 45 268 61 45 269 61 45 270 144 45 271 60 45 272 59 45 273 144 45 274 143 45 275 59 45 276 142 45 277 58 45 278 57 45 279 142 45 280 141 45 281 57 45 282 140 45 283 56 45 284 55 45 285 140 45 286 139 45 287 55 45 288 138 45 289 54 45 290 54 45 291 137 45 292 53 45 293 52 45 294 137 45 295 136 45 296 52 45 297 135 45 298 51 45 299 50 45 300 135 45 301 134 45 302 50 45 303 133 45 304 49 45 305 49 45 306 132 45 307 48 45 308 47 45 309 132 45 310 131 45 311 47 45 312 130 45 313 46 45 314 44 45 315 130 45 316 128 45 317 5 45 318 107 45 319 23 45 320 22 45 321 107 45 322 106 45 323 22 45 324 105 45 325 21 45 326 20 45 327 105 45 328 104 45 329 19 45 330 104 45 331 103 45 332 19 45 333 102 45 334 18 45 335 17 45 336 102 45 337 101 45 338 17 45 339 100 45 340 16 45 341 15 45 342 100 45 343 99 45 344 15 45 345 98 45 346 14 45 347 14 45 348 97 45 349 13 45 350 12 45 351 97 45 352 96 45 353 12 45 354 95 45 355 11 45 356 10 45 357 95 45 358 94 45 359 10 45 360 93 45 361 9 45 362 8 45 363 93 45 364 92 45 365 7 45 366 92 45 367 91 45 368 7 45 369 90 45 370 6 45 371 4 45 372 90 45 373 88 45 374 44 45 375 86 45 376 2 45 377 4 87 378 129 87 379 45 87 380 5 45 381 84 45 382 89 45 383 1 0 384 3 0 385 2 0 386 24 1 387 1 1 388 0 1 389 25 2 390 64 2 391 65 2 392 64 2 393 66 2 394 65 2 395 66 2 396 67 2 397 68 2 398 68 2 399 69 2 400 70 2 401 70 2 402 71 2 403 68 2 404 71 2 405 72 2 406 68 2 407 72 2 408 73 2 409 76 2 410 73 2 411 74 2 412 76 2 413 74 2 414 75 2 415 76 2 416 76 2 417 77 2 418 78 2 419 78 2 420 79 2 421 76 2 422 79 2 423 80 2 424 76 2 425 80 2 426 81 2 427 82 2 428 82 2 429 83 2 430 65 2 431 65 2 432 3 2 433 1 2 434 1 2 435 24 2 436 65 2 437 24 2 438 26 2 439 38 2 440 65 2 441 24 2 442 25 2 443 26 2 444 27 2 445 28 2 446 28 2 447 29 2 448 30 2 449 30 2 450 31 2 451 32 2 452 32 2 453 33 2 454 30 2 455 33 2 456 34 2 457 30 2 458 34 2 459 35 2 460 36 2 461 36 2 462 37 2 463 38 2 464 38 2 465 39 2 466 40 2 467 40 2 468 41 2 469 38 2 470 41 2 471 42 2 472 38 2 473 42 2 474 43 2 475 25 2 476 66 2 477 68 2 478 65 2 479 80 2 480 82 2 481 76 2 482 82 2 483 65 2 484 76 2 485 26 2 486 28 2 487 30 2 488 34 2 489 36 2 490 30 2 491 36 2 492 38 2 493 30 2 494 42 2 495 25 2 496 38 2 497 38 2 498 25 2 499 24 2 500 68 2 501 72 2 502 76 2 503 26 2 504 30 2 505 38 2 506 64 3 507 25 3 508 4 3 509 3 4 510 65 4 511 44 4 512 45 5 513 63 5 514 66 5 515 63 6 516 62 6 517 67 6 518 62 7 519 61 7 520 68 7 521 61 8 522 60 8 523 69 8 524 60 9 525 59 9 526 70 9 527 59 88 528 58 88 529 71 88 530 58 89 531 57 89 532 72 89 533 57 12 534 56 12 535 73 12 536 56 13 537 55 13 538 74 13 539 55 14 540 54 14 541 75 14 542 54 15 543 53 15 544 76 15 545 53 90 546 52 90 547 77 90 548 52 91 549 51 91 550 78 91 551 51 92 552 50 92 553 79 92 554 50 93 555 49 93 556 80 93 557 49 94 558 48 94 559 81 94 560 48 95 561 47 95 562 82 95 563 47 96 564 46 96 565 83 96 566 46 97 567 44 97 568 65 97 569 5 98 570 23 98 571 26 98 572 23 99 573 22 99 574 27 99 575 22 100 576 21 100 577 28 100 578 21 101 579 20 101 580 29 101 581 20 102 582 19 102 583 30 102 584 19 103 585 18 103 586 31 103 587 18 104 588 17 104 589 32 104 590 17 105 591 16 105 592 33 105 593 16 32 594 15 32 595 34 32 596 15 33 597 14 33 598 35 33 599 14 34 600 13 34 601 36 34 602 13 35 603 12 35 604 37 35 605 12 106 606 11 106 607 38 106 608 11 107 609 10 107 610 39 107 611 10 38 612 9 38 613 40 38 614 9 39 615 8 39 616 41 39 617 8 40 618 7 40 619 42 40 620 7 41 621 6 41 622 43 41 623 6 42 624 4 42 625 25 42 626 86 108 627 87 108 628 85 108 629 84 109 630 85 109 631 108 109 632 150 110 633 148 110 634 149 110 635 148 111 636 109 111 637 149 111 638 109 112 639 127 112 640 108 112 641 127 113 642 126 113 643 110 113 644 108 114 645 127 114 646 110 114 647 126 115 648 125 115 649 124 115 650 124 45 651 123 45 652 122 45 653 122 45 654 121 45 655 118 45 656 121 45 657 120 45 658 118 45 659 120 116 660 119 116 661 118 116 662 118 117 663 117 117 664 116 117 665 116 45 666 115 45 667 114 45 668 114 45 669 113 45 670 110 45 671 113 118 672 112 118 673 110 118 674 112 45 675 111 45 676 110 45 677 108 119 678 85 119 679 149 119 680 85 120 681 87 120 682 149 120 683 149 121 684 167 121 685 150 121 686 167 45 687 166 45 688 156 45 689 166 45 690 165 45 691 164 45 692 164 45 693 163 45 694 162 45 695 162 45 696 161 45 697 164 45 698 161 45 699 160 45 700 164 45 701 160 45 702 159 45 703 158 45 704 158 122 705 157 122 706 156 122 707 156 45 708 155 45 709 154 45 710 154 45 711 153 45 712 156 45 713 153 45 714 152 45 715 156 45 716 152 45 717 151 45 718 150 45 719 149 123 720 109 123 721 108 123 722 126 45 723 124 45 724 118 45 725 124 45 726 122 45 727 118 45 728 118 124 729 116 124 730 114 124 731 167 125 732 156 125 733 152 125 734 166 126 735 164 126 736 156 126 737 160 45 738 158 45 739 164 45 740 158 45 741 156 45 742 164 45 743 152 127 744 150 127 745 167 127 746 118 45 747 114 45 748 126 45 749 88 128 750 109 128 751 148 128 752 86 129 753 128 129 754 149 129 755 148 130 756 150 130 757 147 130 758 151 131 759 146 131 760 147 131 761 151 132 762 152 132 763 145 132 764 153 133 765 144 133 766 145 133 767 154 134 768 143 134 769 144 134 770 154 135 771 155 135 772 142 135 773 156 136 774 141 136 775 142 136 776 157 137 777 140 137 778 141 137 779 158 138 780 139 138 781 140 138 782 159 139 783 138 139 784 139 139 785 160 140 786 137 140 787 138 140 788 161 141 789 136 141 790 137 141 791 162 142 792 135 142 793 136 142 794 163 143 795 134 143 796 135 143 797 164 144 798 133 144 799 134 144 800 165 145 801 132 145 802 133 145 803 166 146 804 131 146 805 132 146 806 167 147 807 130 147 808 131 147 809 149 148 810 128 148 811 130 148 812 108 149 813 110 149 814 107 149 815 111 150 816 106 150 817 107 150 818 111 151 819 112 151 820 105 151 821 113 152 822 104 152 823 105 152 824 114 153 825 103 153 826 104 153 827 114 154 828 115 154 829 102 154 830 116 155 831 101 155 832 102 155 833 117 156 834 100 156 835 101 156 836 118 157 837 99 157 838 100 157 839 119 158 840 98 158 841 99 158 842 120 159 843 97 159 844 98 159 845 121 160 846 96 160 847 97 160 848 122 161 849 95 161 850 96 161 851 123 162 852 94 162 853 95 162 854 124 163 855 93 163 856 94 163 857 125 164 858 92 164 859 93 164 860 126 165 861 91 165 862 92 165 863 127 166 864 90 166 865 91 166 866 109 167 867 88 167 868 90 167 869 2 168 870 86 168 871 84 168 872 45 45 873 129 45 874 147 45 875 62 45 876 63 45 877 147 45 878 62 45 879 146 45 880 145 45 881 61 45 882 145 45 883 144 45 884 59 45 885 60 45 886 144 45 887 59 45 888 143 45 889 142 45 890 57 45 891 58 45 892 142 45 893 57 45 894 141 45 895 140 45 896 55 45 897 56 45 898 140 45 899 55 45 900 139 45 901 138 45 902 54 45 903 138 45 904 137 45 905 52 45 906 53 45 907 137 45 908 52 45 909 136 45 910 135 45 911 50 45 912 51 45 913 135 45 914 50 45 915 134 45 916 133 45 917 49 45 918 133 45 919 132 45 920 47 45 921 48 45 922 132 45 923 47 45 924 131 45 925 130 45 926 44 45 927 46 45 928 130 45 929 5 45 930 89 45 931 107 45 932 22 45 933 23 45 934 107 45 935 22 45 936 106 45 937 105 45 938 20 45 939 21 45 940 105 45 941 19 45 942 20 45 943 104 45 944 19 45 945 103 45 946 102 45 947 17 45 948 18 45 949 102 45 950 17 45 951 101 45 952 100 45 953 15 45 954 16 45 955 100 45 956 15 45 957 99 45 958 98 45 959 14 45 960 98 45 961 97 45 962 12 45 963 13 45 964 97 45 965 12 45 966 96 45 967 95 45 968 10 45 969 11 45 970 95 45 971 10 45 972 94 45 973 93 45 974 8 45 975 9 45 976 93 45 977 7 45 978 8 45 979 92 45 980 7 45 981 91 45 982 90 45 983 4 45 984 6 45 985 90 45 986 44 45 987 128 45 988 86 45 989 4 169 990 88 169 991 129 169 992 5 45 993 0 45 994 84 45 995</p>
        </triangles>
      </mesh>
    </geometry>
  </library_geometries>
  <library_visual_scenes>
    <visual_scene id="Scene" name="Scene">
      <node id="Cube_025" name="Cube.025" type="NODE">
        <matrix sid="transform">-0.341 0 0 0 0 0 -0.0925 0 0 0.4655 0 0 0 0 0 1</matrix>
        <instance_geometry url="#Cube_042-mesh" name="Cube.025">
          <bind_material>
            <technique_common>
              <instance_material symbol="Material_004-material" target="#Material_004-material">
                <bind_vertex_input semantic="UVMap" input_semantic="TEXCOORD" input_set="0"/>
              </instance_material>
            </technique_common>
          </bind_material>
        </instance_geometry>
      </node>
    </visual_scene>
  </library_visual_scenes>
  <scene>
    <instance_visual_scene url="#Scene"/>
  </scene>
</COLLADA>