<?xml version="1.0" encoding="utf-8"?>
<COLLADA xmlns="http://www.collada.org/2005/11/COLLADASchema" version="1.4.1" xmlns:xsi="http://www.w3.org/2001/XMLSchema-instance">
  <asset>
    <contributor>
      <author>Blender User</author>
      <authoring_tool>Blender 2.83.20 commit date:2022-04-19, commit time:16:00, hash:a56e2faeb7a9</authoring_tool>
    </contributor>
    <created>2026-06-23T13:46:08</created>
    <modified>2026-06-23T13:46:08</modified>
    <unit name="meter" meter="1"/>
    <up_axis>Z_UP</up_axis>
  </asset>
  <library_effects>
    <effect id="Material_004-effect">
      <profile_COMMON>
        <technique sid="common">
          <lambert>
            <emission>
              <color sid="emission">0 0 0 1</color>
            </emission>
            <diffuse>
              <color sid="diffuse">0 0 0 1</color>
            </diffuse>
            <index_of_refraction>
              <float sid="ior">1.45</float>
            </index_of_refraction>
          </lambert>
        </technique>
      </profile_COMMON>
    </effect>
  </library_effects>
  <library_images/>
  <library_materials>
    <material id="Material_004-material" name="Material.004">
      <instance_effect url="#Material_004-effect"/>
    </material>
  </library_materials>
  <library_geometries>
    <geometry id="Cube_049-mesh" name="Cube.049">
      <mesh>
        <source id="Cube_049-mesh-positions">
          <float_array id="Cube_049-mesh-positions-array" count="480">0.9984836 -0.7342275 -1 0.7327111 -1 -1 0.9975758 -0.7561749 -1 0.9948588 -0.7779722 -1 0.990351 -0.7994709 -1 0.9840834 -0.8205237 -1 0.9760985 -0.8409872 -1 0.9664511 -0.8607212 -1 0.9552069 -0.8795913 -1 0.942443 -0.8974683 -1 0.9282463 -0.9142304 -1 0.912714 -0.9297627 -1 0.8959519 -0.9439594 -1 0.8780749 -0.9567233 -1 0.8592048 -0.9679675 -1 0.8394708 -0.9776149 -1 0.8190073 -0.9855998 -1 0.7979544 -0.9918674 -1 0.7764558 -0.9963752 -1 0.7546585 -0.9990922 -1 0.7327111 -1 1 0.9984836 -0.7342275 1 0.7546585 -0.9990922 1 0.7764558 -0.9963752 1 0.7979544 -0.9918674 1 0.8190073 -0.9855998 1 0.8394708 -0.9776149 1 0.8592048 -0.9679675 1 0.8780749 -0.9567233 1 0.8959519 -0.9439594 1 0.912714 -0.9297627 1 0.9282463 -0.9142304 1 0.942443 -0.8974683 1 0.9552069 -0.8795913 1 0.9664511 -0.8607212 1 0.9760985 -0.8409872 1 0.9840834 -0.8205237 1 0.990351 -0.7994709 1 0.9948588 -0.7779722 1 0.9975758 -0.7561749 1 0.7327111 1 -1 0.9984836 0.7342275 -1 0.7546585 0.9990922 -1 0.7764558 0.9963752 -1 0.7979544 0.9918674 -1 0.8190073 0.9855998 -1 0.8394708 0.9776149 -1 0.8592048 0.9679675 -1 0.8780749 0.9567233 -1 0.8959519 0.9439594 -1 0.912714 0.9297627 -1 0.9282463 0.9142304 -1 0.942443 0.8974683 -1 0.9552069 0.8795913 -1 0.9664511 0.8607212 -1 0.9760985 0.8409872 -1 0.9840834 0.8205237 -1 0.990351 0.7994709 -1 0.9948588 0.7779722 -1 0.9975758 0.7561749 -1 0.9984836 0.7342275 1 0.7327111 1 1 0.9975758 0.7561749 1 0.9948588 0.7779722 1 0.990351 0.7994709 1 0.9840834 0.8205237 1 0.9760985 0.8409872 1 0.9664511 0.8607212 1 0.9552069 0.8795913 1 0.942443 0.8974683 1 0.9282463 0.9142304 1 0.912714 0.9297627 1 0.8959519 0.9439594 1 0.8780749 0.9567233 1 0.8592048 0.9679675 1 0.8394708 0.9776149 1 0.8190073 0.9855998 1 0.7979544 0.9918674 1 0.7764558 0.9963752 1 0.7546585 0.9990922 1 0.898505 -0.7321615 -1 0.7306451 -0.9000214 -1 0.8979176 -0.7479196 -1 0.896223 -0.7615136 -1 0.8934121 -0.7749248 -1 0.8895035 -0.7880551 -1 0.8845216 -0.8008187 -1 0.8785059 -0.8131276 -1 0.8714916 -0.8248991 -1 0.8635312 -0.8360499 -1 0.8546754 -0.8465037 -1 0.8449873 -0.8561918 -1 0.8345335 -0.8650476 -1 0.8233827 -0.873008 -1 0.8116112 -0.8800223 -1 0.7993023 -0.886038 -1 0.7865387 -0.8910198 -1 0.7734084 -0.8949285 -1 0.7599972 -0.8977394 -1 0.7464032 -0.899434 -1 0.7312432 -0.9288461 0.9297525 0.9273297 -0.7327596 0.9297525 0.7487471 -0.9277216 0.9302103 0.7646696 -0.9257371 0.9302103 0.7803758 -0.9224439 0.9302103 0.7957553 -0.917864 0.9302103 0.810704 -0.9120306 0.9302103 0.8251218 -0.9049834 0.9302103 0.8389044 -0.8967697 0.9302103 0.8519656 -0.8874452 0.9302103 0.8642109 -0.8770725 0.9302103 0.8755561 -0.8657273 0.9302103 0.8859288 -0.853482 0.9302103 0.8952533 -0.8404208 0.9302103 0.9034669 -0.8266382 0.9302103 0.9105142 -0.8122204 0.9302103 0.9163475 -0.7972717 0.9302103 0.9209275 -0.7818922 0.9302103 0.9242207 -0.766186 0.9302103 0.9262052 -0.7502635 0.9302103 0.7306451 0.9000214 -1 0.898505 0.7321615 -1 0.7464032 0.899434 -1 0.7599972 0.8977394 -1 0.7734084 0.8949285 -1 0.7865387 0.8910198 -1 0.7993023 0.886038 -1 0.8116112 0.8800223 -1 0.8233827 0.873008 -1 0.8345335 0.8650476 -1 0.8449873 0.8561918 -1 0.8546754 0.8465037 -1 0.8635312 0.8360499 -1 0.8714916 0.8248991 -1 0.8785059 0.8131276 -1 0.8845216 0.8008187 -1 0.8895035 0.7880551 -1 0.8934121 0.7749248 -1 0.896223 0.7615136 -1 0.8979176 0.7479196 -1 0.9273297 0.7327596 0.9297525 0.7312432 0.9288461 0.9297525 0.9262052 0.7502635 0.9302103 0.9242207 0.766186 0.9302103 0.9209275 0.7818922 0.9302103 0.9163475 0.7972717 0.9302103 0.9105142 0.8122204 0.9302103 0.9034669 0.8266382 0.9302103 0.8952533 0.8404208 0.9302103 0.8859288 0.853482 0.9302103 0.8755561 0.8657273 0.9302103 0.8642109 0.8770725 0.9302103 0.8519656 0.8874452 0.9302103 0.8389044 0.8967697 0.9302103 0.8251218 0.9049834 0.9302103 0.810704 0.9120306 0.9302103 0.7957553 0.917864 0.9302103 0.7803758 0.9224439 0.9302103 0.7646696 0.9257371 0.9302103 0.7487471 0.9277216 0.9302103</float_array>
          <technique_common>
            <accessor source="#Cube_049-mesh-positions-array" count="160" stride="3">
              <param name="X" type="float"/>
              <param name="Y" type="float"/>
              <param name="Z" type="float"/>
            </accessor>
          </technique_common>
        </source>
        <source id="Cube_049-mesh-normals">
          <float_array id="Cube_049-mesh-normals-array" count="666">1 0 0 0.9991458 0.04132634 0 0.9923208 0.1236917 0 0.978717 0.205215 0 0.9584282 0.2853341 0 0.9315906 0.3635092 0 0.8983895 0.4391996 0 0.8590551 0.5118833 0 0.8138484 0.5810773 0 0.7630857 0.6462973 0 0.7071068 0.7071068 0 0.6462973 0.7630857 0 0.5810785 0.8138475 0 0.511884 0.8590546 0 0.4391986 0.8983901 0 0.3635082 0.931591 0 0.2853333 0.9584284 0 0.2052145 0.978717 0 0.123692 0.9923207 0 0.04132622 0.9991458 0 0.04132646 -0.9991458 0 0.1236914 -0.9923208 0 0.2052156 -0.9787168 0 0.2853348 -0.9584279 0 0.3635101 -0.9315903 0 0.4391964 -0.8983911 0 0.5118864 -0.8590531 0 0.581076 -0.8138494 0 0.6462973 -0.7630857 0 0.7071068 -0.7071068 0 0.7630857 -0.6462973 0 0.8138484 -0.5810773 0 0.8590527 -0.5118873 0 0.8983917 -0.4391953 0 0.9315906 -0.3635092 0 0.9584282 -0.2853341 0 0.978717 -0.205215 0 0.9923208 -0.1236917 0 0.9991458 -0.04132634 0 -0.9998885 0 0.01493531 -0.9991944 -0.03725057 0.01493662 -0.9922138 -0.1236773 0.01469123 -0.9786257 -0.2051246 0.01469135 -0.9583018 -0.2853803 0.01469075 -0.9314864 -0.3634794 0.0146901 -0.8983434 -0.4390484 0.01469081 -0.8589301 -0.5118823 0.01469045 -0.8137955 -0.5809657 0.01468992 -0.7629577 -0.6462815 0.01468986 -0.7070288 -0.7070323 0.01469016 -0.6462808 -0.7629584 0.01469022 -0.5809683 -0.8137938 0.01468974 -0.5118768 -0.8589333 0.01469004 -0.4390888 -0.8983237 0.01469027 -0.3634845 -0.9314845 0.01469051 -0.2853806 -0.9583017 0.01469016 -0.2051889 -0.9786121 0.01469093 -0.1236668 -0.9922151 0.01469135 -0.06448632 -0.9978104 0.01470118 -0.03724265 0.9991946 0.01493668 -0.1236667 0.9922151 0.01469123 -0.2051171 0.9786273 0.01469141 -0.2853785 0.9583024 0.01469087 -0.3634871 0.9314835 0.01469004 -0.4390487 0.8983432 0.01469075 -0.5118768 0.8589333 0.01469033 -0.5809683 0.8137938 0.01468992 -0.6462885 0.7629519 0.01469004 -0.7070326 0.7070285 0.01468998 -0.7629578 0.6462816 0.01468986 -0.8137918 0.5809708 0.0146898 -0.8589301 0.5118823 0.0146901 -0.8983251 0.4390859 0.01469027 -0.9314864 0.3634794 0.01469057 -0.9583019 0.2853803 0.01469004 -0.9786139 0.2051806 0.01469105 -0.9922147 0.1236697 0.01469141 -0.9978113 0.06447178 0.01470124 0 0 -1 -8.11974e-7 0 -1 -0.9997866 -0.0206598 1.27591e-6 -0.7025597 0 0.7116249 -0.4512996 0.5327779 0.7158747 -0.9997873 0.02062648 0 -0.5327774 -0.4513052 0.7158714 0.8983917 0.4391953 0 0.8590527 0.5118873 0 0.581076 0.8138494 0 0.5118864 0.8590531 0 0.4391964 0.8983911 0 0.3635101 0.9315903 0 0.2853348 0.9584279 0 0.2052156 0.9787168 0 0.1236914 0.9923208 0 0.04132646 0.9991458 0 0.04132622 -0.9991458 0 0.123692 -0.9923207 0 0.2052145 -0.978717 0 0.2853333 -0.9584284 0 0.3635082 -0.931591 0 0.4391986 -0.8983901 0 0.511884 -0.8590546 0 0.5810785 -0.8138475 0 0.8590551 -0.5118833 0 0.8983895 -0.4391996 0 -0.9998885 0 0.01493531 -0.9978113 -0.06447178 0.01470124 -0.9922129 -0.1236848 0.01469141 -0.9786139 -0.2051806 0.01469105 -0.9583324 -0.2852779 0.01468992 -0.9314522 -0.3635672 0.01469063 -0.8983251 -0.4390859 0.01469027 -0.8589598 -0.5118322 0.01469004 -0.8137969 -0.5809638 0.01468974 -0.7629327 -0.6463111 0.01469004 -0.7070332 -0.7070277 0.0146901 -0.6463165 -0.7629282 0.01468998 -0.5809575 -0.8138014 0.01468986 -0.5118319 -0.85896 0.01469045 -0.4390487 -0.8983432 0.01469075 -0.3635623 -0.9314541 0.0146901 -0.2852755 -0.958333 0.01469087 -0.2051171 -0.9786273 0.01469141 -0.1236891 -0.9922122 0.01469123 -0.03724265 -0.9991946 0.01493668 -0.06448632 0.9978104 0.01470118 -0.1236891 0.9922122 0.01469147 -0.2051889 0.9786121 0.01469093 -0.285278 0.9583323 0.0146901 -0.3635592 0.9314553 0.01469057 -0.4390888 0.8983237 0.01469027 -0.5118319 0.85896 0.0146901 -0.5809575 0.8138014 0.01468968 -0.6463075 0.7629356 0.01469004 -0.7070288 0.7070323 0.01469022 -0.7629327 0.6463111 0.01468998 -0.8138011 0.5809578 0.0146898 -0.8589598 0.5118322 0.01469039 -0.8983434 0.4390484 0.01469081 -0.9314522 0.3635672 0.01469004 -0.9583323 0.2852779 0.01469075 -0.9786257 0.2051246 0.01469135 -0.9922117 0.1236937 0.01469123 -0.9991944 0.03725057 0.01493662 1.62853e-6 0 -1 -0.9997873 -0.02062648 0 -0.7025609 0 0.7116236 -0.06359899 0.7004721 0.7108405 -0.02885794 0.6976299 0.7158769 -0.08636409 0.6928644 0.7158772 -0.1432853 0.6833713 0.7158722 -0.08635288 0.6928675 0.7158756 -0.1992225 0.6691981 0.7158801 -0.2538157 0.6504545 0.7158817 -0.3066168 0.6272982 0.7158793 -0.3066582 0.627284 0.7158741 -0.3574116 0.5998124 0.7158786 -0.4056968 0.5682746 0.715873 -0.4057254 0.5682497 0.7158766 -0.4512587 0.5328028 0.715882 -0.4937243 0.4937196 0.7158752 -0.4937184 0.4937184 0.7158801 -0.5328029 0.4512602 0.7158809 -0.5682517 0.4057244 0.7158756 -0.5998142 0.3574069 0.7158793 -0.6272808 0.3066617 0.7158752 -0.6504557 0.2538148 0.715881 -0.6504578 0.2538191 0.7158775 -0.6691961 0.1992289 0.7158803 -0.68337 0.1432859 0.7158733 -0.6691887 0.1992794 0.7158731 -0.692867 0.0863707 0.7158739 -0.6976294 0.02885121 0.7158777 -0.6833677 0.1432879 0.7158752 -0.7004736 0.06359887 0.710839 -0.6928641 0.08635085 0.7158791 -0.5997968 0.3574459 0.7158745 -0.5327774 0.4513052 0.7158714 -0.1432881 0.6833686 0.7158742 -0.6272989 0.3066089 0.7158821 -0.5682722 0.4056967 0.715875 -0.1992893 0.669186 0.7158728 -0.2538179 0.6504594 0.7158765 -0.3574481 0.5997933 0.7158764 -0.9997866 0.0206598 1.27591e-6 -0.7004742 -0.06359899 0.7108384 -0.6976298 -0.02885115 0.7158773 -0.692867 -0.0863707 0.7158739 -0.6833704 -0.1432859 0.715873 -0.6928651 -0.08635103 0.7158781 -0.6691964 -0.1992288 0.71588 -0.6504557 -0.2538148 0.715881 -0.6272981 -0.3066086 0.7158829 -0.6272813 -0.3066619 0.7158748 -0.5998153 -0.3574065 0.7158786 -0.5682731 -0.4056974 0.715874 -0.568252 -0.4057246 0.7158752 -0.5328041 -0.4512597 0.7158802 -0.4937222 -0.4937129 0.7158814 -0.49372 -0.4937234 0.7158756 -0.4512591 -0.5328034 0.7158811 -0.4057254 -0.5682497 0.7158766 -0.3574112 -0.5998117 0.7158794 -0.3066582 -0.627284 0.7158741 -0.2538157 -0.6504545 0.7158817 -0.2538179 -0.6504594 0.7158765 -0.1992225 -0.6691979 0.7158803 -0.1432853 -0.6833713 0.7158722 -0.1992893 -0.669186 0.7158728 -0.08636409 -0.6928644 0.7158772 -0.02885794 -0.6976301 0.7158768 -0.1432887 -0.6833686 0.7158741 -0.06359702 -0.7004731 0.7108396 -0.08635115 -0.6928676 0.7158758 -0.3574471 -0.5997947 0.7158756 -0.4512996 -0.5327779 0.7158747 -0.6833685 -0.1432881 0.7158743 -0.3066131 -0.627299 0.7158802 -0.4056938 -0.5682754 0.715874 -0.6691887 -0.1992794 0.7158731 -0.6504578 -0.2538191 0.7158775 -0.5997943 -0.3574458 0.7158766</float_array>
          <technique_common>
            <accessor source="#Cube_049-mesh-normals-array" count="222" stride="3">
              <param name="X" type="float"/>
              <param name="Y" type="float"/>
              <param name="Z" type="float"/>
            </accessor>
          </technique_common>
        </source>
        <source id="Cube_049-mesh-map-0">
          <float_array id="Cube_049-mesh-map-0-array" count="1896">0.625 0.5332216 0.375 0.7167784 0.375 0.5332216 0.375 0.5332216 0.6250379 0.5304781 0.625 0.5332216 0.3749622 0.5304781 0.625151 0.5277535 0.6250379 0.5304781 0.374849 0.5277535 0.6253389 0.5250661 0.625151 0.5277535 0.3746612 0.5250661 0.6256 0.5224346 0.6253389 0.5250661 0.3744 0.5224346 0.6259328 0.5198766 0.6256 0.5224346 0.3740673 0.5198766 0.6263347 0.5174099 0.6259328 0.5198766 0.3736653 0.5174098 0.6268032 0.5150511 0.6263347 0.5174099 0.3731968 0.5150511 0.6273351 0.5128164 0.6268032 0.5150511 0.372665 0.5128164 0.6279266 0.5107212 0.6273351 0.5128164 0.3720735 0.5107212 0.6285738 0.4957791 0.6279266 0.5107212 0.3714263 0.495779 0.6292722 0.4937908 0.6285738 0.4957791 0.3707278 0.4937908 0.6300171 0.4917691 0.6292722 0.4937908 0.369983 0.4917691 0.6308033 0.4897282 0.6300171 0.4917691 0.3691967 0.4897281 0.6316256 0.4876817 0.6308033 0.4897282 0.3683745 0.4876816 0.6324782 0.4856436 0.6316256 0.4876817 0.3675218 0.4856437 0.6333554 0.4836281 0.6324782 0.4856436 0.3666446 0.4836281 0.6342512 0.4816488 0.6333554 0.4836281 0.3657488 0.4816488 0.6351594 0.4797191 0.6342512 0.4816488 0.3648406 0.4797191 0.625 0.4667785 0.6351594 0.4797191 0.375 0.7832216 0.6351594 0.770281 0.625 0.7832216 0.3648406 0.770281 0.6342512 0.7683513 0.6351594 0.770281 0.3657488 0.7683513 0.6333554 0.7663719 0.6342512 0.7683513 0.3666446 0.7663719 0.6324782 0.7643563 0.6333554 0.7663719 0.3675218 0.7643563 0.6316255 0.7623184 0.6324782 0.7643563 0.3683745 0.7623183 0.6308033 0.7602719 0.6316255 0.7623184 0.3691967 0.7602719 0.6300171 0.7582309 0.6308033 0.7602719 0.369983 0.7582309 0.6292722 0.7562093 0.6300171 0.7582309 0.3707278 0.7562093 0.6285738 0.7542209 0.6292722 0.7562093 0.3714263 0.7542209 0.6279266 0.7392788 0.6285738 0.7542209 0.3720735 0.7392788 0.6273351 0.7371836 0.6279266 0.7392788 0.372665 0.7371836 0.6268032 0.734949 0.6273351 0.7371836 0.3731968 0.7349489 0.6263347 0.7325902 0.6268032 0.734949 0.3736653 0.7325902 0.6259327 0.7301234 0.6263347 0.7325902 0.3740673 0.7301234 0.6256 0.7275655 0.6259327 0.7301234 0.3744 0.7275655 0.6253389 0.7249339 0.6256 0.7275655 0.3746612 0.7249339 0.625151 0.7222465 0.6253389 0.7249339 0.374849 0.7222465 0.6250378 0.7195218 0.625151 0.7222465 0.3749622 0.7195219 0.625 0.7167784 0.6250378 0.7195218 0.375 0.7167784 0.625 0.5332216 0.375 0.5332216 0.625 0.5332216 0.3749622 0.5304781 0.375 0.5332216 0.625151 0.5277535 0.3749622 0.5304781 0.6250379 0.5304781 0.625151 0.5277535 0.3746612 0.5250661 0.374849 0.5277535 0.6256 0.5224346 0.3746612 0.5250661 0.6253389 0.5250661 0.6259328 0.5198766 0.3744 0.5224346 0.6256 0.5224346 0.6259328 0.5198766 0.3736653 0.5174098 0.3740673 0.5198766 0.6268032 0.5150511 0.3736653 0.5174098 0.6263347 0.5174099 0.6273351 0.5128164 0.3731968 0.5150511 0.6268032 0.5150511 0.6279266 0.5107212 0.372665 0.5128164 0.6273351 0.5128164 0.6285738 0.4957791 0.3720735 0.5107212 0.6279266 0.5107212 0.6292722 0.4937908 0.3714263 0.495779 0.6285738 0.4957791 0.6300171 0.4917691 0.3707278 0.4937908 0.6292722 0.4937908 0.6308033 0.4897282 0.369983 0.4917691 0.6300171 0.4917691 0.6316256 0.4876817 0.3691967 0.4897281 0.6308033 0.4897282 0.6324782 0.4856436 0.3683745 0.4876816 0.6316256 0.4876817 0.6333554 0.4836281 0.3675218 0.4856437 0.6324782 0.4856436 0.6342512 0.4816488 0.3666446 0.4836281 0.6333554 0.4836281 0.6351594 0.4797191 0.3657488 0.4816488 0.6342512 0.4816488 0.625 0.4667785 0.3648406 0.4797191 0.6351594 0.4797191 0.625 0.7832216 0.3648406 0.770281 0.375 0.7832216 0.6342512 0.7683513 0.3648406 0.770281 0.6351594 0.770281 0.6342512 0.7683513 0.3666446 0.7663719 0.3657488 0.7683513 0.6324782 0.7643563 0.3666446 0.7663719 0.6333554 0.7663719 0.6316255 0.7623184 0.3675218 0.7643563 0.6324782 0.7643563 0.6316255 0.7623184 0.3691967 0.7602719 0.3683745 0.7623183 0.6300171 0.7582309 0.3691967 0.7602719 0.6308033 0.7602719 0.6292722 0.7562093 0.369983 0.7582309 0.6300171 0.7582309 0.6285738 0.7542209 0.3707278 0.7562093 0.6292722 0.7562093 0.6279266 0.7392788 0.3714263 0.7542209 0.6285738 0.7542209 0.6273351 0.7371836 0.3720735 0.7392788 0.6279266 0.7392788 0.6268032 0.734949 0.372665 0.7371836 0.6273351 0.7371836 0.6263347 0.7325902 0.3731968 0.7349489 0.6268032 0.734949 0.6259327 0.7301234 0.3736653 0.7325902 0.6263347 0.7325902 0.6256 0.7275655 0.3740673 0.7301234 0.6259327 0.7301234 0.6253389 0.7249339 0.3744 0.7275655 0.6256 0.7275655 0.625151 0.7222465 0.3746612 0.7249339 0.6253389 0.7249339 0.6250378 0.7195218 0.374849 0.7222465 0.625151 0.7222465 0.625 0.7167784 0.3749622 0.7195219 0.6250378 0.7195218 0.375 0.5332216 0.3749622 0.5304781 0.3749622 0.5304781 0.374849 0.5277535 0.3749622 0.5304781 0.374849 0.5277535 0.374849 0.5277535 0.3746612 0.5250661 0.3746612 0.5250661 0.3746612 0.5250661 0.3744 0.5224346 0.3744 0.5224346 0.3740673 0.5198766 0.3744 0.5224346 0.3740673 0.5198766 0.3740673 0.5198766 0.3736653 0.5174098 0.3736653 0.5174098 0.3731968 0.5150511 0.3736653 0.5174098 0.3731968 0.5150511 0.3731968 0.5150511 0.372665 0.5128164 0.372665 0.5128164 0.3720735 0.5107212 0.372665 0.5128164 0.3720735 0.5107212 0.3720735 0.5107212 0.3714263 0.495779 0.3714263 0.495779 0.3714263 0.495779 0.3707278 0.4937908 0.3707278 0.4937908 0.369983 0.4917691 0.3707278 0.4937908 0.369983 0.4917691 0.369983 0.4917691 0.3691967 0.4897281 0.3691967 0.4897281 0.3683745 0.4876816 0.3691967 0.4897281 0.3683745 0.4876816 0.3683745 0.4876816 0.3675218 0.4856437 0.3675218 0.4856437 0.3675218 0.4856437 0.3666446 0.4836281 0.3666446 0.4836281 0.3657488 0.4816488 0.3666446 0.4836281 0.3657488 0.4816488 0.3657488 0.4816488 0.3648406 0.4797191 0.3648406 0.4797191 0.375 0.4667785 0.3648406 0.4797191 0.375 0.4667785 0.375 0.7832216 0.3648406 0.770281 0.3648406 0.770281 0.3657488 0.7683513 0.3648406 0.770281 0.3657488 0.7683513 0.3657488 0.7683513 0.3666446 0.7663719 0.3666446 0.7663719 0.3675218 0.7643563 0.3666446 0.7663719 0.3675218 0.7643563 0.3683745 0.7623183 0.3675218 0.7643563 0.3683745 0.7623183 0.3683745 0.7623183 0.3691967 0.7602719 0.3691967 0.7602719 0.369983 0.7582309 0.3691967 0.7602719 0.369983 0.7582309 0.369983 0.7582309 0.3707278 0.7562093 0.3707278 0.7562093 0.3714263 0.7542209 0.3707278 0.7562093 0.3714263 0.7542209 0.3714263 0.7542209 0.3720735 0.7392788 0.3720735 0.7392788 0.3720735 0.7392788 0.372665 0.7371836 0.372665 0.7371836 0.3731968 0.7349489 0.372665 0.7371836 0.3731968 0.7349489 0.3731968 0.7349489 0.3736653 0.7325902 0.3736653 0.7325902 0.3740673 0.7301234 0.3736653 0.7325902 0.3740673 0.7301234 0.3740673 0.7301234 0.3744 0.7275655 0.3744 0.7275655 0.3746612 0.7249339 0.3744 0.7275655 0.3746612 0.7249339 0.374849 0.7222465 0.3746612 0.7249339 0.374849 0.7222465 0.374849 0.7222465 0.3749622 0.7195219 0.3749622 0.7195219 0.375 0.7167784 0.3749622 0.7195219 0.375 0.7167784 0.375 0.7167784 0.375 0.5332216 0.375 0.5332216 0.375 0.7832216 0.625 0.7832216 0.375 0.7832216 0.625 0.5332216 0.625 0.7167784 0.625 0.7167784 0.6292722 0.7562093 0.6285738 0.7542209 0.6292722 0.7562093 0.375 0.4667785 0.625 0.4667785 0.625 0.4667785 0.6273351 0.5128164 0.6279266 0.5107212 0.6273351 0.5128164 0.625 0.5332216 0.625 0.7167784 0.375 0.7167784 0.375 0.5332216 0.3749622 0.5304781 0.6250379 0.5304781 0.3749622 0.5304781 0.374849 0.5277535 0.625151 0.5277535 0.374849 0.5277535 0.3746612 0.5250661 0.6253389 0.5250661 0.3746612 0.5250661 0.3744 0.5224346 0.6256 0.5224346 0.3744 0.5224346 0.3740673 0.5198766 0.6259328 0.5198766 0.3740673 0.5198766 0.3736653 0.5174098 0.6263347 0.5174099 0.3736653 0.5174098 0.3731968 0.5150511 0.6268032 0.5150511 0.3731968 0.5150511 0.372665 0.5128164 0.6273351 0.5128164 0.372665 0.5128164 0.3720735 0.5107212 0.6279266 0.5107212 0.3720735 0.5107212 0.3714263 0.495779 0.6285738 0.4957791 0.3714263 0.495779 0.3707278 0.4937908 0.6292722 0.4937908 0.3707278 0.4937908 0.369983 0.4917691 0.6300171 0.4917691 0.369983 0.4917691 0.3691967 0.4897281 0.6308033 0.4897282 0.3691967 0.4897281 0.3683745 0.4876816 0.6316256 0.4876817 0.3683745 0.4876816 0.3675218 0.4856437 0.6324782 0.4856436 0.3675218 0.4856437 0.3666446 0.4836281 0.6333554 0.4836281 0.3666446 0.4836281 0.3657488 0.4816488 0.6342512 0.4816488 0.3657488 0.4816488 0.3648406 0.4797191 0.6351594 0.4797191 0.3648406 0.4797191 0.375 0.4667785 0.625 0.4667785 0.375 0.7832216 0.3648406 0.770281 0.6351594 0.770281 0.3648406 0.770281 0.3657488 0.7683513 0.6342512 0.7683513 0.3657488 0.7683513 0.3666446 0.7663719 0.6333554 0.7663719 0.3666446 0.7663719 0.3675218 0.7643563 0.6324782 0.7643563 0.3675218 0.7643563 0.3683745 0.7623183 0.6316255 0.7623184 0.3683745 0.7623183 0.3691967 0.7602719 0.6308033 0.7602719 0.3691967 0.7602719 0.369983 0.7582309 0.6300171 0.7582309 0.369983 0.7582309 0.3707278 0.7562093 0.6292722 0.7562093 0.3707278 0.7562093 0.3714263 0.7542209 0.6285738 0.7542209 0.3714263 0.7542209 0.3720735 0.7392788 0.6279266 0.7392788 0.3720735 0.7392788 0.372665 0.7371836 0.6273351 0.7371836 0.372665 0.7371836 0.3731968 0.7349489 0.6268032 0.734949 0.3731968 0.7349489 0.3736653 0.7325902 0.6263347 0.7325902 0.3736653 0.7325902 0.3740673 0.7301234 0.6259327 0.7301234 0.3740673 0.7301234 0.3744 0.7275655 0.6256 0.7275655 0.3744 0.7275655 0.3746612 0.7249339 0.6253389 0.7249339 0.3746612 0.7249339 0.374849 0.7222465 0.625151 0.7222465 0.374849 0.7222465 0.3749622 0.7195219 0.6250378 0.7195218 0.3749622 0.7195219 0.375 0.7167784 0.625 0.7167784 0.375 0.7167784 0.625 0.7167784 0.625 0.5332216 0.625 0.5332216 0.6250379 0.5304781 0.3749622 0.5304781 0.625151 0.5277535 0.374849 0.5277535 0.3749622 0.5304781 0.625151 0.5277535 0.6253389 0.5250661 0.3746612 0.5250661 0.6256 0.5224346 0.3744 0.5224346 0.3746612 0.5250661 0.6259328 0.5198766 0.3740673 0.5198766 0.3744 0.5224346 0.6259328 0.5198766 0.6263347 0.5174099 0.3736653 0.5174098 0.6268032 0.5150511 0.3731968 0.5150511 0.3736653 0.5174098 0.6273351 0.5128164 0.372665 0.5128164 0.3731968 0.5150511 0.6279266 0.5107212 0.3720735 0.5107212 0.372665 0.5128164 0.6285738 0.4957791 0.3714263 0.495779 0.3720735 0.5107212 0.6292722 0.4937908 0.3707278 0.4937908 0.3714263 0.495779 0.6300171 0.4917691 0.369983 0.4917691 0.3707278 0.4937908 0.6308033 0.4897282 0.3691967 0.4897281 0.369983 0.4917691 0.6316256 0.4876817 0.3683745 0.4876816 0.3691967 0.4897281 0.6324782 0.4856436 0.3675218 0.4856437 0.3683745 0.4876816 0.6333554 0.4836281 0.3666446 0.4836281 0.3675218 0.4856437 0.6342512 0.4816488 0.3657488 0.4816488 0.3666446 0.4836281 0.6351594 0.4797191 0.3648406 0.4797191 0.3657488 0.4816488 0.625 0.4667785 0.375 0.4667785 0.3648406 0.4797191 0.625 0.7832216 0.6351594 0.770281 0.3648406 0.770281 0.6342512 0.7683513 0.3657488 0.7683513 0.3648406 0.770281 0.6342512 0.7683513 0.6333554 0.7663719 0.3666446 0.7663719 0.6324782 0.7643563 0.3675218 0.7643563 0.3666446 0.7663719 0.6316255 0.7623184 0.3683745 0.7623183 0.3675218 0.7643563 0.6316255 0.7623184 0.6308033 0.7602719 0.3691967 0.7602719 0.6300171 0.7582309 0.369983 0.7582309 0.3691967 0.7602719 0.6292722 0.7562093 0.3707278 0.7562093 0.369983 0.7582309 0.6285738 0.7542209 0.3714263 0.7542209 0.3707278 0.7562093 0.6279266 0.7392788 0.3720735 0.7392788 0.3714263 0.7542209 0.6273351 0.7371836 0.372665 0.7371836 0.3720735 0.7392788 0.6268032 0.734949 0.3731968 0.7349489 0.372665 0.7371836 0.6263347 0.7325902 0.3736653 0.7325902 0.3731968 0.7349489 0.6259327 0.7301234 0.3740673 0.7301234 0.3736653 0.7325902 0.6256 0.7275655 0.3744 0.7275655 0.3740673 0.7301234 0.6253389 0.7249339 0.3746612 0.7249339 0.3744 0.7275655 0.625151 0.7222465 0.374849 0.7222465 0.3746612 0.7249339 0.6250378 0.7195218 0.3749622 0.7195219 0.374849 0.7222465 0.625 0.7167784 0.375 0.7167784 0.3749622 0.7195219 0.375 0.5332216 0.375 0.5332216 0.3749622 0.5304781 0.374849 0.5277535 0.3749622 0.5304781 0.3749622 0.5304781 0.374849 0.5277535 0.374849 0.5277535 0.3746612 0.5250661 0.3746612 0.5250661 0.3746612 0.5250661 0.3744 0.5224346 0.3740673 0.5198766 0.3744 0.5224346 0.3744 0.5224346 0.3740673 0.5198766 0.3740673 0.5198766 0.3736653 0.5174098 0.3731968 0.5150511 0.3736653 0.5174098 0.3736653 0.5174098 0.3731968 0.5150511 0.3731968 0.5150511 0.372665 0.5128164 0.3720735 0.5107212 0.372665 0.5128164 0.372665 0.5128164 0.3720735 0.5107212 0.3720735 0.5107212 0.3714263 0.495779 0.3714263 0.495779 0.3714263 0.495779 0.3707278 0.4937908 0.369983 0.4917691 0.3707278 0.4937908 0.3707278 0.4937908 0.369983 0.4917691 0.369983 0.4917691 0.3691967 0.4897281 0.3683745 0.4876816 0.3691967 0.4897281 0.3691967 0.4897281 0.3683745 0.4876816 0.3683745 0.4876816 0.3675218 0.4856437 0.3675218 0.4856437 0.3675218 0.4856437 0.3666446 0.4836281 0.3657488 0.4816488 0.3666446 0.4836281 0.3666446 0.4836281 0.3657488 0.4816488 0.3657488 0.4816488 0.3648406 0.4797191 0.375 0.4667785 0.3648406 0.4797191 0.3648406 0.4797191 0.375 0.7832216 0.375 0.7832216 0.3648406 0.770281 0.3657488 0.7683513 0.3648406 0.770281 0.3648406 0.770281 0.3657488 0.7683513 0.3657488 0.7683513 0.3666446 0.7663719 0.3675218 0.7643563 0.3666446 0.7663719 0.3666446 0.7663719 0.3683745 0.7623183 0.3675218 0.7643563 0.3675218 0.7643563 0.3683745 0.7623183 0.3683745 0.7623183 0.3691967 0.7602719 0.369983 0.7582309 0.3691967 0.7602719 0.3691967 0.7602719 0.369983 0.7582309 0.369983 0.7582309 0.3707278 0.7562093 0.3714263 0.7542209 0.3707278 0.7562093 0.3707278 0.7562093 0.3714263 0.7542209 0.3714263 0.7542209 0.3720735 0.7392788 0.3720735 0.7392788 0.3720735 0.7392788 0.372665 0.7371836 0.3731968 0.7349489 0.372665 0.7371836 0.372665 0.7371836 0.3731968 0.7349489 0.3731968 0.7349489 0.3736653 0.7325902 0.3740673 0.7301234 0.3736653 0.7325902 0.3736653 0.7325902 0.3740673 0.7301234 0.3740673 0.7301234 0.3744 0.7275655 0.3746612 0.7249339 0.3744 0.7275655 0.3744 0.7275655 0.374849 0.7222465 0.3746612 0.7249339 0.3746612 0.7249339 0.374849 0.7222465 0.374849 0.7222465 0.3749622 0.7195219 0.375 0.7167784 0.3749622 0.7195219 0.3749622 0.7195219 0.375 0.7167784 0.375 0.7167784 0.375 0.5332216 0.375 0.7832216 0.625 0.7832216 0.625 0.7832216 0.625 0.5332216 0.625 0.5332216 0.625 0.7167784 0.625 0.7832216 0.625 0.7832216 0.6351594 0.770281 0.625 0.7832216 0.6351594 0.770281 0.6351594 0.770281 0.6351594 0.770281 0.6342512 0.7683513 0.6342512 0.7683513 0.6342512 0.7683513 0.6333554 0.7663719 0.6333554 0.7663719 0.6351594 0.770281 0.6342512 0.7683513 0.6351594 0.770281 0.6333554 0.7663719 0.6324782 0.7643563 0.6324782 0.7643563 0.6324782 0.7643563 0.6316255 0.7623184 0.6316255 0.7623184 0.6316255 0.7623184 0.6316255 0.7623184 0.6308033 0.7602719 0.6316255 0.7623184 0.6308033 0.7602719 0.6308033 0.7602719 0.6308033 0.7602719 0.6300171 0.7582309 0.6300171 0.7582309 0.6300171 0.7582309 0.6300171 0.7582309 0.6292722 0.7562093 0.6300171 0.7582309 0.6292722 0.7562093 0.6292722 0.7562093 0.6292722 0.7562093 0.6285738 0.7542209 0.6285738 0.7542209 0.6285738 0.7542209 0.6285738 0.7542209 0.6279266 0.7392788 0.6285738 0.7542209 0.6279266 0.7392788 0.6279266 0.7392788 0.6279266 0.7392788 0.6273351 0.7371836 0.6279266 0.7392788 0.6273351 0.7371836 0.6273351 0.7371836 0.6268032 0.734949 0.6268032 0.734949 0.6263347 0.7325902 0.6268032 0.734949 0.6263347 0.7325902 0.6263347 0.7325902 0.6259327 0.7301234 0.6259327 0.7301234 0.6256 0.7275655 0.6259327 0.7301234 0.6259327 0.7301234 0.6256 0.7275655 0.6256 0.7275655 0.6256 0.7275655 0.6253389 0.7249339 0.6256 0.7275655 0.6253389 0.7249339 0.625151 0.7222465 0.6253389 0.7249339 0.6256 0.7275655 0.6253389 0.7249339 0.6253389 0.7249339 0.625151 0.7222465 0.6250378 0.7195218 0.625151 0.7222465 0.6250378 0.7195218 0.625 0.7167784 0.6250378 0.7195218 0.625151 0.7222465 0.625151 0.7222465 0.6253389 0.7249339 0.625 0.7167784 0.625 0.7167784 0.6250378 0.7195218 0.6250378 0.7195218 0.625151 0.7222465 0.6250378 0.7195218 0.6263347 0.7325902 0.6263347 0.7325902 0.6268032 0.734949 0.6273351 0.7371836 0.6273351 0.7371836 0.6279266 0.7392788 0.6342512 0.7683513 0.6342512 0.7683513 0.6333554 0.7663719 0.6259327 0.7301234 0.6259327 0.7301234 0.6263347 0.7325902 0.6268032 0.734949 0.6268032 0.734949 0.6273351 0.7371836 0.6324782 0.7643563 0.6333554 0.7663719 0.6333554 0.7663719 0.6316255 0.7623184 0.6324782 0.7643563 0.6324782 0.7643563 0.6300171 0.7582309 0.6308033 0.7602719 0.6308033 0.7602719 0.375 0.4667785 0.375 0.4667785 0.625 0.4667785 0.625 0.5332216 0.625 0.5332216 0.6250379 0.5304781 0.625 0.5332216 0.6250379 0.5304781 0.6250379 0.5304781 0.6250379 0.5304781 0.625151 0.5277535 0.625151 0.5277535 0.625151 0.5277535 0.6253389 0.5250661 0.6253389 0.5250661 0.6250379 0.5304781 0.625151 0.5277535 0.6250379 0.5304781 0.6253389 0.5250661 0.6256 0.5224346 0.6256 0.5224346 0.6256 0.5224346 0.6259328 0.5198766 0.6259328 0.5198766 0.6259328 0.5198766 0.6259328 0.5198766 0.6263347 0.5174099 0.6259328 0.5198766 0.6263347 0.5174099 0.6263347 0.5174099 0.6263347 0.5174099 0.6268032 0.5150511 0.6268032 0.5150511 0.6268032 0.5150511 0.6268032 0.5150511 0.6273351 0.5128164 0.6268032 0.5150511 0.6273351 0.5128164 0.6273351 0.5128164 0.6273351 0.5128164 0.6279266 0.5107212 0.6279266 0.5107212 0.6279266 0.5107212 0.6279266 0.5107212 0.6285738 0.4957791 0.6279266 0.5107212 0.6285738 0.4957791 0.6285738 0.4957791 0.6285738 0.4957791 0.6292722 0.4937908 0.6285738 0.4957791 0.6292722 0.4937908 0.6292722 0.4937908 0.6300171 0.4917691 0.6300171 0.4917691 0.6308033 0.4897282 0.6300171 0.4917691 0.6308033 0.4897282 0.6308033 0.4897282 0.6316256 0.4876817 0.6316256 0.4876817 0.6324782 0.4856436 0.6316256 0.4876817 0.6316256 0.4876817 0.6324782 0.4856436 0.6324782 0.4856436 0.6324782 0.4856436 0.6333554 0.4836281 0.6324782 0.4856436 0.6333554 0.4836281 0.6342512 0.4816488 0.6333554 0.4836281 0.6324782 0.4856436 0.6333554 0.4836281 0.6333554 0.4836281 0.6342512 0.4816488 0.6351594 0.4797191 0.6342512 0.4816488 0.6351594 0.4797191 0.625 0.4667785 0.6351594 0.4797191 0.6342512 0.4816488 0.6342512 0.4816488 0.6333554 0.4836281 0.625 0.4667785 0.625 0.4667785 0.6351594 0.4797191 0.6351594 0.4797191 0.6342512 0.4816488 0.6351594 0.4797191 0.6308033 0.4897282 0.6308033 0.4897282 0.6300171 0.4917691 0.6292722 0.4937908 0.6292722 0.4937908 0.6285738 0.4957791 0.625151 0.5277535 0.625151 0.5277535 0.6253389 0.5250661 0.6316256 0.4876817 0.6316256 0.4876817 0.6308033 0.4897282 0.6300171 0.4917691 0.6300171 0.4917691 0.6292722 0.4937908 0.6256 0.5224346 0.6253389 0.5250661 0.6253389 0.5250661 0.6259328 0.5198766 0.6256 0.5224346 0.6256 0.5224346 0.6268032 0.5150511 0.6263347 0.5174099 0.6263347 0.5174099</float_array>
          <technique_common>
            <accessor source="#Cube_049-mesh-map-0-array" count="948" stride="2">
              <param name="S" type="float"/>
              <param name="T" type="float"/>
            </accessor>
          </technique_common>
        </source>
        <vertices id="Cube_049-mesh-vertices">
          <input semantic="POSITION" source="#Cube_049-mesh-positions"/>
        </vertices>
        <triangles material="Material_004-material" count="316">
          <input semantic="VERTEX" source="#Cube_049-mesh-vertices" offset="0"/>
          <input semantic="NORMAL" source="#Cube_049-mesh-normals" offset="1"/>
          <input semantic="TEXCOORD" source="#Cube_049-mesh-map-0" offset="2" set="0"/>
          <p>60 0 0 0 0 1 41 0 2 41 1 3 62 1 4 60 1 5 59 2 6 63 2 7 62 2 8 58 3 9 64 3 10 63 3 11 57 4 12 65 4 13 64 4 14 56 5 15 66 5 16 65 5 17 55 6 18 67 6 19 66 6 20 54 7 21 68 7 22 67 7 23 53 8 24 69 8 25 68 8 26 52 9 27 70 9 28 69 9 29 51 10 30 71 10 31 70 10 32 50 11 33 72 11 34 71 11 35 49 12 36 73 12 37 72 12 38 48 13 39 74 13 40 73 13 41 47 14 42 75 14 43 74 14 44 46 15 45 76 15 46 75 15 47 45 16 48 77 16 49 76 16 50 44 17 51 78 17 52 77 17 53 43 18 54 79 18 55 78 18 56 42 19 57 61 19 58 79 19 59 1 20 60 22 20 61 20 20 62 19 21 63 23 21 64 22 21 65 18 22 66 24 22 67 23 22 68 17 23 69 25 23 70 24 23 71 16 24 72 26 24 73 25 24 74 15 25 75 27 25 76 26 25 77 14 26 78 28 26 79 27 26 80 13 27 81 29 27 82 28 27 83 12 28 84 30 28 85 29 28 86 11 29 87 31 29 88 30 29 89 10 30 90 32 30 91 31 30 92 9 31 93 33 31 94 32 31 95 8 32 96 34 32 97 33 32 98 7 33 99 35 33 100 34 33 101 6 34 102 36 34 103 35 34 104 5 35 105 37 35 106 36 35 107 4 36 108 38 36 109 37 36 110 3 37 111 39 37 112 38 37 113 2 38 114 21 38 115 39 38 116 80 39 117 140 39 118 121 39 119 140 40 120 139 40 121 121 40 122 143 41 123 139 41 124 142 41 125 143 42 126 137 42 127 138 42 128 145 43 129 137 43 130 144 43 131 146 44 132 136 44 133 145 44 134 146 45 135 134 45 136 135 45 137 148 46 138 134 46 139 147 46 140 149 47 141 133 47 142 148 47 143 150 48 144 132 48 145 149 48 146 151 49 147 131 49 148 150 49 149 152 50 150 130 50 151 151 50 152 153 51 153 129 51 154 152 51 155 154 52 156 128 52 157 153 52 158 155 53 159 127 53 160 154 53 161 156 54 162 126 54 163 155 54 164 157 55 165 125 55 166 156 55 167 158 56 168 124 56 169 157 56 170 159 57 171 123 57 172 158 57 173 141 58 174 122 58 175 159 58 176 100 59 177 99 59 178 81 59 179 103 60 180 99 60 181 102 60 182 103 61 183 97 61 184 98 61 185 105 62 186 97 62 187 104 62 188 106 63 189 96 63 190 105 63 191 106 64 192 94 64 193 95 64 194 108 65 195 94 65 196 107 65 197 109 66 198 93 66 199 108 66 200 110 67 201 92 67 202 109 67 203 111 68 204 91 68 205 110 68 206 112 69 207 90 69 208 111 69 209 113 70 210 89 70 211 112 70 212 114 71 213 88 71 214 113 71 215 115 72 216 87 72 217 114 72 218 116 73 219 86 73 220 115 73 221 117 74 222 85 74 223 116 74 224 118 75 225 84 75 226 117 75 227 119 76 228 83 76 229 118 76 230 101 77 231 82 77 232 119 77 233 41 78 234 139 78 235 59 78 236 58 78 237 139 78 238 138 78 239 58 78 240 137 78 241 57 78 242 57 78 243 136 78 244 56 78 245 55 78 246 136 78 247 135 78 248 55 78 249 134 78 250 54 78 251 53 78 252 134 78 253 133 78 254 53 78 255 132 78 256 52 78 257 51 78 258 132 78 259 131 78 260 51 78 261 130 78 262 50 78 263 50 78 264 129 78 265 49 78 266 48 78 267 129 78 268 128 78 269 48 78 270 127 78 271 47 78 272 46 78 273 127 78 274 126 78 275 46 78 276 125 78 277 45 78 278 45 78 279 124 78 280 44 78 281 43 78 282 124 78 283 123 78 284 43 78 285 122 78 286 42 78 287 40 78 288 122 78 289 120 78 290 1 78 291 99 78 292 19 78 293 18 78 294 99 78 295 98 78 296 18 78 297 97 78 298 17 78 299 16 78 300 97 78 301 96 78 302 15 78 303 96 78 304 95 78 305 15 78 306 94 78 307 14 78 308 13 78 309 94 78 310 93 78 311 13 78 312 92 78 313 12 78 314 11 78 315 92 78 316 91 78 317 11 78 318 90 78 319 10 78 320 10 78 321 89 78 322 9 78 323 8 78 324 89 78 325 88 78 326 8 78 327 87 78 328 7 78 329 6 78 330 87 78 331 86 78 332 6 78 333 85 78 334 5 78 335 4 78 336 85 78 337 84 78 338 3 78 339 84 78 340 83 78 341 3 78 342 82 78 343 2 78 344 0 78 345 82 78 346 80 78 347 0 79 348 121 79 349 41 79 350 1 80 351 100 80 352 81 80 353 60 81 354 101 81 355 21 81 356 29 82 357 110 82 358 109 82 359 40 83 360 141 83 361 61 83 362 69 84 363 150 84 364 149 84 365 60 0 366 21 0 367 0 0 368 41 1 369 59 1 370 62 1 371 59 2 372 58 2 373 63 2 374 58 3 375 57 3 376 64 3 377 57 4 378 56 4 379 65 4 380 56 5 381 55 5 382 66 5 383 55 85 384 54 85 385 67 85 386 54 86 387 53 86 388 68 86 389 53 8 390 52 8 391 69 8 392 52 9 393 51 9 394 70 9 395 51 10 396 50 10 397 71 10 398 50 11 399 49 11 400 72 11 401 49 87 402 48 87 403 73 87 404 48 88 405 47 88 406 74 88 407 47 89 408 46 89 409 75 89 410 46 90 411 45 90 412 76 90 413 45 91 414 44 91 415 77 91 416 44 92 417 43 92 418 78 92 419 43 93 420 42 93 421 79 93 422 42 94 423 40 94 424 61 94 425 1 95 426 19 95 427 22 95 428 19 96 429 18 96 430 23 96 431 18 97 432 17 97 433 24 97 434 17 98 435 16 98 436 25 98 437 16 99 438 15 99 439 26 99 440 15 100 441 14 100 442 27 100 443 14 101 444 13 101 445 28 101 446 13 102 447 12 102 448 29 102 449 12 28 450 11 28 451 30 28 452 11 29 453 10 29 454 31 29 455 10 30 456 9 30 457 32 30 458 9 31 459 8 31 460 33 31 461 8 103 462 7 103 463 34 103 464 7 104 465 6 104 466 35 104 467 6 34 468 5 34 469 36 34 470 5 35 471 4 35 472 37 35 473 4 36 474 3 36 475 38 36 476 3 37 477 2 37 478 39 37 479 2 38 480 0 38 481 21 38 482 80 105 483 101 105 484 140 105 485 140 106 486 142 106 487 139 106 488 143 107 489 138 107 490 139 107 491 143 108 492 144 108 493 137 108 494 145 109 495 136 109 496 137 109 497 146 110 498 135 110 499 136 110 500 146 111 501 147 111 502 134 111 503 148 112 504 133 112 505 134 112 506 149 113 507 132 113 508 133 113 509 150 114 510 131 114 511 132 114 512 151 115 513 130 115 514 131 115 515 152 116 516 129 116 517 130 116 518 153 117 519 128 117 520 129 117 521 154 118 522 127 118 523 128 118 524 155 119 525 126 119 526 127 119 527 156 120 528 125 120 529 126 120 530 157 121 531 124 121 532 125 121 533 158 122 534 123 122 535 124 122 536 159 123 537 122 123 538 123 123 539 141 124 540 120 124 541 122 124 542 100 125 543 102 125 544 99 125 545 103 126 546 98 126 547 99 126 548 103 127 549 104 127 550 97 127 551 105 128 552 96 128 553 97 128 554 106 129 555 95 129 556 96 129 557 106 130 558 107 130 559 94 130 560 108 131 561 93 131 562 94 131 563 109 132 564 92 132 565 93 132 566 110 133 567 91 133 568 92 133 569 111 134 570 90 134 571 91 134 572 112 135 573 89 135 574 90 135 575 113 136 576 88 136 577 89 136 578 114 137 579 87 137 580 88 137 581 115 138 582 86 138 583 87 138 584 116 139 585 85 139 586 86 139 587 117 140 588 84 140 589 85 140 590 118 141 591 83 141 592 84 141 593 119 142 594 82 142 595 83 142 596 101 143 597 80 143 598 82 143 599 41 78 600 121 78 601 139 78 602 58 78 603 59 78 604 139 78 605 58 78 606 138 78 607 137 78 608 57 78 609 137 78 610 136 78 611 55 78 612 56 78 613 136 78 614 55 78 615 135 78 616 134 78 617 53 78 618 54 78 619 134 78 620 53 78 621 133 78 622 132 78 623 51 78 624 52 78 625 132 78 626 51 78 627 131 78 628 130 78 629 50 78 630 130 78 631 129 78 632 48 78 633 49 78 634 129 78 635 48 78 636 128 78 637 127 78 638 46 78 639 47 78 640 127 78 641 46 78 642 126 78 643 125 78 644 45 78 645 125 78 646 124 78 647 43 78 648 44 78 649 124 78 650 43 78 651 123 78 652 122 78 653 40 78 654 42 78 655 122 78 656 1 78 657 81 78 658 99 78 659 18 78 660 19 78 661 99 78 662 18 78 663 98 78 664 97 78 665 16 78 666 17 78 667 97 78 668 15 78 669 16 78 670 96 78 671 15 78 672 95 78 673 94 78 674 13 78 675 14 78 676 94 78 677 13 78 678 93 78 679 92 78 680 11 78 681 12 78 682 92 78 683 11 78 684 91 78 685 90 78 686 10 78 687 90 78 688 89 78 689 8 78 690 9 78 691 89 78 692 8 78 693 88 78 694 87 78 695 6 78 696 7 78 697 87 78 698 6 78 699 86 78 700 85 78 701 4 78 702 5 78 703 85 78 704 3 78 705 4 78 706 84 78 707 3 78 708 83 78 709 82 78 710 0 78 711 2 78 712 82 78 713 0 144 714 80 144 715 121 144 716 1 145 717 20 145 718 100 145 719 60 146 720 140 146 721 101 146 722 100 147 723 20 147 724 102 147 725 20 148 726 22 148 727 102 148 728 22 149 729 23 149 730 103 149 731 23 150 732 24 150 733 104 150 734 22 151 735 103 151 736 102 151 737 24 152 738 25 152 739 105 152 740 25 153 741 26 153 742 106 153 743 106 154 744 26 154 745 107 154 746 26 155 747 27 155 748 107 155 749 27 156 750 28 156 751 108 156 752 108 157 753 28 157 754 109 157 755 28 158 756 29 158 757 109 158 758 29 159 759 30 159 760 110 159 761 110 160 762 30 160 763 111 160 764 30 161 765 31 161 766 111 161 767 31 162 768 32 162 769 111 162 770 112 163 771 32 163 772 33 163 773 33 164 774 34 164 775 113 164 776 114 165 777 34 165 778 35 165 779 35 166 780 36 166 781 115 166 782 115 167 783 36 167 784 116 167 785 36 168 786 37 168 787 116 168 788 37 169 789 38 169 790 117 169 791 116 170 792 37 170 793 117 170 794 38 171 795 39 171 796 118 171 797 39 172 798 21 172 799 119 172 800 38 173 801 118 173 802 117 173 803 21 174 804 101 174 805 119 174 806 119 175 807 118 175 808 39 175 809 34 176 810 114 176 811 113 176 812 32 177 813 112 177 814 111 177 815 103 178 816 23 178 817 104 178 818 35 179 819 115 179 820 114 179 821 33 180 822 113 180 823 112 180 824 105 181 825 104 181 826 24 181 827 106 182 828 105 182 829 25 182 830 108 183 831 107 183 832 27 183 833 40 184 834 120 184 835 141 184 836 140 185 837 60 185 838 142 185 839 60 186 840 62 186 841 142 186 842 62 187 843 63 187 844 143 187 845 63 188 846 64 188 847 144 188 848 62 189 849 143 189 850 142 189 851 64 190 852 65 190 853 145 190 854 65 191 855 66 191 856 146 191 857 146 192 858 66 192 859 147 192 860 66 193 861 67 193 862 147 193 863 67 194 864 68 194 865 148 194 866 148 195 867 68 195 868 149 195 869 68 196 870 69 196 871 149 196 872 69 197 873 70 197 874 150 197 875 150 198 876 70 198 877 151 198 878 70 199 879 71 199 880 151 199 881 71 200 882 72 200 883 151 200 884 152 201 885 72 201 886 73 201 887 73 202 888 74 202 889 153 202 890 154 203 891 74 203 892 75 203 893 75 204 894 76 204 895 155 204 896 155 205 897 76 205 898 156 205 899 76 206 900 77 206 901 156 206 902 77 207 903 78 207 904 157 207 905 156 208 906 77 208 907 157 208 908 78 209 909 79 209 910 158 209 911 79 210 912 61 210 913 159 210 914 78 211 915 158 211 916 157 211 917 61 212 918 141 212 919 159 212 920 159 213 921 158 213 922 79 213 923 74 214 924 154 214 925 153 214 926 72 215 927 152 215 928 151 215 929 143 216 930 63 216 931 144 216 932 75 217 933 155 217 934 154 217 935 73 218 936 153 218 937 152 218 938 145 219 939 144 219 940 64 219 941 146 220 942 145 220 943 65 220 944 148 221 945 147 221 946 67 221 947</p>
        </triangles>
      </mesh>
    </geometry>
  </library_geometries>
  <library_visual_scenes>
    <visual_scene id="Scene" name="Scene">
      <node id="Cube_012" name="Cube.012" type="NODE">
        <matrix sid="transform">-0.341 0 0 0 0 -4.06953e-8 -0.09249999 0 0 0.4654999 -8.08661e-9 0 0 0 0 1</matrix>
        <instance_geometry url="#Cube_049-mesh" name="Cube.012">
          <bind_material>
            <technique_common>
              <instance_material symbol="Material_004-material" target="#Material_004-material">
                <bind_vertex_input semantic="UVMap" input_semantic="TEXCOORD" input_set="0"/>
              </instance_material>
            </technique_common>
          </bind_material>
        </instance_geometry>
      </node>
    </visual_scene>
  </library_visual_scenes>
  <scene>
    <instance_visual_scene url="#Scene"/>
  </scene>
</COLLADA>