<?xml version="1.0" encoding="utf-8"?>
<COLLADA xmlns="http://www.collada.org/2005/11/COLLADASchema" version="1.4.1" xmlns:xsi="http://www.w3.org/2001/XMLSchema-instance">
  <asset>
    <contributor>
      <author>Blender User</author>
      <authoring_tool>Blender 2.83.20 commit date:2022-04-19, commit time:16:00, hash:a56e2faeb7a9</authoring_tool>
    </contributor>
    <created>2026-06-23T13:45:59</created>
    <modified>2026-06-23T13:45:59</modified>
    <unit name="meter" meter="1"/>
    <up_axis>Z_UP</up_axis>
  </asset>
  <library_effects>
    <effect id="Material_004-effect">
      <profile_COMMON>
        <technique sid="common">
          <lambert>
            <emission>
              <color sid="emission">0 0 0 1</color>
            </emission>
            <diffuse>
              <color sid="diffuse">0 0 0 1</color>
            </diffuse>
            <index_of_refraction>
              <float sid="ior">1.45</float>
            </index_of_refraction>
          </lambert>
        </technique>
      </profile_COMMON>
    </effect>
  </library_effects>
  <library_images/>
  <library_materials>
    <material id="Material_004-material" name="Material.004">
      <instance_effect url="#Material_004-effect"/>
    </material>
  </library_materials>
  <library_geometries>
    <geometry id="Cube_050-mesh" name="Cube.050">
      <mesh>
        <source id="Cube_050-mesh-positions">
          <float_array id="Cube_050-mesh-positions-array" count="24">-1 -1 -1 -1 -1 1 -1 1 -1 -1 1 1 -0.9292917 -0.9292917 -1 -0.9422651 -0.9422651 0.9422651 -0.9292917 0.9292917 -1 -0.9422651 0.9422651 0.9422651</float_array>
          <technique_common>
            <accessor source="#Cube_050-mesh-positions-array" count="8" stride="3">
              <param name="X" type="float"/>
              <param name="Y" type="float"/>
              <param name="Z" type="float"/>
            </accessor>
          </technique_common>
        </source>
        <source id="Cube_050-mesh-normals">
          <float_array id="Cube_050-mesh-normals-array" count="33">-1 0 0 0.9999778 0 0.006679356 -8.42965e-7 0 -1 0.7071074 0.7071062 0 0.7071061 -0.7071075 0 0.7071075 0 0.7071061 0.9999778 0 0.006679356 1.81421e-6 0 -1 0.7071061 0.7071075 0 0.7071074 -0.7071062 0 0.7071056 0 0.707108</float_array>
          <technique_common>
            <accessor source="#Cube_050-mesh-normals-array" count="11" stride="3">
              <param name="X" type="float"/>
              <param name="Y" type="float"/>
              <param name="Z" type="float"/>
            </accessor>
          </technique_common>
        </source>
        <source id="Cube_050-mesh-map-0">
          <float_array id="Cube_050-mesh-map-0-array" count="72">0.625 0 0.375 0.25 0.375 0 0.375 0.25 0.625 0 0.375 0 0.375 0.25 0.375 0 0.375 0 0.375 0.25 0.625 0.25 0.375 0.25 0.375 0 0.625 0 0.625 0 0.625 0 0.625 0.25 0.625 0.25 0.625 0 0.625 0.25 0.375 0.25 0.375 0.25 0.625 0.25 0.625 0 0.375 0.25 0.375 0.25 0.375 0 0.375 0.25 0.625 0.25 0.625 0.25 0.375 0 0.375 0 0.625 0 0.625 0 0.625 0 0.625 0.25</float_array>
          <technique_common>
            <accessor source="#Cube_050-mesh-map-0-array" count="36" stride="2">
              <param name="S" type="float"/>
              <param name="T" type="float"/>
            </accessor>
          </technique_common>
        </source>
        <vertices id="Cube_050-mesh-vertices">
          <input semantic="POSITION" source="#Cube_050-mesh-positions"/>
        </vertices>
        <triangles material="Material_004-material" count="12">
          <input semantic="VERTEX" source="#Cube_050-mesh-vertices" offset="0"/>
          <input semantic="NORMAL" source="#Cube_050-mesh-normals" offset="1"/>
          <input semantic="TEXCOORD" source="#Cube_050-mesh-map-0" offset="2" set="0"/>
          <p>1 0 0 2 0 1 0 0 2 6 1 3 5 1 4 4 1 5 2 2 6 4 2 7 0 2 8 2 3 9 7 3 10 6 3 11 0 4 12 5 4 13 1 4 14 1 5 15 7 5 16 3 5 17 1 0 18 3 0 19 2 0 20 6 6 21 7 6 22 5 6 23 2 7 24 6 7 25 4 7 26 2 8 27 3 8 28 7 8 29 0 9 30 4 9 31 5 9 32 1 10 33 5 10 34 7 10 35</p>
        </triangles>
      </mesh>
    </geometry>
  </library_geometries>
  <library_visual_scenes>
    <visual_scene id="Scene" name="Scene">
      <node id="Cube_013" name="Cube.013" type="NODE">
        <matrix sid="transform">-0.341 0 0 0 0 -4.06953e-8 -0.09249999 0 0 0.4654999 -8.08661e-9 0 0 0 0 1</matrix>
        <instance_geometry url="#Cube_050-mesh" name="Cube.013">
          <bind_material>
            <technique_common>
              <instance_material symbol="Material_004-material" target="#Material_004-material">
                <bind_vertex_input semantic="UVMap" input_semantic="TEXCOORD" input_set="0"/>
              </instance_material>
            </technique_common>
          </bind_material>
        </instance_geometry>
      </node>
    </visual_scene>
  </library_visual_scenes>
  <scene>
    <instance_visual_scene url="#Scene"/>
  </scene>
</COLLADA>