<?xml version="1.0" encoding="utf-8"?>
<COLLADA xmlns="http://www.collada.org/2005/11/COLLADASchema" version="1.4.1" xmlns:xsi="http://www.w3.org/2001/XMLSchema-instance">
  <asset>
    <contributor>
      <author>Blender User</author>
      <authoring_tool>Blender 2.83.20 commit date:2022-04-19, commit time:16:00, hash:a56e2faeb7a9</authoring_tool>
    </contributor>
    <created>2026-06-23T13:09:05</created>
    <modified>2026-06-23T13:09:05</modified>
    <unit name="meter" meter="1"/>
    <up_axis>Z_UP</up_axis>
  </asset>
  <library_effects>
    <effect id="Material_002-effect">
      <profile_COMMON>
        <technique sid="common">
          <lambert>
            <emission>
              <color sid="emission">0 0 0 1</color>
            </emission>
            <diffuse>
              <color sid="diffuse">0.2140411 0.2140411 0.2140411 1</color>
            </diffuse>
            <index_of_refraction>
              <float sid="ior">1.45</float>
            </index_of_refraction>
          </lambert>
        </technique>
      </profile_COMMON>
    </effect>
  </library_effects>
  <library_images/>
  <library_materials>
    <material id="Material_002-material" name="Material.002">
      <instance_effect url="#Material_002-effect"/>
    </material>
  </library_materials>
  <library_geometries>
    <geometry id="Cube_046-mesh" name="Cube.046">
      <mesh>
        <source id="Cube_046-mesh-positions">
          <float_array id="Cube_046-mesh-positions-array" count="87">-1 -1 -1 -1 1 -1 1 -1 -1 1 1 -1 -1 -0.882353 -1 -1 -0.882353 1 1 -0.882353 -1 1 -0.882353 1 1 -0.882353 0.5999994 -1 -0.882353 0.5999994 -1 0.882353 1 1 0.882353 -1 -1 0.882353 0.5999994 -1 0.882353 -1 1 0.882353 1 1 0.882353 0.5999994 1 0.7647059 1 1 0.7647059 0.5999994 -1 0.7647059 1 -1 0.7647059 0.5999994 1 -0.7647059 1 1 -0.7647059 0.5999994 -1 -0.7647059 1 -1 -0.7647059 0.5999994 -1 -0.9058825 0.5999994 1 -0.9057827 0.5999994 -1 0.9058825 0.5999994 1 0.9074056 0.5999994 1 0.8842569 1</float_array>
          <technique_common>
            <accessor source="#Cube_046-mesh-positions-array" count="29" stride="3">
              <param name="X" type="float"/>
              <param name="Y" type="float"/>
              <param name="Z" type="float"/>
            </accessor>
          </technique_common>
        </source>
        <source id="Cube_046-mesh-normals">
          <float_array id="Cube_046-mesh-normals-array" count="42">-1 0 0 1 0 0 0 0.9973077 -0.07333147 0 0 1 0 -0.9973077 -0.07333147 0 0 -1 4.98328e-5 -0.9982745 0.05872189 -7.60264e-4 0.9983294 0.05777454 0 -0.9982708 0.058784 0 -0.9982889 0.05847406 4.98328e-5 -0.9982743 0.05872249 0 0.9983296 0.05777484 -9.50335e-4 0.998274 0.05872219 -7.60224e-4 0.9982741 0.05872201</float_array>
          <technique_common>
            <accessor source="#Cube_046-mesh-normals-array" count="14" stride="3">
              <param name="X" type="float"/>
              <param name="Y" type="float"/>
              <param name="Z" type="float"/>
            </accessor>
          </technique_common>
        </source>
        <source id="Cube_046-mesh-map-0">
          <float_array id="Cube_046-mesh-map-0-array" count="294">0.4572666 0.2224426 0.625 0.2224426 0.4572666 0.2279541 0.4572666 0.6249976 0.625 0.6249977 0.4572666 0.6498922 0.375 0.1250023 0.4572666 0.5791556 0.375 0.6249976 0.375 0.6249976 0.4572666 0.6498922 0.375 0.75 0.375 0.2224426 0.4572666 0.2279541 0.375 0.25 0.875 0.5791556 0.625 0.6249977 0.625 0.5791557 0.4572666 0.5333136 0.375 0.2224426 0.375 0.5275573 0.625 0.5791557 0.4572666 0.6249976 0.4572666 0.5791556 0.4572666 0.2166864 0.4572666 0.5791556 0.4572666 0.1708443 0.4572666 0.5216891 0.375 0.5275573 0.375 0.5 0.625 0.2166864 0.4572666 0.2224426 0.4572666 0.2166864 0.625 0.1708443 0.4572666 0.2166864 0.4572666 0.1708443 0.625 0.5275573 0.4572666 0.5333136 0.4572666 0.5275573 0.4572666 0.1000016 0.375 0 0.4572666 0.6498922 0.875 0.5275573 0.625 0.5333136 0.625 0.5275573 0.375 0.5275573 0.4572666 0.5275573 0.4572666 0.5333136 0.375 0.1250023 0.4572666 0.1250023 0.4572666 0.1708443 0.625 0.1250023 0.4572666 0.1708443 0.4572666 0.1250023 0.625 0.5333136 0.4572666 0.5791556 0.4572666 0.5333136 0.875 0.5333136 0.625 0.5791557 0.625 0.5333136 0.4572666 0.1000016 0.375 0.1250023 0.375 0 0.4572666 0.1000016 0.625 0.1250023 0.4572666 0.1250023 0.4572666 0.2279541 0.625 0.5271114 0.4572666 0.5216891 0.375 0.6249976 0.4572666 0.5791556 0.4572666 0.6249976 0.375 0.2224426 0.4572666 0.2166864 0.4572666 0.2224426 0.625 0.5271114 0.4572666 0.5275573 0.4572666 0.5216891 0.375 0.1250023 0.4572666 0.1708443 0.4572666 0.5791556 0.375 0.6249976 0.4572666 0.6249976 0.4572666 0.6498922 0.375 0.2224426 0.4572666 0.2224426 0.4572666 0.2279541 0.875 0.5791556 0.875 0.6249976 0.625 0.6249977 0.4572666 0.5333136 0.4572666 0.2166864 0.375 0.2224426 0.625 0.5791557 0.625 0.6249977 0.4572666 0.6249976 0.4572666 0.2166864 0.4572666 0.5333136 0.4572666 0.5791556 0.4572666 0.5216891 0.4572666 0.5275573 0.375 0.5275573 0.625 0.2166864 0.625 0.2224426 0.4572666 0.2224426 0.625 0.1708443 0.625 0.2166864 0.4572666 0.2166864 0.625 0.5275573 0.625 0.5333136 0.4572666 0.5333136 0.375 0 0.375 0.75 0.4572666 0.6498922 0.4572666 0.6498922 0.625 0.6249977 0.875 0.6249976 0.875 0.6249976 0.4572666 0.1000016 0.4572666 0.6498922 0.875 0.5275573 0.875 0.5333136 0.625 0.5333136 0.625 0.1250023 0.625 0.1708443 0.4572666 0.1708443 0.625 0.5333136 0.625 0.5791557 0.4572666 0.5791556 0.875 0.5333136 0.875 0.5791556 0.625 0.5791557 0.4572666 0.1000016 0.4572666 0.1250023 0.375 0.1250023 0.4572666 0.5216891 0.375 0.5 0.375 0.25 0.4572666 0.2279541 0.625 0.2224426 0.625 0.5271114 0.4572666 0.5216891 0.375 0.25 0.4572666 0.2279541 0.625 0.5271114 0.625 0.5275573 0.4572666 0.5275573</float_array>
          <technique_common>
            <accessor source="#Cube_046-mesh-map-0-array" count="147" stride="2">
              <param name="S" type="float"/>
              <param name="T" type="float"/>
            </accessor>
          </technique_common>
        </source>
        <vertices id="Cube_046-mesh-vertices">
          <input semantic="POSITION" source="#Cube_046-mesh-positions"/>
        </vertices>
        <triangles material="Material_002-material" count="49">
          <input semantic="VERTEX" source="#Cube_046-mesh-vertices" offset="0"/>
          <input semantic="NORMAL" source="#Cube_046-mesh-normals" offset="1"/>
          <input semantic="TEXCOORD" source="#Cube_046-mesh-map-0" offset="2" set="0"/>
          <p>12 0 0 10 0 1 26 0 2 8 1 3 7 1 4 25 1 5 4 2 6 21 2 7 6 2 8 6 1 9 25 1 10 2 1 11 13 0 12 26 0 13 1 0 14 22 3 15 7 3 16 20 3 17 17 4 18 13 4 19 11 4 20 20 1 21 8 1 22 21 1 23 19 5 24 21 5 25 23 5 26 27 1 27 11 1 28 3 1 29 18 0 30 12 0 31 19 0 32 22 0 33 19 0 34 23 0 35 14 1 36 17 1 37 15 1 38 24 6 39 0 6 40 25 6 41 10 3 42 16 3 43 14 3 44 11 1 45 15 1 46 17 1 47 4 0 48 9 0 49 23 0 50 5 0 51 23 0 52 9 0 53 16 1 54 21 1 55 17 1 56 18 3 57 20 3 58 16 3 59 24 0 60 4 0 61 0 0 62 24 0 63 5 0 64 9 0 65 26 7 66 28 7 67 27 7 68 6 1 69 21 1 70 8 1 71 13 0 72 19 0 73 12 0 74 28 1 75 15 1 76 27 1 77 4 2 78 23 2 79 21 2 80 6 1 81 8 1 82 25 1 83 13 0 84 12 0 85 26 0 86 22 3 87 5 3 88 7 3 89 17 4 90 19 4 91 13 4 92 20 1 93 7 1 94 8 1 95 19 5 96 17 5 97 21 5 98 27 1 99 15 1 100 11 1 101 18 0 102 10 0 103 12 0 104 22 0 105 18 0 106 19 0 107 14 1 108 16 1 109 17 1 110 0 8 111 2 8 112 25 8 113 25 9 114 7 9 115 5 9 116 5 10 117 24 10 118 25 10 119 10 3 120 18 3 121 16 3 122 5 0 123 22 0 124 23 0 125 16 1 126 20 1 127 21 1 128 18 3 129 22 3 130 20 3 131 24 0 132 9 0 133 4 0 134 27 11 135 3 11 136 1 11 137 26 12 138 10 12 139 28 12 140 27 13 141 1 13 142 26 13 143 28 1 144 14 1 145 15 1 146</p>
        </triangles>
      </mesh>
    </geometry>
  </library_geometries>
  <library_visual_scenes>
    <visual_scene id="Scene" name="Scene">
      <node id="Cube_029" name="Cube.029" type="NODE">
        <matrix sid="transform">0.03 0 0 0 0 0 -0.15 -1.57 0 0.425 0 0 0 0 0 1</matrix>
        <instance_geometry url="#Cube_046-mesh" name="Cube.029">
          <bind_material>
            <technique_common>
              <instance_material symbol="Material_002-material" target="#Material_002-material">
                <bind_vertex_input semantic="UVMap" input_semantic="TEXCOORD" input_set="0"/>
              </instance_material>
            </technique_common>
          </bind_material>
        </instance_geometry>
      </node>
    </visual_scene>
  </library_visual_scenes>
  <scene>
    <instance_visual_scene url="#Scene"/>
  </scene>
</COLLADA>