<?xml version="1.0" encoding="utf-8"?>
<COLLADA xmlns="http://www.collada.org/2005/11/COLLADASchema" version="1.4.1" xmlns:xsi="http://www.w3.org/2001/XMLSchema-instance">
  <asset>
    <contributor>
      <author>Blender User</author>
      <authoring_tool>Blender 2.83.20 commit date:2022-04-19, commit time:16:00, hash:a56e2faeb7a9</authoring_tool>
    </contributor>
    <created>2026-06-23T13:32:28</created>
    <modified>2026-06-23T13:32:28</modified>
    <unit name="meter" meter="1"/>
    <up_axis>Z_UP</up_axis>
  </asset>
  <library_effects>
    <effect id="Material_006-effect">
      <profile_COMMON>
        <technique sid="common">
          <lambert>
            <emission>
              <color sid="emission">0 0 0 1</color>
            </emission>
            <diffuse>
              <color sid="diffuse">1 0.95 0.9 1</color>
            </diffuse>
            <index_of_refraction>
              <float sid="ior">1.45</float>
            </index_of_refraction>
          </lambert>
        </technique>
      </profile_COMMON>
    </effect>
    <effect id="Material_004-effect">
      <profile_COMMON>
        <technique sid="common">
          <lambert>
            <emission>
              <color sid="emission">0 0 0 1</color>
            </emission>
            <diffuse>
              <color sid="diffuse">0 0 0 1</color>
            </diffuse>
            <index_of_refraction>
              <float sid="ior">1.45</float>
            </index_of_refraction>
          </lambert>
        </technique>
      </profile_COMMON>
    </effect>
  </library_effects>
  <library_images/>
  <library_materials>
    <material id="Material_006-material" name="Material.006">
      <instance_effect url="#Material_006-effect"/>
    </material>
    <material id="Material_004-material" name="Material.004">
      <instance_effect url="#Material_004-effect"/>
    </material>
  </library_materials>
  <library_geometries>
    <geometry id="Cube_043-mesh" name="Cube.043">
      <mesh>
        <source id="Cube_043-mesh-positions">
          <float_array id="Cube_043-mesh-positions-array" count="528">-1 -1 -1 -1 1 -1 0.2269999 1 -1 0.2269999 -1 -1 0.2269999 -1 0.356 0.2269999 1 0.356 0.9283632 -0.8553666 -1 0.851821 -0.9262756 -1 0.9281018 -0.8612223 -1 0.9273193 -0.8670379 -1 0.9260211 -0.8727738 -1 0.9242159 -0.8783908 -1 0.9219164 -0.8838505 -1 0.9191378 -0.8891156 -1 0.9158995 -0.8941503 -1 0.9122235 -0.8989199 -1 0.9081349 -0.9033921 -1 0.9036616 -0.9075362 -1 0.8988342 -0.9113239 -1 0.8936856 -0.9147294 -1 0.888251 -0.9177293 -1 0.8825676 -0.9203032 -1 0.8766741 -0.9224337 -1 0.870611 -0.924106 -1 0.8644194 -0.9253086 -1 0.8581417 -0.9260336 -1 0.8518208 0.9262756 -1 0.9283631 0.8553666 -1 0.8581416 0.9260334 -1 0.8644192 0.9253086 -1 0.8706108 0.9241058 -1 0.876674 0.9224335 -1 0.8825675 0.9203032 -1 0.8882509 0.9177293 -1 0.8936855 0.9147292 -1 0.8988341 0.9113239 -1 0.9036615 0.9075362 -1 0.9081348 0.903392 -1 0.9122235 0.8989198 -1 0.9158994 0.8941503 -1 0.9191377 0.8891156 -1 0.9219163 0.8838506 -1 0.9242158 0.8783908 -1 0.926021 0.8727739 -1 0.9273192 0.8670379 -1 0.9281017 0.8612223 -1 0.234802 0.9290909 1.006566 0.234802 1 0.9203549 0.234802 0.9349466 1.006271 0.234802 0.9407622 1.00539 0.234802 0.9464982 1.003928 0.234802 0.9521151 1.001894 0.234802 0.9575749 0.9993044 0.234802 0.96284 0.9961749 0.234802 0.9678746 0.9925277 0.234802 0.9726442 0.9883873 0.234802 0.9771164 0.9837822 0.234802 0.9812605 0.9787439 0.234802 0.9850482 0.9733066 0.234802 0.9884537 0.9675077 0.234802 0.9914537 0.9613866 0.234802 0.9940276 0.9549854 0.234802 0.996158 0.9483475 0.234802 0.9978303 0.9415184 0.234802 0.999033 0.9345448 0.234802 0.9997579 0.9274742 0.234802 -1 0.9203549 0.234802 -0.9290909 1.006566 0.234802 -0.9997579 0.9274742 0.234802 -0.999033 0.9345448 0.234802 -0.9978303 0.9415184 0.234802 -0.996158 0.9483475 0.234802 -0.9940276 0.9549854 0.234802 -0.9914537 0.9613866 0.234802 -0.9884537 0.9675077 0.234802 -0.9850482 0.9733066 0.234802 -0.9812605 0.9787439 0.234802 -0.9771164 0.9837822 0.234802 -0.9726442 0.9883873 0.234802 -0.9678746 0.9925277 0.234802 -0.96284 0.9961749 0.234802 -0.9575749 0.9993044 0.234802 -0.9521151 1.001894 0.234802 -0.9464982 1.003928 0.234802 -0.9407622 1.00539 0.234802 -0.9349466 1.006271 -0.8283915 -1 0.3625656 -0.992198 -0.9290909 0.3625656 -0.992198 -1 0.2916566 -0.8419186 -0.9997579 0.3625656 -0.8553532 -0.999033 0.3625656 -0.8686037 -0.9978303 0.3625656 -0.8815794 -0.996158 0.3625656 -0.8941919 -0.9940276 0.3625656 -0.9063548 -0.9914537 0.3625656 -0.9179852 -0.9884537 0.3625656 -0.9290035 -0.9850482 0.3625656 -0.9393347 -0.9812605 0.3625656 -0.9489079 -0.9771164 0.3625656 -0.9576579 -0.9726442 0.3625656 -0.9655249 -0.9678746 0.3625656 -0.972455 -0.96284 0.3625656 -0.9784012 -0.9575749 0.3625656 -0.9833225 -0.9521151 0.3625656 -0.9871856 -0.9464982 0.3625656 -0.989964 -0.9407622 0.3625656 -0.9916386 -0.9349466 0.3625656 -0.992198 0.9290909 0.3625656 -0.8283916 1 0.3625656 -0.992198 1 0.2916566 -0.9916386 0.9349466 0.3625656 -0.9899639 0.9407622 0.3625656 -0.9871855 0.9464982 0.3625656 -0.9833225 0.9521151 0.3625656 -0.9784011 0.9575749 0.3625656 -0.972455 0.96284 0.3625656 -0.9655248 0.9678746 0.3625656 -0.9576578 0.9726442 0.3625656 -0.9489079 0.9771164 0.3625656 -0.9393346 0.9812605 0.3625656 -0.9290035 0.9850482 0.3625656 -0.9179852 0.9884537 0.3625656 -0.9063547 0.9914537 0.3625656 -0.8941919 0.9940276 0.3625656 -0.8815793 0.996158 0.3625656 -0.8686037 0.9978303 0.3625656 -0.8553532 0.999033 0.3625656 -0.8419186 0.9997579 0.3625656 0.731065 1 0.3625656 0.807802 0.9290909 0.3625656 0.737402 0.9997579 0.3625656 0.7436955 0.999033 0.3625656 0.7499029 0.9978303 0.3625656 0.7559815 0.996158 0.3625656 0.7618899 0.9940276 0.3625656 0.7675878 0.9914537 0.3625656 0.7730361 0.9884537 0.3625656 0.7781979 0.9850482 0.3625656 0.7830376 0.9812605 0.3625656 0.7875223 0.9771164 0.3625656 0.7916212 0.9726442 0.3625656 0.7953066 0.9678746 0.3625656 0.7985531 0.96284 0.3625656 0.8013387 0.9575749 0.3625656 0.8036441 0.9521151 0.3625656 0.8054538 0.9464982 0.3625656 0.8067554 0.9407622 0.3625656 0.8075399 0.9349466 0.3625656 0.807802 -0.9290909 0.3625656 0.731065 -1 0.3625656 0.8075399 -0.9349466 0.3625656 0.8067554 -0.9407622 0.3625656 0.8054538 -0.9464982 0.3625656 0.8036441 -0.9521151 0.3625656 0.8013387 -0.9575749 0.3625656 0.7985531 -0.96284 0.3625656 0.7953066 -0.9678746 0.3625656 0.7916212 -0.9726442 0.3625656 0.7875223 -0.9771164 0.3625656 0.7830376 -0.9812605 0.3625656 0.7781979 -0.9850482 0.3625656 0.7730361 -0.9884537 0.3625656 0.7675878 -0.9914537 0.3625656 0.7618899 -0.9940276 0.3625656 0.7559815 -0.996158 0.3625656 0.7499029 -0.9978303 0.3625656 0.7436955 -0.999033 0.3625656 0.737402 -0.9997579 0.3625656 0.9283632 0.1880194 -1 0.807802 0.35 0.3625656 0.234802 0.35 1.006566 -0.992198 0.2039935 0.3625656 0.807802 -0.35 0.3625656 -0.992198 -0.2072188 0.3625656 0.9283632 -0.1783437 -1 0.234802 -0.35 1.006566</float_array>
          <technique_common>
            <accessor source="#Cube_043-mesh-positions-array" count="176" stride="3">
              <param name="X" type="float"/>
              <param name="Y" type="float"/>
              <param name="Z" type="float"/>
            </accessor>
          </technique_common>
        </source>
        <source id="Cube_043-mesh-normals">
          <float_array id="Cube_043-mesh-normals-array" count="876">-0.7470892 0 -0.6647238 1 0 0 0 -1 0 0 0 1 0 1 0 0 1 0 -0.11707 0.9921789 0.04330861 0.464735 0 -0.8854499 0 -1 0 0.01788014 0.9989864 -0.04131209 0.05351257 0.9917151 -0.11678 0.08883708 0.9787543 -0.1847921 0.1239103 0.9614701 -0.2454009 0.158937 0.9409471 -0.2989276 0.1942674 0.9179697 -0.3458207 0.230355 0.893055 -0.3865091 0.2677979 0.8664587 -0.4213476 0.3073017 0.8381682 -0.4505994 0.3497372 0.80794 -0.4742541 0.3962094 0.775179 -0.4920526 0.4479896 0.7389293 -0.503278 0.5067387 0.6975255 -0.5066303 0.5742256 0.6484883 -0.4997279 0.6521767 0.5878709 -0.4786162 0.7411177 0.5097073 -0.4369704 0.8377431 0.4058083 -0.3653851 0.9297035 0.2677148 -0.2529432 0.9910003 0.09463667 -0.09466946 0.9909963 -0.09467101 -0.09467852 0.9297034 -0.2677148 -0.2529437 0.8377529 -0.4057824 -0.3653913 0.7411183 -0.5097077 -0.4369691 0.6521785 -0.5878697 -0.4786153 0.5742256 -0.6484883 -0.4997279 0.5067312 -0.6975363 -0.5066228 0.4479961 -0.7389204 -0.5032854 0.3962094 -0.775179 -0.4920526 0.3497381 -0.8079396 -0.474254 0.3073028 -0.8381715 -0.4505926 0.2677979 -0.8664587 -0.4213476 0.2303536 -0.8930495 -0.3865228 0.1942674 -0.9179697 -0.3458207 0.1589368 -0.9409471 -0.2989276 0.1239102 -0.9614701 -0.2454009 0.08883678 -0.9787514 -0.1848071 0.05351257 -0.9917151 -0.11678 0.01788014 -0.9989864 -0.04131209 -0.9953327 -0.04443484 -0.08566474 -0.9878752 -0.1329199 -0.08021861 -0.9726483 -0.220128 -0.07415556 -0.9498731 -0.305255 -0.06753295 -0.9199084 -0.3874478 -0.06043934 -0.883164 -0.4660677 -0.05293738 -0.8401908 -0.5404111 -0.04511517 -0.7915153 -0.6100255 -0.03704649 -0.7377315 -0.6744796 -0.02880418 -0.6794783 -0.7334104 -0.02046185 -0.6172614 -0.7866654 -0.01207989 -0.5516611 -0.8340603 -0.003712534 -0.4832824 -0.8754526 0.004576504 -0.4125285 -0.9108555 0.01275402 -0.3398573 -0.9402476 0.02077299 -0.2657724 -0.9636116 0.02859801 -0.1905773 -0.9810046 0.036197 -0.1145881 -0.9924582 0.04354631 -0.03824567 -0.9979861 0.05060786 -0.03812968 0.99799 0.05061799 -0.1143174 0.9924884 0.04357033 -0.1900923 0.9810971 0.03624147 -0.2651461 0.9637823 0.02865904 -0.3391163 0.9405134 0.02085143 -0.4116545 0.9112494 0.01284646 -0.4823219 0.8759816 0.004683971 -0.550698 0.8346968 -0.00359708 -0.6162802 0.7874363 -0.01195716 -0.6785262 0.7342948 -0.02033418 -0.7369051 0.6753873 -0.02868592 -0.7907644 0.6110057 -0.03693133 -0.8395673 0.5413877 -0.04501229 -0.8826877 0.4669792 -0.05285012 -0.9195628 0.3882789 -0.06036555 -0.9496532 0.3059501 -0.06747937 -0.9725292 0.2206669 -0.07411682 -0.9878258 0.1332996 -0.08019524 -0.9953296 0.04452395 -0.08565551 0.4642683 0.04435169 -0.8845835 0.4606278 0.1326408 -0.8776267 0.4533879 0.2196107 -0.8638349 0.4426791 0.3044552 -0.8434111 0.4286484 0.386375 -0.8166854 0.4114992 0.4647261 -0.784027 0.3914733 0.5388629 -0.7459059 0.3688254 0.6083403 -0.702773 0.3438323 0.6727155 -0.6551591 0.3167442 0.731712 -0.6035485 0.2878304 0.7850615 -0.5484819 0.2573464 0.832646 -0.490381 0.2255259 0.874328 -0.4297541 0.1925892 0.9100505 -0.3670388 0.1587464 0.939826 -0.3025338 0.1241872 0.9636118 -0.2367063 0.08908313 0.9814497 -0.1697664 0.05359864 0.9933274 -0.102117 0.0178852 0.9992584 -0.03410047 0.01782882 -0.9992631 -0.0339936 0.05343306 -0.9933636 -0.1018511 0.08881884 -0.9815534 -0.169305 0.1238358 -0.9638289 -0.2360055 0.1583263 -0.9401568 -0.301725 0.1921187 -0.9105247 -0.3661083 0.2250161 -0.8749227 -0.4288102 0.2568222 -0.8333793 -0.4894092 0.2873204 -0.7859357 -0.5474962 0.3162568 -0.732684 -0.6026242 0.3433946 -0.6737676 -0.6543068 0.3684445 -0.6094259 -0.702032 0.3911541 -0.5399274 -0.7453033 0.4112361 -0.4657273 -0.7835707 0.4284493 -0.3872633 -0.8163691 0.4425442 -0.3051981 -0.8432134 0.4533243 -0.2201833 -0.8637226 0.4606063 -0.132989 -0.8775852 0.4642744 -0.0444827 -0.8845738 -0.746676 0.03341275 -0.6643483 -0.7433269 0.1002376 -0.6613756 -0.7365812 0.1670759 -0.6553883 -0.7263644 0.2339267 -0.6462764 -0.7124997 0.3007444 -0.6339536 -0.6948288 0.3674526 -0.6182166 -0.6731149 0.4338656 -0.5988966 -0.6470945 0.4997848 -0.5757463 -0.6165084 0.5648356 -0.5485237 -0.5810624 0.628562 -0.5169878 -0.5405109 0.690335 -0.4809218 -0.4946458 0.7494267 -0.4400969 -0.443363 0.8048722 -0.3944746 -0.3866919 0.8556271 -0.344052 -0.3248422 0.9005311 -0.2890006 -0.2582586 0.9383531 -0.2297735 -0.1876289 0.9679496 -0.1669403 -0.1138883 0.9883149 -0.1013081 -0.03817456 0.9986935 -0.03397125 -0.03815692 -0.9986949 -0.0339511 -0.1138397 -0.988324 -0.1012731 -0.1875495 -0.9679738 -0.1668892 -0.2581617 -0.938407 -0.2296628 -0.3247234 -0.9005925 -0.2889427 -0.3865731 -0.8557235 -0.3439455 -0.443243 -0.8049898 -0.3943696 -0.4945228 -0.7495656 -0.4399985 -0.5404064 -0.6904872 -0.4808208 -0.5809669 -0.6287238 -0.5168983 -0.6164276 -0.5649755 -0.5484706 -0.6470177 -0.4999513 -0.5756882 -0.6730622 -0.4340101 -0.598851 -0.6947901 -0.3675845 -0.6181815 -0.7124778 -0.3008611 -0.6339228 -0.7263475 -0.2340045 -0.6462672 -0.7365882 -0.167152 -0.655361 -0.7433219 -0.1002625 -0.6613774 -0.7466778 -0.03340268 -0.6643468 -0.9961084 0 -0.08813667 -0.9961085 0 -0.08813661 0.4647349 0 -0.88545 -0.7470892 0 -0.6647239 -0.9961085 -4.75749e-7 -0.08813661 0.4647347 0 -0.8854499 0.9999817 5.40157e-4 -0.006040155 0.9999837 0 -0.00572586 0.9999836 0 -0.00572586 0.9999817 -5.38055e-4 -0.006040155 -0.11707 -0.9921789 0.04330861 0 1 0 -0.9953282 -0.04455363 -0.08565539 -0.9878339 -0.1332412 -0.08019405 -0.972523 -0.2206951 -0.07411265 -0.9496533 -0.3059501 -0.06747758 -0.9195523 -0.3883039 -0.06036299 -0.8826757 -0.4670022 -0.05284571 -0.8395673 -0.5413877 -0.04501229 -0.7907644 -0.6110057 -0.03693133 -0.7368905 -0.6754032 -0.02868717 -0.6785119 -0.734308 -0.02033376 -0.6162802 -0.7874363 -0.01195716 -0.550685 -0.8347055 -0.003598749 -0.4823219 -0.8759816 0.004682242 -0.4116441 -0.9112542 0.01284438 -0.3391159 -0.9405135 0.0208497 -0.2651457 -0.9637824 0.02865904 -0.1900923 -0.9810971 0.03624147 -0.114317 -0.9924885 0.04357033 -0.03813076 -0.9979898 0.05062115 -0.03820878 0.9979872 0.05061262 -0.1146221 0.9924545 0.04354298 -0.1905406 0.9810117 0.03619891 -0.2657649 0.9636138 0.02859693 -0.3398998 0.9402324 0.02076965 -0.4125285 0.9108555 0.01275223 -0.4832556 0.8754674 0.004576325 -0.5516746 0.8340512 -0.00371617 -0.6172476 0.7866764 -0.01207959 -0.679439 0.7334467 -0.02046126 -0.7377501 0.6744591 -0.02880567 -0.791505 0.610039 -0.03704619 -0.8401879 0.5404158 -0.04511374 -0.8831564 0.4660825 -0.05293387 -0.919907 0.3874514 -0.06043809 -0.9498656 0.3052789 -0.06752985 -0.972648 0.2201302 -0.07415258 -0.9878752 0.1329199 -0.08021861 -0.9953327 0.04443484 -0.08566474 0.4642744 0.04447901 -0.8845739 0.4606061 0.1329926 -0.8775848 0.4533243 0.2201833 -0.8637226 0.4425442 0.3051981 -0.8432134 0.4284486 0.3872664 -0.8163679 0.4112353 0.4657302 -0.7835694 0.3911548 0.5399248 -0.7453048 0.3684445 0.6094259 -0.702032 0.3433955 0.6737656 -0.6543084 0.3162576 0.7326822 -0.6026259 0.2873204 0.7859357 -0.5474962 0.2568222 0.8333793 -0.4894092 0.2250153 0.8749235 -0.4288088 0.1921187 0.9105247 -0.3661083 0.1583263 0.9401568 -0.301725 0.1238358 0.9638289 -0.2360055 0.08881884 0.9815534 -0.169305 0.05343306 0.9933636 -0.1018511 0.01782882 0.9992631 -0.0339936 0.01788526 -0.9992589 -0.03408503 0.05359864 -0.9933274 -0.102117 0.08908313 -0.9814497 -0.1697664 0.1241881 -0.963615 -0.2366931 0.1587449 -0.9398175 -0.3025611 0.1925913 -0.9100605 -0.367013 0.2255251 -0.8743289 -0.4297527 0.2573438 -0.8326412 -0.4903905 0.2878296 -0.7850521 -0.5484955 0.3167451 -0.7317103 -0.6035501 0.3438323 -0.6727155 -0.6551591 0.3688263 -0.608338 -0.7027745 0.3914818 -0.5388746 -0.7458929 0.4114984 -0.4647289 -0.7840256 0.4286478 -0.3863781 -0.8166843 0.4426791 -0.3044552 -0.8434111 0.4533764 -0.2196051 -0.8638423 0.4606278 -0.1326408 -0.8776267 0.4642747 -0.04435598 -0.8845799 -0.7466778 0.03340268 -0.6643468 -0.7433219 0.1002625 -0.6613774 -0.7365882 0.167152 -0.655361 -0.7263475 0.2340045 -0.6462672 -0.7124778 0.3008611 -0.6339228 -0.6947901 0.3675845 -0.6181815 -0.6730622 0.4340101 -0.598851 -0.6470177 0.4999513 -0.5756882 -0.6164276 0.5649755 -0.5484706 -0.5809669 0.6287238 -0.5168983 -0.5404064 0.6904872 -0.4808208 -0.4945228 0.7495656 -0.4399985 -0.443243 0.8049898 -0.3943696 -0.3865731 0.8557235 -0.3439455 -0.3247234 0.9005925 -0.2889427 -0.2581617 0.938407 -0.2296628 -0.1875495 0.9679738 -0.1668892 -0.1138397 0.988324 -0.1012731 -0.03815692 0.9986949 -0.0339511 -0.03817456 -0.9986935 -0.03397125 -0.1138883 -0.9883149 -0.1013081 -0.1876289 -0.9679496 -0.1669403 -0.2582586 -0.9383531 -0.2297735 -0.3248422 -0.9005311 -0.2890006 -0.3866919 -0.8556271 -0.344052 -0.443363 -0.8048722 -0.3944746 -0.4946458 -0.7494267 -0.4400969 -0.5405109 -0.690335 -0.4809218 -0.5810624 -0.628562 -0.5169878 -0.6165084 -0.5648356 -0.5485237 -0.6470945 -0.4997848 -0.5757463 -0.6731149 -0.4338656 -0.5988966 -0.6948288 -0.3674526 -0.6182166 -0.7124997 -0.3007444 -0.6339536 -0.7263644 -0.2339267 -0.6462764 -0.7365812 -0.1670759 -0.6553883 -0.7433269 -0.1002376 -0.6613756 -0.746676 -0.03341275 -0.6643483 -0.9961085 0 -0.08813667 0.4647349 0 -0.8854499 -0.7470892 0 -0.6647238 -0.9961085 0 -0.08813667 0.464735 0 -0.88545</float_array>
          <technique_common>
            <accessor source="#Cube_043-mesh-normals-array" count="292" stride="3">
              <param name="X" type="float"/>
              <param name="Y" type="float"/>
              <param name="Z" type="float"/>
            </accessor>
          </technique_common>
        </source>
        <source id="Cube_043-mesh-map-0">
          <float_array id="Cube_043-mesh-map-0-array" count="2088">0.625 0.4002108 0.5016289 0.5998364 0.625 0.5762943 0.501629 0.0795136 0.5016289 0.008863627 0.4950072 0 0.375 0.3830547 0.5016289 0.4843385 0.5016289 0.3830547 0.125 0.75 0.2580547 0.5 0.125 0.5 0.5016289 0.8669453 0.5016289 0.982237 0.6084846 0.8669453 0.5016289 0.7656615 0.5016289 0.8669453 0.6084846 0.8669453 0.3717753 0.7564091 0.3720876 0.7557345 0.375 0.7411364 0.375 0.3830547 0.5016289 0.3830547 0.5016289 0.267763 0.375 0.8669453 0.5016289 0.7656615 0.375 0.7615799 0.625 0.7130418 0.5016289 0.008863627 0.501629 0.0795136 0.375 1 0.4950072 1 0.5016289 0.982237 0.5016289 0.267763 0.5016289 0.3830547 0.6084846 0.3830547 0.5016289 0.3830547 0.5016289 0.4843385 0.6084846 0.3830547 0.5016289 0.982237 0.4950072 1 0.5016289 0.9837039 0.5016289 0.9837039 0.4950072 1 0.5016289 0.9851607 0.5016289 0.9851607 0.4950072 1 0.5016289 0.9865975 0.5016289 0.9865975 0.4950072 1 0.5016289 0.9880046 0.5016289 0.9880046 0.4950072 1 0.5016289 0.9893723 0.5016289 0.9893723 0.4950072 1 0.5016289 0.9906913 0.5016289 0.9906913 0.4950072 1 0.5016289 0.9919524 0.5016289 0.9919524 0.4950072 1 0.5016289 0.9931473 0.5016289 0.9931473 0.4950072 1 0.5016289 0.9942675 0.5016289 0.9942675 0.4950072 1 0.5016289 0.9953057 0.5016289 0.9953057 0.4950072 1 0.5016289 0.9962545 0.5016289 0.9962545 0.4950072 1 0.5016289 0.9971076 0.5016289 0.9971076 0.4950072 1 0.5016289 0.9978591 0.5016289 0.9978591 0.4950072 1 0.5016289 0.9985039 0.5016289 0.9985039 0.4950072 1 0.5016289 0.9990376 0.5016289 0.9990376 0.4950072 1 0.5016289 0.9994565 0.5016289 0.9994565 0.4950072 1 0.5016289 0.9997578 0.5016289 0.9997578 0.4950072 1 0.5016289 0.9999393 0.5016289 0.9999393 0.4950072 1 0.5016289 1 0.5016289 0.2411363 0.4950072 0.25 0.501673 0.2419817 0.501673 0.2419817 0.4950072 0.25 0.5018051 0.2430434 0.5018051 0.2430434 0.4950072 0.25 0.5020241 0.2443007 0.5020241 0.2443007 0.4950072 0.25 0.5023286 0.2457192 0.5023286 0.2457192 0.4950072 0.25 0.5027166 0.2472463 0.5027166 0.2472463 0.4950072 0.25 0.5031853 0.2488095 0.5031853 0.2488095 0.4950072 0.25 0.5037316 0.250325 0.5037316 0.250325 0.4950072 0.25 0.5043517 0.2517246 0.5043517 0.2517246 0.4950072 0.25 0.5050415 0.2529858 0.5050415 0.2529858 0.4950072 0.25 0.5057962 0.2541331 0.5057962 0.2541331 0.4950072 0.25 0.5066106 0.25521 0.5066106 0.25521 0.4950072 0.25 0.5074793 0.2562561 0.5074793 0.2562561 0.4950072 0.25 0.5083961 0.2572987 0.5083961 0.2572987 0.4950072 0.25 0.5093548 0.2583537 0.5093548 0.2583537 0.4950072 0.25 0.5103491 0.2594287 0.5103491 0.2594287 0.4950072 0.25 0.511372 0.2605259 0.511372 0.2605259 0.4950072 0.25 0.5124165 0.261644 0.5124165 0.261644 0.4950072 0.25 0.5134755 0.2627792 0.5134755 0.2627792 0.4950072 0.25 0.5145419 0.2639266 0.5016289 0.5088636 0.3749892 0.5081317 0.375 0.5088636 0.5016432 0.5081242 0.3749567 0.5074048 0.3749892 0.5081317 0.5016857 0.5073749 0.3749029 0.5066878 0.3749567 0.5074048 0.5017564 0.5066202 0.3748282 0.5059856 0.3749029 0.5066878 0.5018547 0.5058645 0.3747328 0.5053031 0.3748282 0.5059856 0.50198 0.5051119 0.3746176 0.504645 0.3747328 0.5053031 0.5021312 0.5043656 0.3744835 0.5040157 0.3746176 0.504645 0.5023075 0.503628 0.3743312 0.5034195 0.3744835 0.5040157 0.5025077 0.5028999 0.3741617 0.5028605 0.3743312 0.5034195 0.5027303 0.5021811 0.3737543 0.4982895 0.3741617 0.5028605 0.5016289 0.4949458 0.3735109 0.4976447 0.3737543 0.4982895 0.5016289 0.493958 0.3732513 0.4969836 0.3735109 0.4976447 0.5016289 0.4929046 0.3729772 0.4963105 0.3732513 0.4969836 0.5016289 0.4917926 0.3726906 0.49563 0.3729772 0.4963105 0.5016289 0.4906297 0.3723934 0.4949468 0.3726906 0.49563 0.5016289 0.4894238 0.3720876 0.4942656 0.3723934 0.4949468 0.5016289 0.4881832 0.3717753 0.493591 0.3720876 0.4942656 0.5016289 0.4869163 0.3714588 0.4929277 0.3717753 0.493591 0.5016289 0.4856318 0.375 0.4884201 0.3714588 0.4929277 0.5016289 0.7643682 0.375 0.7615799 0.5016289 0.7656615 0.5016289 0.7630837 0.3714588 0.7570724 0.5016289 0.7643682 0.5016289 0.7618168 0.3717753 0.7564091 0.5016289 0.7630837 0.5016289 0.7605762 0.3720876 0.7557345 0.5016289 0.7618168 0.5016289 0.7593703 0.3723934 0.7550532 0.5016289 0.7605762 0.5016289 0.7582074 0.3726906 0.7543701 0.5016289 0.7593703 0.5016289 0.7570955 0.3729772 0.7536895 0.5016289 0.7582074 0.5016289 0.756042 0.3732513 0.7530165 0.5016289 0.7570955 0.5016289 0.7550542 0.3735109 0.7523553 0.5016289 0.756042 0.5027303 0.747819 0.3737543 0.7517105 0.5016289 0.7550542 0.5025077 0.7471001 0.3741617 0.7471396 0.5027303 0.747819 0.5023075 0.7463721 0.3743311 0.7465806 0.5025077 0.7471001 0.5021312 0.7456344 0.3744835 0.7459843 0.5023075 0.7463721 0.50198 0.7448881 0.3746176 0.745355 0.5021312 0.7456344 0.5018548 0.7441355 0.3747328 0.7446968 0.50198 0.7448881 0.5017564 0.7433798 0.3748282 0.7440145 0.5018548 0.7441355 0.5016857 0.7426251 0.3749029 0.7433123 0.5017564 0.7433798 0.5016432 0.7418758 0.3749567 0.7425953 0.5016857 0.7426251 0.5016289 0.7411363 0.3749892 0.7418684 0.5016432 0.7418758 0.625 0.8497893 0.5016731 0.008375704 0.5016289 0.008863627 0.6249879 0.8511386 0.501805 0.008384048 0.5016731 0.008375704 0.6249513 0.8523433 0.5020241 0.008902013 0.501805 0.008384048 0.6248909 0.853394 0.5023286 0.009952008 0.5020241 0.008902013 0.6248068 0.8542806 0.5027166 0.01156944 0.5023286 0.009952008 0.6246996 0.8549937 0.5031853 0.01380562 0.5027166 0.01156944 0.6245701 0.8555223 0.5037316 0.01671838 0.5031853 0.01380562 0.6244192 0.8558531 0.5043518 0.02034568 0.5037316 0.01671838 0.6242479 0.8559695 0.5050415 0.02467536 0.5043518 0.02034568 0.6240574 0.8558496 0.5057963 0.029284 0.5050415 0.02467536 0.6196702 0.8669453 0.5016289 0.9931473 0.5016289 0.9942676 0.6186286 0.8669453 0.5016289 0.9919525 0.5016289 0.9931473 0.6175177 0.8669453 0.5016289 0.9906913 0.5016289 0.9919525 0.6163451 0.8669453 0.5016289 0.9893724 0.5016289 0.9906913 0.6151188 0.8669453 0.5016289 0.9880046 0.5016289 0.9893724 0.6138472 0.8669453 0.5016289 0.9865975 0.5016289 0.9880046 0.6125389 0.8669453 0.5016289 0.9851607 0.5016289 0.9865975 0.611203 0.8669453 0.5016289 0.9837039 0.5016289 0.9851607 0.6098484 0.8669453 0.5016289 0.982237 0.5016289 0.9837039 0.6098484 0.3830547 0.5016289 0.267763 0.6084846 0.3830547 0.611203 0.3830547 0.5016289 0.2662962 0.6098484 0.3830547 0.6125389 0.3830547 0.5016289 0.2648393 0.611203 0.3830547 0.6138471 0.3830547 0.5016289 0.2634024 0.6125389 0.3830547 0.6151188 0.3830547 0.5016289 0.2619954 0.6138471 0.3830547 0.6163451 0.3830547 0.5016289 0.2606277 0.6151188 0.3830547 0.6175177 0.3830547 0.5016289 0.2593088 0.6163451 0.3830547 0.6186286 0.3830547 0.5016289 0.2580475 0.6175177 0.3830547 0.6196702 0.3830547 0.5016289 0.2568528 0.6186286 0.3830547 0.6233107 0.3884318 0.5016289 0.2557324 0.6196702 0.3830547 0.6236521 0.3894743 0.5050415 0.2529858 0.6233107 0.3884318 0.6239591 0.3906307 0.5043517 0.2517246 0.6236521 0.3894743 0.6242296 0.391876 0.5037316 0.250325 0.6239591 0.3906307 0.6244615 0.3931884 0.5031853 0.2488095 0.6242296 0.391876 0.6246536 0.39455 0.5027166 0.2472463 0.6244615 0.3931884 0.6248044 0.3959458 0.5023286 0.2457192 0.6246536 0.39455 0.6249128 0.3973624 0.5020241 0.2443007 0.6248044 0.3959458 0.6249782 0.3987877 0.5018051 0.2430434 0.6249128 0.3973624 0.625 0.4002108 0.501673 0.2419817 0.6249782 0.3987877 0.5016289 0.7411364 0.6249685 0.8511873 0.625 0.8497893 0.5016432 0.7418758 0.6248743 0.8525377 0.6249685 0.8511873 0.5016857 0.7426251 0.6247178 0.8538298 0.6248743 0.8525377 0.5017564 0.7433798 0.6245005 0.8550527 0.6247178 0.8538298 0.5018548 0.7441355 0.6242236 0.8561943 0.6245005 0.8550527 0.50198 0.7448881 0.623889 0.8572411 0.6242236 0.8561943 0.5021312 0.7456344 0.623499 0.8581776 0.623889 0.8572411 0.5023075 0.7463721 0.6230563 0.8589854 0.623499 0.8581776 0.5025077 0.7471001 0.6225639 0.859646 0.6230563 0.8589854 0.5027303 0.747819 0.6196702 0.8669453 0.6225639 0.859646 0.5016289 0.7550542 0.6186286 0.8669453 0.6196702 0.8669453 0.5016289 0.756042 0.6175177 0.8669453 0.6186286 0.8669453 0.5016289 0.7570955 0.6163451 0.8669453 0.6175177 0.8669453 0.5016289 0.7582074 0.6151188 0.8669453 0.6163451 0.8669453 0.5016289 0.7593703 0.6138471 0.8669453 0.6151188 0.8669453 0.5016289 0.7605762 0.6125389 0.8669453 0.6138471 0.8669453 0.5016289 0.7618168 0.611203 0.8669453 0.6125389 0.8669453 0.5016289 0.7630837 0.6098484 0.8669453 0.611203 0.8669453 0.5016289 0.7643682 0.6084846 0.8669453 0.6098484 0.8669453 0.5016289 0.4856318 0.6084846 0.3830547 0.5016289 0.4843385 0.5016289 0.4869163 0.6098484 0.3830547 0.5016289 0.4856318 0.5016289 0.4881832 0.611203 0.3830547 0.5016289 0.4869163 0.5016289 0.4894238 0.6125389 0.3830547 0.5016289 0.4881832 0.5016289 0.4906297 0.6138471 0.3830547 0.5016289 0.4894238 0.5016289 0.4917926 0.6151188 0.3830547 0.5016289 0.4906297 0.5016289 0.4929046 0.6163451 0.3830547 0.5016289 0.4917926 0.5016289 0.493958 0.6175177 0.3830547 0.5016289 0.4929046 0.5016289 0.4949458 0.6186286 0.3830547 0.5016289 0.493958 0.5027303 0.5021811 0.6196702 0.3830547 0.5016289 0.4949458 0.5025077 0.5028999 0.6233107 0.3884318 0.5027303 0.5021811 0.5023075 0.503628 0.6236521 0.3894743 0.5025077 0.5028999 0.5021312 0.5043656 0.6239591 0.3906307 0.5023075 0.503628 0.50198 0.5051119 0.6242296 0.391876 0.5021312 0.5043656 0.5018547 0.5058645 0.6244615 0.3931884 0.50198 0.5051119 0.5017564 0.5066202 0.6246536 0.39455 0.5018547 0.5058645 0.5016857 0.5073749 0.6248044 0.3959458 0.5017564 0.5066202 0.5016432 0.5081242 0.6249128 0.3973624 0.5016857 0.5073749 0.5016289 0.5088636 0.6249782 0.3987877 0.5016432 0.5081242 0.375 0.7411364 0.5016289 0.6704864 0.375 0.6704864 0.375 0.5088636 0.5016289 0.5998364 0.5016289 0.5088636 0.625 0.5762943 0.5016289 0.2411363 0.625 0.4002108 0.625 0.5762943 0.5016289 0.6704864 0.625 0.7130418 0.625 0.7130418 0.5016289 0.7411364 0.625 0.8497893 0.375 0.6704864 0.5016289 0.5998364 0.375 0.5998364 0.625 0.7130418 0.5016289 0.1501635 0.625 0.5762943 0.625 0.4002108 0.5016289 0.5088636 0.5016289 0.5998364 0.4950072 0 0.375 0 0.501629 0.0795136 0.375 0 0.375 0.25 0.5016289 0.1501635 0.501629 0.0795136 0.375 0 0.5016289 0.1501635 0.375 0.25 0.4950072 0.25 0.5016289 0.1501635 0.4950072 0.25 0.5016289 0.2411363 0.5016289 0.1501635 0.375 0.3830547 0.375 0.4884201 0.5016289 0.4843385 0.125 0.75 0.2580547 0.75 0.2580547 0.5 0.3634201 0.5 0.2580547 0.5 0.375 0.5998364 0.2580547 0.5 0.2580547 0.75 0.375 0.6704864 0.375 0.5998364 0.2580547 0.5 0.375 0.6704864 0.3634201 0.75 0.3714588 0.7570724 0.375 0.7411364 0.3714588 0.7570724 0.3717753 0.7564091 0.375 0.7411364 0.2580547 0.75 0.3634201 0.75 0.375 0.6704864 0.3717753 0.493591 0.3714588 0.4929277 0.375 0.5088636 0.3714588 0.4929277 0.3634201 0.5 0.375 0.5088636 0.3723934 0.4949468 0.3720876 0.4942656 0.375 0.5088636 0.3720876 0.4942656 0.3717753 0.493591 0.375 0.5088636 0.3729772 0.4963105 0.3726906 0.49563 0.375 0.5088636 0.3726906 0.49563 0.3723934 0.4949468 0.375 0.5088636 0.3735109 0.4976447 0.3732513 0.4969836 0.375 0.5088636 0.3732513 0.4969836 0.3729772 0.4963105 0.375 0.5088636 0.3741617 0.5028605 0.3737543 0.4982895 0.375 0.5088636 0.3737543 0.4982895 0.3735109 0.4976447 0.375 0.5088636 0.3744835 0.5040157 0.3743312 0.5034195 0.375 0.5088636 0.3743312 0.5034195 0.3741617 0.5028605 0.375 0.5088636 0.3747328 0.5053031 0.3746176 0.504645 0.375 0.5088636 0.3746176 0.504645 0.3744835 0.5040157 0.375 0.5088636 0.3749029 0.5066878 0.3748282 0.5059856 0.375 0.5088636 0.3748282 0.5059856 0.3747328 0.5053031 0.375 0.5088636 0.3749892 0.5081317 0.3749567 0.5074048 0.3749029 0.5066878 0.375 0.5998364 0.375 0.5088636 0.3634201 0.5 0.375 0.5088636 0.3749892 0.5081317 0.3749029 0.5066878 0.375 0.7411364 0.375 0.6704864 0.3634201 0.75 0.375 0.7411364 0.3720876 0.7557345 0.3723934 0.7550532 0.3749567 0.7425953 0.3749892 0.7418684 0.375 0.7411364 0.3748282 0.7440145 0.3749029 0.7433123 0.375 0.7411364 0.3749029 0.7433123 0.3749567 0.7425953 0.375 0.7411364 0.3746176 0.745355 0.3747328 0.7446968 0.375 0.7411364 0.3747328 0.7446968 0.3748282 0.7440145 0.375 0.7411364 0.3743311 0.7465806 0.3744835 0.7459843 0.375 0.7411364 0.3744835 0.7459843 0.3746176 0.745355 0.375 0.7411364 0.3737543 0.7517105 0.3741617 0.7471396 0.375 0.7411364 0.3741617 0.7471396 0.3743311 0.7465806 0.375 0.7411364 0.3732513 0.7530165 0.3735109 0.7523553 0.375 0.7411364 0.3735109 0.7523553 0.3737543 0.7517105 0.375 0.7411364 0.3726906 0.7543701 0.3729772 0.7536895 0.375 0.7411364 0.3729772 0.7536895 0.3732513 0.7530165 0.375 0.7411364 0.3723934 0.7550532 0.3726906 0.7543701 0.375 0.7411364 0.4950072 0.25 0.375 0.25 0.5016289 0.267763 0.375 0.25 0.375 0.3830547 0.5016289 0.267763 0.375 0.8669453 0.5016289 0.8669453 0.5016289 0.7656615 0.625 0.7130418 0.625 0.8497893 0.5016289 0.008863627 0.5016289 0.8669453 0.375 0.8669453 0.5016289 0.982237 0.375 0.8669453 0.375 1 0.5016289 0.982237 0.5016289 0.5088636 0.5016432 0.5081242 0.3749892 0.5081317 0.5016432 0.5081242 0.5016857 0.5073749 0.3749567 0.5074048 0.5016857 0.5073749 0.5017564 0.5066202 0.3749029 0.5066878 0.5017564 0.5066202 0.5018547 0.5058645 0.3748282 0.5059856 0.5018547 0.5058645 0.50198 0.5051119 0.3747328 0.5053031 0.50198 0.5051119 0.5021312 0.5043656 0.3746176 0.504645 0.5021312 0.5043656 0.5023075 0.503628 0.3744835 0.5040157 0.5023075 0.503628 0.5025077 0.5028999 0.3743312 0.5034195 0.5025077 0.5028999 0.5027303 0.5021811 0.3741617 0.5028605 0.5027303 0.5021811 0.5016289 0.4949458 0.3737543 0.4982895 0.5016289 0.4949458 0.5016289 0.493958 0.3735109 0.4976447 0.5016289 0.493958 0.5016289 0.4929046 0.3732513 0.4969836 0.5016289 0.4929046 0.5016289 0.4917926 0.3729772 0.4963105 0.5016289 0.4917926 0.5016289 0.4906297 0.3726906 0.49563 0.5016289 0.4906297 0.5016289 0.4894238 0.3723934 0.4949468 0.5016289 0.4894238 0.5016289 0.4881832 0.3720876 0.4942656 0.5016289 0.4881832 0.5016289 0.4869163 0.3717753 0.493591 0.5016289 0.4869163 0.5016289 0.4856318 0.3714588 0.4929277 0.5016289 0.4856318 0.5016289 0.4843385 0.375 0.4884201 0.5016289 0.7643682 0.3714588 0.7570724 0.375 0.7615799 0.5016289 0.7630837 0.3717753 0.7564091 0.3714588 0.7570724 0.5016289 0.7618168 0.3720876 0.7557345 0.3717753 0.7564091 0.5016289 0.7605762 0.3723934 0.7550532 0.3720876 0.7557345 0.5016289 0.7593703 0.3726906 0.7543701 0.3723934 0.7550532 0.5016289 0.7582074 0.3729772 0.7536895 0.3726906 0.7543701 0.5016289 0.7570955 0.3732513 0.7530165 0.3729772 0.7536895 0.5016289 0.756042 0.3735109 0.7523553 0.3732513 0.7530165 0.5016289 0.7550542 0.3737543 0.7517105 0.3735109 0.7523553 0.5027303 0.747819 0.3741617 0.7471396 0.3737543 0.7517105 0.5025077 0.7471001 0.3743311 0.7465806 0.3741617 0.7471396 0.5023075 0.7463721 0.3744835 0.7459843 0.3743311 0.7465806 0.5021312 0.7456344 0.3746176 0.745355 0.3744835 0.7459843 0.50198 0.7448881 0.3747328 0.7446968 0.3746176 0.745355 0.5018548 0.7441355 0.3748282 0.7440145 0.3747328 0.7446968 0.5017564 0.7433798 0.3749029 0.7433123 0.3748282 0.7440145 0.5016857 0.7426251 0.3749567 0.7425953 0.3749029 0.7433123 0.5016432 0.7418758 0.3749892 0.7418684 0.3749567 0.7425953 0.5016289 0.7411363 0.375 0.7411364 0.3749892 0.7418684 0.625 0.8497893 0.6249879 0.8511386 0.5016731 0.008375704 0.6249879 0.8511386 0.6249513 0.8523433 0.501805 0.008384048 0.6249513 0.8523433 0.6248909 0.853394 0.5020241 0.008902013 0.6248909 0.853394 0.6248068 0.8542806 0.5023286 0.009952008 0.6248068 0.8542806 0.6246996 0.8549937 0.5027166 0.01156944 0.6246996 0.8549937 0.6245701 0.8555223 0.5031853 0.01380562 0.6245701 0.8555223 0.6244192 0.8558531 0.5037316 0.01671838 0.6244192 0.8558531 0.6242479 0.8559695 0.5043518 0.02034568 0.6242479 0.8559695 0.6240574 0.8558496 0.5050415 0.02467536 0.6240574 0.8558496 0.6238489 0.8588562 0.5057963 0.029284 0.6196702 0.8669453 0.6186286 0.8669453 0.5016289 0.9931473 0.6186286 0.8669453 0.6175177 0.8669453 0.5016289 0.9919525 0.6175177 0.8669453 0.6163451 0.8669453 0.5016289 0.9906913 0.6163451 0.8669453 0.6151188 0.8669453 0.5016289 0.9893724 0.6151188 0.8669453 0.6138472 0.8669453 0.5016289 0.9880046 0.6138472 0.8669453 0.6125389 0.8669453 0.5016289 0.9865975 0.6125389 0.8669453 0.611203 0.8669453 0.5016289 0.9851607 0.611203 0.8669453 0.6098484 0.8669453 0.5016289 0.9837039 0.6098484 0.8669453 0.6084846 0.8669453 0.5016289 0.982237 0.6098484 0.3830547 0.5016289 0.2662962 0.5016289 0.267763 0.611203 0.3830547 0.5016289 0.2648393 0.5016289 0.2662962 0.6125389 0.3830547 0.5016289 0.2634024 0.5016289 0.2648393 0.6138471 0.3830547 0.5016289 0.2619954 0.5016289 0.2634024 0.6151188 0.3830547 0.5016289 0.2606277 0.5016289 0.2619954 0.6163451 0.3830547 0.5016289 0.2593088 0.5016289 0.2606277 0.6175177 0.3830547 0.5016289 0.2580475 0.5016289 0.2593088 0.6186286 0.3830547 0.5016289 0.2568528 0.5016289 0.2580475 0.6196702 0.3830547 0.5016289 0.2557324 0.5016289 0.2568528 0.6233107 0.3884318 0.5050415 0.2529858 0.5016289 0.2557324 0.6236521 0.3894743 0.5043517 0.2517246 0.5050415 0.2529858 0.6239591 0.3906307 0.5037316 0.250325 0.5043517 0.2517246 0.6242296 0.391876 0.5031853 0.2488095 0.5037316 0.250325 0.6244615 0.3931884 0.5027166 0.2472463 0.5031853 0.2488095 0.6246536 0.39455 0.5023286 0.2457192 0.5027166 0.2472463 0.6248044 0.3959458 0.5020241 0.2443007 0.5023286 0.2457192 0.6249128 0.3973624 0.5018051 0.2430434 0.5020241 0.2443007 0.6249782 0.3987877 0.501673 0.2419817 0.5018051 0.2430434 0.625 0.4002108 0.5016289 0.2411363 0.501673 0.2419817 0.5016289 0.7411364 0.5016432 0.7418758 0.6249685 0.8511873 0.5016432 0.7418758 0.5016857 0.7426251 0.6248743 0.8525377 0.5016857 0.7426251 0.5017564 0.7433798 0.6247178 0.8538298 0.5017564 0.7433798 0.5018548 0.7441355 0.6245005 0.8550527 0.5018548 0.7441355 0.50198 0.7448881 0.6242236 0.8561943 0.50198 0.7448881 0.5021312 0.7456344 0.623889 0.8572411 0.5021312 0.7456344 0.5023075 0.7463721 0.623499 0.8581776 0.5023075 0.7463721 0.5025077 0.7471001 0.6230563 0.8589854 0.5025077 0.7471001 0.5027303 0.747819 0.6225639 0.859646 0.5027303 0.747819 0.5016289 0.7550542 0.6196702 0.8669453 0.5016289 0.7550542 0.5016289 0.756042 0.6186286 0.8669453 0.5016289 0.756042 0.5016289 0.7570955 0.6175177 0.8669453 0.5016289 0.7570955 0.5016289 0.7582074 0.6163451 0.8669453 0.5016289 0.7582074 0.5016289 0.7593703 0.6151188 0.8669453 0.5016289 0.7593703 0.5016289 0.7605762 0.6138471 0.8669453 0.5016289 0.7605762 0.5016289 0.7618168 0.6125389 0.8669453 0.5016289 0.7618168 0.5016289 0.7630837 0.611203 0.8669453 0.5016289 0.7630837 0.5016289 0.7643682 0.6098484 0.8669453 0.5016289 0.7643682 0.5016289 0.7656615 0.6084846 0.8669453 0.5016289 0.4856318 0.6098484 0.3830547 0.6084846 0.3830547 0.5016289 0.4869163 0.611203 0.3830547 0.6098484 0.3830547 0.5016289 0.4881832 0.6125389 0.3830547 0.611203 0.3830547 0.5016289 0.4894238 0.6138471 0.3830547 0.6125389 0.3830547 0.5016289 0.4906297 0.6151188 0.3830547 0.6138471 0.3830547 0.5016289 0.4917926 0.6163451 0.3830547 0.6151188 0.3830547 0.5016289 0.4929046 0.6175177 0.3830547 0.6163451 0.3830547 0.5016289 0.493958 0.6186286 0.3830547 0.6175177 0.3830547 0.5016289 0.4949458 0.6196702 0.3830547 0.6186286 0.3830547 0.5027303 0.5021811 0.6233107 0.3884318 0.6196702 0.3830547 0.5025077 0.5028999 0.6236521 0.3894743 0.6233107 0.3884318 0.5023075 0.503628 0.6239591 0.3906307 0.6236521 0.3894743 0.5021312 0.5043656 0.6242296 0.391876 0.6239591 0.3906307 0.50198 0.5051119 0.6244615 0.3931884 0.6242296 0.391876 0.5018547 0.5058645 0.6246536 0.39455 0.6244615 0.3931884 0.5017564 0.5066202 0.6248044 0.3959458 0.6246536 0.39455 0.5016857 0.5073749 0.6249128 0.3973624 0.6248044 0.3959458 0.5016432 0.5081242 0.6249782 0.3987877 0.6249128 0.3973624 0.5016289 0.5088636 0.625 0.4002108 0.6249782 0.3987877 0.375 0.7411364 0.5016289 0.7411363 0.5016289 0.6704864 0.375 0.5088636 0.375 0.5998364 0.5016289 0.5998364 0.625 0.5762943 0.5016289 0.1501635 0.5016289 0.2411363 0.625 0.5762943 0.5016289 0.5998364 0.5016289 0.6704864 0.625 0.7130418 0.5016289 0.6704864 0.5016289 0.7411364 0.375 0.6704864 0.5016289 0.6704864 0.5016289 0.5998364 0.625 0.7130418 0.501629 0.0795136 0.5016289 0.1501635</float_array>
          <technique_common>
            <accessor source="#Cube_043-mesh-map-0-array" count="1044" stride="2">
              <param name="S" type="float"/>
              <param name="T" type="float"/>
            </accessor>
          </technique_common>
        </source>
        <vertices id="Cube_043-mesh-vertices">
          <input semantic="POSITION" source="#Cube_043-mesh-positions"/>
        </vertices>
        <triangles material="Material_006-material" count="210">
          <input semantic="VERTEX" source="#Cube_043-mesh-vertices" offset="0"/>
          <input semantic="NORMAL" source="#Cube_043-mesh-normals" offset="1"/>
          <input semantic="TEXCOORD" source="#Cube_043-mesh-map-0" offset="2" set="0"/>
          <p>46 0 0 169 0 1 170 0 2 2 2 6 128 2 7 5 2 8 0 3 9 2 3 10 1 3 11 149 5 15 4 5 16 66 5 17 24 3 18 23 3 19 6 3 20 3 6 24 149 6 25 7 6 26 5 2 36 128 2 37 47 2 38 129 47 153 45 47 154 27 47 155 147 48 156 44 48 157 45 48 158 146 49 159 43 49 160 44 49 161 145 50 162 42 50 163 43 50 164 144 51 165 41 51 166 42 51 167 143 52 168 40 52 169 41 52 170 142 53 171 39 53 172 40 53 173 141 54 174 38 54 175 39 54 176 140 55 177 37 55 178 38 55 179 139 56 180 36 56 181 37 56 182 138 57 183 35 57 184 36 57 185 137 58 186 34 58 187 35 58 188 136 59 189 33 59 190 34 59 191 135 60 192 32 60 193 33 60 194 134 61 195 31 61 196 32 61 197 133 62 198 30 62 199 31 62 200 132 63 201 29 63 202 30 63 203 131 64 204 28 64 205 29 64 206 130 65 207 26 65 208 28 65 209 167 66 210 7 66 211 149 66 212 166 67 213 25 67 214 167 67 215 165 68 216 24 68 217 166 68 218 164 69 219 23 69 220 165 69 221 163 70 222 22 70 223 164 70 224 162 71 225 21 71 226 163 71 227 161 72 228 20 72 229 162 72 230 160 73 231 19 73 232 161 73 233 159 74 234 18 74 235 160 74 236 158 75 237 17 75 238 159 75 239 157 76 240 16 76 241 158 76 242 156 77 243 15 77 244 157 77 245 155 78 246 14 78 247 156 78 248 154 79 249 13 79 250 155 79 251 153 80 252 12 80 253 154 80 254 152 81 255 11 81 256 153 81 257 151 82 258 10 82 259 152 82 260 150 83 261 9 83 262 151 83 263 148 84 264 8 84 265 150 84 266 148 123 381 85 123 382 67 123 383 150 124 384 84 124 385 85 124 386 151 125 387 83 125 388 84 125 389 152 126 390 82 126 391 83 126 392 153 127 393 81 127 394 82 127 395 154 128 396 80 128 397 81 128 398 155 129 399 79 129 400 80 129 401 156 130 402 78 130 403 79 130 404 157 131 405 77 131 406 78 131 407 158 132 408 76 132 409 77 132 410 159 133 411 75 133 412 76 133 413 160 134 414 74 134 415 75 134 416 161 135 417 73 135 418 74 135 419 162 136 420 72 136 421 73 136 422 163 137 423 71 137 424 72 137 425 164 138 426 70 138 427 71 138 428 165 139 429 69 139 430 70 139 431 166 140 432 68 140 433 69 140 434 167 141 435 66 141 436 68 141 437 130 142 438 47 142 439 128 142 440 131 143 441 65 143 442 130 143 443 132 144 444 64 144 445 131 144 446 133 145 447 63 145 448 132 145 449 134 146 450 62 146 451 133 146 452 135 147 453 61 147 454 134 147 455 136 148 456 60 148 457 135 148 458 137 149 459 59 149 460 136 149 461 138 150 462 58 150 463 137 150 464 139 151 465 57 151 466 138 151 467 140 152 468 56 152 469 139 152 470 141 153 471 55 153 472 140 153 473 142 154 474 54 154 475 141 154 476 143 155 477 53 155 478 142 155 479 144 156 480 52 156 481 143 156 482 145 157 483 51 157 484 144 157 485 146 158 486 50 158 487 145 158 488 147 159 489 49 159 490 146 159 491 129 160 492 48 160 493 147 160 494 6 161 495 172 161 496 174 161 497 27 162 498 169 162 499 129 162 500 175 164 507 148 164 508 67 164 509 46 0 516 129 0 517 169 0 518 2 171 534 26 171 535 128 171 536 0 3 537 3 3 538 2 3 539 26 3 540 2 3 541 168 3 542 2 3 543 3 3 544 174 3 545 168 3 546 2 3 547 174 3 548 7 3 549 25 3 550 6 3 551 25 3 552 24 3 553 6 3 554 3 3 555 7 3 556 174 3 557 29 3 558 28 3 559 27 3 560 28 3 561 26 3 562 27 3 563 31 3 564 30 3 565 27 3 566 30 3 567 29 3 568 27 3 569 33 3 570 32 3 571 27 3 572 32 3 573 31 3 574 27 3 575 35 3 576 34 3 577 27 3 578 34 3 579 33 3 580 27 3 581 37 3 582 36 3 583 27 3 584 36 3 585 35 3 586 27 3 587 39 3 588 38 3 589 27 3 590 38 3 591 37 3 592 27 3 593 41 3 594 40 3 595 27 3 596 40 3 597 39 3 598 27 3 599 43 3 600 42 3 601 27 3 602 42 3 603 41 3 604 27 3 605 45 3 606 44 3 607 43 3 608 168 3 609 27 3 610 26 3 611 27 3 612 45 3 613 43 3 614 6 3 615 174 3 616 7 3 617 6 3 618 23 3 619 22 3 620 9 3 621 8 3 622 6 3 623 11 3 624 10 3 625 6 3 626 10 3 627 9 3 628 6 3 629 13 3 630 12 3 631 6 3 632 12 3 633 11 3 634 6 3 635 15 3 636 14 3 637 6 3 638 14 3 639 13 3 640 6 3 641 17 3 642 16 3 643 6 3 644 16 3 645 15 3 646 6 3 647 19 3 648 18 3 649 6 3 650 18 3 651 17 3 652 6 3 653 21 3 654 20 3 655 6 3 656 20 3 657 19 3 658 6 3 659 22 3 660 21 3 661 6 3 662 3 4 669 4 4 670 149 4 671 129 173 681 147 173 682 45 173 683 147 174 684 146 174 685 44 174 686 146 175 687 145 175 688 43 175 689 145 176 690 144 176 691 42 176 692 144 177 693 143 177 694 41 177 695 143 178 696 142 178 697 40 178 698 142 179 699 141 179 700 39 179 701 141 180 702 140 180 703 38 180 704 140 181 705 139 181 706 37 181 707 139 182 708 138 182 709 36 182 710 138 183 711 137 183 712 35 183 713 137 184 714 136 184 715 34 184 716 136 185 717 135 185 718 33 185 719 135 186 720 134 186 721 32 186 722 134 187 723 133 187 724 31 187 725 133 188 726 132 188 727 30 188 728 132 189 729 131 189 730 29 189 731 131 190 732 130 190 733 28 190 734 130 191 735 128 191 736 26 191 737 167 192 738 25 192 739 7 192 740 166 193 741 24 193 742 25 193 743 165 194 744 23 194 745 24 194 746 164 195 747 22 195 748 23 195 749 163 196 750 21 196 751 22 196 752 162 197 753 20 197 754 21 197 755 161 198 756 19 198 757 20 198 758 160 199 759 18 199 760 19 199 761 159 200 762 17 200 763 18 200 764 158 201 765 16 201 766 17 201 767 157 202 768 15 202 769 16 202 770 156 203 771 14 203 772 15 203 773 155 204 774 13 204 775 14 204 776 154 205 777 12 205 778 13 205 779 153 206 780 11 206 781 12 206 782 152 207 783 10 207 784 11 207 785 151 208 786 9 208 787 10 208 788 150 209 789 8 209 790 9 209 791 148 210 792 6 210 793 8 210 794 148 249 909 150 249 910 85 249 911 150 250 912 151 250 913 84 250 914 151 251 915 152 251 916 83 251 917 152 252 918 153 252 919 82 252 920 153 253 921 154 253 922 81 253 923 154 254 924 155 254 925 80 254 926 155 255 927 156 255 928 79 255 929 156 256 930 157 256 931 78 256 932 157 257 933 158 257 934 77 257 935 158 258 936 159 258 937 76 258 938 159 259 939 160 259 940 75 259 941 160 260 942 161 260 943 74 260 944 161 261 945 162 261 946 73 261 947 162 262 948 163 262 949 72 262 950 163 263 951 164 263 952 71 263 953 164 264 954 165 264 955 70 264 956 165 265 957 166 265 958 69 265 959 166 266 960 167 266 961 68 266 962 167 267 963 149 267 964 66 267 965 130 268 966 65 268 967 47 268 968 131 269 969 64 269 970 65 269 971 132 270 972 63 270 973 64 270 974 133 271 975 62 271 976 63 271 977 134 272 978 61 272 979 62 272 980 135 273 981 60 273 982 61 273 983 136 274 984 59 274 985 60 274 986 137 275 987 58 275 988 59 275 989 138 276 990 57 276 991 58 276 992 139 277 993 56 277 994 57 277 995 140 278 996 55 278 997 56 278 998 141 279 999 54 279 1000 55 279 1001 142 280 1002 53 280 1003 54 280 1004 143 281 1005 52 281 1006 53 281 1007 144 282 1008 51 282 1009 52 282 1010 145 283 1011 50 283 1012 51 283 1013 146 284 1014 49 284 1015 50 284 1016 147 285 1017 48 285 1018 49 285 1019 129 286 1020 46 286 1021 48 286 1022 6 161 1023 148 161 1024 172 161 1025 27 287 1026 168 287 1027 169 287 1028 175 289 1035 172 289 1036 148 289 1037</p>
        </triangles>
        <triangles material="Material_004-material" count="138">
          <input semantic="VERTEX" source="#Cube_043-mesh-vertices" offset="0"/>
          <input semantic="NORMAL" source="#Cube_043-mesh-normals" offset="1"/>
          <input semantic="TEXCOORD" source="#Cube_043-mesh-map-0" offset="2" set="0"/>
          <p>173 1 3 87 1 4 88 1 5 4 4 12 86 4 13 66 4 14 2 2 21 5 2 22 108 2 23 175 7 27 87 7 28 173 7 29 0 4 30 88 4 31 86 4 32 108 8 33 5 8 34 47 8 35 86 9 39 88 9 40 89 9 41 89 10 42 88 10 43 90 10 44 90 11 45 88 11 46 91 11 47 91 12 48 88 12 49 92 12 50 92 13 51 88 13 52 93 13 53 93 14 54 88 14 55 94 14 56 94 15 57 88 15 58 95 15 59 95 16 60 88 16 61 96 16 62 96 17 63 88 17 64 97 17 65 97 18 66 88 18 67 98 18 68 98 19 69 88 19 70 99 19 71 99 20 72 88 20 73 100 20 74 100 21 75 88 21 76 101 21 77 101 22 78 88 22 79 102 22 80 102 23 81 88 23 82 103 23 83 103 24 84 88 24 85 104 24 86 104 25 87 88 25 88 105 25 89 105 26 90 88 26 91 106 26 92 106 27 93 88 27 94 87 27 95 107 28 96 109 28 97 110 28 98 110 29 99 109 29 100 111 29 101 111 30 102 109 30 103 112 30 104 112 31 105 109 31 106 113 31 107 113 32 108 109 32 109 114 32 110 114 33 111 109 33 112 115 33 113 115 34 114 109 34 115 116 34 116 116 35 117 109 35 118 117 35 119 117 36 120 109 36 121 118 36 122 118 37 123 109 37 124 119 37 125 119 38 126 109 38 127 120 38 128 120 39 129 109 39 130 121 39 131 121 40 132 109 40 133 122 40 134 122 41 135 109 41 136 123 41 137 123 42 138 109 42 139 124 42 140 124 43 141 109 43 142 125 43 143 125 44 144 109 44 145 126 44 146 126 45 147 109 45 148 127 45 149 127 46 150 109 46 151 108 46 152 67 85 267 106 85 268 87 85 269 85 86 270 105 86 271 106 86 272 84 87 273 104 87 274 105 87 275 83 88 276 103 88 277 104 88 278 82 89 279 102 89 280 103 89 281 81 90 282 101 90 283 102 90 284 80 91 285 100 91 286 101 91 287 79 92 288 99 92 289 100 92 290 78 93 291 98 93 292 99 93 293 77 94 294 97 94 295 98 94 296 76 95 297 96 95 298 97 95 299 75 96 300 95 96 301 96 96 302 74 97 303 94 97 304 95 97 305 73 98 306 93 98 307 94 98 308 72 99 309 92 99 310 93 99 311 71 100 312 91 100 313 92 100 314 70 101 315 90 101 316 91 101 317 69 102 318 89 102 319 90 102 320 68 103 321 86 103 322 89 103 323 65 104 324 108 104 325 47 104 326 64 105 327 127 105 328 65 105 329 63 106 330 126 106 331 64 106 332 62 107 333 125 107 334 63 107 335 61 108 336 124 108 337 62 108 338 60 109 339 123 109 340 61 109 341 59 110 342 122 110 343 60 110 344 58 111 345 121 111 346 59 111 347 57 112 348 120 112 349 58 112 350 56 113 351 119 113 352 57 113 353 55 114 354 118 114 355 56 114 356 54 115 357 117 115 358 55 115 359 53 116 360 116 116 361 54 116 362 52 117 363 115 117 364 53 117 365 51 118 366 114 118 367 52 118 368 50 119 369 113 119 370 51 119 371 49 120 372 112 120 373 50 120 374 48 121 375 111 121 376 49 121 377 46 122 378 110 122 379 48 122 380 170 163 501 107 163 502 46 163 503 170 164 504 172 164 505 175 164 506 174 165 510 169 165 511 168 165 512 175 166 513 171 166 514 170 166 515 88 167 519 0 167 520 173 167 521 0 168 522 1 168 523 171 168 524 173 169 525 0 169 526 171 169 527 1 170 528 109 170 529 171 170 530 109 1 531 107 1 532 171 1 533 109 2 663 1 2 664 108 2 665 1 2 666 2 2 667 108 2 668 175 163 672 67 163 673 87 163 674 4 4 675 3 4 676 86 4 677 3 172 678 0 172 679 86 172 680 67 211 795 85 211 796 106 211 797 85 212 798 84 212 799 105 212 800 84 213 801 83 213 802 104 213 803 83 214 804 82 214 805 103 214 806 82 215 807 81 215 808 102 215 809 81 216 810 80 216 811 101 216 812 80 217 813 79 217 814 100 217 815 79 218 816 78 218 817 99 218 818 78 219 819 77 219 820 98 219 821 77 220 822 76 220 823 97 220 824 76 221 825 75 221 826 96 221 827 75 222 828 74 222 829 95 222 830 74 223 831 73 223 832 94 223 833 73 224 834 72 224 835 93 224 836 72 225 837 71 225 838 92 225 839 71 226 840 70 226 841 91 226 842 70 227 843 69 227 844 90 227 845 69 228 846 68 228 847 89 228 848 68 229 849 66 229 850 86 229 851 65 230 852 127 230 853 108 230 854 64 231 855 126 231 856 127 231 857 63 232 858 125 232 859 126 232 860 62 233 861 124 233 862 125 233 863 61 234 864 123 234 865 124 234 866 60 235 867 122 235 868 123 235 869 59 236 870 121 236 871 122 236 872 58 237 873 120 237 874 121 237 875 57 238 876 119 238 877 120 238 878 56 239 879 118 239 880 119 239 881 55 240 882 117 240 883 118 240 884 54 241 885 116 241 886 117 241 887 53 242 888 115 242 889 116 242 890 52 243 891 114 243 892 115 243 893 51 244 894 113 244 895 114 244 896 50 245 897 112 245 898 113 245 899 49 246 900 111 246 901 112 246 902 48 247 903 110 247 904 111 247 905 46 248 906 107 248 907 110 248 908 170 288 1029 171 288 1030 107 288 1031 170 289 1032 169 289 1033 172 289 1034 174 290 1038 172 290 1039 169 290 1040 175 291 1041 173 291 1042 171 291 1043</p>
        </triangles>
      </mesh>
    </geometry>
  </library_geometries>
  <library_visual_scenes>
    <visual_scene id="Scene" name="Scene">
      <node id="Cube_026" name="Cube.026" type="NODE">
        <matrix sid="transform">-0.341 0 0 0 0 0 -0.4485276 -0.541 0 0.4655 0 0 0 0 0 1</matrix>
        <instance_geometry url="#Cube_043-mesh" name="Cube.026">
          <bind_material>
            <technique_common>
              <instance_material symbol="Material_006-material" target="#Material_006-material">
                <bind_vertex_input semantic="UVMap" input_semantic="TEXCOORD" input_set="0"/>
              </instance_material>
              <instance_material symbol="Material_004-material" target="#Material_004-material">
                <bind_vertex_input semantic="UVMap" input_semantic="TEXCOORD" input_set="0"/>
              </instance_material>
            </technique_common>
          </bind_material>
        </instance_geometry>
      </node>
    </visual_scene>
  </library_visual_scenes>
  <scene>
    <instance_visual_scene url="#Scene"/>
  </scene>
</COLLADA>