<?xml version="1.0" encoding="utf-8"?>
<COLLADA xmlns="http://www.collada.org/2005/11/COLLADASchema" version="1.4.1" xmlns:xsi="http://www.w3.org/2001/XMLSchema-instance">
  <asset>
    <contributor>
      <author>Blender User</author>
      <authoring_tool>Blender 2.83.20 commit date:2022-04-19, commit time:16:00, hash:a56e2faeb7a9</authoring_tool>
    </contributor>
    <created>2026-06-23T13:45:50</created>
    <modified>2026-06-23T13:45:50</modified>
    <unit name="meter" meter="1"/>
    <up_axis>Z_UP</up_axis>
  </asset>
  <library_effects>
    <effect id="Material_004-effect">
      <profile_COMMON>
        <technique sid="common">
          <lambert>
            <emission>
              <color sid="emission">0 0 0 1</color>
            </emission>
            <diffuse>
              <color sid="diffuse">0 0 0 1</color>
            </diffuse>
            <index_of_refraction>
              <float sid="ior">1.45</float>
            </index_of_refraction>
          </lambert>
        </technique>
      </profile_COMMON>
    </effect>
  </library_effects>
  <library_images/>
  <library_materials>
    <material id="Material_004-material" name="Material.004">
      <instance_effect url="#Material_004-effect"/>
    </material>
  </library_materials>
  <library_geometries>
    <geometry id="Cube_053-mesh" name="Cube.053">
      <mesh>
        <source id="Cube_053-mesh-positions">
          <float_array id="Cube_053-mesh-positions-array" count="252">-1 -1 1 -1 1 1 0.7327111 -1 1 0.9984836 -0.7342275 1 0.7546585 -0.9990922 1 0.7764558 -0.9963752 1 0.7979544 -0.9918674 1 0.8190073 -0.9855998 1 0.8394708 -0.9776149 1 0.8592048 -0.9679675 1 0.8780749 -0.9567233 1 0.8959519 -0.9439594 1 0.912714 -0.9297627 1 0.9282463 -0.9142304 1 0.942443 -0.8974683 1 0.9552069 -0.8795913 1 0.9664511 -0.8607212 1 0.9760985 -0.8409872 1 0.9840834 -0.8205237 1 0.990351 -0.7994709 1 0.9948588 -0.7779722 1 0.9975758 -0.7561749 1 0.9984836 0.7342275 1 0.7327111 1 1 0.9975758 0.7561749 1 0.9948588 0.7779722 1 0.990351 0.7994709 1 0.9840834 0.8205237 1 0.9760985 0.8409872 1 0.9664511 0.8607212 1 0.9552069 0.8795913 1 0.942443 0.8974683 1 0.9282463 0.9142304 1 0.912714 0.9297627 1 0.8959519 0.9439594 1 0.8780749 0.9567233 1 0.8592048 0.9679675 1 0.8394708 0.9776149 1 0.8190073 0.9855998 1 0.7979544 0.9918674 1 0.7764558 0.9963752 1 0.7546585 0.9990922 1 -0.9422651 -0.9422651 0.9422651 -0.9422651 0.9422651 0.9422651 0.7312432 -0.9288461 0.9297525 0.9273297 -0.7327596 0.9297525 0.7487471 -0.9277216 0.9302103 0.7646696 -0.9257371 0.9302103 0.7803758 -0.9224439 0.9302103 0.7957553 -0.917864 0.9302103 0.810704 -0.9120306 0.9302103 0.8251218 -0.9049834 0.9302103 0.8389044 -0.8967697 0.9302103 0.8519656 -0.8874452 0.9302103 0.8642109 -0.8770725 0.9302103 0.8755561 -0.8657273 0.9302103 0.8859288 -0.853482 0.9302103 0.8952533 -0.8404208 0.9302103 0.9034669 -0.8266382 0.9302103 0.9105142 -0.8122204 0.9302103 0.9163475 -0.7972717 0.9302103 0.9209275 -0.7818922 0.9302103 0.9242207 -0.766186 0.9302103 0.9262052 -0.7502635 0.9302103 0.9273297 0.7327596 0.9297525 0.7312432 0.9288461 0.9297525 0.9262052 0.7502635 0.9302103 0.9242207 0.766186 0.9302103 0.9209275 0.7818922 0.9302103 0.9163475 0.7972717 0.9302103 0.9105142 0.8122204 0.9302103 0.9034669 0.8266382 0.9302103 0.8952533 0.8404208 0.9302103 0.8859288 0.853482 0.9302103 0.8755561 0.8657273 0.9302103 0.8642109 0.8770725 0.9302103 0.8519656 0.8874452 0.9302103 0.8389044 0.8967697 0.9302103 0.8251218 0.9049834 0.9302103 0.810704 0.9120306 0.9302103 0.7957553 0.917864 0.9302103 0.7803758 0.9224439 0.9302103 0.7646696 0.9257371 0.9302103 0.7487471 0.9277216 0.9302103</float_array>
          <technique_common>
            <accessor source="#Cube_053-mesh-positions-array" count="84" stride="3">
              <param name="X" type="float"/>
              <param name="Y" type="float"/>
              <param name="Z" type="float"/>
            </accessor>
          </technique_common>
        </source>
        <source id="Cube_053-mesh-normals">
          <float_array id="Cube_053-mesh-normals-array" count="312">0 0 1 0 0 -1 0 -0.7071071 -0.7071065 0 0.7071068 -0.7071069 0.4512996 0.5327779 -0.7158747 0.7025601 0 -0.7116245 0.5327774 -0.4513052 -0.7158714 0.02792686 0.02792942 -0.9992198 -8.29661e-7 0 -1 0.02792686 -0.02792942 -0.9992198 1.20492e-5 0 -1 0.02792799 -0.02792912 -0.9992197 8.75006e-5 0 -1 8.76808e-5 0 -1 8.74432e-5 0 -1 -1.46224e-5 0 -1 -0.007476627 0 -0.9999721 -0.007476687 0 -0.9999721 0.02792799 0.02792912 -0.9992197 -8.74661e-5 0 -1 2.45443e-7 0 -1 1.10038e-5 0 -1 -1.17639e-6 0 -1 -9.17557e-6 0 -1 6.3732e-6 0 -1 -0.7071071 0 -0.7071064 -0.7071056 0 -0.707108 3.12701e-4 -0.7025567 -0.7116277 3.12679e-4 0.7025569 -0.7116277 0.7004736 0.06359887 -0.710839 0.6976298 0.02885115 -0.7158773 0.6928641 0.08635085 -0.7158791 0.692867 0.0863707 -0.7158739 0.6691961 0.1992289 -0.7158803 0.68337 0.1432859 -0.7158733 0.6504586 0.2538194 -0.7158766 0.6272813 0.3066619 -0.7158748 0.6504557 0.2538148 -0.715881 0.568252 0.4057246 -0.7158752 0.5998142 0.3574069 -0.7158793 0.4937184 0.4937184 -0.7158801 0.5328029 0.4512602 -0.7158809 0.4057254 0.5682497 -0.7158766 0.4512587 0.5328028 -0.715882 0.4937243 0.4937196 -0.7158752 0.3066582 0.627284 -0.7158741 0.3574116 0.5998124 -0.7158786 0.4056968 0.5682746 -0.715873 0.1992225 0.6691981 -0.7158801 0.2538157 0.6504545 -0.7158817 0.3066168 0.6272982 -0.7158793 0.08636409 0.6928644 -0.7158772 0.1432853 0.6833713 -0.7158722 0.1992892 0.6691858 -0.7158731 0.06359899 0.7004721 -0.7108405 0.02885794 0.6976299 -0.7158769 0.5682728 0.4056954 -0.7158752 0.5327774 0.4513052 -0.7158714 0.5997968 0.3574459 -0.7158745 0.6272989 0.3066089 -0.7158821 0.6833677 0.1432879 -0.7158752 0.08635115 0.6928673 -0.7158761 0.1432881 0.6833686 -0.7158742 0.6691886 0.1992794 -0.7158732 0.2538179 0.6504594 -0.7158765 0.3574481 0.5997933 -0.7158764 0.7025606 0 -0.711624 0.06359702 -0.7004731 -0.7108396 0.02885794 -0.6976299 -0.7158769 0.08635115 -0.6928676 -0.7158758 0.08636409 -0.6928644 -0.7158772 0.1992225 -0.6691979 -0.7158803 0.1432853 -0.6833713 -0.7158722 0.2538214 -0.6504582 -0.7158763 0.3066611 -0.627283 -0.7158737 0.2538157 -0.6504545 -0.7158817 0.4057254 -0.5682497 -0.7158766 0.3574112 -0.5998117 -0.7158794 0.49372 -0.4937234 -0.7158756 0.4512591 -0.5328034 -0.7158811 0.568252 -0.4057246 -0.7158752 0.5328041 -0.4512597 -0.7158802 0.4937222 -0.4937129 -0.7158814 0.6272813 -0.3066619 -0.7158748 0.5998153 -0.3574065 -0.7158786 0.5682731 -0.4056974 -0.715874 0.6691964 -0.1992288 -0.71588 0.6504557 -0.2538148 -0.715881 0.6272981 -0.3066086 -0.7158829 0.692867 -0.0863707 -0.7158739 0.6833704 -0.1432859 -0.715873 0.6691886 -0.1992794 -0.7158732 0.7004742 -0.06359899 -0.7108384 0.6976298 -0.02885115 -0.7158773 0.4056929 -0.5682758 -0.7158743 0.4512996 -0.5327779 -0.7158747 0.3574471 -0.5997947 -0.7158756 0.3066131 -0.627299 -0.7158802 0.1432887 -0.6833686 -0.7158741 0.6928641 -0.08635085 -0.7158791 0.6833686 -0.1432881 -0.7158742 0.1992892 -0.6691858 -0.7158731 0.6504578 -0.2538191 -0.7158775 0.5997943 -0.3574458 -0.7158766</float_array>
          <technique_common>
            <accessor source="#Cube_053-mesh-normals-array" count="104" stride="3">
              <param name="X" type="float"/>
              <param name="Y" type="float"/>
              <param name="Z" type="float"/>
            </accessor>
          </technique_common>
        </source>
        <source id="Cube_053-mesh-map-0">
          <float_array id="Cube_053-mesh-map-0-array" count="984">0.6253389 0.5250661 0.6292722 0.4937908 0.6582216 0.5 0.6316255 0.7623184 0.6351594 0.770281 0.625151 0.7222465 0.875 0.75 0.6582216 0.75 0.875 0.75 0.6582216 0.5 0.875 0.5 0.875 0.5 0.6292722 0.4937908 0.6285738 0.4957791 0.6292722 0.4937908 0.625 0.7167784 0.625 0.5332216 0.625 0.7167784 0.6273351 0.7371836 0.6279266 0.7392788 0.6273351 0.7371836 0.625 0.7167784 0.625 0.5332216 0.6582216 0.5 0.625 0.5332216 0.6250379 0.5304781 0.6582216 0.5 0.6250379 0.5304781 0.625151 0.5277535 0.6253389 0.5250661 0.6253389 0.5250661 0.6256 0.5224346 0.6259328 0.5198766 0.6259328 0.5198766 0.6263347 0.5174099 0.6253389 0.5250661 0.6263347 0.5174099 0.6268032 0.5150511 0.6253389 0.5250661 0.6268032 0.5150511 0.6273351 0.5128164 0.6292722 0.4937908 0.6273351 0.5128164 0.6279266 0.5107212 0.6292722 0.4937908 0.6279266 0.5107212 0.6285738 0.4957791 0.6292722 0.4937908 0.6292722 0.4937908 0.6300171 0.4917691 0.6308033 0.4897282 0.6308033 0.4897282 0.6316256 0.4876817 0.6292722 0.4937908 0.6316256 0.4876817 0.6324782 0.4856436 0.6292722 0.4937908 0.6324782 0.4856436 0.6333554 0.4836281 0.6342512 0.4816488 0.6342512 0.4816488 0.6351594 0.4797191 0.6582216 0.5 0.6582216 0.5 0.875 0.5 0.875 0.75 0.875 0.75 0.6582216 0.75 0.6582216 0.5 0.6582216 0.75 0.6351594 0.770281 0.6263347 0.7325902 0.6582216 0.5 0.6582216 0.75 0.625 0.7167784 0.6351594 0.770281 0.6342512 0.7683513 0.6333554 0.7663719 0.6333554 0.7663719 0.6324782 0.7643563 0.6316255 0.7623184 0.6316255 0.7623184 0.6308033 0.7602719 0.6300171 0.7582309 0.6300171 0.7582309 0.6292722 0.7562093 0.6316255 0.7623184 0.6292722 0.7562093 0.6285738 0.7542209 0.6316255 0.7623184 0.6285738 0.7542209 0.6279266 0.7392788 0.6273351 0.7371836 0.6273351 0.7371836 0.6268032 0.734949 0.6263347 0.7325902 0.6263347 0.7325902 0.6259327 0.7301234 0.6256 0.7275655 0.6256 0.7275655 0.6253389 0.7249339 0.6263347 0.7325902 0.6253389 0.7249339 0.625151 0.7222465 0.6263347 0.7325902 0.625151 0.7222465 0.6250378 0.7195218 0.625 0.7167784 0.6250379 0.5304781 0.6253389 0.5250661 0.6582216 0.5 0.6324782 0.4856436 0.6342512 0.4816488 0.6292722 0.4937908 0.6342512 0.4816488 0.6582216 0.5 0.6292722 0.4937908 0.6351594 0.770281 0.6333554 0.7663719 0.6316255 0.7623184 0.6285738 0.7542209 0.6273351 0.7371836 0.6316255 0.7623184 0.6273351 0.7371836 0.6263347 0.7325902 0.6316255 0.7623184 0.625151 0.7222465 0.625 0.7167784 0.6263347 0.7325902 0.6263347 0.7325902 0.625 0.7167784 0.6582216 0.75 0.6253389 0.5250661 0.6268032 0.5150511 0.6292722 0.4937908 0.6351594 0.770281 0.6316255 0.7623184 0.6263347 0.7325902 0.6250379 0.5304781 0.625 0.5332216 0.6582216 0.5 0.625 0.5332216 0.625 0.7167784 0.6582216 0.5 0.625 0.7167784 0.6250378 0.7195218 0.6582216 0.75 0.6250378 0.7195218 0.625151 0.7222465 0.6351594 0.770281 0.6582216 0.75 0.6250378 0.7195218 0.6351594 0.770281 0.625151 0.7222465 0.6253389 0.7249339 0.6256 0.7275655 0.6256 0.7275655 0.6259327 0.7301234 0.6263347 0.7325902 0.6263347 0.7325902 0.6268032 0.734949 0.6285738 0.7542209 0.6268032 0.734949 0.6273351 0.7371836 0.6285738 0.7542209 0.6273351 0.7371836 0.6279266 0.7392788 0.6285738 0.7542209 0.6285738 0.7542209 0.6292722 0.7562093 0.6300171 0.7582309 0.6300171 0.7582309 0.6308033 0.7602719 0.6316255 0.7623184 0.6316255 0.7623184 0.6324782 0.7643563 0.6351594 0.770281 0.6324782 0.7643563 0.6333554 0.7663719 0.6351594 0.770281 0.6333554 0.7663719 0.6342512 0.7683513 0.6351594 0.770281 0.6582216 0.75 0.875 0.75 0.6582216 0.5 0.875 0.75 0.875 0.5 0.6582216 0.5 0.6582216 0.5 0.6351594 0.4797191 0.6250379 0.5304781 0.6351594 0.4797191 0.6342512 0.4816488 0.6268032 0.5150511 0.6342512 0.4816488 0.6333554 0.4836281 0.6324782 0.4856436 0.6324782 0.4856436 0.6316256 0.4876817 0.6308033 0.4897282 0.6308033 0.4897282 0.6300171 0.4917691 0.6324782 0.4856436 0.6300171 0.4917691 0.6292722 0.4937908 0.6324782 0.4856436 0.6292722 0.4937908 0.6285738 0.4957791 0.6279266 0.5107212 0.6279266 0.5107212 0.6273351 0.5128164 0.6268032 0.5150511 0.6268032 0.5150511 0.6263347 0.5174099 0.6259328 0.5198766 0.6259328 0.5198766 0.6256 0.5224346 0.6268032 0.5150511 0.6256 0.5224346 0.6253389 0.5250661 0.6268032 0.5150511 0.6253389 0.5250661 0.625151 0.5277535 0.6250379 0.5304781 0.6582216 0.5 0.625 0.7167784 0.6582216 0.75 0.625151 0.7222465 0.6256 0.7275655 0.6285738 0.7542209 0.6256 0.7275655 0.6263347 0.7325902 0.6285738 0.7542209 0.6285738 0.7542209 0.6300171 0.7582309 0.6316255 0.7623184 0.6351594 0.4797191 0.6268032 0.5150511 0.6253389 0.5250661 0.6342512 0.4816488 0.6324782 0.4856436 0.6268032 0.5150511 0.6292722 0.4937908 0.6279266 0.5107212 0.6324782 0.4856436 0.6279266 0.5107212 0.6268032 0.5150511 0.6324782 0.4856436 0.6253389 0.5250661 0.6250379 0.5304781 0.6351594 0.4797191 0.6285738 0.7542209 0.6316255 0.7623184 0.625151 0.7222465 0.875 0.75 0.875 0.5 0.875 0.75 0.875 0.5 0.875 0.5 0.875 0.75 0.875 0.75 0.6582216 0.75 0.6582216 0.75 0.6582216 0.5 0.6582216 0.5 0.875 0.5 0.625 0.5332216 0.625 0.5332216 0.6250379 0.5304781 0.625 0.5332216 0.6250379 0.5304781 0.6250379 0.5304781 0.6250379 0.5304781 0.625151 0.5277535 0.6250379 0.5304781 0.625151 0.5277535 0.6250379 0.5304781 0.625151 0.5277535 0.6256 0.5224346 0.6253389 0.5250661 0.6256 0.5224346 0.6253389 0.5250661 0.625151 0.5277535 0.6253389 0.5250661 0.6256 0.5224346 0.6256 0.5224346 0.6259328 0.5198766 0.6263347 0.5174099 0.6259328 0.5198766 0.6263347 0.5174099 0.6259328 0.5198766 0.6256 0.5224346 0.6259328 0.5198766 0.6273351 0.5128164 0.6268032 0.5150511 0.6273351 0.5128164 0.6268032 0.5150511 0.6263347 0.5174099 0.6268032 0.5150511 0.6285738 0.4957791 0.6279266 0.5107212 0.6279266 0.5107212 0.6279266 0.5107212 0.6273351 0.5128164 0.6279266 0.5107212 0.6300171 0.4917691 0.6292722 0.4937908 0.6292722 0.4937908 0.6292722 0.4937908 0.6285738 0.4957791 0.6285738 0.4957791 0.6285738 0.4957791 0.6285738 0.4957791 0.6279266 0.5107212 0.6316256 0.4876817 0.6308033 0.4897282 0.6308033 0.4897282 0.6308033 0.4897282 0.6300171 0.4917691 0.6300171 0.4917691 0.6300171 0.4917691 0.6300171 0.4917691 0.6292722 0.4937908 0.6333554 0.4836281 0.6324782 0.4856436 0.6324782 0.4856436 0.6324782 0.4856436 0.6316256 0.4876817 0.6316256 0.4876817 0.6316256 0.4876817 0.6316256 0.4876817 0.6308033 0.4897282 0.6351594 0.4797191 0.6342512 0.4816488 0.6342512 0.4816488 0.6342512 0.4816488 0.6333554 0.4836281 0.6333554 0.4836281 0.6333554 0.4836281 0.6333554 0.4836281 0.6324782 0.4856436 0.6582216 0.5 0.6582216 0.5 0.6351594 0.4797191 0.6582216 0.5 0.6351594 0.4797191 0.6351594 0.4797191 0.6273351 0.5128164 0.6268032 0.5150511 0.6268032 0.5150511 0.6273351 0.5128164 0.6273351 0.5128164 0.6279266 0.5107212 0.6263347 0.5174099 0.6263347 0.5174099 0.6268032 0.5150511 0.6259328 0.5198766 0.6259328 0.5198766 0.6263347 0.5174099 0.625151 0.5277535 0.625151 0.5277535 0.6253389 0.5250661 0.6342512 0.4816488 0.6351594 0.4797191 0.6351594 0.4797191 0.6333554 0.4836281 0.6342512 0.4816488 0.6342512 0.4816488 0.6253389 0.5250661 0.6256 0.5224346 0.6253389 0.5250661 0.6316256 0.4876817 0.6324782 0.4856436 0.6324782 0.4856436 0.6300171 0.4917691 0.6308033 0.4897282 0.6308033 0.4897282 0.625 0.7167784 0.625 0.5332216 0.625 0.5332216 0.6582216 0.75 0.6582216 0.75 0.6351594 0.770281 0.6582216 0.75 0.6351594 0.770281 0.6351594 0.770281 0.6351594 0.770281 0.6342512 0.7683513 0.6351594 0.770281 0.6342512 0.7683513 0.6351594 0.770281 0.6342512 0.7683513 0.6324782 0.7643563 0.6333554 0.7663719 0.6324782 0.7643563 0.6333554 0.7663719 0.6342512 0.7683513 0.6333554 0.7663719 0.6324782 0.7643563 0.6324782 0.7643563 0.6316255 0.7623184 0.6308033 0.7602719 0.6316255 0.7623184 0.6308033 0.7602719 0.6316255 0.7623184 0.6324782 0.7643563 0.6316255 0.7623184 0.6292722 0.7562093 0.6300171 0.7582309 0.6292722 0.7562093 0.6300171 0.7582309 0.6308033 0.7602719 0.6300171 0.7582309 0.6279266 0.7392788 0.6285738 0.7542209 0.6285738 0.7542209 0.6285738 0.7542209 0.6292722 0.7562093 0.6285738 0.7542209 0.6268032 0.734949 0.6273351 0.7371836 0.6273351 0.7371836 0.6273351 0.7371836 0.6279266 0.7392788 0.6279266 0.7392788 0.6279266 0.7392788 0.6279266 0.7392788 0.6285738 0.7542209 0.6259327 0.7301234 0.6263347 0.7325902 0.6263347 0.7325902 0.6263347 0.7325902 0.6268032 0.734949 0.6268032 0.734949 0.6268032 0.734949 0.6268032 0.734949 0.6273351 0.7371836 0.6253389 0.7249339 0.6256 0.7275655 0.6256 0.7275655 0.6256 0.7275655 0.6259327 0.7301234 0.6259327 0.7301234 0.6259327 0.7301234 0.6259327 0.7301234 0.6263347 0.7325902 0.6250378 0.7195218 0.625151 0.7222465 0.625151 0.7222465 0.625151 0.7222465 0.6253389 0.7249339 0.6253389 0.7249339 0.6253389 0.7249339 0.6253389 0.7249339 0.6256 0.7275655 0.625 0.7167784 0.625 0.7167784 0.6250378 0.7195218 0.625 0.7167784 0.6250378 0.7195218 0.6250378 0.7195218 0.6292722 0.7562093 0.6300171 0.7582309 0.6300171 0.7582309 0.6292722 0.7562093 0.6292722 0.7562093 0.6285738 0.7542209 0.6308033 0.7602719 0.6308033 0.7602719 0.6300171 0.7582309 0.6316255 0.7623184 0.6316255 0.7623184 0.6308033 0.7602719 0.6342512 0.7683513 0.6342512 0.7683513 0.6333554 0.7663719 0.625151 0.7222465 0.6250378 0.7195218 0.6250378 0.7195218 0.6253389 0.7249339 0.625151 0.7222465 0.625151 0.7222465 0.6333554 0.7663719 0.6324782 0.7643563 0.6333554 0.7663719 0.6259327 0.7301234 0.6256 0.7275655 0.6256 0.7275655 0.6268032 0.734949 0.6263347 0.7325902 0.6263347 0.7325902</float_array>
          <technique_common>
            <accessor source="#Cube_053-mesh-map-0-array" count="492" stride="2">
              <param name="S" type="float"/>
              <param name="T" type="float"/>
            </accessor>
          </technique_common>
        </source>
        <vertices id="Cube_053-mesh-vertices">
          <input semantic="POSITION" source="#Cube_053-mesh-positions"/>
        </vertices>
        <triangles material="Material_004-material" count="164">
          <input semantic="VERTEX" source="#Cube_053-mesh-vertices" offset="0"/>
          <input semantic="NORMAL" source="#Cube_053-mesh-normals" offset="1"/>
          <input semantic="TEXCOORD" source="#Cube_053-mesh-map-0" offset="2" set="0"/>
          <p>26 0 0 34 0 1 23 0 2 50 1 3 46 1 4 62 1 5 42 2 6 2 2 7 0 2 8 23 3 9 43 3 10 1 3 11 34 4 12 75 4 13 76 4 14 45 5 15 22 5 16 3 5 17 14 6 18 55 6 19 56 6 20 3 0 21 22 0 22 23 0 23 22 0 24 24 0 25 23 0 26 24 0 27 25 0 28 26 0 29 26 0 30 27 0 31 28 0 32 28 0 33 29 0 34 26 0 35 29 0 36 30 0 37 26 0 38 30 0 39 31 0 40 34 0 41 31 0 42 32 0 43 34 0 44 32 0 45 33 0 46 34 0 47 34 0 48 35 0 49 36 0 50 36 0 51 37 0 52 34 0 53 37 0 54 38 0 55 34 0 56 38 0 57 39 0 58 40 0 59 40 0 60 41 0 61 23 0 62 23 0 63 1 0 64 0 0 65 0 0 66 2 0 67 23 0 68 2 0 69 4 0 70 16 0 71 23 0 72 2 0 73 3 0 74 4 0 75 5 0 76 6 0 77 6 0 78 7 0 79 8 0 80 8 0 81 9 0 82 10 0 83 10 0 84 11 0 85 8 0 86 11 0 87 12 0 88 8 0 89 12 0 90 13 0 91 14 0 92 14 0 93 15 0 94 16 0 95 16 0 96 17 0 97 18 0 98 18 0 99 19 0 100 16 0 101 19 0 102 20 0 103 16 0 104 20 0 105 21 0 106 3 0 107 24 0 108 26 0 109 23 0 110 38 0 111 40 0 112 34 0 113 40 0 114 23 0 115 34 0 116 4 0 117 6 0 118 8 0 119 12 0 120 14 0 121 8 0 122 14 0 123 16 0 124 8 0 125 20 0 126 3 0 127 16 0 128 16 0 129 3 0 130 2 0 131 26 0 132 30 0 133 34 0 134 4 0 135 8 0 136 16 0 137 66 7 138 64 7 139 65 7 140 64 8 141 45 8 142 65 8 143 45 9 144 63 9 145 44 9 146 63 10 147 62 10 148 46 10 149 44 11 150 63 11 151 46 11 152 62 12 153 61 12 154 60 12 155 60 1 156 59 1 157 58 1 158 58 1 159 57 1 160 54 1 161 57 1 162 56 1 163 54 1 164 56 13 165 55 13 166 54 13 167 54 14 168 53 14 169 52 14 170 52 1 171 51 1 172 50 1 173 50 1 174 49 1 175 46 1 176 49 15 177 48 15 178 46 15 179 48 1 180 47 1 181 46 1 182 44 16 183 42 16 184 65 16 185 42 17 186 43 17 187 65 17 188 65 18 189 83 18 190 66 18 191 83 1 192 82 1 193 72 1 194 82 1 195 81 1 196 80 1 197 80 1 198 79 1 199 78 1 200 78 1 201 77 1 202 80 1 203 77 1 204 76 1 205 80 1 206 76 1 207 75 1 208 74 1 209 74 19 210 73 19 211 72 19 212 72 1 213 71 1 214 70 1 215 70 1 216 69 1 217 72 1 218 69 1 219 68 1 220 72 1 221 68 1 222 67 1 223 66 1 224 65 20 225 45 20 226 44 20 227 62 1 228 60 1 229 54 1 230 60 1 231 58 1 232 54 1 233 54 21 234 52 21 235 50 21 236 83 22 237 72 22 238 68 22 239 82 23 240 80 23 241 72 23 242 76 1 243 74 1 244 80 1 245 74 1 246 72 1 247 80 1 248 68 24 249 66 24 250 83 24 251 54 1 252 50 1 253 62 1 254 0 25 255 1 25 256 42 25 257 1 26 258 43 26 259 42 26 260 42 27 261 44 27 262 2 27 263 23 28 264 65 28 265 43 28 266 22 29 267 64 29 268 66 29 269 22 30 270 66 30 271 24 30 272 66 31 273 67 31 274 24 31 275 25 32 276 24 32 277 67 32 278 27 33 279 26 33 280 69 33 281 26 34 282 25 34 283 68 34 284 27 35 285 69 35 286 70 35 287 29 36 288 28 36 289 71 36 290 28 37 291 27 37 292 70 37 293 31 38 294 30 38 295 73 38 296 30 39 297 29 39 298 72 39 299 33 40 300 32 40 301 74 40 302 32 41 303 31 41 304 74 41 305 35 42 306 34 42 307 76 42 308 34 43 309 33 43 310 75 43 311 75 44 312 33 44 313 74 44 314 37 45 315 36 45 316 78 45 317 36 46 318 35 46 319 77 46 320 77 47 321 35 47 322 76 47 323 39 48 324 38 48 325 80 48 326 38 49 327 37 49 328 79 49 329 79 50 330 37 50 331 78 50 332 41 51 333 40 51 334 82 51 335 40 52 336 39 52 337 81 52 338 81 53 339 39 53 340 80 53 341 65 54 342 23 54 343 83 54 344 23 55 345 41 55 346 83 55 347 73 56 348 30 56 349 72 56 350 31 57 351 73 57 352 74 57 353 29 58 354 71 58 355 72 58 356 28 59 357 70 59 358 71 59 359 25 60 360 67 60 361 68 60 362 82 61 363 83 61 364 41 61 365 81 62 366 82 62 367 40 62 368 68 63 369 69 63 370 26 63 371 79 64 372 80 64 373 38 64 374 77 65 375 78 65 376 36 65 377 45 66 378 64 66 379 22 66 380 2 67 381 44 67 382 46 67 383 2 68 384 46 68 385 4 68 386 46 69 387 47 69 388 4 69 389 5 70 390 4 70 391 47 70 392 7 71 393 6 71 394 49 71 395 6 72 396 5 72 397 48 72 398 7 73 399 49 73 400 50 73 401 9 74 402 8 74 403 51 74 404 8 75 405 7 75 406 50 75 407 11 76 408 10 76 409 53 76 410 10 77 411 9 77 412 52 77 413 13 78 414 12 78 415 54 78 416 12 79 417 11 79 418 54 79 419 15 80 420 14 80 421 56 80 422 14 81 423 13 81 424 55 81 425 55 82 426 13 82 427 54 82 428 17 83 429 16 83 430 58 83 431 16 84 432 15 84 433 57 84 434 57 85 435 15 85 436 56 85 437 19 86 438 18 86 439 60 86 440 18 87 441 17 87 442 59 87 443 59 88 444 17 88 445 58 88 446 21 89 447 20 89 448 62 89 449 20 90 450 19 90 451 61 90 452 61 91 453 19 91 454 60 91 455 45 92 456 3 92 457 63 92 458 3 93 459 21 93 460 63 93 461 53 94 462 10 94 463 52 94 464 11 95 465 53 95 466 54 95 467 9 96 468 51 96 469 52 96 470 8 97 471 50 97 472 51 97 473 5 98 474 47 98 475 48 98 476 62 99 477 63 99 478 21 99 479 61 100 480 62 100 481 20 100 482 48 101 483 49 101 484 6 101 485 59 102 486 60 102 487 18 102 488 57 103 489 58 103 490 16 103 491</p>
        </triangles>
      </mesh>
    </geometry>
  </library_geometries>
  <library_visual_scenes>
    <visual_scene id="Scene" name="Scene">
      <node id="Cube_034" name="Cube.034" type="NODE">
        <matrix sid="transform">-0.341 0 0 0 0 0 -0.0925 0 0 0.4655 0 0 0 0 0 1</matrix>
        <instance_geometry url="#Cube_053-mesh" name="Cube.034">
          <bind_material>
            <technique_common>
              <instance_material symbol="Material_004-material" target="#Material_004-material">
                <bind_vertex_input semantic="UVMap" input_semantic="TEXCOORD" input_set="0"/>
              </instance_material>
            </technique_common>
          </bind_material>
        </instance_geometry>
      </node>
    </visual_scene>
  </library_visual_scenes>
  <scene>
    <instance_visual_scene url="#Scene"/>
  </scene>
</COLLADA>