<?xml version="1.0" encoding="utf-8"?>
<COLLADA xmlns="http://www.collada.org/2005/11/COLLADASchema" version="1.4.1" xmlns:xsi="http://www.w3.org/2001/XMLSchema-instance">
  <asset>
    <contributor>
      <author>Blender User</author>
      <authoring_tool>Blender 2.83.20 commit date:2022-04-19, commit time:16:00, hash:a56e2faeb7a9</authoring_tool>
    </contributor>
    <created>2026-07-01T17:22:04</created>
    <modified>2026-07-01T17:22:04</modified>
    <unit name="meter" meter="1"/>
    <up_axis>Z_UP</up_axis>
  </asset>
  <library_effects/>
  <library_images/>
  <library_geometries>
    <geometry id="Cube_146-mesh" name="Cube.146">
      <mesh>
        <source id="Cube_146-mesh-positions">
          <float_array id="Cube_146-mesh-positions-array" count="288">-2 -0.9999981 -0.9999995 -2 -0.9999981 1 -2 1.000002 -0.9999995 -2 1.000002 1 -1.19209e-7 -0.9999981 -0.9999995 -1.19209e-7 -0.9999981 1 -1.19209e-7 1.000002 -0.9999995 -1.19209e-7 1.000002 1 -2 -15 -0.9999995 -2 -15 1 -2 -13 -0.9999995 -2 -13 1 -2.26494e-7 -15 -0.9999995 -2.26494e-7 -15 1 -2.26494e-7 -13 -0.9999995 -2.26494e-7 -13 1 -1.699998 -1 0.008726477 -1.699998 -13 0.008726477 -1.670665 -1 0.9840089 -1.670665 -13 0.9840089 -1.584815 -1 1.921476 -1.584815 -13 1.921476 -1.445748 -1 2.785103 -1.445748 -13 2.785103 -1.258807 -1 3.541699 -1.258807 -13 3.541699 -1.031177 -1 4.162189 -1.031177 -13 4.162189 -0.7716056 -1 4.622729 -0.7716056 -13 4.622729 -0.4900675 -0.9999995 4.905621 -0.4900674 -13 4.905621 -0.1973822 -0.9999995 4.999992 -0.1973822 -13 4.999992 0.09520238 -0.9999995 4.902216 0.09520244 -13 4.902216 0.3764426 -0.9999991 4.616051 0.3764426 -13 4.616051 0.6355306 -0.9999991 4.152493 0.6355306 -13 4.152493 0.8625095 -0.9999991 3.529358 0.8625095 -13 3.529358 1.048657 -0.9999991 2.770591 1.048657 -13 2.770591 1.186819 -0.9999991 1.905351 1.186819 -13 1.905351 1.271686 -0.9999991 0.96689 1.271686 -13 0.96689 1.299997 -0.9999991 -0.008728086 1.299997 -13 -0.008728086 1.270665 -0.9999991 -0.9840109 1.270665 -13 -0.9840109 1.184815 -0.9999991 -1.921478 1.184815 -13 -1.921478 1.045747 -0.9999991 -2.785105 1.045747 -13 -2.785105 0.8588065 -0.9999991 -3.541701 0.8588065 -13 -3.541701 0.6311763 -0.9999991 -4.162191 0.6311763 -13 -4.162191 0.3716043 -0.9999991 -4.622731 0.3716043 -13 -4.622731 0.09006595 -0.9999995 -4.905622 0.09006601 -13 -4.905622 -0.2026194 -0.9999995 -4.999992 -0.2026194 -13 -4.999992 -0.4952043 -0.9999995 -4.902215 -0.4952042 -13 -4.902215 -0.7764445 -1 -4.616049 -0.7764445 -13 -4.616049 -1.035532 -1 -4.15249 -1.035532 -13 -4.15249 -1.262511 -1 -3.529353 -1.262511 -13 -3.529353 -1.448658 -1 -2.770585 -1.448658 -13 -2.770585 -1.58682 -1 -1.905345 -1.58682 -13 -1.905345 -1.671687 -1 -0.9668837 -1.671687 -13 -0.9668837 -1.199999 -26 -1 -1.999999 -26 -1 -1.199999 -15 -1 -1.999999 -15 -1 -1.199999 -26 1 -1.999999 -26 1 -1.199999 -15 1 -1.999999 -15 1 -1.199999 1.000001 -1 -1.999999 1.000001 -1 -1.199999 12 -1 -1.999999 12 -1 -1.199999 1.000001 1 -1.999999 1.000001 1 -1.199999 12 1 -1.999999 12 1</float_array>
          <technique_common>
            <accessor source="#Cube_146-mesh-positions-array" count="96" stride="3">
              <param name="X" type="float"/>
              <param name="Y" type="float"/>
              <param name="Z" type="float"/>
            </accessor>
          </technique_common>
        </source>
        <source id="Cube_146-mesh-normals">
          <float_array id="Cube_146-mesh-normals-array" count="384">-1 0 0 0 1 0 1 0 0 0 -1 0 0 0 -1 0 0 1 -0.999548 0 0.03006255 -0.9958332 0 0.09119451 -0.9872819 0 0.1589791 -0.9708057 0 0.2398678 -0.9388192 0 0.3444105 -0.8711568 0 0.4910051 -0.7087996 0 0.70541 -0.3068767 0 0.9517493 0.3169481 0 0.948443 0.7132167 0 0.7009437 0.8729106 0 0.4878804 0.9396073 0 0.3422545 0.9712006 0 0.2382634 0.9874898 0 0.1576831 0.9959359 0 0.09006482 0.9995793 0 0.02900654 0.9995481 0 -0.03006267 0.9958332 0 -0.09119462 0.9872819 0 -0.1589792 0.9708055 0 -0.239868 0.9388191 0 -0.3444108 0.8711565 0 -0.4910057 0.7087982 0 -0.7054114 0.3068709 0 -0.9517512 -0.3169534 0 -0.9484412 -0.7132186 0 -0.7009417 -0.872911 0 -0.4878795 -0.9396076 0 -0.3422537 -0.9712008 0 -0.2382627 -0.9874899 0 -0.1576827 4.48922e-7 -1 0 -0.995936 0 -0.0900644 -0.9995793 0 -0.02900642 -3.44404e-7 1 -3.98044e-7 -0.999548 0 0.03006255 -0.9872819 0 0.1589792 -0.9388193 0 0.3444103 -0.8711565 0 0.4910056 -0.7087997 0 0.7054098 -0.306873 0 0.9517505 0.3169481 0 0.9484429 0.7132183 0 0.7009419 0.8729109 0 0.4878799 0.9396073 0 0.3422545 0.9712007 0 0.2382633 0.9874898 0 0.1576831 0.9959359 0 0.09006482 0.9995793 0 0.02900654 0.9995481 0 -0.03006267 0.9958332 0 -0.09119462 0.9872819 0 -0.1589794 0.9708055 0 -0.2398681 0.9388191 0 -0.3444108 0.8711562 0 -0.4910062 0.7087987 0 -0.7054109 0.3068728 0 -0.9517506 -0.3169516 0 -0.9484418 -0.7132182 0 -0.700942 -0.8729113 0 -0.487879 -0.9874899 0 -0.1576826 3.43901e-7 -1 0 3.24063e-7 -1 2.65821e-6 3.17946e-7 -1 0 3.17946e-7 -1 0 3.24291e-7 -1 -2.76444e-6 3.439e-7 -1 0 3.44404e-7 -1 3.18435e-6 3.82872e-7 -1 2.01839e-6 3.81967e-7 -1 -3.53826e-6 4.50522e-7 -1 2.89196e-6 5.74057e-7 -1 4.95348e-6 5.70972e-7 -1 -3.68077e-6 8.15961e-7 -1 0 0 -1 -1.69605e-5 8.27975e-7 -1 0 4.48922e-7 -1 -4.74675e-6 3.24063e-7 -1 2.65821e-6 3.2429e-7 -1 -2.76444e-6 3.44404e-7 -1 0 3.82872e-7 -1 2.01839e-6 3.81967e-7 -1 -3.53827e-6 4.50522e-7 -1 0 5.74056e-7 -1 0 5.70972e-7 -1 0 8.35468e-7 -1 0 0 -1 -1.69605e-5 0 -1 5.72688e-6 8.27979e-7 -1 0 -0.995936 0 -0.0900644 -0.9995793 0 -0.02900642 -3.17946e-7 1 1.62947e-7 -3.24063e-7 1 0 -3.43901e-7 1 0 -3.81967e-7 1 2.21142e-7 -3.2429e-7 1 0 -4.48922e-7 1 2.96672e-7 -5.70972e-7 1 2.30049e-7 -8.27979e-7 1 4.4946e-7 0 1 -2.14758e-6 -5.74056e-7 1 -4.6439e-7 0 1 1.06003e-6 -8.25718e-7 1 1.45977e-6 -4.50522e-7 1 -3.61496e-7 -3.82872e-7 1 -2.52299e-7 -3.44404e-7 1 0 -3.17946e-7 1 0 -3.24063e-7 1 -1.66138e-7 -3.439e-7 1 0 -3.81967e-7 1 4.42283e-7 -3.24291e-7 1 0 -4.48922e-7 1 2.96672e-7 -5.70972e-7 1 2.30048e-7 -8.27975e-7 1 4.49459e-7 0 1 -7.15858e-7 -5.74057e-7 1 -4.64389e-7 -8.25715e-7 1 7.29882e-7 -4.50522e-7 1 0 -3.82872e-7 1 -2.52299e-7 2.16744e-7 0 -1 -4.33488e-7 0 1 2.16744e-7 0 -1 -4.33488e-7 0 1</float_array>
          <technique_common>
            <accessor source="#Cube_146-mesh-normals-array" count="128" stride="3">
              <param name="X" type="float"/>
              <param name="Y" type="float"/>
              <param name="Z" type="float"/>
            </accessor>
          </technique_common>
        </source>
        <source id="Cube_146-mesh-map-0">
          <float_array id="Cube_146-mesh-map-0-array" count="1032">0.625 0 0.375 0.25 0.375 0 0.625 0.25 0.375 0.5 0.375 0.25 0.625 0.5 0.375 0.75 0.375 0.5 0.625 0.75 0.375 1 0.375 0.75 0.375 0.5 0.125 0.75 0.125 0.5 0.875 0.5 0.625 0.75 0.625 0.5 0.625 0 0.375 0.25 0.375 0 0.625 0.25 0.375 0.5 0.375 0.25 0.625 0.5 0.375 0.75 0.375 0.5 0.625 0.75 0.375 1 0.375 0.75 0.375 0.5 0.125 0.75 0.125 0.5 0.875 0.5 0.625 0.75 0.625 0.5 1 1 0.96875 0.5 1 0.5 0.96875 1 0.9375 0.5 0.96875 0.5 0.9375 1 0.90625 0.5 0.9375 0.5 0.90625 1 0.875 0.5 0.90625 0.5 0.875 1 0.84375 0.5 0.875 0.5 0.84375 1 0.8125 0.5 0.84375 0.5 0.8125 0.5 0.78125 1 0.78125 0.5 0.78125 1 0.75 0.5 0.78125 0.5 0.75 1 0.71875 0.5 0.75 0.5 0.71875 0.5 0.6875 1 0.6875 0.5 0.6875 1 0.65625 0.5 0.6875 0.5 0.65625 1 0.625 0.5 0.65625 0.5 0.625 1 0.59375 0.5 0.625 0.5 0.59375 1 0.5625 0.5 0.59375 0.5 0.5625 1 0.53125 0.5 0.5625 0.5 0.53125 1 0.5 0.5 0.53125 0.5 0.5 1 0.46875 0.5 0.5 0.5 0.46875 1 0.4375 0.5 0.46875 0.5 0.4375 1 0.40625 0.5 0.4375 0.5 0.40625 1 0.375 0.5 0.40625 0.5 0.375 1 0.34375 0.5 0.375 0.5 0.34375 1 0.3125 0.5 0.34375 0.5 0.3125 1 0.28125 0.5 0.3125 0.5 0.28125 1 0.25 0.5 0.28125 0.5 0.25 1 0.21875 0.5 0.25 0.5 0.21875 1 0.1875 0.5 0.21875 0.5 0.1875 1 0.15625 0.5 0.1875 0.5 0.15625 1 0.125 0.5 0.15625 0.5 0.125 1 0.09375 0.5 0.125 0.5 0.09375 1 0.0625 0.5 0.09375 0.5 0.4197056 0.4197056 0.3833369 0.4495527 0.4197056 0.08029437 0.0625 1 0.03125 0.5 0.0625 0.5 0.03125 1 0 0.5 0.03125 0.5 0.6166634 0.4495529 0.6581563 0.4717312 0.6581559 0.02826893 0.625 0 0.375 0.25 0.375 0 0.375 0.25 0.625 0.5 0.375 0.5 0.625 0.5 0.375 0.75 0.375 0.5 0.625 0.75 0.375 1 0.375 0.75 0.375 0.5 0.125 0.75 0.125 0.5 0.875 0.5 0.625 0.75 0.625 0.5 0.625 0 0.375 0.25 0.375 0 0.375 0.25 0.625 0.5 0.375 0.5 0.625 0.5 0.375 0.75 0.375 0.5 0.625 0.75 0.375 1 0.375 0.75 0.375 0.5 0.125 0.75 0.125 0.5 0.875 0.5 0.625 0.75 0.625 0.5 0.625 0 0.625 0.25 0.375 0.25 0.625 0.25 0.625 0.5 0.375 0.5 0.625 0.5 0.625 0.75 0.375 0.75 0.625 0.75 0.625 1 0.375 1 0.375 0.5 0.375 0.75 0.125 0.75 0.875 0.5 0.875 0.75 0.625 0.75 0.625 0 0.625 0.25 0.375 0.25 0.625 0.25 0.625 0.5 0.375 0.5 0.625 0.5 0.625 0.75 0.375 0.75 0.625 0.75 0.625 1 0.375 1 0.375 0.5 0.375 0.75 0.125 0.75 0.875 0.5 0.875 0.75 0.625 0.75 1 1 0.96875 1 0.96875 0.5 0.96875 1 0.9375 1 0.9375 0.5 0.9375 1 0.90625 1 0.90625 0.5 0.90625 1 0.875 1 0.875 0.5 0.875 1 0.84375 1 0.84375 0.5 0.84375 1 0.8125 1 0.8125 0.5 0.8125 0.5 0.8125 1 0.78125 1 0.78125 1 0.75 1 0.75 0.5 0.75 1 0.71875 1 0.71875 0.5 0.71875 0.5 0.71875 1 0.6875 1 0.6875 1 0.65625 1 0.65625 0.5 0.65625 1 0.625 1 0.625 0.5 0.625 1 0.59375 1 0.59375 0.5 0.59375 1 0.5625 1 0.5625 0.5 0.5625 1 0.53125 1 0.53125 0.5 0.53125 1 0.5 1 0.5 0.5 0.5 1 0.46875 1 0.46875 0.5 0.46875 1 0.4375 1 0.4375 0.5 0.4375 1 0.40625 1 0.40625 0.5 0.40625 1 0.375 1 0.375 0.5 0.375 1 0.34375 1 0.34375 0.5 0.34375 1 0.3125 1 0.3125 0.5 0.3125 1 0.28125 1 0.28125 0.5 0.28125 1 0.25 1 0.25 0.5 0.25 1 0.21875 1 0.21875 0.5 0.21875 1 0.1875 1 0.1875 0.5 0.1875 1 0.15625 1 0.15625 0.5 0.15625 1 0.125 1 0.125 0.5 0.125 1 0.09375 1 0.09375 0.5 0.09375 1 0.0625 1 0.0625 0.5 0.341844 0.4717311 0.2968217 0.4853885 0.341844 0.02826887 0.2968217 0.4853885 0.25 0.49 0.2968216 0.01461148 0.2968216 0.01461148 0.25 0.49 0.2499999 0.00999999 0.25 0.49 0.2031787 0.4853885 0.2499999 0.00999999 0.2031787 0.4853885 0.1581563 0.4717312 0.2031782 0.01461154 0.2031782 0.01461154 0.1581563 0.4717312 0.1581559 0.02826893 0.1581563 0.4717312 0.1166634 0.4495529 0.1581559 0.02826893 0.1166634 0.4495529 0.08029454 0.4197058 0.116663 0.05044734 0.1581559 0.02826893 0.1166634 0.4495529 0.116663 0.05044734 0.08029454 0.4197058 0.05044746 0.3833371 0.08029425 0.08029443 0.05044746 0.3833371 0.02826899 0.3418443 0.05044716 0.1166633 0.08029425 0.08029443 0.05044746 0.3833371 0.05044716 0.1166633 0.02826899 0.3418443 0.01461154 0.2968219 0.02826881 0.1581561 0.01461154 0.2968219 0.00999999 0.2500002 0.01461148 0.2031785 0.02826881 0.1581561 0.01461154 0.2968219 0.01461148 0.2031785 0.02826881 0.1581561 0.05044716 0.1166633 0.02826899 0.3418443 0.08029425 0.08029443 0.116663 0.05044734 0.08029454 0.4197058 0.2031782 0.01461154 0.2499999 0.00999999 0.2031787 0.4853885 0.2968216 0.01461148 0.341844 0.02826887 0.2968217 0.4853885 0.341844 0.02826887 0.3833369 0.05044728 0.341844 0.4717311 0.3833369 0.05044728 0.4197056 0.08029437 0.3833369 0.4495527 0.341844 0.4717311 0.3833369 0.05044728 0.3833369 0.4495527 0.4197056 0.08029437 0.4495527 0.1166631 0.4197056 0.4197056 0.4495527 0.1166631 0.4717311 0.158156 0.4495527 0.3833369 0.4197056 0.4197056 0.4495527 0.1166631 0.4495527 0.3833369 0.4717311 0.158156 0.4853885 0.2031783 0.4717311 0.341844 0.4853885 0.2031783 0.49 0.25 0.4853885 0.2968217 0.4717311 0.341844 0.4853885 0.2031783 0.4853885 0.2968217 0.4717311 0.341844 0.4495527 0.3833369 0.4717311 0.158156 0.0625 1 0.03125 1 0.03125 0.5 0.03125 1 0 1 0 0.5 0.7031787 0.4853885 0.75 0.49 0.75 0.00999999 0.75 0.49 0.7968217 0.4853885 0.7968216 0.01461148 0.7968217 0.4853885 0.841844 0.4717311 0.841844 0.02826887 0.841844 0.4717311 0.8833369 0.4495527 0.8833369 0.05044728 0.7968217 0.4853885 0.841844 0.02826887 0.7968216 0.01461148 0.8833369 0.4495527 0.9197056 0.4197056 0.9197056 0.08029437 0.9197056 0.4197056 0.9495527 0.3833369 0.9495527 0.1166631 0.9495527 0.3833369 0.9717311 0.341844 0.9717311 0.158156 0.9717311 0.341844 0.9853885 0.2968217 0.9853885 0.2031783 0.9495527 0.3833369 0.9717311 0.158156 0.9495527 0.1166631 0.9853885 0.2968217 0.99 0.25 0.9853885 0.2031783 0.9853885 0.2031783 0.9717311 0.158156 0.9717311 0.341844 0.9495527 0.1166631 0.9197056 0.08029437 0.9197056 0.4197056 0.9197056 0.08029437 0.8833369 0.05044728 0.8833369 0.4495527 0.8833369 0.05044728 0.841844 0.02826887 0.841844 0.4717311 0.7968216 0.01461148 0.75 0.00999999 0.75 0.49 0.75 0.00999999 0.7031782 0.01461154 0.7031787 0.4853885 0.7031782 0.01461154 0.6581559 0.02826893 0.6581563 0.4717312 0.6581559 0.02826893 0.616663 0.05044734 0.6166634 0.4495529 0.7031782 0.01461154 0.6581563 0.4717312 0.7031787 0.4853885 0.616663 0.05044734 0.5802943 0.08029443 0.5802946 0.4197058 0.5802943 0.08029443 0.5504472 0.1166633 0.5504475 0.3833371 0.5504472 0.1166633 0.5282688 0.1581561 0.5282691 0.3418443 0.5282688 0.1581561 0.5146115 0.2031785 0.5146116 0.2968219 0.5504472 0.1166633 0.5282691 0.3418443 0.5504475 0.3833371 0.5146115 0.2031785 0.51 0.2500002 0.5146116 0.2968219 0.5146116 0.2968219 0.5282691 0.3418443 0.5282688 0.1581561 0.5504475 0.3833371 0.5802946 0.4197058 0.5802943 0.08029443 0.5802946 0.4197058 0.6166634 0.4495529 0.616663 0.05044734 0.625 0 0.625 0.25 0.375 0.25 0.375 0.25 0.625 0.25 0.625 0.5 0.625 0.5 0.625 0.75 0.375 0.75 0.625 0.75 0.625 1 0.375 1 0.375 0.5 0.375 0.75 0.125 0.75 0.875 0.5 0.875 0.75 0.625 0.75 0.625 0 0.625 0.25 0.375 0.25 0.375 0.25 0.625 0.25 0.625 0.5 0.625 0.5 0.625 0.75 0.375 0.75 0.625 0.75 0.625 1 0.375 1 0.375 0.5 0.375 0.75 0.125 0.75 0.875 0.5 0.875 0.75 0.625 0.75</float_array>
          <technique_common>
            <accessor source="#Cube_146-mesh-map-0-array" count="516" stride="2">
              <param name="S" type="float"/>
              <param name="T" type="float"/>
            </accessor>
          </technique_common>
        </source>
        <vertices id="Cube_146-mesh-vertices">
          <input semantic="POSITION" source="#Cube_146-mesh-positions"/>
        </vertices>
        <triangles count="172">
          <input semantic="VERTEX" source="#Cube_146-mesh-vertices" offset="0"/>
          <input semantic="NORMAL" source="#Cube_146-mesh-normals" offset="1"/>
          <input semantic="TEXCOORD" source="#Cube_146-mesh-map-0" offset="2" set="0"/>
          <p>1 0 0 2 0 1 0 0 2 3 1 3 6 1 4 2 1 5 7 2 6 4 2 7 6 2 8 5 3 9 0 3 10 4 3 11 6 4 12 0 4 13 2 4 14 3 5 15 5 5 16 7 5 17 9 0 18 10 0 19 8 0 20 11 1 21 14 1 22 10 1 23 15 2 24 12 2 25 14 2 26 13 3 27 8 3 28 12 3 29 14 4 30 8 4 31 10 4 32 11 5 33 13 5 34 15 5 35 17 6 36 18 6 37 16 6 38 19 7 39 20 7 40 18 7 41 21 8 42 22 8 43 20 8 44 23 9 45 24 9 46 22 9 47 25 10 48 26 10 49 24 10 50 27 11 51 28 11 52 26 11 53 28 12 54 31 12 55 30 12 56 31 13 57 32 13 58 30 13 59 33 14 60 34 14 61 32 14 62 34 15 63 37 15 64 36 15 65 37 16 66 38 16 67 36 16 68 39 17 69 40 17 70 38 17 71 41 18 72 42 18 73 40 18 74 43 19 75 44 19 76 42 19 77 45 20 78 46 20 79 44 20 80 47 21 81 48 21 82 46 21 83 49 22 84 50 22 85 48 22 86 51 23 87 52 23 88 50 23 89 53 24 90 54 24 91 52 24 92 55 25 93 56 25 94 54 25 95 57 26 96 58 26 97 56 26 98 59 27 99 60 27 100 58 27 101 61 28 102 62 28 103 60 28 104 63 29 105 64 29 106 62 29 107 65 30 108 66 30 109 64 30 110 67 31 111 68 31 112 66 31 113 69 32 114 70 32 115 68 32 116 71 33 117 72 33 118 70 33 119 73 34 120 74 34 121 72 34 122 75 35 123 76 35 124 74 35 125 25 36 126 23 36 127 41 36 128 77 37 129 78 37 130 76 37 131 79 38 132 16 38 133 78 38 134 74 39 135 76 39 136 52 39 137 81 4 138 82 4 139 80 4 140 82 1 141 87 1 142 86 1 143 87 5 144 84 5 145 86 5 146 85 3 147 80 3 148 84 3 149 86 2 150 80 2 151 82 2 152 83 0 153 85 0 154 87 0 155 89 4 156 90 4 157 88 4 158 90 1 159 95 1 160 94 1 161 95 5 162 92 5 163 94 5 164 93 3 165 88 3 166 92 3 167 94 2 168 88 2 169 90 2 170 91 0 171 93 0 172 95 0 173 1 0 174 3 0 175 2 0 176 3 1 177 7 1 178 6 1 179 7 2 180 5 2 181 4 2 182 5 3 183 1 3 184 0 3 185 6 4 186 4 4 187 0 4 188 3 5 189 1 5 190 5 5 191 9 0 192 11 0 193 10 0 194 11 1 195 15 1 196 14 1 197 15 2 198 13 2 199 12 2 200 13 3 201 9 3 202 8 3 203 14 4 204 12 4 205 8 4 206 11 5 207 9 5 208 13 5 209 17 40 210 19 40 211 18 40 212 19 7 213 21 7 214 20 7 215 21 41 216 23 41 217 22 41 218 23 9 219 25 9 220 24 9 221 25 42 222 27 42 223 26 42 224 27 43 225 29 43 226 28 43 227 28 44 228 29 44 229 31 44 230 31 45 231 33 45 232 32 45 233 33 46 234 35 46 235 34 46 236 34 47 237 35 47 238 37 47 239 37 48 240 39 48 241 38 48 242 39 49 243 41 49 244 40 49 245 41 50 246 43 50 247 42 50 248 43 51 249 45 51 250 44 51 251 45 52 252 47 52 253 46 52 254 47 53 255 49 53 256 48 53 257 49 54 258 51 54 259 50 54 260 51 55 261 53 55 262 52 55 263 53 56 264 55 56 265 54 56 266 55 57 267 57 57 268 56 57 269 57 58 270 59 58 271 58 58 272 59 59 273 61 59 274 60 59 275 61 60 276 63 60 277 62 60 278 63 61 279 65 61 280 64 61 281 65 62 282 67 62 283 66 62 284 67 63 285 69 63 286 68 63 287 69 64 288 71 64 289 70 64 290 71 33 291 73 33 292 72 33 293 73 34 294 75 34 295 74 34 296 75 65 297 77 65 298 76 65 299 21 66 300 19 66 301 45 66 302 19 67 303 17 67 304 47 67 305 47 68 306 17 68 307 49 68 308 17 69 309 79 69 310 49 69 311 79 70 312 77 70 313 51 70 314 51 71 315 77 71 316 53 71 317 77 72 318 75 72 319 53 72 320 75 73 321 73 73 322 55 73 323 53 74 324 75 74 325 55 74 326 73 75 327 71 75 328 57 75 329 71 76 330 69 76 331 59 76 332 57 77 333 71 77 334 59 77 335 69 78 336 67 78 337 61 78 338 67 79 339 65 79 340 63 79 341 61 3 342 67 3 343 63 3 344 61 80 345 59 80 346 69 80 347 57 81 348 55 81 349 73 81 350 51 82 351 49 82 352 79 82 353 47 83 354 45 83 355 19 83 356 45 84 357 43 84 358 21 84 359 43 85 360 41 85 361 23 85 362 21 86 363 43 86 364 23 86 365 41 87 366 39 87 367 25 87 368 39 88 369 37 88 370 27 88 371 25 89 372 39 89 373 27 89 374 37 90 375 35 90 376 29 90 377 35 91 378 33 91 379 31 91 380 29 92 381 35 92 382 31 92 383 29 93 384 27 93 385 37 93 386 77 94 387 79 94 388 78 94 389 79 95 390 17 95 391 16 95 392 78 96 393 16 96 394 48 96 395 16 97 396 18 97 397 46 97 398 18 98 399 20 98 400 44 98 401 20 99 402 22 99 403 42 99 404 18 100 405 44 100 406 46 100 407 22 101 408 24 101 409 40 101 410 24 102 411 26 102 412 38 102 413 26 103 414 28 103 415 36 103 416 28 104 417 30 104 418 34 104 419 26 105 420 36 105 421 38 105 422 30 106 423 32 106 424 34 106 425 34 107 426 36 107 427 28 107 428 38 108 429 40 108 430 24 108 431 40 109 432 42 109 433 22 109 434 42 110 435 44 110 436 20 110 437 46 111 438 48 111 439 16 111 440 48 112 441 50 112 442 78 112 443 50 113 444 52 113 445 76 113 446 52 114 447 54 114 448 74 114 449 50 115 450 76 115 451 78 115 452 54 116 453 56 116 454 72 116 455 56 117 456 58 117 457 70 117 458 58 118 459 60 118 460 68 118 461 60 119 462 62 119 463 66 119 464 58 120 465 68 120 466 70 120 467 62 1 468 64 1 469 66 1 470 66 121 471 68 121 472 60 121 473 70 122 474 72 122 475 56 122 476 72 123 477 74 123 478 54 123 479 81 124 480 83 124 481 82 124 482 82 1 483 83 1 484 87 1 485 87 125 486 85 125 487 84 125 488 85 3 489 81 3 490 80 3 491 86 2 492 84 2 493 80 2 494 83 0 495 81 0 496 85 0 497 89 126 498 91 126 499 90 126 500 90 1 501 91 1 502 95 1 503 95 127 504 93 127 505 92 127 506 93 3 507 89 3 508 88 3 509 94 2 510 92 2 511 88 2 512 91 0 513 89 0 514 93 0 515</p>
        </triangles>
      </mesh>
    </geometry>
  </library_geometries>
  <library_visual_scenes>
    <visual_scene id="Scene" name="Scene">
      <node id="Cube_134" name="Cube.134" type="NODE">
        <matrix sid="transform">-2.18557e-9 0 0.015 -0.15 0.05 0 6.55671e-10 0.11 0 0.005 0 0.035 0 0 0 1</matrix>
        <instance_geometry url="#Cube_146-mesh" name="Cube.134"/>
      </node>
    </visual_scene>
  </library_visual_scenes>
  <scene>
    <instance_visual_scene url="#Scene"/>
  </scene>
</COLLADA>