<?xml version="1.0" encoding="utf-8"?>
<COLLADA xmlns="http://www.collada.org/2005/11/COLLADASchema" version="1.4.1" xmlns:xsi="http://www.w3.org/2001/XMLSchema-instance">
  <asset>
    <contributor>
      <author>Blender User</author>
      <authoring_tool>Blender 2.83.20 commit date:2022-04-19, commit time:16:00, hash:a56e2faeb7a9</authoring_tool>
    </contributor>
    <created>2026-07-01T17:27:10</created>
    <modified>2026-07-01T17:27:10</modified>
    <unit name="meter" meter="1"/>
    <up_axis>Z_UP</up_axis>
  </asset>
  <library_effects/>
  <library_images/>
  <library_geometries>
    <geometry id="Cube_149-mesh" name="Cube.149">
      <mesh>
        <source id="Cube_149-mesh-positions">
          <float_array id="Cube_149-mesh-positions-array" count="168">-1.949999 -1.000002 1.999916 -1.949999 0.9999981 1.999916 0.05000066 -1.000002 -8.36849e-5 0.05000066 0.9999981 -8.36849e-5 0.05000066 -1.000002 -8.36849e-5 -1.949999 -1.000002 1.999916 0.03289043 -1.000002 0.2609687 -0.0181477 -1.000002 0.5175544 -0.1022403 -1.000002 0.7652831 -0.2179485 -1.000002 0.9999163 -0.3632927 -1.000002 1.217439 -0.5357858 -1.000002 1.41413 -0.7324765 -1.000002 1.586623 -0.9499993 -1.000002 1.731967 -1.184633 -1.000002 1.847675 -1.432361 -1.000002 1.931768 -1.688947 -1.000002 1.982806 -1.949995 0.9999981 1.999916 0.05000066 0.9999981 -9.05991e-5 -1.688947 0.9999981 1.982806 -1.432361 0.9999981 1.931768 -1.184633 0.9999981 1.847675 -0.9499993 0.9999981 1.731967 -0.7324765 0.9999981 1.586623 -0.5357858 0.9999981 1.41413 -0.3632927 0.9999981 1.217439 -0.2179485 0.9999981 0.9999163 -0.1022403 0.9999981 0.7652831 -0.0181477 0.9999981 0.5175544 0.03289043 0.9999981 0.2609687 -0.04999923 -1.000002 8.39233e-5 -1.95017 -1.000002 1.899917 -0.06728386 -1.000002 0.1611433 -0.118322 -1.000002 0.417729 -0.2024146 -1.000002 0.6654579 -0.3181229 -1.000002 0.900091 -0.4634671 -1.000002 1.117614 -0.6359602 -1.000002 1.314305 -0.8326509 -1.000002 1.486798 -1.050174 -1.000002 1.632142 -1.284807 -1.000002 1.74785 -1.532536 -1.000002 1.831943 -1.789121 -1.000002 1.882981 -1.95017 0.9999981 1.899917 -0.04999923 0.9999981 8.39233e-5 -1.789121 0.9999981 1.882981 -1.532536 0.9999981 1.831943 -1.284807 0.9999981 1.74785 -1.050174 0.9999981 1.632142 -0.8326509 0.9999981 1.486798 -0.6359602 0.9999981 1.314305 -0.4634671 0.9999981 1.117614 -0.3181229 0.9999981 0.900091 -0.2024146 0.9999981 0.6654579 -0.118322 0.9999981 0.417729 -0.06728386 0.9999981 0.1611433</float_array>
          <technique_common>
            <accessor source="#Cube_149-mesh-positions-array" count="56" stride="3">
              <param name="X" type="float"/>
              <param name="Y" type="float"/>
              <param name="Z" type="float"/>
            </accessor>
          </technique_common>
        </source>
        <source id="Cube_149-mesh-normals">
          <float_array id="Cube_149-mesh-normals-array" count="168">-1 0 0 0.06540352 0 0.9978589 0.1950901 0 0.9807854 0.3214396 0 0.9469301 0.4422889 0 0.8968728 0.55557 0 0.8314698 0.6593456 0 0.7518401 0.75184 0 0.6593456 0.8314697 0 0.5555703 0.8968728 0 0.4422885 0.9469301 0 0.3214396 0.9807853 0 0.1950905 0.9978591 2.28559e-7 0.06540119 0 0 1 0 1 0 0.1045833 0 0.9945161 0.1950911 0 0.9807851 0.3214395 0 0.9469302 0.4422882 0 0.8968731 0.5555706 0 0.8314695 0.659346 0 0.7518397 0.7518396 0 0.6593461 0.8968727 0 0.4422889 0.9469302 0 0.3214395 0.9942907 0 0.1067056 0 1 4.83832e-7 0 1 8.21018e-7 0 1 8.07158e-7 0 1 8.07343e-7 -0.001676023 0 -0.9999987 0 -1 4.62682e-7 0 -1 4.83832e-7 0 -1 0 0 -1 8.21017e-7 0 -1 8.07158e-7 0 -1 4.03672e-7 0 -1 9.69925e-7 -0.9999986 0 0.001702308 0.0654034 -1.35277e-7 0.997859 0.195091 0 0.9807853 0.6593461 0 0.7518396 0.997859 0 0.06540292 0 1 -4.62685e-7 0.1950902 0 0.9807854 0.6593455 0 0.7518401 0.8314698 0 0.5555701 0.8968728 0 0.4422886 0 1 -4.83832e-7 0 1 -8.21017e-7 0 1 -8.07158e-7 0 1 -4.03672e-7 0 1 -9.69925e-7 0 -1 -4.83832e-7 0 -1 -8.21018e-7 0 -1 -8.07158e-7 0 -1 -8.07343e-7</float_array>
          <technique_common>
            <accessor source="#Cube_149-mesh-normals-array" count="56" stride="3">
              <param name="X" type="float"/>
              <param name="Y" type="float"/>
              <param name="Z" type="float"/>
            </accessor>
          </technique_common>
        </source>
        <source id="Cube_149-mesh-map-0">
          <float_array id="Cube_149-mesh-map-0-array" count="624">0.375 0.5 0.375 0.75 0.375 0.5 0.875 0.5 0.7691994 0.8224563 0.7691994 0.4275438 0.7691994 0.8224563 0.7456907 0.4382349 0.7691994 0.4275438 0.7456907 0.8117651 0.7215427 0.448557 0.7456907 0.4382349 0.7215428 0.801443 0.6971688 0.4583333 0.7215427 0.448557 0.6971688 0.7916667 0.6729859 0.4673968 0.6971688 0.4583333 0.6729859 0.7826032 0.6005923 0.4755922 0.6729859 0.4673968 0.6005923 0.7744078 0.5271903 0.4827795 0.6005923 0.4755922 0.5271903 0.7672206 0.5 0.4888355 0.5271903 0.4827795 0.5 0.7611646 0.4706709 0.4936566 0.5 0.4888355 0.4706709 0.7563434 0.4397048 0.4971605 0.4706709 0.4936566 0.4397048 0.7528396 0.4076315 0.4992871 0.4397048 0.4971605 0.4076315 0.4992871 0.375 0.75 0.375 0.5 0.875 0.5 0.875 0.75 0.875 0.5 0.375 0.5 0.4076315 0.4992871 0.4076315 0.4992871 0.875 0.75 0.7691994 0.4275438 0.875 0.5 0.7691994 0.8224563 0.7456907 0.4382349 0.7691994 0.4275438 0.7456907 0.8117651 0.7215427 0.448557 0.7456907 0.4382349 0.7215428 0.801443 0.6971688 0.4583333 0.7215427 0.448557 0.6971688 0.7916667 0.6729859 0.4673968 0.6971688 0.4583333 0.6729859 0.7826032 0.6005923 0.4755922 0.6729859 0.4673968 0.6005923 0.7744078 0.5271903 0.4827795 0.6005923 0.4755922 0.5271903 0.7672206 0.5 0.4888355 0.5271903 0.4827795 0.5 0.7611646 0.4706709 0.4936566 0.5 0.4888355 0.4706709 0.7563434 0.4397048 0.4971605 0.4706709 0.4936566 0.4397048 0.7528396 0.4076315 0.4992871 0.4397048 0.4971605 0.4076315 0.750713 0.375 0.5 0.4076315 0.4992871 0.4076315 0.4992871 0.4397048 0.4971605 0.4397048 0.4971605 0.4397048 0.4971605 0.4706709 0.4936566 0.4706709 0.4936566 0.4706709 0.4936566 0.5 0.4888355 0.5 0.4888355 0.5 0.4888355 0.5271903 0.4827795 0.5271903 0.4827795 0.5271903 0.4827795 0.6005923 0.4755922 0.6005923 0.4755922 0.6729859 0.4673968 0.6005923 0.4755922 0.6729859 0.4673968 0.6971688 0.4583333 0.6729859 0.4673968 0.6971688 0.4583333 0.7215427 0.448557 0.6971688 0.4583333 0.7215427 0.448557 0.7456907 0.4382349 0.7215427 0.448557 0.7456907 0.4382349 0.7691994 0.4275438 0.7456907 0.4382349 0.7691994 0.4275438 0.875 0.5 0.7691994 0.4275438 0.875 0.5 0.375 0.75 0.375 0.5 0.375 0.5 0.375 0.75 0.4076315 0.750713 0.375 0.75 0.4076315 0.750713 0.4397048 0.7528396 0.4076315 0.750713 0.4397048 0.7528396 0.4706709 0.7563434 0.4397048 0.7528396 0.4706709 0.7563434 0.5 0.7611646 0.4706709 0.7563434 0.5 0.7611646 0.5271903 0.7672206 0.5 0.7611646 0.5271903 0.7672206 0.6005923 0.7744078 0.5271903 0.7672206 0.6729859 0.7826032 0.6005923 0.7744078 0.6005923 0.7744078 0.6971688 0.7916667 0.6729859 0.7826032 0.6729859 0.7826032 0.7215428 0.801443 0.6971688 0.7916667 0.6971688 0.7916667 0.7456907 0.8117651 0.7215428 0.801443 0.7215428 0.801443 0.7691994 0.8224563 0.7456907 0.8117651 0.7456907 0.8117651 0.875 0.5 0.875 0.75 0.875 0.75 0.875 0.75 0.7691994 0.8224563 0.7691994 0.8224563 0.375 0.5 0.375 0.75 0.375 0.75 0.875 0.5 0.875 0.75 0.7691994 0.8224563 0.7691994 0.8224563 0.7456907 0.8117651 0.7456907 0.4382349 0.7456907 0.8117651 0.7215428 0.801443 0.7215427 0.448557 0.7215428 0.801443 0.6971688 0.7916667 0.6971688 0.4583333 0.6971688 0.7916667 0.6729859 0.7826032 0.6729859 0.4673968 0.6729859 0.7826032 0.6005923 0.7744078 0.6005923 0.4755922 0.6005923 0.7744078 0.5271903 0.7672206 0.5271903 0.4827795 0.5271903 0.7672206 0.5 0.7611646 0.5 0.4888355 0.5 0.7611646 0.4706709 0.7563434 0.4706709 0.4936566 0.4706709 0.7563434 0.4397048 0.7528396 0.4397048 0.4971605 0.4397048 0.7528396 0.4076315 0.750713 0.4076315 0.4992871 0.4076315 0.4992871 0.4076315 0.750713 0.375 0.75 0.875 0.5 0.875 0.75 0.875 0.75 0.375 0.5 0.375 0.5 0.4076315 0.4992871 0.875 0.75 0.7691994 0.8224563 0.7691994 0.4275438 0.7691994 0.8224563 0.7456907 0.8117651 0.7456907 0.4382349 0.7456907 0.8117651 0.7215428 0.801443 0.7215427 0.448557 0.7215428 0.801443 0.6971688 0.7916667 0.6971688 0.4583333 0.6971688 0.7916667 0.6729859 0.7826032 0.6729859 0.4673968 0.6729859 0.7826032 0.6005923 0.7744078 0.6005923 0.4755922 0.6005923 0.7744078 0.5271903 0.7672206 0.5271903 0.4827795 0.5271903 0.7672206 0.5 0.7611646 0.5 0.4888355 0.5 0.7611646 0.4706709 0.7563434 0.4706709 0.4936566 0.4706709 0.7563434 0.4397048 0.7528396 0.4397048 0.4971605 0.4397048 0.7528396 0.4076315 0.750713 0.4076315 0.4992871 0.4076315 0.750713 0.375 0.75 0.375 0.5 0.4076315 0.4992871 0.4076315 0.4992871 0.4397048 0.4971605 0.4397048 0.4971605 0.4397048 0.4971605 0.4706709 0.4936566 0.4706709 0.4936566 0.4706709 0.4936566 0.5 0.4888355 0.5 0.4888355 0.5 0.4888355 0.5271903 0.4827795 0.5271903 0.4827795 0.5271903 0.4827795 0.6005923 0.4755922 0.6729859 0.4673968 0.6005923 0.4755922 0.6005923 0.4755922 0.6971688 0.4583333 0.6729859 0.4673968 0.6729859 0.4673968 0.7215427 0.448557 0.6971688 0.4583333 0.6971688 0.4583333 0.7456907 0.4382349 0.7215427 0.448557 0.7215427 0.448557 0.7691994 0.4275438 0.7456907 0.4382349 0.7456907 0.4382349 0.875 0.5 0.7691994 0.4275438 0.7691994 0.4275438 0.375 0.75 0.375 0.75 0.375 0.5 0.375 0.75 0.4076315 0.750713 0.4076315 0.750713 0.4076315 0.750713 0.4397048 0.7528396 0.4397048 0.7528396 0.4397048 0.7528396 0.4706709 0.7563434 0.4706709 0.7563434 0.4706709 0.7563434 0.5 0.7611646 0.5 0.7611646 0.5 0.7611646 0.5271903 0.7672206 0.5271903 0.7672206 0.5271903 0.7672206 0.6005923 0.7744078 0.6005923 0.7744078 0.6729859 0.7826032 0.6729859 0.7826032 0.6005923 0.7744078 0.6971688 0.7916667 0.6971688 0.7916667 0.6729859 0.7826032 0.7215428 0.801443 0.7215428 0.801443 0.6971688 0.7916667 0.7456907 0.8117651 0.7456907 0.8117651 0.7215428 0.801443 0.7691994 0.8224563 0.7691994 0.8224563 0.7456907 0.8117651 0.875 0.5 0.875 0.5 0.875 0.75 0.875 0.75 0.875 0.75 0.7691994 0.8224563</float_array>
          <technique_common>
            <accessor source="#Cube_149-mesh-map-0-array" count="312" stride="2">
              <param name="S" type="float"/>
              <param name="T" type="float"/>
            </accessor>
          </technique_common>
        </source>
        <vertices id="Cube_149-mesh-vertices">
          <input semantic="POSITION" source="#Cube_149-mesh-positions"/>
        </vertices>
        <triangles count="104">
          <input semantic="VERTEX" source="#Cube_149-mesh-vertices" offset="0"/>
          <input semantic="NORMAL" source="#Cube_149-mesh-normals" offset="1"/>
          <input semantic="TEXCOORD" source="#Cube_149-mesh-map-0" offset="2" set="0"/>
          <p>18 0 0 2 0 1 3 0 2 17 1 3 16 1 4 19 1 5 16 2 6 20 2 7 19 2 8 15 3 9 21 3 10 20 3 11 14 4 12 22 4 13 21 4 14 13 5 15 23 5 16 22 5 17 12 6 18 24 6 19 23 6 20 11 7 21 25 7 22 24 7 23 10 8 24 26 8 25 25 8 26 9 9 27 27 9 28 26 9 29 8 10 30 28 10 31 27 10 32 7 11 33 29 11 34 28 11 35 29 12 36 4 12 37 18 12 38 1 13 39 5 13 40 17 13 41 18 14 42 55 14 43 29 14 44 31 15 45 45 15 46 43 15 47 42 16 48 46 16 49 45 16 50 41 17 51 47 17 52 46 17 53 40 18 54 48 18 55 47 18 56 39 19 57 49 19 58 48 19 59 38 20 60 50 20 61 49 20 62 37 21 63 51 21 64 50 21 65 36 8 66 52 8 67 51 8 68 35 22 69 53 22 70 52 22 71 34 23 72 54 23 73 53 23 74 33 11 75 55 11 76 54 11 77 32 24 78 44 24 79 55 24 80 29 25 81 54 25 82 28 25 83 28 14 84 53 14 85 27 14 86 27 14 87 52 14 88 26 14 89 26 26 90 51 26 91 25 26 92 25 27 93 50 27 94 24 27 95 23 28 96 50 28 97 49 28 98 22 14 99 49 14 100 48 14 101 21 14 102 48 14 103 47 14 104 20 14 105 47 14 106 46 14 107 19 14 108 46 14 109 45 14 110 17 14 111 45 14 112 43 14 113 2 29 114 44 29 115 3 29 116 4 30 117 32 30 118 30 30 119 6 31 120 33 31 121 32 31 122 7 32 123 34 32 124 33 32 125 8 32 126 35 32 127 34 32 128 9 33 129 36 33 130 35 33 131 10 34 132 37 34 133 36 34 134 12 35 135 37 35 136 11 35 137 13 32 138 38 32 139 12 32 140 14 32 141 39 32 142 13 32 143 15 32 144 40 32 145 14 32 146 16 36 147 41 36 148 15 36 149 1 37 150 31 37 151 0 37 152 5 32 153 42 32 154 16 32 155 18 13 156 4 13 157 2 13 158 17 38 159 5 38 160 16 38 161 16 39 162 15 39 163 20 39 164 15 3 165 14 3 166 21 3 167 14 18 168 13 18 169 22 18 170 13 19 171 12 19 172 23 19 173 12 40 174 11 40 175 24 40 176 11 21 177 10 21 178 25 21 179 10 8 180 9 8 181 26 8 182 9 9 183 8 9 184 27 9 185 8 10 186 7 10 187 28 10 188 7 11 189 6 11 190 29 11 191 29 41 192 6 41 193 4 41 194 1 13 195 0 13 196 5 13 197 18 42 198 44 42 199 55 42 200 31 15 201 42 15 202 45 15 203 42 43 204 41 43 205 46 43 206 41 17 207 40 17 208 47 17 209 40 4 210 39 4 211 48 4 212 39 5 213 38 5 214 49 5 215 38 44 216 37 44 217 50 44 218 37 7 219 36 7 220 51 7 221 36 45 222 35 45 223 52 45 224 35 46 225 34 46 226 53 46 227 34 23 228 33 23 229 54 23 230 33 11 231 32 11 232 55 11 233 32 24 234 30 24 235 44 24 236 29 47 237 55 47 238 54 47 239 28 14 240 54 14 241 53 14 242 27 14 243 53 14 244 52 14 245 26 48 246 52 48 247 51 48 248 25 49 249 51 49 250 50 49 251 23 50 252 24 50 253 50 50 254 22 14 255 23 14 256 49 14 257 21 14 258 22 14 259 48 14 260 20 14 261 21 14 262 47 14 263 19 51 264 20 51 265 46 51 266 17 14 267 19 14 268 45 14 269 2 29 270 30 29 271 44 29 272 4 32 273 6 32 274 32 32 275 6 52 276 7 52 277 33 52 278 7 32 279 8 32 280 34 32 281 8 32 282 9 32 283 35 32 284 9 53 285 10 53 286 36 53 287 10 54 288 11 54 289 37 54 290 12 55 291 38 55 292 37 55 293 13 32 294 39 32 295 38 32 296 14 32 297 40 32 298 39 32 299 15 32 300 41 32 301 40 32 302 16 32 303 42 32 304 41 32 305 1 37 306 43 37 307 31 37 308 5 32 309 31 32 310 42 32 311</p>
        </triangles>
      </mesh>
    </geometry>
  </library_geometries>
  <library_visual_scenes>
    <visual_scene id="Scene" name="Scene">
      <node id="Cube_115" name="Cube.115" type="NODE">
        <matrix sid="transform">-0.01709955 -8.68999e-15 0.04698448 -0.004698515 0.04698064 4.97771e-14 0.01710095 -0.001710092 -9.94863e-13 0.0025 -1.77177e-13 -0.05250001 0 0 0 1</matrix>
        <instance_geometry url="#Cube_149-mesh" name="Cube.115"/>
      </node>
    </visual_scene>
  </library_visual_scenes>
  <scene>
    <instance_visual_scene url="#Scene"/>
  </scene>
</COLLADA>