<?xml version="1.0" encoding="utf-8"?>
<COLLADA xmlns="http://www.collada.org/2005/11/COLLADASchema" version="1.4.1" xmlns:xsi="http://www.w3.org/2001/XMLSchema-instance">
  <asset>
    <contributor>
      <author>Blender User</author>
      <authoring_tool>Blender 2.83.20 commit date:2022-04-19, commit time:16:00, hash:a56e2faeb7a9</authoring_tool>
    </contributor>
    <created>2026-06-26T15:06:45</created>
    <modified>2026-06-26T15:06:45</modified>
    <unit name="meter" meter="1"/>
    <up_axis>Z_UP</up_axis>
  </asset>
  <library_effects/>
  <library_images/>
  <library_geometries>
    <geometry id="Cube_023-mesh" name="Cube.023">
      <mesh>
        <source id="Cube_023-mesh-positions">
          <float_array id="Cube_023-mesh-positions-array" count="132">0.459445 -1 0 -1.526112 1.000001 1.000001 -1.526112 -1.000001 1.000001 -0.9895061 1.000001 0.01921474 -0.9895061 -1.000001 0.01921474 -1.513303 1.000001 0.8049106 -1.513303 -1.000001 0.8049106 -1.114568 1.000001 0.07612061 -1.114568 -1.000001 0.07612061 -1.413759 1.000001 0.4444303 -1.413759 -1.000001 0.4444303 -1.33085 1.000001 0.2928936 -1.33085 -1.000001 0.2928936 -1.475365 1.000001 0.6173173 -1.475365 -1.000001 0.6173173 -1.229826 1.000001 0.1685306 -1.229826 -1.000001 0.1685307 -0.8594458 1.000001 0 -0.8594458 -1.000001 0 -1.526112 1 1.200003 -1.528394 -1 1.199999 0.4594469 1 0 -1.499446 1 1.04 -1.499446 -1.000001 1.04 -0.9628394 1 0.05921375 -0.9628394 -1.000001 0.05921375 -1.486636 1 0.8449096 -1.486636 -1.000001 0.8449096 -1.087901 1 0.1161196 -1.087901 -1.000001 0.1161196 -1.387092 1 0.4844293 -1.387092 -1.000001 0.4844293 -1.304184 1 0.3328926 -1.304184 -1.000001 0.3328926 -1.448699 1 0.6573163 -1.448699 -1.000001 0.6573163 -1.203159 1 0.2085296 -1.203159 -1.000001 0.2085297 -0.8327792 1 0.039999 -0.8327792 -1.000001 0.03999894 0.459445 1 0.039999 0.459445 -1 0.03999894 -1.500586 -1 1.199999 -1.499446 1 1.199999</float_array>
          <technique_common>
            <accessor source="#Cube_023-mesh-positions-array" count="44" stride="3">
              <param name="X" type="float"/>
              <param name="Y" type="float"/>
              <param name="Z" type="float"/>
            </accessor>
          </technique_common>
        </source>
        <source id="Cube_023-mesh-normals">
          <float_array id="Cube_023-mesh-normals-array" count="237">-0.1461509 0 -0.9892624 -0.6255358 0 -0.7801956 -1 0 0 -0.7761768 0 -0.6305153 -0.9419814 0 -0.3356649 -0.9978513 0 -0.06551951 -0.4141614 0 -0.9102036 -0.9801579 0 -0.1982183 0 0 -1 -0.877281 0 -0.4799772 0.1461509 0 0.9892624 0.6255354 0 0.7801958 0.9999745 -5.70424e-4 0.007130026 0.776177 0 0.6305152 0.9419813 0 0.3356655 0.9978513 0 0.06551951 0.4141616 0 0.9102033 0.980158 0 0.1982178 0 0 1 0.8772813 0 0.4799765 -2.19747e-6 -1 3.09035e-6 8.94205e-7 1 2.79393e-6 0 -2.3246e-6 1 3.61544e-7 1 4.51941e-6 6.77895e-7 -1 -7.06158e-7 1 -9.31345e-7 4.76849e-5 2.45535e-6 -1 1.01269e-6 2.01506e-6 1 0 -0.1461514 0 -0.9892623 -0.6255361 0 -0.7801952 -0.9999343 0.001140773 -0.01140767 -0.7761766 0 -0.6305155 -0.4141613 0 -0.9102035 -0.980158 0 -0.1982182 0 0 -1 0.1461514 0 0.9892623 0.6255356 0 0.7801957 1 0 0 0.7761766 0 0.6305156 0.9419814 0 0.3356654 0.9978513 0 0.06551951 0.4141617 0 0.9102033 0.980158 0 0.1982177 0 0 1 0.8772813 0 0.4799768 -1.50043e-5 -1 3.34919e-6 -4.47007e-6 1 0 1.84178e-4 0 1 1.84502e-7 1 -4.61269e-6 2.76754e-7 -1 -4.61268e-6 3.42992e-6 -1 1.14274e-6 2.91324e-6 -1 3.15947e-6 2.91324e-6 -1 0 2.01506e-6 -1 3.03807e-6 2.01506e-6 -1 0 1.55717e-6 -1 3.1595e-6 1.04047e-6 -1 6.8565e-6 4.00825e-7 -1 5.21506e-6 4.00824e-7 -1 0 4.06954e-6 -1 0 4.0695e-6 -1 6.51862e-7 3.42991e-6 -1 0 1.04047e-6 -1 0 1.55717e-6 -1 2.10633e-6 2.91324e-6 1 2.10632e-6 3.42992e-6 1 2.28547e-6 2.91324e-6 1 5.26579e-7 4.06956e-6 1 1.30374e-6 4.06951e-6 1 -3.25932e-7 2.45535e-6 1 4.05075e-6 1.55717e-6 1 0 2.01506e-6 1 4.05076e-6 4.00823e-7 1 3.25941e-6 1.04047e-6 1 5.14238e-6 4.00824e-7 1 1.95565e-6 1.04047e-6 1 -5.71377e-7 3.4299e-6 1 -1.14273e-6 1.55717e-6 1 4.21266e-6 2.45535e-6 1 0</float_array>
          <technique_common>
            <accessor source="#Cube_023-mesh-normals-array" count="79" stride="3">
              <param name="X" type="float"/>
              <param name="Y" type="float"/>
              <param name="Z" type="float"/>
            </accessor>
          </technique_common>
        </source>
        <source id="Cube_023-mesh-map-0">
          <float_array id="Cube_023-mesh-map-0-array" count="504">0.5 0.73125 0.46875 0.76875 0.46875 0.73125 0.4375 0.73125 0.40625 0.76875 0.40625 0.73125 0.5100001 0.9949999 0.625 0.2779191 0.5100001 0.255 0.40625 0.73125 0.375 0.76875 0.375 0.73125 0.34375 0.73125 0.3125 0.76875 0.3125 0.73125 0.28125 0.73125 0.25 0.76875 0.25 0.73125 0.46875 0.73125 0.4375 0.76875 0.4375 0.73125 0.3125 0.73125 0.28125 0.76875 0.28125 0.73125 0.385 0.3383333 0.5 0.75 0.385 0.9116666 0.375 0.73125 0.34375 0.76875 0.34375 0.73125 0.46875 0.76875 0.5 0.73125 0.46875 0.73125 0.40625 0.76875 0.4375 0.73125 0.40625 0.73125 0.5100001 0.9949999 0.5675 0.2664595 0.5675001 0.9843366 0.375 0.76875 0.40625 0.73125 0.375 0.73125 0.3125 0.76875 0.34375 0.73125 0.3125 0.73125 0.25 0.76875 0.28125 0.73125 0.25 0.73125 0.4375 0.76875 0.46875 0.73125 0.4375 0.73125 0.28125 0.76875 0.3125 0.73125 0.28125 0.73125 0.385 0.9116666 0.4425 0.4191666 0.385 0.3383333 0.34375 0.76875 0.375 0.73125 0.34375 0.73125 0.5100001 0.9949999 0.625 0.9736734 0.5100001 0.9949999 0.625 0.2779191 0.5100001 0.255 0.5100001 0.255 0.5675001 0.9843366 0.625 0.2779191 0.625 0.9736734 0.385 0.3383333 0.5 0.5 0.385 0.3383333 0.5 0.75 0.385 0.9116666 0.385 0.9116666 0.4425 0.4191666 0.5 0.75 0.5 0.5 0.375 0.76875 0.34375 0.76875 0.34375 0.76875 0.375 0.73125 0.40625 0.73125 0.375 0.73125 0.5 0.73125 0.5 0.76875 0.46875 0.76875 0.4375 0.73125 0.4375 0.76875 0.40625 0.76875 0.5100001 0.9949999 0.625 0.9736734 0.625 0.2779191 0.40625 0.73125 0.40625 0.76875 0.375 0.76875 0.34375 0.73125 0.34375 0.76875 0.3125 0.76875 0.28125 0.73125 0.28125 0.76875 0.25 0.76875 0.46875 0.73125 0.46875 0.76875 0.4375 0.76875 0.3125 0.73125 0.3125 0.76875 0.28125 0.76875 0.385 0.3383333 0.5 0.5 0.5 0.75 0.375 0.73125 0.375 0.76875 0.34375 0.76875 0.46875 0.76875 0.5 0.76875 0.5 0.73125 0.40625 0.76875 0.4375 0.76875 0.4375 0.73125 0.5100001 0.9949999 0.5100001 0.255 0.5675 0.2664595 0.375 0.76875 0.40625 0.76875 0.40625 0.73125 0.3125 0.76875 0.34375 0.76875 0.34375 0.73125 0.25 0.76875 0.28125 0.76875 0.28125 0.73125 0.4375 0.76875 0.46875 0.76875 0.46875 0.73125 0.28125 0.76875 0.3125 0.76875 0.3125 0.73125 0.385 0.9116666 0.4425 0.8308333 0.4425 0.4191666 0.34375 0.76875 0.375 0.76875 0.375 0.73125 0.5100001 0.9949999 0.5675001 0.9843366 0.625 0.9736734 0.625 0.2779191 0.5675 0.2664595 0.5100001 0.255 0.5675001 0.9843366 0.5675 0.2664595 0.625 0.2779191 0.385 0.3383333 0.4425 0.4191666 0.5 0.5 0.5 0.75 0.4425 0.8308333 0.385 0.9116666 0.4425 0.4191666 0.4425 0.8308333 0.5 0.75 0.28125 0.76875 0.3125 0.76875 0.3125 0.76875 0.3125 0.76875 0.34375 0.76875 0.34375 0.76875 0.3125 0.76875 0.3125 0.76875 0.34375 0.76875 0.34375 0.76875 0.375 0.76875 0.375 0.76875 0.375 0.76875 0.40625 0.76875 0.40625 0.76875 0.375 0.76875 0.375 0.76875 0.40625 0.76875 0.40625 0.76875 0.4375 0.76875 0.4375 0.76875 0.4375 0.76875 0.46875 0.76875 0.4375 0.76875 0.46875 0.76875 0.5 0.76875 0.46875 0.76875 0.5 0.76875 0.385 0.9116666 0.46875 0.76875 0.5100001 0.9949999 0.28125 0.76875 0.28125 0.76875 0.28125 0.76875 0.25 0.76875 0.5100001 0.9949999 0.3125 0.76875 0.28125 0.76875 0.28125 0.76875 0.46875 0.76875 0.46875 0.76875 0.4375 0.76875 0.40625 0.76875 0.4375 0.76875 0.40625 0.76875 0.34375 0.73125 0.3125 0.73125 0.34375 0.73125 0.3125 0.73125 0.28125 0.73125 0.3125 0.73125 0.34375 0.73125 0.3125 0.73125 0.3125 0.73125 0.28125 0.73125 0.5100001 0.255 0.28125 0.73125 0.5100001 0.255 0.25 0.73125 0.28125 0.73125 0.375 0.73125 0.34375 0.73125 0.375 0.73125 0.4375 0.73125 0.40625 0.73125 0.4375 0.73125 0.40625 0.73125 0.375 0.73125 0.40625 0.73125 0.5 0.73125 0.46875 0.73125 0.46875 0.73125 0.46875 0.73125 0.4375 0.73125 0.4375 0.73125 0.46875 0.73125 0.385 0.3383333 0.5 0.73125 0.4375 0.73125 0.46875 0.73125 0.46875 0.73125 0.28125 0.73125 0.28125 0.73125 0.3125 0.73125 0.40625 0.73125 0.4375 0.73125 0.40625 0.73125 0.34375 0.73125 0.34375 0.73125 0.375 0.73125</float_array>
          <technique_common>
            <accessor source="#Cube_023-mesh-map-0-array" count="252" stride="2">
              <param name="S" type="float"/>
              <param name="T" type="float"/>
            </accessor>
          </technique_common>
        </source>
        <vertices id="Cube_023-mesh-vertices">
          <input semantic="POSITION" source="#Cube_023-mesh-positions"/>
        </vertices>
        <triangles count="84">
          <input semantic="VERTEX" source="#Cube_023-mesh-vertices" offset="0"/>
          <input semantic="NORMAL" source="#Cube_023-mesh-normals" offset="1"/>
          <input semantic="TEXCOORD" source="#Cube_023-mesh-map-0" offset="2" set="0"/>
          <p>17 0 0 4 0 1 3 0 2 7 1 3 16 1 4 15 1 5 2 2 6 19 2 7 1 2 8 15 3 9 12 3 10 11 3 11 9 4 12 14 4 13 13 4 14 5 5 15 2 5 16 1 5 17 3 6 18 8 6 19 7 6 20 13 7 21 6 7 22 5 7 23 17 8 24 0 8 25 18 8 26 11 9 27 10 9 28 9 9 29 25 10 30 38 10 31 24 10 32 37 11 33 28 11 34 36 11 35 23 12 36 43 12 37 42 12 38 33 13 39 36 13 40 32 13 41 35 14 42 30 14 43 34 14 44 23 15 45 26 15 46 22 15 47 29 16 48 24 16 49 28 16 50 27 17 51 34 17 52 26 17 53 39 18 54 40 18 55 38 18 56 31 19 57 32 19 58 30 19 59 23 20 60 20 20 61 2 20 62 19 21 63 22 21 64 1 21 65 42 22 66 19 22 67 20 22 68 38 23 69 21 23 70 17 23 71 0 24 72 39 24 73 18 24 74 40 25 75 0 25 76 21 25 77 33 26 78 31 26 79 10 26 80 32 27 81 36 27 82 11 27 83 17 28 84 18 28 85 4 28 86 7 29 87 8 29 88 16 29 89 2 30 90 20 30 91 19 30 92 15 31 93 16 31 94 12 31 95 9 4 96 10 4 97 14 4 98 5 5 99 6 5 100 2 5 101 3 32 102 4 32 103 8 32 104 13 33 105 14 33 106 6 33 107 17 34 108 21 34 109 0 34 110 11 9 111 12 9 112 10 9 113 25 35 114 39 35 115 38 35 116 37 36 117 29 36 118 28 36 119 23 37 120 22 37 121 43 37 122 33 38 123 37 38 124 36 38 125 35 39 126 31 39 127 30 39 128 23 40 129 27 40 130 26 40 131 29 41 132 25 41 133 24 41 134 27 42 135 35 42 136 34 42 137 39 43 138 41 43 139 40 43 140 31 44 141 33 44 142 32 44 143 23 45 144 42 45 145 20 45 146 19 46 147 43 46 148 22 46 149 42 47 150 43 47 151 19 47 152 38 48 153 40 48 154 21 48 155 0 49 156 41 49 157 39 49 158 40 37 159 41 37 160 0 37 161 6 50 162 14 50 163 35 50 164 14 51 165 10 51 166 31 51 167 35 52 168 14 52 169 31 52 170 10 26 171 12 26 172 33 26 173 12 53 174 16 53 175 37 53 176 33 54 177 12 54 178 37 54 179 16 55 180 8 55 181 29 55 182 8 56 183 4 56 184 29 56 185 4 57 186 18 57 187 25 57 188 18 58 189 39 58 190 25 58 191 2 59 192 6 59 193 27 59 194 27 60 195 23 60 196 2 60 197 35 61 198 27 61 199 6 61 200 4 62 201 25 62 202 29 62 203 16 63 204 29 63 205 37 63 206 9 64 207 13 64 208 30 64 209 13 65 210 5 65 211 34 65 212 30 66 213 13 66 214 34 66 215 5 67 216 1 67 217 26 67 218 1 68 219 22 68 220 26 68 221 11 69 222 9 69 223 32 69 224 7 70 225 15 70 226 28 70 227 15 71 228 11 71 229 36 71 230 17 72 231 3 72 232 24 72 233 3 73 234 7 73 235 28 73 236 24 74 237 38 74 238 17 74 239 28 75 240 24 75 241 3 75 242 5 76 243 26 76 244 34 76 245 36 77 246 28 77 247 15 77 248 9 78 249 30 78 250 32 78 251</p>
        </triangles>
      </mesh>
    </geometry>
  </library_geometries>
  <library_visual_scenes>
    <visual_scene id="Scene" name="Scene">
      <node id="Cube_032" name="Cube.032" type="NODE">
        <matrix sid="transform">0.375 0 0 0.09770787 0 0 -0.25 -0.3 0 0.075 0 7.45058e-9 0 0 0 1</matrix>
        <instance_geometry url="#Cube_023-mesh" name="Cube.032"/>
      </node>
    </visual_scene>
  </library_visual_scenes>
  <scene>
    <instance_visual_scene url="#Scene"/>
  </scene>
</COLLADA>