<?xml version="1.0" encoding="utf-8"?>
<COLLADA xmlns="http://www.collada.org/2005/11/COLLADASchema" version="1.4.1" xmlns:xsi="http://www.w3.org/2001/XMLSchema-instance">
  <asset>
    <contributor>
      <author>Blender User</author>
      <authoring_tool>Blender 2.83.20 commit date:2022-04-19, commit time:16:00, hash:a56e2faeb7a9</authoring_tool>
    </contributor>
    <created>2026-07-09T13:01:42</created>
    <modified>2026-07-09T13:01:42</modified>
    <unit name="meter" meter="1"/>
    <up_axis>Z_UP</up_axis>
  </asset>
  <library_effects>
    <effect id="Wood05-basecolor-effect">
      <profile_COMMON>
        <newparam sid="Wood05-basecolor_jpeg-surface">
          <surface type="2D">
            <init_from>Wood05-basecolor_jpeg</init_from>
          </surface>
        </newparam>
        <newparam sid="Wood05-basecolor_jpeg-sampler">
          <sampler2D>
            <source>Wood05-basecolor_jpeg-surface</source>
          </sampler2D>
        </newparam>
        <technique sid="common">
          <lambert>
            <emission>
              <color sid="emission">0 0 0 1</color>
            </emission>
            <diffuse>
              <texture texture="Wood05-basecolor_jpeg-sampler" texcoord="ID2487"/>
            </diffuse>
            <index_of_refraction>
              <float sid="ior">1.45</float>
            </index_of_refraction>
          </lambert>
        </technique>
      </profile_COMMON>
    </effect>
  </library_effects>
  <library_images>
    <image id="Wood05-basecolor_jpeg" name="Wood05-basecolor_jpeg">
      <init_from>Wood05-basecolor.jpeg</init_from>
    </image>
  </library_images>
  <library_materials>
    <material id="Wood05-basecolor-material" name="Wood05-basecolor">
      <instance_effect url="#Wood05-basecolor-effect"/>
    </material>
  </library_materials>
  <library_geometries>
    <geometry id="ID2459_001-mesh" name="ID2459.001">
      <mesh>
        <source id="ID2459_001-mesh-positions">
          <float_array id="ID2459_001-mesh-positions-array" count="1872">-17.87556 -31.21654 0.375 -12.37556 -31.21654 0.375 -17.87556 -31.21654 -0.375 -12.37556 -31.21654 -0.375 -12.37556 -31.21654 0.375 -17.87556 -31.21654 -0.375 -12.37556 -31.21654 -0.375 -17.87556 -31.21654 0.375 -12.37556 -31.21654 -0.375 -12.37556 31.21647 -0.375 -17.87556 -31.21654 -0.375 -17.87556 31.21647 -0.375 -12.37556 31.21647 -0.375 -17.87556 -31.21654 -0.375 -17.87556 31.21647 -0.375 -12.37556 -31.21654 -0.375 -12.37556 31.21647 0.375 -12.37556 31.21647 -0.375 -12.37556 -31.21654 0.375 -12.37556 -31.21654 -0.375 -12.37556 31.21647 -0.375 -12.37556 -31.21654 0.375 -12.37556 -31.21654 -0.375 -12.37556 31.21647 0.375 -12.37556 31.21647 0.375 -12.37556 -31.21654 0.375 -17.87556 31.21647 0.375 -17.87556 -31.21654 0.375 -12.37556 -31.21654 0.375 -17.87556 31.21647 0.375 -17.87556 -31.21654 0.375 -12.37556 31.21647 0.375 -17.87556 31.21647 -0.375 -17.87556 31.21647 0.375 -17.87556 -31.21654 -0.375 -17.87556 -31.21654 0.375 -17.87556 31.21647 0.375 -17.87556 -31.21654 -0.375 -17.87556 -31.21654 0.375 -17.87556 31.21647 -0.375 -12.37556 31.21647 0.375 -17.87556 31.21647 0.375 -12.37556 31.21647 -0.375 -17.87556 31.21647 -0.375 -17.87556 31.21647 0.375 -12.37556 31.21647 -0.375 -17.87556 31.21647 -0.375 -12.37556 31.21647 0.375 0.2244415 -31.21654 0.375 5.724442 -31.21654 0.375 0.2244415 -31.21654 -0.375 5.724442 -31.21654 -0.375 5.724442 -31.21654 0.375 0.2244415 -31.21654 -0.375 5.724442 -31.21654 -0.375 0.2244415 -31.21654 0.375 5.724442 -31.21654 -0.375 5.724442 31.21647 -0.375 0.2244415 -31.21654 -0.375 0.2244415 31.21647 -0.375 5.724442 31.21647 -0.375 0.2244415 -31.21654 -0.375 0.2244415 31.21647 -0.375 5.724442 -31.21654 -0.375 5.724442 31.21647 0.375 5.724442 31.21647 -0.375 5.724442 -31.21654 0.375 5.724442 -31.21654 -0.375 5.724442 31.21647 -0.375 5.724442 -31.21654 0.375 5.724442 -31.21654 -0.375 5.724442 31.21647 0.375 5.724442 31.21647 0.375 5.724442 -31.21654 0.375 0.2244415 31.21647 0.375 0.2244415 -31.21654 0.375 5.724442 -31.21654 0.375 0.2244415 31.21647 0.375 0.2244415 -31.21654 0.375 5.724442 31.21647 0.375 0.2244415 31.21647 -0.375 0.2244415 31.21647 0.375 0.2244415 -31.21654 -0.375 0.2244415 -31.21654 0.375 0.2244415 31.21647 0.375 0.2244415 -31.21654 -0.375 0.2244415 -31.21654 0.375 0.2244415 31.21647 -0.375 5.724442 31.21647 0.375 0.2244415 31.21647 0.375 5.724442 31.21647 -0.375 0.2244415 31.21647 -0.375 0.2244415 31.21647 0.375 5.724442 31.21647 -0.375 0.2244415 31.21647 -0.375 5.724442 31.21647 0.375 11.75777 31.21647 0.375 11.75777 31.21647 -0.375 11.75777 -31.21654 0.375 11.75777 -31.21654 -0.375 11.75777 31.21647 -0.375 11.75777 -31.21654 0.375 11.75777 -31.21654 -0.375 11.75777 31.21647 0.375 11.75777 -31.21654 -0.375 11.75777 31.21647 -0.375 6.257774 -31.21654 -0.375 6.257774 31.21647 -0.375 11.75777 31.21647 -0.375 6.257774 -31.21654 -0.375 6.257774 31.21647 -0.375 11.75777 -31.21654 -0.375 11.75777 31.21647 0.375 6.257774 31.21647 0.375 11.75777 31.21647 -0.375 6.257774 31.21647 -0.375 6.257774 31.21647 0.375 11.75777 31.21647 -0.375 6.257774 31.21647 -0.375 11.75777 31.21647 0.375 11.75777 31.21647 0.375 11.75777 -31.21654 0.375 6.257774 31.21647 0.375 6.257774 -31.21654 0.375 11.75777 -31.21654 0.375 6.257774 31.21647 0.375 6.257774 -31.21654 0.375 11.75777 31.21647 0.375 6.257774 -31.21654 0.375 11.75777 -31.21654 0.375 6.257774 -31.21654 -0.375 11.75777 -31.21654 -0.375 11.75777 -31.21654 0.375 6.257774 -31.21654 -0.375 11.75777 -31.21654 -0.375 6.257774 -31.21654 0.375 6.257774 31.21647 -0.375 6.257774 31.21647 0.375 6.257774 -31.21654 -0.375 6.257774 -31.21654 0.375 6.257774 31.21647 0.375 6.257774 -31.21654 -0.375 6.257774 -31.21654 0.375 6.257774 31.21647 -0.375 -0.3088989 31.21647 0.375 -0.3088989 31.21647 -0.375 -0.3088989 -31.21654 0.375 -0.3088989 -31.21654 -0.375 -0.3088989 31.21647 -0.375 -0.3088989 -31.21654 0.375 -0.3088989 -31.21654 -0.375 -0.3088989 31.21647 0.375 -0.3088989 -31.21654 -0.375 -0.3088989 31.21647 -0.375 -5.808899 -31.21654 -0.375 -5.808899 31.21647 -0.375 -0.3088989 31.21647 -0.375 -5.808899 -31.21654 -0.375 -5.808899 31.21647 -0.375 -0.3088989 -31.21654 -0.375 -0.3088989 31.21647 0.375 -5.808899 31.21647 0.375 -0.3088989 31.21647 -0.375 -5.808899 31.21647 -0.375 -5.808899 31.21647 0.375 -0.3088989 31.21647 -0.375 -5.808899 31.21647 -0.375 -0.3088989 31.21647 0.375 -0.3088989 31.21647 0.375 -0.3088989 -31.21654 0.375 -5.808899 31.21647 0.375 -5.808899 -31.21654 0.375 -0.3088989 -31.21654 0.375 -5.808899 31.21647 0.375 -5.808899 -31.21654 0.375 -0.3088989 31.21647 0.375 -5.808899 -31.21654 0.375 -0.3088989 -31.21654 0.375 -5.808899 -31.21654 -0.375 -0.3088989 -31.21654 -0.375 -0.3088989 -31.21654 0.375 -5.808899 -31.21654 -0.375 -0.3088989 -31.21654 -0.375 -5.808899 -31.21654 0.375 -5.808899 31.21647 -0.375 -5.808899 31.21647 0.375 -5.808899 -31.21654 -0.375 -5.808899 -31.21654 0.375 -5.808899 31.21647 0.375 -5.808899 -31.21654 -0.375 -5.808899 -31.21654 0.375 -5.808899 31.21647 -0.375 17.7911 -31.21654 -0.375 17.7911 31.21647 -0.375 12.2911 -31.21654 -0.375 12.2911 31.21647 -0.375 17.7911 31.21647 -0.375 12.2911 -31.21654 -0.375 12.2911 31.21647 -0.375 17.7911 -31.21654 -0.375 12.2911 31.21647 -0.375 12.2911 31.21647 0.375 12.2911 -31.21654 -0.375 12.2911 -31.21654 0.375 12.2911 31.21647 0.375 12.2911 -31.21654 -0.375 12.2911 -31.21654 0.375 12.2911 31.21647 -0.375 17.7911 31.21647 0.375 12.2911 31.21647 0.375 17.7911 31.21647 -0.375 12.2911 31.21647 -0.375 12.2911 31.21647 0.375 17.7911 31.21647 -0.375 12.2911 31.21647 -0.375 17.7911 31.21647 0.375 17.7911 31.21647 0.375 17.7911 31.21647 -0.375 17.7911 -31.21654 0.375 17.7911 -31.21654 -0.375 17.7911 31.21647 -0.375 17.7911 -31.21654 0.375 17.7911 -31.21654 -0.375 17.7911 31.21647 0.375 12.2911 -31.21654 0.375 17.7911 -31.21654 0.375 12.2911 -31.21654 -0.375 17.7911 -31.21654 -0.375 17.7911 -31.21654 0.375 12.2911 -31.21654 -0.375 17.7911 -31.21654 -0.375 12.2911 -31.21654 0.375 17.7911 31.21647 0.375 17.7911 -31.21654 0.375 12.2911 31.21647 0.375 12.2911 -31.21654 0.375 17.7911 -31.21654 0.375 12.2911 31.21647 0.375 12.2911 -31.21654 0.375 17.7911 31.21647 0.375 -11.84223 -31.21654 0.375 -6.342232 -31.21654 0.375 -11.84223 -31.21654 -0.375 -6.342232 -31.21654 -0.375 -6.342232 -31.21654 0.375 -11.84223 -31.21654 -0.375 -6.342232 -31.21654 -0.375 -11.84223 -31.21654 0.375 -6.342232 -31.21654 -0.375 -6.342232 31.21647 -0.375 -11.84223 -31.21654 -0.375 -11.84223 31.21647 -0.375 -6.342232 31.21647 -0.375 -11.84223 -31.21654 -0.375 -11.84223 31.21647 -0.375 -6.342232 -31.21654 -0.375 -6.342232 31.21647 0.375 -6.342232 31.21647 -0.375 -6.342232 -31.21654 0.375 -6.342232 -31.21654 -0.375 -6.342232 31.21647 -0.375 -6.342232 -31.21654 0.375 -6.342232 -31.21654 -0.375 -6.342232 31.21647 0.375 -6.342232 31.21647 0.375 -6.342232 -31.21654 0.375 -11.84223 31.21647 0.375 -11.84223 -31.21654 0.375 -6.342232 -31.21654 0.375 -11.84223 31.21647 0.375 -11.84223 -31.21654 0.375 -6.342232 31.21647 0.375 -11.84223 31.21647 -0.375 -11.84223 31.21647 0.375 -11.84223 -31.21654 -0.375 -11.84223 -31.21654 0.375 -11.84223 31.21647 0.375 -11.84223 -31.21654 -0.375 -11.84223 -31.21654 0.375 -11.84223 31.21647 -0.375 -6.342232 31.21647 0.375 -11.84223 31.21647 0.375 -6.342232 31.21647 -0.375 -11.84223 31.21647 -0.375 -11.84223 31.21647 0.375 -6.342232 31.21647 -0.375 -11.84223 31.21647 -0.375 -6.342232 31.21647 0.375 23.96815 31.21652 0.3749619 18.71815 31.21652 -0.3750382 23.96815 31.21652 -0.3750382 18.71815 31.21652 0.3749619 18.71815 31.21652 0.3749619 23.96815 31.21652 0.3749619 18.71815 31.21652 -0.3750382 23.96815 31.21652 -0.3750382 18.71815 31.21652 -0.3750382 23.96815 28.99283 -0.3750382 23.96815 31.21652 -0.3750382 23.96815 -28.9928 -0.375 23.96815 -31.21649 -0.375 18.71815 -31.21649 -0.375 28.27346 28.99283 -0.3750382 29.21096 23.75002 -0.3750382 29.21096 28.04548 -0.3750382 29.21096 -23.74998 -0.3750076 29.21096 -28.04545 -0.375 28.27346 -28.9928 -0.375 31.43465 -23.74998 -0.3750076 31.43465 23.75002 -0.3750382 29.21096 -23.74998 -0.3750076 29.21096 23.75002 -0.3750382 31.43465 -23.74998 -0.3750076 31.43465 23.75002 -0.3750382 23.96815 -28.9928 -0.375 23.96815 28.99283 -0.3750382 28.27346 -28.9928 -0.375 28.27346 28.99283 -0.3750382 29.21096 -28.04545 -0.375 29.21096 28.04548 -0.3750382 18.71815 -31.21649 -0.375 18.71815 31.21652 -0.3750382 23.96815 -31.21649 -0.375 23.96815 31.21652 -0.3750382 23.96815 31.21652 0.3749619 23.96815 28.99283 -0.3750382 23.96815 28.99283 0.3749619 23.96815 31.21652 -0.3750382 23.96815 31.21652 -0.3750382 23.96815 31.21652 0.3749619 23.96815 28.99283 -0.3750382 23.96815 28.99283 0.3749619 18.71815 -31.21649 0.375 23.96815 -28.9928 0.375 23.96815 -31.21649 0.375 23.96815 28.99283 0.3749619 23.96815 31.21652 0.3749619 18.71815 31.21652 0.3749619 28.27346 -28.9928 0.375 29.21096 -23.74998 0.3749924 29.21096 -28.04545 0.375 29.21096 23.75002 0.3749619 29.21096 28.04548 0.3749619 28.27346 28.99283 0.3749619 31.43465 23.75002 0.3749619 31.43465 -23.74998 0.3749924 29.21096 23.75002 0.3749619 29.21096 -23.74998 0.3749924 31.43465 23.75002 0.3749619 31.43465 -23.74998 0.3749924 23.96815 28.99283 0.3749619 23.96815 -28.9928 0.375 28.27346 28.99283 0.3749619 28.27346 -28.9928 0.375 29.21096 28.04548 0.3749619 29.21096 -28.04545 0.375 18.71815 31.21652 0.3749619 18.71815 -31.21649 0.375 23.96815 31.21652 0.3749619 23.96815 -31.21649 0.375 18.71815 31.21652 -0.3750382 18.71815 -31.21649 0.375 18.71815 -31.21649 -0.375 18.71815 31.21652 0.3749619 18.71815 31.21652 0.3749619 18.71815 31.21652 -0.3750382 18.71815 -31.21649 0.375 18.71815 -31.21649 -0.375 18.71815 -31.21649 0.375 23.96815 -31.21649 -0.375 18.71815 -31.21649 -0.375 23.96815 -31.21649 0.375 23.96815 -31.21649 0.375 18.71815 -31.21649 0.375 23.96815 -31.21649 -0.375 18.71815 -31.21649 -0.375 23.96815 -28.9928 0.375 23.96815 -31.21649 -0.375 23.96815 -31.21649 0.375 23.96815 -28.9928 -0.375 23.96815 -28.9928 -0.375 23.96815 -28.9928 0.375 23.96815 -31.21649 -0.375 23.96815 -31.21649 0.375 23.96815 -28.9928 0.375 28.27346 -28.9928 -0.375 23.96815 -28.9928 -0.375 28.27346 -28.9928 0.375 28.27346 -28.9928 0.375 23.96815 -28.9928 0.375 28.27346 -28.9928 -0.375 23.96815 -28.9928 -0.375 29.21096 -28.04545 0.375 28.27346 -28.9928 -0.375 28.27346 -28.9928 0.375 29.21096 -28.04545 -0.375 29.21096 -28.04545 -0.375 29.21096 -28.04545 0.375 28.27346 -28.9928 -0.375 28.27346 -28.9928 0.375 29.21096 -23.74998 0.3749924 29.21096 -28.04545 -0.375 29.21096 -28.04545 0.375 29.21096 -23.74998 -0.3750076 29.21096 -23.74998 -0.3750076 29.21096 -23.74998 0.3749924 29.21096 -28.04545 -0.375 29.21096 -28.04545 0.375 29.21096 -23.74998 0.3749924 31.43465 -23.74998 -0.3750076 29.21096 -23.74998 -0.3750076 31.43465 -23.74998 0.3749924 31.43465 -23.74998 0.3749924 29.21096 -23.74998 0.3749924 31.43465 -23.74998 -0.3750076 29.21096 -23.74998 -0.3750076 31.43465 23.75002 0.3749619 31.43465 -23.74998 -0.3750076 31.43465 -23.74998 0.3749924 31.43465 23.75002 -0.3750382 31.43465 23.75002 -0.3750382 31.43465 23.75002 0.3749619 31.43465 -23.74998 -0.3750076 31.43465 -23.74998 0.3749924 31.43465 23.75002 0.3749619 29.21096 23.75002 -0.3750382 31.43465 23.75002 -0.3750382 29.21096 23.75002 0.3749619 29.21096 23.75002 0.3749619 31.43465 23.75002 0.3749619 29.21096 23.75002 -0.3750382 31.43465 23.75002 -0.3750382 29.21096 28.04548 0.3749619 29.21096 23.75002 -0.3750382 29.21096 23.75002 0.3749619 29.21096 28.04548 -0.3750382 29.21096 28.04548 -0.3750382 29.21096 28.04548 0.3749619 29.21096 23.75002 -0.3750382 29.21096 23.75002 0.3749619 28.27346 28.99283 0.3749619 29.21096 28.04548 -0.3750382 29.21096 28.04548 0.3749619 28.27346 28.99283 -0.3750382 28.27346 28.99283 -0.3750382 28.27346 28.99283 0.3749619 29.21096 28.04548 -0.3750382 29.21096 28.04548 0.3749619 28.27346 28.99283 0.3749619 23.96815 28.99283 -0.3750382 28.27346 28.99283 -0.3750382 23.96815 28.99283 0.3749619 23.96815 28.99283 0.3749619 28.27346 28.99283 0.3749619 23.96815 28.99283 -0.3750382 28.27346 28.99283 -0.3750382 -18.64406 31.21652 0.3749619 -23.89406 31.21652 0.3749619 -18.64406 31.21652 -0.3750382 -23.89406 31.21652 -0.3750382 -23.89406 31.21652 0.3749619 -18.64406 31.21652 -0.3750382 -23.89406 31.21652 -0.3750382 -18.64406 31.21652 0.3749619 -29.13688 -23.74998 -0.3750076 -29.13688 23.75002 -0.3750382 -31.36057 -23.74998 -0.3750076 -31.36057 23.75002 -0.3750382 -23.89406 -28.9928 -0.375 -23.89406 28.99283 -0.3750382 -28.19938 -28.9928 -0.375 -28.19938 28.99283 -0.3750382 -29.13688 -28.04545 -0.375 -29.13688 28.04548 -0.3750382 -18.64406 -31.21649 -0.375 -18.64406 31.21652 -0.3750382 -23.89406 -31.21649 -0.375 -23.89406 31.21652 -0.3750382 -18.64406 31.21652 -0.3750382 -23.89406 28.99283 -0.3750382 -23.89406 31.21652 -0.3750382 -23.89406 -28.9928 -0.375 -23.89406 -31.21649 -0.375 -18.64406 -31.21649 -0.375 -28.19938 28.99283 -0.3750382 -29.13688 23.75002 -0.3750382 -29.13688 28.04548 -0.3750382 -29.13688 -23.74998 -0.3750076 -29.13688 -28.04545 -0.375 -28.19938 -28.9928 -0.375 -31.36057 -23.74998 -0.3750076 -31.36057 23.75002 -0.3750382 -23.89406 31.21652 -0.3750382 -23.89406 31.21652 0.3749619 -23.89406 28.99283 -0.3750382 -23.89406 28.99283 0.3749619 -23.89406 31.21652 0.3749619 -23.89406 28.99283 -0.3750382 -23.89406 28.99283 0.3749619 -23.89406 31.21652 -0.3750382 -29.13688 23.75002 0.3749619 -29.13688 -23.74998 0.3749924 -31.36057 23.75002 0.3749619 -31.36057 -23.74998 0.3749924 -23.89406 28.99283 0.3749619 -23.89406 -28.9928 0.375 -28.19938 28.99283 0.3749619 -28.19938 -28.9928 0.375 -29.13688 28.04548 0.3749619 -29.13688 -28.04545 0.375 -18.64406 31.21652 0.3749619 -18.64406 -31.21649 0.375 -23.89406 31.21652 0.3749619 -23.89406 -31.21649 0.375 -18.64406 -31.21649 0.375 -23.89406 -28.9928 0.375 -23.89406 -31.21649 0.375 -23.89406 28.99283 0.3749619 -23.89406 31.21652 0.3749619 -18.64406 31.21652 0.3749619 -28.19938 -28.9928 0.375 -29.13688 -23.74998 0.3749924 -29.13688 -28.04545 0.375 -29.13688 23.75002 0.3749619 -29.13688 28.04548 0.3749619 -28.19938 28.99283 0.3749619 -31.36057 23.75002 0.3749619 -31.36057 -23.74998 0.3749924 -18.64406 31.21652 0.3749619 -18.64406 31.21652 -0.3750382 -18.64406 -31.21649 0.375 -18.64406 -31.21649 -0.375 -18.64406 31.21652 -0.3750382 -18.64406 -31.21649 0.375 -18.64406 -31.21649 -0.375 -18.64406 31.21652 0.3749619 -23.89406 -31.21649 0.375 -18.64406 -31.21649 0.375 -23.89406 -31.21649 -0.375 -18.64406 -31.21649 -0.375 -18.64406 -31.21649 0.375 -23.89406 -31.21649 -0.375 -18.64406 -31.21649 -0.375 -23.89406 -31.21649 0.375 -23.89406 -28.9928 -0.375 -23.89406 -28.9928 0.375 -23.89406 -31.21649 -0.375 -23.89406 -31.21649 0.375 -23.89406 -28.9928 0.375 -23.89406 -31.21649 -0.375 -23.89406 -31.21649 0.375 -23.89406 -28.9928 -0.375 -28.19938 -28.9928 0.375 -23.89406 -28.9928 0.375 -28.19938 -28.9928 -0.375 -23.89406 -28.9928 -0.375 -23.89406 -28.9928 0.375 -28.19938 -28.9928 -0.375 -23.89406 -28.9928 -0.375 -28.19938 -28.9928 0.375 -29.13688 -28.04545 -0.375 -29.13688 -28.04545 0.375 -28.19938 -28.9928 -0.375 -28.19938 -28.9928 0.375 -29.13688 -28.04545 0.375 -28.19938 -28.9928 -0.375 -28.19938 -28.9928 0.375 -29.13688 -28.04545 -0.375 -29.13688 -23.74998 -0.3750076 -29.13688 -23.74998 0.3749924 -29.13688 -28.04545 -0.375 -29.13688 -28.04545 0.375 -29.13688 -23.74998 0.3749924 -29.13688 -28.04545 -0.375 -29.13688 -28.04545 0.375 -29.13688 -23.74998 -0.3750076 -31.36057 -23.74998 0.3749924 -29.13688 -23.74998 0.3749924 -31.36057 -23.74998 -0.3750076 -29.13688 -23.74998 -0.3750076 -29.13688 -23.74998 0.3749924 -31.36057 -23.74998 -0.3750076 -29.13688 -23.74998 -0.3750076 -31.36057 -23.74998 0.3749924 -31.36057 23.75002 -0.3750382 -31.36057 23.75002 0.3749619 -31.36057 -23.74998 -0.3750076 -31.36057 -23.74998 0.3749924 -31.36057 23.75002 0.3749619 -31.36057 -23.74998 -0.3750076 -31.36057 -23.74998 0.3749924 -31.36057 23.75002 -0.3750382 -29.13688 23.75002 0.3749619 -31.36057 23.75002 0.3749619 -29.13688 23.75002 -0.3750382 -31.36057 23.75002 -0.3750382 -31.36057 23.75002 0.3749619 -29.13688 23.75002 -0.3750382 -31.36057 23.75002 -0.3750382 -29.13688 23.75002 0.3749619 -29.13688 28.04548 -0.3750382 -29.13688 28.04548 0.3749619 -29.13688 23.75002 -0.3750382 -29.13688 23.75002 0.3749619 -29.13688 28.04548 0.3749619 -29.13688 23.75002 -0.3750382 -29.13688 23.75002 0.3749619 -29.13688 28.04548 -0.3750382 -28.19938 28.99283 -0.3750382 -28.19938 28.99283 0.3749619 -29.13688 28.04548 -0.3750382 -29.13688 28.04548 0.3749619 -28.19938 28.99283 0.3749619 -29.13688 28.04548 -0.3750382 -29.13688 28.04548 0.3749619 -28.19938 28.99283 -0.3750382 -23.89406 28.99283 0.3749619 -28.19938 28.99283 0.3749619 -23.89406 28.99283 -0.3750382 -28.19938 28.99283 -0.3750382 -28.19938 28.99283 0.3749619 -23.89406 28.99283 -0.3750382 -28.19938 28.99283 -0.3750382 -23.89406 28.99283 0.3749619</float_array>
          <technique_common>
            <accessor source="#ID2459_001-mesh-positions-array" count="624" stride="3">
              <param name="X" type="float"/>
              <param name="Y" type="float"/>
              <param name="Z" type="float"/>
            </accessor>
          </technique_common>
        </source>
        <source id="ID2459_001-mesh-normals">
          <float_array id="ID2459_001-mesh-normals-array" count="222">0 1 0 0 -1 0 0 0 1 0 0 -1 -1 0 0 1 0 0 2.88209e-7 6.57869e-7 1 -7.51544e-6 0 1 0 6.11006e-7 1 3.59786e-6 6.42475e-7 1 6.72568e-5 1.77615e-6 1 -7.01727e-7 6.57869e-7 1 0 6.5787e-7 1 0 6.57869e-7 1 0 6.42475e-7 1 0 -6.42475e-7 -1 0 -6.57869e-7 -1 0 -6.5787e-7 -1 7.01727e-7 -6.57869e-7 -1 -6.72568e-5 -1.77612e-6 -1 -3.58715e-6 -6.42475e-7 -1 0 -6.11006e-7 -1 7.51544e-6 0 -1 -2.84685e-7 -6.57869e-7 -1 2.75679e-7 -6.57869e-7 -1 -7.18868e-6 0 -1 1.83535e-6 -1.77615e-6 -1 -4.54016e-6 -6.42475e-7 -1 -4.07331e-5 0 -1 -6.31555e-7 -6.57869e-7 -1 0 -6.57869e-7 -1 0 6.57869e-7 1 6.31555e-7 6.57869e-7 1 4.07331e-5 0 1 4.55087e-6 6.42473e-7 1 -1.83535e-6 1.77615e-6 1 7.18868e-6 0 1 -2.7098e-7 6.57869e-7 1 0 1 -4.72557e-6 0 -1 4.72557e-6 -0.7107915 0.7034028 0 0.7107915 -0.7034028 0 -0.7107936 -0.7034007 0 0.7107936 0.7034007 0 0 6.42475e-7 1 0 6.57869e-7 1 7.01727e-7 6.57869e-7 1 -6.72569e-5 1.77618e-6 1 -3.58715e-6 6.42475e-7 1 7.51544e-6 0 1 -2.84685e-7 6.57869e-7 1 2.88209e-7 -6.57869e-7 -1 -7.51544e-6 0 -1 3.59786e-6 -6.42475e-7 -1 6.72569e-5 -1.77615e-6 -1 -7.01727e-7 -6.57869e-7 -1 0 -6.57869e-7 -1 0 -6.42475e-7 -1 4.07331e-5 0 -1 4.51874e-6 -6.42478e-7 -1 -1.83536e-6 -1.77615e-6 -1 7.18868e-6 0 -1 -2.78811e-7 -6.57869e-7 -1 2.75679e-7 6.57869e-7 1 -7.18868e-6 0 1 1.83536e-6 1.77615e-6 1 -4.54016e-6 6.42475e-7 1 -4.07331e-5 0 1 0.7107915 0.7034028 0 -0.7107915 -0.7034028 0 0 1 -4.57462e-6 0 -1 4.57462e-6 0.7107936 -0.7034007 0 -0.7107936 0.7034007 0</float_array>
          <technique_common>
            <accessor source="#ID2459_001-mesh-normals-array" count="74" stride="3">
              <param name="X" type="float"/>
              <param name="Y" type="float"/>
              <param name="Z" type="float"/>
            </accessor>
          </technique_common>
        </source>
        <source id="ID2459_001-mesh-map-0">
          <float_array id="ID2459_001-mesh-map-0-array" count="2112">0.008796155 -0.261 -0.05299997 -0.261 0.008796155 -0.2694268 -0.05299997 -0.2694268 0.008796155 -0.2694268 -0.05299997 -0.261 -0.05299997 -0.261 0.008796155 -0.2694268 -0.05299997 -0.2694268 0.008796155 -0.2694268 -0.05299997 -0.261 0.008796155 -0.261 0.274 -0.323 0.274 -1.024477 0.3357962 -0.323 0.3357962 -1.024477 0.3357962 -0.323 0.274 -1.024477 0.274 -1.024477 0.3357962 -0.323 0.3357962 -1.024477 0.3357962 -0.323 0.274 -1.024477 0.274 -0.323 -0.05299997 0.4404766 -0.06142669 0.4404766 -0.05299997 -0.261 -0.06142669 -0.261 -0.05299997 -0.261 -0.06142669 0.4404766 -0.06142669 0.4404766 -0.05299997 -0.261 -0.06142669 -0.261 -0.05299997 -0.261 -0.06142669 0.4404766 -0.05299997 0.4404766 -0.05299997 0.4404766 -0.05299997 -0.261 0.008796155 0.4404766 0.008796155 -0.261 0.008796155 0.4404766 -0.05299997 -0.261 -0.05299997 -0.261 0.008796155 0.4404766 0.008796155 -0.261 0.008796155 0.4404766 -0.05299997 -0.261 -0.05299997 0.4404766 0.01722288 0.4404766 0.008796155 0.4404766 0.01722288 -0.261 0.008796155 -0.261 0.01722288 -0.261 0.008796155 0.4404766 0.008796155 0.4404766 0.01722288 -0.261 0.008796155 -0.261 0.01722288 -0.261 0.008796155 0.4404766 0.01722288 0.4404766 -0.05299997 0.4404766 0.008796155 0.4404766 -0.05299997 0.4489034 0.008796155 0.4489034 -0.05299997 0.4489034 0.008796155 0.4404766 0.008796155 0.4404766 -0.05299997 0.4489034 0.008796155 0.4489034 -0.05299997 0.4489034 0.008796155 0.4404766 -0.05299997 0.4404766 0.06179612 -0.349 0 -0.349 0.06179612 -0.3574268 0 -0.3574268 0.06179612 -0.3574268 0 -0.349 0 -0.349 0.06179612 -0.3574268 0 -0.3574268 0.06179612 -0.3574268 0 -0.349 0.06179612 -0.349 0.134 -0.229 0.134 -0.9304766 0.1957962 -0.229 0.1957962 -0.9304766 0.1957962 -0.229 0.134 -0.9304766 0.134 -0.9304766 0.1957962 -0.229 0.1957962 -0.9304766 0.1957962 -0.229 0.134 -0.9304766 0.134 -0.229 0 0.3524766 -0.008426725 0.3524766 0 -0.349 -0.008426725 -0.349 0 -0.349 -0.008426725 0.3524766 -0.008426725 0.3524766 0 -0.349 -0.008426725 -0.349 0 -0.349 -0.008426725 0.3524766 0 0.3524766 0 0.3524766 0 -0.349 0.06179612 0.3524766 0.06179612 -0.349 0.06179612 0.3524766 0 -0.349 0 -0.349 0.06179612 0.3524766 0.06179612 -0.349 0.06179612 0.3524766 0 -0.349 0 0.3524766 0.07022291 0.3524766 0.06179612 0.3524766 0.07022291 -0.349 0.06179612 -0.349 0.07022291 -0.349 0.06179612 0.3524766 0.06179612 0.3524766 0.07022291 -0.349 0.06179612 -0.349 0.07022291 -0.349 0.06179612 0.3524766 0.07022291 0.3524766 0 0.3524766 0.06179612 0.3524766 0 0.3609034 0.06179612 0.3609034 0 0.3609034 0.06179612 0.3524766 0.06179612 0.3524766 0 0.3609034 0.06179612 0.3609034 0 0.3609034 0.06179612 0.3524766 0 0.3524766 -0.169 0.5134766 -0.1774268 0.5134766 -0.169 -0.188 -0.1774268 -0.188 -0.169 -0.188 -0.1774268 0.5134766 -0.1774268 0.5134766 -0.169 -0.188 -0.1774268 -0.188 -0.169 -0.188 -0.1774268 0.5134766 -0.169 0.5134766 0.06179612 -1.105477 0.06179612 -0.404 0 -1.105477 0 -0.404 0 -1.105477 0.06179612 -0.404 0.06179612 -0.404 0 -1.105477 0 -0.404 0 -1.105477 0.06179612 -0.404 0.06179612 -1.105477 -0.169 0.5134766 -0.1072038 0.5134766 -0.169 0.5219034 -0.1072038 0.5219034 -0.169 0.5219034 -0.1072038 0.5134766 -0.1072038 0.5134766 -0.169 0.5219034 -0.1072038 0.5219034 -0.169 0.5219034 -0.1072038 0.5134766 -0.169 0.5134766 -0.169 0.5134766 -0.169 -0.188 -0.1072038 0.5134766 -0.1072038 -0.188 -0.1072038 0.5134766 -0.169 -0.188 -0.169 -0.188 -0.1072038 0.5134766 -0.1072038 -0.188 -0.1072038 0.5134766 -0.169 -0.188 -0.169 0.5134766 -0.1072038 -0.188 -0.169 -0.188 -0.1072038 -0.1964268 -0.169 -0.1964268 -0.1072038 -0.1964268 -0.169 -0.188 -0.169 -0.188 -0.1072038 -0.1964268 -0.169 -0.1964268 -0.1072038 -0.1964268 -0.169 -0.188 -0.1072038 -0.188 -0.09877705 0.5134766 -0.1072038 0.5134766 -0.09877705 -0.188 -0.1072038 -0.188 -0.09877705 -0.188 -0.1072038 0.5134766 -0.1072038 0.5134766 -0.09877705 -0.188 -0.1072038 -0.188 -0.09877705 -0.188 -0.1072038 0.5134766 -0.09877705 0.5134766 -0.208 0.5984766 -0.2164268 0.5984766 -0.208 -0.103 -0.2164268 -0.103 -0.208 -0.103 -0.2164268 0.5984766 -0.2164268 0.5984766 -0.208 -0.103 -0.2164268 -0.103 -0.208 -0.103 -0.2164268 0.5984766 -0.208 0.5984766 0.07599997 -0.323 0.07599997 -1.024477 0.1377962 -0.323 0.1377962 -1.024477 0.1377962 -0.323 0.07599997 -1.024477 0.07599997 -1.024477 0.1377962 -0.323 0.1377962 -1.024477 0.1377962 -0.323 0.07599997 -1.024477 0.07599997 -0.323 -0.208 0.5984766 -0.1462038 0.5984766 -0.208 0.6069034 -0.1462038 0.6069034 -0.208 0.6069034 -0.1462038 0.5984766 -0.1462038 0.5984766 -0.208 0.6069034 -0.1462038 0.6069034 -0.208 0.6069034 -0.1462038 0.5984766 -0.208 0.5984766 -0.208 0.5984766 -0.208 -0.103 -0.1462038 0.5984766 -0.1462038 -0.103 -0.1462038 0.5984766 -0.208 -0.103 -0.208 -0.103 -0.1462038 0.5984766 -0.1462038 -0.103 -0.1462038 0.5984766 -0.208 -0.103 -0.208 0.5984766 -0.1462038 -0.103 -0.208 -0.103 -0.1462038 -0.1114268 -0.208 -0.1114268 -0.1462038 -0.1114268 -0.208 -0.103 -0.208 -0.103 -0.1462038 -0.1114268 -0.208 -0.1114268 -0.1462038 -0.1114268 -0.208 -0.103 -0.1462038 -0.103 -0.1377771 0.5984766 -0.1462038 0.5984766 -0.1377771 -0.103 -0.1462038 -0.103 -0.1377771 -0.103 -0.1462038 0.5984766 -0.1462038 0.5984766 -0.1377771 -0.103 -0.1462038 -0.103 -0.1377771 -0.103 -0.1462038 0.5984766 -0.1377771 0.5984766 0.7318661 -0.203162 0.7318661 0.4983147 0.6700699 -0.203162 0.6700699 0.4983147 0.6700699 -0.203162 0.7318661 0.4983147 0.7318661 0.4983147 0.6700699 -0.203162 0.6700699 0.4983147 0.6700699 -0.203162 0.7318661 0.4983147 0.7318661 -0.203162 0.2042229 0.8354766 0.1957962 0.8354766 0.2042229 0.134 0.1957962 0.134 0.2042229 0.134 0.1957962 0.8354766 0.1957962 0.8354766 0.2042229 0.134 0.1957962 0.134 0.2042229 0.134 0.1957962 0.8354766 0.2042229 0.8354766 0.134 0.8354766 0.1957962 0.8354766 0.134 0.8439034 0.1957962 0.8439034 0.134 0.8439034 0.1957962 0.8354766 0.1957962 0.8354766 0.134 0.8439034 0.1957962 0.8439034 0.134 0.8439034 0.1957962 0.8354766 0.134 0.8354766 0.134 0.8354766 0.1255732 0.8354766 0.134 0.134 0.1255732 0.134 0.134 0.134 0.1255732 0.8354766 0.1255732 0.8354766 0.134 0.134 0.1255732 0.134 0.134 0.134 0.1255732 0.8354766 0.134 0.8354766 0.1957962 0.134 0.134 0.134 0.1957962 0.1255732 0.134 0.1255732 0.1957962 0.1255732 0.134 0.134 0.134 0.134 0.1957962 0.1255732 0.134 0.1255732 0.1957962 0.1255732 0.134 0.134 0.1957962 0.134 0.134 0.8354766 0.134 0.134 0.1957962 0.8354766 0.1957962 0.134 0.1957962 0.8354766 0.134 0.134 0.134 0.134 0.1957962 0.8354766 0.1957962 0.134 0.1957962 0.8354766 0.134 0.134 0.134 0.8354766 0.2497962 0.03299999 0.188 0.03299999 0.2497962 0.0245732 0.188 0.0245732 0.2497962 0.0245732 0.188 0.03299999 0.188 0.03299999 0.2497962 0.0245732 0.188 0.0245732 0.2497962 0.0245732 0.188 0.03299999 0.2497962 0.03299999 0.1507962 -1.560477 0.1507962 -0.859 0.08899998 -1.560477 0.08899998 -0.859 0.08899998 -1.560477 0.1507962 -0.859 0.1507962 -0.859 0.08899998 -1.560477 0.08899998 -0.859 0.08899998 -1.560477 0.1507962 -0.859 0.1507962 -1.560477 0.188 0.7344766 0.1795732 0.7344766 0.188 0.03299999 0.1795732 0.03299999 0.188 0.03299999 0.1795732 0.7344766 0.1795732 0.7344766 0.188 0.03299999 0.1795732 0.03299999 0.188 0.03299999 0.1795732 0.7344766 0.188 0.7344766 0.188 0.7344766 0.188 0.03299999 0.2497962 0.7344766 0.2497962 0.03299999 0.2497962 0.7344766 0.188 0.03299999 0.188 0.03299999 0.2497962 0.7344766 0.2497962 0.03299999 0.2497962 0.7344766 0.188 0.03299999 0.188 0.7344766 0.2582229 0.7344766 0.2497962 0.7344766 0.2582229 0.03299999 0.2497962 0.03299999 0.2582229 0.03299999 0.2497962 0.7344766 0.2497962 0.7344766 0.2582229 0.03299999 0.2497962 0.03299999 0.2582229 0.03299999 0.2497962 0.7344766 0.2582229 0.7344766 0.188 0.7344766 0.2497962 0.7344766 0.188 0.7429034 0.2497962 0.7429034 0.188 0.7429034 0.2497962 0.7344766 0.2497962 0.7344766 0.188 0.7429034 0.2497962 0.7429034 0.188 0.7429034 0.2497962 0.7344766 0.188 0.7344766 0.05898725 0.7014766 0 0.7099034 0.05898725 0.7099034 0 0.7099034 0.05898725 0.7014766 0 0.7014766 0 0.7014766 0.05898725 0.7014766 0 0.7099034 0.05898725 0.7099034 0 0.7099034 0.05898725 0.7014766 0.05898725 0.7014766 0 0.676492 0 0.7014766 0 0.676492 0.05898725 0.7014766 0 0.02498465 0 0.02498465 0.05898725 0.7014766 0 0 0 0 0.05898725 0.7014766 0.05898725 0 -0.04837304 0.676492 -0.05890649 0.6175854 -0.05890649 0.6658479 -0.05890649 0.6175854 -0.04837304 0.676492 -0.05890649 0.08389115 -0.05890649 0.08389115 -0.04837304 0.676492 -0.05890649 0.03562867 -0.05890649 0.03562867 -0.04837304 0.676492 -0.04837304 0.02498465 -0.04837304 0.02498465 -0.04837304 0.676492 0 0.676492 -0.04837304 0.02498465 0 0.676492 0 0.02498465 -0.05890649 0.6175854 -0.08389115 0.08389115 -0.08389115 0.6175854 -0.08389115 0.08389115 -0.05890649 0.6175854 -0.05890649 0.08389115 -0.05890649 0.08389115 -0.05890649 0.6175854 -0.08389115 0.08389115 -0.08389115 0.6175854 -0.08389115 0.08389115 -0.05890649 0.6175854 0 0.02498465 0 0.676492 -0.04837304 0.02498465 0 0.676492 -0.04837304 0.676492 -0.04837304 0.02498465 -0.04837304 0.02498465 -0.04837304 0.676492 -0.05890649 0.03562867 -0.05890649 0.03562867 -0.04837304 0.676492 -0.05890649 0.08389115 -0.05890649 0.08389115 -0.04837304 0.676492 -0.05890649 0.6175854 -0.05890649 0.6658479 -0.05890649 0.6175854 -0.04837304 0.676492 0.05898725 0 0.05898725 0.7014766 0 0 0 0 0.05898725 0.7014766 0 0.02498465 0 0.02498465 0.05898725 0.7014766 0 0.676492 0 0.7014766 0 0.676492 0.05898725 0.7014766 0.05898725 0.7014766 0.06741398 0.676492 0.05898725 0.676492 0.06741398 0.676492 0.05898725 0.7014766 0.06741398 0.7014766 0.06741398 0.7014766 0.05898725 0.7014766 0.06741398 0.676492 0.05898725 0.676492 0.06741398 0.676492 0.05898725 0.7014766 0 0 0.05898725 0.02498465 0.05898725 0 0.05898725 0.02498465 0 0 0.05898725 0.676492 0.05898725 0.676492 0 0 0.05898725 0.7014766 0.05898725 0.7014766 0 0 0 0.7014766 0.1073604 0.02498465 0.1178938 0.08389115 0.1178938 0.03562867 0.1178938 0.08389115 0.1073604 0.02498465 0.1178938 0.6175854 0.1178938 0.6175854 0.1073604 0.02498465 0.1178938 0.6658479 0.1178938 0.6658479 0.1073604 0.02498465 0.1073604 0.676492 0.1073604 0.676492 0.1073604 0.02498465 0.05898725 0.02498465 0.1073604 0.676492 0.05898725 0.02498465 0.05898725 0.676492 0.1178938 0.08389115 0.1428784 0.6175854 0.1428784 0.08389115 0.1428784 0.6175854 0.1178938 0.08389115 0.1178938 0.6175854 0.1178938 0.6175854 0.1178938 0.08389115 0.1428784 0.6175854 0.1428784 0.08389115 0.1428784 0.6175854 0.1178938 0.08389115 0.05898725 0.676492 0.05898725 0.02498465 0.1073604 0.676492 0.05898725 0.02498465 0.1073604 0.02498465 0.1073604 0.676492 0.1073604 0.676492 0.1073604 0.02498465 0.1178938 0.6658479 0.1178938 0.6658479 0.1073604 0.02498465 0.1178938 0.6175854 0.1178938 0.6175854 0.1073604 0.02498465 0.1178938 0.08389115 0.1178938 0.03562867 0.1178938 0.08389115 0.1073604 0.02498465 0 0.7014766 0 0 0.05898725 0.7014766 0.05898725 0.7014766 0 0 0.05898725 0.676492 0.05898725 0.676492 0 0 0.05898725 0.02498465 0.05898725 0 0.05898725 0.02498465 0 0 -0.008426725 0.7014766 0 0 -0.008426725 0 0 0 -0.008426725 0.7014766 0 0.7014766 0 0.7014766 -0.008426725 0.7014766 0 0 -0.008426725 0 0 0 -0.008426725 0.7014766 0 0 0.05898725 -0.008426725 0 -0.008426725 0.05898725 -0.008426725 0 0 0.05898725 0 0.05898725 0 0 0 0.05898725 -0.008426725 0 -0.008426725 0.05898725 -0.008426725 0 0 0.05898725 0.02498465 0.06741398 0 0.05898725 0 0.06741398 0 0.05898725 0.02498465 0.06741398 0.02498465 0.06741398 0.02498465 0.05898725 0.02498465 0.06741398 0 0.05898725 0 0.06741398 0 0.05898725 0.02498465 0.05898725 0.02498465 0.1073604 0.01655787 0.05898725 0.01655787 0.1073604 0.01655787 0.05898725 0.02498465 0.1073604 0.02498465 0.1073604 0.02498465 0.05898725 0.02498465 0.1073604 0.01655787 0.05898725 0.01655787 0.1073604 0.01655787 0.05898725 0.02498465 0.1178938 0.03562867 0.11335 0.01905721 0.1073604 0.02498465 0.11335 0.01905721 0.1178938 0.03562867 0.1238834 0.02970129 0.1238834 0.02970129 0.1178938 0.03562867 0.11335 0.01905721 0.1073604 0.02498465 0.11335 0.01905721 0.1178938 0.03562867 0.1178938 0.08389115 0.1263205 0.03562867 0.1178938 0.03562867 0.1263205 0.03562867 0.1178938 0.08389115 0.1263205 0.08389115 0.1263205 0.08389115 0.1178938 0.08389115 0.1263205 0.03562867 0.1178938 0.03562867 0.1263205 0.03562867 0.1178938 0.08389115 0.1178938 0.08389115 0.1428784 0.07546442 0.1178938 0.07546442 0.1428784 0.07546442 0.1178938 0.08389115 0.1428784 0.08389115 0.1428784 0.08389115 0.1178938 0.08389115 0.1428784 0.07546442 0.1178938 0.07546442 0.1428784 0.07546442 0.1178938 0.08389115 0.1428784 0.6175854 0.1513051 0.08389115 0.1428784 0.08389115 0.1513051 0.08389115 0.1428784 0.6175854 0.1513051 0.6175854 0.1513051 0.6175854 0.1428784 0.6175854 0.1513051 0.08389115 0.1428784 0.08389115 0.1513051 0.08389115 0.1428784 0.6175854 0.1428784 0.6175854 0.1178938 0.6260122 0.1428784 0.6260122 0.1178938 0.6260122 0.1428784 0.6175854 0.1178938 0.6175854 0.1178938 0.6175854 0.1428784 0.6175854 0.1178938 0.6260122 0.1428784 0.6260122 0.1178938 0.6260122 0.1428784 0.6175854 0.1178938 0.6658479 0.1263205 0.6175854 0.1178938 0.6175854 0.1263205 0.6175854 0.1178938 0.6658479 0.1263205 0.6658479 0.1263205 0.6658479 0.1178938 0.6658479 0.1263205 0.6175854 0.1178938 0.6175854 0.1263205 0.6175854 0.1178938 0.6658479 0.1073604 0.676492 0.1238834 0.6717753 0.1178938 0.6658479 0.1238834 0.6717753 0.1073604 0.676492 0.11335 0.6824194 0.11335 0.6824194 0.1073604 0.676492 0.1238834 0.6717753 0.1178938 0.6658479 0.1238834 0.6717753 0.1073604 0.676492 0.1073604 0.676492 0.05898725 0.6849187 0.1073604 0.6849187 0.05898725 0.6849187 0.1073604 0.676492 0.05898725 0.676492 0.05898725 0.676492 0.1073604 0.676492 0.05898725 0.6849187 0.1073604 0.6849187 0.05898725 0.6849187 0.1073604 0.676492 0 0.7014766 0.05898725 0.7014766 0 0.7099034 0.05898725 0.7099034 0 0.7099034 0.05898725 0.7014766 0.05898725 0.7014766 0 0.7099034 0.05898725 0.7099034 0 0.7099034 0.05898725 0.7014766 0 0.7014766 -0.05890649 0.08389115 -0.05890649 0.6175854 -0.08389115 0.08389115 -0.08389115 0.6175854 -0.08389115 0.08389115 -0.05890649 0.6175854 0 0.02498465 0 0.676492 -0.04837304 0.02498465 0 0.676492 -0.04837304 0.676492 -0.04837304 0.02498465 -0.04837304 0.02498465 -0.04837304 0.676492 -0.05890649 0.03562867 -0.05890649 0.03562867 -0.04837304 0.676492 -0.05890649 0.08389115 -0.05890649 0.08389115 -0.04837304 0.676492 -0.05890649 0.6175854 -0.05890649 0.6658479 -0.05890649 0.6175854 -0.04837304 0.676492 0.05898725 0 0.05898725 0.7014766 0 0 0 0 0.05898725 0.7014766 0 0.02498465 0 0.02498465 0.05898725 0.7014766 0 0.676492 0 0.7014766 0 0.676492 0.05898725 0.7014766 0.05898725 0.7014766 0 0.676492 0 0.7014766 0 0.676492 0.05898725 0.7014766 0 0.02498465 0 0.02498465 0.05898725 0.7014766 0 0 0 0 0.05898725 0.7014766 0.05898725 0 -0.04837304 0.676492 -0.05890649 0.6175854 -0.05890649 0.6658479 -0.05890649 0.6175854 -0.04837304 0.676492 -0.05890649 0.08389115 -0.05890649 0.08389115 -0.04837304 0.676492 -0.05890649 0.03562867 -0.05890649 0.03562867 -0.04837304 0.676492 -0.04837304 0.02498465 -0.04837304 0.02498465 -0.04837304 0.676492 0 0.676492 -0.04837304 0.02498465 0 0.676492 0 0.02498465 -0.05890649 0.6175854 -0.08389115 0.08389115 -0.08389115 0.6175854 -0.08389115 0.08389115 -0.05890649 0.6175854 -0.05890649 0.08389115 0.06741398 0.7014766 0.05898725 0.7014766 0.06741398 0.676492 0.05898725 0.676492 0.06741398 0.676492 0.05898725 0.7014766 0.05898725 0.7014766 0.06741398 0.676492 0.05898725 0.676492 0.06741398 0.676492 0.05898725 0.7014766 0.06741398 0.7014766 0.1178938 0.6175854 0.1178938 0.08389115 0.1428784 0.6175854 0.1428784 0.08389115 0.1428784 0.6175854 0.1178938 0.08389115 0.05898725 0.676492 0.05898725 0.02498465 0.1073604 0.676492 0.05898725 0.02498465 0.1073604 0.02498465 0.1073604 0.676492 0.1073604 0.676492 0.1073604 0.02498465 0.1178938 0.6658479 0.1178938 0.6658479 0.1073604 0.02498465 0.1178938 0.6175854 0.1178938 0.6175854 0.1073604 0.02498465 0.1178938 0.08389115 0.1178938 0.03562867 0.1178938 0.08389115 0.1073604 0.02498465 0 0.7014766 0 0 0.05898725 0.7014766 0.05898725 0.7014766 0 0 0.05898725 0.676492 0.05898725 0.676492 0 0 0.05898725 0.02498465 0.05898725 0 0.05898725 0.02498465 0 0 0 0 0.05898725 0.02498465 0.05898725 0 0.05898725 0.02498465 0 0 0.05898725 0.676492 0.05898725 0.676492 0 0 0.05898725 0.7014766 0.05898725 0.7014766 0 0 0 0.7014766 0.1073604 0.02498465 0.1178938 0.08389115 0.1178938 0.03562867 0.1178938 0.08389115 0.1073604 0.02498465 0.1178938 0.6175854 0.1178938 0.6175854 0.1073604 0.02498465 0.1178938 0.6658479 0.1178938 0.6658479 0.1073604 0.02498465 0.1073604 0.676492 0.1073604 0.676492 0.1073604 0.02498465 0.05898725 0.02498465 0.1073604 0.676492 0.05898725 0.02498465 0.05898725 0.676492 0.1178938 0.08389115 0.1428784 0.6175854 0.1428784 0.08389115 0.1428784 0.6175854 0.1178938 0.08389115 0.1178938 0.6175854 0 0.7014766 -0.008426725 0.7014766 0 0 -0.008426725 0 0 0 -0.008426725 0.7014766 -0.008426725 0.7014766 0 0 -0.008426725 0 0 0 -0.008426725 0.7014766 0 0.7014766 0.05898725 0 0 0 0.05898725 -0.008426725 0 -0.008426725 0.05898725 -0.008426725 0 0 0 0 0.05898725 -0.008426725 0 -0.008426725 0.05898725 -0.008426725 0 0 0.05898725 0 0.06741398 0.02498465 0.05898725 0.02498465 0.06741398 0 0.05898725 0 0.06741398 0 0.05898725 0.02498465 0.05898725 0.02498465 0.06741398 0 0.05898725 0 0.06741398 0 0.05898725 0.02498465 0.06741398 0.02498465 0.1073604 0.02498465 0.05898725 0.02498465 0.1073604 0.01655787 0.05898725 0.01655787 0.1073604 0.01655787 0.05898725 0.02498465 0.05898725 0.02498465 0.1073604 0.01655787 0.05898725 0.01655787 0.1073604 0.01655787 0.05898725 0.02498465 0.1073604 0.02498465 0.1238834 0.02970129 0.1178938 0.03562867 0.11335 0.01905721 0.1073604 0.02498465 0.11335 0.01905721 0.1178938 0.03562867 0.1178938 0.03562867 0.11335 0.01905721 0.1073604 0.02498465 0.11335 0.01905721 0.1178938 0.03562867 0.1238834 0.02970129 0.1263205 0.08389115 0.1178938 0.08389115 0.1263205 0.03562867 0.1178938 0.03562867 0.1263205 0.03562867 0.1178938 0.08389115 0.1178938 0.08389115 0.1263205 0.03562867 0.1178938 0.03562867 0.1263205 0.03562867 0.1178938 0.08389115 0.1263205 0.08389115 0.1428784 0.08389115 0.1178938 0.08389115 0.1428784 0.07546442 0.1178938 0.07546442 0.1428784 0.07546442 0.1178938 0.08389115 0.1178938 0.08389115 0.1428784 0.07546442 0.1178938 0.07546442 0.1428784 0.07546442 0.1178938 0.08389115 0.1428784 0.08389115 0.1513051 0.6175854 0.1428784 0.6175854 0.1513051 0.08389115 0.1428784 0.08389115 0.1513051 0.08389115 0.1428784 0.6175854 0.1428784 0.6175854 0.1513051 0.08389115 0.1428784 0.08389115 0.1513051 0.08389115 0.1428784 0.6175854 0.1513051 0.6175854 0.1178938 0.6175854 0.1428784 0.6175854 0.1178938 0.6260122 0.1428784 0.6260122 0.1178938 0.6260122 0.1428784 0.6175854 0.1428784 0.6175854 0.1178938 0.6260122 0.1428784 0.6260122 0.1178938 0.6260122 0.1428784 0.6175854 0.1178938 0.6175854 0.1263205 0.6658479 0.1178938 0.6658479 0.1263205 0.6175854 0.1178938 0.6175854 0.1263205 0.6175854 0.1178938 0.6658479 0.1178938 0.6658479 0.1263205 0.6175854 0.1178938 0.6175854 0.1263205 0.6175854 0.1178938 0.6658479 0.1263205 0.6658479 0.11335 0.6824194 0.1073604 0.676492 0.1238834 0.6717753 0.1178938 0.6658479 0.1238834 0.6717753 0.1073604 0.676492 0.1073604 0.676492 0.1238834 0.6717753 0.1178938 0.6658479 0.1238834 0.6717753 0.1073604 0.676492 0.11335 0.6824194 0.05898725 0.676492 0.1073604 0.676492 0.05898725 0.6849187 0.1073604 0.6849187 0.05898725 0.6849187 0.1073604 0.676492 0.1073604 0.676492 0.05898725 0.6849187 0.1073604 0.6849187 0.05898725 0.6849187 0.1073604 0.676492 0.05898725 0.676492</float_array>
          <technique_common>
            <accessor source="#ID2459_001-mesh-map-0-array" count="1056" stride="2">
              <param name="S" type="float"/>
              <param name="T" type="float"/>
            </accessor>
          </technique_common>
        </source>
        <vertices id="ID2459_001-mesh-vertices">
          <input semantic="POSITION" source="#ID2459_001-mesh-positions"/>
        </vertices>
        <triangles material="Wood05-basecolor-material" count="352">
          <input semantic="VERTEX" source="#ID2459_001-mesh-vertices" offset="0"/>
          <input semantic="NORMAL" source="#ID2459_001-mesh-normals" offset="1"/>
          <input semantic="TEXCOORD" source="#ID2459_001-mesh-map-0" offset="2" set="0"/>
          <p>0 0 0 1 0 1 2 0 2 3 0 3 2 0 4 1 0 5 4 1 6 5 1 7 6 1 8 5 1 9 4 1 10 7 1 11 8 2 12 9 2 13 10 2 14 11 2 15 10 2 16 9 2 17 12 3 18 13 3 19 14 3 20 13 3 21 12 3 22 15 3 23 16 4 24 17 4 25 18 4 26 19 4 27 18 4 28 17 4 29 20 5 30 21 5 31 22 5 32 21 5 33 20 5 34 23 5 35 24 3 36 25 3 37 26 3 38 27 3 39 26 3 40 25 3 41 28 2 42 29 2 43 30 2 44 29 2 45 28 2 46 31 2 47 32 5 48 33 5 49 34 5 50 35 5 51 34 5 52 33 5 53 36 4 54 37 4 55 38 4 56 37 4 57 36 4 58 39 4 59 40 1 60 41 1 61 42 1 62 43 1 63 42 1 64 41 1 65 44 0 66 45 0 67 46 0 68 45 0 69 44 0 70 47 0 71 48 0 72 49 0 73 50 0 74 51 0 75 50 0 76 49 0 77 52 1 78 53 1 79 54 1 80 53 1 81 52 1 82 55 1 83 56 2 84 57 2 85 58 2 86 59 2 87 58 2 88 57 2 89 60 3 90 61 3 91 62 3 92 61 3 93 60 3 94 63 3 95 64 4 96 65 4 97 66 4 98 67 4 99 66 4 100 65 4 101 68 5 102 69 5 103 70 5 104 69 5 105 68 5 106 71 5 107 72 3 108 73 3 109 74 3 110 75 3 111 74 3 112 73 3 113 76 2 114 77 2 115 78 2 116 77 2 117 76 2 118 79 2 119 80 5 120 81 5 121 82 5 122 83 5 123 82 5 124 81 5 125 84 4 126 85 4 127 86 4 128 85 4 129 84 4 130 87 4 131 88 1 132 89 1 133 90 1 134 91 1 135 90 1 136 89 1 137 92 0 138 93 0 139 94 0 140 93 0 141 92 0 142 95 0 143 96 4 144 97 4 145 98 4 146 99 4 147 98 4 148 97 4 149 100 5 150 101 5 151 102 5 152 101 5 153 100 5 154 103 5 155 104 2 156 105 2 157 106 2 158 107 2 159 106 2 160 105 2 161 108 3 162 109 3 163 110 3 164 109 3 165 108 3 166 111 3 167 112 1 168 113 1 169 114 1 170 115 1 171 114 1 172 113 1 173 116 0 174 117 0 175 118 0 176 117 0 177 116 0 178 119 0 179 120 3 180 121 3 181 122 3 182 123 3 183 122 3 184 121 3 185 124 2 186 125 2 187 126 2 188 125 2 189 124 2 190 127 2 191 128 0 192 129 0 193 130 0 194 131 0 195 130 0 196 129 0 197 132 1 198 133 1 199 134 1 200 133 1 201 132 1 202 135 1 203 136 5 204 137 5 205 138 5 206 139 5 207 138 5 208 137 5 209 140 4 210 141 4 211 142 4 212 141 4 213 140 4 214 143 4 215 144 4 216 145 4 217 146 4 218 147 4 219 146 4 220 145 4 221 148 5 222 149 5 223 150 5 224 149 5 225 148 5 226 151 5 227 152 2 228 153 2 229 154 2 230 155 2 231 154 2 232 153 2 233 156 3 234 157 3 235 158 3 236 157 3 237 156 3 238 159 3 239 160 1 240 161 1 241 162 1 242 163 1 243 162 1 244 161 1 245 164 0 246 165 0 247 166 0 248 165 0 249 164 0 250 167 0 251 168 3 252 169 3 253 170 3 254 171 3 255 170 3 256 169 3 257 172 2 258 173 2 259 174 2 260 173 2 261 172 2 262 175 2 263 176 0 264 177 0 265 178 0 266 179 0 267 178 0 268 177 0 269 180 1 270 181 1 271 182 1 272 181 1 273 180 1 274 183 1 275 184 5 276 185 5 277 186 5 278 187 5 279 186 5 280 185 5 281 188 4 282 189 4 283 190 4 284 189 4 285 188 4 286 191 4 287 192 2 288 193 2 289 194 2 290 195 2 291 194 2 292 193 2 293 196 3 294 197 3 295 198 3 296 197 3 297 196 3 298 199 3 299 200 5 300 201 5 301 202 5 302 203 5 303 202 5 304 201 5 305 204 4 306 205 4 307 206 4 308 205 4 309 204 4 310 207 4 311 208 1 312 209 1 313 210 1 314 211 1 315 210 1 316 209 1 317 212 0 318 213 0 319 214 0 320 213 0 321 212 0 322 215 0 323 216 4 324 217 4 325 218 4 326 219 4 327 218 4 328 217 4 329 220 5 330 221 5 331 222 5 332 221 5 333 220 5 334 223 5 335 224 0 336 225 0 337 226 0 338 227 0 339 226 0 340 225 0 341 228 1 342 229 1 343 230 1 344 229 1 345 228 1 346 231 1 347 232 3 348 233 3 349 234 3 350 235 3 351 234 3 352 233 3 353 236 2 354 237 2 355 238 2 356 237 2 357 236 2 358 239 2 359 240 0 360 241 0 361 242 0 362 243 0 363 242 0 364 241 0 365 244 1 366 245 1 367 246 1 368 245 1 369 244 1 370 247 1 371 248 2 372 249 2 373 250 2 374 251 2 375 250 2 376 249 2 377 252 3 378 253 3 379 254 3 380 253 3 381 252 3 382 255 3 383 256 4 384 257 4 385 258 4 386 259 4 387 258 4 388 257 4 389 260 5 390 261 5 391 262 5 392 261 5 393 260 5 394 263 5 395 264 3 396 265 3 397 266 3 398 267 3 399 266 3 400 265 3 401 268 2 402 269 2 403 270 2 404 269 2 405 268 2 406 271 2 407 272 5 408 273 5 409 274 5 410 275 5 411 274 5 412 273 5 413 276 4 414 277 4 415 278 4 416 277 4 417 276 4 418 279 4 419 280 1 420 281 1 421 282 1 422 283 1 423 282 1 424 281 1 425 284 0 426 285 0 427 286 0 428 285 0 429 284 0 430 287 0 431 288 1 432 289 1 433 290 1 434 289 1 435 288 1 436 291 1 437 292 0 438 293 0 439 294 0 440 295 0 441 294 0 442 293 0 443 296 2 444 297 2 445 298 2 446 297 6 447 296 6 448 299 6 449 299 7 450 296 7 451 300 7 452 300 8 453 296 8 454 301 8 455 302 2 456 303 2 457 304 2 458 303 9 459 302 9 460 305 9 461 305 10 462 302 10 463 306 10 464 306 11 465 302 11 466 307 11 467 307 12 468 302 12 469 297 12 470 307 13 471 297 13 472 299 13 473 303 14 474 308 14 475 309 14 476 308 14 477 303 14 478 305 14 479 310 15 480 311 15 481 312 15 482 313 15 483 312 15 484 311 15 485 314 16 486 315 16 487 316 16 488 315 17 489 317 17 490 316 17 491 316 18 492 317 18 493 318 18 494 318 19 495 317 19 496 310 19 497 310 20 498 317 20 499 311 20 500 319 3 501 311 3 502 317 3 503 320 21 504 321 21 505 322 21 506 322 22 507 321 22 508 314 22 509 314 23 510 321 23 511 315 23 512 323 3 513 315 3 514 321 3 515 324 4 516 325 4 517 326 4 518 325 4 519 324 4 520 327 4 521 328 5 522 329 5 523 330 5 524 331 5 525 330 5 526 329 5 527 332 3 528 333 3 529 334 3 530 333 24 531 332 24 532 335 24 533 335 25 534 332 25 535 336 25 536 336 21 537 332 21 538 337 21 539 338 26 540 339 26 541 340 26 542 339 27 543 338 27 544 341 27 545 341 28 546 338 28 547 342 28 548 342 29 549 338 29 550 343 29 551 343 17 552 338 17 553 333 17 554 343 30 555 333 30 556 335 30 557 339 15 558 344 15 559 345 15 560 344 15 561 339 15 562 341 15 563 346 14 564 347 14 565 348 14 566 349 14 567 348 14 568 347 14 569 350 31 570 351 31 571 352 31 572 351 12 573 353 12 574 352 12 575 352 32 576 353 32 577 354 32 578 354 33 579 353 33 580 346 33 581 346 34 582 353 34 583 347 34 584 355 35 585 347 35 586 353 35 587 356 8 588 357 8 589 358 8 590 358 36 591 357 36 592 350 36 593 350 37 594 357 37 595 351 37 596 359 2 597 351 2 598 357 2 599 360 5 600 361 5 601 362 5 602 361 5 603 360 5 604 363 5 605 364 4 606 365 4 607 366 4 608 367 4 609 366 4 610 365 4 611 368 0 612 369 0 613 370 0 614 369 0 615 368 0 616 371 0 617 372 1 618 373 1 619 374 1 620 375 1 621 374 1 622 373 1 623 376 4 624 377 4 625 378 4 626 377 4 627 376 4 628 379 4 629 380 5 630 381 5 631 382 5 632 383 5 633 382 5 634 381 5 635 384 0 636 385 0 637 386 0 638 385 38 639 384 38 640 387 38 641 388 39 642 389 39 643 390 39 644 391 1 645 390 1 646 389 1 647 392 40 648 393 40 649 394 40 650 393 40 651 392 40 652 395 40 653 396 41 654 397 41 655 398 41 656 399 41 657 398 41 658 397 41 659 400 4 660 401 4 661 402 4 662 401 4 663 400 4 664 403 4 665 404 5 666 405 5 667 406 5 668 407 5 669 406 5 670 405 5 671 408 0 672 409 0 673 410 0 674 409 0 675 408 0 676 411 0 677 412 1 678 413 1 679 414 1 680 415 1 681 414 1 682 413 1 683 416 4 684 417 4 685 418 4 686 417 4 687 416 4 688 419 4 689 420 5 690 421 5 691 422 5 692 423 5 693 422 5 694 421 5 695 424 1 696 425 1 697 426 1 698 425 1 699 424 1 700 427 1 701 428 0 702 429 0 703 430 0 704 431 0 705 430 0 706 429 0 707 432 4 708 433 4 709 434 4 710 433 4 711 432 4 712 435 4 713 436 5 714 437 5 715 438 5 716 439 5 717 438 5 718 437 5 719 440 42 720 441 42 721 442 42 722 441 42 723 440 42 724 443 42 725 444 43 726 445 43 727 446 43 728 447 43 729 446 43 730 445 43 731 448 1 732 449 1 733 450 1 734 449 1 735 448 1 736 451 1 737 452 0 738 453 0 739 454 0 740 455 0 741 454 0 742 453 0 743 456 1 744 457 1 745 458 1 746 459 1 747 458 1 748 457 1 749 460 0 750 461 0 751 462 0 752 461 0 753 460 0 754 463 0 755 464 44 756 465 44 757 466 44 758 467 14 759 466 14 760 465 14 761 468 45 762 469 45 763 470 45 764 469 45 765 471 45 766 470 45 767 470 46 768 471 46 769 472 46 770 472 47 771 471 47 772 464 47 773 464 48 774 471 48 775 465 48 776 473 2 777 465 2 778 471 2 779 474 8 780 475 8 781 476 8 782 476 49 783 475 49 784 468 49 785 468 50 786 475 50 787 469 50 788 477 2 789 469 2 790 475 2 791 478 3 792 479 3 793 480 3 794 479 51 795 478 51 796 481 51 797 481 52 798 478 52 799 482 52 800 482 21 801 478 21 802 483 21 803 484 3 804 485 3 805 486 3 806 485 53 807 484 53 808 487 53 809 487 54 810 484 54 811 488 54 812 488 55 813 484 55 814 489 55 815 489 56 816 484 56 817 479 56 818 489 56 819 479 56 820 481 56 821 485 15 822 490 15 823 491 15 824 490 57 825 485 57 826 487 57 827 492 5 828 493 5 829 494 5 830 495 5 831 494 5 832 493 5 833 496 4 834 497 4 835 498 4 836 497 4 837 496 4 838 499 4 839 500 15 840 501 15 841 502 15 842 503 15 843 502 15 844 501 15 845 504 56 846 505 56 847 506 56 848 505 56 849 507 56 850 506 56 851 506 18 852 507 18 853 508 18 854 508 58 855 507 58 856 500 58 857 500 59 858 507 59 859 501 59 860 509 60 861 501 60 862 507 60 863 510 21 864 511 21 865 512 21 866 512 61 867 511 61 868 504 61 869 504 62 870 511 62 871 505 62 872 513 3 873 505 3 874 511 3 875 514 2 876 515 2 877 516 2 878 515 63 879 514 63 880 517 63 881 517 64 882 514 64 883 518 64 884 518 8 885 514 8 886 519 8 887 520 65 888 521 65 889 522 65 890 521 66 891 520 66 892 523 66 893 523 67 894 520 67 895 524 67 896 524 11 897 520 11 898 525 11 899 525 45 900 520 45 901 515 45 902 525 45 903 515 45 904 517 45 905 521 14 906 526 14 907 527 14 908 526 14 909 521 14 910 523 14 911 528 4 912 529 4 913 530 4 914 531 4 915 530 4 916 529 4 917 532 5 918 533 5 919 534 5 920 533 5 921 532 5 922 535 5 923 536 0 924 537 0 925 538 0 926 539 0 927 538 0 928 537 0 929 540 1 930 541 1 931 542 1 932 541 1 933 540 1 934 543 1 935 544 5 936 545 5 937 546 5 938 547 5 939 546 5 940 545 5 941 548 4 942 549 4 943 550 4 944 549 4 945 548 4 946 551 4 947 552 0 948 553 0 949 554 0 950 555 0 951 554 0 952 553 0 953 556 1 954 557 1 955 558 1 956 557 1 957 556 1 958 559 1 959 560 68 960 561 68 961 562 68 962 563 68 963 562 68 964 561 68 965 564 69 966 565 69 967 566 69 968 565 69 969 564 69 970 567 69 971 568 5 972 569 5 973 570 5 974 571 5 975 570 5 976 569 5 977 572 4 978 573 4 979 574 4 980 573 4 981 572 4 982 575 4 983 576 0 984 577 0 985 578 0 986 579 70 987 578 70 988 577 70 989 580 71 990 581 71 991 582 71 992 581 1 993 580 1 994 583 1 995 584 5 996 585 5 997 586 5 998 587 5 999 586 5 1000 585 5 1001 588 4 1002 589 4 1003 590 4 1004 589 4 1005 588 4 1006 591 4 1007 592 1 1008 593 1 1009 594 1 1010 595 1 1011 594 1 1012 593 1 1013 596 0 1014 597 0 1015 598 0 1016 597 0 1017 596 0 1018 599 0 1019 600 5 1020 601 5 1021 602 5 1022 603 5 1023 602 5 1024 601 5 1025 604 4 1026 605 4 1027 606 4 1028 605 4 1029 604 4 1030 607 4 1031 608 72 1032 609 72 1033 610 72 1034 611 72 1035 610 72 1036 609 72 1037 612 73 1038 613 73 1039 614 73 1040 613 73 1041 612 73 1042 615 73 1043 616 1 1044 617 1 1045 618 1 1046 619 1 1047 618 1 1048 617 1 1049 620 0 1050 621 0 1051 622 0 1052 621 0 1053 620 0 1054 623 0 1055</p>
        </triangles>
      </mesh>
    </geometry>
  </library_geometries>
  <library_visual_scenes>
    <visual_scene id="Scene" name="Scene">
      <node id="group_2_219" name="group_2.219" type="NODE">
        <matrix sid="transform">-0.019 0 0 0.009940267 0 -1.97808e-8 -0.019 0 0 0.019 -1.97808e-8 0.012901 0 0 0 1</matrix>
        <instance_geometry url="#ID2459_001-mesh" name="group_2.219">
          <bind_material>
            <technique_common>
              <instance_material symbol="Wood05-basecolor-material" target="#Wood05-basecolor-material">
                <bind_vertex_input semantic="ID2487" input_semantic="TEXCOORD" input_set="0"/>
              </instance_material>
            </technique_common>
          </bind_material>
        </instance_geometry>
      </node>
    </visual_scene>
  </library_visual_scenes>
  <scene>
    <instance_visual_scene url="#Scene"/>
  </scene>
</COLLADA>