<?xml version="1.0" encoding="utf-8"?>
<COLLADA xmlns="http://www.collada.org/2005/11/COLLADASchema" version="1.4.1" xmlns:xsi="http://www.w3.org/2001/XMLSchema-instance">
  <asset>
    <contributor>
      <author>Blender User</author>
      <authoring_tool>Blender 2.83.20 commit date:2022-04-19, commit time:16:00, hash:a56e2faeb7a9</authoring_tool>
    </contributor>
    <created>2026-07-08T18:04:58</created>
    <modified>2026-07-08T18:04:58</modified>
    <unit name="meter" meter="1"/>
    <up_axis>Z_UP</up_axis>
  </asset>
  <library_effects>
    <effect id="Metal21-basecolor-effect">
      <profile_COMMON>
        <newparam sid="BaseColor_-_복사본_png-surface">
          <surface type="2D">
            <init_from>BaseColor_-_복사본_png</init_from>
          </surface>
        </newparam>
        <newparam sid="BaseColor_-_복사본_png-sampler">
          <sampler2D>
            <source>BaseColor_-_복사본_png-surface</source>
          </sampler2D>
        </newparam>
        <technique sid="common">
          <lambert>
            <emission>
              <color sid="emission">0 0 0 1</color>
            </emission>
            <diffuse>
              <texture texture="BaseColor_-_복사본_png-sampler" texcoord="ID1431"/>
            </diffuse>
            <index_of_refraction>
              <float sid="ior">1.45</float>
            </index_of_refraction>
          </lambert>
        </technique>
      </profile_COMMON>
    </effect>
  </library_effects>
  <library_images>
    <image id="BaseColor_-_복사본_png" name="BaseColor_-_복사본_png">
      <init_from>BaseColor%20-%20%EB%B3%B5%EC%82%AC%EB%B3%B8.png</init_from>
    </image>
  </library_images>
  <library_materials>
    <material id="Metal21-basecolor-material" name="Metal21-basecolor">
      <instance_effect url="#Metal21-basecolor-effect"/>
    </material>
  </library_materials>
  <library_geometries>
    <geometry id="ID1427_001-mesh" name="ID1427.001">
      <mesh>
        <source id="ID1427_001-mesh-positions">
          <float_array id="ID1427_001-mesh-positions-array" count="408">-0.3174138 -2.347376 72 3.652625 -2.347376 72 -0.3174138 -2.347376 -72 3.652625 -2.347376 -72 3.652625 -2.347376 72 -0.3174138 -2.347376 -72 3.652625 -2.347376 -72 -0.3174138 -2.347376 72 3.652625 -2.347376 72 4.085638 -2.097376 72 3.652625 -2.347376 -72 4.085638 -2.097376 -72 4.085638 -2.097376 72 3.652625 -2.347376 -72 4.085638 -2.097376 -72 3.652625 -2.347376 72 -1.094246 -2.192854 72 -0.3174138 -2.347376 72 -1.094246 -2.192854 -72 -0.3174138 -2.347376 -72 -0.3174138 -2.347376 72 -1.094246 -2.192854 -72 -0.3174138 -2.347376 -72 -1.094246 -2.192854 72 4.085638 -1.597376 72 4.085638 -1.597376 -72 4.085638 -2.097376 72 4.085638 -2.097376 -72 4.085638 -1.597376 -72 4.085638 -2.097376 72 4.085638 -2.097376 -72 4.085638 -1.597376 72 -1.752813 -1.752814 72 -1.094246 -2.192854 72 -1.752813 -1.752814 -72 -1.094246 -2.192854 -72 -1.094246 -2.192854 72 -1.752813 -1.752814 -72 -1.094246 -2.192854 -72 -1.752813 -1.752814 72 4.085638 -1.597376 72 3.652625 -1.347376 72 4.085638 -1.597376 -72 3.652625 -1.347376 -72 3.652625 -1.347376 72 4.085638 -1.597376 -72 3.652625 -1.347376 -72 4.085638 -1.597376 72 -2.192853 -1.094247 -72 -2.192853 -1.094247 72 -1.752813 -1.752814 -72 -1.752813 -1.752814 72 -2.192853 -1.094247 72 -1.752813 -1.752814 -72 -1.752813 -1.752814 72 -2.192853 -1.094247 -72 3.652625 -1.347376 72 0.6526251 -1.347376 72 3.652625 -1.347376 -72 0.6526251 -1.347376 -72 0.6526251 -1.347376 72 3.652625 -1.347376 -72 0.6526251 -1.347376 -72 3.652625 -1.347376 72 -2.347375 -0.3174148 -72 -2.347375 -0.3174148 72 -2.192853 -1.094247 -72 -2.192853 -1.094247 72 -2.347375 -0.3174148 72 -2.192853 -1.094247 -72 -2.192853 -1.094247 72 -2.347375 -0.3174148 -72 0.6526251 -0.3401909 72 0.6526251 -0.3401909 -72 0.6526251 -1.347376 72 0.6526251 -1.347376 -72 0.6526251 -0.3401909 -72 0.6526251 -1.347376 72 0.6526251 -1.347376 -72 0.6526251 -0.3401909 72 -2.347375 3.652624 -72 -2.347375 3.652624 72 -2.347375 -0.3174148 -72 -2.347375 -0.3174148 72 -2.347375 3.652624 72 -2.347375 -0.3174148 -72 -2.347375 -0.3174148 72 -2.347375 3.652624 -72 -0.3401899 0.6526241 72 -0.3401899 0.6526241 -72 0.6526251 -0.3401909 72 0.6526251 -0.3401909 -72 -0.3401899 0.6526241 -72 0.6526251 -0.3401909 72 0.6526251 -0.3401909 -72 -0.3401899 0.6526241 72 -2.097375 4.085637 -72 -2.097375 4.085637 72 -2.347375 3.652624 -72 -2.347375 3.652624 72 -2.097375 4.085637 72 -2.347375 3.652624 -72 -2.347375 3.652624 72 -2.097375 4.085637 -72 -0.3401899 0.6526241 72 -1.347375 0.6526241 72 -0.3401899 0.6526241 -72 -1.347375 0.6526241 -72 -1.347375 0.6526241 72 -0.3401899 0.6526241 -72 -1.347375 0.6526241 -72 -0.3401899 0.6526241 72 -1.597375 4.085637 72 -2.097375 4.085637 72 -1.597375 4.085637 -72 -2.097375 4.085637 -72 -2.097375 4.085637 72 -1.597375 4.085637 -72 -2.097375 4.085637 -72 -1.597375 4.085637 72 -1.347375 3.652624 72 -1.347375 3.652624 -72 -1.347375 0.6526241 72 -1.347375 0.6526241 -72 -1.347375 3.652624 -72 -1.347375 0.6526241 72 -1.347375 0.6526241 -72 -1.347375 3.652624 72 -1.597375 4.085637 72 -1.597375 4.085637 -72 -1.347375 3.652624 72 -1.347375 3.652624 -72 -1.597375 4.085637 -72 -1.347375 3.652624 72 -1.347375 3.652624 -72 -1.597375 4.085637 72</float_array>
          <technique_common>
            <accessor source="#ID1427_001-mesh-positions-array" count="136" stride="3">
              <param name="X" type="float"/>
              <param name="Y" type="float"/>
              <param name="Z" type="float"/>
            </accessor>
          </technique_common>
        </source>
        <source id="ID1427_001-mesh-normals">
          <float_array id="ID1427_001-mesh-normals-array" count="84">0 1 0 0 -1 0 -0.4999997 0.8660256 0 0.4999997 -0.8660256 0 0.1950905 0.9807853 0 0.1950905 0.9807853 0 -0.1950905 -0.9807853 0 -0.1950905 -0.9807853 0 -1 0 0 1 0 0 0.55557 0.8314698 0 0.5555701 0.8314697 0 -0.5555701 -0.8314697 0 -0.55557 -0.8314698 0 -0.4999997 -0.8660256 0 0.4999997 0.8660256 0 0.8314698 0.55557 0 0.8314697 0.5555702 0 -0.8314697 -0.5555702 0 -0.8314698 -0.55557 0 0.9807853 0.1950903 0 -0.9807853 -0.1950903 0 -0.7071068 -0.7071068 0 0.7071068 0.7071068 0 0.8660256 -0.4999998 0 -0.8660256 0.4999998 0 -0.8660256 -0.4999998 0 0.8660256 0.4999998 0</float_array>
          <technique_common>
            <accessor source="#ID1427_001-mesh-normals-array" count="28" stride="3">
              <param name="X" type="float"/>
              <param name="Y" type="float"/>
              <param name="Z" type="float"/>
            </accessor>
          </technique_common>
        </source>
        <source id="ID1427_001-mesh-map-0">
          <float_array id="ID1427_001-mesh-map-0-array" count="408">0.07462298 0 0.02046316 0 0.07462298 1.964467 0.02046316 1.964467 0.07462298 1.964467 0.02046316 0 0.02046316 0 0.07462298 1.964467 0.02046316 1.964467 0.07462298 1.964467 0.02046316 0 0.07462298 0 0.02046316 0 0.01364213 0 0.02046316 1.964467 0.01364213 1.964467 0.02046316 1.964467 0.01364213 0 0.01364213 0 0.02046316 1.964467 0.01364213 1.964467 0.02046316 1.964467 0.01364213 0 0.02046316 0 0.08542823 0 0.07462298 0 0.08542823 1.964467 0.07462298 1.964467 0.08542823 1.964467 0.07462298 0 0.07462298 0 0.08542823 1.964467 0.07462298 1.964467 0.08542823 1.964467 0.07462298 0 0.08542823 0 0.006821036 0 0.006821036 1.964467 0.01364213 0 0.01364213 1.964467 0.01364213 0 0.006821036 1.964467 0.006821036 1.964467 0.01364213 0 0.01364213 1.964467 0.01364213 0 0.006821036 1.964467 0.006821036 0 0.09623354 0 0.08542823 0 0.09623354 1.964467 0.08542823 1.964467 0.09623354 1.964467 0.08542823 0 0.08542823 0 0.09623354 1.964467 0.08542823 1.964467 0.09623354 1.964467 0.08542823 0 0.09623354 0 0.006821036 0 0 0 0.006821036 1.964467 0 1.964467 0.006821036 1.964467 0 0 0 0 0.006821036 1.964467 0 1.964467 0.006821036 1.964467 0 0 0.006821036 0 0.1070388 1.964467 0.1070388 0 0.09623354 1.964467 0.09623354 0 0.09623354 1.964467 0.1070388 0 0.1070388 0 0.09623354 1.964467 0.09623354 0 0.09623354 1.964467 0.1070388 0 0.1070388 1.964467 0.3209545 0 0.2800281 0 0.3209545 1.964467 0.2800281 1.964467 0.3209545 1.964467 0.2800281 0 0.2800281 0 0.3209545 1.964467 0.2800281 1.964467 0.3209545 1.964467 0.2800281 0 0.3209545 0 0.1178441 1.964467 0.1178441 0 0.1070388 1.964467 0.1070388 0 0.1070388 1.964467 0.1178441 0 0.1178441 0 0.1070388 1.964467 0.1070388 0 0.1070388 1.964467 0.1178441 0 0.1178441 1.964467 0.2662879 0 0.2662879 1.964467 0.2800281 0 0.2800281 1.964467 0.2800281 0 0.2662879 1.964467 0.2662879 1.964467 0.2800281 0 0.2800281 1.964467 0.2800281 0 0.2662879 1.964467 0.2662879 0 0.1720039 1.964467 0.1720039 0 0.1178441 1.964467 0.1178441 0 0.1178441 1.964467 0.1720039 0 0.1720039 0 0.1178441 1.964467 0.1178441 0 0.1178441 1.964467 0.1720039 0 0.1720039 1.964467 0.2471336 0 0.2471336 1.964467 0.2662879 0 0.2662879 1.964467 0.2662879 0 0.2471336 1.964467 0.2471336 1.964467 0.2662879 0 0.2662879 1.964467 0.2662879 0 0.2471336 1.964467 0.2471336 0 0.178825 1.964467 0.178825 0 0.1720039 1.964467 0.1720039 0 0.1720039 1.964467 0.178825 0 0.178825 0 0.1720039 1.964467 0.1720039 0 0.1720039 1.964467 0.178825 0 0.178825 1.964467 0.2471336 0 0.2333935 0 0.2471336 1.964467 0.2333935 1.964467 0.2471336 1.964467 0.2333935 0 0.2333935 0 0.2471336 1.964467 0.2333935 1.964467 0.2471336 1.964467 0.2333935 0 0.2471336 0 0.1856459 0 0.178825 0 0.1856459 1.964467 0.178825 1.964467 0.1856459 1.964467 0.178825 0 0.178825 0 0.1856459 1.964467 0.178825 1.964467 0.1856459 1.964467 0.178825 0 0.1856459 0 0.1924671 0 0.1924671 1.964467 0.2333935 0 0.2333935 1.964467 0.2333935 0 0.1924671 1.964467 0.1924671 1.964467 0.2333935 0 0.2333935 1.964467 0.2333935 0 0.1924671 1.964467 0.1924671 0 0.1856459 0 0.1856459 1.964467 0.1924671 0 0.1924671 1.964467 0.1924671 0 0.1856459 1.964467 0.1856459 1.964467 0.1924671 0 0.1924671 1.964467 0.1924671 0 0.1856459 1.964467 0.1856459 0</float_array>
          <technique_common>
            <accessor source="#ID1427_001-mesh-map-0-array" count="204" stride="2">
              <param name="S" type="float"/>
              <param name="T" type="float"/>
            </accessor>
          </technique_common>
        </source>
        <vertices id="ID1427_001-mesh-vertices">
          <input semantic="POSITION" source="#ID1427_001-mesh-positions"/>
        </vertices>
        <triangles material="Metal21-basecolor-material" count="68">
          <input semantic="VERTEX" source="#ID1427_001-mesh-vertices" offset="0"/>
          <input semantic="NORMAL" source="#ID1427_001-mesh-normals" offset="1"/>
          <input semantic="TEXCOORD" source="#ID1427_001-mesh-map-0" offset="2" set="0"/>
          <p>0 0 0 1 0 1 2 0 2 3 0 3 2 0 4 1 0 5 4 1 6 5 1 7 6 1 8 5 1 9 4 1 10 7 1 11 8 2 12 9 2 13 10 2 14 11 2 15 10 2 16 9 2 17 12 3 18 13 3 19 14 3 20 13 3 21 12 3 22 15 3 23 16 4 24 17 4 25 18 4 26 19 5 27 18 5 28 17 5 29 20 6 30 21 6 31 22 6 32 21 7 33 20 7 34 23 7 35 24 8 36 25 8 37 26 8 38 27 8 39 26 8 40 25 8 41 28 9 42 29 9 43 30 9 44 29 9 45 28 9 46 31 9 47 32 10 48 33 10 49 34 10 50 35 11 51 34 11 52 33 11 53 36 12 54 37 12 55 38 12 56 37 13 57 36 13 58 39 13 59 40 14 60 41 14 61 42 14 62 43 14 63 42 14 64 41 14 65 44 15 66 45 15 67 46 15 68 45 15 69 44 15 70 47 15 71 48 16 72 49 16 73 50 16 74 51 17 75 50 17 76 49 17 77 52 18 78 53 18 79 54 18 80 53 19 81 52 19 82 55 19 83 56 1 84 57 1 85 58 1 86 59 1 87 58 1 88 57 1 89 60 0 90 61 0 91 62 0 92 61 0 93 60 0 94 63 0 95 64 20 96 65 20 97 66 20 98 67 20 99 66 20 100 65 20 101 68 21 102 69 21 103 70 21 104 69 21 105 68 21 106 71 21 107 72 8 108 73 8 109 74 8 110 75 8 111 74 8 112 73 8 113 76 9 114 77 9 115 78 9 116 77 9 117 76 9 118 79 9 119 80 9 120 81 9 121 82 9 122 83 9 123 82 9 124 81 9 125 84 8 126 85 8 127 86 8 128 85 8 129 84 8 130 87 8 131 88 22 132 89 22 133 90 22 134 91 22 135 90 22 136 89 22 137 92 23 138 93 23 139 94 23 140 93 23 141 92 23 142 95 23 143 96 24 144 97 24 145 98 24 146 99 24 147 98 24 148 97 24 149 100 25 150 101 25 151 102 25 152 101 25 153 100 25 154 103 25 155 104 1 156 105 1 157 106 1 158 107 1 159 106 1 160 105 1 161 108 0 162 109 0 163 110 0 164 109 0 165 108 0 166 111 0 167 112 1 168 113 1 169 114 1 170 115 1 171 114 1 172 113 1 173 116 0 174 117 0 175 118 0 176 117 0 177 116 0 178 119 0 179 120 8 180 121 8 181 122 8 182 123 8 183 122 8 184 121 8 185 124 9 186 125 9 187 126 9 188 125 9 189 124 9 190 127 9 191 128 26 192 129 26 193 130 26 194 131 26 195 130 26 196 129 26 197 132 27 198 133 27 199 134 27 200 133 27 201 132 27 202 135 27 203</p>
        </triangles>
      </mesh>
    </geometry>
  </library_geometries>
  <library_visual_scenes>
    <visual_scene id="Scene" name="Scene">
      <node id="instance_9_002" name="instance_9.002" type="NODE">
        <matrix sid="transform">-0.019 0 0 0.5642959 0 -2.86892e-9 -0.019 -1.37 0 0.019 -2.86892e-9 -0.5362483 0 0 0 1</matrix>
        <instance_geometry url="#ID1427_001-mesh" name="instance_9.002">
          <bind_material>
            <technique_common>
              <instance_material symbol="Metal21-basecolor-material" target="#Metal21-basecolor-material">
                <bind_vertex_input semantic="ID1431" input_semantic="TEXCOORD" input_set="0"/>
              </instance_material>
            </technique_common>
          </bind_material>
        </instance_geometry>
      </node>
    </visual_scene>
  </library_visual_scenes>
  <scene>
    <instance_visual_scene url="#Scene"/>
  </scene>
</COLLADA>